<svg xmlns="http://www.w3.org/2000/svg" height="1024" preserveAspectRatio="none" style="display: block;" version="1.1" viewBox="0 0 2048 1024" width="2048">
<defs>
	<linearGradient gradientUnits="userSpaceOnUse" id="Gradient1" x1="1464.04" x2="1463.93" y1="820.569" y2="823.39">
		<stop class="stop0" offset="0" stop-color="rgb(0,12,35)" stop-opacity="1"></stop>
		<stop class="stop1" offset="1" stop-color="rgb(20,45,65)" stop-opacity="1"></stop>
	</linearGradient>
</defs>
<path d="M 0 0 L 2048 0 L 2048 1024 L 0 1024 L 0 0 z" fill="rgb(251,249,242)" transform="translate(0,0)"></path>
<path d="M 1153.51 169.217 L 1271.16 78.5673 C 1279.98 71.7792 1320.49 39.5753 1328.06 37.0325 C 1328.49 37.5391 1329.01 38.1483 1329.61 38.86 C 1330.51 107.313 1330.06 210.991 1330.02 276.312 C 1339.95 269.177 1390.12 252.539 1403.9 247.558 C 1474.59 222.046 1545.58 197.381 1616.86 173.568 C 1648.08 163.052 1688.05 151.455 1717.85 140.125 C 1754.17 173.62 1788.32 209.793 1824.16 243.801 C 1837.72 256.674 1855.02 275.009 1868.94 286.804 L 1869.21 204.662 C 1872.83 203.393 1875.9 201.88 1879.6 202.689 C 1882.77 204.256 1883.67 205.913 1884.81 208.277 C 1886.04 210.823 1899.18 205.682 1902.23 204.664 C 1919.34 198.957 1936.53 192.653 1953.91 187.72 C 1953.67 180.667 1952.9 173.995 1962.01 172.506 C 1968.16 173.435 1971.22 178.981 1971.03 184.788 C 1970.36 204.774 1970.28 224.718 1970.34 244.713 L 1970.83 416.065 L 1971.03 874.18 C 1976.55 873.96 1985.52 872.574 1986.94 879.823 C 1984.48 882.159 1982.11 882.875 1978.54 882.933 C 1961.35 883.217 1943.85 882.909 1926.66 882.889 L 1822.75 882.903 L 1494.92 882.873 L 1494.95 911.347 C 1507.92 911.68 1521.07 912.126 1534.02 912.277 C 1534.1 916.778 1534.15 921.279 1534.16 925.781 C 1577.02 933.576 1623.48 937.39 1666.29 945.186 C 1583.02 952.815 1499.62 959.051 1416.14 963.891 C 1353.61 967.924 1290.21 973.075 1227.59 970.689 C 1211.73 970.084 1151.56 961.871 1145 949.607 C 1145.93 942.322 1155.52 942.36 1161.58 941.479 C 1132.32 928.037 1134.91 900.382 1135.17 872.776 C 1053.45 865.528 968.768 860.558 886.681 854.022 L 733.673 841.222 C 709.064 839.028 681.601 835.756 657.251 834.17 C 633.72 832.638 604.018 835.065 579.831 834.182 C 573.007 833.934 542.508 833.374 537.318 834.824 C 531.349 835.611 527.381 834.154 524.158 835.601 C 513.639 832.609 471.051 833.832 457.647 833.872 L 353.813 834.189 L 218.762 913.98 C 209.899 919.228 153.633 955.48 148.222 953.726 C 149.538 951.202 153.335 948.121 155.777 946.708 C 219.451 909.877 281.863 869.935 345.84 833.739 C 339.697 833.684 328.173 833.204 322.685 834.578 C 315.656 836.337 307.662 840.93 299.969 841.471 C 282.801 842.678 263.96 842.115 246.694 842.036 L 246.624 860.634 C 228.912 867.626 206.702 876.938 188.678 882.218 C 183.564 883.716 155.817 883.218 149.081 883.209 L 71.1809 882.984 C 70.3318 857.942 70.8755 829.746 70.8243 804.467 C 70.7902 795.196 70.8759 785.925 71.0814 776.656 C 69.7479 763.525 70.8112 724.74 70.8255 709.336 L 70.9944 566.191 L 70.9475 126.115 L 187.812 126.094 C 188.556 132.927 189.2 135.329 191.141 141.88 C 203.901 187.259 217.743 232.327 232.655 277.044 C 234.76 283.216 247.107 316.525 246.669 319.837 C 246.242 368.557 246.181 417.279 246.488 466 C 258.933 466.509 271.386 466.769 283.841 466.781 C 288.155 466.811 300.621 466.643 304.135 467.149 C 310.674 474.179 314.943 493.198 320.249 499.731 C 325.288 492.426 314.921 470.668 312.113 462.48 C 306.503 445.7 301.185 428.824 296.162 411.859 C 267.625 316.799 241.719 220.969 218.474 124.479 C 213.086 101.092 207.124 76.8162 202.93 53.2632 C 201.701 46.3614 215.297 35.2418 221.986 54.1585 C 250.338 57.2554 288.106 62.7148 315.769 64.4453 C 331.227 50.7395 330.237 66.0675 334.201 66.7947 C 349.678 69.6338 419.987 77.2243 433.122 79.2061 C 441.905 72.2404 446.05 72.9779 451.668 82.5041 C 484.604 84.7676 517.193 90.6876 550.037 93.3096 C 552.907 93.5387 559.672 80.8846 569.088 96.5631 C 596.862 99.9872 637.371 103.516 663.811 108.626 C 671.682 99.5048 675.129 101.702 681.846 110.499 C 711.752 114.967 743.305 118.056 773.435 121.874 C 779.058 117.249 783.792 113.865 789.427 120.908 C 790.295 122.014 791.136 123.142 791.949 124.289 C 818.536 126.828 853.152 130.596 879.557 134.49 C 887.665 125.806 890.11 127.247 896.43 136.403 C 923.269 139.673 954.048 144.177 980.708 146.48 C 983.461 144.129 986.006 141.331 989.484 141.126 C 996.4 143.482 995.227 148.181 999.391 148.906 C 1006.58 150.157 1015.87 151.104 1023.13 151.985 L 1080.32 159.001 C 1083.12 156.829 1084.81 155.071 1088.33 154.864 C 1092.89 155.883 1093.29 156.62 1095.88 160.698 L 1096.25 161.291 C 1115.3 164.159 1134.39 166.801 1153.51 169.217 z" fill="rgb(1,29,56)" transform="translate(0,0)"></path>
<path d="M 189.601 252.587 C 190.076 251.436 190.664 251.198 191.687 250.444 L 194.428 253.315 C 196.171 257.153 200.863 268.526 202.784 271.223 C 203.275 274.16 203.616 274.58 205.245 277.101 C 208.294 287.643 212.734 298.165 217.324 308.117 L 218.078 276.035 C 218.664 272.681 218.651 264.378 220.242 262.448 L 221.202 264.166 C 222.313 266.496 223.442 268.817 224.592 271.129 L 226.135 271.051 C 233.763 287.605 229.139 289.653 231.128 304.272 C 231.642 314.763 230.658 324.855 230.953 334.979 C 229.295 346.981 238.095 365.097 241.379 378.211 L 241.768 380.207 L 243.664 378.997 L 243.784 380.765 L 242.938 380.965 C 241.801 381.245 241.671 381.336 240.652 381.985 C 240.011 386.139 243.043 388.024 243.276 392.493 C 243.981 405.988 242.98 419.496 242.898 432.995 C 242.953 447.234 245.213 496.517 241.544 507.973 L 241.706 511.639 C 237.288 506.557 231.347 495.8 227.566 489.875 C 214.475 469.368 202.187 444.727 188.039 425.097 L 188.563 419.968 L 186.767 418.563 C 187.693 418.123 188.035 417.992 189 417.728 L 189.851 417.499 L 187.754 415.469 C 185.479 390.737 189.722 356.968 188.023 331.584 C 187.536 324.297 188.557 328.127 190.736 324.632 C 190.455 324.005 190.179 323.376 189.907 322.745 C 188.342 319.087 187.437 318.503 188.592 315.586 C 190.698 297.931 187.244 270.881 189.601 252.587 z" fill="rgb(1,21,43)" transform="translate(0,0)"></path>
<path d="M 188.592 315.586 C 190.698 297.931 187.244 270.881 189.601 252.587 C 191.984 258.492 199.06 275.342 200.173 280.757 C 203.768 298.246 201.324 322.606 201.355 341.075 C 196.847 332.682 192.868 323.364 188.592 315.586 z" fill="rgb(251,249,242)" transform="translate(0,0)"></path>
<path d="M 221.202 264.166 C 222.313 266.496 223.442 268.817 224.592 271.129 L 226.135 271.051 C 233.763 287.605 229.139 289.653 231.128 304.272 C 231.642 314.763 230.658 324.855 230.953 334.979 L 227.449 333.859 C 216.654 316.197 220.838 285.656 221.202 264.166 z" fill="rgb(251,249,242)" transform="translate(0,0)"></path>
<path d="M 224.592 271.129 L 226.135 271.051 C 233.763 287.605 229.139 289.653 231.128 304.272 C 231.642 314.763 230.658 324.855 230.953 334.979 L 227.449 333.859 C 227.583 309.795 232.168 294.202 224.592 271.129 z" fill="rgb(1,21,43)" transform="translate(0,0)"></path>
<path d="M 188.039 425.097 L 188.563 419.968 C 203.88 446.009 224.902 483.192 241.544 507.973 L 241.706 511.639 C 237.288 506.557 231.347 495.8 227.566 489.875 C 214.475 469.368 202.187 444.727 188.039 425.097 z" fill="rgb(208,217,225)" transform="translate(0,0)"></path>
<path d="M 189.181 328.718 C 192.473 331.41 206.178 361.882 206.784 367.432 C 209.347 390.944 208.486 419.947 208.299 443.521 C 205.337 441.009 191.795 417.706 189.013 413.071 C 188.902 384.953 188.958 356.835 189.181 328.718 z" fill="rgb(251,189,93)" transform="translate(0,0)"></path>
<path d="M 211.315 374.83 C 213.8 377.833 221.989 394.919 223.272 399.39 C 229.186 420.01 226.314 452.326 226.006 473.37 C 221.993 469.938 214.07 454.801 211.414 449.702 C 212.145 443.08 211.709 429.511 211.648 422.35 L 211.315 374.83 z" fill="rgb(251,189,93)" transform="translate(0,0)"></path>
<path d="M 230.18 416.76 C 232.869 419.55 238.437 432.998 241.978 438.546 C 242.048 459.437 241.987 480.328 241.796 501.219 C 241.651 501.099 241.507 500.98 241.363 500.86 C 228.805 486.431 229.522 469.758 229.832 452.396 C 230.059 439.638 229.883 428.646 230.18 416.76 z" fill="rgb(251,189,93)" transform="translate(0,0)"></path>
<path d="M 205.325 293.719 C 211.165 299.287 217.066 320.769 217.112 329.467 C 217.189 343.967 216.932 358.754 216.686 373.273 C 212.626 370.416 205.503 351.815 205.142 346.403 C 204.011 329.452 204.955 310.671 205.325 293.719 z" fill="rgb(251,249,242)" transform="translate(0,0)"></path>
<path d="M 231.311 362.811 C 233.702 365.358 238.029 380.733 239.231 385.152 C 242.992 398.977 242.085 413.996 241.803 428.21 C 241.668 428.074 241.533 427.938 241.398 427.803 C 227.377 408.712 230.862 384.737 231.311 362.811 z" fill="rgb(251,249,242)" transform="translate(0,0)"></path>
<path d="M 220.356 330.826 C 220.461 330.918 220.565 331.01 220.67 331.103 C 232.005 348.286 228.354 379.468 227.744 398.2 C 225.886 396.194 220.458 382.803 219.004 379.428 C 220.466 372.14 220.253 339.79 220.356 330.826 z" fill="rgb(251,249,242)" transform="translate(0,0)"></path>
<path d="M 165.021 806.231 C 167.881 806.502 170.335 806.32 172.316 808.165 C 173.643 820.124 172.45 861.693 172.32 876.009 L 75.7422 876.417 C 75.7683 853.345 75.6365 830.273 75.3468 807.203 C 91.8435 806.383 155.404 809.154 165.021 806.231 z" fill="rgb(251,249,242)" transform="translate(0,0)"></path>
<path d="M 188.093 614.182 C 188.093 601.786 187.227 501.262 189.248 496.991 C 197.53 505.326 237.66 554.918 241.789 557.114 C 242.448 562.086 242.038 579.955 242.046 586.364 L 242.174 647.74 C 226.552 637.172 204.82 624.943 188.093 614.182 z" fill="rgb(251,189,93)" transform="translate(0,0)"></path>
<path d="M 188.039 425.097 C 202.187 444.727 214.475 469.368 227.566 489.875 C 231.347 495.8 237.288 506.557 241.706 511.639 C 241.928 512.932 242.425 514.878 242.145 516.024 C 242.06 522.637 242.285 547.001 241.55 552.021 C 241.715 553.648 241.876 555.193 242.103 556.813 L 241.789 557.114 C 237.66 554.918 197.53 505.326 189.248 496.991 L 191.405 493.186 C 186.203 485.964 188.851 443.564 189.231 432.581 C 188.249 430.793 188.218 427.281 188.039 425.097 z" fill="rgb(1,21,43)" transform="translate(0,0)"></path>
<path d="M 189.231 432.581 C 192.853 438.271 198.124 447.084 202.086 452.204 L 202.158 505.144 L 191.405 493.186 C 186.203 485.964 188.851 443.564 189.231 432.581 z" fill="rgb(251,249,242)" transform="translate(0,0)"></path>
<path d="M 241.55 552.021 C 240.966 551.282 239.342 549.053 238.998 548.408 C 236.525 543.771 237.203 516.608 238.155 513.184 C 239.629 514.118 240.754 514.972 242.145 516.024 C 242.06 522.637 242.285 547.001 241.55 552.021 z" fill="rgb(251,249,242)" transform="translate(0,0)"></path>
<path d="M 206.017 459.798 C 209.003 463.661 216.285 476.315 219.188 481.067 C 219.679 495.233 219.525 510.152 219.578 524.384 C 216.259 522.556 208.499 512.318 205.857 509.007 C 205.791 492.604 205.845 476.2 206.017 459.798 z" fill="rgb(251,249,242)" transform="translate(0,0)"></path>
<path d="M 222.949 487.675 C 238.163 507.337 234.882 518.112 234.427 542.516 C 230.819 539.038 226.324 533.195 223.044 529.184 C 222.847 515.348 222.815 501.511 222.949 487.675 z" fill="rgb(251,249,242)" transform="translate(0,0)"></path>
<path d="M 191.141 141.88 C 203.901 187.259 217.743 232.327 232.655 277.044 C 234.76 283.216 247.107 316.525 246.669 319.837 L 245.349 321.937 C 245.284 315.52 222.791 255.831 219.527 243.228 L 218.626 243.739 C 217.222 248.397 219.564 248.954 218.61 255.328 L 218.477 256.174 C 217.619 262.778 217.954 269.371 218.078 276.035 L 217.324 308.117 C 212.734 298.165 208.294 287.643 205.245 277.101 C 203.616 274.58 203.275 274.16 202.784 271.223 C 200.863 268.526 196.171 257.153 194.428 253.315 C 192.985 249.218 189.983 240.451 189.712 236.558 C 189.063 227.237 187.5 172.15 188.953 166.506 L 192.241 164.146 C 190.421 158.246 187.854 152.276 188.832 146.381 L 188.544 144.736 L 191.141 141.88 z" fill="rgb(1,21,43)" transform="translate(0,0)"></path>
<path d="M 188.953 166.506 C 209.867 213.384 202.512 222.506 202.784 271.223 C 200.863 268.526 196.171 257.153 194.428 253.315 C 192.985 249.218 189.983 240.451 189.712 236.558 C 189.063 227.237 187.5 172.15 188.953 166.506 z" fill="rgb(251,249,242)" transform="translate(0,0)"></path>
<path d="M 205.245 277.101 C 205.943 258.066 205.944 237.858 206.369 218.716 C 209.918 231.153 215.514 244.067 218.477 256.174 C 217.619 262.778 217.954 269.371 218.078 276.035 L 217.324 308.117 C 212.734 298.165 208.294 287.643 205.245 277.101 z" fill="rgb(251,249,242)" transform="translate(0,0)"></path>
<path d="M 192.241 164.146 C 190.421 158.246 187.854 152.276 188.832 146.381 C 193.628 161.735 198.317 178.089 203.008 193.452 C 205.681 202.207 215.298 230.257 216.076 238.864 C 208.495 216.827 201.026 194.815 194.727 172.38 C 193.952 169.621 193.218 166.84 192.241 164.146 z" fill="rgb(161,172,181)" transform="translate(0,0)"></path>
<path d="M 304.553 605.849 C 306.164 601.471 301.66 601.253 301.596 598.926 C 301.337 589.408 301.419 576.614 301.62 567.43 L 302.586 567.123 L 301.994 565.738 L 301.556 567.921 L 302.084 565.705 C 302.614 566.708 303.034 573.73 303.171 575.384 L 303.84 562.973 L 308.214 570.92 L 310.208 576.255 C 313.402 575.385 312.471 576.063 314.409 573.956 C 317.127 577.853 317.76 579.54 319.577 583.985 C 320.436 588.129 320.873 587.253 319.556 590.755 C 320.604 596.357 320.689 618.548 319.676 624.254 C 322.013 627.193 322.593 628.098 320.636 631.831 C 319.591 638.057 320.154 655.963 320.172 663.102 C 317.593 659.931 312.9 654.583 311.243 651.117 L 309.555 650.022 C 308.611 641.055 308.991 623.079 308.969 613.443 C 306.732 610.586 306.104 609.094 304.553 605.849 z" fill="rgb(1,21,43)" transform="translate(0,0)"></path>
<path d="M 311.814 617.075 L 320.636 631.831 C 319.591 638.057 320.154 655.963 320.172 663.102 C 317.593 659.931 312.9 654.583 311.243 651.117 C 312.03 645.687 311.782 623.623 311.814 617.075 z" fill="rgb(251,249,242)" transform="translate(0,0)"></path>
<path d="M 319.676 624.254 C 309.632 605.388 311.954 597.364 312.149 575.916 C 314.413 580.869 317.073 585.889 319.556 590.755 C 320.604 596.357 320.689 618.548 319.676 624.254 z" fill="rgb(251,249,242)" transform="translate(0,0)"></path>
<path d="M 303.84 562.973 L 308.214 570.92 L 310.208 576.255 C 309.657 578.792 309.778 603.857 309.773 608.288 L 303.236 597.825 C 303.371 590.215 303.552 582.988 303.171 575.384 L 303.84 562.973 z" fill="rgb(251,249,242)" transform="translate(0,0)"></path>
<path d="M 74.7361 792.998 C 92.8948 792.093 113.211 792.64 131.549 792.411 C 142.765 792.271 161.084 791.564 171.437 792.716 C 173.112 795.15 172.561 796.166 172.678 799.565 C 170.108 803.862 162.242 802.414 157.408 802.329 C 134.039 801.208 98.1199 804.352 76.9087 802.352 C 74.8501 799.472 75.178 796.876 74.7361 792.998 z" fill="rgb(251,249,242)" transform="translate(0,0)"></path>
<path d="M 308.646 490.773 C 310.441 489.489 309.849 490.065 310.842 487.96 C 309.417 483.465 308.297 479.198 305.797 475.182 L 304.579 474.98 L 302.964 478.115 L 302.546 477.67 L 302.806 478.371 C 302.523 475.575 302.216 474.389 303.314 471.722 L 304.658 471.472 C 303.581 470.247 302.661 469.174 301.654 467.891 L 304.135 467.149 C 310.674 474.179 314.943 493.198 320.249 499.731 L 316.751 500.369 L 316.195 502.355 L 318.455 505.982 C 317.928 506.323 317.254 506.85 316.712 506.989 L 314.414 503.891 C 311.517 507.38 313.753 522.077 312.631 528.085 C 311.867 534.643 316.264 535.356 316.543 541.619 L 314.769 543.002 L 313.342 543.045 C 312.516 548.592 312.835 557.345 312.883 563.206 C 311.455 565.646 311.025 565.885 308.694 567.522 L 308.214 570.92 L 303.84 562.973 L 303.359 562.136 C 305.133 558.565 300.842 557.714 303.528 552.386 C 304.823 544.741 302.928 532.365 304.56 524.861 L 306.215 525 L 307.719 523.862 L 307.519 520.653 L 308.959 519.163 L 310.098 519.338 C 312.203 513.718 311.267 496.5 308.646 490.773 z" fill="rgb(1,21,43)" transform="translate(0,0)"></path>
<path d="M 303.528 552.386 C 304.823 544.741 302.928 532.365 304.56 524.861 L 306.215 525 C 312.315 539.433 310.63 550.705 310.495 566.368 C 307.912 562.27 303.984 557.058 303.528 552.386 z" fill="rgb(251,249,242)" transform="translate(0,0)"></path>
<path d="M 231.128 304.272 L 232.221 295.628 L 233.094 295.486 C 235.473 302.685 241.895 317.917 241.688 324.388 C 241.212 339.262 243.897 364.149 241.379 378.211 C 238.095 365.097 229.295 346.981 230.953 334.979 C 230.658 324.855 231.642 314.763 231.128 304.272 z" fill="rgb(251,249,242)" transform="translate(0,0)"></path>
<path d="M 71.0814 776.656 C 73.3648 773.738 72.5889 744.305 72.8489 737.615 C 73.0951 748.985 71.5645 785.413 74.7361 792.998 C 75.178 796.876 74.8501 799.472 76.9087 802.352 C 98.1199 804.352 134.039 801.208 157.408 802.329 L 158.241 802.516 C 161.971 803.331 170.128 803.366 171.855 804.6 C 169.028 805.927 168.021 805.921 165.021 806.231 C 155.404 809.154 91.8435 806.383 75.3468 807.203 C 72.1179 806.379 73.3246 807.023 70.8243 804.467 C 70.7902 795.196 70.8759 785.925 71.0814 776.656 z" fill="rgb(1,21,43)" transform="translate(0,0)"></path>
<path d="M 312.883 563.206 C 312.835 557.345 312.516 548.592 313.342 543.045 L 314.769 543.002 C 316.385 546.822 318.893 552.383 319.736 556.26 C 320.914 561.672 321.758 579.387 319.577 583.985 C 317.76 579.54 317.127 577.853 314.409 573.956 C 312.471 576.063 313.402 575.385 310.208 576.255 L 308.214 570.92 L 308.694 567.522 C 311.025 565.885 311.455 565.646 312.883 563.206 z" fill="rgb(251,249,242)" transform="translate(0,0)"></path>
<path d="M 312.883 563.206 C 313.17 567.079 313.233 570.238 314.409 573.956 C 312.471 576.063 313.402 575.385 310.208 576.255 L 308.214 570.92 L 308.694 567.522 C 311.025 565.885 311.455 565.646 312.883 563.206 z" fill="rgb(1,21,43)" transform="translate(0,0)"></path>
<path d="M 309.555 650.022 C 307.554 648.705 305.051 646.882 304.369 644.561 C 302.494 638.18 302.517 610.827 304.553 605.849 C 306.104 609.094 306.732 610.586 308.969 613.443 C 308.991 623.079 308.611 641.055 309.555 650.022 z" fill="rgb(251,249,242)" transform="translate(0,0)"></path>
<path d="M 312.631 528.085 C 313.753 522.077 311.517 507.38 314.414 503.891 L 316.712 506.989 C 322.119 517.219 320.148 527.796 319.925 539.907 C 317.858 535.808 315.92 531.207 312.631 528.085 z" fill="rgb(251,249,242)" transform="translate(0,0)"></path>
<path d="M 304.531 482.361 L 308.646 490.773 C 311.267 496.5 312.203 513.718 310.098 519.338 L 308.959 519.163 C 302.466 507.62 304.309 495.795 304.531 482.361 z" fill="rgb(251,249,242)" transform="translate(0,0)"></path>
<path d="M 1371.78 289.651 C 1402.16 277.194 1439.38 265.116 1470.9 253.904 L 1677.16 182.246 L 1804.8 296.073 C 1824.47 313.518 1847.94 336.404 1868.04 352.192 L 1867.98 417.868 C 1844.63 412.109 1813.77 403.82 1791.13 396.19 L 1791.14 874.608 L 1717.21 874.626 C 1717.34 819.358 1716.19 761.72 1717.2 706.818 C 1682.38 705.185 1646.46 704.48 1611.82 702.387 L 1611.96 874.261 C 1572.83 874.63 1533.71 874.802 1494.58 874.779 L 1494.95 769.902 L 1590.46 770.008 C 1591.17 735.043 1589.54 699.944 1590.29 665.41 C 1580.31 664.855 1498.89 660.336 1496.52 659.195 L 1494.32 655.162 C 1489.85 652.406 1484.52 652.402 1481.03 656.621 C 1475.16 658.692 1455.42 657.942 1447.86 657.845 C 1447.79 648.836 1448.06 639.829 1448.67 630.841 C 1442 624.874 1390.22 632.723 1380.64 638.314 C 1379.83 638.784 1379.48 640.875 1379.24 641.773 C 1380.9 646.39 1384.09 646.858 1384.1 647.661 C 1384.66 671.994 1384.37 706.496 1384.11 729.91 C 1380.04 722.195 1376.95 717.067 1371.83 709.912 L 1371.78 289.651 z" fill="rgb(251,249,242)" transform="translate(0,0)"></path>
<path d="M 1495.88 343.238 C 1568.41 356.427 1647.22 369.24 1718.91 384.375 L 1718.9 570.284 L 1718.9 631.633 C 1718.92 643.578 1720.76 655.996 1716.92 667.328 C 1716.53 667.106 1716.15 666.884 1715.77 666.661 C 1713.7 637.511 1714.98 596.54 1715 566.337 L 1714.95 387.523 C 1684.76 381.488 1653.45 376.191 1623.11 370.828 L 1623.08 541.75 C 1623.09 555.603 1624.94 652.482 1620.96 656.75 C 1617.85 650.818 1619.17 569.408 1619.18 554.555 L 1619.11 370.108 C 1579.42 362.429 1539.66 355.166 1499.82 348.321 L 1499.88 530.368 C 1499.89 542.023 1501.61 621.885 1497.71 626.553 C 1494.24 620.878 1495.79 539.038 1495.79 525.587 L 1495.88 343.238 z" fill="rgb(1,29,56)" transform="translate(0,0)"></path>
<path d="M 1635.04 281.67 C 1650.58 285.483 1666.08 289.492 1681.53 293.697 L 1681.53 324.569 C 1669.2 322.431 1647.18 316.546 1634.57 313.496 C 1634.56 306.811 1633.97 287.291 1635.04 281.67 z" fill="rgb(1,21,43)" transform="translate(0,0)"></path>
<path d="M 1638.77 287.323 C 1651.22 289.819 1665.09 293.585 1677.33 296.918 L 1677.44 319.443 C 1666.28 316.235 1650.36 313.066 1638.72 310.377 L 1638.77 287.323 z" fill="rgb(251,189,93)" transform="translate(0,0)"></path>
<path d="M 253.837 236.714 C 273.09 240.085 308.273 243.052 328.905 245.412 L 485.61 263.372 L 785.161 296.891 C 845.362 303.993 905.619 310.611 965.926 316.747 C 953.046 328.304 923.709 350.12 908.88 361.834 C 907.416 361.91 906.184 361.974 905.183 362.027 L 904.04 365.27 C 896.887 371.5 844.257 414.892 840.164 415.363 L 836.075 418.296 L 836.371 419.526 C 829.354 425.417 794.239 456.303 787.732 455.92 C 787.158 457.499 787.142 458.003 786.134 459.327 C 783.009 463.08 753.763 485.624 748.802 489.367 C 719.928 488.399 676.618 482.826 646.342 479.932 L 427.606 458.938 C 407.609 457.141 387.623 455.22 367.65 453.177 C 360.924 452.499 333.969 448.453 330.572 452.257 C 335.316 455.512 424.726 462.634 440.087 464.162 L 743.823 493.363 C 731.849 502.6 720.462 512.864 707.834 521.159 C 613.242 511.093 519.087 503.6 424.403 495.084 C 395.002 492.44 353.954 490.863 326.164 486.744 C 300.322 406.785 276.852 318.025 253.837 236.714 z" fill="rgb(251,249,242)" transform="translate(0,0)"></path>
<path d="M 904.04 365.27 C 880.715 363.498 854.417 360.028 830.877 357.445 L 696.776 342.96 L 293.541 300.432 L 292.95 299.042 L 292.591 299.194 C 300.164 295.752 306.935 297.79 314.769 298.581 C 333.564 300.477 352.345 302.491 371.128 304.496 L 514.248 319.759 C 643.551 333.483 776.521 345.863 905.183 362.027 L 904.04 365.27 z" fill="rgb(1,21,43)" transform="translate(0,0)"></path>
<path d="M 836.075 418.296 C 821.4 417.247 800.96 414.201 785.821 412.537 L 667.523 399.609 L 316.52 362.837 C 313.403 362.507 311.206 362.376 309.3 360.014 C 315.321 357.007 412.716 368.958 426.725 370.462 L 605.944 389.163 L 747.269 404.393 C 775.939 407.459 812.147 410.428 840.164 415.363 L 836.075 418.296 z" fill="rgb(1,21,43)" transform="translate(0,0)"></path>
<path d="M 786.134 459.327 C 668.532 448.922 550.936 434.769 433.373 423.612 C 397.889 420.245 360.677 417.293 325.502 412.544 L 324.875 411.461 C 326.696 409.597 329.272 408.713 331.848 409.016 C 355.669 411.816 379.578 414.139 403.44 416.56 L 581.578 434.822 L 713.706 448.325 C 734.862 450.418 767.81 452.533 787.732 455.92 C 787.158 457.499 787.142 458.003 786.134 459.327 z" fill="rgb(1,21,43)" transform="translate(0,0)"></path>
<path d="M 1321.07 51.0367 C 1323.03 53.1446 1322.19 255.807 1322.2 280.303 C 1308.71 288.541 1291.43 297.676 1277.4 305.565 C 1244.47 324.207 1211.37 342.523 1178.08 360.512 C 1107.4 399.428 1036.41 437.796 965.129 475.61 C 881.681 519.532 793.42 564.446 712.159 612.04 C 709.868 604.01 711.453 541.309 711.217 528.275 L 1085.23 232.949 C 1162.93 171.136 1241.55 110.491 1321.07 51.0367 z" fill="rgb(251,249,242)" transform="translate(0,0)"></path>
<path d="M 1293.86 149.744 C 1295.62 149.51 1295.78 149.714 1297.43 150.288 C 1299.53 157.448 1298.08 220.172 1298.04 232.435 C 1272.22 246.247 1243.02 265.104 1217.49 280.431 C 1180.87 302.412 1143.69 324.424 1107.59 347.137 C 1106.32 347.681 1106.76 347.427 1105.07 347.247 C 1102.63 343.104 1103.83 288.958 1103.87 280.383 L 1224.38 196.367 C 1247.12 180.76 1271.67 165.356 1293.86 149.744 z" fill="rgb(1,21,43)" transform="translate(0,0)"></path>
<path d="M 1292.05 155.824 C 1292.93 156.019 1293.03 156.289 1293.84 156.916 L 1294.01 230.152 L 1274.73 240.689 C 1272.5 237.428 1273.61 177.392 1273.65 168.507 C 1278.51 164.605 1286.68 159.438 1292.05 155.824 z" fill="rgb(251,249,242)" transform="translate(0,0)"></path>
<path d="M 1247.07 185.967 C 1249.21 188.409 1248.29 248.422 1248.27 256.715 L 1231.32 267.074 C 1231.26 267.023 1231.2 266.979 1231.15 266.921 C 1228.86 264.16 1230.04 205.22 1230.05 197.213 L 1247.07 185.967 z" fill="rgb(251,249,242)" transform="translate(0,0)"></path>
<path d="M 1225.01 201.001 C 1227.09 204.029 1226.06 261.537 1226.02 270.038 C 1221.2 273.363 1214.57 277.225 1209.47 280.387 C 1206.99 276.417 1208.13 220.967 1208.17 212.186 L 1225.01 201.001 z" fill="rgb(251,249,242)" transform="translate(0,0)"></path>
<path d="M 1268.08 171.865 L 1268.66 172.344 C 1270.25 175.502 1269.32 236.797 1269.28 244.483 L 1253.27 253.99 C 1251.53 250.738 1252.37 190.413 1252.39 182.304 C 1256.97 178.922 1263.21 175.061 1268.08 171.865 z" fill="rgb(251,249,242)" transform="translate(0,0)"></path>
<path d="M 1182.13 230.805 L 1182.75 231.042 C 1184.58 234.025 1183.78 288.349 1183.77 296.012 C 1179.76 298.84 1172.81 302.826 1168.44 305.506 L 1167.03 305.361 C 1165.28 298.783 1166.72 251.752 1166.75 241.95 C 1171.31 238.263 1177.25 234.257 1182.13 230.805 z" fill="rgb(251,249,242)" transform="translate(0,0)"></path>
<path d="M 1202.79 215.854 C 1205.11 218.57 1204.17 275.697 1204.16 283.683 L 1188.92 292.933 C 1186.96 290.616 1187.81 234.355 1187.82 226.996 L 1202.79 215.854 z" fill="rgb(251,249,242)" transform="translate(0,0)"></path>
<path d="M 1161.92 244.949 C 1164.05 254.925 1162.3 296.734 1162.26 309.002 L 1146.41 318.6 C 1145.32 313.866 1146 264.48 1146.05 256.602 C 1150.83 252.747 1156.86 248.598 1161.92 244.949 z" fill="rgb(251,249,242)" transform="translate(0,0)"></path>
<path d="M 1140.73 259.954 C 1142.86 262.569 1142.06 313.595 1142.06 320.996 L 1127.37 330.027 C 1125.45 327.694 1126.26 277.358 1126.27 269.942 L 1140.73 259.954 z" fill="rgb(251,249,242)" transform="translate(0,0)"></path>
<path d="M 1121.99 272.981 C 1122.88 276.888 1122.26 327.429 1122.22 333.218 L 1108.33 342.171 C 1107.24 336.428 1107.83 291.788 1107.87 282.586 L 1121.99 272.981 z" fill="rgb(251,249,242)" transform="translate(0,0)"></path>
<path d="M 972.998 372.772 L 975.236 373.353 C 977.709 377.748 976.618 420.428 976.571 428.397 C 948.346 447.757 908.298 468.38 877.853 488.095 L 876.134 488.214 C 874.114 485.182 874.943 447.189 874.96 440.605 C 905.628 417.931 941.273 395.115 972.998 372.772 z" fill="rgb(1,21,43)" transform="translate(0,0)"></path>
<path d="M 971.129 378.997 C 973.266 382.095 972.289 419.916 972.249 426.65 L 961.237 432.993 C 959.561 429.836 960.416 391.932 960.47 386.31 L 971.129 378.997 z" fill="rgb(251,249,242)" transform="translate(0,0)"></path>
<path d="M 955.145 389.966 C 957.346 393.04 956.428 429.405 956.403 436.12 L 947.49 441.164 C 945.299 438.435 946.451 402.594 946.515 396.188 L 955.145 389.966 z" fill="rgb(251,249,242)" transform="translate(0,0)"></path>
<path d="M 941.984 398.919 C 943.049 403.254 942.542 438.136 942.496 444.495 L 933.325 450.023 C 931.823 447.465 932.637 411.118 932.661 405.24 L 941.984 398.919 z" fill="rgb(251,249,242)" transform="translate(0,0)"></path>
<path d="M 914.493 417.835 C 915.432 421.371 914.945 455.232 914.889 460.696 L 905.484 466.253 C 903.892 462.424 904.775 430.09 904.848 424.223 L 914.493 417.835 z" fill="rgb(251,249,242)" transform="translate(0,0)"></path>
<path d="M 927.356 408.888 L 928.432 409.374 C 929.393 415.71 928.651 444.249 928.58 452.225 L 920.548 457.526 L 919.554 457.558 C 918.321 455.446 918.813 420.612 918.82 415.275 C 921.268 413.248 924.733 410.833 927.356 408.888 z" fill="rgb(251,249,242)" transform="translate(0,0)"></path>
<path d="M 899.974 428.085 C 901.829 430.961 900.869 462.129 900.517 467.917 C 899.219 470.973 895.825 472.264 892.777 473.947 C 890.851 471.572 891.643 439.723 891.668 434.029 L 899.974 428.085 z" fill="rgb(251,249,242)" transform="translate(0,0)"></path>
<path d="M 886.876 437.028 C 888.379 440.592 887.656 470.778 887.595 476.64 L 880.037 481.822 C 877.998 479.038 878.788 448.401 878.804 442.481 L 886.876 437.028 z" fill="rgb(251,249,242)" transform="translate(0,0)"></path>
<path d="M 1330.12 351.965 C 1330.18 352.014 1330.24 352.056 1330.29 352.113 C 1333.26 355.65 1331.9 552.651 1331.89 574.331 C 1232.64 598.379 1133.09 621.156 1033.25 642.657 C 1032.51 637.755 1032.92 611.541 1032.92 605.258 L 1033 524.86 C 1033.04 517.828 1034.16 499.885 1031.74 494.239 C 1034.43 489.533 1145.58 438.946 1157.78 433.241 L 1330.12 351.965 z" fill="rgb(251,249,242)" transform="translate(0,0)"></path>
<path d="M 1297.84 433.101 C 1300.16 435.648 1299.57 510.202 1299.88 520.332 C 1236.72 540.578 1170.03 559.143 1106.23 578.157 L 1105.2 577.795 C 1102.91 574.938 1103.9 519.057 1103.92 511.097 L 1215.72 466.715 C 1242.13 456.249 1272.05 444.902 1297.84 433.101 z" fill="rgb(1,21,43)" transform="translate(0,0)"></path>
<path d="M 1292.42 439.895 C 1293.97 439.755 1293.24 439.775 1294.89 440.489 C 1296.18 462.216 1295.18 494.988 1295.2 517.541 L 1277.22 522.972 L 1275.14 523.021 C 1273.16 519.592 1274.05 456.883 1274.07 447.68 L 1292.42 439.895 z" fill="rgb(251,249,242)" transform="translate(0,0)"></path>
<path d="M 1245.22 458.941 L 1247.07 459.015 C 1248.32 460.938 1247.76 524.282 1247.74 532.128 L 1231.41 536.772 C 1230.15 536.715 1230.74 536.769 1229.42 535.706 C 1228.77 512.977 1229.29 488.583 1229.38 465.729 L 1245.22 458.941 z" fill="rgb(251,249,242)" transform="translate(0,0)"></path>
<path d="M 1268.16 450.023 C 1268.33 450.185 1269.55 451.174 1269.56 451.375 C 1270.05 466.009 1269.84 513.78 1269.84 525.493 L 1254.23 530.255 L 1252.92 529.879 C 1251.46 527.106 1252.03 465.003 1252.04 456.619 L 1268.16 450.023 z" fill="rgb(251,249,242)" transform="translate(0,0)"></path>
<path d="M 1222.97 467.929 L 1224.67 468.623 C 1225.29 472.583 1224.99 486.414 1224.99 491.482 L 1224.99 538.74 L 1209.22 543.136 L 1207.61 541.832 C 1206.32 525.901 1207.24 491.932 1207.27 474.739 L 1222.97 467.929 z" fill="rgb(251,249,242)" transform="translate(0,0)"></path>
<path d="M 1201.14 476.985 L 1202.03 477.142 C 1203.61 479.266 1203.13 537.402 1203.15 544.978 L 1189.16 548.858 L 1187.59 548.698 C 1186.4 546.563 1186.82 489.782 1186.82 482.741 L 1201.14 476.985 z" fill="rgb(251,249,242)" transform="translate(0,0)"></path>
<path d="M 1180.41 484.886 L 1181.62 485.219 C 1183.49 488.095 1182.77 543.251 1182.77 550.825 L 1168.89 554.871 L 1167.1 554.913 C 1165.17 551.602 1166.16 498.772 1166.19 491.048 L 1180.41 484.886 z" fill="rgb(251,249,242)" transform="translate(0,0)"></path>
<path d="M 1160.44 493.053 L 1160.95 493.185 C 1163.33 495.963 1161.93 549.362 1161.91 557.124 L 1147.71 561.666 L 1147.44 561.561 C 1145.11 558.455 1146.07 506.543 1146.08 498.734 L 1160.44 493.053 z" fill="rgb(251,249,242)" transform="translate(0,0)"></path>
<path d="M 1139.95 500.969 L 1141.21 501.403 C 1142.62 505.855 1141.81 555.517 1141.79 563.287 L 1128.22 567.247 L 1127.15 566.955 C 1125.28 563.769 1126.31 513.94 1126.36 506.556 L 1139.95 500.969 z" fill="rgb(251,249,242)" transform="translate(0,0)"></path>
<path d="M 1120.28 508.972 L 1121.4 509.31 C 1122.83 512.574 1122.33 561.251 1122.36 569.118 C 1118.41 570.276 1114.16 571.767 1110.22 573.061 L 1108.92 572.772 C 1107.31 569.893 1107.96 520.865 1107.96 513.808 L 1120.28 508.972 z" fill="rgb(251,249,242)" transform="translate(0,0)"></path>
<path d="M 1328.52 579.069 C 1329.3 579.002 1330.39 579.302 1331.21 579.466 C 1333.37 586.661 1331.88 664.788 1331.9 677.202 C 1329.83 677.147 1327.76 677.106 1325.69 677.08 C 1297.01 676.781 1268.22 677.435 1239.52 677.187 C 1229.66 677.102 1215.93 676.394 1206.44 678.287 C 1198.98 679.755 1192.12 683.43 1186.77 688.834 C 1165.31 710.274 1170.45 760.699 1170.53 790.727 C 1128.87 791.943 1135.22 835.755 1135.57 865.293 C 1107.67 863.988 1076.45 861.11 1048.25 859.163 L 1033.02 857.938 L 1032.99 646.945 C 1101.12 632.188 1169.14 616.882 1237.02 601.028 C 1266.86 594.009 1299.09 587.102 1328.52 579.069 z" fill="rgb(251,249,242)" transform="translate(0,0)"></path>
<path d="M 1795.3 402.278 C 1818.62 409.337 1844.63 416.34 1868.22 422.457 L 1868.14 727.405 C 1868.12 774.619 1869.4 827.75 1868.01 874.481 L 1795.15 874.771 L 1795.3 402.278 z" fill="rgb(251,249,242)" transform="translate(0,0)"></path>
<path d="M 327.794 491.744 C 368.39 493.267 418.73 498.98 460.007 502.479 C 541.59 509.392 623.115 516.979 704.573 525.239 L 705.09 615.907 C 675.232 631.867 679.789 636.336 706.762 651.298 L 706.901 831.257 C 695.838 830.642 682.548 828.922 671.33 827.724 C 670.259 743.866 671.036 658.482 671.061 574.5 C 670.933 561.734 670.997 548.967 671.252 536.203 C 639.135 531.828 589.484 530.418 556.039 527.971 L 441.219 519.891 C 428.112 518.934 363.328 512.797 357.768 515.958 C 353.973 527.118 355.27 625.855 355.284 644.371 C 355.061 704.955 355.179 765.54 355.638 826.123 C 346.613 825.947 336.717 826.255 327.625 826.351 L 327.794 491.744 z" fill="rgb(251,249,242)" transform="translate(0,0)"></path>
<path d="M 1006.59 504.945 L 1009.68 506.389 C 1011.95 510.069 1010.98 634.632 1010.96 647.179 C 1002.75 649.338 994.288 651.23 985.969 652.909 C 932.331 663.73 878.835 677.003 825.126 687.245 L 823.348 687.355 C 820.611 682.94 822.311 602.509 822.458 592.15 C 840.073 582.855 860.212 574.221 878.332 565.563 C 920.898 544.964 963.653 524.757 1006.59 504.945 z" fill="rgb(251,249,242)" transform="translate(0,0)"></path>
<path d="M 972.746 564.033 L 974.935 564.175 C 977.388 568.004 976.383 608.978 976.361 616.389 C 947.314 626.141 909.716 634.879 879.21 644.114 L 877.281 643.587 C 875.287 640.107 876.181 607.883 876.231 601.473 C 886.202 596.815 900.944 591.574 911.507 587.503 L 972.746 564.033 z" fill="rgb(1,21,43)" transform="translate(0,0)"></path>
<path d="M 970.939 569.047 C 973.479 572.011 972.453 606.589 972.427 613.194 C 969.765 614.208 965.141 615.456 962.27 616.331 C 960.104 613.084 961.062 578.677 961.105 572.73 L 970.939 569.047 z" fill="rgb(251,249,242)" transform="translate(0,0)"></path>
<path d="M 955.285 575.029 C 956.371 575.23 955.924 575.203 956.958 576.449 C 956.685 587.946 958.719 605.12 956.125 616.086 C 955.508 618.693 951.642 619.139 948.917 619.93 L 947.815 619.717 C 945.99 616.993 946.695 583.827 947.187 579.201 C 948.557 577.032 952.596 576.02 955.285 575.029 z" fill="rgb(251,249,242)" transform="translate(0,0)"></path>
<path d="M 941.746 580.039 C 944.072 582.051 943.124 615.225 942.747 620.376 C 940.865 622.765 937.486 623.173 934.329 624.037 C 932.13 620.962 933.016 590.089 933.041 583.762 L 941.746 580.039 z" fill="rgb(251,249,242)" transform="translate(0,0)"></path>
<path d="M 927.33 585.943 L 929.178 586.551 C 929.445 595.54 929.727 616.123 928.702 624.384 C 926.95 626.66 923.744 627.082 920.769 627.929 L 919.502 627.328 C 918.379 623.352 917.618 592.881 920.947 588.59 C 921.686 587.637 925.803 586.463 927.33 585.943 z" fill="rgb(251,249,242)" transform="translate(0,0)"></path>
<path d="M 913.408 591.019 C 914.656 591.422 914.088 591.238 915.064 592.948 C 914.73 603.676 916.885 618.065 914.164 628.057 C 913.47 630.605 909.552 631.119 906.884 631.909 L 906.216 631.484 C 904.572 628.466 905.2 600.943 905.462 595.642 C 907.056 593.093 910.413 592.246 913.408 591.019 z" fill="rgb(251,249,242)" transform="translate(0,0)"></path>
<path d="M 900.262 596.064 L 900.696 596.446 C 902.36 600.292 901.669 626.302 901.237 631.909 C 899.218 634.203 897.499 634.196 894.249 635.327 L 892.616 634.636 C 891.458 629.396 891.744 606.385 892.303 600.511 C 893.82 597.959 897.239 597.214 900.262 596.064 z" fill="rgb(251,249,242)" transform="translate(0,0)"></path>
<path d="M 886.749 600.959 C 889.191 603.22 888.256 630.916 887.931 635.889 C 885.921 638.465 885.029 638.121 881.438 639.47 C 879.033 636.173 880.031 610.519 880.206 605.409 C 881.976 602.407 882.943 602.756 886.749 600.959 z" fill="rgb(251,249,242)" transform="translate(0,0)"></path>
<path d="M 241.136 188.704 L 1011.21 280.581 L 1002.12 287.813 C 997.68 291.233 993.075 295.342 988.784 299.013 C 928.148 293.321 863.738 283.912 802.489 276.978 L 248.39 214.525 C 245.561 205.465 243.362 197.936 241.136 188.704 z" fill="rgb(251,189,93)" transform="translate(0,0)"></path>
<path d="M 378.92 605.425 C 468.073 611.364 560.665 612.063 649.748 617.819 L 649.569 670.063 C 617.234 670.358 578.541 667.947 545.733 666.75 C 490.163 664.954 434.583 663.486 378.996 662.346 L 378.92 605.425 z" fill="rgb(62,166,173)" transform="translate(0,0)"></path>
<path d="M 500.27 623.964 C 511.844 624.553 523.427 624.935 535.014 625.109 C 535.113 633.767 535.312 642.303 534.754 650.952 C 523.497 651.217 511.066 650.606 499.729 650.278 C 499.486 642.949 499.125 630.896 500.27 623.964 z" fill="rgb(1,21,43)" transform="translate(0,0)"></path>
<path d="M 502.969 627.55 C 512.416 627.701 521.855 628.134 531.276 628.847 L 531.266 647.034 C 521.846 646.732 512.421 646.57 502.996 646.546 L 502.969 627.55 z" fill="rgb(251,249,242)" transform="translate(0,0)"></path>
<path d="M 507.545 636.276 C 514.561 635.306 521.467 634.042 526.229 639.74 C 519.598 640.913 511.916 641.772 507.545 636.276 z" fill="rgb(1,21,43)" transform="translate(0,0)"></path>
<path d="M 1716.25 148.051 C 1718.73 149.334 1751.15 182.584 1755.17 186.567 L 1868.36 297.998 L 1868.42 312.72 L 1765.3 212.736 C 1755.78 203.616 1722.76 173.44 1716.33 164.656 C 1675.73 177.307 1633.94 192.492 1593.79 206.666 L 1498.95 239.553 L 1407.21 272.06 C 1399.1 274.98 1390.76 278.237 1382.63 280.959 C 1349.09 292.177 1319.17 309.269 1288.18 326.03 L 1192.68 377.351 C 1130.74 410.245 1064.89 445.792 1002.3 477.27 C 997.324 473.801 995.691 472.933 990.088 470.582 L 1217.95 346.613 C 1243.28 332.672 1268.52 318.561 1293.66 304.279 C 1314.37 292.599 1335.66 279.489 1358.1 271.552 C 1366.73 268.502 1375.37 265.537 1383.97 262.411 C 1412.8 251.698 1441.78 241.391 1470.9 231.492 C 1552.43 202.945 1634.22 175.13 1716.25 148.051 z" fill="rgb(251,189,93)" transform="translate(0,0)"></path>
<path d="M 379.011 537.67 C 469.291 543.103 559.538 549.08 649.746 555.602 L 649.681 599.159 C 560.158 595.956 468.594 587.848 378.859 584.813 L 379.011 537.67 z" fill="rgb(62,166,173)" transform="translate(0,0)"></path>
<path d="M 1009.11 652.311 L 1010.02 652.535 C 1011.51 655.109 1011.04 840.536 1011.05 856.172 C 994.103 855.556 975.244 853.673 958.2 852.312 C 954.947 852.206 951.807 852.568 949.346 850.745 C 948.396 846.847 948.78 807.259 948.784 800.561 L 948.964 664.693 C 968.784 660.927 989.223 656.311 1009.11 652.311 z" fill="rgb(251,249,242)" transform="translate(0,0)"></path>
<path d="M 800.627 698.127 C 801.951 697.857 802.199 698.059 803.568 698.307 C 804.612 700.422 804.151 826.324 804.153 839.512 C 779.678 837.772 755.213 835.891 730.76 833.869 C 728.868 833.909 724.169 833.104 722.05 832.794 L 721.781 716.795 C 748.128 710.849 774.411 704.626 800.627 698.127 z" fill="rgb(251,249,242)" transform="translate(0,0)"></path>
<path d="M 75.4712 611.973 L 172.734 611.999 C 172.675 623.849 173.57 716.575 171.677 719.738 C 139.43 719.709 107.98 719.301 75.6559 719.683 L 75.4712 611.973 z" fill="rgb(251,249,242)" transform="translate(0,0)"></path>
<path d="M 335.673 84.8589 C 367.644 87.9694 401.041 92.3999 433.052 96.1862 C 431.224 130.306 430.935 168.634 427.897 202.239 C 427.926 204.891 428.296 204.032 426.857 205.869 C 422.708 205.952 418.606 205.436 414.498 204.914 C 392.5 202.117 370.32 200.239 348.413 196.795 C 346.439 164.824 339.947 117.048 335.673 84.8589 z" fill="rgb(251,249,242)" transform="translate(0,0)"></path>
<path d="M 1197.13 837.07 L 1305.47 837.01 C 1314.7 847.311 1323.72 857.787 1332.54 868.432 C 1341.76 868.01 1403.96 865.969 1408 863.427 C 1408.91 859.757 1409.75 859.85 1412.98 859.492 C 1415.53 861.912 1422.79 861.717 1427.05 862.525 C 1430.86 867.102 1432.38 869.038 1435.51 874.26 C 1404.69 870.671 1387.37 890.788 1390.75 920.874 C 1373.55 923.598 1334.29 925.083 1315.83 925.309 C 1316.63 909.074 1315.06 890.97 1302.81 879.292 C 1272.95 850.818 1240.27 862.662 1219.35 891.103 C 1211.96 890.979 1204.58 891.077 1197.2 891.397 L 1197.13 837.07 z" fill="rgb(251,189,93)" transform="translate(0,0)"></path>
<path d="M 450.319 98.7768 C 460.462 100.944 474.072 101.674 484.728 102.992 C 505.511 105.562 526.538 108.364 547.37 110.338 L 525.157 204.568 L 522.049 217.322 C 496.928 215.117 467.874 211.518 442.899 207.937 C 446.667 175.997 449.099 131.08 450.319 98.7768 z" fill="rgb(251,249,242)" transform="translate(0,0)"></path>
<path d="M 225.029 70.9219 C 255.747 74.7932 287.118 77.8723 317.706 82.2742 C 321.282 119.404 328.087 157.689 331.681 195.196 C 308.596 191.339 275.726 188.652 251.541 185.743 C 244.503 149.828 233.599 106.821 225.029 70.9219 z" fill="rgb(251,249,242)" transform="translate(0,0)"></path>
<path d="M 1357.7 457.703 C 1357.91 432.109 1355.27 310.73 1360.2 294.689 L 1361.32 293.922 C 1365.12 300.707 1363.76 390.566 1363.78 407.817 L 1363.88 609.728 C 1363.89 618.687 1364.3 694.888 1363.37 696.768 L 1362 697.172 L 1358.62 695.015 C 1357.99 695.292 1357.68 694.967 1356.67 694.66 C 1355.56 692.565 1355.48 692.154 1355.1 689.788 L 1355.01 689.187 L 1354.05 689.961 L 1354.26 688.889 C 1349.73 684.628 1344.59 682.444 1339.04 679.9 L 1339.13 303.979 C 1344.07 301.61 1348.96 299.144 1353.8 296.582 L 1352.37 296.006 L 1356.2 295.325 C 1358.27 297.243 1354.42 454.198 1357.7 457.703 z" fill="rgb(62,166,173)" transform="translate(0,0)"></path>
<path d="M 1357.7 457.703 C 1357.91 432.109 1355.27 310.73 1360.2 294.689 L 1361.32 293.922 C 1365.12 300.707 1363.76 390.566 1363.78 407.817 L 1363.88 609.728 C 1363.89 618.687 1364.3 694.888 1363.37 696.768 L 1362 697.172 L 1358.62 695.015 C 1356.52 688.022 1357.79 636.708 1357.8 626.834 L 1357.7 457.703 z" fill="rgb(251,249,242)" transform="translate(0,0)"></path>
<path d="M 1353.8 296.582 L 1352.37 296.006 L 1356.2 295.325 C 1358.27 297.243 1354.42 454.198 1357.7 457.703 L 1357.8 626.834 C 1357.79 636.708 1356.52 688.022 1358.62 695.015 C 1357.99 695.292 1357.68 694.967 1356.67 694.66 C 1355.56 692.565 1355.48 692.154 1355.1 689.788 L 1355.01 689.187 L 1354.05 689.961 L 1354.26 688.889 C 1353.72 680.254 1354.22 667.289 1354.21 658.19 L 1354.06 595.075 L 1354.19 395.826 L 1354.42 332.968 C 1354.45 323.311 1354.91 305.61 1353.8 296.582 z" fill="rgb(1,21,43)" transform="translate(0,0)"></path>
<path d="M 564.253 112.873 C 592.665 117.323 628.813 120.645 658.03 124.316 C 645.106 153.923 632.711 184.522 619.882 214.342 L 614.689 228.27 C 591.818 226.886 561.252 222.31 538.235 219.36 C 547.561 184.599 555.759 147.99 564.253 112.873 z" fill="rgb(251,249,242)" transform="translate(0,0)"></path>
<path d="M 675.731 127.029 C 681.919 128.443 696.602 129.75 703.855 130.625 C 723.842 132.919 743.803 135.433 763.735 138.165 C 744.851 169.195 726.143 200.33 707.611 231.57 L 702.674 239.342 C 680.116 235.478 652.216 233.413 628.543 230.01 C 644.034 200.067 661.429 158.521 675.731 127.029 z" fill="rgb(251,249,242)" transform="translate(0,0)"></path>
<path d="M 96.5605 130.476 C 122.105 130.186 147.651 130.117 173.197 130.269 L 172.845 219.076 L 155.084 219.037 L 75.3007 219.1 L 75.422 130.906 L 96.5605 130.476 z" fill="rgb(251,249,242)" transform="translate(0,0)"></path>
<path d="M 782.194 139.953 C 800.653 140.71 847.731 147.77 867.122 150.447 L 794.792 241.506 L 788.343 249.319 C 769.666 248.451 737.514 243.393 717.283 241.349 L 782.194 139.953 z" fill="rgb(251,249,242)" transform="translate(0,0)"></path>
<path d="M 909.977 673.274 L 912.422 673.206 C 914.549 675.951 913.775 833.009 913.778 849.011 C 900.769 847.56 886.711 846.657 873.584 845.602 C 870.131 845.466 867.494 845.636 864.414 844.074 C 862.838 837.196 863.567 799.604 863.608 790.993 L 863.838 683.587 L 909.977 673.274 z" fill="rgb(251,249,242)" transform="translate(0,0)"></path>
<path d="M 364.124 521.924 C 392.362 524.726 424.113 526.193 452.759 528.333 L 663.33 543.232 L 663.162 742.109 C 663.039 765.88 663.332 789.712 663.352 813.483 C 663.356 817.494 662.664 823.716 659.523 826.59 C 656.74 827.161 657.869 827.315 655.287 825.943 C 652.933 822.937 653.937 758.303 653.944 750.324 L 654.033 609.566 C 654.067 595.914 655.033 564.557 653.666 553.2 C 651.8 551.38 649.037 551.522 646.243 551.224 L 374.021 532.659 L 374.063 737.734 L 374.17 792.322 C 374.216 800.699 374.755 817.422 373.56 824.703 C 371.593 826.291 368.71 825.878 365.963 825.902 C 362.756 821.703 364.238 798.915 364.224 791.952 L 364.139 724.108 L 364.124 521.924 z" fill="rgb(251,249,242)" transform="translate(0,0)"></path>
<path d="M 886.955 152.695 C 907.208 153.528 945.639 159.342 966.588 161.948 C 937.801 193.486 907.839 224.301 879.665 255.977 L 876.54 259.01 C 870.136 260.911 814.903 252.997 804.117 251.638 C 828.59 219.797 860.765 184.667 886.955 152.695 z" fill="rgb(251,249,242)" transform="translate(0,0)"></path>
<path d="M 986.757 163.793 C 1012.09 167.601 1039.02 170.653 1064.52 173.881 C 1052.65 184.068 1038.92 197.744 1027.34 208.686 L 966.006 266.368 L 962.41 269.173 C 955.068 271.035 902.643 263.01 891.94 261.573 L 986.757 163.793 z" fill="rgb(251,249,242)" transform="translate(0,0)"></path>
<path d="M 82.4294 240.546 C 111.029 239.376 144.152 240.045 172.986 240.376 C 172.871 261.67 174.217 297.531 172.576 317.221 C 170.109 319.475 169.553 318.705 165.242 318.869 L 75.2118 318.743 C 75.1399 295.906 74.1421 264.192 75.4026 242.064 C 77.8307 240.131 78.764 240.74 82.4294 240.546 z" fill="rgb(251,249,242)" transform="translate(0,0)"></path>
<path d="M 75.348 322.921 L 172.914 322.922 L 172.819 401.071 C 140.674 401.491 107.536 401.052 75.3091 401.033 L 75.348 322.921 z" fill="rgb(251,249,242)" transform="translate(0,0)"></path>
<path d="M 250.172 221.696 L 558.915 257.149 C 598.944 261.697 970.869 301.86 978.132 306.222 L 976.502 308.459 C 975.301 309.464 970.443 313.324 969.393 313.227 C 936.856 310.238 886.341 303.875 855.681 300.451 L 474.449 257.926 L 333.193 241.679 C 308.087 238.764 277.446 234.322 252.8 232.698 L 250.172 221.696 z" fill="rgb(251,189,93)" transform="translate(0,0)"></path>
<path d="M 801.684 601.898 L 803.487 602.06 C 804.779 603.983 804.326 682.521 804.332 692.772 C 778.032 699.834 750.777 705.924 724.225 712.107 L 722.894 711.812 C 721.193 709.038 721.895 648.64 721.903 640.512 C 747.557 627.676 776.729 615.204 801.684 601.898 z" fill="rgb(251,249,242)" transform="translate(0,0)"></path>
<path d="M 379.002 666.641 C 449.774 668.321 520.536 670.39 591.284 672.847 C 601.148 673.208 642.283 673.494 648.746 675.6 C 649.622 679.39 649.633 679.985 649.306 683.868 C 646.111 685.338 570.724 682.912 561.977 682.686 L 561.875 825.897 C 558.728 825.897 553.787 826.386 551.45 824.813 C 550.217 816.095 550.817 790.874 550.831 780.894 C 550.58 750.115 549.781 712.7 550.956 682.281 L 482.922 680.781 L 482.885 776.976 C 482.87 784.926 484.772 821.906 480.52 825.884 C 477.563 826.205 475.099 826.726 472.312 825.636 C 470.034 822.734 470.94 792.172 470.937 786.203 L 470.913 680.2 C 443.843 679.587 405.835 679.478 379.853 677.516 C 378.606 674.704 378.981 669.924 379.002 666.641 z" fill="rgb(251,249,242)" transform="translate(0,0)"></path>
<path d="M 75.548 422.976 C 108.009 422.79 140.471 422.809 172.931 423.033 L 172.875 486.782 L 75.4081 486.956 L 75.548 422.976 z" fill="rgb(251,249,242)" transform="translate(0,0)"></path>
<path d="M 75.505 723.8 L 172.484 723.883 C 172.275 745.187 172.506 766.521 172.535 787.828 C 140.267 788.784 107.807 787.989 75.5079 788.176 L 75.505 723.8 z" fill="rgb(251,189,93)" transform="translate(0,0)"></path>
<path d="M 1713.78 170.09 C 1716.65 171.298 1855.54 305.403 1868.16 318.923 L 1868.12 346.287 C 1862.82 342.469 1857.31 337.446 1852.31 333.097 L 1741.38 233.937 C 1721.99 216.599 1701.23 197.081 1681.16 180.988 L 1713.78 170.09 z" fill="rgb(251,189,93)" transform="translate(0,0)"></path>
<path d="M 80.2896 550.513 C 110.769 550.051 142.099 550.465 172.641 550.529 C 172.671 558.423 173.399 604.469 171.702 607.824 C 139.959 608.258 107.452 607.94 75.6458 607.987 C 75.6885 599.776 74.1793 554.37 76.998 550.647 L 80.2896 550.513 z" fill="rgb(251,189,93)" transform="translate(0,0)"></path>
<path d="M 1208.27 692.512 C 1179.12 710.217 1187.59 751.282 1186.29 780.048 C 1186.16 783.021 1186.87 788.404 1185.41 790.7 C 1181.53 791.623 1182.31 791.996 1178.83 791.002 C 1175.5 787.046 1177.02 741.308 1177.58 733.587 C 1181.29 682.043 1203.76 682.538 1246.73 684.045 C 1272.37 684.944 1299.21 683.143 1325.06 684.499 C 1339.89 685.01 1350.28 692.356 1359.03 703.759 C 1386.07 739.586 1402.17 793.157 1410.06 837.085 C 1410.88 841.597 1413.12 855.927 1412.98 859.492 C 1409.75 859.85 1408.91 859.757 1408 863.427 C 1408.42 852.108 1401.99 825.568 1398.86 813.69 C 1389.72 778.978 1369.18 710.627 1336.64 691.932 C 1316.24 691.528 1293.11 692.179 1272.42 692.246 C 1267.04 697.154 1264.51 699.853 1260.26 705.674 C 1260.27 719.837 1261.84 739.804 1262.58 754.24 C 1263.3 768.382 1264.07 791.147 1266.13 804.655 C 1281.09 812.063 1296.09 819.379 1311.14 826.601 C 1310.06 828.822 1309.66 829.655 1308.18 831.626 C 1290.89 832.403 1271.41 831.916 1253.89 831.907 C 1253.74 791.342 1254.16 743.399 1252.31 703.112 C 1256.33 699.515 1260.33 695.898 1264.31 692.261 L 1208.27 692.512 z" fill="rgb(62,166,173)" transform="translate(0,0)"></path>
<path d="M 75.4264 491.227 C 105.452 490.571 142.787 490.904 172.782 491.698 L 172.471 546.652 C 141.228 547.565 106.954 546.817 75.4267 546.888 L 75.4264 491.227 z" fill="rgb(251,189,93)" transform="translate(0,0)"></path>
<path d="M 1627.76 721.447 L 1663.16 723.12 L 1663.34 874.37 C 1651.65 874.588 1639.58 874.442 1627.86 874.432 L 1627.76 721.447 z" fill="rgb(251,249,242)" transform="translate(0,0)"></path>
<path d="M 1209.21 697.446 C 1216.65 697.259 1242.63 696.216 1248.3 697.608 C 1244.65 705.363 1246.43 719.68 1246.5 728.869 L 1246.8 790.922 L 1230.86 790.839 L 1190.89 790.86 C 1190.6 764.069 1184.04 713.23 1209.21 697.446 z" fill="rgb(251,249,242)" transform="translate(0,0)"></path>
<path d="M 1083.8 176.816 C 1100.77 178.111 1119.57 180.805 1136.44 183.099 C 1099.05 212.699 1061.48 242.055 1023.71 271.164 L 1015.65 277.338 C 1003.78 275.196 989.651 273.611 977.539 271.997 C 1010.97 244.35 1051.58 206.259 1083.8 176.816 z" fill="rgb(251,249,242)" transform="translate(0,0)"></path>
<path d="M 1667.51 723.129 C 1678.39 723.793 1689.34 723.891 1700.25 724.181 L 1700.52 874.331 C 1689.61 874.236 1678.47 874.377 1667.54 874.413 L 1667.51 723.129 z" fill="rgb(251,249,242)" transform="translate(0,0)"></path>
<path d="M 1672.79 792.084 L 1675.15 793.239 C 1677.95 799.586 1676 812.198 1675.62 819.053 L 1674.03 818.693 C 1670.62 813.833 1672.62 798.476 1672.79 792.084 z" fill="rgb(1,29,56)" transform="translate(0,0)"></path>
<path d="M 177.808 129.819 C 179.509 129.959 181.261 130.246 182.957 130.494 C 185.117 133.322 184.174 172.58 184.148 180.273 L 184.193 287.497 L 183.202 740.734 C 183.195 755.444 184.73 874.343 181.624 879.9 L 178.68 878.423 C 176.842 875.47 177.423 825.505 177.396 818.856 L 177.422 674.101 L 177.808 129.819 z" fill="rgb(251,249,242)" transform="translate(0,0)"></path>
<path d="M 1260.24 880.333 C 1280.53 876.507 1300.04 889.955 1303.69 910.277 C 1307.35 930.599 1293.73 949.999 1273.37 953.473 C 1253.27 956.904 1234.16 943.489 1230.55 923.415 C 1226.95 903.341 1240.2 884.113 1260.24 880.333 z" fill="rgb(251,249,242)" transform="translate(0,0)"></path>
<path d="M 1264.06 899.677 C 1270.24 898.148 1276.76 900.061 1281.14 904.685 C 1285.52 909.309 1287.07 915.93 1285.2 922.017 C 1283.34 928.105 1278.34 932.718 1272.12 934.095 C 1262.68 936.187 1253.3 930.292 1251.09 920.87 C 1248.88 911.447 1254.66 902.001 1264.06 899.677 z" fill="rgb(1,29,56)" transform="translate(0,0)"></path>
<path d="M 1264.17 904.109 C 1268.18 903.804 1271.63 903.557 1275.06 906.053 C 1278.08 908.27 1280.04 911.644 1280.47 915.365 C 1280.86 918.982 1279.78 922.605 1277.46 925.409 C 1274.41 929.082 1271 929.998 1266.41 930.406 C 1265.11 929.695 1264.35 929.577 1263.76 928.184 C 1268.83 926.637 1272.52 924.536 1276.07 920.49 C 1277.99 918.3 1278.08 916.735 1277.84 914.003 C 1275.12 908.594 1269.63 906.009 1264.17 904.109 z" fill="rgb(251,249,242)" transform="translate(0,0)"></path>
<path d="M 378.994 682.094 C 407.156 683.692 438.57 683.895 467.003 684.511 L 466.868 733.113 C 437.536 733.022 408.206 732.712 378.878 732.185 L 378.994 682.094 z" fill="rgb(62,166,173)" transform="translate(0,0)"></path>
<path d="M 1951.48 193.038 L 1953.08 193.041 C 1954.35 195.301 1953.84 248.886 1953.84 255.533 C 1937.53 261.068 1905.06 268.192 1887.24 272.881 L 1885.64 272.673 C 1883.9 269.037 1884.27 221.929 1884.28 214.875 C 1906.56 207.236 1928.96 199.956 1951.48 193.038 z" fill="rgb(251,249,242)" transform="translate(0,0)"></path>
<path d="M 566.061 687.074 L 649.71 688.976 L 649.515 734.875 L 566.004 734.13 L 566.061 687.074 z" fill="rgb(62,166,173)" transform="translate(0,0)"></path>
<path d="M 379.017 749.695 C 408.283 749.948 437.55 750.025 466.817 749.925 L 466.759 790.88 C 437.522 790.955 408.285 790.815 379.05 790.459 L 379.017 749.695 z" fill="rgb(62,166,173)" transform="translate(0,0)"></path>
<path d="M 1276.57 697.307 C 1294.1 696.624 1313.87 697.023 1331.57 696.999 L 1331.64 772.658 C 1321.69 772.303 1311.34 772.417 1301.36 772.39 C 1298.77 763.279 1297.86 759.738 1291.49 752.363 C 1300.03 740.361 1292.44 740.754 1303.58 732.456 C 1305.01 728.779 1305.06 730.031 1304.47 726.795 C 1297.96 718.867 1285.35 716.211 1280.44 727.451 C 1278.05 732.922 1278.11 739.993 1278.17 745.935 C 1273.42 750.02 1271.61 752.073 1267.64 756.747 C 1267.16 740.176 1266.54 723.609 1265.77 707.049 C 1269.83 702.529 1271.32 700.717 1276.57 697.307 z" fill="rgb(251,249,242)" transform="translate(0,0)"></path>
<path d="M 1616.02 707.013 C 1645.99 708.36 1684.07 708.542 1712.96 710.874 C 1712.88 726.919 1714.41 870.659 1711.68 874.207 C 1708.12 874.386 1709.46 874.779 1706.61 872.798 C 1703.22 866.707 1704.91 832.309 1704.91 822.324 L 1704.61 723.124 L 1703.87 721.162 C 1698.92 719.191 1634.33 717.557 1623.55 717.125 C 1623.64 736.846 1625.58 865.827 1622.57 873.21 C 1621.96 874.706 1621.78 874.612 1620.31 875.275 C 1617.22 873.647 1615.78 867.947 1615.83 864.71 C 1616.07 847.629 1616.19 830.55 1616.26 813.464 C 1616.41 777.98 1616.33 742.496 1616.02 707.013 z" fill="rgb(251,249,242)" transform="translate(0,0)"></path>
<path d="M 565.981 750.975 C 593.865 750.75 621.751 751.049 649.623 751.873 L 649.704 791.197 L 565.993 791.271 L 565.981 750.975 z" fill="rgb(62,166,173)" transform="translate(0,0)"></path>
<path d="M 1961.07 275.268 L 1962.9 276.098 C 1965.64 280.462 1964.37 352.859 1964.4 363.108 L 1964.66 715.983 L 1964.78 821.25 C 1964.72 836.772 1965.1 860.62 1963.7 875.758 L 1959.61 873.715 C 1959.51 872.977 1959.29 871.47 1959.29 870.786 C 1959.19 844.651 1959.17 818.154 1959.13 792.059 L 1959.09 622.434 L 1958.71 374.744 C 1958.77 344.124 1958.86 313.384 1958.43 282.75 C 1958.36 278.303 1958.63 278.039 1961.07 275.268 z" fill="rgb(251,249,242)" transform="translate(0,0)"></path>
<path d="M 989.427 475.565 C 992.995 476.141 1019.45 494.225 1025.18 497.897 L 1025.17 743.433 L 1025.29 818.247 C 1025.3 828.522 1025.84 848.45 1024.68 857.854 C 1022.06 857.52 1020.07 857.541 1017.89 856.122 C 1016.02 851.005 1017.05 758.32 1017.06 747.55 L 1017.02 503.95 C 1009.38 498.094 992.412 490.456 988.423 483.011 C 987.994 479.444 988.264 478.885 989.427 475.565 z" fill="rgb(251,249,242)" transform="translate(0,0)"></path>
<path d="M 1142.02 836.703 L 1192.4 836.993 C 1192.44 844.98 1193.22 886.309 1191.33 890.483 C 1193.91 891.529 1194.8 892.183 1197.2 891.397 C 1204.58 891.077 1211.96 890.979 1219.35 891.103 C 1218.72 892.177 1217.71 893.718 1217.32 894.83 C 1215.33 897.627 1216.48 896.892 1212.8 897.84 C 1202.05 900.616 1149.89 897.789 1142.84 893.184 C 1142.08 890.37 1142.04 891.576 1143.31 888.565 L 1143.84 886.134 C 1139.88 880.776 1141.98 845.611 1142.02 836.703 z" fill="rgb(251,189,93)" transform="translate(0,0)"></path>
<path d="M 1143.84 886.134 C 1159.64 887.886 1175.47 889.336 1191.33 890.483 C 1193.91 891.529 1194.8 892.183 1197.2 891.397 C 1204.58 891.077 1211.96 890.979 1219.35 891.103 C 1218.72 892.177 1217.71 893.718 1217.32 894.83 C 1215.33 897.627 1216.48 896.892 1212.8 897.84 C 1202.05 900.616 1149.89 897.789 1142.84 893.184 C 1142.08 890.37 1142.04 891.576 1143.31 888.565 L 1143.84 886.134 z" fill="rgb(251,249,242)" transform="translate(0,0)"></path>
<path d="M 1143.84 886.134 C 1159.64 887.886 1175.47 889.336 1191.33 890.483 C 1193.91 891.529 1194.8 892.183 1197.2 891.397 C 1204.58 891.077 1211.96 890.979 1219.35 891.103 C 1218.72 892.177 1217.71 893.718 1217.32 894.83 C 1214.56 893.813 1193.72 893.532 1188.49 893.126 C 1173.35 891.949 1158.37 891.278 1143.31 888.565 L 1143.84 886.134 z" fill="rgb(1,21,43)" transform="translate(0,0)"></path>
<path d="M 379.039 588.939 C 405.009 590.988 433.666 591.821 459.855 593.158 L 582.69 599.951 C 590.512 600.376 644.005 602.803 648.775 604.179 C 650.219 606.381 649.726 610.272 649.693 613.159 C 559.632 610.282 468.835 603.748 379.136 601.309 L 379.039 588.939 z" fill="rgb(251,249,242)" transform="translate(0,0)"></path>
<path d="M 486.989 684.994 C 506.85 685.348 526.707 685.87 546.559 686.562 L 546.358 733.524 L 487.036 733.03 L 486.989 684.994 z" fill="rgb(62,166,173)" transform="translate(0,0)"></path>
<path d="M 1877.49 295.771 C 1879.46 298.845 1878.37 351.94 1878.35 358.736 L 1878.61 469.092 L 1878.37 875.168 L 1874.96 874.091 C 1873.48 871.815 1873.92 869.916 1873.92 866.858 C 1873.97 745.324 1873.92 623.725 1873.91 502.196 L 1873.89 367.173 C 1873.87 345.673 1873.73 323.856 1873.79 302.339 C 1873.8 298.823 1875.27 298.037 1877.49 295.771 z" fill="rgb(251,249,242)" transform="translate(0,0)"></path>
<path d="M 188.092 619.544 C 192.675 622.43 200.271 627.487 204.954 629.495 C 206.483 630.324 207.995 630.887 209.664 631.371 L 208.093 631.777 C 211.646 634.197 221.999 639.871 223.261 642.957 L 226.13 643.431 C 231.242 645.904 234.002 647.169 238.693 650.542 C 240.639 653.453 239.119 671.789 240.149 678.019 C 240.254 684.412 240.347 690.518 240.177 696.914 L 238.069 696.156 C 234.709 695.146 230.815 692.934 226.144 691.577 L 222.912 690.967 L 223.052 690.077 C 217.915 687.759 213.118 685.484 207.755 683.71 C 206.544 682.482 206.088 682.659 204.14 682.461 C 199.701 679.593 193.26 677.3 188.243 675.294 L 188.092 619.544 z" fill="rgb(251,249,242)" transform="translate(0,0)"></path>
<path d="M 223.261 642.957 L 226.13 643.431 C 231.242 645.904 234.002 647.169 238.693 650.542 C 240.639 653.453 239.119 671.789 240.149 678.019 C 240.254 684.412 240.347 690.518 240.177 696.914 L 238.069 696.156 C 234.709 695.146 230.815 692.934 226.144 691.577 L 222.912 690.967 L 223.052 690.077 C 222.862 674.37 222.932 658.662 223.261 642.957 z" fill="rgb(251,249,242)" transform="translate(0,0)"></path>
<path d="M 223.261 642.957 L 226.13 643.431 L 226.144 691.577 L 222.912 690.967 L 223.052 690.077 C 222.862 674.37 222.932 658.662 223.261 642.957 z" fill="rgb(1,21,43)" transform="translate(0,0)"></path>
<path d="M 238.693 650.542 C 240.639 653.453 239.119 671.789 240.149 678.019 C 240.254 684.412 240.347 690.518 240.177 696.914 L 238.069 696.156 C 237.668 689.048 236.801 656 238.693 650.542 z" fill="rgb(1,21,43)" transform="translate(0,0)"></path>
<path d="M 208.093 631.777 C 211.646 634.197 221.999 639.871 223.261 642.957 C 222.932 658.662 222.862 674.37 223.052 690.077 C 217.915 687.759 213.118 685.484 207.755 683.71 C 208.87 673.299 208.089 643.335 208.093 631.777 z" fill="rgb(251,249,242)" transform="translate(0,0)"></path>
<path d="M 204.954 629.495 C 206.483 630.324 207.995 630.887 209.664 631.371 L 208.093 631.777 C 208.089 643.335 208.87 673.299 207.755 683.71 C 206.544 682.482 206.088 682.659 204.14 682.461 C 205.775 677.652 205.025 637.548 204.954 629.495 z" fill="rgb(1,21,43)" transform="translate(0,0)"></path>
<path d="M 1420.02 880.285 C 1425.47 879.767 1430.21 879.412 1435.39 881.462 C 1441.96 884.063 1447.15 889.012 1449.81 895.592 C 1453.01 903.51 1452.52 912.398 1449.16 920.181 C 1445.06 929.677 1438.19 934.91 1428.9 938.696 C 1423.35 939.325 1418.18 939.089 1412.98 936.922 C 1406.53 934.234 1401.69 929.159 1399.06 922.719 C 1395.95 914.929 1396.04 906.232 1399.29 898.504 C 1403.43 888.79 1410.62 884.033 1420.02 880.285 z" fill="rgb(251,249,242)" transform="translate(0,0)"></path>
<path d="M 1421.03 891.05 C 1423.85 890.984 1426.92 891.126 1429.57 892.155 C 1433.78 893.786 1437.17 896.833 1438.92 901.027 C 1440.89 905.723 1440.57 910.946 1438.62 915.587 C 1436.05 921.712 1431.88 924.405 1425.97 926.923 C 1423.6 927.018 1420.72 927.127 1418.44 926.437 C 1414.37 925.211 1410.9 922.087 1408.99 918.335 C 1406.65 913.764 1406.75 908.358 1408.43 903.595 C 1410.68 897.231 1415.12 893.867 1421.03 891.05 z" fill="rgb(1,29,56)" transform="translate(0,0)"></path>
<path d="M 246.885 735.187 C 264.165 735.303 281.461 735.026 298.741 734.909 C 298.86 751.336 298.675 767.771 298.602 784.198 C 281.352 784.59 264.095 784.606 246.844 784.247 L 246.885 735.187 z" fill="rgb(251,189,93)" transform="translate(0,0)"></path>
<path d="M 1952.8 594.931 L 1953.57 595.683 C 1954.49 600.184 1954 655.992 1954 664.942 L 1908.79 645.013 C 1900.57 641.471 1892.31 637.707 1884.12 634.065 C 1906.72 620.784 1930.63 608.602 1952.8 594.931 z" fill="rgb(251,249,242)" transform="translate(0,0)"></path>
<path d="M 1953.76 499.134 C 1955.9 508.567 1954.03 555.558 1953.99 568.697 L 1907.73 549.346 C 1899.92 545.961 1892.51 542.346 1884.86 538.633 C 1907.33 525.029 1930.95 512.345 1953.76 499.134 z" fill="rgb(251,249,242)" transform="translate(0,0)"></path>
<path d="M 498.765 750.496 L 546.658 750.691 L 546.572 791.45 L 538.25 791.519 L 487.104 791.318 L 487.141 750.586 L 498.765 750.496 z" fill="rgb(62,166,173)" transform="translate(0,0)"></path>
<path d="M 246.758 788.746 C 263.943 789.243 281.187 788.95 298.379 788.924 L 298.257 835.944 L 246.569 835.868 L 246.758 788.746 z" fill="rgb(251,189,93)" transform="translate(0,0)"></path>
<path d="M 1952.78 691.942 C 1955.12 695.32 1954.19 749.641 1954.18 757.927 C 1940.01 752.733 1923.71 745.549 1909.75 739.596 C 1901.66 736.108 1893.59 732.549 1885.56 728.921 C 1903.63 720.524 1935.72 702.26 1952.78 691.942 z" fill="rgb(251,249,242)" transform="translate(0,0)"></path>
<path d="M 246.629 688.643 L 298.683 688.696 L 298.481 730.735 C 282.336 731.414 263.155 730.9 246.788 730.865 L 246.629 688.643 z" fill="rgb(251,249,242)" transform="translate(0,0)"></path>
<path d="M 1953.74 784.842 C 1955.98 795.679 1954.14 836.849 1954.08 850.478 L 1910.75 831.586 L 1887.72 821.462 C 1909.67 809.133 1931.92 797.449 1953.74 784.842 z" fill="rgb(251,249,242)" transform="translate(0,0)"></path>
<path d="M 793.225 574.767 C 844.965 544.518 901.135 518.809 953.788 489.881 C 960.55 486.166 978.267 475.581 984.628 473.392 C 984.58 477.488 984.43 481.988 984.603 486.046 C 937.165 510.692 889.695 535.026 842.04 559.242 C 835.447 562.593 803.253 578.105 800.107 581.389 L 793.225 574.767 z" fill="rgb(251,189,93)" transform="translate(0,0)"></path>
<path d="M 246.34 513.226 C 263.701 512.999 281.649 514.289 298.939 513.18 L 299.157 554.409 C 282.146 554.795 263.33 554.182 246.193 553.966 C 245.952 540.768 246.284 526.508 246.34 513.226 z" fill="rgb(251,249,242)" transform="translate(0,0)"></path>
<path d="M 1931.06 414.792 C 1937.75 418.671 1946.65 422.703 1953.96 426.73 L 1954.03 471.951 C 1943.05 467.238 1932.12 462.407 1921.25 457.459 C 1909.19 451.999 1897.1 446.615 1884.98 441.306 C 1900.19 432.221 1915.56 423.382 1931.06 414.792 z" fill="rgb(251,249,242)" transform="translate(0,0)"></path>
<path d="M 246.37 601.09 L 298.995 601.292 L 298.93 641.465 L 246.414 640.96 L 246.37 601.09 z" fill="rgb(251,249,242)" transform="translate(0,0)"></path>
<path d="M 215.611 802.428 L 210.838 801.425 C 217.427 799.516 221.501 801.802 226.138 801.405 C 231.863 801.87 234.646 801.874 240.339 801.614 L 240.224 857.954 C 236.346 859.857 231.876 862.471 227.667 862.765 L 225.851 860.837 L 223.497 860.43 C 223.399 862.419 223.215 862.692 222.491 864.58 C 218.494 867.638 211.752 869.542 206.833 871.244 C 206.846 859.165 206.095 812.734 207.453 804.025 C 209.713 802.428 212.695 802.622 215.611 802.428 z" fill="rgb(251,189,93)" transform="translate(0,0)"></path>
<path d="M 226.138 801.405 C 231.863 801.87 234.646 801.874 240.339 801.614 L 240.224 857.954 C 236.346 859.857 231.876 862.471 227.667 862.765 L 225.851 860.837 C 226.946 845.408 226.134 817.888 226.138 801.405 z" fill="rgb(251,189,93)" transform="translate(0,0)"></path>
<path d="M 215.611 802.428 L 210.838 801.425 C 217.427 799.516 221.501 801.802 226.138 801.405 C 226.134 817.888 226.946 845.408 225.851 860.837 L 223.497 860.43 C 221.381 846.511 224.613 818.491 222.594 803.198 C 220.201 801.701 218.907 802.33 215.611 802.428 z" fill="rgb(1,21,43)" transform="translate(0,0)"></path>
<path d="M 246.181 558.065 L 299.072 558.347 L 299.11 597.234 C 281.799 597.529 263.569 597.154 246.191 597.065 L 246.181 558.065 z" fill="rgb(251,249,242)" transform="translate(0,0)"></path>
<path d="M 246.738 470.685 C 263.677 471.337 282.897 471.042 300.019 471.179 L 299.809 509.168 C 282.008 508.916 264.204 508.885 246.402 509.075 C 246.316 496.456 246.621 483.345 246.738 470.685 z" fill="rgb(251,249,242)" transform="translate(0,0)"></path>
<path d="M 246.693 645.77 C 264.087 645.854 281.481 645.777 298.873 645.537 L 298.763 684.057 C 282.258 684.709 263.481 684.319 246.807 684.344 L 246.693 645.77 z" fill="rgb(251,249,242)" transform="translate(0,0)"></path>
<path d="M 1506.07 699.978 C 1520.8 700.087 1536.24 700.796 1551.13 701.035 L 1551.2 744.095 L 1506.05 743.589 L 1506.07 699.978 z" fill="rgb(251,249,242)" transform="translate(0,0)"></path>
<path d="M 1168.47 796.533 C 1184.47 795.9 1200.54 796.166 1216.55 796.159 C 1205.9 803.129 1198.06 810.161 1194.4 822.721 C 1193.56 825.629 1193.07 828.974 1191.09 831.343 L 1188.1 831.578 C 1172.65 831.33 1157.2 831.332 1141.75 831.583 C 1141.99 821.652 1144.63 809.597 1151.96 802.401 C 1157.1 797.354 1161.43 796.522 1168.47 796.533 z" fill="rgb(251,189,93)" transform="translate(0,0)"></path>
<path d="M 1884.43 464.013 C 1903.81 473.343 1924.55 482.18 1944.33 490.782 L 1922.55 503.208 C 1909.72 510.284 1897.03 517.603 1884.48 525.161 C 1884.1 505.751 1883.7 483.331 1884.43 464.013 z" fill="rgb(251,249,242)" transform="translate(0,0)"></path>
<path d="M 1884.29 658.304 C 1901.41 664.085 1928.68 676.17 1945.32 683.412 C 1938.96 686.195 1929.43 691.675 1923.06 695.094 C 1910.06 702.236 1897.73 709.07 1884.35 715.469 L 1884.29 658.304 z" fill="rgb(251,249,242)" transform="translate(0,0)"></path>
<path d="M 1884.07 751.853 C 1904.52 759.72 1924.82 767.999 1944.95 776.683 C 1938.23 780.624 1931.32 784.252 1924.49 787.969 C 1911.31 795.477 1897.36 801.676 1884.06 808.992 L 1884.07 751.853 z" fill="rgb(251,249,242)" transform="translate(0,0)"></path>
<path d="M 188.222 679.885 C 202.074 685.14 205.495 683.013 205.2 698.595 C 206.418 694.892 205.729 691.622 206.829 687.262 L 208.312 687.796 C 211.566 689.322 221.318 693.662 223.882 695.295 C 225.98 697.238 225.622 698.031 225.664 701.785 C 225.795 713.659 225.627 725.666 225.572 737.545 L 224.116 737.155 C 220.359 736.956 211.817 734.835 208.335 733.513 C 206.384 732.947 207.073 734.199 204.976 733.015 C 200.065 731.567 193.283 730.369 188.148 729.306 L 188.222 679.885 z" fill="rgb(251,249,242)" transform="translate(0,0)"></path>
<path d="M 188.222 679.885 C 202.074 685.14 205.495 683.013 205.2 698.595 C 204.995 710.067 204.92 721.541 204.976 733.015 C 200.065 731.567 193.283 730.369 188.148 729.306 L 188.222 679.885 z" fill="rgb(251,249,242)" transform="translate(0,0)"></path>
<path d="M 205.2 698.595 C 206.418 694.892 205.729 691.622 206.829 687.262 L 208.312 687.796 L 208.335 733.513 C 206.384 732.947 207.073 734.199 204.976 733.015 C 204.92 721.541 204.995 710.067 205.2 698.595 z" fill="rgb(1,21,43)" transform="translate(0,0)"></path>
<path d="M 223.882 695.295 C 225.98 697.238 225.622 698.031 225.664 701.785 C 225.795 713.659 225.627 725.666 225.572 737.545 L 224.116 737.155 C 222.946 728.323 223.597 704.574 223.882 695.295 z" fill="rgb(1,21,43)" transform="translate(0,0)"></path>
<path d="M 1884.21 562.814 C 1901.25 568.665 1925.79 579.768 1943.06 587.092 C 1935.61 591.136 1927.89 595.791 1920.52 600.068 L 1884.37 620.205 L 1884.21 562.814 z" fill="rgb(251,249,242)" transform="translate(0,0)"></path>
<path d="M 303.224 692.275 C 307.81 694.164 317.009 701.399 320.839 704.804 C 321.037 732.625 321.054 760.447 320.892 788.268 C 315.107 787.078 309.1 786.016 303.28 784.907 L 303.224 692.275 z" fill="rgb(251,249,242)" transform="translate(0,0)"></path>
<path d="M 1494.89 747.945 L 1586.02 748.957 L 1585.98 765.478 L 1494.92 765.607 L 1494.89 747.945 z" fill="rgb(62,166,173)" transform="translate(0,0)"></path>
<path d="M 379.091 808.107 C 408.373 808.454 437.658 808.532 466.942 808.338 L 466.882 826.056 L 379.054 825.921 L 379.091 808.107 z" fill="rgb(62,166,173)" transform="translate(0,0)"></path>
<path d="M 1449.8 770.004 L 1476.99 770.027 C 1477.07 782.304 1477.88 806.561 1476.7 817.876 C 1474.12 819.957 1473.19 819.482 1469.42 820.092 C 1471.68 821.397 1472.78 821.143 1475.38 821.117 L 1477.76 823.057 C 1473.14 826.363 1458.02 825.072 1452.04 824.875 L 1449.91 824.411 C 1448.51 820.514 1449.71 777.763 1449.8 770.004 z" fill="rgb(251,249,242)" transform="translate(0,0)"></path>
<path d="M 1452.02 822.963 C 1452.26 821.605 1452.37 821.784 1453.12 820.512 C 1457.8 819.421 1464.46 819.941 1469.42 820.092 C 1471.68 821.397 1472.78 821.143 1475.38 821.117 L 1477.76 823.057 C 1473.14 826.363 1458.02 825.072 1452.04 824.875 L 1452.02 822.963 z" fill="url(#Gradient1)" transform="translate(0,0)"></path>
<path d="M 1452.02 822.963 C 1458.67 824.733 1470.64 822.747 1477.76 823.057 C 1473.14 826.363 1458.02 825.072 1452.04 824.875 L 1452.02 822.963 z" fill="rgb(56,110,131)" transform="translate(0,0)"></path>
<path d="M 565.987 808.075 C 593.705 808.257 621.449 807.866 649.168 807.729 L 649.191 826.039 C 621.451 825.889 593.711 825.879 565.972 826.01 L 565.987 808.075 z" fill="rgb(62,166,173)" transform="translate(0,0)"></path>
<path d="M 1952.15 298.991 C 1954.54 302.226 1953.33 357.227 1953.29 365.398 C 1946.93 359.586 1939.08 353.291 1932.41 347.671 L 1910.12 328.677 C 1923.33 318.45 1938.34 308.368 1952.15 298.991 z" fill="rgb(251,249,242)" transform="translate(0,0)"></path>
<path d="M 1229.26 796.4 L 1248.2 796.235 L 1248.31 831.775 L 1216.84 831.649 L 1196.7 831.848 C 1197.35 829.371 1198.01 826.862 1198.84 824.438 C 1204.14 809.046 1215.65 803.242 1229.26 796.4 z" fill="rgb(251,189,93)" transform="translate(0,0)"></path>
<path d="M 1506 664.656 C 1521.02 665.389 1536.03 666.239 1551.04 667.204 L 1550.99 696.761 C 1536.01 696.38 1521.03 695.881 1506.06 695.266 L 1506 664.656 z" fill="rgb(251,249,242)" transform="translate(0,0)"></path>
<path d="M 1884.13 374.154 C 1899.65 380.576 1919.74 391.561 1934.98 399.45 C 1929.2 402.026 1922.08 406.251 1916.41 409.42 C 1905.6 414.971 1894.87 420.665 1884.21 426.502 L 1884.13 374.154 z" fill="rgb(251,249,242)" transform="translate(0,0)"></path>
<path d="M 790.188 576.961 L 793.225 574.767 L 800.107 581.389 L 798.784 583.746 C 803.59 587.278 809.326 591.024 814.299 594.446 L 814.497 778.654 C 814.478 788.182 815.227 834.378 813.714 840.503 L 812.11 840.683 C 808.153 836.263 809.947 820.356 809.958 813.646 L 809.957 761.702 L 809.908 597.455 C 802.904 593.849 792.169 589.355 788.281 582.873 C 788.137 579.085 787.941 580.421 790.188 576.961 z" fill="rgb(251,249,242)" transform="translate(0,0)"></path>
<path d="M 790.188 576.961 L 793.225 574.767 L 800.107 581.389 L 798.784 583.746 L 790.188 576.961 z" fill="rgb(1,21,43)" transform="translate(0,0)"></path>
<path d="M 1555.22 701.029 L 1586.04 702.012 C 1586.12 716.206 1586.09 730.4 1585.97 744.594 L 1555.32 744.116 L 1555.22 701.029 z" fill="rgb(251,249,242)" transform="translate(0,0)"></path>
<path d="M 75.1837 222.985 L 172.888 223.09 C 172.95 227.612 172.768 231.902 172.59 236.41 C 140.116 236.14 107.64 236.234 75.1678 236.694 L 75.1837 222.985 z" fill="rgb(251,249,242)" transform="translate(0,0)"></path>
<path d="M 75.58 405.324 L 136.979 405.4 C 145.867 405.42 163.956 405.089 172.194 406.383 C 173.563 409.329 173.13 414.732 173.1 418.236 C 142.124 419.149 106.809 418.666 75.7153 418.593 L 75.58 405.324 z" fill="rgb(251,249,242)" transform="translate(0,0)"></path>
<path d="M 1964.63 257.265 C 1966.61 259.193 1965.86 268.17 1965.82 271.196 C 1935.07 278.018 1904.46 285.498 1874.03 293.63 C 1872.57 290.985 1873.1 284.273 1873.13 280.871 C 1903.16 273.15 1934.91 265.592 1964.63 257.265 z" fill="rgb(251,249,242)" transform="translate(0,0)"></path>
<path d="M 1952.84 278.331 C 1953.68 279.208 1953.48 280.336 1953.64 281.886 C 1950.26 286.978 1908.62 312.037 1899.19 320.797 L 1891.51 314.022 L 1884.18 308.345 L 1884.24 295.719 C 1906.97 289.404 1929.85 283.607 1952.84 278.331 z" fill="rgb(251,249,242)" transform="translate(0,0)"></path>
<path d="M 1434.2 633.289 C 1436.94 633.792 1437.53 633.443 1439.41 635.119 L 1439.74 859.352 C 1438.23 859.191 1436.63 858.903 1435.12 858.662 C 1432.92 855.26 1433.66 655.925 1434.2 633.289 z" fill="rgb(62,166,173)" transform="translate(0,0)"></path>
<path d="M 1449.94 698.786 L 1477.04 698.945 L 1477.05 740.727 L 1449.95 741.442 L 1449.94 698.786 z" fill="rgb(251,249,242)" transform="translate(0,0)"></path>
<path d="M 1884.12 843.202 C 1893.6 847.113 1948.19 868.94 1952.5 872.622 C 1952.77 872.853 1953.19 874.131 1953.37 874.518 C 1930.29 874.279 1907.2 874.345 1884.12 874.714 L 1884.12 843.202 z" fill="rgb(251,249,242)" transform="translate(0,0)"></path>
<path d="M 1338.7 698.543 C 1345.73 704.096 1349.05 708.818 1354.05 715.985 C 1354.22 737.045 1354.15 758.106 1353.83 779.164 C 1353.9 784.492 1354.84 800.079 1352.35 803.399 L 1351.62 802.337 C 1351.14 795.703 1351.38 785.584 1351.33 778.685 L 1338.99 776.96 L 1338.7 698.543 z" fill="rgb(62,166,173)" transform="translate(0,0)"></path>
<path d="M 1351.62 802.337 C 1353.17 795.944 1350.94 783.449 1353.83 779.164 C 1353.9 784.492 1354.84 800.079 1352.35 803.399 L 1351.62 802.337 z" fill="rgb(62,166,173)" transform="translate(0,0)"></path>
<path d="M 321.211 63.6197 C 324.181 63.836 326.351 63.5866 328.416 65.5268 C 331.582 76.4542 344.4 189.679 343.723 196.85 C 340.661 196.45 339.703 196.416 336.797 195.063 C 334.894 190.48 330.232 147.127 329.17 138.611 C 327.946 128.793 319.448 68.9272 321.211 63.6197 z" fill="rgb(251,249,242)" transform="translate(0,0)"></path>
<path d="M 1449.21 829.253 L 1476.63 828.916 L 1476.76 874.738 C 1474.15 874.833 1471.39 875.021 1468.78 874.803 C 1465.84 874.556 1461.61 869.45 1459.59 867.186 C 1456.73 863.985 1453.08 862.737 1449.19 861.163 L 1449.21 829.253 z" fill="rgb(251,249,242)" transform="translate(0,0)"></path>
<path d="M 1403.54 667.813 C 1406.58 667.753 1408.28 667.411 1410.93 668.86 C 1412.11 676.558 1412.45 799.189 1411.21 804.337 C 1396.78 764.085 1404.57 717.757 1402.51 675.474 C 1402.38 672.78 1402.44 670.307 1403.54 667.813 z" fill="rgb(251,249,242)" transform="translate(0,0)"></path>
<path d="M 197.191 803.367 C 199.169 803.148 200.72 803.202 202.666 803.621 C 205.051 812.948 203.174 859.698 203.133 872.345 C 200.002 873.887 196.5 874.991 193.233 876.238 C 191.364 876.816 191.021 876.967 189.045 876.473 C 187.039 872.068 187.507 813.137 188.506 805.194 C 190.793 803.313 194.333 803.574 197.191 803.367 z" fill="rgb(251,189,93)" transform="translate(0,0)"></path>
<path d="M 487.237 808.352 L 546.546 808.144 L 546.368 825.929 C 526.644 826.176 506.895 825.988 487.168 826.003 L 487.237 808.352 z" fill="rgb(62,166,173)" transform="translate(0,0)"></path>
<path d="M 210.802 47.5777 C 211.915 47.9081 213.757 48.6959 214.905 49.1487 C 219.044 53.7787 240.59 165.928 246.046 180.087 C 246.994 182.548 246.385 184.197 245.013 186.305 C 244.28 186.032 240.699 184.363 240.543 183.757 C 229.332 140.276 218.293 96.6571 207.688 53.0372 C 207.159 50.8604 209.438 49.0699 210.802 47.5777 z" fill="rgb(251,249,242)" transform="translate(0,0)"></path>
<path d="M 556.609 92.4449 C 560.283 93.2945 561.032 93.1788 562.988 95.6822 C 563.191 104.385 537.158 208.568 533.294 218.689 C 529.74 218.211 529.785 218.768 527.357 216.795 C 528.065 208.718 554.491 96.3296 556.609 92.4449 z" fill="rgb(251,249,242)" transform="translate(0,0)"></path>
<path d="M 439.451 78.4223 C 441.281 78.8571 443.408 79.8046 445.185 80.5202 C 445.61 81.1235 446.117 81.8431 446.707 82.6792 C 444.91 116.697 442.015 175.875 439.006 207.516 C 437.079 207.257 435.22 206.858 433.315 206.476 L 432.378 204.893 L 435.913 131.134 C 436.207 123.539 436.731 82.8563 439.451 78.4223 z" fill="rgb(251,249,242)" transform="translate(0,0)"></path>
<path d="M 886.914 133.411 C 889.855 134.313 890.315 134.811 891.463 137.308 C 890.297 144.514 809.454 238.089 798.758 250.647 C 797.288 250.867 796.319 250.482 794.881 250.113 L 794.763 248.545 C 804.07 234.702 827.798 206.937 838.909 192.951 C 851.498 177.107 873.757 147.253 886.914 133.411 z" fill="rgb(251,249,242)" transform="translate(0,0)"></path>
<path d="M 670.3 106.514 C 674.059 107.934 674.699 107.447 676.611 110.173 C 675.629 121.196 632.217 212.542 624.688 228.657 C 621.528 229.389 622.682 229.512 619.93 228.669 C 619.527 226.507 619.71 225.927 620.643 223.904 C 638.4 185.388 652.911 145.126 670.3 106.514 z" fill="rgb(251,249,242)" transform="translate(0,0)"></path>
<path d="M 1884.27 824.936 C 1907.8 833.674 1931.42 844.751 1954.11 855.499 L 1954.11 868.161 C 1930.39 859.513 1907.12 848.28 1884.01 838.068 C 1883.89 833.691 1884.12 829.31 1884.27 824.936 z" fill="rgb(251,249,242)" transform="translate(0,0)"></path>
<path d="M 1483.76 708.699 C 1483.86 699.794 1482.47 664.66 1485.79 659.615 C 1488.51 665.162 1485.75 733.969 1486.35 745.714 C 1486.16 804.162 1486.38 862.611 1487.01 921.056 C 1499.6 921.005 1516.04 917.588 1527.72 918.593 L 1528.52 919.94 C 1523.41 925.387 1492.59 925.081 1483.8 925.661 C 1483.15 853.665 1484.73 780.428 1483.76 708.699 z" fill="rgb(62,166,173)" transform="translate(0,0)"></path>
<path d="M 1884.36 638.842 C 1906.09 649.296 1931.78 659.823 1954.12 669.489 L 1954.11 682.144 C 1937.34 676.246 1900.74 660.374 1884.29 653.071 L 1884.36 638.842 z" fill="rgb(251,249,242)" transform="translate(0,0)"></path>
<path d="M 1884.22 445.661 C 1905.14 456.164 1932.3 467.388 1954.1 477.041 L 1954.09 490.134 C 1935.43 483.322 1903.18 467.539 1884.2 458.98 L 1884.22 445.661 z" fill="rgb(251,249,242)" transform="translate(0,0)"></path>
<path d="M 1884.22 543.689 C 1907.56 553.578 1930.84 563.625 1954.05 573.83 L 1954.07 586.749 C 1930.78 576.606 1907.32 567.328 1884.16 557.233 L 1884.22 543.689 z" fill="rgb(251,249,242)" transform="translate(0,0)"></path>
<path d="M 781.459 120.53 C 783.945 121.383 784.315 121.484 785.913 123.544 C 786.201 129.112 728.207 214.099 723.208 224.298 C 722.059 226.644 714.052 237.975 712.021 240.618 C 710.047 240.437 710.116 240.357 708.581 239.252 C 708.816 235.513 776.326 125.375 781.459 120.53 z" fill="rgb(251,249,242)" transform="translate(0,0)"></path>
<path d="M 1884.3 732.92 C 1907.31 743.923 1931.17 753.374 1954.71 763.165 L 1954.72 775.702 C 1931.19 766.19 1907.98 755.884 1884.18 747.075 L 1884.3 732.92 z" fill="rgb(251,249,242)" transform="translate(0,0)"></path>
<path d="M 987.55 145.62 C 990.806 145.921 991.605 147.158 992.504 149.881 C 990.816 155.133 899.139 247.272 886.583 261.195 L 882.909 260.599 L 882.486 259.467 C 895.336 243.997 914.041 225.069 928.062 210.21 C 948.056 188.832 967.886 167.301 987.55 145.62 z" fill="rgb(251,249,242)" transform="translate(0,0)"></path>
<path d="M 1555.1 667.788 C 1564.75 668.029 1576.23 668.93 1585.99 669.473 L 1586 697.827 C 1576.08 697.181 1565.12 697.111 1555.11 696.841 L 1555.1 667.788 z" fill="rgb(251,249,242)" transform="translate(0,0)"></path>
<path d="M 1390.83 815.43 L 1393.46 815.779 C 1397.21 830.303 1400.15 845.02 1402.28 859.866 C 1380.79 861.18 1356.54 862.927 1335.1 863.343 C 1326.32 852.409 1317.4 842.195 1308.18 831.626 C 1309.66 829.655 1310.06 828.822 1311.14 826.601 C 1324.95 833.495 1331.59 846.203 1340.39 858.969 C 1354.72 858.383 1378.31 857.676 1391.94 855.746 C 1392.56 843.702 1391.29 827.853 1390.83 815.43 z" fill="rgb(62,166,173)" transform="translate(0,0)"></path>
<path d="M 1450.03 662.851 C 1458.6 662.369 1468.36 662.709 1477.03 662.821 L 1477.05 694.878 L 1450.03 694.537 L 1450.03 662.851 z" fill="rgb(251,249,242)" transform="translate(0,0)"></path>
<path d="M 1087.08 158.61 C 1088.79 158.737 1089.17 159.239 1090.51 160.283 L 1090.69 162.766 C 1087.68 169.647 982.868 261.694 972.661 270.41 C 970.681 271.409 971.715 271.234 969.442 270.835 C 969.906 266.203 1069.84 176.41 1080.14 164.843 C 1080.85 164.046 1085.82 159.718 1087.08 158.61 z" fill="rgb(251,249,242)" transform="translate(0,0)"></path>
<path d="M 188.213 733.676 L 204.85 736.627 L 204.865 786.101 L 188.572 786.512 L 188.213 733.676 z" fill="rgb(251,249,242)" transform="translate(0,0)"></path>
<path d="M 1904.31 332.795 C 1908.77 334.038 1953.69 374.856 1957.62 380.701 C 1953.79 379.26 1949.36 377.074 1945.58 375.334 C 1926.88 364.377 1904.82 355.866 1888.12 345.784 C 1894.2 340.297 1897.58 337.405 1904.31 332.795 z" fill="rgb(251,189,93)" transform="translate(0,0)"></path>
<path d="M 334.07 71.9288 C 360.185 76.2685 388.921 77.1098 415.283 81.3035 C 421.17 82.2401 426.257 82.3873 432.197 84.005 C 433.82 86.2542 433.322 88.9723 433.255 91.9336 C 412.193 89.2953 391.116 86.7753 370.025 84.3737 C 361.468 83.3699 343.967 81.8062 336.267 79.7255 C 334.525 77.7902 334.478 74.6904 334.07 71.9288 z" fill="rgb(251,249,242)" transform="translate(0,0)"></path>
<path d="M 450.467 86.6164 C 478.901 89.1008 507.193 93.2022 535.551 96.4133 C 539.816 96.8962 544.04 97.545 548.249 98.3872 C 550.126 100.894 549.308 101.654 548.986 105.577 C 544.071 106.592 462.616 95.8323 452.2 94.5344 C 450.381 92.1734 450.797 90.0523 450.467 86.6164 z" fill="rgb(251,249,242)" transform="translate(0,0)"></path>
<path d="M 378.863 794.737 L 433.816 794.905 C 444.191 794.902 455.131 794.195 465.427 795.448 C 467.363 798.246 466.943 800.431 467.079 803.789 C 449.606 804.073 432.09 803.863 414.613 803.881 C 403.232 803.892 391.405 804.539 380.091 803.405 C 378.429 801.113 378.907 797.486 378.863 794.737 z" fill="rgb(251,249,242)" transform="translate(0,0)"></path>
<path d="M 781.873 580.843 L 783.715 581.641 C 784.679 585.397 785.176 584.993 784.177 588.234 C 773.734 595.853 714.777 627.213 701.453 632.511 C 699.278 631.023 697.026 630.04 696.613 627.523 C 700.262 624.733 717.479 615.668 722.935 612.79 C 742.875 602.27 762.204 591.929 781.873 580.843 z" fill="rgb(251,189,93)" transform="translate(0,0)"></path>
<path d="M 378.993 736.185 C 394.498 736.166 410.01 736.87 425.523 736.892 C 438.657 736.911 452.541 735.941 465.569 737.446 C 467.31 739.783 466.833 742.343 466.936 745.209 C 438.398 745.37 408.451 747.249 380.054 744.745 C 378.45 742.189 379.014 739.173 378.993 736.185 z" fill="rgb(251,249,242)" transform="translate(0,0)"></path>
<path d="M 222.268 58.6327 C 243.043 60.055 264.467 63.6154 285.246 65.5932 C 294.755 66.4983 305.433 67.743 314.785 69.4698 C 316.839 71.6555 316.717 74.6574 317.087 77.8351 C 288.078 72.6994 254.526 71.5333 225.829 66.3217 C 223.196 64.1123 223.475 62.5553 222.268 58.6327 z" fill="rgb(251,249,242)" transform="translate(0,0)"></path>
<path d="M 566.718 100.824 C 587.493 104.131 610.701 105.638 631.734 108.596 C 641.331 109.946 651.602 110.452 661.035 112.596 C 662.213 115.503 661.314 115.936 660.125 119.622 C 643.701 118.581 623.626 115.197 606.779 113.474 C 597.339 112.509 574.806 110.188 566.853 108.067 C 565.435 104.939 566.117 104.851 566.718 100.824 z" fill="rgb(251,249,242)" transform="translate(0,0)"></path>
<path d="M 689.546 630 C 696.382 633.144 708.712 640.22 715.953 643.992 L 716.023 768.437 C 716.029 785.337 717.009 817.352 715.535 833.106 L 713.914 831.593 C 711.214 824.399 712.845 668.199 712.847 648.466 C 704.586 644.715 689.668 639.771 689.546 630 z" fill="rgb(251,249,242)" transform="translate(0,0)"></path>
<path d="M 680.365 114.737 C 700.242 117.998 721.313 119.655 741.308 122.42 C 749.264 123.52 761.964 124.286 769.312 126.443 C 769.485 129.483 768.178 130.505 766.424 133.577 C 764.393 134.118 685.702 123.735 679.661 122.335 C 678.551 118.804 679.231 118.95 680.365 114.737 z" fill="rgb(251,249,242)" transform="translate(0,0)"></path>
<path d="M 1884.32 349.383 C 1901.87 359.141 1937.69 372.822 1952.99 384.361 C 1954.35 386.741 1953.95 390.937 1953.94 393.88 C 1931.61 382.18 1907.2 371.06 1884.35 360.308 L 1884.32 349.383 z" fill="rgb(251,249,242)" transform="translate(0,0)"></path>
<path d="M 303.338 789.31 C 308.859 790.04 314.346 791.059 319.834 791.997 C 319.734 802.7 322.128 817.783 319.606 827.908 C 318.969 830.464 318.324 830.422 316.111 831.706 L 303.111 836.177 C 303.056 820.594 302.589 804.873 303.338 789.31 z" fill="rgb(251,189,93)" transform="translate(0,0)"></path>
<path d="M 208.29 737.562 L 223.384 741.301 L 223.317 785.882 L 208.027 786.125 L 208.29 737.562 z" fill="rgb(251,249,242)" transform="translate(0,0)"></path>
<path d="M 566 795.289 C 593.058 795.382 621.273 793.4 648.165 795.518 C 649.856 797.787 649.302 800.951 649.24 803.666 C 622.828 803.58 592.728 805.818 566.771 803.537 C 565.425 801.132 565.931 797.977 566 795.289 z" fill="rgb(251,249,242)" transform="translate(0,0)"></path>
<path d="M 566.009 738.111 C 580.069 738.055 594.157 738.618 608.222 738.695 C 621.489 738.769 635.037 738.242 648.255 739.294 C 649.762 741.731 649.381 744.248 649.484 747.076 L 598.809 746.88 C 588.377 746.831 577.151 747.53 566.888 745.708 C 565.523 743.613 565.99 740.543 566.009 738.111 z" fill="rgb(251,249,242)" transform="translate(0,0)"></path>
<path d="M 789.088 128.63 C 803.687 129.474 822.475 132.631 837.399 134.094 C 846.501 134.986 867.09 136.926 874.638 138.901 C 874.307 142.21 873.313 142.548 871.1 145.678 C 853.914 144.086 836.759 142.17 819.645 139.932 C 809.693 138.719 796.4 137.475 786.805 135.364 L 786.272 133.585 L 789.088 128.63 z" fill="rgb(251,249,242)" transform="translate(0,0)"></path>
<path d="M 895.416 140.815 C 921.722 144.657 950.804 147.404 977.446 150.543 C 975.521 152.702 972.984 155.181 970.932 157.301 C 966.784 158.506 901.158 149.442 890.844 148.333 L 895.416 140.815 z" fill="rgb(251,249,242)" transform="translate(0,0)"></path>
<path d="M 1371.75 751.044 C 1382.6 772.494 1386.08 794.066 1393.46 815.779 L 1390.83 815.43 C 1384.49 811.734 1378.53 808.545 1372.01 805.154 L 1371.75 751.044 z" fill="rgb(251,249,242)" transform="translate(0,0)"></path>
<path d="M 996.194 153.229 C 1015.25 154.952 1034.54 158.246 1053.58 160.366 C 1059.96 161.076 1067.57 161.927 1073.72 163.519 C 1073.19 166.588 1071.71 167.037 1069.01 169.618 C 1042.69 166.673 1016.42 163.376 990.192 159.728 L 996.194 153.229 z" fill="rgb(251,249,242)" transform="translate(0,0)"></path>
<path d="M 821.027 691.122 L 823.035 691.817 C 824.916 695.035 824.447 720.486 824.316 726.017 C 823.414 764.094 826.005 803.793 824 841.727 L 821.658 840.281 C 820.339 834.737 820.834 802.374 820.832 794.901 C 820.722 760.308 820.787 725.714 821.027 691.122 z" fill="rgb(251,249,242)" transform="translate(0,0)"></path>
<path d="M 226.645 696.082 C 230.571 697.593 234.75 699.443 238.66 701.08 C 240.678 704.775 239.639 734.949 239.513 741.081 L 238.298 740.32 C 235.435 739.924 229.735 738.274 226.725 737.494 L 226.645 696.082 z" fill="rgb(251,249,242)" transform="translate(0,0)"></path>
<path d="M 238.66 701.08 C 240.678 704.775 239.639 734.949 239.513 741.081 L 238.298 740.32 C 237.551 733.691 237.198 707.304 238.66 701.08 z" fill="rgb(1,21,43)" transform="translate(0,0)"></path>
<path d="M 487.093 795.209 C 506.111 795.164 526.279 793.723 545.151 795.675 C 547.042 798.327 546.486 800.676 546.528 803.887 C 527.665 804.206 506.856 805.812 488.199 803.619 C 486.444 801.27 487.022 798.02 487.093 795.209 z" fill="rgb(251,249,242)" transform="translate(0,0)"></path>
<path d="M 487.057 737.061 C 505.471 737.238 527.603 735.509 545.493 738.401 C 547.168 740.754 546.709 743.225 546.801 746.065 C 527.876 746.179 506.948 747.958 488.275 745.534 C 486.671 742.758 487.111 740.236 487.057 737.061 z" fill="rgb(251,249,242)" transform="translate(0,0)"></path>
<path d="M 1463.55 883.239 C 1466.84 882.094 1472.68 882.932 1476.26 882.964 C 1476.08 889.582 1476.75 896.204 1476.57 902.815 C 1476.49 905.764 1476.17 908.933 1474.02 910.986 L 1469.76 910.832 C 1468.19 910.716 1466.34 910.714 1464.81 910.318 C 1459.31 908.888 1457.62 893.283 1454.73 888.068 L 1454.29 887.291 L 1455.64 885.754 C 1458.64 885.754 1460.31 885.333 1462.85 883.701 L 1463.55 883.239 z" fill="rgb(251,249,242)" transform="translate(0,0)"></path>
<path d="M 1358.11 722.773 C 1359.34 724.327 1363 730.225 1363.16 732.017 C 1365.15 754.285 1364.04 782.464 1363.98 805.079 C 1361.33 804.722 1359.6 804.771 1357.48 803.193 L 1358.11 722.773 z" fill="rgb(251,249,242)" transform="translate(0,0)"></path>
<path d="M 1449.88 748.784 L 1477.15 748.576 L 1477.11 765.726 L 1449.92 765.56 L 1449.88 748.784 z" fill="rgb(62,166,173)" transform="translate(0,0)"></path>
<path d="M 225.829 741.938 C 229.791 742.791 233.744 743.688 237.687 744.63 L 237.696 784.917 L 226.657 785.681 C 226.614 780.354 226.795 769.568 226.172 764.728 C 226.724 759.338 226.356 747.424 225.829 741.938 z" fill="rgb(251,249,242)" transform="translate(0,0)"></path>
<path d="M 1959.85 176.655 C 1961.78 177.297 1962.06 177.599 1963.74 178.801 C 1964.44 187.491 1965.11 250.475 1962.34 254.596 L 1959.54 253.535 C 1959.28 252.816 1959.06 252.08 1958.89 251.333 C 1957.59 245.869 1957.96 179.523 1959.85 176.655 z" fill="rgb(251,249,242)" transform="translate(0,0)"></path>
<path d="M 242.437 796.562 C 231.735 797.206 194.576 801.614 187.967 795.54 L 188.057 793.816 C 193.657 789.074 231.392 790.01 241.2 789.874 L 242.437 796.562 z" fill="rgb(251,249,242)" transform="translate(0,0)"></path>
<path d="M 1095.25 165.832 C 1110.2 166.818 1132.45 171.041 1148.92 172.651 C 1147.05 174.597 1143.33 177.385 1141.11 179.154 C 1131.57 179.589 1100.09 174.013 1088.56 172.552 L 1095.25 165.832 z" fill="rgb(251,249,242)" transform="translate(0,0)"></path>
<path d="M 1952.35 288.896 L 1953.31 289.051 L 1954.05 290.978 C 1951.9 295.56 1894.72 334.625 1886.02 341.23 L 1884.68 340.79 L 1884.26 338.525 C 1886.95 332.11 1942.3 295.446 1952.35 288.896 z" fill="rgb(251,249,242)" transform="translate(0,0)"></path>
<path d="M 1418.95 639.714 L 1418.8 640.569 C 1417.64 647.66 1418.08 673.432 1418.07 682.219 L 1417.85 772.038 C 1417.77 782.786 1418.12 805.572 1417 815.734 C 1416.14 800.705 1413.7 648.431 1415.81 641.923 L 1417.12 642.171 L 1418.95 639.714 z" fill="rgb(56,110,131)" transform="translate(0,0)"></path>
<path d="M 1328.24 831.156 L 1326.38 829.248 L 1327.4 828.14 C 1331.3 827.984 1334.43 827.962 1338.33 828.088 C 1343.47 833.439 1354.63 843.805 1355.96 850.521 C 1354.17 852.702 1354.7 852.021 1351.39 852.904 C 1349.37 852.973 1346.09 853.275 1344.54 851.945 C 1338.12 846.447 1333.01 838.093 1328.24 831.156 z" fill="rgb(128,200,205)" transform="translate(0,0)"></path>
<path d="M 1328.24 831.156 C 1330.5 832.164 1332.36 833.281 1334.78 833.264 L 1335.16 834.306 C 1341.22 838.857 1346.4 844.483 1350.44 850.903 L 1351.39 852.904 C 1349.37 852.973 1346.09 853.275 1344.54 851.945 C 1338.12 846.447 1333.01 838.093 1328.24 831.156 z" fill="rgb(62,166,173)" transform="translate(0,0)"></path>
<path d="M 1335.16 834.306 C 1341.22 838.857 1346.4 844.483 1350.44 850.903 C 1345.91 849.679 1336.18 839.036 1335.16 834.306 z" fill="rgb(1,29,56)" transform="translate(0,0)"></path>
<path d="M 1874.46 206.215 L 1878.45 207.364 C 1879.44 209.896 1879.22 271.121 1878 276.387 L 1874.95 275.699 C 1872.87 272.763 1873.6 213.536 1874.46 206.215 z" fill="rgb(251,249,242)" transform="translate(0,0)"></path>
<path d="M 1494.98 699.611 C 1497.75 699.655 1499 699.48 1501.45 700.907 C 1502.59 709.484 1501.93 733.84 1501.89 743.621 C 1499.27 743.67 1498.05 743.867 1495.62 742.708 C 1494.21 737.972 1494.93 706.225 1494.98 699.611 z" fill="rgb(251,249,242)" transform="translate(0,0)"></path>
<path d="M 1949.16 685.981 C 1949.48 686.191 1950.33 687.274 1950.62 687.614 C 1943.85 694.091 1897.64 718.066 1886.2 724.086 C 1884.6 723.708 1885.32 724.115 1884.23 722.448 C 1886.01 718.275 1940.93 690.044 1949.16 685.981 z" fill="rgb(251,249,242)" transform="translate(0,0)"></path>
<path d="M 1947.61 493.934 C 1949.05 493.663 1949.47 494.041 1950.85 494.628 L 1950.51 496.008 C 1944.53 500.474 1938.49 502.988 1932.09 506.704 L 1887.61 532.01 C 1886.77 532.58 1886.42 532.56 1885.44 532.655 L 1885.03 533.14 L 1884.6 531.582 C 1887.81 525.774 1938.59 498.98 1947.61 493.934 z" fill="rgb(251,249,242)" transform="translate(0,0)"></path>
<path d="M 1949.01 778.897 C 1949.67 779.318 1950.01 779.967 1950.47 780.596 C 1946.64 786.917 1896.33 811.927 1885.78 817.467 L 1884.08 816.419 L 1884.46 814.335 C 1889.64 809.784 1897.44 806.885 1903.53 803.626 C 1918.77 795.482 1934.11 787.662 1949.01 778.897 z" fill="rgb(251,249,242)" transform="translate(0,0)"></path>
<path d="M 1947.42 396.937 L 1949.04 397.643 L 1948.73 399.175 C 1939.77 406.315 1899.86 427.547 1887.09 435.184 C 1886.44 435.46 1885.83 435.366 1885.03 435.386 L 1884.85 433.216 C 1888.07 427.306 1936.53 403.383 1947.42 396.937 z" fill="rgb(251,249,242)" transform="translate(0,0)"></path>
<path d="M 1883.71 364.74 L 1884.42 364.979 C 1897.12 369.399 1929.35 386.57 1943.05 393.656 C 1943.46 394.514 1943.82 395.249 1944.11 395.861 C 1943.91 395.873 1943.72 395.877 1943.52 395.898 C 1936.16 396.678 1896.07 375.606 1887.2 370.171 C 1884.45 368.485 1884.43 367.859 1883.71 364.74 z" fill="rgb(251,249,242)" transform="translate(0,0)"></path>
<path d="M 1946.08 589.799 C 1948.91 589.884 1947.94 589.492 1950.2 590.964 C 1949.09 593.175 1894.37 623.398 1886.54 627.977 L 1885.07 628.414 L 1884.51 626.498 C 1886.02 623.081 1937.28 594.906 1946.08 589.799 z" fill="rgb(251,249,242)" transform="translate(0,0)"></path>
<path d="M 311.921 659.798 L 320.35 669.059 L 320.235 698.582 L 311.665 692.555 C 311.514 681.635 311.599 670.714 311.921 659.798 z" fill="rgb(251,249,242)" transform="translate(0,0)"></path>
<path d="M 303.255 649.454 C 305.469 652.289 306.932 653.937 309.442 656.518 L 311.431 658.145 L 311.331 658.925 C 310.433 666.282 310.443 683.795 310.49 691.699 C 309.969 691.389 309.699 691.334 309.398 690.899 C 304.754 687.475 303.502 686.513 303.188 680.575 C 302.648 670.35 303.214 659.714 303.255 649.454 z" fill="rgb(251,249,242)" transform="translate(0,0)"></path>
<path d="M 309.442 656.518 L 311.431 658.145 L 311.331 658.925 C 310.433 666.282 310.443 683.795 310.49 691.699 C 309.969 691.389 309.699 691.334 309.398 690.899 C 308.674 684.376 308.638 662.968 309.442 656.518 z" fill="rgb(1,21,43)" transform="translate(0,0)"></path>
<path d="M 1301.95 782.659 C 1306.69 782.615 1313.02 781.776 1317.46 783.519 C 1317.83 784.679 1316.21 799.8 1316.53 804.247 C 1316.46 805.074 1316.08 805.73 1315.76 806.485 C 1312.54 805.682 1309.13 801.709 1306.65 799.446 L 1301.95 782.659 z" fill="rgb(251,249,242)" transform="translate(0,0)"></path>
<path d="M 1494.73 663.867 C 1497.5 663.907 1497.9 663.789 1500.4 664.811 C 1503.44 669.95 1501.88 688.2 1501.83 695.411 C 1499.27 695.421 1498.66 695.593 1496.39 694.589 C 1493.49 689.604 1494.75 670.857 1494.73 663.867 z" fill="rgb(251,249,242)" transform="translate(0,0)"></path>
<path d="M 1327.52 782.168 C 1328.96 782.687 1329.54 782.981 1330.56 784.205 C 1331.15 792.711 1331.77 801.874 1330.43 810.318 L 1328.83 811.373 L 1324.7 809.314 C 1322.94 806.674 1322.7 803.281 1322.48 800.18 C 1322 793.531 1323.12 787.209 1327.52 782.168 z" fill="rgb(62,166,173)" transform="translate(0,0)"></path>
<path d="M 1435 864.089 C 1440.53 863.689 1447.08 863.935 1451.45 867.802 C 1453.7 869.786 1456.21 873.434 1456.07 876.548 C 1455.96 878.986 1455.19 879.728 1453.43 881.071 C 1450.19 881.247 1447.8 879.449 1445.13 877.834 C 1442.49 876.8 1440.14 875.92 1437.95 874.046 C 1441.96 874.688 1446.3 875.77 1450.33 874.974 L 1450.5 873.521 C 1448.11 870.495 1443.27 870.634 1439.8 869.474 C 1436.65 868.426 1436.19 866.813 1435 864.089 z" fill="rgb(128,200,205)" transform="translate(0,0)"></path>
<path d="M 1386.95 644.837 C 1388.29 644.38 1390.64 644.563 1392.16 644.593 C 1388.14 652.765 1394.15 722.903 1389.51 730.253 C 1388.21 711.06 1389.45 689.905 1389.09 670.555 C 1388.97 664.429 1389.68 652.009 1388.89 646.362 L 1386.95 644.837 z" fill="rgb(32,84,108)" transform="translate(0,0)"></path>
<path d="M 1952.49 402.967 C 1953.19 405.235 1952.91 416.538 1952.89 419.65 L 1942.33 414.784 C 1939.69 413.467 1940.17 414.149 1938.7 411.963 C 1940.45 409.051 1948.86 405.05 1952.49 402.967 z" fill="rgb(251,189,93)" transform="translate(0,0)"></path>
<path d="M 1386.95 644.837 C 1386.26 644.668 1385.55 644.162 1384.89 643.778 C 1388.45 640.251 1411.26 635.351 1417.1 636.567 C 1417.79 636.712 1418.59 638.963 1418.95 639.714 L 1417.12 642.171 L 1415.81 641.923 C 1408.18 639.791 1399.9 642.664 1392.16 644.593 C 1390.64 644.563 1388.29 644.38 1386.95 644.837 z" fill="rgb(128,200,205)" transform="translate(0,0)"></path>
<path d="M 1339.66 783.041 C 1342.75 783.155 1344.01 782.678 1346.33 784.822 C 1348.15 790.634 1347.01 797.637 1347.03 803.757 C 1345.86 803.673 1344.5 803.654 1343.38 803.308 C 1338.06 801.655 1341.86 787.873 1339.66 783.041 z" fill="rgb(62,166,173)" transform="translate(0,0)"></path>
<path d="M 240.149 678.019 C 240.446 673.674 240.317 653.086 241.447 651.265 C 243.622 653.87 243.892 694.586 241.845 697.555 L 240.177 696.914 C 240.347 690.518 240.254 684.412 240.149 678.019 z" fill="rgb(208,217,225)" transform="translate(0,0)"></path>
<path d="M 241.2 789.874 C 240.997 783.494 239.588 749.634 242.45 746.328 C 242.907 754.439 243.639 789.26 242.437 796.562 L 241.2 789.874 z" fill="rgb(208,217,225)" transform="translate(0,0)"></path>
<path d="M 1300.37 777.372 C 1302.52 776.777 1304.49 776.748 1306.7 776.7 C 1313.45 776.55 1328.21 774.963 1333.06 779.595 C 1332.47 779.714 1331.92 779.815 1331.32 779.872 C 1324.22 780.541 1305.65 781.771 1300.37 777.372 z" fill="rgb(62,166,173)" transform="translate(0,0)"></path>
<path d="M 241.366 700.753 C 244.267 705.135 242.958 734.671 242.868 741.542 C 239.032 739.41 240.7 706.306 241.366 700.753 z" fill="rgb(208,217,225)" transform="translate(0,0)"></path>
<path d="M 226.172 764.728 C 225.739 768.4 225.791 784.861 225.022 786.003 C 224.095 784.385 224.102 745.301 224.66 741.143 L 225.829 741.938 C 226.356 747.424 226.724 759.338 226.172 764.728 z" fill="rgb(1,21,43)" transform="translate(0,0)"></path>
<path d="M 1271.34 799.995 C 1281.85 801.583 1299.67 813.694 1309.31 819.092 C 1301.48 817.887 1276.6 805.636 1271.34 799.995 z" fill="rgb(62,166,173)" transform="translate(0,0)"></path>
<path d="M 1283.4 737.78 C 1285.95 738.655 1289.2 740.676 1290.62 743.05 C 1292.03 745.432 1291.64 746.097 1291.02 748.69 C 1287.87 747.973 1285.22 746.693 1282.91 744.439 C 1281.95 741.325 1282.33 740.72 1283.4 737.78 z" fill="rgb(251,249,242)" transform="translate(0,0)"></path>
<path d="M 524.158 835.601 C 527.381 834.154 531.349 835.611 537.318 834.824 C 643.096 864.853 749.115 894.028 855.363 922.345 C 901.994 934.736 948.495 947.612 994.857 960.972 C 1005.15 963.914 1054.88 976.361 1060.34 981.863 L 1057.4 982.084 L 1057.73 980.795 C 1053.56 983.33 1031.2 975.775 1025.33 974.072 C 951.41 952.599 877.178 932.399 802.83 912.447 C 739.958 895.783 677.228 878.583 614.648 860.851 C 589.291 853.805 548.116 843.801 524.158 835.601 z" fill="rgb(1,21,43)" transform="translate(0,0)"></path>
<metadata><recraft-signature>{"signed_by": "recraft", "signature_b64": "MJDXKdhEL+i2vCdh91/LaJ02Cip3Eznf3PLgC+8e4coPUa21yMw2xbs2wg9L6+UH7WZiSW1dZ0lOTT/+j/YLBg==", "signing_algo": "Ed25519", "generation_timestamp": 1777312843, "identifier": "8d76ed57-cab5-406d-aa0e-18f08e015205"}</recraft-signature></metadata></svg>