<svg xmlns="http://www.w3.org/2000/svg" height="1024" preserveAspectRatio="none" style="display: block;" version="1.1" viewBox="0 0 2048 1024" width="2048">
<path d="M 0 0 L 2048 0 L 2048 1024 L 0 1024 L 0 0 z" fill="rgb(248,248,244)" transform="translate(0,0)"></path>
<path d="M 1468.2 922.951 C 1456.54 918.524 1437.57 912.206 1431.75 900.346 C 1430.01 896.796 1429.66 890.354 1429.65 886.27 C 1429.57 850.539 1429.82 814.747 1429.84 779.018 L 1429.77 549.045 L 1429.65 361.132 C 1429.59 339.967 1429.15 318.592 1429.41 297.403 C 1430.7 274.993 1422.59 260.996 1447.85 250.36 C 1479.15 237.176 1515.96 233.233 1549.33 230.503 C 1590.56 227.13 1717.21 228.798 1741.09 264.242 L 1741.18 670.88 L 1741.25 822.618 C 1741.21 844.517 1742.3 877.505 1740.85 897.895 C 1730.97 913.247 1717.85 916.894 1701.37 922.781 C 1760.52 924.087 1819.9 923.397 1879.05 922.906 C 1881.8 922.883 1884.76 923.263 1886.96 925.024 C 1888.96 928.301 1888.56 926.846 1888.68 930.54 C 1886.2 934.61 1883.7 934.994 1878.92 934.961 C 1869.24 934.896 1859.39 934.629 1849.71 934.639 L 1752.96 934.776 L 1381.42 934.834 C 1347.72 934.878 1313.38 934.884 1279.67 935.47 C 1270.53 935.629 1253.13 938.273 1243.08 939.205 C 1225.82 940.779 1208.48 941.486 1191.15 941.322 C 1174.35 941.408 1157.56 940.746 1140.82 939.337 C 1129.26 938.356 1114.36 935.485 1103.24 935.37 C 1021.95 934.523 940.536 935.115 859.232 935.325 C 847.09 935.356 835.093 937.4 822.996 938.06 C 804.19 939.097 784.456 940.122 765.655 939.955 C 747.079 939.609 728.521 938.614 710.015 936.972 C 700.406 936.139 687.486 934.37 678.115 934.432 L 554.383 935.136 C 526.216 935.081 484.445 932.67 457.47 935.65 C 396.827 942.349 344.329 940.434 283.735 934.457 L 282.405 933.662 C 272.204 934.459 245.141 925.425 234.216 922.409 C 221.064 918.513 204.915 912.172 197.882 899.594 C 195.782 895.838 194.666 891.783 194.192 887.522 C 193.026 877.032 193.022 822.878 195.53 814.761 C 198.306 805.778 206.852 800.162 214.815 796.108 C 283.828 760.975 443.558 765.024 516.807 789.14 C 528.179 792.884 546.622 800.231 552.394 811.506 C 555.725 818.01 555.342 889.077 552.469 896.907 C 547.477 910.51 532.522 916.474 520.277 921.944 L 516.591 923.581 C 540.128 923.2 563.67 923.13 587.209 923.371 C 602.135 923.53 621.831 924.32 636.341 923.731 C 617.447 919.209 596.307 910.75 585.943 893.301 C 583.838 852.641 585.519 802.061 585.281 760.865 C 585.017 733.148 584.929 705.429 585.018 677.711 C 585.031 666.042 584.493 648.374 585.278 637.327 C 621.611 576.532 879.962 582.673 939.787 619.778 C 951.527 627.06 956.03 631.477 956.138 645.343 C 956.36 673.676 956.023 701.969 955.99 730.289 L 956.033 834.349 C 956.065 852.755 956.594 875.307 955.865 893.5 C 945.08 912.579 926.207 917.183 906.26 923.999 C 953.445 922.342 999.954 923.98 1046.94 922.815 C 1034.96 916.991 1020.55 911.18 1013.02 899.738 C 1010.27 895.555 1010.62 891.378 1010.41 886.591 C 1010.14 853.152 1010.36 819.653 1010.42 786.213 L 1010.91 589.273 L 1011.14 509.008 C 1011.14 501.907 1010.45 476.897 1011.54 471.6 C 1015.38 452.981 1051.81 442.996 1068.05 438.805 C 1119.5 425.522 1174.6 423.243 1227.5 425.922 C 1253.59 427.242 1281.09 430.646 1306.57 436.6 C 1327.43 441.474 1360.87 449.337 1373 468.479 C 1373.33 468.986 1373.63 469.505 1373.92 470.034 C 1374.73 491.314 1374.05 514.84 1374.11 536.315 L 1374.06 704.79 C 1374.1 711.566 1374.43 718.334 1374.69 725.106 C 1375.54 747.596 1373.99 770.11 1374.47 792.606 C 1375.06 814.535 1375.13 836.476 1374.68 858.409 C 1374.52 872.631 1377.29 891.578 1366.98 901.927 C 1356.69 912.256 1343.04 917.766 1329.76 923.013 C 1359.22 923.249 1388.67 923.329 1418.13 923.253 C 1433.58 923.244 1453.02 923.746 1468.2 922.951 z" fill="rgb(30,44,71)" transform="translate(0,0)"></path>
<path d="M 743.541 599.436 C 792.89 596.677 897.688 600.765 941.753 629.624 C 945.215 631.892 949.543 637.433 949.82 641.785 C 950.039 645.229 948.489 649.242 945.946 651.499 C 915.702 678.346 837.021 684.084 799.345 685.17 C 750.925 688.62 642.519 683.694 598.478 654.187 C 596.318 652.895 591.31 646.144 592.148 643.414 C 603.514 606.371 718.244 600.68 743.541 599.436 z" fill="rgb(251,199,115)" transform="translate(0,0)"></path>
<path d="M 737.865 603.423 C 780.661 600.593 869.699 603.38 907.792 628.306 C 910.985 630.497 914.753 635.226 914.979 639.086 C 915.611 649.838 905.198 657.986 895.415 662.026 C 867.963 673.366 834.653 676.498 805.247 678.652 C 753.705 681.274 682.025 680.446 636.172 654.107 C 622.97 646.523 630.048 629.562 642.772 623.426 C 671.845 609.406 706.009 605.782 737.865 603.423 z" fill="rgb(30,44,71)" transform="translate(0,0)"></path>
<path d="M 739.051 610.419 C 747.451 609.944 758.331 609.628 766.671 610.618 C 764.377 613.427 733.615 617.39 739.887 629.074 C 748.375 644.885 798.218 633.754 803.514 649.24 C 798.389 660.248 761.061 659.527 750.515 654.446 C 746.569 652.545 736.894 646.747 733.805 648.424 C 735.204 659.407 759.383 661.741 768.112 662.613 C 768.188 666.307 768.228 667.633 767.601 671.27 C 763.428 673.181 751.243 672.261 745.946 671.856 C 713.96 669.411 677.65 666.709 648.397 653.034 C 629.997 644.432 632.803 634.496 650.324 627.434 C 678.953 615.895 708.428 612.302 739.051 610.419 z" fill="rgb(251,199,115)" transform="translate(0,0)"></path>
<path d="M 774.223 610.403 C 795.004 605.723 902.647 618.481 907.662 641.558 C 906.027 662.76 825.691 670.198 806.883 671.163 C 799.018 671.85 781.031 675.093 775.639 669.622 C 774.524 665.881 774.52 667.361 775.276 663.821 C 783.504 659.993 806.925 661.617 810.772 648.869 C 805.568 628.479 748.929 639.304 746.039 626.18 C 750.381 615.358 775.551 614.972 785.544 618.144 C 790.162 619.61 802.092 626.536 805.336 623.46 C 799.531 612.428 780.974 615.966 774.223 610.403 z" fill="rgb(251,199,115)" transform="translate(0,0)"></path>
<path d="M 1178.21 432.528 C 1231.22 430.518 1312.17 436.582 1359.23 464.23 C 1365.43 467.871 1369.61 479.431 1362.97 484.279 C 1324.57 512.293 1253.95 517.359 1208.25 518.995 C 1164.7 519.929 1054.19 514.879 1025.18 488.017 C 978.036 444.364 1164.27 432.886 1178.21 432.528 z" fill="rgb(251,199,115)" transform="translate(0,0)"></path>
<path d="M 1167.34 437.5 C 1205.86 434.743 1290.17 439.286 1322.24 462.594 C 1325.85 465.186 1331.04 471.385 1331.12 476.075 C 1331.42 493.284 1299.08 501.054 1286.68 504.048 C 1263.33 509.683 1238.95 511.178 1215.25 512.658 C 1170.7 514.797 1097.17 513.282 1058.72 487.204 C 1051.22 482.122 1049.68 469.279 1056.79 463.726 C 1083.34 443.005 1134.68 439.108 1167.34 437.5 z" fill="rgb(30,44,71)" transform="translate(0,0)"></path>
<path d="M 1191.59 443.881 C 1220.03 443.871 1295.7 450.27 1315.96 466.334 C 1354.04 496.526 1229.55 504.724 1217.5 505.49 C 1211.92 506.015 1199.86 506.272 1194.41 505.673 L 1193.6 504.281 C 1195.24 489.824 1229.51 502.074 1228.7 482.489 C 1218.99 466.659 1166.44 474.898 1162.12 461.733 C 1166.62 449.485 1195.21 453.505 1205.51 455.511 C 1210.98 456.578 1216.97 460.227 1222.65 460.454 L 1223.65 459.456 C 1219.48 449.851 1200.96 452.408 1193.01 448.14 C 1192.29 447.756 1191.86 444.967 1191.59 443.881 z" fill="rgb(251,199,115)" transform="translate(0,0)"></path>
<path d="M 1174.95 444.5 C 1178.68 444.049 1182.2 442.997 1184.73 446.064 C 1182.26 453.888 1154.34 447.545 1156.55 464.065 C 1167.15 480.007 1217.28 472.381 1222.83 483.692 C 1218.8 497.764 1175.24 493.909 1164.65 488.631 C 1160.67 486.645 1155.68 482.252 1152.83 482.187 L 1151.62 483.37 L 1151.91 485.878 C 1157.1 493.636 1175.93 495.898 1185.5 498.234 L 1186.26 499.962 C 1186.1 502.779 1186.19 503.488 1184.75 505.876 C 1157.79 506.143 1081.86 499.321 1064.97 483.545 C 1032.04 452.79 1163.83 445.12 1174.95 444.5 z" fill="rgb(251,199,115)" transform="translate(0,0)"></path>
<path d="M 336.475 778.588 C 394.409 773.703 486.638 779.404 539.512 807.57 C 550.952 813.665 549.482 828.709 537.717 835.071 C 500.258 855.329 452.729 858.669 411.006 861.824 C 349.189 864.019 266.689 863.975 210.619 833.452 C 203.18 829.402 198.618 816.379 205.694 810.849 C 236.934 786.432 298.245 780.992 336.475 778.588 z" fill="rgb(251,199,115)" transform="translate(0,0)"></path>
<path d="M 355.218 782.429 C 393.383 780.277 475.964 783.841 507.708 807.798 C 511.228 810.455 513.778 814.931 514.059 819.346 C 514.327 823.566 512.685 828.729 509.608 831.619 C 487.434 852.439 426.031 855.73 397.039 856.986 C 350.751 858.552 281.609 857.165 240.831 832.228 C 229.862 825.521 235.361 810.502 245.586 804.92 C 278.116 787.162 318.816 784.184 355.218 782.429 z" fill="rgb(30,44,71)" transform="translate(0,0)"></path>
<path d="M 351.25 789.412 C 359.207 788.905 363.279 788.572 371.133 789.491 L 371.42 790.396 C 362.369 796.125 322.603 800.86 354.493 815.519 C 366.351 820.97 399.826 818.472 404.964 828.235 C 400.088 843.647 352.707 840.649 346.66 827.405 C 345.711 825.326 342.953 824.26 340.564 824.199 L 339.34 825.684 C 338.67 839.104 361.628 841.381 370.505 843.497 C 372.977 846.312 372.22 846.005 372.648 850.509 C 353.963 853.826 244.237 842.295 241.388 820.808 C 246.354 796.178 329.286 790.721 351.25 789.412 z" fill="rgb(251,199,115)" transform="translate(0,0)"></path>
<path d="M 378.237 789.35 C 401.69 785.834 483.859 796.874 499.894 810.018 C 537.99 841.246 416.412 849.105 406.326 849.823 C 398.894 849.899 385.308 852.649 380.507 848.554 C 379.749 845.495 379.538 846.511 380.584 843.991 C 390.13 842.945 413.808 838.503 412.288 826.011 C 401.213 809.458 357.634 821.141 350.815 807.092 C 350.186 794.246 385.537 796.622 393.995 798.897 C 399.063 800.26 401.386 806.627 408.796 806.879 L 409.96 805.562 L 409.126 802.372 C 404.001 795.708 391.797 794.439 383.937 792.952 C 379.483 792.109 380.486 792.689 378.237 789.35 z" fill="rgb(251,199,115)" transform="translate(0,0)"></path>
<path d="M 1569.44 234.439 C 1616.41 232.394 1685.88 236.584 1728.16 259.811 C 1734.01 263.02 1735.88 273.11 1730.04 277.312 C 1699.75 299.099 1639.33 304.639 1603.18 305.088 C 1589.47 305.349 1413.77 303.146 1439.03 262.09 C 1449.71 244.734 1540.55 235.969 1569.44 234.439 z" fill="rgb(98,193,187)" transform="translate(0,0)"></path>
<path d="M 1575.4 237.459 C 1610.66 235.85 1670.2 240.224 1701.27 258.431 C 1707.51 262.089 1711.97 272.698 1705.2 278.001 C 1679.52 298.125 1630.06 301.664 1598.52 302.026 C 1565.75 302.288 1488.9 300.109 1468.05 280.332 C 1430.81 245.006 1562.35 237.9 1575.4 237.459 z" fill="rgb(30,44,71)" transform="translate(0,0)"></path>
<path d="M 1565.78 243.439 C 1572.04 243.001 1574.93 242.626 1581.18 243.839 L 1582.18 245.493 C 1576.41 250.025 1564.84 251.174 1558.52 257.471 C 1554.87 275.972 1607.97 265.642 1615.59 277.74 C 1615.48 278.002 1615.38 278.27 1615.25 278.524 C 1614.09 280.797 1609.51 282.465 1607.28 283.296 C 1580.49 293.251 1563.82 276.473 1557.3 278.09 L 1556.77 279.545 C 1563.46 292.216 1579.29 286.028 1582.11 294.004 L 1580.97 295.648 L 1578.25 296.018 C 1558.8 296.036 1475.77 291.516 1469.33 271.112 C 1463.03 251.14 1550.59 244.249 1565.78 243.439 z" fill="rgb(98,193,187)" transform="translate(0,0)"></path>
<path d="M 1588.66 243.037 C 1613.98 241.905 1680.35 248.616 1697.05 262.892 C 1724.07 285.977 1624.5 294.749 1615.75 295.363 C 1611.11 295.768 1595.88 296.42 1591.54 295.721 L 1590.5 293.703 C 1595.68 286.546 1614.17 292.459 1621.74 279.023 C 1622.61 265.168 1577.64 265.534 1566.91 263.557 C 1564.24 261.372 1564.87 262.478 1564.17 259.473 C 1568.05 252.754 1590.85 252.285 1597.98 253.858 C 1603.29 255.029 1610.5 261.139 1614.62 257.837 L 1614.03 256.009 C 1607.73 249.192 1598.47 251.813 1590.55 248.19 C 1589.92 247.898 1588.98 244.092 1588.66 243.037 z" fill="rgb(98,193,187)" transform="translate(0,0)"></path>
<path d="M 629.977 760.537 C 687.067 779.22 815.751 779.91 874.455 768.41 L 874.629 834.582 C 807.897 846.466 694.163 847.6 629.906 823.965 L 629.977 760.537 z" fill="rgb(98,193,187)" transform="translate(0,0)"></path>
<path d="M 1436.93 441.961 C 1438.34 443.101 1439.79 444.181 1441.28 445.198 C 1476.11 468.659 1576.96 471.818 1619.01 469.57 C 1640.47 468.381 1661.82 465.76 1682.93 461.727 C 1683.01 471.047 1684.3 518.64 1682.4 524.241 C 1629.51 538.013 1477.07 539.821 1436.42 503.728 C 1436.2 483.138 1436.37 462.545 1436.93 441.961 z" fill="rgb(98,193,187)" transform="translate(0,0)"></path>
<path d="M 1436.89 680.878 C 1491.84 713.432 1622.14 715.709 1682.58 700.302 L 1682.64 762.98 C 1655.25 769.59 1618.38 772.489 1586.97 772.187 C 1541.02 770.607 1480.59 771.285 1441.27 745.162 C 1433.83 740.219 1436.8 692.033 1436.89 680.878 z" fill="rgb(98,193,187)" transform="translate(0,0)"></path>
<path d="M 1436.78 283.345 C 1477.99 312.069 1576.66 313.136 1626.41 309.946 C 1644.58 308.781 1665.31 305.573 1683.26 302.379 L 1683.1 365.222 C 1629.28 377.208 1477.75 382.941 1436.72 343.93 L 1436.78 283.345 z" fill="rgb(98,193,187)" transform="translate(0,0)"></path>
<path d="M 1436.87 522.774 L 1437.29 523.041 C 1489.69 556.87 1622.48 554.58 1683.04 541.632 L 1682.93 604.235 C 1627.46 616.604 1479.09 622.506 1436.88 583.437 L 1436.87 522.774 z" fill="rgb(98,193,187)" transform="translate(0,0)"></path>
<path d="M 630.117 852.525 C 697.02 872.413 805.977 873.676 874.286 860.39 L 874.614 924.456 C 864.234 926.753 852.92 927.663 842.337 928.814 C 776.247 936.006 694.085 934.548 630.172 914.685 L 630.117 852.525 z" fill="rgb(98,193,187)" transform="translate(0,0)"></path>
<path d="M 1054.04 509.816 C 1132.6 528.647 1214.18 531.204 1293.76 517.328 L 1293.88 581.908 C 1223.8 597.08 1123.14 592.758 1054.17 572.988 L 1054.04 509.816 z" fill="rgb(98,193,187)" transform="translate(0,0)"></path>
<path d="M 1436.61 839.575 L 1437.36 840.054 C 1490.72 873.828 1621.49 872.683 1682.1 859.32 L 1682.52 920.343 C 1627.95 932.131 1567.75 933.185 1512.53 925.531 C 1488.83 922.245 1452.08 916.888 1436.71 896.56 L 1436.61 839.575 z" fill="rgb(98,193,187)" transform="translate(0,0)"></path>
<path d="M 1054.16 767.122 C 1117.7 786.097 1229.09 788.621 1293.79 774.425 C 1293.84 782.55 1294.98 834.201 1292.74 837.803 C 1223.57 853.002 1121.56 850.99 1054.19 828.452 L 1054.16 767.122 z" fill="rgb(98,193,187)" transform="translate(0,0)"></path>
<path d="M 1436.86 602.918 C 1493.06 637.416 1619.32 634.909 1682.88 621.522 L 1682.88 682.598 C 1628.36 695.34 1478.58 700.964 1436.85 661.426 L 1436.86 602.918 z" fill="rgb(98,193,187)" transform="translate(0,0)"></path>
<path d="M 1436.96 760.474 C 1482.86 796.017 1627.83 792.536 1682.78 780.756 L 1682.78 841.403 C 1642.86 850.649 1589.47 852.334 1548.71 849.754 C 1518.99 847.873 1456.4 841.394 1436.77 819.287 L 1436.96 760.474 z" fill="rgb(98,193,187)" transform="translate(0,0)"></path>
<path d="M 1436.96 363.585 C 1437.93 364.303 1438.93 365.001 1439.94 365.678 C 1449.26 371.914 1465.52 377.136 1476.33 379.916 C 1537.86 395.753 1620.84 395.499 1682.99 383.411 L 1683.06 444.217 C 1627.77 456.08 1479.03 461.253 1436.79 423.387 C 1436.56 403.623 1436.87 383.384 1436.96 363.585 z" fill="rgb(98,193,187)" transform="translate(0,0)"></path>
<path d="M 1054.12 856.258 C 1124.75 876.973 1221.74 877.084 1293.74 863.239 L 1293.61 924.862 C 1240.12 938.417 1103.14 937.788 1054.02 916.23 L 1054.12 856.258 z" fill="rgb(98,193,187)" transform="translate(0,0)"></path>
<path d="M 629.985 676.437 C 704.977 696.808 798.319 696.877 874.736 685.413 L 874.717 744.812 C 810.212 757.981 692.4 755.926 629.985 734.309 L 629.985 676.437 z" fill="rgb(98,193,187)" transform="translate(0,0)"></path>
<path d="M 241.49 854.578 C 304.288 871.194 407.662 874.987 470.891 862.681 C 470.739 883.647 472.514 905.663 470.6 926.471 C 453.526 930.118 435.475 931.095 418.077 932.009 C 359.412 935.09 298.187 932.994 241.31 917.227 L 241.49 854.578 z" fill="rgb(251,199,115)" transform="translate(0,0)"></path>
<path d="M 1054.09 600.319 C 1118.7 620.293 1227.73 620.541 1293.82 607.708 L 1293.93 667.638 C 1228.32 680.618 1117.43 680.827 1054.09 658.469 L 1054.09 600.319 z" fill="rgb(98,193,187)" transform="translate(0,0)"></path>
<path d="M 1054.72 686.348 C 1133.2 704.889 1214.65 707.157 1294.04 693.011 L 1294.19 750.655 C 1281.52 753.708 1257.64 756.337 1244.42 757.248 C 1181.44 761.591 1114.64 760.244 1054.07 741.144 C 1053.99 731.262 1053.26 693.532 1054.72 686.348 z" fill="rgb(98,193,187)" transform="translate(0,0)"></path>
<path d="M 592.995 812.801 C 645.6 857.43 822.513 856.383 888.752 838.893 C 902.707 835.847 916.061 832.039 929.397 826.869 C 933.842 825.145 944.676 817.838 947.732 818.152 C 948.859 820.648 947.85 822.933 947.144 825.76 C 946.294 826.886 945.346 827.933 944.31 828.891 C 924.498 847.486 866.492 854.25 839.212 858.141 C 801.098 863.578 591.383 867.353 592.995 812.801 z" fill="rgb(251,199,115)" transform="translate(0,0)"></path>
<path d="M 1017.79 562.969 C 1024.07 566.6 1036.95 574.343 1043.27 576.552 C 1119.04 603.044 1237.67 604.213 1314.24 584.621 C 1326.81 581.442 1339.07 577.146 1350.87 571.783 C 1356.24 569.345 1361.52 563.899 1365.64 564.238 C 1366.46 567.023 1365.24 569.39 1364.23 572.117 C 1344.71 590.434 1306.9 598.906 1280.41 602.831 C 1212.4 612.908 1136.89 612.41 1069.66 597.131 C 1056.45 594.131 1039.03 589.334 1028 581.36 C 1019.87 575.482 1019.08 572.041 1017.79 562.969 z" fill="rgb(251,199,115)" transform="translate(0,0)"></path>
<path d="M 1365.07 649.095 C 1368.21 653.366 1361.76 660.38 1358.69 662.773 C 1304.12 705.418 1062.68 706.254 1021.53 661.415 C 1020.2 657.67 1019.52 652.769 1018.82 648.777 C 1087.85 695.255 1295.49 696.026 1365.07 649.095 z" fill="rgb(251,199,115)" transform="translate(0,0)"></path>
<path d="M 1018.08 817.57 C 1083.24 864.472 1233.34 859.88 1309.07 841.55 C 1321.53 838.535 1333.96 834.662 1345.63 829.337 C 1351.03 826.874 1359.51 819.395 1364.99 819.09 C 1366.08 821.636 1365.44 821.84 1364.64 824.988 C 1343.92 850.441 1288.51 858.041 1256.92 861.785 C 1207.17 867.681 1067.42 868.045 1028.07 836.343 C 1021.11 830.737 1019.03 826.338 1018.08 817.57 z" fill="rgb(251,199,115)" transform="translate(0,0)"></path>
<path d="M 592.84 723.669 C 653.131 773.158 857.937 767.094 929.362 736.809 C 934.802 734.502 940.122 728.978 946.708 727.215 L 947.967 728.239 L 947.915 733.347 C 931.288 757.234 849.648 766.096 820.132 767.722 C 755.959 770.966 689.027 769.337 626.689 752.382 C 610.018 747.848 593.924 742.964 592.84 723.669 z" fill="rgb(251,199,115)" transform="translate(0,0)"></path>
<path d="M 1017.98 730.671 C 1021.13 732.457 1024.02 735.077 1027.12 737.037 C 1085.94 774.233 1241.37 771.06 1308.15 755.053 C 1321.79 751.786 1336.15 747.489 1348.83 741.436 C 1354.25 738.851 1359.46 733.164 1365.17 731.855 C 1366.8 733.991 1366.05 734.445 1365.59 737.912 C 1321.13 789.58 1088.97 784.668 1028.42 749.021 C 1020.43 744.321 1017.65 739.748 1017.98 730.671 z" fill="rgb(251,199,115)" transform="translate(0,0)"></path>
<path d="M 910.721 761.155 L 912.402 761.089 C 913.546 762.918 913.531 817.436 913.595 825.094 C 904.086 827.876 893.961 830.31 884.328 832.781 L 882.314 832.604 C 880.231 828.937 881.057 775.724 881.055 767.579 C 891.865 765.817 900.169 763.801 910.721 761.155 z" fill="rgb(98,193,187)" transform="translate(0,0)"></path>
<path d="M 1331.82 508.234 C 1333.62 512.781 1332.45 563.918 1332.37 572.103 C 1321.73 575.402 1313.01 577.631 1302.22 580.201 L 1301.57 579.694 C 1299.82 576.696 1300.53 523.302 1300.53 515.741 C 1311.64 513.523 1320.91 511.148 1331.82 508.234 z" fill="rgb(98,193,187)" transform="translate(0,0)"></path>
<path d="M 508.919 854.267 C 511.413 857.73 509.778 909.544 509.735 917.594 C 499.668 920.825 489.511 923.167 479.184 925.358 C 475.714 919.886 477.763 871.155 477.808 861.409 C 488.291 859.34 498.591 857.012 508.919 854.267 z" fill="rgb(251,199,115)" transform="translate(0,0)"></path>
<path d="M 910.962 852.17 L 912.439 852.308 C 914.4 855.811 913.082 906.894 913.063 914.322 C 903.034 917.558 892.803 920.14 882.619 922.836 L 881.765 922.629 C 879.931 920.181 880.856 866.601 880.866 859.551 C 890.971 857.404 900.96 854.745 910.962 852.17 z" fill="rgb(98,193,187)" transform="translate(0,0)"></path>
<path d="M 1331.78 765.236 C 1333.52 767.452 1332.6 820.183 1332.56 827.106 C 1320.88 830.694 1314.08 832.901 1302.04 835.663 C 1299.82 832.204 1300.69 781.399 1300.69 773.498 C 1311.34 771.009 1321.28 768.21 1331.78 765.236 z" fill="rgb(98,193,187)" transform="translate(0,0)"></path>
<path d="M 1330.06 854.06 L 1331.5 854.179 C 1334.08 859.108 1332.68 905.162 1332.69 914.061 C 1323.16 918 1313.21 920.68 1303.21 923.121 L 1301.59 923.422 C 1299.7 920.42 1300.6 869.01 1300.58 861.825 C 1310.59 859.766 1320.31 857.065 1330.06 854.06 z" fill="rgb(98,193,187)" transform="translate(0,0)"></path>
<path d="M 1331 598.142 C 1333.44 601.015 1332.61 649.601 1332.63 657.215 C 1322.74 660.889 1313.04 663.271 1302.86 665.825 L 1301.55 665.65 C 1299.74 662.775 1300.64 613.657 1300.66 606.395 C 1310.86 603.963 1320.98 601.21 1331 598.142 z" fill="rgb(98,193,187)" transform="translate(0,0)"></path>
<path d="M 911.321 677.221 C 912.329 677.382 912.009 677.449 913.021 678.423 C 913.185 697.322 913.236 716.222 913.173 735.122 C 902.917 738.417 893.616 740.755 883.2 743.36 C 882.189 743.04 882.231 742.826 881.344 741.991 C 880.121 726.853 880.993 700.068 881.021 684.079 C 891.067 682.026 901.309 679.533 911.321 677.221 z" fill="rgb(98,193,187)" transform="translate(0,0)"></path>
<path d="M 545.744 837.893 L 546.278 838.361 C 547.96 842.748 548.038 891.427 546.159 895.887 C 542.362 904.898 526.629 911.248 518.246 915.057 C 518.186 915.007 518.115 914.968 518.067 914.906 C 515.219 911.29 516.829 860.011 516.883 851.827 C 527.183 848.084 536.599 843.981 545.744 837.893 z" fill="rgb(251,199,115)" transform="translate(0,0)"></path>
<path d="M 1330.23 684.081 L 1331.41 684.185 C 1333.52 687.215 1332.61 732.75 1332.6 740.024 C 1321.97 743.787 1314.11 746.028 1303.31 748.759 L 1301.78 748.664 C 1299.86 745.614 1300.62 698.953 1300.62 691.712 C 1310.95 689.812 1320.21 687.043 1330.23 684.081 z" fill="rgb(98,193,187)" transform="translate(0,0)"></path>
<path d="M 947.166 745.152 C 949.039 747.878 948.068 798.086 948.033 805.273 C 940.147 814.24 931.92 817.639 921.248 822.25 C 917.944 818.025 919.577 767.093 919.581 758.047 C 931.082 754.142 936.939 751.65 947.166 745.152 z" fill="rgb(98,193,187)" transform="translate(0,0)"></path>
<path d="M 947.025 836.128 C 949.57 839.937 947.991 884.8 947.946 892.778 C 940.733 902.882 931.23 906.684 920.217 911.496 C 917.607 903.222 919.515 861.59 919.617 849.642 C 929.279 846.013 938.346 841.736 947.025 836.128 z" fill="rgb(98,193,187)" transform="translate(0,0)"></path>
<path d="M 947.385 659.838 C 949.417 663.609 948.848 707.102 946.899 713.632 C 944.062 723.136 928.043 729.351 919.651 733.085 L 919.494 674.413 C 930.704 669.824 937.897 667.191 947.385 659.838 z" fill="rgb(98,193,187)" transform="translate(0,0)"></path>
<path d="M 1364.89 490.934 C 1366.14 501.199 1365.5 540.358 1365.54 552.685 C 1357.15 560.89 1350.98 563.638 1340.45 568.986 C 1338.21 565.748 1339.47 513.081 1339.53 505.154 C 1350.84 500.722 1355.31 498.344 1364.89 490.934 z" fill="rgb(98,193,187)" transform="translate(0,0)"></path>
<path d="M 1363.92 748.987 C 1366.01 751.491 1365.07 800.412 1365.05 807.607 C 1356.89 816.155 1350.96 819.223 1340.42 824.237 C 1338.28 821.151 1339.22 770.289 1339.25 762.837 C 1349.36 758.564 1355.21 755.649 1363.92 748.987 z" fill="rgb(98,193,187)" transform="translate(0,0)"></path>
<path d="M 1364.51 834.794 C 1367.06 841.638 1365.2 883.009 1365.12 893.158 C 1357.76 901.721 1349.68 906.602 1339.57 911.248 L 1339.32 850.892 C 1348.5 846.365 1356.67 841.391 1364.51 834.794 z" fill="rgb(98,193,187)" transform="translate(0,0)"></path>
<path d="M 1364.93 581.043 C 1366.09 590.932 1365.08 627.032 1365.01 638.578 C 1357.13 647.133 1349.91 650.285 1339.59 655.002 C 1338.5 638.145 1339.27 612.604 1339.28 595.195 C 1349.11 590.771 1356.16 587.26 1364.93 581.043 z" fill="rgb(98,193,187)" transform="translate(0,0)"></path>
<path d="M 1711.73 454.18 C 1713 457.151 1712.38 508.488 1712.36 516.171 C 1704.9 518.468 1696.79 520.55 1689.22 522.637 C 1688.17 517.475 1688.74 468.606 1688.77 460.523 C 1696.61 458.637 1703.99 456.458 1711.73 454.18 z" fill="rgb(98,193,187)" transform="translate(0,0)"></path>
<path d="M 1710.48 693.163 L 1710.95 693.267 C 1712.64 695.176 1711.9 748.116 1711.89 754.535 C 1705 757.249 1697.37 759.258 1690.22 761.292 L 1688.78 760.285 C 1687.42 749.235 1688.47 712.07 1688.53 699.126 C 1696.08 697.382 1703.04 695.34 1710.48 693.163 z" fill="rgb(98,193,187)" transform="translate(0,0)"></path>
<path d="M 1711.79 295.099 C 1713.79 303.475 1712.49 345.554 1712.52 356.425 C 1705.73 359.354 1697.17 361.627 1689.96 363.742 C 1687.92 360.924 1688.79 309.234 1688.81 301.69 C 1697.43 299.957 1703.49 297.951 1711.79 295.099 z" fill="rgb(98,193,187)" transform="translate(0,0)"></path>
<path d="M 1711.86 375.166 C 1713.63 380.982 1712.64 426.517 1712.64 435.402 C 1705.56 438.271 1697.62 440.354 1690.22 442.46 C 1687.23 439.611 1688.62 389.958 1688.66 382.331 C 1696.43 380.06 1704.17 377.671 1711.86 375.166 z" fill="rgb(98,193,187)" transform="translate(0,0)"></path>
<path d="M 1709.68 535.109 L 1711.09 535.028 C 1712.76 537.334 1712.14 588.576 1712.15 595.123 C 1705.01 597.763 1698.51 599.774 1691.22 601.972 L 1689.67 601.687 C 1688.03 598.179 1688.49 548.311 1688.46 540.595 C 1695.56 538.867 1702.63 537.038 1709.68 535.109 z" fill="rgb(98,193,187)" transform="translate(0,0)"></path>
<path d="M 1711 773.238 C 1712.68 774.974 1712.13 825.385 1712.16 833.198 C 1703.23 836.329 1698.7 837.857 1689.3 840.203 C 1687.16 836.567 1688.43 787.498 1688.51 779.713 C 1696.18 777.952 1703.5 775.578 1711 773.238 z" fill="rgb(98,193,187)" transform="translate(0,0)"></path>
<path d="M 1711.01 614.179 C 1712.99 616.192 1712.01 666.693 1711.99 673.683 C 1703.9 676.788 1697.67 678.698 1689.31 681.081 C 1687.37 678.078 1688.33 627.968 1688.37 620.626 C 1696.43 618.603 1703.1 616.717 1711.01 614.179 z" fill="rgb(98,193,187)" transform="translate(0,0)"></path>
<path d="M 1710.81 852.253 C 1713.46 856.166 1711.8 903.957 1711.76 912.117 C 1704.38 914.593 1696.83 916.546 1689.32 918.596 C 1686.4 914.52 1688.25 866.422 1688.32 858.103 C 1695.9 856.405 1703.34 854.376 1710.81 852.253 z" fill="rgb(98,193,187)" transform="translate(0,0)"></path>
<path d="M 1363.99 667.027 C 1365.96 669.379 1365.02 713.687 1364.99 720.287 C 1357.28 729.069 1351.1 731.904 1340.89 736.637 C 1338.92 733.399 1339.82 688.167 1339.85 680.916 C 1349.07 676.704 1355.93 673.148 1363.99 667.027 z" fill="rgb(98,193,187)" transform="translate(0,0)"></path>
<path d="M 1436.82 351.994 C 1450.41 363.951 1476.39 370.712 1493.99 373.546 C 1564.46 384.892 1640.99 385.253 1709.91 365.207 C 1717.2 363.087 1724.52 358.049 1731.5 354.802 L 1731.72 356.857 C 1691.54 394.155 1531.75 389.845 1478.96 373.787 C 1468.66 370.651 1439.73 364.054 1436.82 351.994 z" fill="rgb(98,193,187)" transform="translate(0,0)"></path>
<path d="M 1731.89 513.088 C 1731.51 523.039 1698.54 531.869 1690.3 533.618 C 1624.57 547.568 1496.69 552.626 1439.25 516.9 L 1437.99 514.848 C 1439.05 514.608 1452.46 521.073 1455.41 522.192 C 1514.13 544.45 1682.91 550.225 1731.89 513.088 z" fill="rgb(98,193,187)" transform="translate(0,0)"></path>
<path d="M 1437.52 433.876 C 1440.62 434.465 1444.74 437.25 1448.08 438.43 C 1531.55 467.943 1637.76 467.423 1721.68 440.017 C 1724.46 439.11 1727.98 435.884 1731.33 434.494 L 1732 435.858 C 1730.67 437.015 1729.29 438.107 1727.85 439.13 C 1719.01 445.534 1704.32 450.244 1693.61 452.762 C 1634.14 466.758 1568 466.817 1507.76 458.078 C 1490.69 455.603 1446.96 446.79 1437.52 433.876 z" fill="rgb(98,193,187)" transform="translate(0,0)"></path>
<path d="M 1732.29 592.275 C 1731.8 605.188 1677.64 616.351 1665.43 618.256 C 1607.54 627.284 1487.43 630.493 1438.58 595.914 L 1437.54 593.681 C 1438.98 593.532 1449.2 599.832 1452.49 601.079 C 1518.59 626.176 1673.78 630.938 1732.29 592.275 z" fill="rgb(98,193,187)" transform="translate(0,0)"></path>
<path d="M 1436.29 670.817 C 1438.58 671.456 1440.79 673.078 1442.91 674.172 C 1502.71 705.004 1616.5 703.897 1681.74 689.613 C 1691.69 687.434 1702.33 685.313 1711.84 681.683 C 1718.15 679.275 1724.09 675.596 1730.48 673.541 L 1730.95 674.889 C 1730.05 675.677 1729.11 676.418 1728.14 677.111 C 1719.65 683.17 1704.34 688.261 1694.09 690.778 C 1634.08 705.52 1564.55 706.241 1503.69 696.37 C 1486.02 693.505 1446.2 684.979 1436.29 670.817 z" fill="rgb(98,193,187)" transform="translate(0,0)"></path>
<path d="M 1436.56 750.927 C 1497.46 789.208 1631.37 782.795 1699.84 765.91 C 1710.06 763.388 1720.82 758.105 1730.46 753.655 L 1731.24 754.884 C 1697.3 784.32 1582.64 784.827 1537.52 781.088 C 1516.14 779.316 1446.24 769.45 1436.56 750.927 z" fill="rgb(98,193,187)" transform="translate(0,0)"></path>
<path d="M 1436.66 829.039 C 1495.78 867.432 1631.77 860.99 1699.49 844.652 C 1710.13 842.084 1720.36 837.078 1730.39 832.71 L 1731.53 834.213 C 1684.9 872.237 1506.77 865.858 1451.95 840.968 C 1446.68 838.576 1438.85 834.734 1436.66 829.039 z" fill="rgb(98,193,187)" transform="translate(0,0)"></path>
<path d="M 1732.97 841.094 C 1735.42 852.155 1733.8 884.253 1733.93 897.17 C 1729.58 902.777 1725.07 906.358 1718.93 909.763 C 1715.89 904.887 1717.85 858.771 1717.9 849.681 C 1723.22 847.124 1728.1 844.447 1732.97 841.094 z" fill="rgb(98,193,187)" transform="translate(0,0)"></path>
<path d="M 1732.73 682.326 C 1733.76 686.29 1734.03 732.595 1732.7 739.096 C 1731.6 744.484 1723.65 748.804 1718.92 751.623 C 1716.81 749.141 1717.92 697.746 1717.97 690.3 C 1723.49 687.739 1727.5 685.399 1732.73 682.326 z" fill="rgb(98,193,187)" transform="translate(0,0)"></path>
<path d="M 1732.8 762.132 C 1733.77 766.497 1733.69 811.269 1733.73 818.435 C 1729.46 824.901 1725.89 826.817 1719.4 830.548 C 1716.82 826.313 1717.99 779.211 1718.03 770.818 C 1724.01 768.34 1727.85 766.312 1732.8 762.132 z" fill="rgb(98,193,187)" transform="translate(0,0)"></path>
<path d="M 1731.95 445.145 L 1732.59 445.745 C 1733.96 454.426 1733.48 491.136 1733.48 501.984 C 1728.27 507.25 1725.92 508.842 1719.76 512.667 C 1719.13 512.538 1718.82 512.086 1718.2 511.548 L 1718.15 452.052 C 1723.31 449.979 1727.12 447.806 1731.95 445.145 z" fill="rgb(98,193,187)" transform="translate(0,0)"></path>
<path d="M 1732.07 604.118 L 1732.37 604.368 C 1733.82 607.153 1733.49 652.795 1733.53 659.669 C 1729.38 664.694 1725.19 667.805 1719.62 670.992 L 1718.46 670.572 C 1716.53 662.204 1717.94 622.536 1717.94 611.627 C 1723.14 609.258 1727.14 606.945 1732.07 604.118 z" fill="rgb(98,193,187)" transform="translate(0,0)"></path>
<path d="M 1732.07 525.179 C 1733.96 527.217 1732.98 574.535 1732.94 581.156 C 1728.29 586.474 1725.29 588.465 1719.59 592.222 C 1715.73 587.365 1717.92 541.291 1717.94 532.17 C 1723.61 529.842 1726.76 528.146 1732.07 525.179 z" fill="rgb(98,193,187)" transform="translate(0,0)"></path>
<path d="M 1731.98 366.147 C 1733.92 368.935 1733.07 415.261 1733.06 422.252 C 1728.55 427.678 1725.17 429.775 1719.27 433.13 C 1717.38 429.428 1718.12 380.741 1718.13 373.094 C 1723.02 371.076 1727.34 368.649 1731.98 366.147 z" fill="rgb(98,193,187)" transform="translate(0,0)"></path>
<path d="M 1731.97 284.983 C 1734.25 286.992 1733.25 335.372 1732.66 342.071 C 1732.32 345.91 1723.61 351.044 1720.28 353.169 C 1716.55 348.624 1718.71 301.844 1718.74 292.839 C 1723.89 290.238 1727.18 288.109 1731.97 284.983 z" fill="rgb(98,193,187)" transform="translate(0,0)"></path>
<path d="M 201.923 834.976 L 210.624 841.652 C 210.938 862.263 210.782 882.913 210.849 903.528 C 207.094 901.286 204.61 898.119 201.865 894.805 C 200.44 875.239 201.696 854.655 201.923 834.976 z" fill="rgb(251,199,115)" transform="translate(0,0)"></path>
<path d="M 616.096 756.699 C 618.105 757.412 620.07 758.247 622.044 759.056 C 624.254 762.233 623.082 813.67 623.028 821.359 C 621.434 820.687 616.419 818.748 616.341 817.259 C 615.384 798.978 616.06 774.184 616.096 756.699 z" fill="rgb(98,193,187)" transform="translate(0,0)"></path>
<path d="M 616.304 847.352 C 617.969 847.891 620.776 848.475 622.054 849.649 C 624.813 852.18 623.314 905.107 623.354 912.679 C 620.796 911.676 618.942 910.778 616.868 908.884 C 614.272 900.049 616.265 859.273 616.304 847.352 z" fill="rgb(98,193,187)" transform="translate(0,0)"></path>
<path d="M 228.216 850.239 C 230.631 850.704 232.341 851.064 234.327 852.65 C 236.902 862.737 234.85 902.336 234.781 915.201 C 232.473 914.406 230.611 913.72 228.684 912.146 C 226.173 903.292 228.141 862.145 228.216 850.239 z" fill="rgb(251,199,115)" transform="translate(0,0)"></path>
<path d="M 616.306 671.275 C 618.006 671.847 620.339 672.404 621.72 673.554 C 624.716 676.047 623.181 726.376 623.17 732.183 C 621.333 731.52 619.298 730.634 617.465 729.889 C 614.517 725.748 616.203 680.368 616.306 671.275 z" fill="rgb(98,193,187)" transform="translate(0,0)"></path>
<path d="M 1042.22 505.225 C 1043.61 505.672 1044.55 506.338 1045.79 507.094 C 1048.2 512.548 1046.78 560.981 1046.68 569.97 L 1043.43 568.562 C 1040.87 564.085 1042.16 513.736 1042.22 505.225 z" fill="rgb(98,193,187)" transform="translate(0,0)"></path>
<path d="M 592.902 834.404 C 593.87 834.949 594.645 835.404 595.426 836.209 C 600.443 841.376 597.959 887.587 597.879 897.356 C 597.336 896.919 596.829 896.462 596.334 895.97 C 595.229 894.87 594.139 893.722 593.691 892.188 C 590.747 882.106 592.816 846.853 592.902 834.404 z" fill="rgb(98,193,187)" transform="translate(0,0)"></path>
<path d="M 1042.3 852.165 L 1045.7 853.65 C 1049.69 860.852 1046.97 903.296 1046.79 914.283 C 1045.46 913.873 1044.64 913.617 1043.64 912.622 C 1040.2 909.207 1042.22 860.175 1042.3 852.165 z" fill="rgb(98,193,187)" transform="translate(0,0)"></path>
<path d="M 1042.13 763.071 L 1045.42 764.215 C 1048.41 767.658 1046.77 817.771 1046.69 825.91 L 1044.51 825.019 C 1040.73 820.261 1042.12 772.553 1042.13 763.071 z" fill="rgb(98,193,187)" transform="translate(0,0)"></path>
<path d="M 593.015 744.561 L 596.164 746.749 C 599.289 751.115 598.051 796.931 598.057 806.3 C 596.734 804.84 594.26 800.892 593.043 799.056 L 593.015 744.561 z" fill="rgb(98,193,187)" transform="translate(0,0)"></path>
<path d="M 1019.31 839.319 C 1020.81 839.755 1021.8 840.605 1023 841.556 C 1026.33 850.946 1024.04 888.995 1023.9 901.215 C 1023.47 900.837 1023.04 900.454 1022.63 900.054 C 1016.75 894.32 1019.27 849.506 1019.31 839.319 z" fill="rgb(208,227,211)" transform="translate(0,0)"></path>
<path d="M 1042.5 596.249 L 1045.56 597.445 C 1048.24 601.662 1047.12 647.934 1046.53 655.509 L 1043.31 653.636 C 1040.84 648.778 1042.36 604.665 1042.5 596.249 z" fill="rgb(98,193,187)" transform="translate(0,0)"></path>
<path d="M 593.057 659.615 C 593.844 660.053 594.758 660.524 595.409 661.151 C 600.015 665.589 597.79 709.269 597.708 718.406 C 597.056 717.912 596.479 717.395 595.895 716.818 C 590.145 711.139 592.931 669.437 593.057 659.615 z" fill="rgb(98,193,187)" transform="translate(0,0)"></path>
<path d="M 1042.71 681.917 L 1045.85 683.364 C 1048.41 688.086 1047.04 731.002 1046.72 738.833 L 1043.56 736.939 C 1041.08 731.955 1042.12 689.762 1042.71 681.917 z" fill="rgb(98,193,187)" transform="translate(0,0)"></path>
<path d="M 217.257 845.477 C 218.47 845.983 219.462 846.914 220.481 847.729 C 223.788 858.568 220.931 895.028 221.778 909.676 L 218.495 908.107 C 214.913 901.169 217.166 856 217.257 845.477 z" fill="rgb(251,199,115)" transform="translate(0,0)"></path>
<path d="M 605.158 842.521 L 607.764 844.253 C 611.57 850.911 609.304 896.12 609.267 906.462 L 606.463 904.547 C 602.955 897.774 605.075 852.912 605.158 842.521 z" fill="rgb(98,193,187)" transform="translate(0,0)"></path>
<path d="M 1019.55 752.29 L 1022.57 754.428 C 1025.3 759.698 1024.02 803.311 1023.94 812.114 C 1023.32 811.638 1022.71 811.16 1022.15 810.61 C 1017.43 806.006 1019.52 761.962 1019.55 752.29 z" fill="rgb(208,227,211)" transform="translate(0,0)"></path>
<path d="M 1019.96 492.636 L 1022.49 494.927 C 1025.16 500.299 1023.83 549.133 1023.76 558.237 C 1023.39 557.889 1023.01 557.542 1022.66 557.169 C 1016.96 551.092 1019.87 503.098 1019.96 492.636 z" fill="rgb(208,227,211)" transform="translate(0,0)"></path>
<path d="M 604.98 752.433 L 607.864 754.251 C 610.154 759.091 609.087 806.271 609.045 814.783 L 606.374 813.335 C 603.807 808.767 604.944 760.934 604.98 752.433 z" fill="rgb(98,193,187)" transform="translate(0,0)"></path>
<path d="M 605.031 667.053 L 607.878 668.344 C 610.314 672.666 609.041 717.746 608.968 725.801 C 607.605 725.335 606.938 724.733 605.792 723.893 C 604.055 718.482 604.957 675.741 605.031 667.053 z" fill="rgb(98,193,187)" transform="translate(0,0)"></path>
<path d="M 1019.75 669.719 L 1022.39 671.624 C 1025.58 676.568 1024.05 717.744 1023.92 726.125 C 1023.53 725.791 1023.13 725.459 1022.76 725.098 C 1017.09 719.567 1019.66 679.344 1019.75 669.719 z" fill="rgb(208,227,211)" transform="translate(0,0)"></path>
<path d="M 1019.9 584.399 L 1022.65 586.34 C 1025.13 591.732 1023.96 634.492 1023.9 643.269 C 1023.48 642.88 1023.08 642.487 1022.68 642.078 C 1017.06 636.212 1019.8 594.351 1019.9 584.399 z" fill="rgb(208,227,211)" transform="translate(0,0)"></path>
<path d="M 1032.03 847.325 L 1033.73 848.266 C 1036.99 853.671 1034.9 899.291 1034.85 908.634 L 1033.21 907.78 C 1029.86 902.507 1031.96 856.515 1032.03 847.325 z" fill="rgb(208,227,211)" transform="translate(0,0)"></path>
<path d="M 1031.74 500.344 C 1032.18 500.584 1032.34 500.633 1032.73 501.042 C 1036.14 504.565 1034.41 556.553 1034.2 564.643 L 1032.37 563.198 C 1030.5 558.245 1031.68 508.841 1031.74 500.344 z" fill="rgb(208,227,211)" transform="translate(0,0)"></path>
<path d="M 1031.96 759.366 L 1033.62 760.409 C 1035.86 764.072 1034.61 812.131 1034.54 819.862 L 1033.38 819.342 C 1030.59 814.92 1031.89 767.752 1031.96 759.366 z" fill="rgb(208,227,211)" transform="translate(0,0)"></path>
<path d="M 1032 591.388 C 1032.52 591.667 1032.82 591.793 1033.29 592.222 C 1036.44 595.153 1034.55 642.599 1034.45 649.613 C 1033.89 649.589 1033.04 649.198 1032.45 648.98 C 1031.1 642.735 1031.9 600.962 1032 591.388 z" fill="rgb(208,227,211)" transform="translate(0,0)"></path>
<path d="M 1032.04 677.594 C 1036.89 680.627 1034.68 725.254 1034.61 733.444 C 1034.12 733.262 1033.92 733.224 1033.48 732.848 C 1030.06 729.909 1031.91 685.695 1032.04 677.594 z" fill="rgb(208,227,211)" transform="translate(0,0)"></path>
<path d="M 340.487 81.1192 C 355.038 80.0893 370.391 81.2143 384.827 82.6966 C 410.305 85.313 408.85 92.0414 404.531 113.724 C 422.56 119.965 432.435 125.349 448.276 135.885 C 453.068 131.82 464.547 121.079 469.674 122.073 C 483.174 124.692 512.391 160.196 512.8 172.392 C 510.814 178.864 499.177 186.078 493.133 190.988 C 501.508 206.214 504.667 218.844 508.165 235.664 L 511.592 235.758 C 515.794 235.885 530.123 236.12 531.654 240.25 C 537.144 255.058 534.262 292.198 524.234 304.85 C 520.702 309.306 505.591 305.607 500.534 304.529 C 493.386 321.427 487.326 331.421 475.92 345.727 C 480.013 349.959 491.506 361.068 490.892 365.729 C 489.073 379.563 451.562 404.9 440.454 406.878 C 434.325 406.265 424.482 392.332 420.072 387.062 C 403.742 394.785 391.889 397.703 374.516 401.227 C 374.68 409.23 375.341 417.813 372.899 425.376 C 363.963 431.56 334.405 428.381 323.682 427.261 C 297.44 424.521 299.915 416.775 303.422 394.775 C 284.682 387.98 275.228 383.605 259.192 371.76 C 255.535 375.216 242.208 387.115 238.36 386.151 C 221.634 381.958 200.041 351.386 197.51 334.855 C 196.812 330.296 211.109 319.551 214.309 316.912 C 207.413 301.999 204.679 293.081 201.579 277.168 C 183.738 273.786 173.123 277.766 174.55 254.354 C 175.391 240.551 175.55 218.545 183.318 206.316 C 186.106 201.928 202.973 204.435 207.935 204.921 C 213.686 189.056 220.392 176.58 231.452 163.858 C 221.073 151.618 210.441 144.056 226.372 130.37 C 237.321 120.963 253.864 105.229 268.779 103.064 C 272.367 102.544 284.218 117.718 286.997 120.91 C 304.367 113.44 315.834 110.457 333.961 106.534 C 333.669 96.0015 331.491 87.9448 340.487 81.1192 z" fill="rgb(30,44,71)" transform="translate(0,0)"></path>
<path d="M 342.236 86.8913 C 353.562 86.7442 391.881 87.347 399.889 94.2017 C 402.3 98.8411 398.559 111.668 397.301 117.428 C 420.146 125.811 429.141 130.474 449.128 144 C 453.864 139.834 465.173 128.344 471.276 129.092 C 482.277 133.625 501.754 160.403 506.429 171.521 C 500.688 177.274 491.36 183.859 484.654 188.889 C 495.783 208.193 499.153 218.724 501.645 240.674 C 509.65 241.911 519.232 242.688 527.333 243.5 C 528.491 254.011 528.157 288.709 519.86 298.133 C 517.347 300.987 500.692 297.94 496.086 297.264 C 489.819 317.028 480.853 330.252 467.583 345.691 C 474.251 352.735 479.162 358.192 485.207 365.75 C 474.822 380.212 456.532 392.995 440.857 401.114 C 435.358 395.937 427.101 385.259 422.047 379.093 C 404.035 388.091 388.345 392.774 368.34 395.416 C 368.355 402.253 368.13 409.387 368.018 416.25 C 367.785 419.113 368.168 418.02 366.543 420.405 C 357.769 424.636 315.295 422.679 308.601 415.657 C 306.661 410.338 309.456 396.529 310.431 390.303 C 288.137 383.041 277.338 378.585 259.861 363.095 C 251.941 368.771 246.207 374.736 237.452 380.18 C 222.08 369.192 210.246 352.659 203.494 335.107 C 210.78 328.738 215.683 324.963 222.062 317.435 C 212.965 298.864 210.459 291.613 207.507 271.212 C 198.045 270.589 190.687 269.115 181.715 266.328 C 179.926 247.386 181.843 228.277 187.357 210.067 C 195.867 210.674 203.688 210.835 212.225 210.968 C 220.873 188.402 225.476 181.962 240 163.13 C 233.846 156.35 228.909 150.909 223.386 143.532 C 236.956 128.404 249.674 117.39 268.232 108.531 C 273.801 115.27 279.329 122.041 284.817 128.846 C 304.312 119.688 319.487 114.917 340.711 112.251 C 340.702 106.126 340.206 91.9924 342.236 86.8913 z" fill="rgb(98,193,187)" transform="translate(0,0)"></path>
<path d="M 342.883 145.463 C 402.747 139.662 456.027 183.37 462.04 243.214 C 468.053 303.057 424.533 356.491 364.712 362.716 C 304.59 368.972 250.828 325.186 244.785 265.043 C 238.742 204.899 282.718 151.293 342.883 145.463 z" fill="rgb(30,44,71)" transform="translate(0,0)"></path>
<path d="M 347.734 151.397 C 404.367 148.211 452.883 191.489 456.16 248.116 C 459.437 304.744 416.237 353.329 359.614 356.697 C 302.864 360.072 254.144 316.753 250.86 259.997 C 247.575 203.241 290.972 154.591 347.734 151.397 z" fill="rgb(248,248,244)" transform="translate(0,0)"></path>
<path d="M 359.182 178.286 C 366.486 181.922 362.699 193.105 361.681 200.407 C 371.96 202.806 384.3 206.865 392.032 214.259 C 397.256 219.255 405.037 232.123 398.591 238.483 C 394.589 237.992 395.517 233.467 394.927 229.811 C 390.131 200.093 315.179 195.899 318.447 229.292 C 321.005 255.431 391.305 246.51 394.186 277.575 C 394.754 283.846 390.777 291.827 386.829 296.536 C 377.791 306.106 364.712 306.979 352.433 307.562 C 351.169 315.244 351.55 323.935 344.222 327.304 C 341.77 322.158 344.874 312.653 346.178 306.84 C 333.077 303.749 311.944 296.67 305.968 282.433 C 304.558 279.076 301.657 272.409 304.134 269.342 C 310.052 270.903 309.61 280.943 316.342 286.83 C 333.061 301.451 365.267 309.899 382.487 291.863 C 399.963 273.56 374.665 262.406 359.725 257.912 C 346.46 253.923 330.834 251.228 319.827 242.491 C 308.004 233.141 309.32 222.273 319.011 211.816 C 328.504 201.689 342.358 200.585 355.232 200.052 C 355.736 192.388 355.647 185.109 359.182 178.286 z" fill="rgb(30,44,71)" transform="translate(0,0)"></path>
<path d="M 1193.93 218.348 C 1199.08 217.647 1201.39 216.448 1204.52 220.846 C 1205.16 231.361 1158.11 307.698 1152.34 321.409 C 1151.49 323.433 1150.07 323.527 1148.2 323.779 C 1141.65 321.764 1136.41 313.019 1132.08 307.227 L 930.259 442.726 C 892.353 468.166 846.913 500.644 808.317 524.172 C 803.217 519.004 793.105 503.688 788.231 497.043 C 772.941 476.194 758.409 454.084 742.468 433.741 L 373.909 657.988 C 351.292 671.704 313.413 696.125 288.923 709.02 C 287.437 709.802 285.391 708.167 284.123 707.275 C 282.747 703.718 282.897 705.256 283.628 701.441 C 285.086 699.234 285.672 698.948 287.861 697.593 L 593.094 512.547 L 688.18 454.415 C 704.918 444.198 727.998 429.033 745.433 421.398 C 751.985 425.999 802.397 498.187 810.657 509.796 C 884.235 462.736 961.047 409.972 1033.76 360.886 L 1096.7 318.383 C 1106.27 311.903 1123.32 299.68 1132.96 294.538 C 1139.25 295.728 1142.94 302.887 1147.04 308.482 L 1182.1 244.808 L 1190.52 229.27 C 1159.86 234.859 1124.26 239.588 1093.19 243.567 C 1098.51 249.444 1109.06 259.652 1110.38 266.861 C 1108.53 271.295 1073.89 292.622 1067.55 296.794 L 997.386 343.405 L 820.55 461.83 C 812.941 453.839 802.481 437.927 795.796 428.212 L 757.512 372.143 C 730.054 390.072 690.94 411.925 662.246 429.154 L 471.402 545.063 C 424.435 574.069 377.289 602.785 329.967 631.209 L 291.972 654.454 C 285.639 658.39 268.411 671.352 261.816 668.729 C 259.794 665.828 260.345 667.158 260.199 663.098 C 261.665 658.378 332.947 616.913 342.307 611.27 L 474.044 531.106 L 635.93 432.805 C 675.61 408.623 719.59 380.955 760.046 358.588 C 766.44 366.257 776.687 381.96 782.487 390.376 C 795.676 409.668 809.098 428.799 822.751 447.765 C 831.166 442.983 842.921 434.452 851.176 428.882 L 904.651 392.855 C 966.926 350.924 1034.32 304.491 1097.78 264.934 C 1092.95 259.595 1078.58 245.417 1078.43 238.644 C 1082.96 232.817 1114.86 229.64 1123.32 228.422 L 1193.93 218.348 z" fill="rgb(30,44,71)" transform="translate(0,0)"></path>
<path d="M 56.3825 957.249 L 1051.74 957.369 L 1454.55 957.651 C 1526.03 957.659 1597.81 956.269 1669.25 957.574 C 1673 957.643 1678.39 958.115 1681.74 959.902 C 1684.22 961.224 1684.38 962.545 1685.02 965.058 C 1684.45 967.986 1682.99 969.159 1680.86 971.024 L 553.995 970.92 L 216.033 971.019 C 167.108 971.025 116.683 972.385 67.974 971.315 C 64.1706 971.231 58.8365 970.771 55.4851 968.846 C 53.1925 967.529 52.8874 966.253 52.2293 963.888 C 52.7007 960.652 54.1089 959.409 56.3825 957.249 z" fill="rgb(30,44,71)" transform="translate(0,0)"></path>
<path d="M 1840.68 957.5 C 1858.1 957.344 1974.47 955.496 1983.56 959.052 C 1984.54 959.436 1985.55 961.245 1985.84 962.232 C 1986.61 964.901 1985.59 966.595 1984.46 968.883 C 1982.64 970.509 1980.74 970.996 1978.38 971.209 C 1967.3 972.205 1954.91 971.037 1943.69 971.089 L 1857.24 971.327 C 1827.98 971.221 1798.73 971.297 1769.47 971.556 C 1753.99 971.658 1738.05 972.56 1722.61 971.635 C 1719.43 971.445 1716.48 971.211 1713.7 969.546 C 1711.99 967.254 1711.85 967.028 1711.83 964.179 C 1712.46 962.725 1713.1 961.465 1714.26 960.362 C 1715.86 958.831 1718.31 957.748 1720.49 957.501 C 1731.89 956.208 1745.37 957.672 1756.99 957.685 L 1840.68 957.5 z" fill="rgb(30,44,71)" transform="translate(0,0)"></path>
<path d="M 1366.14 81.1859 C 1371.27 83.0949 1370.13 84.7592 1371.75 90.5895 C 1377.19 113.036 1390.96 126.736 1413.65 131.095 C 1417.05 131.748 1424.16 132.409 1424.07 136.369 C 1420.46 139.431 1402.6 138.71 1391.31 148.127 C 1376.92 160.129 1372.85 167.363 1369.75 185.734 C 1368.68 186.843 1368.6 186.569 1366.88 187.033 C 1364.96 184.885 1365.03 184.474 1364.58 181.57 C 1361.79 163.72 1351.01 148.648 1334.08 141.864 C 1328.07 139.457 1320.65 138.861 1314.67 135.657 L 1314.53 134.223 C 1320.09 130.218 1332.65 129.748 1341.8 123.43 C 1358.36 112 1362.09 99.3656 1366.14 81.1859 z" fill="rgb(30,44,71)" transform="translate(0,0)"></path>
<path d="M 1367.29 97.6602 C 1367.92 98.1338 1368.17 98.2924 1368.52 99.059 C 1378.49 120.684 1384.2 126.033 1405.57 135.212 C 1385.32 144.553 1377.05 149.285 1367.79 171.387 C 1359.99 151.175 1349.4 142.132 1329.27 134.93 C 1331.17 134.184 1333.04 133.376 1334.89 132.505 C 1351.53 124.797 1360.87 115.19 1367.29 97.6602 z" fill="rgb(248,248,244)" transform="translate(0,0)"></path>
<path d="M 1869.88 358.13 C 1873.08 357.871 1876.95 357.227 1879.86 358.336 C 1881.07 360.367 1881.16 361.168 1881.39 363.521 C 1884.88 365.912 1891.57 363.987 1895.56 365.638 C 1906.02 369.97 1889.17 377.043 1903.91 381.627 C 1904.9 385.471 1905.15 384.358 1904.15 387.891 C 1901.41 389.175 1900.76 389.431 1898.44 391.382 C 1896.63 396.115 1897.27 394.752 1898.57 400.479 C 1893.45 412.78 1883.98 395.961 1880.02 411.229 C 1868.32 411.351 1873.52 411.411 1869.45 405.585 C 1867.92 403.407 1854.91 407.826 1853.76 400.135 C 1855.16 399.11 1856.35 398.182 1857.69 397.087 C 1855 390.945 1848.98 389.973 1848.6 384.417 C 1848.28 379.861 1850.44 383.586 1854.62 379.443 C 1855.87 373.226 1855.06 376.295 1853.64 369.602 C 1858.17 361.684 1862.68 368.524 1868.93 364.558 C 1871.19 361.174 1870.78 362.689 1869.88 358.13 z" fill="rgb(30,44,71)" transform="translate(0,0)"></path>
<path d="M 1872.81 368.09 C 1878.93 366.63 1885.35 368.628 1889.56 373.299 C 1893.77 377.97 1895.09 384.567 1893.01 390.5 C 1890.93 396.433 1885.77 400.753 1879.56 401.764 C 1870.43 403.25 1861.77 397.247 1859.95 388.181 C 1858.13 379.115 1863.82 370.236 1872.81 368.09 z" fill="rgb(248,248,244)" transform="translate(0,0)"></path>
<path d="M 155.986 514.621 C 159.62 517.208 161.582 531.464 165.255 536.081 C 174.711 547.969 187.998 550.441 201.458 552.788 C 186.555 558.275 169.797 558.449 161.746 575.348 C 159.284 580.515 159.59 586.417 156.568 590.818 C 154.946 588.597 151.954 578.447 149.709 574.313 C 139.791 556.042 127.228 559.952 116.781 554.436 L 116.846 553.075 C 121.026 550.08 129.651 551.082 136.809 546.472 C 149.161 538.518 152.593 527.93 155.986 514.621 z" fill="rgb(30,44,71)" transform="translate(0,0)"></path>
<path d="M 156.193 528.596 C 156.894 529.277 156.718 529.015 157.132 529.672 C 164.894 541.994 170.322 547.842 183.759 553.34 C 170.074 558.643 163.499 564.302 156.903 577.085 C 155.54 576.459 151.633 569.883 149.548 567.638 C 142.786 560.356 139.239 558.306 130.655 553.877 C 144.364 547.141 149.9 542.039 156.193 528.596 z" fill="rgb(248,248,244)" transform="translate(0,0)"></path>
<path d="M 234.216 922.409 C 245.141 925.425 272.204 934.459 282.405 933.662 L 283.735 934.457 C 279.584 935.153 263.136 934.895 258.138 934.901 L 201.053 934.791 L 147.485 934.718 C 138.777 934.754 119.586 937.518 114.075 931.164 C 113.572 927.434 113.323 928.896 114.903 925.606 C 119.505 921.393 137.977 922.932 144.837 922.945 L 201.004 923.039 C 210.343 923.065 225.421 923.597 234.216 922.409 z" fill="rgb(30,44,71)" transform="translate(0,0)"></path>
<path d="M 903.016 83.0749 C 904.069 83.0044 905.124 82.9513 906.178 82.9156 C 923.834 82.3376 928.083 95.1046 928.151 110.054 C 933.372 105.422 936.905 98.0058 941.228 96.1006 L 941.987 96.9936 L 940.547 96.286 L 941.93 96.5818 C 942.465 109.376 927.336 113.542 920.309 120.04 L 919.58 120.725 C 912.373 124.182 888.967 125.339 881.015 123.58 L 880.822 122.599 C 885.321 120.342 890.104 120.655 895.146 120.54 C 884.097 104.818 884.247 91.8642 903.016 83.0749 z" fill="rgb(30,44,71)" transform="translate(0,0)"></path>
<path d="M 902.441 88.6635 C 907.739 86.6798 913.696 87.7316 917.994 91.4095 C 922.292 95.0874 924.252 100.81 923.111 106.351 C 921.97 111.892 917.909 116.375 912.507 118.055 C 904.476 120.554 895.914 116.209 893.189 108.252 C 890.464 100.294 894.564 91.6131 902.441 88.6635 z" fill="rgb(248,248,244)" transform="translate(0,0)"></path>
<path d="M 905.578 96.5672 C 909.224 95.3773 913.157 97.2931 914.467 100.897 C 915.778 104.502 913.994 108.496 910.435 109.926 C 908.025 110.893 905.28 110.471 903.273 108.823 C 901.265 107.175 900.316 104.564 900.796 102.012 C 901.277 99.4602 903.11 97.3729 905.578 96.5672 z" fill="rgb(30,44,71)" transform="translate(0,0)"></path>
<path d="M 1920.74 652.65 C 1922.19 653.125 1921.98 653.177 1923.21 654.221 C 1922.7 658.207 1898.07 682.364 1893 687.901 L 1876.88 688.132 C 1874.7 687.422 1875.62 688.023 1874.12 686.133 L 1875.37 684.849 C 1880.53 683.622 1885.34 683.905 1890.62 683.954 L 1920.74 652.65 z" fill="rgb(30,44,71)" transform="translate(0,0)"></path>
<path d="M 1880.57 665.609 L 1882.55 667.652 C 1882.1 672.398 1868.41 684.207 1864.22 688.149 L 1847.91 688.071 C 1845.99 687.5 1846.82 688.014 1845.49 686.275 L 1846.51 684.886 C 1851.31 683.643 1857.95 683.728 1863.03 683.578 L 1880.57 665.609 z" fill="rgb(30,44,71)" transform="translate(0,0)"></path>
<path d="M 736.743 242.218 C 742.147 241.915 758.105 240.216 761.604 243.067 L 761.713 245.917 C 756.658 246.339 742.414 248.231 738.072 246.011 C 736.923 245.424 737.03 243.837 736.743 242.218 z" fill="rgb(30,44,71)" transform="translate(0,0)"></path>
<path d="M 745.197 214.687 L 747.566 215.491 L 747.983 217.389 C 746.293 221.112 736.859 231.59 733.754 235.265 C 731.198 233.255 731.653 234.23 731.237 231.6 C 733.565 227.075 741.421 218.939 745.197 214.687 z" fill="rgb(30,44,71)" transform="translate(0,0)"></path>
<path d="M 709.281 248.142 C 711.6 249.188 710.726 248.399 712.01 250.568 C 709.711 254.817 697.736 258.639 692.599 260.681 C 691.261 260.508 691.311 260.237 690.079 259.317 L 690.742 257.347 C 695.214 254.183 703.972 250.541 709.281 248.142 z" fill="rgb(30,44,71)" transform="translate(0,0)"></path>
<path d="M 716.505 208.459 C 721.171 210.686 724.224 229.216 721.719 233.406 C 716.513 230.324 713.934 213.324 716.505 208.459 z" fill="rgb(30,44,71)" transform="translate(0,0)"></path>
<path d="M 689.794 225.826 C 694.971 225.449 711.126 234.207 712.722 238.955 C 706.579 240.243 691.353 231.98 689.794 225.826 z" fill="rgb(30,44,71)" transform="translate(0,0)"></path>
<path d="M 731.017 253.454 C 737.207 254.415 747.009 265.994 747.846 272.447 C 742.039 271.834 731.507 259.308 731.017 253.454 z" fill="rgb(30,44,71)" transform="translate(0,0)"></path>
<path d="M 719.172 255.238 L 721.958 257.068 C 723.702 261.868 719.217 273.13 717.537 278.238 L 715.311 277.379 C 712.968 272.672 717.43 260.912 719.172 255.238 z" fill="rgb(30,44,71)" transform="translate(0,0)"></path>
<path d="M 1908.68 683.438 C 1913.5 683.319 1923.03 682.773 1926.67 685.549 L 1926.43 687.174 L 1924.16 688.289 C 1919.48 688.344 1908.53 688.787 1905.12 686.037 L 1905.39 684.519 L 1908.68 683.438 z" fill="rgb(30,44,71)" transform="translate(0,0)"></path>
<metadata><recraft-signature>{"signed_by": "recraft", "signature_b64": "OZGZ1Df310hlwCMaL8yY0+xJ4OTtJ4o582hLvcqwfLzMJMJNVlV8nr3Gp2sxRkQaABA+OwHUFp6c/x0deLsHCw==", "signing_algo": "Ed25519", "generation_timestamp": 1777312782, "identifier": "1bb4bbea-e9d0-4a7b-ac42-1bc18ebbfa08"}</recraft-signature></metadata></svg>