<svg xmlns="http://www.w3.org/2000/svg" height="1024" preserveAspectRatio="none" style="display: block;" version="1.1" viewBox="0 0 2048 1024" width="2048">
<path d="M 0 0 L 2048 0 L 2048 1024 L 0 1024 L 0 0 z" fill="rgb(253,253,254)" transform="translate(0,0)"></path>
<path d="M 355.482 50.9908 C 400.161 50.0993 447.872 50.8263 492.735 50.7775 L 797.172 50.918 L 1693.75 50.8447 C 1694.53 81.6155 1694 114.634 1694.07 145.582 C 1702.88 145.243 1710.31 144.834 1717.41 151.141 C 1727.58 159.654 1729.57 176.373 1719.95 186.074 C 1709.81 196.295 1683.83 192.929 1669.48 192.867 L 1598.15 192.839 C 1598.3 205.541 1598.34 218.244 1598.28 230.947 C 1620.69 232.486 1645.05 229.235 1667.43 231.545 C 1680.65 233.567 1690.86 244.014 1690.79 257.844 C 1690.6 292.533 1690.85 326.363 1690.82 361.126 C 1690.81 379.257 1685.45 394.015 1664.09 394.279 C 1644.46 394.522 1624.45 394.299 1604.8 394.289 L 1482.01 394.297 L 1373.26 394.291 C 1355.93 394.253 1338.6 394.585 1321.28 394.056 C 1301.95 393.556 1295.88 380.484 1296.29 362.751 C 1297.11 327.125 1295.23 289.31 1297.21 253.901 C 1298.67 227.733 1327.15 230.798 1345.5 231.04 C 1357.61 231.2 1371.49 231.158 1384.46 231.231 C 1384.39 218.481 1384.53 205.73 1384.87 192.985 L 1259.28 192.994 C 1258.75 213.316 1259.33 235.6 1259.3 256.109 L 1259.28 405.938 L 1258.08 839.611 C 1270.15 840.487 1288.92 839.944 1301.45 839.929 L 1379.93 839.831 L 1634.32 839.873 C 1648.57 795.268 1664.17 752.769 1684.87 710.62 C 1707.5 664.524 1722.61 671.398 1682.28 634.684 C 1666.11 648.05 1647.2 661.17 1630.41 673.96 C 1622.57 679.936 1611.33 686.127 1604.47 692.689 L 1604.64 694.971 C 1605.55 707.704 1607.54 790.893 1602.77 796.395 C 1597.92 797.777 1513.33 798.008 1502.84 795.566 C 1501.77 795.317 1502 794.42 1502.09 794.862 C 1499.51 782.179 1499.18 699.272 1501.7 692.816 C 1507.57 689.522 1526.44 690.741 1534.05 690.839 C 1536.13 689.152 1539.35 686.002 1541.43 684.092 C 1533.06 683.946 1509.57 684.861 1503.09 683.256 C 1499.56 677.475 1499.28 586.094 1502.6 578.728 C 1509.37 576.668 1596.74 576.105 1602.54 578.029 C 1608.21 582.545 1604.75 589.622 1606.75 596.872 L 1608.28 597.47 C 1615.54 594.664 1634.62 575.287 1640.88 569.008 C 1644.02 565.852 1652.5 547.99 1655.88 542.34 C 1656.65 520.017 1653.62 525.365 1635.67 524.115 C 1623.88 523.294 1612.95 512.075 1605.58 503.098 C 1605.08 516.215 1607.5 560.835 1603.7 569.035 C 1597.09 572.535 1510.8 572.278 1501.67 569.74 C 1498.98 562.345 1500.12 477.195 1503.14 467.592 C 1508.06 465.012 1560.03 466.18 1570.75 466.163 C 1568.84 405.208 1638.54 389.298 1664.16 441.402 C 1672.75 458.87 1680.85 467.246 1665.19 487.053 C 1669.99 491.816 1673.65 495.76 1679.32 499.499 C 1696.72 498.224 1711.27 499.082 1727.81 507.109 C 1783.01 533.908 1818.76 589.131 1844.61 642.834 C 1849.76 653.52 1848.72 671.573 1852.03 682.863 C 1856.16 696.912 1864.22 710.617 1869.94 724.137 C 1896.83 782.567 1924.5 840.69 1949.49 899.958 C 1951.88 905.624 1950.15 907.853 1947.58 913.081 C 1948.41 919.754 1953.8 927.331 1956.68 933.443 C 1960.05 940.61 1962.98 950.038 1960.07 957.77 C 1959.29 959.826 1957.58 962.863 1955.39 963.57 C 1949.79 965.376 1831.89 963.87 1828.89 962.163 C 1827.95 961.628 1827.78 961.176 1827.63 960.169 C 1826.65 953.651 1832.88 944.49 1836.51 939.276 C 1846.65 934.765 1861.64 931.565 1872.12 926.288 C 1875.38 924.648 1881.43 922.013 1882.78 918.119 C 1883.34 916.511 1880.91 915.731 1879.44 913.881 C 1866.16 897.179 1853.31 871.813 1842.94 853.209 L 1779.34 738.676 C 1776.6 742.718 1773.47 747.164 1770.56 751.096 C 1750.14 778.728 1736.88 810.137 1720.11 839.673 C 1729.05 839.474 1775.77 838.403 1781.83 839.879 L 1782.58 841.571 L 1780.81 843.761 C 1775.05 846.663 1728.22 845.127 1717.7 845.227 C 1711 858.232 1684.7 915.272 1678.56 922.04 C 1677.57 923.124 1673.97 926.728 1673.68 927.97 C 1673.18 930.085 1673.69 933.713 1673.69 935.965 C 1673.68 948.94 1674.02 958.857 1666.9 970.424 C 1654.57 971.648 1624.03 970.878 1610.06 970.92 C 1595.31 970.965 1560.23 971.932 1547.71 970.145 C 1541.99 966.142 1545.96 958.499 1548.76 953.541 C 1553.56 945.06 1559.28 942.864 1568.25 940.662 C 1587.19 936.436 1597.76 933.834 1613.32 921.747 C 1615.38 899.83 1625.46 866.528 1632.66 845.238 C 1560.67 844.262 1487.21 845 1415.13 844.946 L 984.244 844.917 C 906.234 844.952 822.034 846.546 744.452 844.722 C 744.582 879.948 744.506 915.175 744.222 950.401 C 738.739 950.271 728.973 949.631 723.701 948.343 C 706.477 954.777 668.864 972.961 653.13 974.648 C 639.62 976.097 484.725 932.356 458.206 925.175 L 458.141 844.942 C 451.036 845.142 395.074 845.506 392.496 843.968 L 392.07 842.041 L 393.624 840.303 C 398.757 838.581 449.148 839.518 458.106 839.53 L 458.042 682.952 C 432.881 682.488 407.299 674.403 383.741 665.767 C 378.47 663.835 365.396 656.954 361.387 656.553 C 360.155 657.897 357.276 661.107 355.979 660.79 C 351.727 659.751 338.78 650.279 334.83 647.883 C 305.571 681.344 309.566 685.628 319.55 731.441 C 331.552 786.516 335.902 855.111 343.649 911.895 C 344.322 916.826 341.647 915.501 344.377 923.291 C 355.197 935.075 366.395 934.378 379.316 942.575 C 386.274 946.989 396.23 957.791 390.587 966.289 C 385.398 969.359 369.344 968.433 363.042 967.814 C 344.433 965.987 311.212 971.017 294.12 967.143 C 282.836 957.984 297.847 936.25 295.865 924.993 C 295.831 924.796 292.42 921.09 292.409 921.034 C 290.808 912.717 289.178 904.398 287.468 896.103 C 282.924 875.424 278.947 853.795 272.378 833.745 C 271.232 833.429 270.078 833.137 268.919 832.87 C 267.029 832.445 265.565 831.936 264.038 833.355 C 235.85 859.557 208.522 887.027 177.062 909.478 C 174.227 911.501 173.068 911.471 169.935 910.778 C 164.244 913.12 164.323 917.093 162.89 922.588 C 159.16 936.888 167.427 946.952 171.042 959.853 C 172.954 966.674 168.66 977.613 160.815 978.814 C 153.151 976.651 133.212 962.536 125.468 956.936 C 117.173 950.938 101.365 913.273 98.599 902.186 C 97.2189 896.655 108.829 891.615 113.226 889.876 C 120.055 887.176 129.046 884.417 135.128 880.054 C 138.246 878.353 138.07 873.572 140.333 871.195 C 154.695 856.104 169.3 841.642 182.821 825.747 C 182.347 769.018 183.903 726.167 213.857 674.584 C 217.631 665.127 234.743 652.238 237.717 644.245 C 245.94 622.149 252.357 600.649 262.445 579.134 C 252.282 577.34 248.854 575.331 241.081 567.419 C 235.051 561.281 226.542 548.716 226.422 539.969 C 226.412 539.282 227.083 535.509 227.194 535.503 C 237.328 534.925 247.453 537.39 255.635 529.883 C 268.652 517.94 266.886 497.011 281.697 485.117 C 289.547 478.814 300.829 474.613 310.742 478.179 C 314.242 479.438 317.571 481.459 321.033 481.768 C 321.3 478.802 318.163 474.075 316.565 470.794 C 317.594 460.318 320.667 451.365 327.573 443.231 C 335.735 433.698 347.373 427.829 359.891 426.931 C 372.768 425.98 385.481 430.29 395.124 438.878 C 408.076 450.414 411.173 463.63 412.086 479.924 L 414.602 481.501 C 420.806 485.421 428.504 489.266 430.149 496.545 C 428.02 506.634 409.695 507.347 401.547 506.34 C 393.316 524.597 386.974 535.512 367.864 543.68 C 373.518 561.181 381.359 566.909 389.272 581.015 C 407.119 612.827 424.124 623.516 458.854 634.303 C 457.231 620.77 458.658 589.466 458.512 574.035 C 459.302 545.411 457.042 516.375 459.622 487.835 C 463.96 439.848 498.251 423.428 538.48 410.365 C 538.941 415.481 538.931 421.956 539.067 427.191 C 548.654 430.395 563.71 433.886 573.812 436.497 C 596.506 442.355 619.24 448.059 642.011 453.609 C 670.965 460.683 699.873 467.965 728.856 474.89 C 735.446 476.465 738.475 472.279 743.892 474.425 C 746.927 480.753 743.909 802.625 744.857 839.499 C 767.096 840.372 793.863 839.77 816.41 839.787 L 816.032 193.003 C 769.334 193.472 717.503 194.11 671.041 192.963 L 670.876 232.633 L 671.56 232.584 C 689.517 231.352 708.361 232.681 726.319 232.209 C 745.762 231.699 760.902 239.62 761.396 260.899 C 762.077 290.302 761.305 319.682 761.565 349.091 C 762.778 363.065 761.126 391.147 741.641 392.996 C 712.392 395.772 672.451 394.453 642.71 394.388 L 502.57 394.45 L 425.45 394.559 C 412.362 394.588 398.384 394.904 385.396 394.122 C 370.904 392.117 363.786 380.143 363.757 366.86 C 363.678 335.584 363.928 304.292 363.982 273.015 C 363.993 266.527 363.54 258.095 364.891 251.89 C 370.026 228.306 397.758 232.155 415.959 232.13 C 429.881 232.111 443.869 232.184 457.819 232.192 L 457.857 193.317 C 431.816 193.162 405.773 193.159 379.732 193.305 C 367.26 193.319 351.598 193.99 340.171 192.429 C 322.213 189.975 315.849 164.264 329.314 152.472 C 338.305 144.598 344.44 145.627 354.969 145.463 L 354.926 84.3139 C 354.917 74.7185 354.481 59.8837 355.482 50.9908 z" fill="rgb(6,39,52)" transform="translate(0,0)"></path>
<path d="M 1161.09 192.886 L 1253.89 193.002 C 1255.17 296.114 1253.96 402.455 1253.84 505.752 L 1253.27 733.34 L 1253.05 801.12 C 1253.01 812.041 1253.48 829.643 1252.24 839.827 L 821.817 839.735 C 820.922 764.585 821.696 688.421 821.524 613.192 L 821.444 193.039 L 950.629 193.175 C 950.073 203.947 950.652 220.617 950.785 231.774 C 949.62 231.68 948.453 231.609 947.285 231.562 C 929.767 230.994 911.882 231.825 894.314 231.498 C 874.978 230.568 863.926 241.843 863.972 261.298 C 863.901 292.027 864.597 322.922 863.819 353.646 C 863.212 377.585 867.161 394.507 895.499 394.454 C 967.625 394.318 1039.78 394.271 1111.92 394.296 L 1186.11 394.372 C 1247.95 394.451 1245.42 397.324 1245.38 333.993 C 1245.24 311.176 1245.31 288.358 1245.59 265.543 C 1245.72 231.472 1227.5 230.43 1199.25 231.401 C 1187.05 231.82 1173.41 231.556 1161.14 231.571 C 1161.05 218.676 1161.04 205.781 1161.09 192.886 z" fill="rgb(253,253,254)" transform="translate(0,0)"></path>
<path d="M 957.809 577.423 C 968.863 577.596 1045.16 573.517 1045.05 583.454 C 1044.88 599.309 1048.8 674.628 1043.69 683.808 C 1040.53 686.287 1041.54 685.571 1037.16 686.085 C 1023.29 685.718 948.505 687.427 941.051 684.488 C 940.666 683.18 940.35 681.851 940.106 680.508 C 938.562 672.236 938.065 583.789 940.791 579.846 C 945.108 577.129 952.421 577.598 957.809 577.423 z" fill="rgb(6,39,52)" transform="translate(0,0)"></path>
<path d="M 944.384 582.979 C 976.196 583.61 1008.16 583.15 1040.01 583.22 C 1040.06 593.827 1041.09 675.298 1038.78 679.148 C 1035.5 680.873 1031.45 680.232 1027.68 680.016 L 944.432 680.113 C 945.414 650.403 944.726 613.013 944.384 582.979 z" fill="rgb(253,253,254)" transform="translate(0,0)"></path>
<path d="M 1027.66 589.615 C 1029.02 589.464 1030.1 589.68 1031.47 589.825 C 1034.99 594.828 1033.09 661.115 1033.14 672.842 C 1014.94 674.566 974.67 673.181 954.75 673.074 L 952.397 672.626 C 950.383 668.998 951.484 600.832 951.376 589.882 C 974.354 588.793 1003.69 589.957 1027.66 589.615 z" fill="rgb(6,39,52)" transform="translate(0,0)"></path>
<path d="M 957.083 595.225 C 980.466 595.502 1003.85 595.497 1027.23 595.211 C 1027.47 617.536 1027.54 639.861 1027.44 662.187 C 1027.49 664.701 1027.52 665.068 1026.44 667.327 C 1020.96 668.345 965.93 667.554 957.075 667.486 C 956.822 643.399 956.825 619.311 957.083 595.225 z" fill="rgb(253,253,254)" transform="translate(0,0)"></path>
<path d="M 942.986 692.2 C 962.087 695.234 1033.95 686.886 1044.02 695.869 C 1045.39 698.836 1045.79 701.706 1046 704.945 C 1046.66 715.265 1045.72 725.939 1045.76 736.3 C 1045.84 753.171 1048.41 781.622 1045.43 796.543 C 1037.35 799.271 948.986 799.422 940.576 795.904 C 939.176 792.948 939.109 789.312 939 786.081 C 938.389 768.133 939.016 749.926 939.032 731.956 C 939.041 721.279 937.682 707.944 939.685 697.535 C 940.186 694.929 941.263 694.048 942.986 692.2 z" fill="rgb(6,39,52)" transform="translate(0,0)"></path>
<path d="M 945.041 696.986 C 955.631 698.562 967.063 697.903 977.763 697.893 C 998.598 697.873 1019.5 697.417 1040.32 698.391 L 1040.32 759.484 C 1040.33 769.717 1041.34 780.959 1039.64 791.016 C 1036.97 792.482 1032.79 791.982 1029.75 791.976 L 944.206 792.123 C 944.671 760.408 944.257 728.702 945.041 696.986 z" fill="rgb(253,253,254)" transform="translate(0,0)"></path>
<path d="M 953.419 704.334 L 1033.04 704.224 C 1032.96 713.428 1034.63 780.569 1032.39 784.033 C 1031.65 785.196 1031.32 784.959 1030.06 785.242 C 1003.82 785.736 977.56 785.64 951.316 784.955 C 950.957 774.722 949.69 711.723 951.617 706.282 C 951.781 705.819 953.029 704.755 953.419 704.334 z" fill="rgb(6,39,52)" transform="translate(0,0)"></path>
<path d="M 957.039 710.016 C 980.47 710.636 1003.91 710.623 1027.34 709.978 C 1027.56 730.03 1027.95 750.152 1027.47 770.199 C 1027.36 773.378 1027.74 776.584 1025.96 779.257 C 1007.2 781.712 976.916 779.77 956.894 779.721 C 956.77 756.486 956.819 733.25 957.039 710.016 z" fill="rgb(253,253,254)" transform="translate(0,0)"></path>
<path d="M 1076.22 577.494 C 1092.41 578.126 1165.26 575.096 1173.71 580.186 C 1177.83 587.165 1175.33 623.209 1175.46 632.886 C 1175.65 647.769 1176.48 664.454 1174.99 679.281 C 1174.66 682.503 1173.58 683.159 1171.63 685.489 C 1160.09 685.514 1078.42 686.843 1073.69 684.322 C 1072.64 681.439 1071.48 676.492 1071.49 672.73 C 1071.56 642.785 1070.47 611.817 1072.03 582.026 C 1072.16 579.553 1074.6 578.387 1076.22 577.494 z" fill="rgb(6,39,52)" transform="translate(0,0)"></path>
<path d="M 1076.02 583.18 L 1169.91 583.204 C 1170.68 614.419 1170.02 648.278 1170.01 679.698 L 1160.25 679.815 L 1076.57 679.856 C 1076.27 654.835 1076.9 629.696 1076.79 604.667 C 1076.76 597.439 1077.21 590.334 1076.02 583.18 z" fill="rgb(253,253,254)" transform="translate(0,0)"></path>
<path d="M 1084.2 589.786 L 1163.83 590.12 C 1161.63 603.453 1165.11 667.87 1161.71 672.564 L 1158.25 672.866 L 1083.31 672.92 C 1082.88 659.672 1083.57 643.653 1083.29 630.097 C 1083.09 620.57 1082.88 598.107 1084.2 589.786 z" fill="rgb(6,39,52)" transform="translate(0,0)"></path>
<path d="M 1116.29 595.534 C 1123.44 596.034 1151.42 595.653 1157.87 595.025 C 1157.59 619.087 1157.53 643.152 1157.68 667.215 C 1150.65 667.16 1143.31 667.339 1136.25 667.405 C 1130.78 668.124 1096.19 667.209 1088.86 667.104 L 1088.84 595.692 C 1097.94 595.745 1107.18 595.596 1116.29 595.534 z" fill="rgb(71,185,162)" transform="translate(0,0)"></path>
<path d="M 946.917 466.524 C 959.534 466.937 1039.73 464.829 1043.9 468.427 C 1047.01 477.857 1045.76 551.696 1045.92 566.646 C 1045.28 567.517 1042.99 570.607 1041.79 570.646 C 1017.06 571.447 992.121 570.818 967.348 570.996 C 961.191 571.041 945.537 571.504 940.593 568.308 C 938.26 560.968 937.771 474.312 940.169 468.757 C 943.465 466.319 942.484 467.025 946.917 466.524 z" fill="rgb(6,39,52)" transform="translate(0,0)"></path>
<path d="M 944.563 471.731 C 972.23 473.185 1011.29 471.885 1040.15 471.834 C 1039.37 502.097 1040.17 534.318 1040.07 564.849 C 1034.48 565.734 1025.23 565.484 1019.26 565.491 C 1002.76 565.648 959.032 564.31 944.769 566.15 C 944.536 534.678 944.467 503.204 944.563 471.731 z" fill="rgb(253,253,254)" transform="translate(0,0)"></path>
<path d="M 953.21 478.544 C 977.834 477.701 1008.39 479.894 1032.28 477.957 C 1032.38 478.801 1032.46 479.647 1032.53 480.495 C 1033.83 498.408 1032.84 537.389 1032.6 557.024 C 1031.91 557.814 1031.31 558.49 1030.82 559.053 C 1006.72 557.927 975.911 558.708 951.188 558.492 C 951.31 547.263 949.955 483.614 953.21 478.544 z" fill="rgb(6,39,52)" transform="translate(0,0)"></path>
<path d="M 957.012 483.779 C 969.663 484.787 1014.05 484.347 1027.04 483.524 L 1027.37 553.066 L 956.906 552.889 L 957.012 483.779 z" fill="rgb(248,213,105)" transform="translate(0,0)"></path>
<path d="M 1075.05 692.413 C 1087.98 691.881 1168.11 690.064 1173.75 694.515 C 1177.94 708.697 1175.67 772.995 1175.14 792.245 C 1174.9 793.825 1174.05 795.683 1172.71 796.602 C 1168.41 799.549 1082.38 798.266 1073.45 796.584 C 1068.91 789.765 1070.82 717.949 1071.22 704.81 C 1071.37 699.655 1071.05 696.177 1075.05 692.413 z" fill="rgb(6,39,52)" transform="translate(0,0)"></path>
<path d="M 1107.34 697.549 C 1127.83 696.13 1149.62 697.799 1170.24 697.932 C 1169.59 729.197 1170.35 760.468 1169.68 791.733 C 1158.45 792.492 1147 791.986 1135.75 791.931 C 1115.98 792.379 1096.11 792.052 1076.33 792.099 C 1076.14 760.929 1078.16 728.921 1076.04 697.901 C 1086.47 697.931 1096.91 697.814 1107.34 697.549 z" fill="rgb(253,253,254)" transform="translate(0,0)"></path>
<path d="M 1083.99 704.137 C 1110.1 705.843 1137.25 704.368 1163.45 704.252 C 1162.64 722.309 1163.15 740.462 1163.2 758.534 C 1163.23 767.181 1164.06 777.011 1162.43 785.504 C 1144.06 783.706 1098.7 788.608 1084.33 784.114 C 1084.11 783.738 1084.03 783.616 1083.83 783.181 C 1082.36 779.881 1082.4 708.713 1083.99 704.137 z" fill="rgb(6,39,52)" transform="translate(0,0)"></path>
<path d="M 1088.36 710.062 C 1111.45 711.432 1135.47 710.108 1158.66 710.093 C 1157.55 720.572 1159.2 776.012 1156.58 779.36 L 1151.64 779.588 C 1130.58 779.997 1109.48 779.705 1088.4 780.088 C 1088.81 756.748 1088.8 733.402 1088.36 710.062 z" fill="rgb(71,185,162)" transform="translate(0,0)"></path>
<path d="M 1074.58 466.147 C 1088.25 466.877 1168.07 464.322 1173.32 468.312 C 1177.61 474.929 1176.99 557.126 1172.69 569.398 C 1171.87 571.73 1162 571.084 1159.75 571.013 C 1144.99 570.29 1084.46 572.317 1074.71 569.993 C 1071.71 567.469 1071.44 557.366 1071.46 553.277 C 1071.58 525.882 1070.91 498.362 1071.84 470.998 C 1071.91 468.844 1073.28 467.754 1074.58 466.147 z" fill="rgb(6,39,52)" transform="translate(0,0)"></path>
<path d="M 1077.02 471.863 C 1107.57 471.34 1139.42 472.702 1169.76 471.674 L 1170.04 530.008 C 1170.07 539.473 1170.56 555.294 1169.6 564.185 C 1166.19 566.354 1162.7 565.621 1158.24 565.564 C 1135.94 566.805 1100.21 565.552 1076.87 565.561 L 1077.02 471.863 z" fill="rgb(253,253,254)" transform="translate(0,0)"></path>
<path d="M 1084.81 478.241 C 1110.84 477.733 1137.87 478.99 1163.7 478.003 C 1162.41 495.513 1163.71 515.392 1163.4 533.114 C 1163.26 540.549 1164.02 549.959 1162.89 557.159 C 1160.74 559.363 1161.3 558.683 1157.25 558.748 C 1146.21 559.078 1092.94 559.809 1084.82 557.468 C 1083.11 553.812 1082.67 481.524 1084.81 478.241 z" fill="rgb(6,39,52)" transform="translate(0,0)"></path>
<path d="M 1089.37 483.677 C 1103.23 484.932 1142.22 483.778 1157.82 483.761 C 1157.71 506.884 1157.72 530.007 1157.85 553.13 C 1135.17 552.824 1111.91 553.061 1089.18 553.062 C 1089.27 530.151 1089.63 506.538 1089.37 483.677 z" fill="rgb(248,213,105)" transform="translate(0,0)"></path>
<path d="M 481.289 237.542 L 658.758 237.65 L 709.221 237.577 C 731.065 237.571 755.601 232.697 755.989 263.403 C 756.274 293.735 755.752 324.165 756.092 354.494 C 756.106 364.369 757.604 374.431 750.087 382.171 C 744.207 388.433 734.841 389.195 726.649 389.282 C 699.493 389.568 672.284 388.793 645.128 389.36 C 585.497 388.328 524.309 389.866 464.596 389.227 C 448.662 389.057 393.827 390.69 380.795 387.488 C 375.703 384.001 370.004 378.254 369.773 371.626 C 368.552 336.364 369.389 300.885 369.3 265.586 C 369.26 249.765 370.817 246.528 383.966 238.037 C 414.996 236.781 449.666 238.223 481.289 237.542 z" fill="rgb(71,185,162)" transform="translate(0,0)"></path>
<path d="M 391.759 251.047 C 402.43 250.335 420.466 250.951 431.795 250.949 L 510.6 250.934 L 734.067 251.014 C 737.98 253.641 740.962 255.057 740.967 260.312 C 740.99 296.249 741.44 332.262 740.853 368.187 C 740.739 375.195 733.373 375.743 728.385 375.795 L 518.766 375.788 C 479.857 375.743 440.947 375.779 402.036 375.619 C 390.728 375.575 384.395 373.972 384.177 360.97 C 383.657 329.889 384.207 298.676 383.829 267.573 C 383.731 259.568 386.001 256.055 391.759 251.047 z" fill="rgb(6,39,52)" transform="translate(0,0)"></path>
<path d="M 394.167 256.177 C 422.081 256.949 453.476 256.276 481.625 256.242 L 646.923 256.23 L 698.226 256.233 C 707.703 256.207 725.449 255.706 734.118 257.428 C 736.756 261.318 736.331 283.376 735.863 288.477 C 734.778 300.304 738.949 363.029 733.598 369.368 C 727.468 371.171 710.783 370.692 703.51 370.669 C 603.797 368.266 502.803 372.427 402.979 370.217 C 392.849 369.993 389.402 369.724 389.396 357.575 C 389.382 326.392 388.946 295.136 389.363 263.987 C 389.416 260.074 391.373 258.336 394.167 256.177 z" fill="rgb(253,253,254)" transform="translate(0,0)"></path>
<path d="M 637.45 287.197 C 639.248 287.39 639.967 287.78 641.605 288.443 C 644.738 293.556 643.353 328.387 641.998 335.335 C 632.459 335.462 626.561 337.717 618.598 335.017 C 602.086 320.373 613.137 291.006 636.384 305.106 C 636.348 299.228 635.951 292.816 637.45 287.197 z" fill="rgb(6,39,52)" transform="translate(0,0)"></path>
<path d="M 623.908 305.676 C 638.924 306.098 641.133 323.192 632.469 331.206 C 614.593 332.597 613.096 315.431 623.908 305.676 z" fill="rgb(253,253,254)" transform="translate(0,0)"></path>
<path d="M 490.691 287.295 C 491.96 287.943 492.894 288.7 494.052 289.532 C 496.019 294.253 495.106 304.03 494.911 309.504 L 519.022 309.489 C 518.864 303.199 517.458 292.895 521.215 288.694 C 524.421 289.251 523.299 288.646 525.508 290.891 C 526.546 297.235 527.086 332.974 524.19 337.673 C 522.208 337.159 521.827 336.653 520.188 335.333 C 518.014 330.653 518.956 320.588 519.152 315.101 C 512.198 315.662 502.19 315.205 494.987 315.074 C 495.111 321.042 495.887 332.988 492.045 337.71 C 487.603 334.9 487.488 316.95 487.771 311.975 C 488.224 304.02 486.168 293.855 490.691 287.295 z" fill="rgb(6,39,52)" transform="translate(0,0)"></path>
<path d="M 548.745 301.196 C 551.134 300.997 554.8 300.807 557.138 300.92 C 560.208 301.09 563.072 302.519 565.054 304.869 C 570.477 311.284 572.22 331.524 566.11 336.771 L 564.413 336.489 L 562.51 332.546 C 554.916 331.961 556.781 342.149 540.502 333.269 C 530.742 312.093 561.522 319.997 563.313 311.107 C 557.01 301.173 550.945 309.269 541.985 309.383 L 541.854 307.376 C 543.877 303.668 544.992 303.255 548.745 301.196 z" fill="rgb(6,39,52)" transform="translate(0,0)"></path>
<path d="M 553.457 320.109 C 557.691 320.324 559.479 320.335 562.072 322.873 L 561.939 325.448 C 559.488 329.067 558.709 329.463 555.026 331.904 C 551.038 331.874 549.143 331.86 546.256 329.173 C 544.96 325.849 545.009 327.281 546.156 323.791 C 548.47 321.105 550.018 321.012 553.457 320.109 z" fill="rgb(253,253,254)" transform="translate(0,0)"></path>
<path d="M 584.535 300.371 C 588.565 301.798 587.24 300.876 589.641 304.883 C 592.959 302.669 599.779 299.058 603.251 302.57 C 598.554 309.825 591.375 307.073 590.005 317.898 L 589.903 318.75 C 590.051 323.616 591.067 333.078 587.174 336.426 C 581.856 332.082 582.175 306.382 584.535 300.371 z" fill="rgb(6,39,52)" transform="translate(0,0)"></path>
<path d="M 1317.11 237.156 C 1329.83 236.365 1349.74 237.018 1362.86 237.038 L 1451.85 237.118 L 1586.77 237.053 C 1611.77 237.016 1636.85 236.938 1661.85 237.052 C 1665.66 237.23 1669.59 237.02 1673.02 238.844 C 1677.41 241.053 1680.77 243.815 1682.63 248.5 C 1686.53 258.29 1685.36 270.319 1685.35 280.731 C 1685.31 300.503 1684.85 320.252 1685.07 340.023 C 1685.21 352.061 1687.34 365.345 1683.35 376.863 C 1681.13 383.221 1676.68 385.788 1670.82 388.33 C 1661.39 389.592 1640.41 389.002 1630.39 388.969 L 1559.75 388.895 L 1389.52 388.983 C 1366.65 389.031 1338.67 389.826 1315.64 388.095 C 1309.97 387.669 1304.9 380.27 1302.08 375.678 C 1301.21 359.462 1299.92 259.331 1303.55 249.249 C 1305.95 242.578 1310.98 239.983 1317.11 237.156 z" fill="rgb(71,185,162)" transform="translate(0,0)"></path>
<path d="M 1555.19 250.543 C 1557.63 250.897 1561.7 250.742 1564.27 250.763 C 1599.83 251.049 1635.49 249.84 1671.02 251.126 C 1670.92 289.788 1672.69 337.339 1671.19 374.98 C 1650.63 376.001 1620.55 375.036 1599.3 375.007 L 1446.25 374.969 C 1430.77 374.968 1324.29 376.212 1317.81 373.138 C 1315.12 367.812 1314.79 258.105 1317.84 252.864 C 1327.95 249.308 1355.34 251.044 1367.28 250.777 C 1429.56 249.384 1493.02 252.43 1555.19 250.543 z" fill="rgb(6,39,52)" transform="translate(0,0)"></path>
<path d="M 1321.3 256.266 C 1354.39 257.769 1396.88 256.36 1430.74 256.37 L 1665.55 256.594 C 1666.14 293.69 1665.68 332.147 1665.78 369.395 C 1657.28 370.339 1627.4 369.72 1617.88 369.724 L 1517.1 369.527 L 1384.57 369.524 C 1364.37 369.534 1341.03 370.22 1321.1 369.419 C 1322.32 333.582 1321.86 292.185 1321.3 256.266 z" fill="rgb(253,253,254)" transform="translate(0,0)"></path>
<path d="M 1460.1 295.064 C 1482.1 293.822 1485.45 327.298 1467.07 337.075 C 1444.97 338.358 1442.37 305.905 1460.1 295.064 z" fill="rgb(6,39,52)" transform="translate(0,0)"></path>
<path d="M 1460.86 299.592 C 1476.16 302.466 1475.31 324.515 1466.04 331.91 C 1451.23 331.502 1452.87 308.688 1460.86 299.592 z" fill="rgb(253,253,254)" transform="translate(0,0)"></path>
<path d="M 1361.8 278.343 C 1363.94 278.837 1364.12 278.891 1366.04 279.941 C 1368.76 285.298 1382.44 333.107 1381.45 337.228 L 1379.78 338.068 C 1372.68 334.68 1375.02 330.856 1372.73 323.961 C 1370.26 321.57 1371.06 322.273 1366.95 321.916 L 1354.54 322.118 C 1353.36 326.646 1352.53 333.181 1349.49 336.12 C 1346.24 336.885 1347.42 337.099 1344.94 335.62 C 1345.23 328.994 1358.61 285.362 1361.8 278.343 z" fill="rgb(6,39,52)" transform="translate(0,0)"></path>
<path d="M 1363.12 290.616 C 1365.29 293.547 1369.37 310.825 1370.11 314.96 C 1368.28 316.8 1366.54 316.285 1363.3 316.548 C 1360.67 316.592 1360.28 316.581 1357.79 315.764 C 1355.73 311.472 1361.45 297.047 1363.12 290.616 z" fill="rgb(253,253,254)" transform="translate(0,0)"></path>
<path d="M 1487.55 294.608 C 1491.75 295.701 1491.42 295.077 1493.41 298.514 L 1493.41 298.455 C 1502.59 293.659 1502.84 293.482 1510.97 299.723 C 1517.27 300.066 1519.32 292.133 1526.68 295.559 C 1531.54 301.874 1534.32 332.616 1529.55 337.073 L 1527.63 336.746 C 1521.48 329.289 1530.01 301.082 1518.84 299.976 C 1515.79 301.7 1515.32 302.14 1513.27 304.983 L 1512.77 305.683 C 1512.39 314.484 1512.35 322.887 1512.82 331.673 C 1512.97 334.467 1510.63 336.384 1508.38 337.652 C 1503.18 333.526 1509.74 313.06 1504.25 302.511 C 1501.32 300.257 1502.74 300.812 1498.64 300.738 C 1488.36 306.857 1495.97 328.399 1492.67 336.394 C 1490.4 337.09 1490.32 337.051 1487.97 336.418 C 1486.17 333.562 1487.11 300.053 1487.55 294.608 z" fill="rgb(6,39,52)" transform="translate(0,0)"></path>
<path d="M 1551.3 294.872 C 1572.66 294.223 1567.69 333.403 1564.35 337.231 L 1562.56 337.182 L 1560.21 333.958 C 1555.77 333.542 1554.88 336.075 1549.74 337.002 C 1545.59 336.05 1544.59 334.895 1541.32 332.087 C 1534.08 307.257 1555.27 320.73 1560.4 307.187 C 1556.73 294.288 1548.12 303.727 1543.1 304.916 L 1541.63 303.744 C 1543.27 299.192 1547.26 296.88 1551.3 294.872 z" fill="rgb(6,39,52)" transform="translate(0,0)"></path>
<path d="M 1557.09 315.805 C 1564.79 319.302 1558.41 329.595 1551.34 332.376 C 1540.78 325.366 1548.19 318.641 1557.09 315.805 z" fill="rgb(253,253,254)" transform="translate(0,0)"></path>
<path d="M 1388.47 295.728 C 1391.09 295.649 1391.39 295.519 1393.72 296.546 C 1399.32 306.807 1389.61 323.633 1399.04 330.699 C 1402.14 331.121 1403.06 331.425 1405.97 330.001 C 1413.54 321.088 1405.1 300.575 1411.82 295.513 L 1414.77 296.201 C 1416.27 298.891 1415.59 299.683 1415.32 303.244 C 1415.06 311.345 1416.52 330.003 1414.3 336.479 L 1412.66 337.157 C 1410.87 335.39 1410.33 334.826 1408.25 333.444 C 1385.17 352.736 1388.69 307.393 1388.47 295.728 z" fill="rgb(6,39,52)" transform="translate(0,0)"></path>
<path d="M 1577.79 285.243 C 1579.63 285.456 1581.19 285.782 1583.01 286.147 C 1585.3 289.146 1583.87 288.4 1583.92 293.718 C 1587.96 298.453 1588.48 293.604 1593.07 296.982 L 1593.17 300.024 C 1590.37 302.445 1588.36 299.58 1584.65 302.055 C 1583.43 308.025 1583.6 322.129 1585 328.582 C 1585.35 330.223 1586.95 330.401 1588.47 330.948 C 1591.12 330.41 1592.94 329.775 1595.54 331.006 C 1594.89 332.183 1593.4 334.899 1592.5 335.285 C 1570.93 344.596 1580.59 311.377 1577.34 301.549 C 1577.41 301.783 1574.44 301.127 1572.92 299.011 L 1573.51 296.68 C 1579.71 294.962 1577.76 291.483 1577.79 285.243 z" fill="rgb(6,39,52)" transform="translate(0,0)"></path>
<path d="M 1429.27 285.403 C 1432.04 285.815 1432.45 285.715 1434.61 287.324 C 1434.89 289.813 1435.15 292.305 1435.38 294.799 C 1439.41 297.521 1440.24 294.234 1444.77 296.702 L 1444.91 299.521 C 1441.53 302.527 1440.98 299.456 1435.69 301.544 C 1434.09 305.931 1434.46 325.952 1436.12 330.663 C 1439.74 332.828 1441.3 330.168 1446.03 332.059 C 1443.97 336.187 1441.87 338.088 1436.88 337.077 C 1422.78 334.22 1431.55 313.624 1428.85 304.334 C 1427.82 300.805 1425.86 302.247 1423.4 298.922 C 1424.24 293.602 1424.35 298.913 1428.36 293.354 C 1428.29 289.855 1428.57 288.783 1429.27 285.403 z" fill="rgb(6,39,52)" transform="translate(0,0)"></path>
<path d="M 1628.34 295.03 C 1633.89 294.533 1643.53 295.428 1642.46 302.893 C 1636.69 305.361 1630.39 294.01 1625.32 306.811 C 1621.33 316.864 1623.54 337.256 1639.04 329.063 L 1640.13 327.69 L 1641.9 328.372 L 1642.41 330.714 C 1640.13 336.859 1634.25 338.626 1628.69 336.59 C 1612.8 330.776 1614.19 302.567 1628.34 295.03 z" fill="rgb(6,39,52)" transform="translate(0,0)"></path>
<path d="M 1601.97 295.29 C 1604.72 295.476 1605.15 295.521 1607.69 296.563 C 1608.47 300.783 1608.28 329.601 1608.57 336.951 C 1605.79 336.654 1604.64 336.774 1602.34 335.179 C 1601.27 326.728 1601.91 304.801 1601.97 295.29 z" fill="rgb(6,39,52)" transform="translate(0,0)"></path>
<path d="M 1602.92 279.433 C 1604.88 278.235 1607.43 278.749 1608.77 280.613 C 1610.11 282.476 1609.78 285.057 1608.02 286.531 C 1606.76 287.586 1605.02 287.848 1603.51 287.209 C 1601.99 286.57 1600.96 285.138 1600.84 283.5 C 1600.72 281.861 1601.52 280.291 1602.92 279.433 z" fill="rgb(6,39,52)" transform="translate(0,0)"></path>
<path d="M 885.082 237.354 C 890.88 236.494 915.315 236.926 922.409 236.93 L 1001.77 236.927 L 1166 236.868 C 1184.14 236.891 1206.15 236.596 1224.55 237.341 C 1230.94 237.6 1236.21 245.411 1239.48 250.549 C 1241.97 282.348 1238.97 317.762 1240.05 349.942 C 1241.18 383.647 1240.07 389.236 1205.75 388.997 L 985.087 389.021 C 968.18 389.025 896.188 391.722 884.362 387.8 C 879.633 386.232 874.115 382.325 872.026 377.681 C 870.257 373.75 869.801 369.148 869.525 364.889 C 868.596 350.609 868.153 256.553 871.241 249.03 C 873.832 242.716 879.115 239.935 885.082 237.354 z" fill="rgb(248,213,105)" transform="translate(0,0)"></path>
<path d="M 889.37 251.393 C 899.302 250.471 918.959 251.042 929.395 251.045 L 1005.94 251.021 C 1073.42 250.99 1140.91 250.798 1208.39 251.052 C 1218.2 251.089 1225.33 249.859 1225.33 261.597 C 1225.33 278.825 1226.09 298.664 1225.31 315.72 C 1224.71 328.497 1228.63 367.012 1222 374.997 C 1162.21 376.572 1097.22 375.282 1037.11 375.295 L 947.291 375.37 C 934.976 375.385 894.656 376.796 886.155 372.85 C 882.473 363.659 883.951 273.328 884.038 257.865 C 886.044 254.667 886.684 254.035 889.37 251.393 z" fill="rgb(6,39,52)" transform="translate(0,0)"></path>
<path d="M 891.118 256.334 L 1106.98 256.394 C 1142.84 256.322 1185.04 257.479 1220.21 256.228 L 1220.17 357.25 L 1220.22 370.013 C 1183.13 370.641 1144.31 369.945 1107.04 369.942 L 889.789 370.346 C 889.694 356.221 887.213 263.146 891.118 256.334 z" fill="rgb(253,253,254)" transform="translate(0,0)"></path>
<path d="M 1043.83 298.159 C 1071.14 296.764 1072.58 329.973 1051.83 338.064 C 1026.53 338.692 1023.49 307.586 1043.83 298.159 z" fill="rgb(6,39,52)" transform="translate(0,0)"></path>
<path d="M 1046.15 302.848 C 1062.98 306.401 1062.74 323.658 1051.09 333.255 C 1034.93 332.214 1032.7 310.909 1046.15 302.848 z" fill="rgb(253,253,254)" transform="translate(0,0)"></path>
<path d="M 1008 281.118 C 1012.27 281.077 1020.27 281.622 1021.51 286.532 C 1014.59 290.078 999.031 283.071 998.973 296.395 C 1003.86 307.707 1036.74 312.009 1020.7 331.695 C 1015.99 337.481 1009.89 337.755 1002.96 338.37 C 1001.64 338.076 1000.32 337.756 999.013 337.409 C 995.989 336.597 992.82 335.758 991.203 332.983 C 992.025 329.628 991.349 330.63 993.475 328.498 C 994.281 328.974 995.093 329.441 995.909 329.9 C 1003.2 333.977 1013.38 334.344 1017.21 325.759 C 1022.59 313.718 994.055 310.367 992.592 299.179 C 991.158 288.211 998.673 283.332 1008 281.118 z" fill="rgb(6,39,52)" transform="translate(0,0)"></path>
<path d="M 1089.44 279.017 C 1092.28 279.549 1093.07 279.536 1095.15 281.473 C 1094.6 288.139 1089.29 284.182 1084.89 288.323 C 1083.58 291.558 1083.92 292.626 1084.38 295.976 C 1086.97 299.695 1086.77 297.995 1091.92 300.364 L 1092.65 302.978 C 1091.05 305.809 1089.68 302.721 1084.71 305.066 C 1083.38 310.947 1083.99 330.165 1084 337.574 C 1081.49 337.792 1081.15 337.95 1078.85 337.135 C 1071.82 328.333 1085.66 308.34 1072.22 303.549 C 1070.78 301.306 1071.05 302.379 1071.6 299.331 C 1073.31 298.896 1075.01 298.411 1076.7 297.878 C 1082.72 287.037 1074.44 285.429 1089.44 279.017 z" fill="rgb(6,39,52)" transform="translate(0,0)"></path>
<path d="M 1106.96 285.227 L 1109.07 286.432 C 1111.17 289.53 1109.47 291.415 1109.65 294.488 C 1110.09 301.995 1115.39 296.09 1119.98 299.875 L 1119.76 302.978 C 1104.57 305.464 1109.31 317.823 1110.74 329.275 C 1111.36 334.27 1116.78 328.323 1119.56 337.054 C 1097.64 343.803 1104.63 319.102 1103.67 305.982 C 1101.65 302.781 1100.86 305.781 1096.34 303.036 C 1096.59 300.187 1096.2 301.282 1097.89 298.893 L 1102.35 298.603 C 1106.45 294.264 1101.72 292.73 1106.96 285.227 z" fill="rgb(6,39,52)" transform="translate(0,0)"></path>
<path d="M 1195.18 150.563 C 1199.44 151.275 1231.17 150.866 1237.68 150.859 L 1338.35 150.741 L 1707.6 150.909 C 1714.68 155.33 1720.5 160.732 1720.91 169.612 C 1721.14 173.947 1719.55 178.18 1716.54 181.305 C 1708.22 190.01 1690.84 187.164 1679.57 187.088 L 1629.85 187.116 L 1457.85 187.148 L 870.315 187.778 C 864.01 185.983 804.094 187.851 793.117 187.786 L 479.64 187.844 L 388.21 187.767 C 373.837 187.78 359.465 188.254 345.11 187.91 C 335.133 187.67 328.029 181.449 327.485 171.321 C 327.18 165.809 329.138 160.411 332.906 156.377 C 336.705 152.387 340.98 150.991 346.326 150.935 C 372.994 150.66 400.034 150.919 426.683 150.917 L 595.734 150.948 L 997.981 150.763 C 1063.34 150.698 1129.93 151.549 1195.18 150.563 z" fill="rgb(253,253,254)" transform="translate(0,0)"></path>
<path d="M 1701.19 589.548 C 1740.71 614.042 1779.24 646.475 1829.01 623.85 C 1846.85 650.643 1840.49 668.779 1849.54 693.045 C 1853.79 704.437 1867.35 731.754 1872.96 743.915 C 1891.58 783.509 1909.72 823.329 1927.37 863.366 C 1931.05 871.837 1942.92 896.489 1944.47 904.033 C 1940.4 920.177 1894.7 912.861 1883.25 910.366 C 1874.64 899.59 1862.25 875.64 1854.83 862.98 C 1830.09 820.794 1807.87 776.738 1783.11 734.54 C 1795.14 718.186 1802.51 713.997 1815.29 693.188 C 1817.39 688.984 1818.69 685.108 1820.6 681.001 C 1822.42 677.091 1825.29 655.682 1820.4 654.297 C 1814.79 658.796 1818.21 670.41 1815.74 677.103 C 1804.52 707.576 1777.7 728.348 1760.6 755.881 C 1728.05 808.316 1701.4 864.749 1674.36 920.187 C 1662.22 925.225 1633.29 925.144 1622.35 917.805 C 1616.31 913.756 1628.69 877.216 1630.61 870.767 C 1641.4 834.606 1653.03 798.709 1667.17 763.693 C 1675.07 744.588 1683.62 725.759 1692.81 707.238 C 1715.75 661.619 1729.19 667.412 1684.32 630.078 C 1689.27 619.136 1697.75 600.543 1701.19 589.548 z" fill="rgb(78,121,123)" transform="translate(0,0)"></path>
<path d="M 1370.17 56.2269 C 1405.59 55.3004 1444.34 56.068 1480.07 56.0742 L 1688.42 56.0573 C 1688.51 85.3371 1689.03 115.946 1688.36 145.105 L 1593.75 145.233 L 1287.28 145.548 C 1314.45 116.803 1343.99 85.7313 1370.17 56.2269 z" fill="rgb(248,213,105)" transform="translate(0,0)"></path>
<path d="M 301.969 623.859 C 312.065 629.76 320.779 638.136 330.881 644.245 C 321.366 654.85 308.796 666.976 307.584 681.93 C 307.09 688.022 307.681 694.807 305.553 700.585 C 299.787 706.1 288.289 695.106 280.874 696.829 L 280.066 698.424 C 283.713 708.015 304.534 705.301 307.904 708.679 C 313.72 714.506 327.588 811.502 327.995 825.146 C 326.379 826.523 324.729 827.915 322.961 829.092 C 310.952 837.087 289.304 831.215 276.072 828.619 C 275.219 828.58 275.444 828.632 274.762 828.482 C 247.294 822.463 216.406 819.271 188.282 819.687 C 188.183 757.955 195.371 698.487 239.847 651.564 C 262.691 650.056 284.87 638.704 301.969 623.859 z" fill="rgb(71,185,162)" transform="translate(0,0)"></path>
<path d="M 360.132 56.1465 L 593.976 56.1406 C 578.739 72.4074 563.638 88.8011 548.675 105.32 C 537.304 118.322 523.203 132.963 511.324 145.481 C 493.746 146.295 473.129 145.8 455.347 145.777 L 360.186 145.7 C 359.861 115.85 359.843 85.9971 360.132 56.1465 z" fill="rgb(253,253,254)" transform="translate(0,0)"></path>
<path d="M 1697.78 508.218 C 1752.19 502.844 1801.36 578.937 1826.2 618.329 C 1816.54 623.128 1813.11 624.326 1802.1 625.606 C 1772.86 629.008 1724.67 602.851 1703.08 584.417 C 1705.36 578.232 1708.53 571.148 1708.78 564.737 C 1703.76 566.986 1689.22 604.847 1686.02 612.643 C 1684.62 615.704 1679.11 628.834 1677.5 630.283 C 1652.54 652.729 1616.31 677.024 1588.56 694.585 C 1583.16 687.205 1575.27 678.477 1569.2 671.393 C 1590.63 649.794 1615.38 630.802 1636.48 609.025 C 1662.14 582.529 1655.62 520.529 1697.78 508.218 z" fill="rgb(253,253,254)" transform="translate(0,0)"></path>
<path d="M 923.298 56.1213 L 1109.28 56.0426 C 1082.22 83.8443 1055.03 116.64 1027.35 145.535 L 1017.72 145.488 C 959.376 145.884 901.033 145.789 842.694 145.203 C 870.244 117.048 895.783 84.6742 923.298 56.1213 z" fill="rgb(253,253,254)" transform="translate(0,0)"></path>
<path d="M 792.435 56.1353 C 829.184 55.7137 879.316 54.7557 915.42 56.5029 C 888.235 85.3963 863.084 116.476 835.268 144.795 C 834.211 145.871 830.212 145.423 828.756 145.321 C 803.538 145.693 778.316 145.766 753.097 145.539 C 740.798 145.466 721.89 144.725 710.482 145.82 L 792.435 56.1353 z" fill="rgb(253,253,254)" transform="translate(0,0)"></path>
<path d="M 1239.79 56.394 C 1250.1 55.437 1270.99 55.9523 1281.73 55.9389 C 1309.03 55.8731 1336.33 55.9565 1363.63 56.1891 C 1353.67 65.8424 1282.76 144.628 1277.93 145.7 C 1237.99 145.858 1198.05 145.729 1158.12 145.315 C 1166 137.761 1176.62 125.603 1184.22 117.367 L 1239.79 56.394 z" fill="rgb(253,253,254)" transform="translate(0,0)"></path>
<path d="M 1116.26 56.0453 L 1232.6 56.143 C 1213.32 77.5725 1193.93 98.8975 1174.42 120.117 C 1167.39 127.753 1158.87 137.425 1151.07 144.417 C 1149.93 145.439 1145.63 145.301 1143.63 145.416 L 1034.9 145.293 C 1061.63 118.197 1090.51 84.7023 1116.26 56.0453 z" fill="rgb(248,213,105)" transform="translate(0,0)"></path>
<path d="M 683.314 55.9198 C 717.132 55.8016 750.95 55.9304 784.766 56.3062 C 758.809 85.8062 731.638 114.711 705.239 143.843 C 704.302 144.877 702.485 145.458 701.147 145.709 C 669.364 144.818 633.03 145.759 600.764 145.602 L 683.314 55.9198 z" fill="rgb(253,253,254)" transform="translate(0,0)"></path>
<path d="M 462.706 193.363 C 478.182 192.242 508.843 193.152 525.226 193.135 L 665.891 193.018 L 666.136 232.254 C 642.186 231.566 615.283 232.248 591.021 232.234 C 548.296 232.023 505.569 232.08 462.844 232.405 C 462.927 219.391 462.881 206.376 462.706 193.363 z" fill="rgb(253,253,254)" transform="translate(0,0)"></path>
<path d="M 1474.6 192.536 C 1483.61 191.967 1501.76 192.644 1511.65 192.669 L 1593.02 192.728 C 1592.94 205.488 1592.95 218.248 1593.05 231.008 L 1509.75 231.151 C 1469.79 230.897 1429.82 230.895 1389.86 231.146 C 1390.23 218.837 1390.02 205.268 1390.08 192.858 C 1417.53 192.146 1446.79 192.979 1474.6 192.536 z" fill="rgb(253,253,254)" transform="translate(0,0)"></path>
<path d="M 956.283 193.102 L 1155.93 192.957 C 1155.86 205.821 1155.9 218.686 1156.05 231.549 C 1151.6 231.281 1146.27 231.34 1141.75 231.27 C 1080.74 232.269 1017.47 231.314 956.22 231.518 L 956.283 193.102 z" fill="rgb(253,253,254)" transform="translate(0,0)"></path>
<path d="M 601.101 56.1949 C 618.108 54.8553 657.17 56.0752 675.431 56.2918 C 653.986 80.481 617.365 119.889 593.76 144.677 C 592.495 145.016 591.422 145.304 590.54 145.54 C 566.685 145.907 542.754 145.295 518.85 145.616 C 543.583 117.041 575.296 84.2967 601.101 56.1949 z" fill="rgb(253,253,254)" transform="translate(0,0)"></path>
<path d="M 284.306 558.131 C 303.678 557.031 327.96 580.252 343.442 591.039 C 352.419 597.294 367 607.554 374.878 614.758 C 366.011 626.208 357.418 638.484 352.187 652.034 C 341.842 647.294 312.867 625.224 303.584 617.438 C 298.124 613.268 286.494 601.6 281.841 599.215 L 279.682 600.017 L 279.397 601.941 C 282.291 607.692 292.943 615.796 298.074 619.993 C 282.655 633.275 263.93 642.137 243.884 645.64 C 251.904 624.546 264.798 571.315 284.306 558.131 z" fill="rgb(253,253,254)" transform="translate(0,0)"></path>
<path d="M 720.569 483.018 L 721.78 483.255 C 723.358 485.918 722.749 490.769 722.74 494.32 C 668.521 506.957 673.642 516.761 673.633 567.49 L 673.29 623.416 L 673.11 854.199 L 673.259 926.156 C 673.279 937.017 673.473 948.733 672.997 959.619 C 672.866 962.619 672.307 962.443 670.233 963.991 C 666.986 965.237 666.037 965.709 662.528 966.001 C 661.45 961.093 662.016 932.937 662.064 926.419 L 662.149 852.003 L 662.012 643.124 C 661.999 608 661.703 572.808 662.037 537.687 C 662.416 497.843 689.01 491.583 720.569 483.018 z" fill="rgb(253,253,254)" transform="translate(0,0)"></path>
<path d="M 737.441 480.218 L 739.25 480.659 C 740.153 485.475 739.552 505.959 739.494 511.845 C 739.313 530.411 739.277 548.979 739.388 567.545 L 739.184 828.772 L 739.112 904.071 C 739.112 913.649 740.707 936.536 737.265 943.971 C 734.13 945.87 735.447 945.596 732.173 945.498 C 729.965 944.193 729.495 944.011 728.295 941.778 L 728.277 607.777 L 728.246 524.543 C 728.202 517.212 727.49 489.473 728.468 483.471 C 731.094 480.605 732.892 481.106 737.441 480.218 z" fill="rgb(253,253,254)" transform="translate(0,0)"></path>
<path d="M 190.87 825.22 C 213.068 824.844 235.559 828.233 257.589 830.728 C 237.825 851.503 216.465 870.387 194.6 888.915 C 187.291 894.994 179.374 900.385 171.651 905.923 C 159.549 898.688 150.922 888.269 143.609 876.399 C 159.544 859.715 176.156 842.995 190.87 825.22 z" fill="rgb(71,185,162)" transform="translate(0,0)"></path>
<path d="M 471.377 680.885 L 473.649 681.455 C 477.704 688.016 472.25 883.134 475.364 912.982 C 480.455 918.247 604.601 948.303 621.55 952.643 C 628.36 954.387 650.657 958.642 655.531 961.974 C 657.247 963.147 657.412 966.413 657.858 968.364 C 657.669 968.505 657.488 968.657 657.29 968.786 C 655.066 970.236 651.83 969.833 649.354 969.448 C 628.471 966.205 607.108 959.168 586.602 953.825 C 545.659 943.14 504.783 932.199 463.976 921.002 C 463.587 893.241 462.057 689.194 464.639 683.862 C 465.295 682.507 469.811 681.45 471.377 680.885 z" fill="rgb(253,253,254)" transform="translate(0,0)"></path>
<path d="M 1518.51 483.101 C 1532.02 483.276 1550.08 482.507 1562.9 483.614 C 1558.41 487.518 1551.91 491.8 1553.29 498.364 C 1561.17 506.782 1578.61 499.086 1586.97 494.116 C 1588.12 506.854 1587.48 528.822 1587.36 542.249 L 1587.34 553.987 C 1564.81 554.4 1541.05 554.037 1518.43 554.05 C 1519.26 532.079 1518.57 505.419 1518.51 483.101 z" fill="rgb(253,253,254)" transform="translate(0,0)"></path>
<path d="M 1518.01 707.667 L 1536.96 707.811 C 1528.49 722.752 1536.59 716.863 1536.71 728.576 C 1536.71 728.834 1536.71 729.092 1536.71 729.35 C 1539.37 732.325 1540.58 732.355 1544.34 733.401 C 1545.05 734.715 1545.83 736.453 1547.01 737.398 C 1548.16 738.32 1548.54 738.226 1549.9 737.973 C 1567.27 734.739 1578.24 717.081 1587.61 703.624 C 1588.77 716.081 1588.02 729.213 1588.01 741.75 C 1587.7 754.15 1587.98 766.618 1588.01 779.026 C 1564.67 779.217 1541.33 779.264 1517.99 779.168 L 1518.01 707.667 z" fill="rgb(253,253,254)" transform="translate(0,0)"></path>
<path d="M 536.28 433.131 C 543.132 432.106 696.955 473.52 721.761 477.913 C 711.387 480.289 703.446 482.215 693.224 485.447 L 681.982 490.65 C 671.317 486.418 651.699 482.157 640.087 478.941 C 605.422 469.339 569.222 462.184 534.708 452.438 C 532.003 453.611 528.891 454.458 526.049 455.328 C 522.12 450.051 519.748 446.117 516.4 440.465 C 523.605 437.477 528.842 435.4 536.28 433.131 z" fill="rgb(253,253,254)" transform="translate(0,0)"></path>
<path d="M 321.941 470.726 C 323.278 463.118 324.858 457.053 329.29 450.575 C 335.506 441.305 345.267 435.006 356.274 433.162 C 381.323 428.861 401.291 444.652 405.732 469.123 C 406.133 472.538 406.966 475.641 405.205 478.466 C 402.726 480.426 402.079 480.831 399.227 482.192 C 373.84 494.249 342.219 490.764 321.941 470.726 z" fill="rgb(248,213,105)" transform="translate(0,0)"></path>
<path d="M 405.732 469.123 C 406.133 472.538 406.966 475.641 405.205 478.466 C 402.726 480.426 402.079 480.831 399.227 482.192 C 398.622 478.667 397.832 475.952 398.929 472.561 C 401.986 469.451 401.085 470.36 405.732 469.123 z" fill="rgb(232,214,131)" transform="translate(0,0)"></path>
<path d="M 327.829 833.119 C 330.826 837.378 335.32 897.645 339.089 910.124 C 327.312 914.106 311.24 919.325 298.735 917.306 C 296.548 915.613 296.736 914.474 296.221 911.853 C 291.674 886.043 286.535 859.249 278.12 834.403 C 294.107 839.258 312.596 840.847 327.829 833.119 z" fill="rgb(71,185,162)" transform="translate(0,0)"></path>
<path d="M 375.486 622.492 C 383.137 623.236 410.883 637.725 420.988 641.101 C 438.042 646.798 458.204 648.748 474.134 654.682 C 477.889 656.081 483.599 658.754 485.203 662.738 C 485.899 664.465 486.039 665.868 485.064 667.532 C 481.787 673.124 473.491 675.193 467.699 676.893 C 436.254 681.354 386.329 663.878 359.226 648.042 C 364.2 639.156 369.409 630.672 375.486 622.492 z" fill="rgb(253,253,254)" transform="translate(0,0)"></path>
<path d="M 678.192 844.958 C 693.121 845.056 708.051 845.028 722.98 844.873 C 723.058 869.134 724.963 902.411 722.597 925.72 C 708.302 920.53 692.941 918.158 678.539 913.088 C 678.203 890.379 678.088 867.668 678.192 844.958 z" fill="rgb(253,253,254)" transform="translate(0,0)"></path>
<path d="M 722.713 689.977 C 724.731 699.465 723.124 712.454 723.116 722.346 L 722.991 801.56 C 713.905 799.752 704.895 797.41 695.883 795.26 L 696 784.558 L 695.588 736.451 C 689.872 734.935 684.224 733.497 678.392 732.484 C 677.94 725.377 678.094 718.192 678.066 711.07 C 692.812 703.747 708.146 697.657 722.713 689.977 z" fill="rgb(253,253,254)" transform="translate(0,0)"></path>
<path d="M 480.652 805.647 C 494.437 807.66 508.909 812.637 522.489 816.074 C 523.283 830.04 522.813 844.259 522.844 858.257 C 515.096 861.48 507.545 865.082 499.974 868.695 L 499.577 889.25 L 499.707 892.552 C 496.445 897.939 486.056 900.075 480.334 902.063 C 480.979 869.962 480.296 837.767 480.652 805.647 z" fill="rgb(253,253,254)" transform="translate(0,0)"></path>
<path d="M 528.01 817.406 C 570.788 829.143 615.023 837.364 657.273 850.663 L 657.294 871.772 L 649.732 869.841 C 630.082 863.879 610.341 858.219 590.517 852.862 C 579.848 849.999 568.85 847.871 558.394 844.304 C 548.136 847.93 537.992 852.154 527.879 856.168 C 527.731 843.248 527.774 830.326 528.01 817.406 z" fill="rgb(253,253,254)" transform="translate(0,0)"></path>
<path d="M 721.271 576.893 L 722.257 577.415 C 724.041 582.073 722.911 668.45 722.882 680.458 C 716.677 677.745 703.536 674.974 696.478 673.272 L 696.744 664.25 C 696.572 646.986 696.571 629.722 696.742 612.458 C 691.217 609.923 684.107 608.329 678.148 606.756 L 678.43 593.767 C 692.094 587.966 707.353 582.34 721.271 576.893 z" fill="rgb(253,253,254)" transform="translate(0,0)"></path>
<path d="M 502.292 590.482 C 515.915 593.437 530.426 597.316 544.027 600.708 C 544.299 623.238 544.286 645.771 543.989 668.301 C 532.44 666.264 514.511 661.156 502.058 658.346 C 501.722 636.19 502.185 612.727 502.292 590.482 z" fill="rgb(248,213,105)" transform="translate(0,0)"></path>
<path d="M 549.188 483.217 C 558.954 486.013 581.601 489.726 589.253 494.159 C 591.692 499.5 590.627 549.864 590.875 559.685 C 587.781 561.218 555.376 551.937 549.143 550.306 C 549.586 528.404 549.156 505.283 549.188 483.217 z" fill="rgb(71,185,162)" transform="translate(0,0)"></path>
<path d="M 595.796 614.341 C 609.616 617.374 623.331 621.02 637.05 624.478 C 637.259 646.708 637.265 668.939 637.067 691.169 C 623.299 688.006 609.562 684.863 595.972 680.993 C 595.402 658.825 595.832 636.523 595.796 614.341 z" fill="rgb(248,213,105)" transform="translate(0,0)"></path>
<path d="M 502.001 710.195 C 515.784 714.427 530.154 717.072 544.088 720.894 L 544.015 785.688 C 536.327 786.547 510.289 777.639 501.504 775.247 C 501.519 753.562 501.685 731.878 502.001 710.195 z" fill="rgb(71,185,162)" transform="translate(0,0)"></path>
<path d="M 549.517 602.709 C 563.242 605.791 576.908 609.129 590.508 612.723 C 590.409 635.182 590.475 657.641 590.706 680.099 C 579.765 678.111 561.34 672.867 549.76 670.051 C 548.505 657.065 549.571 617.293 549.517 602.709 z" fill="rgb(248,213,105)" transform="translate(0,0)"></path>
<path d="M 531.87 418.05 L 532.491 418.452 C 534.071 420.703 533.713 425.122 533.758 428.139 C 508.886 437.145 486.148 447.397 478.951 475.533 C 473.155 498.195 475.623 521.34 475.35 544.464 C 474.988 575.171 475.941 606.005 475.139 636.694 C 472.528 636.715 466.772 634.662 463.976 633.788 L 463.901 547.858 C 463.695 512.061 457.879 467.62 486.933 441.277 C 499.944 429.48 515.673 424.005 531.87 418.05 z" fill="rgb(253,253,254)" transform="translate(0,0)"></path>
<path d="M 503.96 470.596 C 512.036 474.059 534.388 479.221 543.995 481.628 C 545.25 497.509 544.066 531.656 543.983 548.955 L 503.776 539.339 C 503.682 516.424 503.744 493.51 503.96 470.596 z" fill="rgb(71,185,162)" transform="translate(0,0)"></path>
<path d="M 549.141 722.518 C 563.031 725.328 577.011 728.671 590.644 732.538 C 590.216 754.254 589.729 776.623 590.938 798.302 C 587.469 799.132 555.43 789.348 549.455 787.874 C 550.606 766.476 549.74 743.983 549.141 722.518 z" fill="rgb(71,185,162)" transform="translate(0,0)"></path>
<path d="M 595.846 733.579 C 609.357 737.591 623.13 740.906 636.77 744.466 C 637.13 766.458 636.95 788.491 637.021 810.488 C 623.4 806.613 609.656 803.181 595.812 800.199 C 596.143 778.01 595.863 755.772 595.846 733.579 z" fill="rgb(71,185,162)" transform="translate(0,0)"></path>
<path d="M 595.947 494.509 C 609.46 497.724 622.244 501.897 635.879 504.665 C 636.206 526.754 635.972 549.515 636.009 571.656 C 625.929 570.089 607.159 564.78 595.837 562.32 C 596.175 539.969 595.931 516.923 595.947 494.509 z" fill="rgb(71,185,162)" transform="translate(0,0)"></path>
<path d="M 1518.66 594.988 C 1528.01 595.681 1583.1 593.117 1587.2 596.698 C 1588.37 608.027 1580.92 607.884 1572.46 609.907 C 1555.65 613.923 1542.96 607.657 1532.2 623.061 C 1532.99 627.027 1533.76 630.997 1534.51 634.972 C 1537.99 638.347 1539.48 641.28 1543.73 645.164 C 1550.34 652.507 1554.06 653.403 1563.07 657.367 C 1568.15 656.957 1574.51 656.012 1579.67 655.38 L 1570.5 664.772 C 1559.7 666.652 1530.82 666.167 1518.51 666.21 C 1518.87 642.471 1518.92 618.728 1518.66 594.988 z" fill="rgb(253,253,254)" transform="translate(0,0)"></path>
<path d="M 498.808 899.915 C 499.769 901.302 499.477 902.639 499.508 904.303 C 502.548 909.437 586.313 930.94 598.827 934.422 C 618.402 927.869 637.433 919.761 657.08 913.345 L 657.05 953.158 L 656.335 955.302 C 651.623 957.17 494.925 913.941 477.553 909.89 C 484.367 906.07 491.671 903.078 498.808 899.915 z" fill="rgb(253,253,254)" transform="translate(0,0)"></path>
<path d="M 1591.25 471.932 C 1592.88 468.343 1590.23 463.497 1589.38 458.688 C 1586.71 443.618 1595.11 423.981 1610.43 418.427 C 1629.88 411.377 1644.73 422.467 1656.37 437.527 C 1639.66 451.15 1614.52 471.5 1592.18 473.39 L 1591.25 471.932 z" fill="rgb(248,213,105)" transform="translate(0,0)"></path>
<path d="M 1522.2 471.561 C 1529 473.871 1566.14 469.955 1571.61 472.192 L 1572.18 474.076 L 1570.64 476.416 C 1566 479.324 1520.94 477.982 1512.65 477.988 C 1514.11 500.736 1512.98 535.512 1512.9 559.132 C 1537.91 559.372 1568.78 558.372 1592.95 559.536 L 1592.83 523.582 C 1593 511.449 1593.05 499.315 1592.96 487.181 L 1600.1 498.231 C 1599.77 520.783 1600.28 543.322 1599.86 565.922 C 1568.91 566.363 1537.27 565.976 1506.22 566.108 C 1505.46 535.436 1506.34 502.442 1506.19 471.512 L 1522.2 471.561 z" fill="rgb(253,253,254)" transform="translate(0,0)"></path>
<path d="M 1511.5 696.323 C 1520.95 696.74 1531.31 697.04 1540 701.204 L 1539.24 702.029 C 1530.19 702.923 1521.54 702.846 1512.52 701.678 L 1512.55 784.701 L 1593.21 784.624 C 1593.27 760.312 1593.46 736 1593.77 711.69 C 1593.9 708.775 1594.12 706.29 1592.79 703.584 C 1591.22 703.127 1590.04 702.92 1589.02 701.539 C 1590.13 699.593 1591.21 698.291 1593.45 697.575 C 1595.83 696.818 1597.15 697.298 1599.13 698.453 C 1601.87 704.201 1600.13 778.503 1600.12 791.294 C 1569.01 792.921 1537.22 791.646 1506.06 791.58 C 1505.93 760.577 1506.13 729.551 1505.65 698.553 C 1507.47 696.511 1508.88 696.73 1511.5 696.323 z" fill="rgb(253,253,254)" transform="translate(0,0)"></path>
<path d="M 1613.35 601.238 L 1615.05 601.243 C 1619.99 603.776 1621.67 608.026 1623.86 612.938 C 1611.39 624.722 1598.94 637.315 1586.17 648.699 C 1582.98 651.538 1579.16 650.387 1574.65 649.835 C 1576.39 645.338 1578.35 639.143 1577.71 634.271 C 1569.15 633.544 1574.16 653.464 1554.06 646.95 L 1553.65 646.518 C 1554.27 644.196 1564.4 643.86 1565.66 641.686 C 1576.7 622.534 1543.03 624.122 1537.68 623.592 C 1540.7 614.281 1554.56 619.508 1561.86 617.634 C 1580.96 612.727 1595.59 610.459 1613.35 601.238 z" fill="rgb(253,253,254)" transform="translate(0,0)"></path>
<path d="M 480.383 789.643 C 512.749 797.131 544.824 806.503 577.008 814.77 C 603.233 821.507 630.323 826.995 656.068 835.374 C 657.847 838.024 657.361 842.297 657.362 845.417 C 633.669 837.604 608.524 832.508 584.315 826.373 C 549.871 817.644 515.595 808.18 480.908 800.433 L 480.383 789.643 z" fill="rgb(253,253,254)" transform="translate(0,0)"></path>
<path d="M 486.593 673.931 C 525.627 684.281 565.249 693.522 604.5 703.096 C 621.519 707.247 640.348 709.938 656.65 716.24 C 656.766 716.503 656.893 716.76 656.997 717.027 C 657.998 719.588 657.434 723.086 656.252 725.463 L 653.618 725.765 C 634.488 719.763 614.3 715.649 594.84 710.758 C 556.845 701.184 518.911 691.37 481.04 681.315 L 480.016 679.483 C 481.624 676.499 483.747 675.704 486.593 673.931 z" fill="rgb(253,253,254)" transform="translate(0,0)"></path>
<path d="M 324.492 502.91 C 325.842 504.378 329.047 510.244 330.235 512.29 C 327.778 518.866 325.846 523.495 321.008 528.595 C 324.691 536.907 336.731 555.23 348.033 549.015 C 349.393 546.438 349.177 547.643 348.267 544.131 C 345.099 542.071 344.877 543.484 339.461 543.899 C 333.593 541.445 331.086 536.532 327.866 531.235 C 329.263 528.254 332.596 519.507 334.785 518.283 C 342.251 525.968 337.767 528.021 352.903 539.311 C 353.869 557.231 349.732 568.144 344.616 585.399 C 338.233 580.33 331.769 575.364 325.226 570.501 C 323.715 555.281 321.015 544.124 317.355 529.437 L 302.145 530.501 C 308.623 514.801 309.819 511.815 324.492 502.91 z" fill="rgb(253,253,254)" transform="translate(0,0)"></path>
<path d="M 480.662 552.529 C 517.226 560.912 554.599 571.067 591.194 579.931 C 609.738 584.423 638.674 590.394 655.883 596.101 C 657.407 598.113 657.03 602.582 657.062 605.365 C 609.196 594.442 561.684 581.04 513.858 569.811 C 503.512 567.382 491.866 564.778 481.876 561.53 C 480.356 559.208 480.719 555.521 480.662 552.529 z" fill="rgb(253,253,254)" transform="translate(0,0)"></path>
<path d="M 509.866 443.511 C 513.817 444.209 518.49 453.765 520.578 457.285 C 513.11 460.428 505.677 463.655 498.282 466.966 C 499.171 484.372 499.612 518.094 498.146 535.235 C 495.785 538.348 495.403 537.783 491.319 539.574 L 480.922 543.689 C 480.644 527.013 479.674 504.462 481.55 488.016 C 484.009 466.451 493.188 455.886 509.866 443.511 z" fill="rgb(253,253,254)" transform="translate(0,0)"></path>
<path d="M 495.917 778.881 C 500.266 781.561 626.634 813.793 642.933 816.993 C 647.361 814.632 652.272 813.018 656.954 811.222 C 657.053 816.468 658.227 824.065 656.206 828.806 L 653.746 829.004 C 596.974 814.281 539.925 800.441 483.338 785.033 L 495.917 778.881 z" fill="rgb(253,253,254)" transform="translate(0,0)"></path>
<path d="M 650.802 880.052 L 651.876 880.195 C 655.02 884.526 652.831 903.714 652.673 909.764 C 635.374 914.789 618.559 921.949 601.573 927.963 L 600.877 927.757 C 598.836 924.913 599.901 904.21 599.889 899.21 C 617.032 893.242 633.724 886.18 650.802 880.052 z" fill="rgb(248,213,105)" transform="translate(0,0)"></path>
<path d="M 720.546 500.238 L 721.805 499.997 L 722.936 500.932 C 722.829 522.298 722.874 543.665 723.073 565.031 L 702.243 559.47 C 700.621 558.99 698.916 558.186 697.345 557.502 C 695.03 553.467 696.551 515.718 696.235 506.812 C 706.009 503.743 710.264 502.352 720.546 500.238 z" fill="rgb(253,253,254)" transform="translate(0,0)"></path>
<path d="M 1506.12 583.125 L 1566.71 583.094 C 1576.63 583.069 1591.66 582.603 1600.89 583.648 C 1600.48 589.711 1600.59 600.432 1595.29 604.294 L 1594.3 603.423 C 1592.21 599.404 1592.8 594.491 1592.89 589.879 C 1567.43 589.663 1538.33 589.427 1513.03 590.135 L 1513.06 634.25 C 1512.89 646.741 1512.85 659.234 1512.94 671.727 L 1561.28 671.329 C 1541.79 682.004 1527.74 678.498 1506.14 678.152 L 1506.12 583.125 z" fill="rgb(253,253,254)" transform="translate(0,0)"></path>
<path d="M 348.696 491.719 C 351.786 492.131 353.48 492.069 355.817 494.213 C 356.447 498.209 354.156 502.5 352.679 506.868 C 377.512 489.296 370.591 494.295 395.792 505.491 C 391.407 515.209 388.834 520.183 381.723 528.085 C 369.04 543.922 345.004 533.66 341.702 515.939 C 345.441 514.125 347.015 513.537 349.982 510.667 C 352.254 502.832 346.964 505.452 344.677 498.783 C 345.03 495.148 346.175 494.377 348.696 491.719 z" fill="rgb(253,253,254)" transform="translate(0,0)"></path>
<path d="M 480.617 686.645 C 492.313 690.238 504.35 693.014 516.205 696.059 C 509.395 698.632 502.837 702.019 496.27 705.157 C 495.377 727.574 496.17 750.335 495.979 772.792 C 492.854 776.422 484.708 779.133 480.21 781.436 L 480.617 686.645 z" fill="rgb(253,253,254)" transform="translate(0,0)"></path>
<path d="M 1649.82 461.721 C 1660.59 465.463 1653.62 490.828 1651.22 499.082 C 1648.16 509.606 1642.87 512.678 1634.5 518.77 C 1623.2 514.58 1618.53 510.09 1611.04 501.359 C 1606.77 496.406 1599.9 485.862 1596.66 480.096 C 1601.37 478.671 1604.48 477.483 1609.02 475.579 C 1619.65 483.698 1633.57 487.796 1646.83 481.771 C 1655.42 477.87 1647.59 468.662 1649.82 461.721 z" fill="rgb(253,253,254)" transform="translate(0,0)"></path>
<path d="M 490.137 661.203 C 522.183 666.908 554.099 676.361 585.747 684.098 C 608.811 689.736 633.553 693.834 655.965 701.504 C 657.736 703.852 657.153 707.44 657.126 710.274 C 623.857 702.941 590.827 694.337 557.76 686.153 C 535.662 680.685 513.132 675.994 491.341 669.418 C 489.433 667.125 490.14 664.139 490.137 661.203 z" fill="rgb(253,253,254)" transform="translate(0,0)"></path>
<path d="M 1562.73 676.067 C 1563.36 675.914 1563.9 675.876 1564.53 676.041 C 1570.31 677.56 1580.78 692.812 1584.08 698.08 C 1574.19 715.335 1565.87 725.545 1547.51 734.291 C 1549.26 731.657 1551.45 728.76 1552.35 725.705 C 1552.86 723.987 1553.05 723.551 1552.19 721.902 C 1549.15 721.819 1546.85 724.254 1544.62 726.059 L 1543.46 727.27 L 1542.09 727.229 L 1541.88 725.226 C 1544.24 721.431 1546.08 717.404 1547.99 713.372 C 1544.72 712.964 1537.42 719.112 1534.68 721.052 C 1537.55 715.854 1541.39 711.467 1544.76 706.614 C 1547.1 703.251 1550.12 697.954 1549.38 693.71 C 1547.03 692.347 1542.29 694.326 1539.49 694.927 L 1538.32 694.031 C 1541.98 686.465 1555.51 679.837 1562.73 676.067 z" fill="rgb(253,253,254)" transform="translate(0,0)"></path>
<path d="M 498.165 542.015 C 501.5 544.02 521.112 548.552 526.296 549.864 C 551.391 556.213 577.408 562.684 602.491 568.896 C 611.659 571.167 649.573 579.072 656.239 582.603 C 657.327 585.382 657.189 585.851 656.666 588.819 L 655.111 589.852 C 652.145 589.272 649.19 588.639 646.247 587.955 C 592.671 575.05 536.359 559.759 483.276 547.923 L 498.165 542.015 z" fill="rgb(253,253,254)" transform="translate(0,0)"></path>
<path d="M 480.886 567.007 C 492.961 569.755 504.985 572.727 516.95 575.923 C 510.756 578.507 504.011 582.234 497.999 585.386 C 496.904 594.08 497.14 607.645 497.041 616.753 L 496.987 634.329 C 491.233 635.885 487.129 638.937 481.68 635.868 C 480.108 629.552 480.86 576.56 480.886 567.007 z" fill="rgb(253,253,254)" transform="translate(0,0)"></path>
<path d="M 678.475 919.341 C 689.622 921.836 701.317 924.231 712.173 927.721 C 716.347 929.062 720.797 930.826 722.833 934.964 C 723.424 936.165 723.219 938.121 722.71 939.322 C 720.416 944.743 713.262 946.57 708.247 948.582 C 698.262 952.409 688.335 956.386 678.47 960.511 C 678.287 946.86 677.604 932.96 678.475 919.341 z" fill="rgb(253,253,254)" transform="translate(0,0)"></path>
<path d="M 640.797 505.336 C 647.622 507.419 655.259 509.33 662.2 511.222 L 661.996 511.747 C 654.528 531.393 656.76 551.99 656.929 573.25 C 657.075 574.737 656.796 574.918 656.084 576.237 C 652.079 576.652 645.269 574.095 641.146 572.831 C 641.323 550.332 641.206 527.832 640.797 505.336 z" fill="rgb(71,185,162)" transform="translate(0,0)"></path>
<path d="M 1851.23 949.569 L 1919.55 949.306 C 1930.1 949.223 1942.99 947.689 1953.31 949.471 L 1954.59 951.506 C 1954.6 953.887 1954.43 955.455 1953.32 957.593 C 1952.87 958.446 1951.93 958.447 1951.04 958.711 C 1923.55 959.052 1896.04 958.183 1868.56 958.003 C 1859.91 957.946 1851.1 959.159 1842.48 958.735 C 1839.71 958.599 1837.38 958.276 1835 956.753 C 1834 954.446 1834.24 954.232 1834.97 951.783 C 1838.3 948.782 1846.58 949.69 1851.23 949.569 z" fill="rgb(71,185,162)" transform="translate(0,0)"></path>
<path d="M 1553.17 956.087 C 1569.77 957.688 1662.13 953.944 1667.76 957.508 C 1667.73 958.548 1667.66 959.588 1667.34 960.588 C 1666.59 962.955 1665.25 964.274 1663.13 965.325 C 1624.93 965.761 1586.64 965.823 1548.44 965.477 C 1549.86 962.246 1551.46 959.176 1553.17 956.087 z" fill="rgb(78,121,123)" transform="translate(0,0)"></path>
<path d="M 655.898 619.32 C 658.521 621.979 656.954 687.955 656.946 696.106 C 653.823 695.48 650.653 694.895 647.606 693.962 C 645.249 693.24 643.991 693.309 642.805 691.084 C 641.93 669.179 641.599 646.153 643.031 624.266 L 655.898 619.32 z" fill="rgb(248,213,105)" transform="translate(0,0)"></path>
<path d="M 654.813 739.044 L 656.18 739.139 C 658.364 742.95 656.809 796.277 656.793 804.86 C 652.512 807.103 647.995 808.987 643.596 810.99 L 642.435 810.592 C 640.416 799.566 642.069 758.706 641.999 744.643 C 646.146 742.556 650.54 740.862 654.813 739.044 z" fill="rgb(71,185,162)" transform="translate(0,0)"></path>
<path d="M 619.811 867.163 C 625.539 866.599 642.909 873.126 649.596 874.986 C 632.869 882.191 615.373 888.094 598.282 894.404 C 594.081 895.405 574.98 888.594 569.72 887.118 C 586.244 880.1 603.175 873.929 619.811 867.163 z" fill="rgb(253,253,254)" transform="translate(0,0)"></path>
<path d="M 526.712 880.267 C 532.771 882.127 554.927 886.152 558.243 890.056 C 562.333 894.871 560.519 908.938 560.339 915.249 C 560.196 916.682 560.093 916.598 558.982 917.547 C 548.36 916.26 537.439 911.865 527.007 909.245 C 526.539 899.627 526.769 889.9 526.712 880.267 z" fill="rgb(248,213,105)" transform="translate(0,0)"></path>
<path d="M 394.342 603.396 C 399.805 605.516 405.469 613.496 410.387 617.183 C 422.532 626.288 438.959 634.742 453.548 638.857 C 459.555 640.551 466.002 641.225 472.113 642.708 C 477.515 644.018 490.505 646.562 493.499 651.459 L 492.06 655.161 C 488.563 655.281 479.971 650.818 474.586 649.549 C 448.498 643.402 422.819 637.492 398.603 625.579 C 394.007 623.317 393.527 616.241 392.202 611.635 C 391.035 607.58 392.314 606.526 394.342 603.396 z" fill="rgb(253,253,254)" transform="translate(0,0)"></path>
<path d="M 587.723 857.129 C 595.352 860.531 604.405 861.528 612.3 864.75 C 595.532 871.025 578.918 877.705 562.472 884.783 C 553.098 883.404 543.431 880.316 534.603 876.893 C 552.384 870.507 570.092 863.919 587.723 857.129 z" fill="rgb(253,253,254)" transform="translate(0,0)"></path>
<path d="M 565.641 891.432 C 575.511 893.402 585.556 896.498 595.112 899.625 C 595.146 908.782 595.941 918.665 594.561 927.71 C 584.777 925.597 575.063 922.531 565.404 919.883 C 565.039 910.438 565.491 900.885 565.641 891.432 z" fill="rgb(248,213,105)" transform="translate(0,0)"></path>
<path d="M 370.35 563.598 C 375.835 568.574 386.989 588.804 393.469 596.898 C 388.62 601.104 387.71 601.706 385.125 607.666 C 387.381 612.613 389.394 617.124 391.4 622.201 C 388.264 621.413 387.258 620.773 384.51 619.275 C 379.946 610.345 370.014 603.6 361.972 597.837 C 365.905 585.009 368.353 576.891 370.35 563.598 z" fill="rgb(253,253,254)" transform="translate(0,0)"></path>
<path d="M 690.539 798.118 C 700.48 802.755 713.318 804.899 724.063 807.04 C 716.206 811.494 708.159 815.283 699.952 819.026 L 678.173 828.856 L 678.256 803.097 C 682.465 801.824 686.508 799.867 690.539 798.118 z" fill="rgb(253,253,254)" transform="translate(0,0)"></path>
<path d="M 689.082 617.105 C 690.312 617.069 690.318 617.171 691.302 617.936 C 692.466 636.08 691.096 654.77 691.351 673.005 L 681.257 676.676 L 679.498 676.839 C 677.056 671.583 678.459 629.535 678.407 620.697 L 689.082 617.105 z" fill="rgb(248,213,105)" transform="translate(0,0)"></path>
<path d="M 721.879 813.993 C 721.988 814.101 722.114 814.194 722.206 814.317 C 724.807 817.788 723.282 834.73 723.269 839.692 C 708.98 840.226 694.498 839.641 680.191 839.529 L 678.745 838.405 L 678.595 835.842 C 682.579 830.165 713.545 818.12 721.879 813.993 z" fill="rgb(253,253,254)" transform="translate(0,0)"></path>
<path d="M 557.731 849.903 C 563.362 849.634 572.622 853.385 578.272 854.816 L 527.311 874.562 C 522.035 876.142 512.9 871.907 507.792 870.24 C 523.717 862.228 541.291 856.861 557.731 849.903 z" fill="rgb(253,253,254)" transform="translate(0,0)"></path>
<path d="M 577.847 468.931 C 583.294 468.878 611.616 476.735 618.847 478.48 C 609.847 481.661 602.013 485.086 593.392 489.117 C 580.913 485.796 567.013 482.093 554.457 479.449 L 577.847 468.931 z" fill="rgb(253,253,254)" transform="translate(0,0)"></path>
<path d="M 105.541 898.402 C 116.394 900.301 123.582 935.188 130.841 944.46 C 138.504 954.247 152.365 958.977 160.763 968.146 C 162.642 970.198 162.749 970.654 162.625 973.427 C 161.828 973.228 161.042 972.986 160.271 972.703 C 150.717 969.226 129.457 954.947 123.447 946.533 C 118.69 939.873 115.495 930.248 112.238 922.694 C 109.399 916.11 102.886 905.081 105.541 898.402 z" fill="rgb(71,185,162)" transform="translate(0,0)"></path>
<path d="M 625.562 480.443 C 637.875 484.187 650.722 486.338 662.939 490.771 L 638.289 501.049 C 630.139 497.9 610.554 493.326 601.281 490.925 C 607.711 487.642 618.628 483.399 625.562 480.443 z" fill="rgb(253,253,254)" transform="translate(0,0)"></path>
<path d="M 688.149 742.843 L 689.682 743.037 C 689.865 743.281 690.22 743.71 690.354 744.023 C 691.852 747.531 691.506 788.631 689.926 792.186 C 689.101 794.042 684.513 795.223 682.625 796.003 L 680.037 797.332 L 678.702 796.508 C 677.351 780.576 678.519 763.834 678.651 747.833 L 688.149 742.843 z" fill="rgb(248,213,105)" transform="translate(0,0)"></path>
<path d="M 692.878 677.838 C 702.285 678.528 712.479 682.385 721.548 685.015 C 713.966 688.669 706.346 692.246 698.69 695.746 L 678.246 705.068 L 678.561 683.784 C 683.483 682.167 688.161 679.963 692.878 677.838 z" fill="rgb(253,253,254)" transform="translate(0,0)"></path>
<path d="M 533.276 458.12 C 545.922 461.206 558.595 464.179 571.294 467.039 C 563.349 470.526 554.381 473.843 546.245 477.041 C 534.32 474.426 520.953 470.685 509.014 467.608 C 517.054 464.326 525.142 461.163 533.276 458.12 z" fill="rgb(253,253,254)" transform="translate(0,0)"></path>
<path d="M 691.655 561.717 C 702.196 564.737 712.759 567.676 723.344 570.536 C 715.924 573.435 708.997 576.193 701.722 579.432 C 694.015 582.413 686.227 585.182 678.367 587.735 C 678.508 583.584 678.415 579.274 678.385 575.109 C 682.101 570.986 687.631 565.756 691.655 561.717 z" fill="rgb(253,253,254)" transform="translate(0,0)"></path>
<path d="M 689.864 510.55 C 690.339 510.804 690.985 511.558 691.411 511.99 L 691.11 556.971 C 687.959 558.965 683.537 562.695 680.496 565.106 L 679.471 565.57 L 678.437 564.403 C 682.334 543.673 670.487 530.383 689.864 510.55 z" fill="rgb(71,185,162)" transform="translate(0,0)"></path>
<path d="M 617.599 602.295 C 620.712 601.084 654.592 610.148 660.808 611.781 L 641.278 619.458 C 637.882 620.584 606.023 611.579 600.723 610.123 C 607.399 606.179 610.339 604.852 617.599 602.295 z" fill="rgb(253,253,254)" transform="translate(0,0)"></path>
<path d="M 570.825 589.322 C 583.413 592.272 598.99 595.557 610.992 599.548 C 605.744 601.666 599.224 605.614 594.171 608.462 C 581.457 604.847 566.103 601.555 552.972 598.247 C 558.995 595.468 564.919 592.351 570.825 589.322 z" fill="rgb(253,253,254)" transform="translate(0,0)"></path>
<path d="M 1940.57 916.032 L 1943.16 916.615 C 1943.72 917.786 1944.16 918.058 1943.8 919.388 C 1942.95 922.564 1936.83 926.609 1934.07 928.147 C 1922.93 934.358 1904.81 930.315 1893.17 927.137 C 1892.05 926.778 1890.58 926.387 1889.58 925.722 C 1887.65 924.44 1887.02 922.746 1886.64 920.563 C 1888.28 918.774 1889.16 918.695 1891.62 918.607 C 1910.89 917.926 1920.05 922.927 1940.57 916.032 z" fill="rgb(253,253,254)" transform="translate(0,0)"></path>
<path d="M 524.102 578.103 C 527.45 577.47 558.576 586.142 564.554 587.783 L 547.035 596.054 C 540.956 595.312 514.136 588.157 507.189 586.225 C 513.292 583.56 518.196 581.183 524.102 578.103 z" fill="rgb(253,253,254)" transform="translate(0,0)"></path>
<path d="M 615.74 721.866 C 629.614 723.538 644.047 728.146 657.506 731.938 C 651.519 734.717 645.409 737.272 639.36 739.915 C 626.009 737.848 612.4 732.96 599.085 730.01 C 604.759 727.481 610.277 724.826 615.74 721.866 z" fill="rgb(253,253,254)" transform="translate(0,0)"></path>
<path d="M 521.912 697.968 C 532.074 697.928 552.578 705.348 562.977 708.184 C 557.301 710.755 551.621 713.291 546.088 716.161 C 532.476 711.971 518.37 708.784 504.391 706.081 C 510.404 703.62 516.203 701.078 521.912 697.968 z" fill="rgb(253,253,254)" transform="translate(0,0)"></path>
<path d="M 335.868 917.098 C 337.475 918.381 337.449 919.084 338.028 921.011 C 337.691 922.443 337.179 923.722 336.345 924.936 C 332.184 930.99 325.129 937.139 317.682 938.432 C 313.876 939.093 311.72 938.335 308.646 936.107 C 306.788 934.935 303.856 933.059 302.625 931.166 C 301.253 929.056 301.353 928.129 301.888 925.866 C 306.676 920.838 327.956 919.333 335.868 917.098 z" fill="rgb(253,253,254)" transform="translate(0,0)"></path>
<path d="M 1660.95 490.769 C 1665.64 495.364 1670.73 499.589 1675.68 504.482 C 1669.42 511.051 1665.62 516.852 1660.98 524.573 L 1659.91 524.543 L 1656.87 518.939 C 1656.37 517.678 1655.41 516.978 1654.41 516.032 C 1651.47 515.698 1646.26 518.905 1642.78 520.372 C 1641.77 518.608 1649.92 509.668 1651.55 507.636 C 1658.29 499.215 1650.75 497.03 1660.95 490.769 z" fill="rgb(253,253,254)" transform="translate(0,0)"></path>
<path d="M 568.471 710.053 C 573.084 709.176 602.933 718.149 609.18 719.82 C 604.296 722.552 599.357 725.044 594.312 727.461 C 590.636 728.845 559.307 719.48 553.154 717.989 C 558.436 715.78 563.445 712.789 568.471 710.053 z" fill="rgb(253,253,254)" transform="translate(0,0)"></path>
<path d="M 294.582 956.66 L 358.994 957.511 C 366.371 957.563 374.023 956.658 381.317 956.994 C 383.174 957.079 384.547 957.407 386.007 958.616 C 386.642 959.14 386.477 960.015 386.561 960.801 C 384.646 962.5 383.651 962.15 381.248 962.206 C 353.332 963.109 324.76 963.199 296.843 962.453 C 294.802 960.578 294.995 959.314 294.582 956.66 z" fill="rgb(71,185,162)" transform="translate(0,0)"></path>
<path d="M 504.949 874.42 L 522.027 879.703 C 521.554 888.909 521.9 898.241 521.945 907.461 C 516.3 905.635 510.504 904.285 504.754 902.832 C 505.13 893.387 504.928 883.874 504.949 874.42 z" fill="rgb(248,213,105)" transform="translate(0,0)"></path>
<path d="M 1616.48 921.687 C 1623.93 924.479 1631.14 927.079 1638.96 928.575 C 1645.43 929.811 1663.82 927.089 1667.47 929.223 C 1667.63 931.854 1667.16 931.893 1665.39 933.914 C 1657.07 937.951 1645.48 939.49 1636.33 938.43 C 1630.01 937.699 1623.19 935.776 1619.19 930.47 C 1617.02 927.604 1615.99 925.292 1616.48 921.687 z" fill="rgb(253,253,254)" transform="translate(0,0)"></path>
<path d="M 1577.66 472.512 C 1572.56 445.937 1579.01 433.143 1601.27 418.782 C 1589.23 432.406 1576.24 455.627 1591.25 471.932 L 1592.18 473.39 C 1588.06 473.831 1581.94 472.957 1577.66 472.512 z" fill="rgb(248,213,105)" transform="translate(0,0)"></path>
<path d="M 1644.2 573.594 C 1644.66 573.799 1646.07 574.891 1646.57 575.257 C 1647.39 585.127 1636.35 603.056 1628.35 608.72 L 1627.28 607.485 C 1625.43 604.033 1622.42 600.488 1619.96 597.367 C 1622.17 593.398 1639.71 577.688 1644.2 573.594 z" fill="rgb(253,253,254)" transform="translate(0,0)"></path>
<path d="M 139.799 882.703 C 146.983 888.253 150.596 898.807 158.79 903.867 C 160.423 904.875 162.002 905.961 163.606 907.015 C 163.734 909.595 162.017 910.79 160.437 912.748 L 139.517 906.503 C 136.956 902.582 134.216 897.925 134.25 893.081 C 134.286 887.988 136.337 886.035 139.799 882.703 z" fill="rgb(253,253,254)" transform="translate(0,0)"></path>
<path d="M 407.357 483.747 C 410.849 484.836 419.575 489.804 421.894 493.073 C 422.658 496.618 422.885 495.239 421.142 498.255 C 415.821 501.825 410.702 501.444 404.45 501.402 C 397.779 499.791 391.356 497.288 385.354 493.961 C 394.779 490.335 398.647 488.95 407.357 483.747 z" fill="rgb(248,213,105)" transform="translate(0,0)"></path>
<path d="M 359.199 543.374 C 363.007 545.596 363.512 547.894 365.505 552.05 C 364.818 567.284 362.546 580.077 356.285 593.953 L 349.069 587.982 C 355.238 570.754 358.092 561.487 359.199 543.374 z" fill="rgb(71,185,162)" transform="translate(0,0)"></path>
<path d="M 1577.17 477.787 C 1582.37 477.896 1587.47 477.693 1592.67 477.526 C 1586.11 489.355 1585.18 490.898 1572.58 495.382 C 1569.02 496.01 1564.55 497.194 1561.24 496.132 L 1560.41 494.511 C 1562.69 489.481 1572.68 481.684 1577.17 477.787 z" fill="rgb(248,213,105)" transform="translate(0,0)"></path>
<path d="M 299.886 536.506 C 301.339 536.631 301.843 536.864 303.224 537.268 C 306.718 542.518 307.776 552.506 308.832 558.965 L 300.732 555.189 C 296.111 553.738 292.399 553.205 287.665 552.422 C 291.89 547.16 296.084 542.087 299.886 536.506 z" fill="rgb(253,253,254)" transform="translate(0,0)"></path>
<path d="M 669.526 493.326 C 669.913 493.327 673.027 494.044 673.612 494.172 L 673.931 495.669 C 671.52 500.239 666.123 507.136 660.61 505.923 C 657.253 504.577 651.859 503.125 648.262 502.035 L 669.526 493.326 z" fill="rgb(253,253,254)" transform="translate(0,0)"></path>
<path d="M 309.078 533.981 C 310.206 534.325 311.503 534.915 312.614 535.374 C 316.513 541.917 318.115 557.485 319.213 565.535 C 313.23 563.317 310.989 541.317 309.078 533.981 z" fill="rgb(71,185,162)" transform="translate(0,0)"></path>
<path d="M 1687.89 502.59 L 1689.84 503.34 C 1689.19 505.094 1675.28 515.869 1670.86 521.308 C 1670.16 522.692 1670.66 522.119 1669.18 522.942 C 1669.9 514.659 1680.46 505.517 1687.89 502.59 z" fill="rgb(78,121,123)" transform="translate(0,0)"></path>
<path d="M 1539.73 628.342 C 1543.37 628.038 1547.38 627.904 1551.01 628.28 C 1553.53 628.541 1554.66 628.973 1556.15 630.961 L 1554.79 633.028 C 1551.24 633.377 1546.78 633.939 1543.3 633.356 C 1540.84 632.944 1540.44 632.394 1539.1 630.499 L 1539.73 628.342 z" fill="rgb(253,253,254)" transform="translate(0,0)"></path>
<path d="M 1560.16 635.452 L 1562.68 636.527 L 1563 638.001 C 1559.35 641.459 1552.67 641.804 1547.91 641.743 C 1546.31 640.868 1545.72 640.343 1544.9 638.705 C 1548.53 636.373 1555.78 636.384 1560.16 635.452 z" fill="rgb(253,253,254)" transform="translate(0,0)"></path>
<path d="M 1456.33 577.53 C 1461.93 577.484 1473.41 576.693 1477.85 579.576 C 1480.94 588.309 1480.99 677.965 1476.33 683.538 C 1465.06 685.17 1420.17 684.259 1405.75 684.206 C 1398.02 684.383 1383.4 685.565 1377.12 682.014 C 1374.35 677.451 1374.72 590.514 1376.4 581.412 C 1381.84 575.915 1401.09 577.555 1409.07 577.583 C 1424.82 577.76 1440.58 577.742 1456.33 577.53 z" fill="rgb(6,39,52)" transform="translate(0,0)"></path>
<path d="M 1383.35 583.319 L 1474.07 583.206 L 1474.09 644.492 C 1474.1 652.907 1474.67 671.282 1473.41 678.875 C 1444.35 677.928 1410.15 678.789 1380.71 679.061 C 1382.41 648.45 1379.35 615.989 1381.22 585.296 C 1381.28 584.323 1382.48 583.894 1383.35 583.319 z" fill="rgb(253,253,254)" transform="translate(0,0)"></path>
<path d="M 1388.26 588.974 C 1407.82 590.764 1445.74 589.817 1467.27 590.021 C 1467.03 616.591 1468.14 645.706 1467.2 671.999 C 1463.2 672.73 1446.46 672.388 1441.61 672.375 L 1387.35 672.195 C 1387.26 661.325 1386.03 594.461 1388.26 588.974 z" fill="rgb(6,39,52)" transform="translate(0,0)"></path>
<path d="M 1392.36 594.919 C 1413.33 595.984 1440.63 595.139 1461.97 595.079 L 1461.76 666.865 L 1393.01 667.031 C 1392.92 648.34 1393.86 612.068 1392.36 594.919 z" fill="rgb(253,253,254)" transform="translate(0,0)"></path>
<path d="M 1386.92 691.418 C 1403.45 691.841 1466.6 688.248 1477.41 693.766 C 1478.24 694.831 1478.73 695.72 1479.04 697.038 C 1480.4 702.887 1479.93 783.401 1479.1 791.106 C 1478.88 793.221 1478.13 794.872 1477 796.656 C 1461.32 797.249 1387.56 799.475 1377.45 795.191 C 1376.55 792.781 1376.12 790.374 1375.87 787.817 C 1374.3 771.538 1375.45 754.268 1375.36 737.873 C 1375.3 724.993 1373.82 710.318 1375.49 697.613 C 1375.72 695.81 1376.48 694.542 1377.62 693.152 C 1380.38 691.154 1383.66 691.468 1386.92 691.418 z" fill="rgb(6,39,52)" transform="translate(0,0)"></path>
<path d="M 1380.96 696.898 C 1412.06 697.096 1443.16 697.108 1474.25 696.935 C 1473.09 727.782 1475.88 759.195 1473.71 789.914 C 1472.19 791.741 1471.54 791.423 1469.24 791.699 C 1439.87 791.026 1410.43 791.927 1381.05 791.594 C 1380.85 760.029 1380.82 728.463 1380.96 696.898 z" fill="rgb(253,253,254)" transform="translate(0,0)"></path>
<path d="M 1418.46 702.512 C 1434.71 703 1450.99 702.042 1467.23 702.868 C 1467.31 716.415 1469.78 774.313 1465.85 782.783 C 1458.16 786.932 1440.49 785.138 1431.73 784.453 C 1421.89 784.89 1397.3 787.149 1389.27 782.702 C 1384.78 772.867 1388.24 718.955 1387.13 702.942 C 1397.41 702.284 1408.31 703.965 1418.46 702.512 z" fill="rgb(6,39,52)" transform="translate(0,0)"></path>
<path d="M 1392.83 707.858 C 1415.77 708.886 1439.01 708.087 1461.98 707.992 C 1461.55 731.74 1461.97 755.571 1461.98 779.327 C 1438.96 778.945 1415.9 779.106 1392.87 779.035 C 1392.39 755.331 1393.14 731.576 1392.83 707.858 z" fill="rgb(253,253,254)" transform="translate(0,0)"></path>
<path d="M 1378.98 466.22 C 1393.46 466.326 1468.77 464.181 1476.63 468.209 C 1478.14 468.982 1478.36 469.709 1478.84 471.3 C 1480.04 475.243 1479.92 556.311 1479.44 563.74 C 1479.26 566.492 1478.84 568.786 1477.53 571.238 C 1462.09 570.825 1385.32 573.288 1377.35 568.524 C 1373.26 561.772 1375.94 485.043 1375.71 471.761 C 1375.68 470.036 1377.67 467.556 1378.98 466.22 z" fill="rgb(6,39,52)" transform="translate(0,0)"></path>
<path d="M 1380.2 471.864 C 1410 471.271 1444.3 471.559 1474.06 472.1 C 1474.07 503.054 1474.17 534.61 1473.75 565.533 C 1443.63 566.51 1411.35 565.839 1381.02 565.944 C 1379.73 538.061 1382.92 498.13 1380.2 471.864 z" fill="rgb(253,253,254)" transform="translate(0,0)"></path>
<path d="M 1388.15 477.892 L 1467.01 477.806 C 1466.9 494.489 1466.96 511.173 1467.19 527.855 C 1467.25 535.359 1467.74 551.284 1466.51 558.044 C 1464.25 559.741 1461.29 559.202 1458.25 559.132 C 1434.65 559.3 1411.04 559.293 1387.44 559.114 C 1387.47 547.013 1386.37 485.169 1388.15 477.892 z" fill="rgb(6,39,52)" transform="translate(0,0)"></path>
<path d="M 1392.86 482.912 C 1409.82 483.298 1445.67 484.429 1461.78 482.968 C 1461.59 505.062 1461.61 527.156 1461.83 549.25 C 1461.91 551.532 1461.97 551.425 1460.99 553.464 C 1456.08 554.69 1401.27 553.925 1392.94 553.876 L 1392.86 482.912 z" fill="rgb(253,253,254)" transform="translate(0,0)"></path>
<metadata><recraft-signature>{"signed_by": "recraft", "signature_b64": "bLFt57LNPtz+fQEtltxrYJYgcEsscOpJNs6WJ/9xJ6ZvgWc4yFODsEue2n2jkMsJrYDuMogpwr5NTtdY0QKpCw==", "signing_algo": "Ed25519", "generation_timestamp": 1777312857, "identifier": "d458b583-6442-42dd-9450-0f40b3b6ba24"}</recraft-signature></metadata></svg>