<svg xmlns="http://www.w3.org/2000/svg" height="1024" preserveAspectRatio="none" style="display: block;" version="1.1" viewBox="0 0 2048 1024" width="2048">
<path d="M 0 0 L 2048 0 L 2048 1024 L 0 1024 L 0 0 z" fill="rgb(254,254,253)" transform="translate(0,0)"></path>
<path d="M 182.168 279.387 C 190.242 276.451 213.065 263.377 221.895 258.662 C 250.663 243.455 279.338 228.072 307.917 212.515 L 628.025 41.1532 C 701.388 80.7326 778.237 118.233 850.963 158.709 C 850.019 245.383 850.53 336.466 851.171 423.247 L 1041.1 520.627 C 1037.94 483.843 1036.97 453.768 1039.31 417.281 C 1022.89 405.278 1004.38 395.275 1012.4 371.961 C 1018.59 353.991 1020.34 327.609 1031.44 312.003 C 1035.27 306.629 1051.63 297.252 1057.89 293.419 C 1057.47 289.855 1056.34 284.815 1055.63 281.177 C 1051.11 278.505 1049.89 277.763 1046.15 274.141 C 1029.94 286.7 1015.22 285.711 1001.91 267.866 C 1000.23 265.624 999.723 263.172 1000.4 260.399 C 1003.78 257.317 1011.94 259.724 1016.95 256.425 C 1025.61 250.717 1029.82 244.064 1039 238.496 C 1039 194.273 1099.09 185.611 1114.42 228.943 C 1118.37 231.965 1125.96 237.919 1128.71 242.1 C 1133.98 250.118 1121.44 251.557 1120.07 258.416 C 1119.06 263.451 1121.57 269.688 1120.3 274.335 C 1118.14 282.224 1113.38 285.709 1107.09 289.732 C 1122.28 292.946 1127.77 296.801 1137.04 308.966 C 1145.51 320.084 1146.07 316.441 1154.8 316.59 C 1155.61 316.604 1172.23 326.091 1174.51 327.357 L 1218.17 351.602 C 1217.68 367.337 1217.99 384.175 1218.03 399.996 C 1223.71 404.705 1228.03 408.817 1225.57 416.505 C 1221.22 430.077 1210.2 433.8 1197.94 430.839 C 1183.2 438.333 1168.52 445.95 1153.9 453.691 C 1159.29 503.426 1162.7 524.297 1146.71 572.083 C 1148.55 575.897 1180.23 590.64 1186.45 593.709 C 1189.49 592.061 1193.74 589.403 1196.88 590.172 L 1197.73 591.841 C 1196.14 593.209 1195.29 594.041 1193.87 595.593 C 1195.45 598.404 1197.72 599.252 1200.91 600.863 C 1247.03 624.121 1293.36 647.427 1339.55 670.494 L 1526.29 765.316 L 1582.34 793.749 C 1619.6 812.57 1634.26 819.171 1662.94 850.905 L 1662.16 869.782 C 1651.23 875.709 1640.24 881.524 1629.19 887.226 L 1614.07 879.671 C 1570.27 902.105 1527.06 926.973 1482.96 949.306 L 1482.86 964.085 C 1472.89 970.195 1456.47 977.815 1445.79 983.094 C 1429.62 976.905 1406.79 963.694 1390.67 955.866 C 1346.28 934.31 1299.24 907.039 1254.41 886.873 C 1242.99 892.842 1231.68 899.017 1220.49 905.396 C 1204.27 896.96 1187.97 888.668 1171.6 880.521 C 1171.23 868.313 1171 856.102 1170.92 843.888 L 1020.14 767.112 C 1009.52 771.927 997.38 778.578 987.096 784.119 C 971.638 775.543 954.418 767.345 938.593 758.894 C 938.39 747.487 938.405 736.078 938.637 724.672 C 906.888 709.21 875.851 692.442 844.124 676.902 C 804.293 695.703 758.37 722.786 718.739 743.31 C 618.155 795.401 518.803 851.935 418.287 903.957 C 380.462 886.196 336.658 862.026 298.97 842.547 C 261.678 823.273 218.223 802.289 182.068 782.04 C 181.321 763.547 181.944 741.013 181.975 722.299 L 182.057 612.283 L 182.168 279.387 z" fill="rgb(18,22,36)" transform="translate(0,0)"></path>
<path d="M 1146.71 572.083 C 1141.98 567.345 1147.2 556.692 1149.14 550.614 C 1158.4 521.618 1151.28 492.201 1151.29 462.62 C 1151.29 457.627 1149.18 457.904 1148.83 454.209 L 1151.83 453.944 L 1152.5 452.968 L 1153.9 453.691 C 1159.29 503.426 1162.7 524.297 1146.71 572.083 z" fill="rgb(32,31,51)" transform="translate(0,0)"></path>
<path d="M 635.531 51.2627 C 659.851 63.0483 685.865 77.1715 709.986 89.7347 C 749.551 110.269 788.9 131.215 828.028 152.569 L 827.401 154.18 C 827.311 161.077 829.858 156.719 829.104 161.601 C 819.128 168.461 793.9 181.022 781.736 187.759 C 743.672 208.914 705.482 229.84 667.166 250.535 L 489.257 348.116 C 462.389 362.933 436.93 377.756 409.66 392.169 C 341.154 356.487 268.492 321.408 201.129 284.089 C 212.987 276.858 236.276 265.545 249.264 258.711 L 337.823 211.449 L 635.531 51.2627 z" fill="rgb(254,254,253)" transform="translate(0,0)"></path>
<path d="M 630.979 105.842 C 636.169 105.925 703.144 142.125 710.969 147.275 C 712.094 189.414 714.794 180.587 678.042 200.503 C 659.522 210.77 640.932 220.911 622.274 230.926 L 434.355 334.146 C 422.537 328.931 405.764 319.434 393.991 313.197 C 381.604 306.635 363.993 297.982 352.43 290.757 C 352.333 278.664 352.054 266.258 352.65 254.2 C 360.84 250.913 376.687 242.016 384.779 237.692 L 441.84 207.148 L 630.979 105.842 z" fill="rgb(18,22,36)" transform="translate(0,0)"></path>
<path d="M 631.64 122.95 C 636.694 123.466 684.007 149.978 691.84 154.342 C 605.206 199.548 520.136 248.458 434.131 294.18 C 414.232 284.522 392.27 272.453 372.446 262.134 C 398.87 246.3 437.406 227.135 465.459 212.117 L 631.64 122.95 z" fill="rgb(83,184,173)" transform="translate(0,0)"></path>
<path d="M 704.94 153.158 L 705.54 153.753 C 706.466 157.563 705.958 174.444 705.905 179.362 C 698.427 184.242 685.877 190.446 677.747 194.91 L 614.591 229.25 L 438.304 325.995 C 436.348 323.417 437.171 303.365 437.207 298.676 C 525.954 249.259 615.202 200.751 704.94 153.158 z" fill="rgb(254,254,253)" transform="translate(0,0)"></path>
<path d="M 357.841 260.338 L 432.051 298.795 L 431.987 327.509 C 407.156 314.58 382.415 301.475 357.768 288.197 L 357.841 260.338 z" fill="rgb(254,254,253)" transform="translate(0,0)"></path>
<path d="M 630.1 112.139 L 630.541 112.63 C 631.248 115.72 631.317 114.435 630.174 117.498 C 624.737 122.292 377.383 255.311 365.264 259.136 L 362.906 256.696 C 364.094 252.871 387.703 241.674 392.678 239.044 L 451.459 207.882 L 630.1 112.139 z" fill="rgb(254,254,253)" transform="translate(0,0)"></path>
<path d="M 634.965 113.405 C 639.67 114.561 696.544 143.85 701.305 147.923 L 701.169 149.762 C 696.793 151.538 691.365 149.002 687.735 146.417 C 677.484 139.118 636.758 124.094 634.965 113.405 z" fill="rgb(254,254,253)" transform="translate(0,0)"></path>
<path d="M 187.571 283.941 C 200.831 288.772 232.114 306.618 246.465 314.061 L 370.832 378.137 L 371.088 733.75 L 371.226 831.186 C 371.239 839.115 371.777 867.755 370.666 873.473 C 309.452 842.436 248.425 811.032 187.586 779.264 L 187.571 283.941 z" fill="rgb(254,254,253)" transform="translate(0,0)"></path>
<path d="M 561.57 322.924 C 564.873 325.383 561.712 413.112 561.613 423.545 C 560.826 509.955 560.7 596.369 561.234 682.78 C 561.239 706.64 559.774 743.58 562.385 767.329 C 562.904 772.054 571.784 775.935 576.162 777.956 C 639.304 742.547 706.188 710.768 769.208 674.755 C 780.363 668.38 792.202 662.171 803.692 656.388 C 815.63 662.16 826.516 667.937 838.185 674.251 C 786.799 700.103 728.713 731.617 678.424 759.354 L 513.757 847.147 C 483.239 863.623 451.299 881.631 420.397 897.049 L 420.53 401.095 C 467.692 375.307 514.706 349.25 561.57 322.924 z" fill="rgb(254,254,253)" transform="translate(0,0)"></path>
<path d="M 537.134 396.794 L 538.691 397.385 C 541.1 400.751 539.913 435.652 539.909 442.197 L 540.114 520.716 L 539.075 821.699 C 519.705 830.317 497.946 843.839 478.76 853.589 C 470.417 857.83 457.862 866.013 449.268 868.422 L 447.189 867.176 C 444.823 862.175 445.901 747.809 445.914 735.637 C 451.664 731.402 469.693 722.303 477.03 718.399 C 496.081 708.104 515.23 697.991 534.475 688.063 C 535.028 622.994 535.231 557.922 535.085 492.851 L 469.508 528.057 C 463.091 531.288 457.134 534.781 450.919 538.377 L 450.802 690.427 C 474.256 678.558 497.017 665.102 520.691 653.072 L 520.801 593.709 C 509.983 599.188 460.884 628.49 454.665 628.031 L 454.767 625.943 C 458.544 620.253 501.066 600.082 509.581 593.989 C 513.137 591.445 519.507 588.627 524.05 589.747 C 527.97 594.011 526.064 607.121 525.986 613.089 L 525.665 655.754 C 522.404 657.763 518.91 659.453 515.496 661.188 C 492.086 673.086 469.725 686.971 445.985 698.234 C 444.835 671.539 445.673 637.934 445.673 610.869 L 445.919 446.638 C 476.464 430.282 506.87 413.667 537.134 396.794 z" fill="rgb(18,22,36)" transform="translate(0,0)"></path>
<path d="M 532.215 694.868 L 533.039 695.112 C 534.502 697.319 533.946 807.271 533.947 818.453 C 506.822 832.732 479.842 847.284 453.011 862.108 C 452.537 861.987 451.598 861.347 451.119 861.059 C 450.396 820.697 451.04 778.775 451.115 738.299 C 456.835 734.437 471.368 727.033 477.76 723.609 C 495.858 713.927 514.01 704.347 532.215 694.868 z" fill="rgb(254,254,253)" transform="translate(0,0)"></path>
<path d="M 526.738 704.83 C 528.551 706.513 527.983 705.714 528.739 708.08 C 526.505 710.905 465.962 742.539 457.533 747.22 C 455.648 746.702 456.451 747.224 455.283 745.297 C 458.143 740.252 517.169 709.958 526.738 704.83 z" fill="rgb(18,22,36)" transform="translate(0,0)"></path>
<path d="M 526.328 811.748 C 528.42 812.524 527.683 812.059 529.101 813.998 C 527.525 817.313 466.751 848.618 457.126 854.226 L 455.228 853.333 L 454.986 851.603 C 459.953 846.091 515.454 817.573 526.328 811.748 z" fill="rgb(18,22,36)" transform="translate(0,0)"></path>
<path d="M 526.944 768.897 L 528.157 769.792 L 528.461 771.809 C 525.539 775.94 467.377 805.566 457.532 811.071 C 455.657 810.188 456.36 810.879 455.546 808.758 C 458.415 804.322 518.645 773.335 526.944 768.897 z" fill="rgb(18,22,36)" transform="translate(0,0)"></path>
<path d="M 525.697 747.863 L 527.357 748.058 L 528.525 749.571 C 526.939 753.73 466.161 785.218 457.182 790.088 C 455.361 789.76 456.234 790.13 454.734 788.5 C 456.557 784.409 516.701 752.998 525.697 747.863 z" fill="rgb(18,22,36)" transform="translate(0,0)"></path>
<path d="M 527.01 800.91 C 528.415 802.52 528.01 801.599 528.182 803.798 C 524.481 808.393 466.49 838.054 456.649 843.64 L 454.931 843.035 L 454.667 841.474 C 457.292 836.873 517.438 806.036 527.01 800.91 z" fill="rgb(18,22,36)" transform="translate(0,0)"></path>
<path d="M 526.732 779.816 C 527.223 780.021 528.601 781.079 529.12 781.453 L 528.975 783.014 C 520.104 790.542 470.405 814.691 456.847 822.053 L 455.408 820.937 L 455.374 819.259 C 459.163 814.56 516.855 785.176 526.732 779.816 z" fill="rgb(18,22,36)" transform="translate(0,0)"></path>
<path d="M 526.001 736.808 L 527.882 737.384 L 528.476 739.212 C 526.013 743.21 466.666 774.11 457.453 779.132 L 455.327 778.742 L 454.625 777.071 C 457.52 772.947 516.015 742.896 526.001 736.808 z" fill="rgb(18,22,36)" transform="translate(0,0)"></path>
<path d="M 526.337 790.817 C 527.874 791.016 527.614 791.099 529.002 792.104 C 527.615 796.436 510.957 803.587 505.832 806.307 L 456.545 832.575 L 454.466 832.028 L 454.332 830.347 C 459.344 825.243 515.595 796.458 526.337 790.817 z" fill="rgb(18,22,36)" transform="translate(0,0)"></path>
<path d="M 526.184 715.715 L 528.501 716.944 L 528.695 718.549 C 526.428 721.214 464.806 753.761 457.347 757.845 L 455.588 757.913 L 454.669 756.584 C 456.195 751.858 518.181 720.031 526.184 715.715 z" fill="rgb(18,22,36)" transform="translate(0,0)"></path>
<path d="M 526.545 758.87 L 528.411 759.379 L 528.598 761.304 C 525.335 765.144 467.016 795.209 457.751 800.212 C 457.258 800.187 455.87 799.729 455.312 799.565 L 455.379 797.798 C 460.181 793.126 517.053 763.77 526.545 758.87 z" fill="rgb(18,22,36)" transform="translate(0,0)"></path>
<path d="M 527.654 725.986 L 529.07 728.001 C 526.669 732.134 465.935 763.943 456.555 769.087 C 455.128 767.71 455.7 768.556 455.295 766.199 C 459.017 761.43 517.824 730.992 527.654 725.986 z" fill="rgb(18,22,36)" transform="translate(0,0)"></path>
<path d="M 533.778 403.884 C 533.84 403.937 533.914 403.979 533.964 404.043 C 536.79 407.702 535.083 477.181 535.036 487.445 C 507.33 501.985 479.817 516.891 452.506 532.16 C 452.363 532.051 452.2 531.963 452.077 531.832 C 449.115 528.674 450.853 459.309 450.878 449.449 C 478.625 434.47 506.259 419.281 533.778 403.884 z" fill="rgb(254,254,253)" transform="translate(0,0)"></path>
<path d="M 499.501 428.227 C 541.253 421.374 525.913 487.697 484.757 503.275 C 448.934 512.419 452.432 446.809 499.501 428.227 z" fill="rgb(18,22,36)" transform="translate(0,0)"></path>
<path d="M 504.072 432.355 C 535.721 435.147 513.787 490.336 481.454 498.754 C 478.633 498.44 475.427 498.174 472.935 496.798 C 469.235 494.727 466.566 491.206 465.571 487.083 C 460.269 465.439 482.904 437.147 504.072 432.355 z" fill="rgb(254,254,253)" transform="translate(0,0)"></path>
<path d="M 498.286 438.099 C 515.671 435.426 516.882 449.1 512.085 462.063 C 506.403 477.418 499.407 486.678 484.629 494.022 C 468.279 494.473 466.203 482.299 471.032 469.246 C 476.357 454.855 484.493 444.924 498.286 438.099 z" fill="rgb(18,22,36)" transform="translate(0,0)"></path>
<path d="M 500.546 442.833 C 510.693 442.724 511.128 451.592 508.531 459 C 503.37 473.724 496.524 482.72 482.611 489.89 C 462.339 482.109 481.974 454.434 492.985 446.863 C 494.992 445.483 498.322 443.934 500.546 442.833 z" fill="rgb(254,254,253)" transform="translate(0,0)"></path>
<path d="M 514.706 601.853 C 517.62 605.749 516.313 642.844 516.246 650.584 C 505.658 657.705 471.713 675.482 459.424 681.707 C 456.275 677.685 457.678 639.839 457.762 633.054 C 476.409 622.466 495.849 612.144 514.706 601.853 z" fill="rgb(32,31,51)" transform="translate(0,0)"></path>
<path d="M 510.963 609.227 C 512.252 612.013 511.722 642.808 511.686 648.023 C 495.475 656.482 479.407 665.212 463.488 674.209 C 461.462 670.872 462.584 642.235 462.675 635.939 C 477.574 626.936 495.522 617.665 510.963 609.227 z" fill="rgb(83,184,173)" transform="translate(0,0)"></path>
<path d="M 496.648 531.591 C 510.457 534.094 502.019 551.874 492.922 557.696 C 476.175 554.837 487.361 537.609 496.648 531.591 z" fill="rgb(18,22,36)" transform="translate(0,0)"></path>
<path d="M 495.44 537.468 C 502.428 541.001 496.102 548.839 493.197 552.636 L 490.963 551.767 C 487.335 545.964 491.204 541.562 495.44 537.468 z" fill="rgb(83,184,173)" transform="translate(0,0)"></path>
<path d="M 469.11 578.951 C 484.68 578.742 478.473 596.963 468.675 603.348 C 465.033 603.525 463.739 603.106 461.111 600.501 C 457.037 592.181 462.362 583.879 469.11 578.951 z" fill="rgb(32,31,51)" transform="translate(0,0)"></path>
<path d="M 470.41 583.677 C 476.75 587.627 471.411 594.944 467.801 598.574 C 461.031 594.472 466.822 587.442 470.41 583.677 z" fill="rgb(83,184,173)" transform="translate(0,0)"></path>
<path d="M 495.587 565.837 C 511.225 568.05 502.277 583.959 494.441 590.285 C 479.249 590.03 485.148 572.479 495.587 565.837 z" fill="rgb(18,22,36)" transform="translate(0,0)"></path>
<path d="M 494.555 571.274 C 497.988 571.874 498.289 572.998 498.847 575.944 C 497.902 579.967 496.468 581.536 494.032 584.914 L 492.267 584.761 C 489.72 582.988 490.459 584.051 489.756 580.504 C 490.903 575.879 491.602 575.095 494.555 571.274 z" fill="rgb(83,184,173)" transform="translate(0,0)"></path>
<path d="M 467.367 546.846 C 484.104 545.489 477.754 562.203 470.217 569.712 C 466.468 570.291 465.528 570.661 462.224 568.768 C 456.762 561.037 461.776 552.913 467.367 546.846 z" fill="rgb(18,22,36)" transform="translate(0,0)"></path>
<path d="M 469.564 551.372 C 477.452 553.776 470.619 562.368 467.916 565.891 C 460.524 562.321 466.188 555.758 469.564 551.372 z" fill="rgb(83,184,173)" transform="translate(0,0)"></path>
<path d="M 517.837 552.684 C 534.163 554.532 526.288 570.746 517.259 577.179 C 502.761 574.883 509.608 558.77 517.837 552.684 z" fill="rgb(18,22,36)" transform="translate(0,0)"></path>
<path d="M 517.29 558.366 C 520.64 558.671 520.804 560.069 521.759 562.674 C 521.266 567.054 520.688 567.828 518.296 571.603 C 514.693 571.05 514.502 570.167 513.572 567.058 C 514.239 562.781 514.849 562.013 517.29 558.366 z" fill="rgb(83,184,173)" transform="translate(0,0)"></path>
<path d="M 519.271 518.613 C 534.024 522.182 525.53 537.523 516.801 543.508 C 501.737 540.94 510.141 524.347 519.271 518.613 z" fill="rgb(18,22,36)" transform="translate(0,0)"></path>
<path d="M 517.228 524.365 C 520.675 524.512 521.177 525.777 522.135 528.459 C 521.451 532.803 520.482 533.885 517.98 537.556 L 515.942 537.676 C 510.869 534.373 514.728 528.288 517.228 524.365 z" fill="rgb(83,184,173)" transform="translate(0,0)"></path>
<path d="M 621.509 346.767 C 635.925 348.921 648.928 353.717 662.71 358.323 C 692.417 367.433 721.948 377.104 751.288 387.332 C 768.544 393.196 801.593 403.717 817.128 411.255 C 851.735 428.047 886.928 447.429 921.399 465.019 L 1156.74 584.105 C 1262.36 636.655 1367.69 689.798 1472.71 743.533 L 1567.35 791.552 C 1604.04 810.189 1628.57 819.182 1656.48 851.09 L 1628.45 865.972 C 1621.68 859.23 1607.67 845.11 1600.07 840.493 C 1578.5 827.392 1553.4 815.513 1530.81 803.873 L 1377.28 725.666 L 830.438 447.942 C 814.996 439.97 802.036 433.435 785.323 426.725 C 767.07 419.396 745.289 412.52 727.174 404.483 C 726.034 403.977 724.554 397.685 721.943 396.25 C 714.836 392.346 707.367 388.407 700.258 384.64 C 685.72 377.01 671.298 369.16 656.998 361.092 L 624.391 378.813 C 611.103 375.44 595.964 371.853 584.234 364.794 C 596.796 359.326 608.716 351.986 621.509 346.767 z" fill="rgb(246,204,115)" transform="translate(0,0)"></path>
<path d="M 566.688 443.747 L 577.37 438.487 L 589.078 442.557 L 589.055 454.078 C 582.801 457.078 577.841 459.381 571.985 463.102 C 585.237 471.554 599.373 478.178 612.42 486.516 C 630.395 498.003 649.26 513.748 667.978 523.543 C 687.296 533.653 707.412 543.319 726.915 553.172 L 873.39 626.831 L 1203 794.406 L 1354.54 871.281 C 1383.52 885.761 1414.03 899.936 1442.35 915.664 C 1453.87 922.057 1466.52 936.26 1475.34 946.14 L 1446.65 961.189 C 1439.62 954.109 1422.72 936.392 1414.75 931.751 C 1397.22 921.554 1376.5 911.595 1358.16 902.336 L 1243.99 844.861 C 1175.98 809.598 1107.74 774.768 1039.28 740.375 C 996.673 718.537 949.067 693.19 906.123 672.678 C 903.436 674.428 903.051 674.73 899.877 674.664 C 860.339 653.584 816.24 632.304 776.026 611.826 L 777.229 607.191 C 742.267 588.527 705.981 571.267 670.565 553.421 C 644.27 540.171 622.759 520.961 598.462 504.542 C 588.132 497.691 577.356 492.374 566.223 486.993 L 566.688 443.747 z" fill="rgb(246,204,115)" transform="translate(0,0)"></path>
<path d="M 777.229 607.191 C 820.329 628.754 863.294 650.583 906.123 672.678 C 903.436 674.428 903.051 674.73 899.877 674.664 C 860.339 653.584 816.24 632.304 776.026 611.826 L 777.229 607.191 z" fill="rgb(18,22,36)" transform="translate(0,0)"></path>
<path d="M 566.278 548.319 C 570.461 550.051 576.327 553.003 580.374 555.172 C 644.017 589.274 710.911 619.957 773.815 655.175 C 750.574 667.915 727.248 680.501 703.84 692.93 C 657.96 716.784 612.694 741.875 566.492 765.718 C 565.758 742.534 566.255 716.641 566.213 693.312 L 566.278 548.319 z" fill="rgb(83,184,173)" transform="translate(0,0)"></path>
<path d="M 566.175 492.568 C 603.917 510.216 621.529 528.896 655.743 551.138 C 666.987 558.447 692.246 568.86 705.259 575.727 C 728.449 587.964 752.57 600.01 776.026 611.826 C 816.24 632.304 860.339 653.584 899.877 674.664 L 1248.09 852.199 L 1358.63 908.011 C 1376.13 916.89 1395.73 926.355 1412.51 936.068 C 1420.59 940.74 1434.65 956.051 1441.55 963.407 L 1441.71 976.665 C 1418.29 965.327 1390.78 950.243 1367.21 938.177 L 1187.69 846.678 L 925.29 712.644 C 833.794 666.191 741.92 619.556 650.875 572.247 C 625.348 558.982 594.139 533.772 566.027 519.058 L 566.175 492.568 z" fill="rgb(254,254,253)" transform="translate(0,0)"></path>
<path d="M 376.283 380.484 L 415.046 400.904 L 414.999 769.505 L 415.124 857.316 C 415.138 864.388 415.709 891.098 414.519 896.063 C 401.762 889.895 389.107 883.518 376.561 876.934 L 376.283 380.484 z" fill="rgb(83,184,173)" transform="translate(0,0)"></path>
<path d="M 844.276 166.961 L 844.635 167.1 C 846.431 169.299 845.807 209.418 845.818 215.206 L 845.906 420.332 C 834.739 414.534 822.588 407.867 811.042 403.096 L 811.115 304.222 C 811.123 286.547 813.079 259.544 808.232 242.571 C 806.509 236.539 796.4 232.337 790.244 234.839 C 777.948 239.836 765.762 246.889 753.904 253.301 C 732.711 264.7 711.576 276.207 690.5 287.82 C 650.292 310.603 608.52 333.295 567.968 355.576 L 568.194 319.421 L 844.276 166.961 z" fill="rgb(83,184,173)" transform="translate(0,0)"></path>
<path d="M 787.163 240.867 C 791.233 241.9 793.593 247.446 793.916 251.267 C 795.37 268.449 794.614 286.441 794.541 303.675 L 794.529 396.855 C 770.152 388.439 745.723 380.169 721.247 372.046 C 710.629 368.023 696.86 363.959 685.839 360.414 L 685.955 296.031 C 719.366 277.442 754.093 259.557 787.163 240.867 z" fill="rgb(254,254,253)" transform="translate(0,0)"></path>
<path d="M 1557.68 822.964 C 1593.3 840.588 1595.73 841.417 1624.24 868.293 C 1582.44 891.936 1526.04 922.148 1483.33 943.344 C 1479.6 944.725 1475.87 939.404 1473.19 936.471 C 1454.69 916.181 1441.41 908.127 1416.96 897.028 C 1464.01 872.612 1510.92 847.924 1557.68 822.964 z" fill="rgb(254,254,253)" transform="translate(0,0)"></path>
<path d="M 1052.96 567.888 C 1059.36 570.08 1071.33 576.379 1077.72 579.565 C 1092 586.562 1106.16 593.795 1120.19 601.262 C 1073.94 624.168 1027.79 651.756 981.107 675.091 C 976.482 675.185 922.447 646.673 914.21 642.439 C 928.893 635.22 947.75 624.277 962.563 616.327 L 1052.96 567.888 z" fill="rgb(254,254,253)" transform="translate(0,0)"></path>
<path d="M 802.564 439.926 C 809.838 441.074 858.984 468.306 868.23 473.182 C 822.619 498.833 775.347 522.701 729.288 547.898 C 724.874 548.237 670.085 519.482 662.537 515.621 C 706.963 493.562 757.708 463.92 802.564 439.926 z" fill="rgb(254,254,253)" transform="translate(0,0)"></path>
<path d="M 1305.08 694.909 C 1307.46 695 1363.5 723.888 1369.79 726.941 C 1327.12 752.169 1274.66 778.552 1230.44 802.728 C 1208.91 792.535 1186.87 780.748 1165.15 770.22 L 1305.08 694.909 z" fill="rgb(254,254,253)" transform="translate(0,0)"></path>
<path d="M 1472.56 779.933 C 1481.53 782.168 1526.47 806.848 1537.85 812.603 C 1523.57 819.111 1501.84 831.533 1487.29 839.296 C 1457.53 854.897 1427.89 870.717 1398.36 886.755 C 1395.46 887.325 1340.88 858.767 1332.92 854.632 C 1351.04 844.035 1373.32 832.841 1392.06 822.848 C 1418.77 808.323 1445.61 794.017 1472.56 779.933 z" fill="rgb(254,254,253)" transform="translate(0,0)"></path>
<path d="M 1387.62 737.921 C 1393.26 737.429 1444.47 765.404 1453.23 770.015 C 1407.85 793.054 1359.5 819.831 1314.43 844.255 C 1310.79 844.591 1256.66 815.885 1249.69 812.4 C 1294.05 787.23 1342.49 762.105 1387.62 737.921 z" fill="rgb(254,254,253)" transform="translate(0,0)"></path>
<path d="M 887.729 482.948 C 902.08 489.04 937.563 507.843 951.423 515.809 L 811.366 590.328 C 808.357 589.329 796.091 582.969 792.593 581.241 C 777.507 573.855 762.509 566.291 747.601 558.552 L 887.729 482.948 z" fill="rgb(254,254,253)" transform="translate(0,0)"></path>
<path d="M 1222.61 652.727 C 1239.82 659.816 1268.9 675.768 1286.03 684.68 C 1239.73 709.737 1192.39 734.663 1146.46 760.197 C 1124.89 749.527 1103.46 738.6 1082.16 727.417 C 1101.47 718.678 1127.72 703.783 1146.86 693.585 C 1171.01 680.722 1199.24 666.457 1222.61 652.727 z" fill="rgb(254,254,253)" transform="translate(0,0)"></path>
<path d="M 1140.38 611.104 C 1144.1 612.345 1158.06 619.637 1162.03 621.65 L 1203.77 642.876 C 1159.85 668.651 1108.15 692.037 1063.52 717.626 C 1061.88 717.635 1005.7 688.56 999.611 685.418 C 1045.66 661.36 1094.27 633.664 1140.38 611.104 z" fill="rgb(254,254,253)" transform="translate(0,0)"></path>
<path d="M 970.593 525.816 C 984.934 531.236 1019.55 550.166 1034.27 557.741 C 987.885 582.893 941.309 607.691 894.547 632.134 C 874.007 621.2 852.053 610.99 831.146 599.992 C 875.772 575.857 925.76 548.495 970.593 525.816 z" fill="rgb(254,254,253)" transform="translate(0,0)"></path>
<path d="M 1041.29 309.917 L 1042.45 310.72 C 1056.64 320.701 1064.3 337.53 1067.08 354.37 C 1068.36 362.146 1070.94 378.462 1065.79 384.931 C 1064.6 386.454 1062.82 387.406 1060.89 387.554 C 1055.89 387.932 1050.72 383.4 1046.94 380.432 C 1049.82 370.687 1053.4 360.141 1056.52 350.397 L 1055.35 348.571 L 1053.8 348.748 C 1050.1 353.261 1042.95 377.338 1040.7 384.381 C 1053.1 395.632 1062.37 402.824 1075.82 412.301 C 1085.26 418.714 1091.4 423.397 1102.13 427.158 C 1089.29 428.969 1092.1 427.153 1081.92 435.734 C 1061.19 427.319 1035.15 410.676 1019.07 394.748 C 1009.7 385.459 1019.32 363.517 1022.32 351.76 C 1026.79 334.268 1026.33 321.631 1041.29 309.917 z" fill="rgb(254,254,253)" transform="translate(0,0)"></path>
<path d="M 594.257 405.42 C 608.009 410.607 642.339 429.206 655.749 436.257 L 655.668 497.72 C 647.662 495.805 602.873 471.983 593.979 466.955 L 594.257 405.42 z" fill="rgb(254,254,253)" transform="translate(0,0)"></path>
<path d="M 635.707 435.371 C 638.734 435.852 639.186 435.893 641.556 437.801 C 644.812 444.58 642.869 463.017 642.561 471.199 L 640.991 470.233 C 639.799 467.205 639.997 455.477 640.039 451.602 C 640.148 441.5 636.075 445.462 635.707 435.371 z" fill="rgb(81,84,96)" transform="translate(0,0)"></path>
<path d="M 617.921 435.751 L 620.562 434.852 C 619.597 442.708 621.317 454.348 619.41 460.888 L 618.664 461.008 C 617.596 456.87 617.281 440.041 617.921 435.751 z" fill="rgb(18,22,36)" transform="translate(0,0)"></path>
<path d="M 617.921 435.751 C 613.493 433.14 613.374 433.933 611.077 430.021 L 611.42 427.9 C 614.364 426.613 613.049 426.767 616.479 427.602 C 619.488 430.346 620.199 430.31 620.562 434.852 L 617.921 435.751 z" fill="rgb(18,22,36)" transform="translate(0,0)"></path>
<path d="M 718.508 404.987 L 720.12 406.517 C 721.195 423.304 720.376 447.594 720.308 464.925 C 702.357 473.792 679.484 487.209 661.545 497.089 C 659.916 494.327 660.438 443.858 660.426 436.786 C 679.038 426.075 699.578 415.274 718.508 404.987 z" fill="rgb(254,254,253)" transform="translate(0,0)"></path>
<path d="M 1211.64 356.956 C 1214.56 359.179 1212.33 392.997 1212.2 398.284 C 1212.2 398.284 1210.51 400.883 1210.29 401.236 C 1207.34 403.481 1202.86 403.25 1199.04 403.458 C 1192.85 407.553 1197.72 409.973 1196.02 415.496 C 1194.55 420.28 1195.08 419.747 1197.94 423.432 C 1194.81 427.705 1160.69 444.308 1153.48 448.115 L 1150.8 449.445 L 1149.48 448.588 C 1148.16 434.306 1149.15 405.344 1149.23 390.001 C 1165.55 379.777 1194.28 365.25 1211.64 356.956 z" fill="rgb(254,254,253)" transform="translate(0,0)"></path>
<path d="M 1085.85 357.146 C 1101.86 364.198 1127.74 380.087 1144.31 389.077 L 1144.33 449.973 C 1123.37 440.817 1113.47 431.474 1095.42 418.861 C 1093.1 417.238 1088.79 415.159 1086.16 413.702 L 1085.85 357.146 z" fill="rgb(254,254,253)" transform="translate(0,0)"></path>
<path d="M 566.096 525.148 C 571.878 527.322 589.585 538.95 595.368 542.336 C 614.675 553.563 632.415 568.689 652.174 578.941 C 689.642 598.383 727.49 617.137 764.995 636.51 C 771.807 640.029 779.134 643.326 785.506 647.534 L 785.603 649.407 C 784.383 650.013 779.582 652.302 778.489 651.786 C 764.432 645.149 751.047 637.109 737.224 629.975 C 680.422 600.393 623.372 571.286 566.082 542.658 L 566.096 525.148 z" fill="rgb(254,254,253)" transform="translate(0,0)"></path>
<path d="M 1071.98 205.201 C 1092.72 203.929 1100.42 211.304 1110 228.241 C 1099.92 235.275 1089.57 239.606 1078.36 244.37 C 1072.12 246.778 1065.79 247.496 1059.21 248.067 C 1047.34 242.587 1037.68 235.958 1046.46 220.884 C 1051.91 211.527 1061.78 207.557 1071.98 205.201 z" fill="rgb(83,184,173)" transform="translate(0,0)"></path>
<path d="M 679.21 299.875 L 679.831 300.044 C 681.861 302.941 681.179 351.358 681.197 358.796 L 643.642 346.913 L 631.244 343.002 C 630.875 336.905 630.159 334.897 628.24 329.06 C 631.178 324.443 671.231 304.134 679.21 299.875 z" fill="rgb(254,254,253)" transform="translate(0,0)"></path>
<path d="M 725.289 409.622 C 742.848 416.752 763.764 423.81 781.778 430.39 L 759.316 442.623 L 725.219 461.31 L 725.289 409.622 z" fill="rgb(254,254,253)" transform="translate(0,0)"></path>
<path d="M 1541.53 815.933 C 1545.02 815.4 1549.71 818.511 1552.9 820.244 C 1506.13 843.678 1459.38 870.163 1412.51 894.116 C 1409.34 893.862 1405.16 891.372 1402.19 889.855 L 1541.53 815.933 z" fill="rgb(83,184,173)" transform="translate(0,0)"></path>
<path d="M 1457.6 773.003 C 1460.64 773.16 1464.75 775.654 1467.59 777.139 C 1420.74 801.441 1374.49 827.826 1327.52 851.801 C 1326.19 851.645 1319.74 848.423 1318.08 847.636 C 1362.2 822.843 1412.57 796.231 1457.6 773.003 z" fill="rgb(83,184,173)" transform="translate(0,0)"></path>
<path d="M 628.112 47.0278 L 629.064 47.809 L 628.63 49.1413 C 621.396 53.6203 613.561 57.0464 606.038 61.0955 L 560.411 85.9272 L 411.632 165.917 L 274.136 239.658 C 250.604 252.256 218.801 270.278 194.927 281.037 L 193.728 280.506 C 195.416 278.002 200.239 275.883 203.11 274.316 L 465.963 133.767 C 517.266 106.26 576.208 72.1878 628.112 47.0278 z" fill="rgb(212,215,213)" transform="translate(0,0)"></path>
<path d="M 1290.6 687.936 C 1294.38 687.98 1297.47 690.261 1300.81 692.201 C 1255.32 714.913 1205.83 742.915 1160.74 767.211 C 1157.7 767.087 1153.83 764.526 1151.05 762.958 C 1196.64 737.958 1244.55 712.023 1290.6 687.936 z" fill="rgb(83,184,173)" transform="translate(0,0)"></path>
<path d="M 955.24 518.837 C 958.081 519.01 962.705 521.771 965.474 523.201 C 946.016 532.532 924.164 545.057 904.978 555.432 L 826.754 597.251 C 823.892 596.997 819.221 594.261 816.429 592.833 C 861.525 569.913 910.79 543.122 955.24 518.837 z" fill="rgb(83,184,173)" transform="translate(0,0)"></path>
<path d="M 873.638 476.026 L 882.891 480.475 C 836.111 504.403 788.834 531.272 742.07 555.994 L 733.386 550.944 C 780.179 526.645 826.886 500.512 873.638 476.026 z" fill="rgb(83,184,173)" transform="translate(0,0)"></path>
<path d="M 1208.16 645.869 C 1210.62 646.321 1215.73 649.014 1218.25 650.228 C 1171.89 675.163 1125.36 699.782 1078.67 724.081 C 1075.5 724.483 1071.51 721.688 1068.65 720.044 C 1113.88 697.776 1163.24 669.97 1208.16 645.869 z" fill="rgb(83,184,173)" transform="translate(0,0)"></path>
<path d="M 1038.86 560.95 C 1042.16 561.332 1045.09 562.807 1046.81 565.627 C 1034.14 573.77 1011.51 584.913 997.607 592.284 C 968.061 607.834 938.703 623.739 909.54 639.997 L 899.861 635.035 L 1038.86 560.95 z" fill="rgb(83,184,173)" transform="translate(0,0)"></path>
<path d="M 1125.17 604.092 L 1134.93 608.459 C 1090.63 630.158 1040.38 658.558 996.252 682.089 C 992.083 682.435 989.236 680.134 985.621 677.962 C 1031.59 655.681 1079.07 627.684 1125.17 604.092 z" fill="rgb(83,184,173)" transform="translate(0,0)"></path>
<path d="M 1374.38 729.833 C 1376.26 730.371 1382.31 733.514 1384.4 734.539 C 1337.93 759.184 1291.6 784.1 1245.42 809.288 C 1242.27 808.964 1238.46 806.707 1235.53 805.212 C 1282.01 780.443 1328.29 755.316 1374.38 729.833 z" fill="rgb(83,184,173)" transform="translate(0,0)"></path>
<path d="M 792.78 650.913 C 795.7 652.293 795.134 651.506 796.453 653.9 C 794.448 657.128 598.978 760.27 576.142 772.158 C 573.497 770.913 573.875 771.549 572.461 769.437 C 574.265 766.688 618.189 744.457 623.792 741.505 L 713.955 693.2 C 739.509 679.653 767.913 665.285 792.78 650.913 z" fill="rgb(254,254,253)" transform="translate(0,0)"></path>
<path d="M 1176.43 846.955 C 1189.3 852.628 1205.2 861.282 1217.98 867.799 L 1217.93 898.689 C 1204.89 892.623 1189.19 883.942 1176.18 877.219 C 1176.02 867.131 1176.1 857.04 1176.43 846.955 z" fill="rgb(254,254,253)" transform="translate(0,0)"></path>
<path d="M 828.028 152.569 C 834.935 155.449 839.102 157.353 845.622 160.989 C 814.221 177.078 779.991 197.123 748.509 214.31 L 506.572 347.27 C 494.365 353.977 427.18 393.389 417.992 395.172 L 417.358 394.384 C 423.155 389.606 448.32 376.624 456.029 372.405 L 526.822 333.205 L 732.568 220.342 C 767.408 201.195 806.126 180.911 840.175 160.882 C 835.531 157.837 832.818 155.763 827.401 154.18 L 828.028 152.569 z" fill="rgb(174,191,186)" transform="translate(0,0)"></path>
<path d="M 1061.27 254.221 C 1073.7 261.41 1085.27 268.685 1100.5 265.389 C 1105 264.415 1108.77 262.174 1110.63 264.769 C 1111.34 272.885 1107.64 278.997 1103.66 285.713 C 1094.01 301.996 1065.74 294.012 1060.15 278.614 C 1062.57 273.918 1069.4 276.737 1066.53 269.729 C 1063.81 263.083 1061.29 263.53 1059.92 255.781 L 1061.27 254.221 z" fill="rgb(254,254,253)" transform="translate(0,0)"></path>
<path d="M 787.077 432.884 C 789.712 433.284 795.422 436.037 798.128 437.225 C 752.442 460.918 706.299 488.451 661.161 511.049 L 658.481 511.97 C 655.735 511.11 654.439 510.952 652.66 508.607 C 654.771 504.56 773.279 440.938 787.077 432.884 z" fill="rgb(83,184,173)" transform="translate(0,0)"></path>
<path d="M 1099.31 466.807 C 1108.53 479.294 1113.45 540.922 1113.15 556.953 L 1088.76 544.395 C 1092.92 518.936 1095.52 493.662 1098.87 468.103 L 1099.31 466.807 z" fill="rgb(254,254,253)" transform="translate(0,0)"></path>
<path d="M 943.69 727.51 L 984.015 748.415 L 984.005 776.577 C 970.266 769.89 956.654 762.944 943.177 755.745 C 943.061 746.518 943.459 736.774 943.69 727.51 z" fill="rgb(254,254,253)" transform="translate(0,0)"></path>
<path d="M 1054.52 300.811 C 1070.26 323.299 1072.3 322.505 1084.37 350.449 C 1077.49 361.445 1082.9 393.42 1080.9 409.778 L 1067.87 400.989 L 1057.02 392.529 C 1079.04 392.153 1074.26 369.873 1072.02 354.37 C 1069.44 336.573 1060.13 317.744 1045.2 307.162 C 1048.15 305.036 1051.48 302.874 1054.52 300.811 z" fill="rgb(246,204,115)" transform="translate(0,0)"></path>
<path d="M 793.765 238.57 C 806.245 239.695 806.111 251.589 806.133 261.429 C 806.163 274.663 806.108 287.901 806.068 301.135 L 805.897 401.288 C 804.065 400.536 800.095 399.337 799.852 397.404 C 798.97 390.4 799.497 379.619 799.566 372.754 L 799.764 297.965 C 799.799 280.158 802.367 253.602 793.765 238.57 z" fill="rgb(254,254,253)" transform="translate(0,0)"></path>
<path d="M 1106.31 310.124 C 1104.07 305.584 1098.89 299.201 1098.48 296.546 C 1100.6 294.78 1099.57 295.16 1102.36 295.135 C 1107.99 299.677 1118.71 324.614 1117.88 332.137 L 1088.3 349.207 C 1083.6 334.332 1077.92 325.312 1069.58 312.46 C 1085.22 323.076 1097.84 333.839 1106.31 310.124 z" fill="rgb(254,254,253)" transform="translate(0,0)"></path>
<path d="M 1106.31 310.124 C 1104.07 305.584 1098.89 299.201 1098.48 296.546 C 1100.6 294.78 1099.57 295.16 1102.36 295.135 C 1107.99 299.677 1118.71 324.614 1117.88 332.137 C 1113.62 326.389 1109.56 316.859 1106.31 310.124 z" fill="rgb(246,204,115)" transform="translate(0,0)"></path>
<path d="M 1111.44 233.122 C 1117.27 236.233 1121.88 241.29 1126.34 246.048 C 1111.83 257.282 1101.54 264.361 1082.55 260.323 C 1075.05 257.578 1071.5 255.644 1064.46 251.748 C 1081.14 249.274 1096.87 241.195 1111.44 233.122 z" fill="rgb(83,184,173)" transform="translate(0,0)"></path>
<path d="M 566.92 394.231 C 573.978 396.26 582.164 399.471 589.169 402.027 C 589.075 408.717 590.611 432.845 587.347 436.326 L 583.754 435.489 C 579.991 433.95 571.063 429.07 568.076 431.977 L 569.091 435.942 L 568.166 436.965 L 566.657 436.254 C 565.473 427.909 566.673 404.129 566.92 394.231 z" fill="rgb(254,254,253)" transform="translate(0,0)"></path>
<path d="M 567.709 369.229 C 581.273 374.539 599.34 379.45 614.048 384.706 L 605.265 389.696 C 600.366 392.144 595.748 395.036 591.059 397.866 L 567.282 388.905 L 567.709 369.229 z" fill="rgb(246,204,115)" transform="translate(0,0)"></path>
<path d="M 1093.36 430.673 C 1097.85 431.934 1099.49 432.595 1103.72 434.616 C 1107.1 435.335 1110.55 435.608 1112.85 438.035 C 1113.25 440.999 1113.46 439.842 1112.13 442.429 L 1113.1 443.573 L 1112.59 445.944 L 1113.18 446.652 C 1124.75 460.71 1102.99 462.531 1099.31 466.807 L 1098.87 468.103 L 1096.39 466.597 C 1094.95 462.722 1096.72 459.39 1096.72 455.232 C 1084.05 445.173 1080.17 441.806 1093.36 430.673 z" fill="rgb(254,254,253)" transform="translate(0,0)"></path>
<path d="M 1103.72 434.616 C 1107.1 435.335 1110.55 435.608 1112.85 438.035 C 1113.25 440.999 1113.46 439.842 1112.13 442.429 L 1113.1 443.573 L 1112.59 445.944 L 1113.18 446.652 C 1124.75 460.71 1102.99 462.531 1099.31 466.807 L 1098.87 468.103 L 1096.39 466.597 C 1094.95 462.722 1096.72 459.39 1096.72 455.232 C 1102.75 459.287 1101.93 459.406 1107.57 455.589 L 1109.51 457.266 C 1116.35 452.058 1104.81 445.468 1104.32 437.081 L 1103.72 434.616 z" fill="rgb(32,31,51)" transform="translate(0,0)"></path>
<path d="M 1103.72 434.616 C 1107.1 435.335 1110.55 435.608 1112.85 438.035 C 1113.25 440.999 1113.46 439.842 1112.13 442.429 C 1108.95 439.298 1108.38 438.986 1104.32 437.081 L 1103.72 434.616 z" fill="rgb(254,254,253)" transform="translate(0,0)"></path>
<path d="M 1037.57 244.68 L 1039.12 245.507 C 1042.64 255.962 1041.62 260.086 1042.91 270.597 C 1033.62 277.899 1027.76 280.975 1016.25 275.508 C 1010.47 271.195 1008.93 269.255 1004.82 263.659 C 1022.74 261.77 1024.05 257.108 1037.57 244.68 z" fill="rgb(246,204,115)" transform="translate(0,0)"></path>
<path d="M 1117.47 337.943 C 1120.73 338.098 1136.5 347.754 1140.51 350.081 C 1131.71 354.447 1121.67 360.356 1112.98 365.185 C 1110.03 364.836 1094.27 355.769 1090.59 353.752 L 1117.47 337.943 z" fill="rgb(254,254,253)" transform="translate(0,0)"></path>
<path d="M 656.602 404.946 C 659.603 405.474 678.814 416.175 682.934 418.305 C 675.069 422.9 666.45 427.449 658.429 431.87 L 632.265 418.071 C 640.311 413.574 648.424 409.198 656.602 404.946 z" fill="rgb(254,254,253)" transform="translate(0,0)"></path>
<path d="M 1149.41 358.813 C 1152.37 358.73 1169.56 368.978 1173.43 371.161 C 1165.27 375.061 1155.9 380.389 1147.83 384.713 C 1143.48 383.223 1128.49 374.884 1125.01 372.115 C 1133.24 367.857 1141.38 363.422 1149.41 358.813 z" fill="rgb(254,254,253)" transform="translate(0,0)"></path>
<path d="M 691.372 386.191 C 699.466 389.587 709.562 395.391 717.471 399.652 C 710.159 403.723 702.768 407.652 695.303 411.437 C 692.879 411.07 672.906 400.07 668.88 398.121 L 691.372 386.191 z" fill="rgb(254,254,253)" transform="translate(0,0)"></path>
<path d="M 622.953 385.921 C 629.648 390.13 637.549 394.166 644.585 397.948 L 619.543 411.406 C 611.933 407.899 603.489 404.253 596.424 399.883 L 622.953 385.921 z" fill="rgb(254,254,253)" transform="translate(0,0)"></path>
<path d="M 1184.41 339.811 C 1187.86 339.445 1205.42 350.096 1209.42 352.367 L 1187.34 363.73 C 1183.95 364.022 1167.04 353.575 1162.93 351.183 C 1169.56 347.385 1177.56 343.418 1184.41 339.811 z" fill="rgb(254,254,253)" transform="translate(0,0)"></path>
<path d="M 1151.37 320.079 C 1154.32 321.23 1168.99 330.095 1172.59 332.185 C 1165.63 336.104 1157.08 340.26 1149.89 343.999 C 1141.68 340.034 1136.04 337.184 1128.31 332.417 C 1135.22 327.626 1143.8 323.644 1151.37 320.079 z" fill="rgb(254,254,253)" transform="translate(0,0)"></path>
<path d="M 656.941 366.884 C 664.557 371.352 672.397 375.408 680.206 379.528 C 673.305 382.57 664.294 387.563 657.425 391.118 C 653.012 389.582 640.005 381.961 635.253 379.305 L 656.941 366.884 z" fill="rgb(254,254,253)" transform="translate(0,0)"></path>
<path d="M 1063.68 289.907 C 1074.72 297.534 1080.17 300.718 1093.62 300.061 C 1093.36 303.785 1092.73 307.241 1094.27 310.584 L 1095.97 311.076 C 1097.4 310.021 1098.52 309.159 1100.05 308.26 C 1100.69 310.479 1100.18 311.966 1099.75 314.254 C 1098.65 315.95 1097.76 316.96 1096.45 318.501 C 1088.29 321.926 1065.17 305.774 1060.22 299.516 C 1060.96 295.952 1062.26 293.24 1063.68 289.907 z" fill="rgb(254,254,253)" transform="translate(0,0)"></path>
<path d="M 1109.2 295.46 C 1119.05 296.147 1140.01 311.141 1138.77 320.614 L 1135.62 322.575 L 1123.32 329.351 C 1120.4 314.868 1116.82 307.924 1109.2 295.46 z" fill="rgb(254,254,253)" transform="translate(0,0)"></path>
<path d="M 620.387 331.767 C 622.031 331.973 622.681 332.608 624.197 333.49 C 626.55 336.956 627.529 338.461 625.095 342.118 C 612.057 343.55 593.922 354.885 581.565 361.141 C 579.336 360.925 576.71 359.865 575.032 358.3 C 580.033 354.214 612.567 336.293 620.387 331.767 z" fill="rgb(254,254,253)" transform="translate(0,0)"></path>
<path d="M 1223.52 871.087 C 1230.07 873.48 1242.77 880.43 1249.37 883.844 L 1238.39 889.765 L 1222.93 897.936 C 1222.92 891.154 1222.37 877.136 1223.52 871.087 z" fill="rgb(254,254,253)" transform="translate(0,0)"></path>
<path d="M 1476.59 950.959 L 1477.28 951.4 C 1478.97 953.782 1478.56 957.944 1478.59 961.088 L 1448.51 976.737 L 1448 976.717 C 1446.2 974.82 1446.91 972.722 1446.91 969.351 C 1449.29 963.748 1469.82 954.454 1476.59 950.959 z" fill="rgb(83,184,173)" transform="translate(0,0)"></path>
<path d="M 988.868 751.296 C 996.754 754.879 1006.38 760.128 1014.25 764.13 C 1011.86 765.617 1008.23 767.429 1005.66 768.817 L 988.949 777.856 L 988.868 751.296 z" fill="rgb(254,254,253)" transform="translate(0,0)"></path>
<path d="M 1656.95 856.14 C 1658.38 858.459 1658.19 861.543 1657.84 864.107 C 1654.73 870.014 1639.1 876.709 1632.45 880.198 L 1631.3 879.323 C 1630.29 876.233 1630.26 875.852 1630.92 872.67 C 1634.07 867.069 1650.59 859.447 1656.95 856.14 z" fill="rgb(83,184,173)" transform="translate(0,0)"></path>
<path d="M 1217.04 404.736 C 1219.21 406.786 1221.44 408.793 1223.41 411.03 C 1219.15 418.895 1214.23 431.06 1202.6 427.189 C 1204.93 422.787 1210.44 424.035 1209.79 419.412 L 1209.03 414.985 L 1209.15 412.575 C 1205.64 410.524 1204.08 411.445 1200.65 408.531 C 1201.64 407.536 1214.05 405.435 1217.04 404.736 z" fill="rgb(254,254,253)" transform="translate(0,0)"></path>
<path d="M 626.91 381.865 C 632.818 381.237 649.1 393.048 657.542 396.72 C 665.034 392.59 676.361 385.924 683.962 383.179 C 678.156 388.251 667.726 392.146 662.248 397.273 C 661.519 397.955 662.088 399.044 662.4 400.233 C 670.256 403.899 679.375 408.86 686.348 413.974 C 682.911 413.884 631.187 385.258 626.91 381.865 z" fill="rgb(174,191,186)" transform="translate(0,0)"></path>
<path d="M 1048.47 257.454 C 1054.89 258.284 1058.59 262.882 1059.91 269.065 C 1060.63 272.405 1059.69 272.468 1057.79 275.174 C 1048.9 274.845 1044.43 265.531 1048.47 257.454 z" fill="rgb(254,254,253)" transform="translate(0,0)"></path>
<path d="M 1177.97 334.884 L 1179.3 336.284 C 1176.65 338.968 1155.54 349.446 1150.85 351.899 L 1149.85 351.601 C 1152 347.691 1172.79 337.595 1177.97 334.884 z" fill="rgb(174,191,186)" transform="translate(0,0)"></path>
<path d="M 628.585 491.656 C 633.291 492.192 646.39 499.031 650.999 501.667 L 651.372 503.416 C 644.702 506.272 634.219 495.981 628.585 491.656 z" fill="rgb(254,254,253)" transform="translate(0,0)"></path>
<path d="M 651.127 399.778 L 652.046 399.988 L 652.179 400.949 C 647.094 405.035 633.114 412.446 626.865 415.968 L 625.787 415.196 C 626.908 411.862 646.704 402.143 651.127 399.778 z" fill="rgb(174,191,186)" transform="translate(0,0)"></path>
<path d="M 1144.58 352.974 L 1145.28 353.984 C 1142.72 358.005 1124.77 366.544 1119.55 369.213 L 1118.8 368.099 C 1121.13 365.441 1140.21 355.393 1144.58 352.974 z" fill="rgb(212,215,213)" transform="translate(0,0)"></path>
<path d="M 1059.92 255.781 C 1053.98 252.127 1046.51 255.181 1044.08 246.28 L 1044.92 245.898 C 1051.05 249.862 1056.9 251.126 1061.27 254.221 L 1059.92 255.781 z" fill="rgb(83,184,173)" transform="translate(0,0)"></path>
<path d="M 1155.56 354.036 C 1159.61 354.522 1177.43 364.619 1180.41 367.979 C 1176.02 367.472 1157.85 357.749 1155.56 354.036 z" fill="rgb(174,191,186)" transform="translate(0,0)"></path>
<path d="M 1115.2 259.678 C 1120.11 263.107 1114.66 277.189 1112.18 281.326 L 1111.68 281.202 C 1111.73 281.544 1114.98 261.409 1115.2 259.678 z" fill="rgb(174,191,186)" transform="translate(0,0)"></path>
<path d="M 1209.79 419.412 C 1206.35 419.746 1203.78 420.38 1200.84 418.617 L 1201.69 417.072 C 1204.43 415.806 1206.13 415.57 1209.03 414.985 L 1209.79 419.412 z" fill="rgb(254,254,253)" transform="translate(0,0)"></path>
<path d="M 567.404 363.079 C 571.913 363.149 578.747 366.805 582.867 368.905 C 577.616 368.363 571.395 366.679 567.404 363.079 z" fill="rgb(151,159,164)" transform="translate(0,0)"></path>
<path d="M 1560.9 113.81 C 1568.3 116.215 1595.42 130.886 1603.73 135.169 L 1688.67 178.529 L 1688.18 438.232 C 1674.91 446.588 1649.68 458.973 1635.11 466.649 L 1543.84 515.078 C 1541.02 516.859 1539.17 516.117 1536.24 514.696 C 1521.94 507.751 1507.92 500.17 1493.87 492.707 C 1467.76 478.604 1441.43 464.918 1414.88 451.654 C 1414.32 365.803 1415.58 279.389 1414.54 193.666 C 1429.76 184.428 1449.7 174.413 1465.59 165.766 L 1560.9 113.81 z" fill="rgb(18,22,36)" transform="translate(0,0)"></path>
<path d="M 1680.51 313.826 L 1682.3 313.883 C 1683.79 316.692 1683.21 424.449 1683.19 435.453 L 1544.36 509.632 L 1542.7 509.77 C 1541.27 507.039 1541.92 398.953 1542.06 387.395 C 1546.19 384.881 1551.17 382.259 1555.53 380.05 C 1597.41 358.819 1638.56 334.724 1680.51 313.826 z" fill="rgb(254,254,253)" transform="translate(0,0)"></path>
<path d="M 1682.06 185.015 C 1685.2 190.463 1683.15 292.127 1683.1 306.818 C 1637.24 330.256 1588.87 356.681 1543.46 381.358 C 1543.12 380.854 1542.71 380.237 1542.23 379.509 C 1541.62 344.032 1541.89 292.565 1542.01 258.778 C 1557.37 251.78 1575.23 241.773 1590.3 233.719 C 1620.75 217.226 1651.34 200.991 1682.06 185.015 z" fill="rgb(254,254,253)" transform="translate(0,0)"></path>
<path d="M 1672.85 273.754 C 1677.42 276.733 1675.52 295.077 1675.37 301.056 C 1668.61 305.218 1661.33 308.899 1654.29 312.585 L 1652.77 312.044 C 1649.91 308.312 1651.04 291.396 1651.12 285.541 C 1658.68 281.125 1665.02 277.658 1672.85 273.754 z" fill="rgb(18,22,36)" transform="translate(0,0)"></path>
<path d="M 1669.6 281.061 L 1670.3 281.594 C 1671.37 284.571 1670.82 294.706 1670.74 298.508 L 1656.91 305.82 C 1655.28 303.9 1655.85 291.064 1655.87 287.799 L 1669.6 281.061 z" fill="rgb(254,254,253)" transform="translate(0,0)"></path>
<path d="M 1664.45 285.429 L 1666.45 286.502 C 1669.19 291.823 1664.94 298.523 1661.23 302.252 C 1659.63 301.282 1660.13 301.613 1659.26 299.538 C 1659.81 295.53 1662.77 289.351 1664.45 285.429 z" fill="rgb(18,22,36)" transform="translate(0,0)"></path>
<path d="M 1643.48 288.76 C 1646.57 291.951 1645.31 311.444 1645.23 317.078 C 1637.95 321.143 1631.23 324.978 1623.59 328.394 C 1620.49 324.185 1621.76 306.749 1621.92 300.52 C 1628.29 296.706 1636.92 292.014 1643.48 288.76 z" fill="rgb(18,22,36)" transform="translate(0,0)"></path>
<path d="M 1639.44 295.976 L 1640.53 296.893 C 1641.42 301.498 1640.8 309.422 1640.61 314.352 L 1627.44 321.436 C 1625.24 318.705 1626.25 307.674 1626.34 303.569 L 1639.44 295.976 z" fill="rgb(254,254,253)" transform="translate(0,0)"></path>
<path d="M 1419.78 326.112 C 1430.63 330.878 1452.82 342.775 1462.87 348.533 C 1462.49 362.627 1462.94 378.554 1463.03 392.784 C 1468.35 395.75 1483.31 405.613 1489.08 403.028 C 1492.58 399.487 1490.81 370.815 1490.84 363.043 C 1506.22 371.103 1521.93 378.335 1537.16 386.829 L 1537.16 467.576 L 1537.16 510.141 C 1500.29 488.667 1457.19 469.247 1419.71 448.09 L 1419.78 326.112 z" fill="rgb(254,254,253)" transform="translate(0,0)"></path>
<path d="M 1419.68 197.938 C 1431.81 205.335 1450.18 213.965 1463.23 220.546 C 1462.99 236.598 1462.97 252.654 1463.18 268.707 C 1469.07 271.648 1483.74 280.608 1489.15 278.997 C 1490.42 277.513 1491.54 276.48 1491.48 274.224 C 1491.17 261.633 1491.08 248.152 1491.12 235.667 C 1506.51 243.396 1521.83 251.272 1537.08 259.295 C 1537.57 284.017 1537.17 310.105 1537.18 334.932 L 1537.11 381.488 C 1498.43 360.649 1458.6 341.179 1419.7 320.111 L 1419.68 197.938 z" fill="rgb(254,254,253)" transform="translate(0,0)"></path>
<path d="M 1633.66 157.161 C 1638.47 157.073 1674.03 176.445 1680.91 179.987 L 1540.31 254.853 C 1537.78 255.061 1499.9 234.877 1494.07 231.929 C 1529.68 211.711 1566.5 193.212 1602.24 173.168 C 1612.24 167.558 1623.21 161.809 1633.66 157.161 z" fill="rgb(254,254,253)" transform="translate(0,0)"></path>
<path d="M 1561.37 118.829 C 1564.69 119.728 1599.92 138.852 1604.71 141.435 C 1559.73 166.344 1512.99 192.531 1467.46 216.117 C 1462.23 215.977 1429.74 198.35 1422.51 194.564 L 1561.37 118.829 z" fill="rgb(254,254,253)" transform="translate(0,0)"></path>
<path d="M 1610.22 144.313 C 1613.8 145.57 1624.59 151.566 1628.5 153.64 C 1582.01 178.478 1535.68 203.628 1489.53 229.089 C 1484.4 226.777 1476.88 222.355 1471.76 219.533 L 1610.22 144.313 z" fill="rgb(254,254,253)" transform="translate(0,0)"></path>
<path d="M 1468.18 223.411 C 1471.25 224.609 1482.51 231.016 1486 232.899 C 1486.14 246.968 1486.1 261.038 1485.87 275.106 C 1480.78 272.757 1473.14 268.365 1467.97 265.617 C 1467.87 251.548 1467.94 237.479 1468.18 223.411 z" fill="rgb(254,254,253)" transform="translate(0,0)"></path>
<path d="M 1467.55 351.184 C 1473.37 353.616 1480.38 357.659 1486.05 360.746 L 1485.84 399.529 C 1481.88 397.851 1471.9 392.043 1467.66 389.736 L 1467.55 351.184 z" fill="rgb(254,254,253)" transform="translate(0,0)"></path>
<path d="M 1799.84 404.175 C 1792.04 402.519 1775.54 399.386 1771.26 391.739 C 1762.32 375.808 1794.73 372.339 1801.92 367.791 C 1818.55 357.279 1827.49 352.273 1848.01 357.949 C 1876.89 365.939 1873.64 405.983 1862.52 426.866 C 1869.2 446.296 1878 438.008 1890.43 446.25 C 1905.89 456.494 1920.62 482.306 1926.84 499.496 C 1936.76 526.937 1926.43 541.75 1902.45 552.757 C 1902.36 582.913 1906.86 605.278 1905.81 638.321 C 1906 647.389 1904.82 664.081 1905.99 672.406 C 1910.67 705.523 1915.88 738.526 1919.74 771.77 C 1922.26 789.095 1926.35 806.485 1927.06 824.003 C 1927.07 829.777 1921.83 833.326 1916.89 834.718 C 1905.76 837.855 1896.72 831.341 1887.01 826.27 C 1877.2 821.152 1865.44 816.204 1855.56 811.119 C 1853.04 809.82 1852.74 805.528 1847.97 803.452 C 1846.47 806.949 1848.33 807.422 1845.3 812.895 L 1845.62 813.917 C 1849.22 820.14 1850.32 834.485 1851.53 841.567 C 1856.87 867.866 1835.19 871.93 1815.55 859.922 C 1805.81 853.969 1759.39 841.91 1776.44 822.226 C 1782.67 815.039 1800.09 811.845 1810.03 811.906 C 1810.49 811.49 1811.02 811.004 1811.64 810.449 C 1809.93 802.815 1806.04 789.533 1804.71 782.534 C 1801.77 766.273 1796.07 748.873 1794.12 732.566 C 1789.82 696.687 1791.63 654.625 1796.14 618.886 C 1787.9 621.759 1773.33 628.731 1766.96 620.554 L 1766.29 620.232 C 1762.37 618.284 1759.46 617.827 1759.28 612.744 C 1760.79 610.179 1761.99 609.99 1764.72 608.977 L 1766.32 606.43 C 1748.85 599.231 1681 642.284 1671.75 613.083 C 1671.62 610.777 1671.06 609.089 1672.61 607.468 C 1676.38 603.517 1688.95 601.201 1694.38 599.822 C 1689.93 597.387 1686.92 595.753 1684.15 591.314 L 1683.99 589.78 C 1690.15 585.683 1705.35 590.725 1712.25 592.485 C 1733.87 581.424 1755.6 570.577 1777.43 559.945 C 1782.39 537.567 1784.63 514.31 1792.29 492.985 C 1793.56 489.459 1798.28 478.411 1800.48 476.348 C 1816.86 461.062 1820.22 467.863 1817.92 443.765 C 1815.72 441.661 1813.05 443.454 1810.37 442.347 C 1801.57 438.715 1800.05 417.047 1799.87 408.12 C 1799.84 406.805 1799.83 405.49 1799.84 404.175 z" fill="rgb(32,31,51)" transform="translate(0,0)"></path>
<path d="M 1799.84 404.175 C 1792.04 402.519 1775.54 399.386 1771.26 391.739 C 1762.32 375.808 1794.73 372.339 1801.92 367.791 C 1818.55 357.279 1827.49 352.273 1848.01 357.949 C 1876.89 365.939 1873.64 405.983 1862.52 426.866 C 1869.2 446.296 1878 438.008 1890.43 446.25 C 1905.89 456.494 1920.62 482.306 1926.84 499.496 C 1936.76 526.937 1926.43 541.75 1902.45 552.757 C 1902.36 582.913 1906.86 605.278 1905.81 638.321 C 1904.39 639.653 1904.85 639.437 1904.6 642.009 L 1903.92 642.007 C 1904.08 627.737 1904.62 612.772 1903.58 598.521 C 1903.05 591.15 1900.1 585.709 1898.91 578.241 C 1871.23 600.829 1842.94 609.085 1807.89 598.746 C 1803.26 597.383 1801.5 595.898 1799.39 591.68 C 1796.03 591.219 1783.29 596.071 1779.2 597.464 C 1775.04 598.495 1771.47 599.172 1767.7 601.297 C 1763.23 597.959 1764.65 602.329 1756.86 600.514 C 1739.55 605.848 1702.15 621.108 1686.88 618.166 C 1684.92 617.206 1685.26 616.957 1683.86 614.774 C 1681.01 615.15 1680.03 615.491 1677.56 613.998 L 1677.49 610.061 L 1676.58 609.295 C 1674.69 611.262 1674.25 611.946 1671.75 613.083 C 1671.62 610.777 1671.06 609.089 1672.61 607.468 C 1676.38 603.517 1688.95 601.201 1694.38 599.822 C 1689.93 597.387 1686.92 595.753 1684.15 591.314 L 1683.99 589.78 C 1690.15 585.683 1705.35 590.725 1712.25 592.485 C 1733.87 581.424 1755.6 570.577 1777.43 559.945 C 1782.39 537.567 1784.63 514.31 1792.29 492.985 C 1793.56 489.459 1798.28 478.411 1800.48 476.348 C 1816.86 461.062 1820.22 467.863 1817.92 443.765 C 1815.72 441.661 1813.05 443.454 1810.37 442.347 C 1801.57 438.715 1800.05 417.047 1799.87 408.12 C 1799.84 406.805 1799.83 405.49 1799.84 404.175 z" fill="rgb(18,22,36)" transform="translate(0,0)"></path>
<path d="M 1781.31 562.374 C 1784.58 544.555 1791.97 486.547 1807.39 476.131 C 1827.14 462.78 1833.42 496.515 1827.07 509.868 C 1819.49 531.212 1813.04 569.275 1798.9 586.182 C 1784.95 591.852 1769.66 595.231 1756.86 600.514 C 1739.55 605.848 1702.15 621.108 1686.88 618.166 C 1684.92 617.206 1685.26 616.957 1683.86 614.774 L 1690.34 613.324 L 1690.69 611.286 C 1691.9 610.505 1692.44 609.778 1693.38 608.716 L 1692.36 607.376 L 1691.66 605.512 C 1694.91 604.404 1699.65 601.629 1701.35 598.463 L 1702.16 594.069 C 1705.29 595.298 1710.69 597.953 1713.59 596.303 C 1734.43 584.463 1761.21 574.721 1781.31 562.374 z" fill="rgb(254,254,253)" transform="translate(0,0)"></path>
<path d="M 1690.34 613.324 C 1693.2 613.224 1695.75 612.873 1698.3 614.187 C 1696.51 617.374 1690.23 617.75 1686.88 618.166 C 1684.92 617.206 1685.26 616.957 1683.86 614.774 L 1690.34 613.324 z" fill="rgb(18,22,36)" transform="translate(0,0)"></path>
<path d="M 1692.36 607.376 L 1693.38 608.716 C 1692.44 609.778 1691.9 610.505 1690.69 611.286 L 1690.34 613.324 L 1683.86 614.774 C 1681.01 615.15 1680.03 615.491 1677.56 613.998 L 1677.49 610.061 L 1692.36 607.376 z" fill="rgb(18,22,36)" transform="translate(0,0)"></path>
<path d="M 1690.69 611.286 L 1690.34 613.324 L 1683.86 614.774 C 1681.01 615.15 1680.03 615.491 1677.56 613.998 C 1682.53 612.284 1685.56 611.986 1690.69 611.286 z" fill="rgb(212,215,213)" transform="translate(0,0)"></path>
<path d="M 1676.58 609.295 C 1680 607.359 1687.75 605.942 1691.66 605.512 L 1692.36 607.376 L 1677.49 610.061 L 1676.58 609.295 z" fill="rgb(174,191,186)" transform="translate(0,0)"></path>
<path d="M 1686.94 590.586 C 1692.04 591.952 1696.91 593.385 1702.16 594.069 L 1701.35 598.463 C 1700.04 597.237 1689.6 592.04 1686.94 590.586 z" fill="rgb(254,254,253)" transform="translate(0,0)"></path>
<path d="M 1867.6 443.918 C 1871.92 443.513 1875.53 445.315 1879.43 446.986 C 1884.42 455.102 1891.5 462.469 1894.98 471.38 C 1900.88 486.478 1898.52 503.548 1898.22 519.453 C 1898.05 536.782 1897.97 554.112 1897.99 571.442 C 1878.16 591.618 1851.6 599.604 1823.95 596.734 C 1815.37 595.087 1810.24 592.897 1802.64 588.962 C 1807.32 582.212 1813.79 569.953 1815.44 561.986 C 1820.32 538.439 1852.26 480.29 1817.03 469.285 C 1828.44 461.755 1854.63 450.106 1867.6 443.918 z" fill="rgb(246,204,115)" transform="translate(0,0)"></path>
<path d="M 1827.76 360.259 C 1851.82 358.307 1864.21 367.901 1867.31 391.539 C 1857.82 398.324 1851.09 400.248 1839.93 401.489 C 1799.36 404.053 1782.88 369.192 1827.76 360.259 z" fill="rgb(83,184,173)" transform="translate(0,0)"></path>
<path d="M 1886.14 449.565 C 1888.81 450.351 1892.23 452.974 1894.15 454.936 C 1911.65 472.775 1939.46 515.642 1917.94 538.239 C 1912.51 542.44 1908.17 544.645 1902.16 547.907 C 1901.98 536.086 1902.06 520.584 1902.82 509.019 C 1904.72 479.821 1902.12 472.314 1886.14 449.565 z" fill="rgb(254,254,253)" transform="translate(0,0)"></path>
<path d="M 1815.7 403.44 C 1817.14 403.143 1816.98 403.369 1818.57 403.922 C 1817.58 409.381 1818.89 411.487 1823.5 413.752 C 1826.66 413.04 1825.53 413.739 1827.67 410.891 C 1826.26 408.34 1825.27 407.543 1823.25 405.511 L 1824.32 405.04 C 1828.86 406.004 1832.1 405.947 1833.46 410.699 C 1832.59 414.402 1828.58 417.384 1825.88 421.159 L 1827.35 422.384 C 1831.94 422.193 1830.35 420.454 1835.36 418.328 C 1844.49 428.672 1844.24 431.633 1858.51 430.565 L 1860.59 432.731 C 1844.33 438.782 1836.16 442.587 1822.27 452.658 C 1822.76 427.952 1820.58 441.84 1810.26 436.341 C 1805.73 433.924 1804.23 411.503 1803.71 404.676 C 1808.03 404.728 1811.47 404.092 1815.7 403.44 z" fill="rgb(254,254,253)" transform="translate(0,0)"></path>
<path d="M 1797.21 374.007 C 1801.77 378.404 1786.48 386.7 1812.78 401.106 C 1805.12 400.386 1800.38 399.792 1792.88 398.223 C 1786.29 396.107 1780.64 394.981 1776.21 389.59 C 1773.72 380.543 1790.2 376.807 1797.21 374.007 z" fill="rgb(83,184,173)" transform="translate(0,0)"></path>
<path d="M 1845.62 813.917 C 1849.22 820.14 1850.32 834.485 1851.53 841.567 C 1856.87 867.866 1835.19 871.93 1815.55 859.922 C 1805.81 853.969 1759.39 841.91 1776.44 822.226 C 1782.67 815.039 1800.09 811.845 1810.03 811.906 L 1813.74 812.323 C 1814.75 814.608 1814.52 814.97 1814.12 817.559 C 1816.45 820.548 1816.33 822.711 1816.69 826.501 C 1823.92 839.154 1832.92 837.725 1844.59 830.656 C 1845.12 830.336 1844.95 830.423 1845.56 830.347 L 1844.39 828.4 L 1846.61 827.706 C 1847.61 824.011 1844.16 819.553 1845.62 813.917 z" fill="rgb(18,22,36)" transform="translate(0,0)"></path>
<path d="M 1845.56 830.347 C 1846.18 834.366 1849.06 848.832 1846.38 851.497 C 1836.43 861.236 1820.08 849.323 1809.91 844.806 C 1802.11 841.341 1780.9 834.77 1779.79 825.457 C 1783.14 822.539 1790.31 819.503 1794.64 818.459 C 1795.32 821.622 1795.67 822.9 1796.78 825.927 L 1798.42 826.521 C 1801.13 825.216 1801.89 823.044 1803.41 820.312 L 1804.45 820.474 L 1803.07 824.989 C 1804.4 827.953 1803.62 827.365 1806.01 828.744 L 1806.91 827.443 L 1808.18 822.347 L 1809.35 821.662 C 1810.2 824.44 1810.17 825.128 1810.21 828.05 L 1813.8 829.468 L 1816.69 826.501 C 1823.92 839.154 1832.92 837.725 1844.59 830.656 C 1845.12 830.336 1844.95 830.423 1845.56 830.347 z" fill="rgb(83,184,173)" transform="translate(0,0)"></path>
<path d="M 1814.12 817.559 C 1816.45 820.548 1816.33 822.711 1816.69 826.501 L 1813.8 829.468 L 1814.12 817.559 z" fill="rgb(83,184,173)" transform="translate(0,0)"></path>
<path d="M 1778.57 834.98 C 1784.93 839.233 1793.2 842.426 1800.31 845.535 C 1810.91 850.167 1821.23 856.406 1832.23 859.878 C 1835.38 860.871 1841.12 857.879 1845.23 858.627 C 1833.69 865.739 1823.77 858.849 1812.89 853.298 C 1805.51 849.534 1781.61 841.346 1778.57 834.98 z" fill="rgb(125,131,140)" transform="translate(0,0)"></path>
<path d="M 1766.32 606.43 C 1774.07 605.717 1778.11 605.477 1785.66 603.567 L 1785.8 606.906 L 1783.8 610.218 L 1784.92 613.317 L 1786.35 614.252 C 1783.64 617.189 1776.94 617.628 1771.93 619.326 L 1770.49 620.806 L 1766.96 620.554 L 1766.29 620.232 C 1762.37 618.284 1759.46 617.827 1759.28 612.744 C 1760.79 610.179 1761.99 609.99 1764.72 608.977 L 1766.32 606.43 z" fill="rgb(18,22,36)" transform="translate(0,0)"></path>
<path d="M 1766.32 606.43 C 1774.07 605.717 1778.11 605.477 1785.66 603.567 L 1785.8 606.906 C 1780.42 607.475 1769.24 609.296 1764.72 608.977 L 1766.32 606.43 z" fill="rgb(212,215,213)" transform="translate(0,0)"></path>
<path d="M 1784.92 613.317 C 1781.04 612.987 1771.23 614.441 1766.29 614.56 L 1766.32 614.02 L 1783.8 610.218 L 1784.92 613.317 z" fill="rgb(212,215,213)" transform="translate(0,0)"></path>
<path d="M 1785.66 603.567 C 1789.52 604.02 1793.85 604.062 1796.73 606.529 C 1798.54 609.57 1798.3 608.221 1797.71 611.576 C 1794.64 615.487 1792.82 615.337 1787.97 616.618 L 1786.35 614.252 L 1784.92 613.317 L 1783.8 610.218 L 1785.8 606.906 L 1785.66 603.567 z" fill="rgb(254,254,253)" transform="translate(0,0)"></path>
<path d="M 1779.2 597.464 C 1783.29 596.071 1796.03 591.219 1799.39 591.68 C 1799.17 596.471 1799.91 596.56 1797.62 600.011 C 1793.75 601.236 1790.19 599.284 1785.39 599.398 C 1782.82 599.089 1781.57 598.431 1779.2 597.464 z" fill="rgb(254,254,253)" transform="translate(0,0)"></path>
<path d="M 1767.7 601.297 C 1771.47 599.172 1775.04 598.495 1779.2 597.464 C 1781.57 598.431 1782.82 599.089 1785.39 599.398 C 1781.41 600.031 1770.97 602.082 1767.7 601.297 z" fill="rgb(212,215,213)" transform="translate(0,0)"></path>
<path d="M 1786.35 614.252 L 1787.97 616.618 C 1782.08 619.386 1778.34 620.518 1771.93 619.326 C 1776.94 617.628 1783.64 617.189 1786.35 614.252 z" fill="rgb(212,215,213)" transform="translate(0,0)"></path>
<path d="M 1865.37 783.624 C 1864.25 783.851 1863.14 784.14 1862.04 784.488 C 1856.11 786.375 1853.7 787.69 1850.88 793.164 L 1850.43 794.048 L 1849.06 793.028 C 1848.04 789.688 1847.64 764.263 1847.51 758.462 C 1847.18 743.491 1844.19 713.685 1846.7 699.412 C 1850.76 676.292 1869.04 643.436 1877.12 620.439 C 1877.94 618.098 1879 616.806 1881.08 616.048 L 1882.1 617.138 C 1882.52 622.385 1860.35 673.685 1856.93 682.262 C 1863.88 702.426 1869.59 723.509 1875.41 744.032 C 1877.74 752.284 1881.83 773.373 1884.93 779.999 L 1883.64 782.188 C 1875.59 783.937 1873.82 784.112 1865.37 783.624 z" fill="rgb(254,254,253)" transform="translate(0,0)"></path>
<path d="M 1884.93 779.999 L 1885.64 778.06 C 1890.77 780.688 1892.53 784.737 1897.89 786.469 C 1901.03 787.485 1913 785.486 1914.31 786.202 L 1916.39 786.385 C 1920.24 797.202 1907.77 806.544 1896.58 795.687 L 1895.34 794.899 C 1894.53 791.847 1894.36 791.455 1892.56 788.861 L 1890.97 789.001 L 1890.14 790.842 C 1899.24 816.802 1907.74 801.06 1918.78 802.775 C 1922.28 807.233 1921.52 819.406 1916.92 823.512 C 1905.37 827.506 1897.42 818.689 1887.73 813.631 C 1878.93 809.038 1862.94 805.864 1856.97 797.987 C 1855.22 789.56 1863.26 788.434 1869.65 786.678 L 1869.4 785.327 L 1865.37 783.624 C 1873.82 784.112 1875.59 783.937 1883.64 782.188 L 1884.93 779.999 z" fill="rgb(83,184,173)" transform="translate(0,0)"></path>
<path d="M 1884.93 779.999 L 1885.64 778.06 C 1890.77 780.688 1892.53 784.737 1897.89 786.469 C 1901.03 787.485 1913 785.486 1914.31 786.202 L 1916.39 786.385 C 1920.24 797.202 1907.77 806.544 1896.58 795.687 L 1895.34 794.899 C 1894.53 791.847 1894.36 791.455 1892.56 788.861 L 1890.97 789.001 L 1890.14 790.842 C 1889.4 794.048 1889.81 795.177 1887.67 796.584 C 1885.21 794.692 1884.58 794.068 1881.47 793.194 L 1879.54 796.898 L 1877.88 797.22 C 1874.83 794.245 1876.39 794.859 1875.61 789.241 C 1873.73 790.429 1871.92 792.137 1870.23 793.615 L 1868.86 793.185 C 1868.53 791.574 1869.31 788.439 1869.65 786.678 L 1869.4 785.327 L 1865.37 783.624 C 1873.82 784.112 1875.59 783.937 1883.64 782.188 L 1884.93 779.999 z" fill="rgb(18,22,36)" transform="translate(0,0)"></path>
<path d="M 1914.31 786.202 L 1916.39 786.385 C 1920.24 797.202 1907.77 806.544 1896.58 795.687 L 1896.71 791.977 C 1902.15 787.862 1905.77 792.821 1914.31 786.202 z" fill="rgb(254,254,253)" transform="translate(0,0)"></path>
<path d="M 1839.65 816.236 C 1841.63 817.627 1842.46 821.482 1842.16 823.798 C 1838.65 831.231 1830.64 831.943 1823.9 828.657 C 1822.23 825.963 1820.07 822.237 1820.74 819.176 C 1823.92 816.832 1830.25 819.408 1839.65 816.236 z" fill="rgb(254,254,253)" transform="translate(0,0)"></path>
<path d="M 1870.6 812.864 C 1879.33 814.067 1890.72 819.256 1897.39 825.076 C 1894.63 824.606 1874.61 814.76 1870.6 812.864 z" fill="rgb(151,159,164)" transform="translate(0,0)"></path>
<path d="M 1899.21 827.059 C 1911.82 829.199 1910.21 827.718 1921.17 827.36 C 1913.11 832.441 1906.83 832.276 1899.21 827.059 z" fill="rgb(151,159,164)" transform="translate(0,0)"></path>
<path d="M 1852.33 800.815 C 1856.92 804.853 1863.39 808.123 1868.79 811.158 C 1860.74 810.303 1856.69 807.489 1852.33 800.815 z" fill="rgb(125,131,140)" transform="translate(0,0)"></path>
<path d="M 1547.25 560.458 L 1548.88 562.008 L 1548.17 563.562 C 1544.96 565.266 1540.89 565.407 1537.23 565.795 L 1535.28 564.334 L 1535.8 562.88 C 1539.05 561.244 1543.56 560.937 1547.25 560.458 z" fill="rgb(18,22,36)" transform="translate(0,0)"></path>
<path d="M 1344.84 512.054 C 1346.23 514.067 1345.95 513.093 1345.68 515.693 C 1343.3 518.001 1338.72 518.614 1335.33 519.389 C 1334.22 517.557 1334.59 518.574 1334.62 516.125 C 1336.88 513.638 1341.43 512.934 1344.84 512.054 z" fill="rgb(18,22,36)" transform="translate(0,0)"></path>
<path d="M 1213.1 580.023 C 1214.58 581.284 1214.12 580.866 1214.82 582.961 C 1213.38 585.746 1209.26 587.297 1206.32 588.749 C 1204.05 587.226 1204.62 588.093 1204.11 585.673 C 1206.03 583.124 1210.09 581.516 1213.1 580.023 z" fill="rgb(18,22,36)" transform="translate(0,0)"></path>
<path d="M 1285.85 540.78 L 1288.55 541.805 L 1288.92 543.624 C 1286.7 546.536 1284.06 547.321 1280.69 548.792 C 1278.41 547.87 1279.24 548.632 1278.13 546.426 C 1279.76 543.68 1282.91 542.415 1285.85 540.78 z" fill="rgb(18,22,36)" transform="translate(0,0)"></path>
<path d="M 1357.22 509.329 C 1361.85 509.092 1364.26 508.442 1367.53 511.313 L 1367.61 514.07 C 1363.56 514.374 1358.78 515.665 1356.49 512.033 L 1357.22 509.329 z" fill="rgb(18,22,36)" transform="translate(0,0)"></path>
<path d="M 1229.85 570.863 C 1230.51 570.767 1232.41 570.896 1233.19 570.925 L 1233.75 572.076 C 1231.99 575.046 1229.1 576.453 1226.14 578.299 C 1225.45 578.233 1223.57 577.673 1222.79 577.464 L 1222.27 576.008 C 1224.17 573.438 1226.94 572.386 1229.85 570.863 z" fill="rgb(18,22,36)" transform="translate(0,0)"></path>
<path d="M 1513.65 562.387 C 1517.68 562.112 1522.92 560.974 1525.79 563.997 L 1525.18 566.563 C 1520.83 566.706 1516.97 567.342 1513.63 564.839 L 1513.65 562.387 z" fill="rgb(18,22,36)" transform="translate(0,0)"></path>
<path d="M 1491.56 560.048 C 1496.67 559.833 1502.26 559.235 1504.03 564.826 C 1498.01 565.473 1493.68 566.521 1491.56 560.048 z" fill="rgb(18,22,36)" transform="translate(0,0)"></path>
<path d="M 1471.94 552.937 C 1476.83 553.017 1479.72 553.18 1482.96 557 L 1482.55 559.817 C 1477.05 558.673 1473.46 558.504 1471.94 552.937 z" fill="rgb(18,22,36)" transform="translate(0,0)"></path>
<path d="M 1305.26 530.899 L 1307.19 531.822 L 1307.72 533.414 C 1305.97 535.932 1302.33 537.255 1299.47 538.619 L 1296.95 538.022 L 1296.69 536.434 C 1298.91 533.667 1302.05 532.483 1305.26 530.899 z" fill="rgb(18,22,36)" transform="translate(0,0)"></path>
<path d="M 1702.07 479.514 C 1704.1 480.225 1704.12 480.335 1705.43 482.131 C 1704.72 484.707 1702.36 485.862 1700.03 487.535 C 1699.3 487.445 1697.38 486.861 1696.56 486.637 L 1695.77 484.951 C 1697.06 482.052 1699.34 481.1 1702.07 479.514 z" fill="rgb(18,22,36)" transform="translate(0,0)"></path>
<path d="M 1267.15 550.606 C 1270.24 551.467 1269.44 550.747 1270.82 553.009 C 1269.45 555.62 1266.57 556.9 1263.92 558.519 C 1261.16 557.784 1261.96 558.406 1260.33 556.414 C 1261.51 553.564 1264.36 552.342 1267.15 550.606 z" fill="rgb(18,22,36)" transform="translate(0,0)"></path>
<path d="M 1435 533.852 C 1440.89 533.742 1444.07 535.547 1446.6 540.702 C 1440.17 541.794 1437.22 539.455 1435 533.852 z" fill="rgb(18,22,36)" transform="translate(0,0)"></path>
<path d="M 1416.88 524.703 C 1422.85 525.569 1426.11 526.374 1427.5 532.329 C 1421.57 531.913 1417.7 530.851 1416.88 524.703 z" fill="rgb(18,22,36)" transform="translate(0,0)"></path>
<path d="M 1736.75 461.431 L 1740.04 462.257 L 1740.97 463.968 C 1739.48 466.582 1737.07 467.43 1734.31 468.9 L 1731.92 468.64 L 1731.19 467.269 C 1732.3 464.2 1734.11 463.281 1736.75 461.431 z" fill="rgb(18,22,36)" transform="translate(0,0)"></path>
<path d="M 1668.69 497.785 C 1670.68 499.222 1670.05 498.286 1670.6 500.692 C 1669.31 503.382 1666.24 504.737 1663.59 506.282 C 1661.39 504.332 1661.94 505.321 1661.34 502.603 C 1662.94 499.839 1665.62 499.149 1668.69 497.785 z" fill="rgb(18,22,36)" transform="translate(0,0)"></path>
<path d="M 1323.94 520.916 C 1325.79 521.993 1325.14 521.226 1325.81 523.402 C 1324.13 525.98 1319.76 527.645 1316.84 529.042 C 1315.14 528.032 1315.81 528.752 1315.13 526.554 C 1316.93 523.752 1320.81 522.387 1323.94 520.916 z" fill="rgb(18,22,36)" transform="translate(0,0)"></path>
<path d="M 1453.99 542.827 C 1459.48 544.084 1464.23 544.648 1463.66 551.014 C 1458.53 549.019 1453.24 548.709 1453.99 542.827 z" fill="rgb(18,22,36)" transform="translate(0,0)"></path>
<path d="M 1378.25 510.239 C 1380.67 510.494 1383.12 510.879 1385.54 511.224 C 1388.52 513.585 1387.57 512.334 1388.83 516.452 C 1384.48 515.931 1380.85 516.062 1378.01 513.02 L 1378.25 510.239 z" fill="rgb(18,22,36)" transform="translate(0,0)"></path>
<path d="M 1718.82 470.379 C 1722.23 471.057 1721.55 470.368 1723.14 472.53 C 1722.02 475.425 1719.65 476.431 1716.91 478.191 C 1715.1 477.786 1714.93 477.488 1713.59 476.273 C 1714.49 473.04 1715.68 472.988 1718.82 470.379 z" fill="rgb(18,22,36)" transform="translate(0,0)"></path>
<path d="M 1630.97 516.359 C 1634.43 516.935 1633.86 516.355 1636.32 518.367 C 1635.6 521.248 1634.62 521.353 1632.12 523.685 C 1628.78 523.55 1629.6 524.071 1627.37 522.344 C 1627.99 518.936 1628.39 519.386 1630.97 516.359 z" fill="rgb(32,31,51)" transform="translate(0,0)"></path>
<path d="M 1685.07 488.521 C 1686.81 489.16 1686.94 489.585 1688.01 491.066 C 1686.64 494.248 1685.83 493.963 1682.4 496.256 L 1679.25 495.619 L 1678.59 493.979 C 1679.92 491.281 1682.49 490.087 1685.07 488.521 z" fill="rgb(18,22,36)" transform="translate(0,0)"></path>
<path d="M 1614.26 525.227 C 1617.69 526.174 1617.57 525.503 1619.13 527.991 C 1618.24 530.57 1616.32 531.421 1613.97 533.019 C 1611.33 532.706 1612.34 533.102 1610.16 531.376 C 1610.88 527.882 1611.42 528.268 1614.26 525.227 z" fill="rgb(18,22,36)" transform="translate(0,0)"></path>
<path d="M 1398.4 516.086 C 1404.48 517.482 1407.2 516.995 1408.61 523.246 C 1403.34 522.441 1398.1 522.12 1398.4 516.086 z" fill="rgb(18,22,36)" transform="translate(0,0)"></path>
<path d="M 1249.41 560.679 C 1251.66 561.454 1250.82 560.747 1251.94 562.954 C 1250.4 565.601 1247.38 566.917 1244.62 568.55 L 1241.99 567.846 L 1241.72 566.422 C 1243.5 563.708 1246.55 562.337 1249.41 560.679 z" fill="rgb(18,22,36)" transform="translate(0,0)"></path>
<path d="M 1582.33 543.607 C 1584.65 544.531 1583.83 543.956 1585.32 546.033 C 1584.53 548.457 1581.9 549.657 1579.59 551.178 L 1576.63 550.588 L 1576.04 549.024 C 1577.53 546.388 1579.75 545.311 1582.33 543.607 z" fill="rgb(18,22,36)" transform="translate(0,0)"></path>
<path d="M 1755.51 452.775 L 1758.27 453.524 L 1759.05 455.028 C 1757.56 457.696 1755.28 458.461 1752.55 459.784 C 1750.26 459.326 1751.26 459.845 1749.58 457.95 C 1750.73 455.213 1752.87 454.379 1755.51 452.775 z" fill="rgb(18,22,36)" transform="translate(0,0)"></path>
<path d="M 1564.91 552.879 C 1566.68 553.852 1566.6 553.773 1567.6 555.535 C 1565.95 558.503 1564.6 558.406 1561 560.296 C 1558.5 558.988 1559.11 559.765 1558.14 557.5 C 1559.45 555.168 1562.35 554.168 1564.91 552.879 z" fill="rgb(18,22,36)" transform="translate(0,0)"></path>
<metadata><recraft-signature>{"signed_by": "recraft", "signature_b64": "VvFyfZ6QNUcz6KDY9U+UKvkG5YhphpVPUxYFrHtAP9DAxz3qsx8P6ds63qLZLjQOfZHawmjuTPu9SrV/3HpKBw==", "signing_algo": "Ed25519", "generation_timestamp": 1777312868, "identifier": "aaa94f15-dbda-47e0-9ea2-eec640480828"}</recraft-signature></metadata></svg>