<svg xmlns="http://www.w3.org/2000/svg" height="1024" preserveAspectRatio="none" style="display: block;" version="1.1" viewBox="0 0 2048 1024" width="2048">
<path d="M 0 0 L 2048 0 L 2048 1024 L 0 1024 L 0 0 z" fill="rgb(252,249,243)" transform="translate(0,0)"></path>
<path d="M 672.937 47.2808 C 683.223 47.8407 690.695 49.9126 699.595 55.0914 C 710.081 61.1924 714.689 67.8474 717.301 79.472 C 728.625 129.874 739.961 180.422 751.438 230.781 L 813.872 502.878 L 842.971 628.118 C 847.501 647.531 852.361 667.417 856.156 686.972 C 858.354 698.294 853.953 715.252 847.826 725.223 C 843.319 732.603 837.233 738.892 830.004 743.638 C 808.342 757.632 775.176 774.807 751.814 787.916 C 695.721 819.642 639.407 850.975 582.876 881.914 L 458.832 951.786 C 443.192 960.497 422.258 973.838 405.764 979.439 C 398.423 981.932 386.138 976.419 379.608 972.201 C 359.264 959.063 359.648 954.898 354.665 933.752 L 336.293 852.22 C 303.47 870.053 267.703 892.076 235.175 911.113 L 218.929 900.012 C 219.675 838.557 219.017 775.951 218.947 714.423 L 218.952 439.694 C 218.915 397.08 217.668 353.804 219.189 311.338 C 219.34 307.109 262.905 284.076 269.224 280.494 C 297.939 264.247 326.563 247.841 355.094 231.275 C 355.295 226.841 355.383 221.931 359.376 219.293 C 367.966 213.617 377.137 208.765 386.087 203.656 L 434.077 175.931 C 406.934 154.27 435.782 119.329 461.932 112.689 C 477.671 116.333 488.917 123.605 495.459 138.333 C 500.32 139.575 536.052 115.534 543.421 112.035 C 549.307 109.241 549.008 114.002 556.75 110.25 C 582.052 97.9868 649.294 51.6134 672.937 47.2808 z" fill="rgb(4,21,41)" transform="translate(0,0)"></path>
<path d="M 565.973 121.396 C 564.283 120.105 564.354 120.182 563.286 118.342 C 563.4 118.145 563.507 117.943 563.628 117.751 C 566.394 113.35 663.3 58.4554 671.582 56.4664 C 674.681 55.7222 677.836 55.5826 680.644 57.2926 L 687.964 59.0725 C 686.414 60.1504 685.624 60.1452 683.793 60.4754 C 703.417 62.124 705.876 69.3069 709.905 86.0519 C 721.067 132.44 730.682 179.164 741.327 225.658 L 802.386 491.872 L 830.895 615.797 C 836.147 638.172 841.481 660.536 846.498 682.965 C 848.209 690.614 847.9 698.702 846.098 706.317 C 844.027 715.068 836.523 728.737 828.984 733.907 C 814.633 743.751 798.306 751.821 783.03 760.359 L 686.44 814.443 L 511.548 912.16 C 479.304 930.278 447.075 948.447 414.712 966.348 C 400.781 974.054 395.516 968.745 383.941 961.278 C 382.529 961.495 380.934 960.397 379.402 959.671 C 377.067 959.316 373.122 956.615 371.591 954.914 C 369.208 952.265 367.905 949.521 367.121 946.076 C 359.443 912.31 351.811 878.495 344.146 844.729 L 293.865 626.938 L 250.511 444.693 C 243.553 415.129 236.337 385.246 229.813 355.59 C 227.161 343.53 227.876 328.516 228.438 316.193 C 238.851 307.905 263.968 294.281 276.667 287.016 C 306.74 269.757 336.909 252.665 367.173 235.741 C 370.61 236.019 369.872 236.216 373.016 238.726 L 374.146 238.889 L 375.08 241.611 C 376.546 251.404 377.904 261.419 380.009 271.08 C 354.16 285.223 328.447 299.615 302.874 314.253 C 290.465 321.282 275.414 330.348 262.959 336.65 L 355.794 725.869 L 388.799 866.546 C 394.189 889.719 400.135 919.081 406.346 941.439 C 438.181 924.448 469.715 906.898 500.933 888.798 L 498.774 886.091 C 468.832 902.103 439.599 919.412 409.265 935.553 C 403.434 913.491 398.39 889.077 393.013 866.666 C 378.461 806.526 364.219 746.311 350.29 686.024 L 267.19 338.53 C 302.263 317.33 341.626 296.735 377.707 277.073 C 379.279 276.216 379.486 277.514 380.216 278.978 C 382.419 283.392 388.547 286.046 392.753 288.402 C 452.76 253.273 516.431 218.95 577.11 184.27 C 577.012 175.718 572.659 161.862 576.212 156.048 L 574.601 153.136 L 573.413 152.742 C 572.594 143.594 571.51 134.228 570.561 125.07 C 569.223 126.534 568.075 127.544 567.337 129.359 L 566.209 126.687 L 564.251 123.395 L 565.973 121.396 z" fill="rgb(252,249,243)" transform="translate(0,0)"></path>
<path d="M 565.973 121.396 C 564.283 120.105 564.354 120.182 563.286 118.342 C 563.4 118.145 563.507 117.943 563.628 117.751 C 566.394 113.35 663.3 58.4554 671.582 56.4664 C 674.681 55.7222 677.836 55.5826 680.644 57.2926 L 687.964 59.0725 C 686.414 60.1504 685.624 60.1452 683.793 60.4754 C 703.417 62.124 705.876 69.3069 709.905 86.0519 C 721.067 132.44 730.682 179.164 741.327 225.658 L 802.386 491.872 L 830.895 615.797 C 836.147 638.172 841.481 660.536 846.498 682.965 C 848.209 690.614 847.9 698.702 846.098 706.317 C 844.027 715.068 836.523 728.737 828.984 733.907 C 814.633 743.751 798.306 751.821 783.03 760.359 L 686.44 814.443 L 511.548 912.16 C 479.304 930.278 447.075 948.447 414.712 966.348 C 400.781 974.054 395.516 968.745 383.941 961.278 C 382.529 961.495 380.934 960.397 379.402 959.671 C 377.067 959.316 373.122 956.615 371.591 954.914 C 369.208 952.265 367.905 949.521 367.121 946.076 C 359.443 912.31 351.811 878.495 344.146 844.729 L 293.865 626.938 L 250.511 444.693 C 243.553 415.129 236.337 385.246 229.813 355.59 C 227.161 343.53 227.876 328.516 228.438 316.193 C 238.851 307.905 263.968 294.281 276.667 287.016 C 306.74 269.757 336.909 252.665 367.173 235.741 C 370.61 236.019 369.872 236.216 373.016 238.726 L 374.146 238.889 L 375.08 241.611 C 376.546 251.404 377.904 261.419 380.009 271.08 C 354.16 285.223 328.447 299.615 302.874 314.253 C 290.465 321.282 275.414 330.348 262.959 336.65 L 355.794 725.869 L 388.799 866.546 C 394.189 889.719 400.135 919.081 406.346 941.439 C 438.181 924.448 469.715 906.898 500.933 888.798 L 498.774 886.091 L 818.752 705.743 C 814.08 681.37 807.207 654.13 801.513 629.852 L 776.899 523.122 L 679.405 97.3282 C 659.998 109.437 636.863 121.235 616.928 133.254 C 609.577 137.686 582.414 153.549 576.212 156.048 L 574.601 153.136 L 573.413 152.742 C 572.594 143.594 571.51 134.228 570.561 125.07 C 569.223 126.534 568.075 127.544 567.337 129.359 L 566.209 126.687 L 564.251 123.395 L 565.973 121.396 z" fill="rgb(122,181,173)" transform="translate(0,0)"></path>
<path d="M 228.438 316.193 C 238.851 307.905 263.968 294.281 276.667 287.016 C 306.74 269.757 336.909 252.665 367.173 235.741 C 370.61 236.019 369.872 236.216 373.016 238.726 L 374.146 238.889 L 375.08 241.611 C 329.947 265.018 285.659 293.817 240.613 317.419 C 237.965 325.412 236.562 332.093 238.196 340.521 C 241.988 360.074 246.843 379.589 251.308 399.014 C 258.905 432.904 266.773 466.733 274.91 500.497 L 330.021 735.025 L 366.621 892.126 C 371.748 914.015 375.764 938.741 383.586 959.855 C 383.999 960.969 383.836 960.05 383.941 961.278 C 382.529 961.495 380.934 960.397 379.402 959.671 C 377.067 959.316 373.122 956.615 371.591 954.914 C 369.208 952.265 367.905 949.521 367.121 946.076 C 359.443 912.31 351.811 878.495 344.146 844.729 L 293.865 626.938 L 250.511 444.693 C 243.553 415.129 236.337 385.246 229.813 355.59 C 227.161 343.53 227.876 328.516 228.438 316.193 z" fill="rgb(252,249,243)" transform="translate(0,0)"></path>
<path d="M 373.016 238.726 L 374.146 238.889 L 375.08 241.611 C 329.947 265.018 285.659 293.817 240.613 317.419 C 237.965 325.412 236.562 332.093 238.196 340.521 C 241.988 360.074 246.843 379.589 251.308 399.014 C 258.905 432.904 266.773 466.733 274.91 500.497 L 330.021 735.025 L 366.621 892.126 C 371.748 914.015 375.764 938.741 383.586 959.855 C 383.999 960.969 383.836 960.05 383.941 961.278 C 382.529 961.495 380.934 960.397 379.402 959.671 C 376.502 950.673 373.244 934.543 370.977 924.689 L 355.813 858.736 L 304.93 640.116 L 253.606 421.288 C 247.566 394.461 240.496 367.408 235.222 340.45 C 233.567 331.991 235.281 323.67 238.05 315.616 C 245.291 310.392 270.515 296.994 279.296 291.956 C 310.374 273.928 341.615 256.184 373.016 238.726 z" fill="rgb(2,15,29)" transform="translate(0,0)"></path>
<path d="M 574.601 153.136 C 606.773 135.05 650.879 107.632 682.414 92.3671 C 693.067 145.033 705.994 198.129 717.941 250.589 L 784.998 542.911 L 810.544 652.669 C 814.554 670.036 819.856 690.599 822.941 707.702 C 714.664 765.312 608.994 830.491 500.933 888.798 L 498.774 886.091 L 818.752 705.743 C 814.08 681.37 807.207 654.13 801.513 629.852 L 776.899 523.122 L 679.405 97.3282 C 659.998 109.437 636.863 121.235 616.928 133.254 C 609.577 137.686 582.414 153.549 576.212 156.048 L 574.601 153.136 z" fill="rgb(2,15,29)" transform="translate(0,0)"></path>
<path d="M 565.973 121.396 C 564.283 120.105 564.354 120.182 563.286 118.342 C 563.4 118.145 563.507 117.943 563.628 117.751 C 566.394 113.35 663.3 58.4554 671.582 56.4664 C 674.681 55.7222 677.836 55.5826 680.644 57.2926 L 687.964 59.0725 C 686.414 60.1504 685.624 60.1452 683.793 60.4754 C 671.976 63.8544 572.128 121.699 570.561 125.07 C 569.223 126.534 568.075 127.544 567.337 129.359 L 566.209 126.687 L 564.251 123.395 L 565.973 121.396 z" fill="rgb(252,249,243)" transform="translate(0,0)"></path>
<path d="M 565.973 121.396 C 572.347 118.895 588.712 109.214 595.176 105.517 C 613.727 94.961 632.192 84.2546 650.569 73.399 C 659.151 68.343 671.563 60.5475 680.644 57.2926 L 687.964 59.0725 C 686.414 60.1504 685.624 60.1452 683.793 60.4754 C 671.976 63.8544 572.128 121.699 570.561 125.07 C 569.223 126.534 568.075 127.544 567.337 129.359 L 566.209 126.687 L 564.251 123.395 L 565.973 121.396 z" fill="rgb(2,15,29)" transform="translate(0,0)"></path>
<path d="M 393.929 357.862 L 395.485 358.66 C 400.478 367.089 416.501 433.529 419.715 446.526 C 398.418 460.231 368.113 474.961 345.443 488.237 L 344.192 488.855 L 342.674 488.229 C 340.248 482.777 335.477 461.202 333.694 453.552 C 329.611 436.036 323.38 415.951 320.161 398.555 C 343.71 386.56 370.496 370.832 393.929 357.862 z" fill="rgb(2,15,29)" transform="translate(0,0)"></path>
<path d="M 391.33 364.038 L 392.042 364.23 C 395.022 368.661 411.976 436.007 413.861 444.455 C 392.125 456.927 370.309 469.258 348.414 481.448 L 346.279 481.715 C 344.429 477.979 340.78 461.266 339.58 456.388 L 325.859 400.97 C 347.821 388.907 369.646 376.595 391.33 364.038 z" fill="rgb(252,249,243)" transform="translate(0,0)"></path>
<path d="M 386.511 377.221 C 390.377 378.012 391.27 378.422 393.278 381.085 C 394.079 389.14 380.045 449.241 377.067 459.949 C 368.481 454.16 351.956 445.629 342.097 439.84 C 341.087 439.201 339.26 437.614 338.252 436.787 C 337.07 434.016 335.887 431.952 336.335 428.949 L 337.358 428.516 C 347.631 432.975 361.383 442.136 372.427 447.758 C 375.991 425.404 383.686 398.76 386.511 377.221 z" fill="rgb(207,73,60)" transform="translate(0,0)"></path>
<path d="M 425.43 484.812 C 425.956 485.131 426.582 485.511 427.309 485.953 C 434.099 509.979 444.16 548.53 450.085 571.056 C 426.497 582.763 397.81 600.025 374.42 613.26 C 373.67 613.645 372.509 613.75 371.622 613.903 C 369.055 610.984 352.282 536.928 349.821 526.455 C 374.181 513.869 401.042 498.132 425.43 484.812 z" fill="rgb(2,15,29)" transform="translate(0,0)"></path>
<path d="M 422.91 491.019 C 425.197 493.826 442.05 559.998 444.484 569.099 C 424.651 578.925 395.648 596.521 375.592 607.794 L 375.073 607.725 C 373.62 606.339 356.904 536.993 354.74 529.08 C 377.173 516.412 400.974 504.163 422.91 491.019 z" fill="rgb(252,249,243)" transform="translate(0,0)"></path>
<path d="M 415.018 501.279 C 419.134 503.186 419.462 502.59 421.792 505.809 C 421.298 511.421 417.636 523.412 416.23 529.35 C 412.487 545.151 408.056 560.972 405.316 576.991 C 394.04 569.035 382.424 561.571 370.502 554.62 C 366.01 551.613 363.399 550.939 363.211 545.399 L 364.693 543.969 C 372.094 544.003 391.874 558.364 399.17 563.228 C 402.379 547.325 410.183 516.489 415.018 501.279 z" fill="rgb(207,73,60)" transform="translate(0,0)"></path>
<path d="M 487.247 732.912 C 487.75 733.319 488.359 733.811 489.074 734.389 C 495.83 758.838 504.179 795.517 510.868 818.648 C 492.314 831.375 455.252 850.065 434.557 862.342 L 433.046 862.098 C 429.487 858.535 413.687 786.667 411.102 775.439 L 487.247 732.912 z" fill="rgb(2,15,29)" transform="translate(0,0)"></path>
<path d="M 417.213 777.068 L 485.392 738.84 L 504.804 816.814 C 488.345 826.426 471.765 835.828 455.067 845.018 L 452.027 846.688 C 447.516 849.68 440.442 853.43 435.571 856.189 C 429.804 837.537 420.756 795.767 417.213 777.068 z" fill="rgb(252,249,243)" transform="translate(0,0)"></path>
<path d="M 463.318 788.619 C 465.691 781.408 474.455 752.634 478.195 748.565 C 481.042 748.463 479.98 748.143 482.246 749.672 C 483.475 756.264 473.389 783.405 470.613 791.736 C 478.88 795.016 498.654 800.18 497.605 810.177 L 495.98 811.309 C 491.045 810.321 473.499 802.321 467.345 799.761 C 464.111 809.312 456.111 831.93 454.588 841.358 L 455.067 845.018 L 452.027 846.688 L 445.916 846.049 C 444.321 840.645 458.233 803.406 460.654 796.343 C 453.369 793.156 426.905 784.945 424.811 778.651 C 425.461 777.091 425.453 776.102 426.936 775.661 C 434.143 773.513 456.415 785.435 463.318 788.619 z" fill="rgb(207,73,60)" transform="translate(0,0)"></path>
<path d="M 445.916 846.049 C 450.477 844.773 450.981 844.443 454.588 841.358 L 455.067 845.018 L 452.027 846.688 L 445.916 846.049 z" fill="rgb(239,240,240)" transform="translate(0,0)"></path>
<path d="M 456.39 607.005 L 457.103 607.209 C 459.501 609.367 478.756 686.171 480.834 694.134 C 456.098 708.194 431.25 722.055 406.29 735.715 L 404.01 736.207 C 403.538 735.851 402.965 735.42 402.293 734.915 C 396.388 708.542 388.207 674.018 382.177 648.509 L 456.39 607.005 z" fill="rgb(2,15,29)" transform="translate(0,0)"></path>
<path d="M 452.607 613.891 L 453.612 613.873 C 455.572 615.515 472.749 683.094 474.95 691.805 L 409.359 728.688 L 407.402 729.568 C 405.117 727.699 389.971 659.817 387.742 650.48 C 409.49 638.509 431.113 626.312 452.607 613.891 z" fill="rgb(252,249,243)" transform="translate(0,0)"></path>
<path d="M 447.615 623.849 C 450.115 624.634 451.094 625.264 453.315 626.557 C 455.682 631.586 443.362 660.924 440.814 668.035 C 448.363 671.471 467.212 677.549 469.917 685.402 L 469.148 686.006 C 462.462 688.024 445.053 679.306 437.938 676.169 C 435.164 684.518 428.051 712.343 422.199 716.398 C 418.861 716.534 420.208 716.841 417.035 714.712 C 419.903 702.596 426.896 685.183 431.098 672.527 C 421.562 668.345 405.38 662.528 396.76 656.661 C 395.392 655.73 395.754 653.766 395.758 652.119 L 397.328 650.683 C 404.064 650.02 425.547 660.891 433.462 664.396 C 438.185 652.132 442.726 634.476 447.615 623.849 z" fill="rgb(207,73,60)" transform="translate(0,0)"></path>
<path d="M 672.703 225.871 C 673.21 226.62 673.518 227.651 673.85 228.529 C 671.047 231.012 656.724 238.873 652.642 241.197 L 600.263 270.613 L 420.452 371.448 L 419.404 369.486 C 422.396 362.825 631.92 251.107 653.923 236.179 C 656.216 234.623 669.402 227.579 672.703 225.871 z" fill="rgb(2,15,29)" transform="translate(0,0)"></path>
<path d="M 682.22 261.905 L 684.08 262.096 L 684.863 263.445 C 681.588 267.928 453.944 393.573 431.432 405.581 L 429.292 405.224 L 429.362 403.719 C 433.431 400.19 449.729 391.543 455.705 388.205 L 511.769 357.056 L 682.22 261.905 z" fill="rgb(2,15,29)" transform="translate(0,0)"></path>
<path d="M 770.156 642.871 C 771.677 642.434 772.275 642.772 773.788 643.214 L 773.489 644.499 C 769.62 647.946 715.042 677.925 707.826 681.981 L 525.337 784.581 C 524.622 784.772 523.35 784.618 522.541 784.575 L 522.373 783.465 C 526.518 777.847 744.156 657.42 770.156 642.871 z" fill="rgb(2,15,29)" transform="translate(0,0)"></path>
<path d="M 731.852 479.986 L 732.912 481.515 C 731.73 485.307 710.504 495.801 705.613 498.537 L 654.427 527.287 L 483.507 622.868 L 482.527 620.214 C 483.73 618.074 709.82 492.046 731.852 479.986 z" fill="rgb(2,15,29)" transform="translate(0,0)"></path>
<path d="M 702.635 352.915 L 704.023 354.98 C 701.293 359.627 474.133 483.335 451.47 497.148 L 450.551 494.971 C 452.388 491.189 523.043 453.167 533.166 447.5 L 702.635 352.915 z" fill="rgb(2,15,29)" transform="translate(0,0)"></path>
<path d="M 741.783 515.875 C 743.032 516.971 742.481 516.332 742.935 518.357 C 740.088 521.625 701.886 541.798 695.039 545.634 C 627.89 583.393 560.535 620.784 492.976 657.804 L 491.833 656.461 L 492.265 654.725 C 496.818 650.891 502.153 649.079 507.45 646.042 C 525.857 635.609 544.334 625.302 562.882 615.123 C 622.24 581.546 681.876 548.462 741.783 515.875 z" fill="rgb(2,15,29)" transform="translate(0,0)"></path>
<path d="M 710.742 389.91 L 711.914 390.571 L 712.278 392.076 C 709.941 394.894 675.637 413.39 670.12 416.49 C 627.665 440.437 585.069 464.134 542.336 487.581 C 516.89 501.564 487.266 516.931 462.737 531.825 L 461.287 530.842 L 461.333 529.137 C 464.526 525.556 511.598 500.195 518.965 496.279 C 583.45 461.997 646.428 424.37 710.742 389.91 z" fill="rgb(2,15,29)" transform="translate(0,0)"></path>
<path d="M 760.263 606.937 L 761.822 608.058 L 761.646 609.678 C 757.657 613.107 748.226 617.545 743.012 620.478 L 704.544 642.347 C 642.431 677.635 577.396 712.013 516.025 748.166 L 514.704 747.263 L 514.563 745.516 C 518.291 741.387 553.561 722.544 561.641 718.179 C 628.197 682.217 693.559 642.455 760.263 606.937 z" fill="rgb(2,15,29)" transform="translate(0,0)"></path>
<path d="M 550.98 117.968 C 554.492 120.061 559.248 122.245 562.991 124.094 L 564.251 123.395 L 566.209 126.687 L 567.337 129.359 C 568.075 127.544 569.223 126.534 570.561 125.07 C 571.51 134.228 572.594 143.594 573.413 152.742 C 570.711 158.919 573.114 159.919 571.399 164.193 C 571.914 170.182 572.595 176.155 573.442 182.106 L 461.215 245.929 C 443.047 256.222 414.045 273.6 395.665 282.094 C 392.954 264.901 390.382 246.992 386.877 230.004 C 403.813 221.214 419.961 211.475 436.557 202.136 C 454.074 192.279 468.89 184.207 485.351 172.559 C 486.247 170.568 486.198 169.559 486.419 167.355 L 487.621 167.583 C 489.748 162.217 491.351 157.648 493.136 152.167 C 511.414 141.581 533.555 129.405 550.98 117.968 z" fill="rgb(247,187,106)" transform="translate(0,0)"></path>
<path d="M 550.98 117.968 C 554.492 120.061 559.248 122.245 562.991 124.094 C 538.434 138.329 512.368 154.047 487.621 167.583 C 489.748 162.217 491.351 157.648 493.136 152.167 C 511.414 141.581 533.555 129.405 550.98 117.968 z" fill="rgb(247,187,106)" transform="translate(0,0)"></path>
<path d="M 562.991 124.094 L 564.251 123.395 L 566.209 126.687 C 539.431 142.285 512.477 157.576 485.351 172.559 C 486.247 170.568 486.198 169.559 486.419 167.355 L 487.621 167.583 C 512.368 154.047 538.434 138.329 562.991 124.094 z" fill="rgb(2,15,29)" transform="translate(0,0)"></path>
<path d="M 567.337 129.359 C 568.075 127.544 569.223 126.534 570.561 125.07 C 571.51 134.228 572.594 143.594 573.413 152.742 C 570.711 158.919 573.114 159.919 571.399 164.193 L 567.337 129.359 z" fill="rgb(2,15,29)" transform="translate(0,0)"></path>
<path d="M 471.182 125.616 C 474.689 126.663 478.119 128.1 481.525 129.456 C 505.489 149.939 470.589 195.157 445.938 179.337 C 426.01 159.014 447.857 130.561 471.182 125.616 z" fill="rgb(4,21,41)" transform="translate(0,0)"></path>
<path d="M 481.525 129.456 C 505.489 149.939 470.589 195.157 445.938 179.337 L 450.014 174.293 C 471.348 179.084 487.673 155.072 478.118 135.592 C 479.257 134.382 480.715 131.09 481.525 129.456 z" fill="rgb(249,203,135)" transform="translate(0,0)"></path>
<path d="M 471.182 125.616 C 474.689 126.663 478.119 128.1 481.525 129.456 C 480.715 131.09 479.257 134.382 478.118 135.592 C 459.331 124.596 431.456 159.767 450.014 174.293 L 445.938 179.337 C 426.01 159.014 447.857 130.561 471.182 125.616 z" fill="rgb(249,216,167)" transform="translate(0,0)"></path>
<path d="M 464.576 141.573 C 468.797 142.218 467.25 141.521 470.511 144.111 C 472.608 152.83 463.435 159.915 456.822 164.012 C 454.323 164.332 453.923 164.437 451.78 163.171 C 448.644 155.769 459.276 145.876 464.576 141.573 z" fill="rgb(252,249,243)" transform="translate(0,0)"></path>
<path d="M 230.112 402.661 C 235.225 416.873 233.834 501.14 233.844 520.603 L 233.933 680.273 L 233.968 820.675 C 233.969 845.749 234.603 874.2 233.661 899.059 L 230.903 897.493 C 229.379 894.477 230.072 822.061 230.068 812.376 L 230.051 640.282 L 229.882 488.572 C 229.838 460.66 229.295 430.405 230.112 402.661 z" fill="rgb(252,249,243)" transform="translate(0,0)"></path>
<path d="M 439.029 183.921 C 440.769 183.906 448.591 188.236 450.621 189.241 C 434.773 199.903 403.08 217.396 385.728 226.51 C 381.939 225.985 376.56 224.11 372.775 222.93 C 391.504 210.498 419.207 195.45 439.029 183.921 z" fill="rgb(247,187,106)" transform="translate(0,0)"></path>
<path d="M 453.602 119.886 C 456.24 120.469 459.816 121.571 461.653 123.581 C 445.062 134.299 433.964 145.179 432.544 166.21 L 432.283 168.196 C 427.939 165.001 426.801 156.601 428.309 151.595 C 432.594 137.364 440.911 127.365 453.602 119.886 z" fill="rgb(122,181,173)" transform="translate(0,0)"></path>
<path d="M 379.711 228.511 C 383.052 230.845 383.616 232.261 384.489 236.188 C 387.43 249.418 388.661 262.911 391.059 276.241 C 391.811 278.663 391.807 279.065 391.953 281.622 L 390.383 282.589 C 385.28 280.633 384.238 277.71 383.259 272.851 C 382.553 262.751 380.985 241.769 374.431 234.868 C 375.896 232.929 378.106 230.431 379.711 228.511 z" fill="rgb(249,203,135)" transform="translate(0,0)"></path>
<path d="M 383.259 272.851 L 384.502 271.325 C 385.892 272.977 387.264 274.643 388.62 276.322 L 391.059 276.241 C 391.811 278.663 391.807 279.065 391.953 281.622 L 390.383 282.589 C 385.28 280.633 384.238 277.71 383.259 272.851 z" fill="rgb(249,216,167)" transform="translate(0,0)"></path>
<path d="M 374.431 234.868 L 373.992 234.702 C 369.516 232.992 366.139 231.998 364.11 227.439 C 368.146 224.315 375.534 227.144 379.711 228.511 C 378.106 230.431 375.896 232.929 374.431 234.868 z" fill="rgb(252,249,243)" transform="translate(0,0)"></path>
<path d="M 1681.52 306.902 C 1687.33 306.393 1710.26 320.775 1716.78 324.477 L 1765.34 351.793 C 1812.56 378.213 1859.53 405.089 1906.23 432.419 C 1906.63 461.11 1908.28 513.225 1906.07 540.539 C 1899.71 544.316 1865.59 561.841 1863.76 566.35 L 1868.64 572.471 C 1870.34 579.818 1862.97 607.372 1856.71 610.359 C 1852.88 609.835 1848.34 606.287 1844.96 604.047 C 1850.86 622.548 1849.84 636.089 1844.69 655.326 C 1835.68 688.987 1791.93 742.4 1752.85 719.735 C 1741.13 712.939 1722.32 706.74 1716.41 693.619 C 1709.86 679.059 1713.72 661.524 1718.9 647.04 L 1556.21 738.151 C 1556.06 747.729 1556.25 766.07 1553.39 774.492 C 1570.89 808.073 1549.72 851.575 1525.32 875.958 C 1489.75 907.154 1465.98 888.926 1432.52 867.326 C 1429.21 869.842 1428.27 870.684 1424.37 872.066 C 1420.54 872.082 1376.81 846.22 1371.45 843.169 L 1298.13 802.059 C 1273.13 787.941 1247.68 774.703 1223.09 759.866 C 1211.76 753.032 1218.33 736.558 1224.17 727.93 C 1224.24 709.76 1224.21 691.589 1224.09 673.42 C 1224.03 649.68 1222.46 643.645 1232.7 621.255 C 1246.62 590.792 1258.59 558.437 1272.38 527.814 C 1275.82 526.134 1279.08 524.093 1282.42 522.214 C 1309.48 506.97 1336.03 490.674 1363.58 476.316 L 1376.86 483.228 C 1478.94 426.272 1579.74 364.469 1681.52 306.902 z" fill="rgb(4,21,41)" transform="translate(0,0)"></path>
<path d="M 1283.26 533.632 C 1286.6 527.418 1353.16 491.213 1363.91 485.55 C 1421.16 519.301 1485.9 552.027 1541.68 586.71 C 1541.45 587.977 1541.22 588.833 1541.22 590.125 L 1544.52 590.471 C 1546.45 596.447 1545.25 717.603 1544.87 729.855 C 1534.06 747.224 1521.7 750.806 1505.88 762.672 C 1486.6 777.141 1472.92 797.477 1462.98 819.123 C 1457.08 822.344 1432.2 837.135 1427.98 838.087 L 1426.72 838.568 C 1426.33 835.41 1425.99 833.491 1425.26 830.392 C 1425.43 835.551 1426.48 838.198 1422.51 841.608 C 1415.94 841.323 1383.42 821.794 1375.79 817.318 L 1375.62 806.257 C 1374.33 808.4 1374.67 812.775 1374.59 815.659 L 1373.61 816.115 C 1372.73 812.696 1373.3 790.163 1372.88 783.707 C 1371.65 789.75 1372.06 808.437 1372.08 815.407 C 1358.92 809.471 1341.56 799.099 1328.78 791.833 C 1312.13 782.364 1293.88 772.392 1277.86 762.207 C 1277.9 747.609 1277.87 733.01 1277.75 718.413 C 1275.35 725.492 1278.03 748.155 1275.82 760.319 C 1274.24 744.467 1276.82 721.299 1274.95 707.167 L 1274.84 706.329 C 1273.5 714.292 1274.12 749.992 1274.15 759.977 C 1264.1 755.665 1242.77 744.827 1234.99 737.224 C 1232.51 734.798 1232.26 711.148 1232.73 707.017 C 1234.24 693.884 1230.65 666.562 1233.76 655.074 L 1234.33 651.504 C 1232.03 648.482 1232.96 644.47 1234.13 641.173 L 1235.11 638.449 C 1236.7 632.424 1251.42 599.474 1254.9 591.83 C 1260.79 578.905 1272.49 546.542 1278.62 536.043 L 1280.3 535.692 L 1283.26 533.632 z" fill="rgb(252,249,243)" transform="translate(0,0)"></path>
<path d="M 1541.22 590.125 L 1544.52 590.471 C 1546.45 596.447 1545.25 717.603 1544.87 729.855 C 1534.06 747.224 1521.7 750.806 1505.88 762.672 C 1486.6 777.141 1472.92 797.477 1462.98 819.123 C 1457.08 822.344 1432.2 837.135 1427.98 838.087 C 1430.16 811.714 1426.01 779.378 1429.02 752.991 C 1429.9 745.172 1436.38 726.758 1438.65 718.436 C 1446.06 691.206 1457.42 661.044 1463.83 633.872 C 1470.53 629.033 1483.96 621.981 1491.51 617.748 C 1508.02 608.435 1524.59 599.228 1541.22 590.125 z" fill="rgb(252,249,243)" transform="translate(0,0)"></path>
<path d="M 1535.63 603.919 C 1537.11 605.358 1537.96 726.815 1535.9 735.257 C 1532.31 729.631 1533.45 692.647 1533.44 683.12 C 1514.43 694.615 1494.7 705.737 1475.53 717.095 C 1463.88 723.437 1452.28 729.864 1440.73 736.377 C 1442.29 730.553 1443.83 724.404 1444.41 719.02 C 1443.87 703.154 1445.3 706.303 1451.04 695.08 C 1456.83 682.695 1462.34 655.363 1471.07 645.487 C 1485.3 629.387 1516.65 615.782 1535.63 603.919 z" fill="rgb(2,15,29)" transform="translate(0,0)"></path>
<path d="M 1520 616.916 L 1520.7 617.53 C 1522.36 622.226 1520.91 629.543 1521.32 634.471 C 1525.74 687.406 1514.28 682.528 1472.51 705.77 C 1470.71 703.217 1467.86 699.923 1465.81 697.427 C 1462.72 695.175 1454.7 693.389 1456.38 688.255 C 1458.06 683.143 1461.21 676.959 1462.5 671.809 C 1470.67 639.356 1493.81 632.269 1520 616.916 z" fill="rgb(252,249,243)" transform="translate(0,0)"></path>
<path d="M 1532.63 609.968 C 1533.92 612.212 1533.43 671.187 1533.46 679.471 C 1514.02 690.586 1494.7 701.91 1475.49 713.442 C 1475.2 712.983 1474.6 711.161 1474.37 710.533 C 1476.62 705.48 1515.65 687.629 1520.26 681.612 C 1527.95 671.597 1524.91 628.473 1524.77 614.832 L 1532.63 609.968 z" fill="rgb(252,249,243)" transform="translate(0,0)"></path>
<path d="M 1454.48 697.951 C 1464.51 696.846 1478.52 710.033 1463.28 718.75 C 1449.11 723.266 1442.1 706.78 1454.48 697.951 z" fill="rgb(247,187,106)" transform="translate(0,0)"></path>
<path d="M 1525.17 706.546 C 1533.53 716.558 1523.32 746.224 1512.72 755.239 L 1512.36 754.46 C 1509.52 748.265 1519.81 711.882 1525.17 706.546 z" fill="rgb(2,15,29)" transform="translate(0,0)"></path>
<path d="M 1283.26 533.632 C 1286.6 527.418 1353.16 491.213 1363.91 485.55 C 1421.16 519.301 1485.9 552.027 1541.68 586.71 C 1533.6 589.779 1526.23 594.761 1518.73 598.577 C 1499.67 608.267 1477.19 623.514 1458.18 631.902 C 1451.68 626.293 1412.57 604.941 1402.88 599.765 C 1364.15 579.072 1322.29 552.874 1283.26 533.632 z" fill="rgb(252,249,243)" transform="translate(0,0)"></path>
<path d="M 1234.13 641.173 C 1252.64 652.608 1274.48 664.146 1293.65 674.783 C 1322.42 690.609 1351.05 706.679 1379.55 722.992 C 1393.29 730.751 1407.15 739.523 1421.53 746.176 C 1423.32 747.002 1424.28 748.081 1424.8 749.928 C 1418.1 755.99 1375.34 748.223 1372.88 783.707 C 1371.65 789.75 1372.06 808.437 1372.08 815.407 C 1358.92 809.471 1341.56 799.099 1328.78 791.833 C 1312.13 782.364 1293.88 772.392 1277.86 762.207 C 1277.9 747.609 1277.87 733.01 1277.75 718.413 C 1275.35 725.492 1278.03 748.155 1275.82 760.319 C 1274.24 744.467 1276.82 721.299 1274.95 707.167 L 1274.84 706.329 C 1273.5 714.292 1274.12 749.992 1274.15 759.977 C 1264.1 755.665 1242.77 744.827 1234.99 737.224 C 1232.51 734.798 1232.26 711.148 1232.73 707.017 C 1234.24 693.884 1230.65 666.562 1233.76 655.074 L 1234.33 651.504 C 1232.03 648.482 1232.96 644.47 1234.13 641.173 z" fill="rgb(252,249,243)" transform="translate(0,0)"></path>
<path d="M 1233.76 655.074 C 1245.43 667.783 1267.84 691.583 1274.84 706.329 C 1273.5 714.292 1274.12 749.992 1274.15 759.977 C 1264.1 755.665 1242.77 744.827 1234.99 737.224 C 1232.51 734.798 1232.26 711.148 1232.73 707.017 C 1234.24 693.884 1230.65 666.562 1233.76 655.074 z" fill="rgb(252,249,243)" transform="translate(0,0)"></path>
<path d="M 1246 707.083 C 1252.23 706.038 1255.66 706.981 1260.46 711.053 C 1266.25 715.952 1269.85 722.959 1270.45 730.521 C 1270.88 736.54 1269.84 738.782 1266.06 743.129 C 1246.99 744.298 1233.28 721.491 1246 707.083 z" fill="rgb(2,15,29)" transform="translate(0,0)"></path>
<path d="M 1248.64 709.536 C 1261.71 711.642 1273.79 729.823 1263.36 740.09 C 1248.61 737.703 1237.69 721.122 1248.64 709.536 z" fill="rgb(247,187,106)" transform="translate(0,0)"></path>
<path d="M 1234.33 651.504 C 1244.11 659.398 1275.94 693.883 1277.82 707.741 C 1278.08 709.591 1277.88 716.153 1277.75 718.413 C 1275.35 725.492 1278.03 748.155 1275.82 760.319 C 1274.24 744.467 1276.82 721.299 1274.95 707.167 L 1274.84 706.329 C 1267.84 691.583 1245.43 667.783 1233.76 655.074 L 1234.33 651.504 z" fill="rgb(2,15,29)" transform="translate(0,0)"></path>
<path d="M 1291.14 699.525 C 1291.34 699.522 1291.53 699.509 1291.73 699.515 C 1298.3 699.709 1357.14 734.567 1363.66 740.996 C 1365.01 749.707 1365.61 792.383 1364.63 802.007 L 1363.14 803.186 C 1349.13 794.717 1334.96 786.518 1320.64 778.595 C 1313.83 774.786 1288.78 762.779 1287.18 754.961 C 1286.25 750.405 1287.03 736.993 1287.24 731.458 C 1287.64 720.591 1284.05 708.427 1291.14 699.525 z" fill="rgb(2,15,29)" transform="translate(0,0)"></path>
<path d="M 1290.39 745.89 C 1313.4 757.217 1337.4 772.985 1361.08 785.218 L 1361.34 797.645 C 1339.28 784.857 1311.04 770.334 1290.33 757.084 L 1290.39 745.89 z" fill="rgb(252,249,243)" transform="translate(0,0)"></path>
<path d="M 1290.49 731.33 C 1297.64 734.465 1310.21 742.012 1317.65 746.216 C 1331.42 753.993 1346.99 762.06 1359.96 770.725 C 1361.72 773.501 1361.19 778.012 1361.12 781.456 C 1337.71 768.981 1314.13 754.745 1290.53 741.897 C 1290.37 738.917 1290.5 734.439 1290.49 731.33 z" fill="rgb(252,249,243)" transform="translate(0,0)"></path>
<path d="M 1290.88 716.295 C 1299.48 720.436 1313.06 728.78 1321.84 733.763 C 1333.11 740.16 1349.71 748.901 1359.96 756.147 C 1361.49 758.723 1361.04 763.315 1361.02 766.531 C 1352.2 762.328 1338.74 754.067 1329.84 748.942 C 1318.7 742.53 1301.92 733.951 1291.79 726.815 C 1290.42 724.065 1290.83 719.514 1290.88 716.295 z" fill="rgb(252,249,243)" transform="translate(0,0)"></path>
<path d="M 1291.49 703.241 C 1296.95 704.31 1353.6 737.061 1359.22 741.849 C 1361.21 745.048 1360.96 748.861 1361.09 752.67 C 1347.46 744.476 1333.73 736.453 1319.89 728.605 C 1311.73 723.965 1298.91 717.181 1291.63 711.915 C 1290.11 709.041 1290.93 706.491 1291.49 703.241 z" fill="rgb(252,249,243)" transform="translate(0,0)"></path>
<path d="M 1375.62 806.257 C 1375.9 759.74 1383.94 761.868 1425.07 754.418 C 1425.07 779.192 1424.61 805.765 1425.26 830.392 C 1425.43 835.551 1426.48 838.198 1422.51 841.608 C 1415.94 841.323 1383.42 821.794 1375.79 817.318 L 1375.62 806.257 z" fill="rgb(252,249,243)" transform="translate(0,0)"></path>
<path d="M 1387.72 784.752 C 1405.8 783.882 1421.15 811.558 1406.43 823.155 C 1388.09 823.477 1373.41 798.797 1387.72 784.752 z" fill="rgb(2,15,29)" transform="translate(0,0)"></path>
<path d="M 1389.03 787.743 C 1402.86 788.478 1413.56 807.55 1405.75 819.718 C 1390.36 817.902 1379.3 800.92 1389.03 787.743 z" fill="rgb(247,187,106)" transform="translate(0,0)"></path>
<path d="M 1283.26 533.632 C 1322.29 552.874 1364.15 579.072 1402.88 599.765 C 1412.57 604.941 1451.68 626.293 1458.18 631.902 C 1477.19 623.514 1499.67 608.267 1518.73 598.577 C 1526.23 594.761 1533.6 589.779 1541.68 586.71 C 1541.45 587.977 1541.22 588.833 1541.22 590.125 C 1524.59 599.228 1508.02 608.435 1491.51 617.748 C 1483.96 621.981 1470.53 629.033 1463.83 633.872 C 1457.42 661.044 1446.06 691.206 1438.65 718.436 C 1436.38 726.758 1429.9 745.172 1429.02 752.991 C 1426.01 779.378 1430.16 811.714 1427.98 838.087 L 1426.72 838.568 C 1426.33 835.41 1425.99 833.491 1425.26 830.392 C 1424.61 805.765 1425.07 779.192 1425.07 754.418 C 1383.94 761.868 1375.9 759.74 1375.62 806.257 C 1374.33 808.4 1374.67 812.775 1374.59 815.659 L 1373.61 816.115 C 1372.73 812.696 1373.3 790.163 1372.88 783.707 C 1375.34 748.223 1418.1 755.99 1424.8 749.928 C 1424.28 748.081 1423.32 747.002 1421.53 746.176 C 1407.15 739.523 1393.29 730.751 1379.55 722.992 C 1351.05 706.679 1322.42 690.609 1293.65 674.783 C 1274.48 664.146 1252.64 652.608 1234.13 641.173 L 1235.11 638.449 C 1299.54 673.227 1362.74 710.704 1427 745.407 C 1433.4 725.537 1439.09 704.356 1445.42 684.286 C 1449.14 672.463 1457.55 647.007 1459.28 635.966 L 1458.64 635.522 C 1456.59 637.446 1455.05 639.279 1452.43 640.104 C 1451.47 636.42 1452.27 635.987 1453.31 631.777 C 1395.82 601.318 1337.63 567.145 1280.3 535.692 L 1283.26 533.632 z" fill="rgb(2,15,29)" transform="translate(0,0)"></path>
<path d="M 1278.89 547.408 C 1283.67 548.559 1301.6 559.676 1307.46 562.665 C 1353.89 586.35 1402 618.277 1448.71 640.379 C 1445.01 660.696 1425.73 708.486 1419.17 730.527 C 1418.47 732.879 1416.56 733.561 1414.59 734.138 C 1390.95 719.311 1361.81 703.618 1337.14 689.815 C 1305.4 671.671 1273.41 653.946 1241.2 636.646 C 1254.34 607.145 1266.9 577.393 1278.89 547.408 z" fill="rgb(2,15,29)" transform="translate(0,0)"></path>
<path d="M 1281.11 552.476 C 1335.46 581.334 1390.74 615.323 1444.69 642.615 C 1442.61 650.364 1418.72 720.792 1416.22 723.466 L 1414.39 723.022 C 1359.42 691.246 1303.99 660.269 1248.12 630.101 C 1259.38 604.34 1270.38 578.463 1281.11 552.476 z" fill="rgb(252,249,243)" transform="translate(0,0)"></path>
<path d="M 1432.85 642.888 L 1434.46 643.126 L 1435.28 644.276 C 1432.57 648.442 1391.19 668.786 1383.52 673.15 L 1381.68 673.46 L 1381.05 672.065 C 1383.02 667.944 1425.09 647.027 1432.85 642.888 z" fill="rgb(2,15,29)" transform="translate(0,0)"></path>
<path d="M 1429.81 658.931 L 1430.43 660.963 C 1428.9 664.402 1393.51 682.682 1387.41 686.072 L 1386.38 683.558 C 1388.48 679.958 1423.5 662.266 1429.81 658.931 z" fill="rgb(2,15,29)" transform="translate(0,0)"></path>
<path d="M 1878.85 478.366 L 1881.53 476.093 L 1882.72 476.387 C 1884.96 492.56 1881.67 519.501 1883.6 535.506 C 1884.77 523.522 1881.89 481.376 1885.95 474.992 C 1886.18 486.75 1886.35 498.509 1886.43 510.269 C 1889.36 514.653 1885.9 533.458 1888.25 539.817 C 1869.18 553.08 1562.31 725.85 1557.15 726.387 L 1556.72 725.032 L 1557.8 723.571 L 1556.76 721.879 C 1556.37 705.549 1555.22 667.981 1556.7 652.509 C 1558.09 651.726 1569.26 651.8 1572.1 651.63 C 1593.94 641.025 1626.97 621.032 1649.03 608.565 L 1795.54 525.062 L 1846.24 495.263 C 1853.98 490.704 1868.54 481.79 1876.36 478.559 L 1878.85 478.366 z" fill="rgb(4,21,41)" transform="translate(0,0)"></path>
<path d="M 1878.85 478.366 L 1881.53 476.093 L 1882.72 476.387 C 1884.96 492.56 1881.67 519.501 1883.6 535.506 C 1884.77 523.522 1881.89 481.376 1885.95 474.992 C 1886.18 486.75 1886.35 498.509 1886.43 510.269 C 1889.36 514.653 1885.9 533.458 1888.25 539.817 C 1869.18 553.08 1562.31 725.85 1557.15 726.387 L 1556.72 725.032 L 1557.8 723.571 L 1556.76 721.879 C 1563.67 718.457 1570.93 714.221 1577.71 710.431 L 1572.98 708.921 C 1579.06 706.822 1596.58 696.441 1603.37 692.607 C 1625.82 680.007 1648.17 667.234 1670.42 654.288 C 1737.6 615.875 1805.97 578.734 1872.58 539.339 C 1872.06 521.707 1872.4 502.221 1872.33 484.437 C 1801.56 522.663 1728.61 567.157 1658.07 607.02 L 1605.66 636.41 C 1595.9 641.853 1582.52 649.772 1572.49 653.94 L 1572.1 651.63 C 1593.94 641.025 1626.97 621.032 1649.03 608.565 L 1795.54 525.062 L 1846.24 495.263 C 1853.98 490.704 1868.54 481.79 1876.36 478.559 L 1878.85 478.366 z" fill="rgb(239,240,240)" transform="translate(0,0)"></path>
<path d="M 1885.95 474.992 C 1886.18 486.75 1886.35 498.509 1886.43 510.269 C 1889.36 514.653 1885.9 533.458 1888.25 539.817 C 1869.18 553.08 1562.31 725.85 1557.15 726.387 L 1556.72 725.032 L 1557.8 723.571 L 1556.76 721.879 C 1563.67 718.457 1570.93 714.221 1577.71 710.431 L 1712.14 634.543 C 1730.37 624.304 1877.32 543.394 1883.6 535.506 C 1884.77 523.522 1881.89 481.376 1885.95 474.992 z" fill="rgb(239,240,240)" transform="translate(0,0)"></path>
<path d="M 1885.95 474.992 C 1886.18 486.75 1886.35 498.509 1886.43 510.269 L 1886.28 537.906 C 1867.82 549.511 1846.63 560.893 1827.55 571.759 L 1701.37 642.928 C 1668.59 661.738 1635.73 680.382 1602.76 698.862 C 1590.22 705.872 1570.39 717.746 1557.8 723.571 L 1556.76 721.879 C 1563.67 718.457 1570.93 714.221 1577.71 710.431 L 1712.14 634.543 C 1730.37 624.304 1877.32 543.394 1883.6 535.506 C 1884.77 523.522 1881.89 481.376 1885.95 474.992 z" fill="rgb(4,21,41)" transform="translate(0,0)"></path>
<path d="M 1876.36 478.559 L 1878.85 478.366 C 1879.49 483.84 1879.97 527.016 1878.72 531.61 C 1875.42 524.836 1877.74 490.484 1876.36 478.559 z" fill="rgb(34,45,50)" transform="translate(0,0)"></path>
<path d="M 1556.76 721.879 C 1556.37 705.549 1555.22 667.981 1556.7 652.509 C 1558.09 651.726 1569.26 651.8 1572.1 651.63 L 1572.49 653.94 C 1572.92 664.943 1571.97 701.509 1572.98 708.921 L 1577.71 710.431 C 1570.93 714.221 1563.67 718.457 1556.76 721.879 z" fill="rgb(252,249,243)" transform="translate(0,0)"></path>
<path d="M 1643.01 618.247 C 1644.52 622.921 1643.75 658.271 1643.68 664.874 C 1621.73 677.834 1599.05 689.878 1577.4 702.879 C 1575.96 689.893 1577.18 670.596 1576.15 655.707 C 1598.45 643.81 1621 630.75 1643.01 618.247 z" fill="rgb(234,123,98)" transform="translate(0,0)"></path>
<path d="M 1738.5 563.941 L 1740.03 564.942 C 1741.09 569.842 1740.36 603.804 1740.3 610.331 C 1720.37 622.59 1697.24 634.76 1676.49 646.149 L 1674.76 646.435 C 1673.32 642.708 1673.95 607.323 1673.96 601.223 C 1695.17 588.322 1716.95 576.311 1738.5 563.941 z" fill="rgb(234,123,98)" transform="translate(0,0)"></path>
<path d="M 1867.33 489.904 L 1867.92 490.04 C 1869.98 492.973 1869.03 530.429 1869 536.994 C 1850.37 549.035 1827.25 561.007 1807.72 572.633 L 1806.58 571.839 C 1805.63 559.633 1806.43 537.595 1806.51 524.669 L 1867.33 489.904 z" fill="rgb(234,123,98)" transform="translate(0,0)"></path>
<path d="M 1788.96 535.126 C 1791.02 537.484 1790.05 576.532 1790.02 582.753 C 1779.13 588.872 1768.27 595.052 1757.44 601.29 C 1756.03 597.174 1756.4 560.496 1756.4 553.361 C 1766.3 547.364 1778.7 540.86 1788.96 535.126 z" fill="rgb(234,123,98)" transform="translate(0,0)"></path>
<path d="M 1655.05 611.85 L 1656.57 612.493 C 1657.59 623.444 1656.85 645.819 1656.8 657.605 L 1648.81 662.312 L 1647.55 661.697 C 1646.98 658.454 1646 621.42 1648.28 616.514 C 1649.18 614.578 1653.01 612.858 1655.05 611.85 z" fill="rgb(252,249,243)" transform="translate(0,0)"></path>
<path d="M 1669.01 603.997 C 1671.28 607.141 1670.21 642.686 1670.16 649.351 L 1662.09 654.039 L 1661.27 653.301 C 1660.33 649.243 1660.74 615.429 1660.75 609.03 L 1669.01 603.997 z" fill="rgb(252,249,243)" transform="translate(0,0)"></path>
<path d="M 1801.72 527.953 L 1802.22 528.395 C 1803.72 532.372 1802.91 568.983 1802.6 574.467 C 1801.46 576.982 1798.1 578.166 1795.41 579.562 C 1792.6 576.887 1793.89 538.13 1793.95 532.532 L 1801.72 527.953 z" fill="rgb(252,249,243)" transform="translate(0,0)"></path>
<path d="M 1751.34 556.939 L 1752.12 557.064 C 1754.34 561.237 1753.56 594.863 1752.41 602.089 C 1751.87 605.486 1748.64 606.69 1745.97 608.264 L 1744.76 607.653 C 1743.42 603.199 1743.94 567.915 1744.22 562.045 C 1745.33 559.741 1748.87 558.302 1751.34 556.939 z" fill="rgb(239,240,240)" transform="translate(0,0)"></path>
<path d="M 1677.31 344.944 L 1678.7 345.527 C 1679.46 371.475 1678.97 399.608 1678.97 425.719 C 1663.8 433.086 1638 449.48 1622 458.577 L 1478.4 540.738 C 1466.38 534.787 1448.96 524.042 1436.5 517.166 L 1407.42 500.408 L 1677.31 344.944 z" fill="rgb(252,249,243)" transform="translate(0,0)"></path>
<path d="M 1514.99 453.22 L 1516.87 454.064 C 1519.84 458.312 1518.75 497.801 1518.64 505.403 L 1516.4 505.131 C 1513.71 501.005 1514.93 460.551 1514.99 453.22 z" fill="rgb(2,15,29)" transform="translate(0,0)"></path>
<path d="M 1571.26 421.638 L 1572.84 422.731 C 1575.09 426.906 1573.99 467.329 1573.56 474.346 L 1571.06 472.664 C 1569.27 467.211 1569.61 427.181 1571.26 421.638 z" fill="rgb(2,15,29)" transform="translate(0,0)"></path>
<path d="M 1461.64 482.255 L 1463.86 483.615 C 1465.92 488.228 1465.17 524.985 1463.92 530.6 L 1462.23 529.767 C 1459.81 525.701 1460.74 488.243 1461.64 482.255 z" fill="rgb(2,15,29)" transform="translate(0,0)"></path>
<path d="M 1626.28 390.58 L 1627.97 391.534 C 1630.52 395.997 1629.76 434.363 1628.62 440.464 L 1627.04 439.826 C 1624.96 436.585 1625.71 396.441 1626.28 390.58 z" fill="rgb(2,15,29)" transform="translate(0,0)"></path>
<path d="M 1687.5 342.546 C 1701.07 348.686 1730.95 367.128 1744.58 374.862 L 1870.59 446.987 C 1862.01 451.284 1851.49 458.04 1842.48 462.87 L 1842.49 445.153 L 1840.46 444.401 L 1839.16 445.534 C 1838.03 450.92 1838.63 459.192 1838.81 464.943 C 1826.09 471.661 1812.83 480.353 1799.39 487.513 C 1761.91 468.065 1724.67 445.454 1687.2 425.656 C 1687.04 398.577 1686.71 369.529 1687.5 342.546 z" fill="rgb(252,249,243)" transform="translate(0,0)"></path>
<path d="M 1790.1 418.263 L 1792.25 419.222 C 1794.54 423.274 1793.87 461.573 1793.71 468.882 L 1791.24 468.346 C 1788.45 464.128 1789.72 425.68 1790.1 418.263 z" fill="rgb(2,15,29)" transform="translate(0,0)"></path>
<path d="M 1736.84 388.437 L 1738.07 389.32 C 1740.28 392.76 1739.71 435.934 1738.62 441.828 L 1736.95 440.342 C 1734.77 435.736 1735.35 393.428 1736.84 388.437 z" fill="rgb(2,15,29)" transform="translate(0,0)"></path>
<path d="M 1682.61 315.926 C 1687.73 316.117 1871.6 421.854 1893.02 434.174 L 1879.19 441.731 C 1868.18 435.968 1857.46 429.34 1846.58 423.313 C 1792.27 393.226 1738.3 359.98 1683.17 331.555 C 1657.48 348.267 1622.64 367.077 1595.58 382.593 L 1483.14 447.381 C 1455.64 463.237 1426.88 480.486 1399.08 495.444 L 1385.28 488.379 C 1395.88 481.526 1410.84 473.533 1422.12 466.944 C 1448.85 451.178 1475.7 435.63 1502.67 420.3 L 1682.61 315.926 z" fill="rgb(252,249,243)" transform="translate(0,0)"></path>
<path d="M 1815.67 600.309 C 1864.56 601.928 1835.12 700.558 1777.23 715.283 C 1723.5 714.583 1759.58 610.565 1815.67 600.309 z" fill="rgb(252,249,243)" transform="translate(0,0)"></path>
<path d="M 1805.55 615.14 C 1835.12 613.103 1831.87 644.691 1823.46 663.438 C 1815.44 681.321 1803.87 693.244 1785.59 700.419 C 1757.24 704.083 1759.74 672.904 1767.04 654.897 C 1774.66 636.105 1787.02 623.166 1805.55 615.14 z" fill="rgb(2,15,29)" transform="translate(0,0)"></path>
<path d="M 1805.26 619.136 C 1845.43 616.306 1821.7 682.362 1785.5 696.884 C 1761.1 699.012 1763.68 673.356 1769.74 657.575 C 1776.55 639.809 1787.89 626.99 1805.26 619.136 z" fill="rgb(252,249,243)" transform="translate(0,0)"></path>
<path d="M 1804.58 627.888 C 1831.18 628.12 1814.04 678.111 1786.25 686.118 C 1769.02 686.02 1772.82 665.2 1777.7 654.962 C 1784.05 641.647 1790.68 633.425 1804.58 627.888 z" fill="rgb(4,21,41)" transform="translate(0,0)"></path>
<path d="M 1804.72 631.823 L 1808.87 632.309 C 1823.14 641.499 1804.11 673.082 1794.33 678.975 C 1791.81 680.498 1789.03 681.782 1786.32 682.909 C 1776.82 681.567 1775.77 672.337 1777.96 664.769 C 1782.39 649.499 1790.26 638.328 1804.72 631.823 z" fill="rgb(234,123,98)" transform="translate(0,0)"></path>
<path d="M 1526.22 772.105 C 1575.25 771.48 1543.82 876.071 1489.44 883.667 C 1440.74 884.028 1470.43 784.796 1526.22 772.105 z" fill="rgb(252,249,243)" transform="translate(0,0)"></path>
<path d="M 1519.59 786.048 C 1558.97 782.2 1538.91 860.224 1496.75 870.013 C 1467.3 871.101 1475.28 835.062 1483.77 818.352 C 1492.14 801.884 1501.93 792.105 1519.59 786.048 z" fill="rgb(2,15,29)" transform="translate(0,0)"></path>
<path d="M 1520.66 789.101 C 1546.69 789.346 1536.61 824.364 1529.04 838.558 C 1521.3 853.078 1512.24 861.653 1496.42 866.629 C 1479.04 867.06 1477.53 851.504 1480.53 838.077 C 1485.76 814.675 1497.83 797.495 1520.66 789.101 z" fill="rgb(252,249,243)" transform="translate(0,0)"></path>
<path d="M 1514.5 799.062 C 1543.83 796.216 1526.88 845.27 1501.94 856.806 C 1471.8 861.865 1489.14 811.334 1514.5 799.062 z" fill="rgb(4,21,41)" transform="translate(0,0)"></path>
<path d="M 1514.34 802.849 C 1539.64 800.783 1521.67 842.942 1500.93 853.501 C 1499.91 853.634 1497.48 853.921 1496.51 853.779 C 1494.4 853.465 1492.55 852.243 1491.42 850.436 C 1489.54 847.406 1489.72 842.302 1490.4 838.932 C 1493.53 823.307 1500.03 810.59 1514.34 802.849 z" fill="rgb(234,123,98)" transform="translate(0,0)"></path>
<path d="M 1885.95 474.992 C 1886.02 470.656 1886.72 469.996 1884.9 466.697 C 1882.23 466.166 1880.85 466.596 1878.21 468.072 C 1848.56 484.664 1819.19 502.172 1789.76 519.142 L 1653.05 596.967 C 1635.05 607.465 1616.99 617.871 1598.87 628.185 C 1589.53 633.418 1567.69 648.474 1557.86 642.08 C 1556.48 639.418 1556.3 640.083 1556.64 637.643 C 1563.16 632.478 1581.04 623.09 1588.98 618.599 L 1643.66 587.12 L 1803.92 494.672 C 1832.56 478.275 1870.45 457.959 1897.89 440.614 C 1898.05 471.96 1897.99 503.307 1897.73 534.652 C 1894.81 536.295 1891.22 538.442 1888.25 539.817 C 1885.9 533.458 1889.36 514.653 1886.43 510.269 C 1886.35 498.509 1886.18 486.75 1885.95 474.992 z" fill="rgb(252,249,243)" transform="translate(0,0)"></path>
<path d="M 1625.63 465.964 C 1629.68 465.849 1723.03 518.823 1734.52 524.968 C 1727.38 529.664 1718.74 534.631 1711.35 539.132 C 1710.74 539.247 1709.98 539.389 1709.08 539.556 C 1700.2 534.585 1689.07 528.213 1680.46 523.312 C 1654.49 508.556 1628.44 493.961 1602.29 479.527 L 1625.63 465.964 z" fill="rgb(252,249,243)" transform="translate(0,0)"></path>
<path d="M 1569.15 498.186 C 1603.57 517.144 1643.12 538.794 1676.54 559.038 C 1668.98 562.35 1658.8 568.403 1651.36 572.545 C 1617.1 554.584 1578.22 531.574 1544.47 512.377 C 1552.26 507.483 1561.08 502.732 1569.15 498.186 z" fill="rgb(252,249,243)" transform="translate(0,0)"></path>
<path d="M 1510.54 531.949 C 1517.95 533.751 1606.69 585.374 1617.49 592.471 C 1609.91 596.444 1601.9 601.18 1594.4 605.423 C 1590.62 605.559 1498.99 552.313 1486.88 545.493 C 1494.66 540.8 1502.55 536.284 1510.54 531.949 z" fill="rgb(252,249,243)" transform="translate(0,0)"></path>
<path d="M 1681.85 432.846 C 1686.77 433.31 1780.5 486.09 1790.72 492.366 L 1768.12 505.146 C 1762.36 505.048 1671.4 452.49 1659.8 445.724 C 1667.06 441.233 1674.11 437.841 1681.85 432.846 z" fill="rgb(252,249,243)" transform="translate(0,0)"></path>
<path d="M 1536.36 516.991 C 1541.35 517.703 1630.32 570.156 1644.09 577.004 C 1637.86 580.055 1631.8 583.684 1625.78 587.156 C 1620.73 586.117 1529.1 533.128 1519.03 526.806 L 1536.36 516.991 z" fill="rgb(234,123,98)" transform="translate(0,0)"></path>
<path d="M 1650.96 450.775 C 1655.89 451.323 1746.55 503.349 1759.47 510.525 L 1742.43 520.26 C 1737.42 519.466 1645.94 467.528 1634.43 460.96 L 1650.96 450.775 z" fill="rgb(234,123,98)" transform="translate(0,0)"></path>
<path d="M 1594.96 483.125 C 1605.87 490.789 1623.29 499.816 1635.4 506.583 L 1702.09 543.912 L 1683.82 554.003 C 1671.7 547.962 1655.98 538.309 1643.97 531.459 L 1576.76 493.725 L 1594.96 483.125 z" fill="rgb(234,123,98)" transform="translate(0,0)"></path>
<path d="M 1370.62 824.735 C 1384.23 832.971 1406.97 846.094 1420.98 852.791 C 1430.34 848.602 1446.78 838.552 1456.22 833.097 L 1454.24 842.85 C 1443.68 848.9 1433.31 855.269 1423.13 861.946 C 1411.47 855.662 1380.5 838.975 1370.68 831.664 C 1369.36 828.487 1369.96 828.708 1370.62 824.735 z" fill="rgb(252,249,243)" transform="translate(0,0)"></path>
<path d="M 1555.06 593.738 C 1565.49 599.252 1574.74 604.093 1584.82 610.291 L 1584.57 611.267 L 1577.68 615.054 L 1566.61 621.278 C 1563.75 619.12 1558.63 616.182 1555.44 614.214 C 1555.49 607.379 1555.25 600.57 1555.06 593.738 z" fill="rgb(234,123,98)" transform="translate(0,0)"></path>
<path d="M 1226.32 741.684 C 1242.23 755.715 1260.01 761.988 1277.61 773.4 C 1279.41 774.563 1278.78 778.96 1278.76 780.933 C 1273.9 780.083 1232.17 755.89 1227.05 751.773 C 1225.58 749.106 1226.16 744.858 1226.32 741.684 z" fill="rgb(252,249,243)" transform="translate(0,0)"></path>
<path d="M 1852.28 572.077 C 1854.13 573.111 1860.03 577.87 1862.02 579.4 C 1858.85 586.222 1856.55 591.7 1853.9 598.74 L 1847.19 594.29 C 1842.47 591.355 1837.19 587.319 1832.62 584.014 C 1839.78 578.991 1844.56 576.263 1852.28 572.077 z" fill="rgb(252,249,243)" transform="translate(0,0)"></path>
<path d="M 1116.02 103.197 C 1142.39 100.894 1146.37 115.316 1160.13 132.587 C 1165.64 139.504 1179.98 143.671 1183.06 153.446 C 1182.12 162.881 1163.73 169.505 1155.52 171.544 C 1155.26 182.388 1154.34 186.363 1147.71 194.847 C 1159.15 203.627 1178.3 217.212 1183.14 230.471 C 1187.81 243.257 1193.58 270.227 1193.67 283.678 C 1210.58 272.085 1229.67 261.416 1247.44 251.062 C 1276.28 234.437 1305.01 217.62 1333.62 200.612 C 1341.02 172.723 1364.19 167.495 1388.49 160.476 C 1395.81 158.363 1405.26 155.003 1412.49 158.347 C 1423.57 174.168 1349.42 184.833 1366.84 205.27 C 1376.06 216.091 1407.79 180.718 1421.78 180.609 C 1425.05 182.262 1423.98 181.198 1425.64 184.872 C 1424.37 191.472 1392.83 226.813 1385.57 231.699 C 1376.33 237.915 1363.64 237.281 1352.97 235.322 C 1329.4 248.519 1306.1 262.201 1283.09 276.359 C 1279.32 297.401 1269.67 296.283 1257.14 308.064 C 1232.68 331.053 1203.58 367.133 1166.75 343.908 C 1161.84 346.618 1156.28 350.156 1151.43 353.102 C 1160.38 391.375 1160.5 427.132 1161.72 465.967 C 1162 474.914 1171.24 491.106 1172.83 502.147 C 1175.4 520.001 1174.66 535.623 1174.1 553.516 C 1174.05 557.171 1176.92 558.563 1177.81 565.727 C 1175.69 571.646 1173.67 574.547 1170.07 579.418 C 1170.01 583.762 1170.19 588.168 1170.11 592.52 C 1169.8 608.86 1178.81 630.134 1165.72 643.48 C 1157.35 652.015 1138.8 653.037 1128.84 647.804 C 1110.35 638.096 1120.84 614.812 1123.02 599.298 C 1123.96 592.767 1124.07 587.146 1124.17 580.789 C 1110.53 567.607 1119.06 568.517 1121.47 556.217 C 1122.19 552.589 1118.63 536.327 1117.46 531.711 C 1108.04 494.519 1092.04 457.847 1078.69 421.835 C 1074.62 430.076 1065.6 447.874 1065.33 456.919 C 1065.38 468.471 1066.26 479.072 1064.59 490.591 C 1062.45 505.396 1053.47 519.128 1058.8 533.606 C 1059.45 535.376 1053.34 540.626 1051.29 542.297 C 1050.86 549.074 1051.61 560.072 1050.52 566.111 C 1049.09 574.068 1026.95 581.934 1020.14 585.57 C 1003.18 594.619 984.794 603.814 965.142 597.733 C 950.184 593.104 952.298 582.191 956.173 570.507 C 966.229 561.376 986.845 554.438 995.831 543.115 C 1005.47 530.977 988.207 530.867 1004.99 514.829 C 1005.04 495.575 1007.23 474.904 1008.55 455.588 C 1012.03 404.764 1019.34 354.577 1030.28 304.784 C 1027.72 304.954 1022.81 305.433 1020.39 305.195 C 997.648 302.949 967.139 284.169 960.779 261.681 C 958.445 253.532 959.507 244.785 963.723 237.43 C 975.694 216.27 1021.16 195.83 1041.22 181.936 C 1056.84 171.119 1075.72 171.78 1093.57 167.033 C 1090.38 160.581 1088.07 155.668 1084.04 149.702 C 1082.94 124 1088.47 109.185 1116.02 103.197 z" fill="rgb(4,21,41)" transform="translate(0,0)"></path>
<path d="M 1049.04 215.787 C 1055.25 200.489 1062.67 182.057 1080.47 178.756 C 1084.23 178.059 1086.67 177.15 1090.5 177.929 L 1091.26 179.013 C 1079.81 203.928 1087.61 221.253 1119.85 215.018 C 1125.06 214.011 1132.24 205.123 1135.59 200.731 C 1144.07 204.516 1152.18 209.101 1159.79 214.422 C 1132.28 217.544 1116.59 245.413 1119.05 270.638 C 1120.08 281.216 1134.32 303.208 1139.02 315.797 C 1131.4 320.607 1106.83 334.51 1101.98 338.535 L 1099.03 340.726 L 1088.9 348.166 C 1073.77 341.282 1049.03 330.628 1036.92 319.659 C 1035.79 317.135 1036.86 314.182 1037.46 311.266 L 1038.18 309.76 C 1035.66 291.442 1079.42 304.387 1065.36 282.557 C 1066.96 281.622 1067.6 280.06 1068.54 278.421 C 1067.39 272.439 1059.22 273.288 1054.65 273.828 C 1057.88 271.197 1058.64 270.309 1058.9 266.359 L 1057.37 264.634 C 1050.47 261.918 1046.39 263.173 1039.37 264.661 C 1040.03 259.586 1040.63 252.869 1042.27 248.165 L 1044.61 247.079 C 1042 243.218 1048.44 225.264 1049.89 219.984 L 1049.04 215.787 z" fill="rgb(122,181,173)" transform="translate(0,0)"></path>
<path d="M 1049.89 219.984 C 1062.96 231.758 1069.6 236.075 1084.53 245.012 C 1081.97 253.752 1080.48 259.771 1078.77 268.708 C 1064.21 261.355 1053.91 251.964 1044.61 247.079 C 1042 243.218 1048.44 225.264 1049.89 219.984 z" fill="rgb(252,249,243)" transform="translate(0,0)"></path>
<path d="M 1037.46 311.266 C 1053.98 325.689 1077.72 335.779 1099.03 340.726 L 1088.9 348.166 C 1073.77 341.282 1049.03 330.628 1036.92 319.659 C 1035.79 317.135 1036.86 314.182 1037.46 311.266 z" fill="rgb(234,123,98)" transform="translate(0,0)"></path>
<path d="M 1049.04 215.787 C 1051.67 217.415 1053.95 219.374 1056.28 221.391 C 1066.11 229.899 1077.06 236.99 1088.05 243.875 C 1085 253.844 1082.89 262.337 1081.41 272.705 C 1071.38 267.927 1049.05 256.396 1042.27 248.165 L 1044.61 247.079 C 1053.91 251.964 1064.21 261.355 1078.77 268.708 C 1080.48 259.771 1081.97 253.752 1084.53 245.012 C 1069.6 236.075 1062.96 231.758 1049.89 219.984 L 1049.04 215.787 z" fill="rgb(2,15,29)" transform="translate(0,0)"></path>
<path d="M 1038.18 309.76 C 1066.78 327.495 1070.73 329.894 1101.98 338.535 L 1099.03 340.726 C 1077.72 335.779 1053.98 325.689 1037.46 311.266 L 1038.18 309.76 z" fill="rgb(2,15,29)" transform="translate(0,0)"></path>
<path d="M 1326.77 213.591 L 1325.35 213.001 C 1326.74 210.675 1327.92 210.668 1330.68 209.246 C 1334.93 209.423 1333.72 208.813 1336.98 211.061 C 1339.27 214.415 1338.12 217.127 1339 220.963 L 1338.95 221.115 C 1341.01 225.257 1342.83 226.592 1346.28 229.753 L 1278.15 269.328 C 1276.08 264.877 1275.58 263.359 1271.97 260.138 L 1269.29 263.877 C 1274.15 267.989 1273.61 271.59 1274.38 278.208 C 1272.35 283.353 1271.09 287.192 1266.65 290.727 C 1261.73 295.687 1255.16 298.55 1250.32 302.895 C 1227.83 323.056 1207.35 353.33 1173.17 339.422 C 1192.15 327.078 1211.4 315.155 1230.91 303.662 C 1237.96 293.337 1238.41 291.927 1240.65 279.717 L 1237.34 278.055 L 1233.96 292.736 C 1224.03 299.101 1213.93 304.449 1203.94 310.645 L 1125.6 359.659 C 1120.74 362.664 1071.9 394.021 1070.16 393.69 C 1065.91 384.496 1064.11 381.991 1056.56 375.256 C 1056.85 374.666 1057.14 374.076 1057.42 373.486 C 1111.02 341.017 1164.79 308.806 1218.48 276.472 C 1253 255.68 1294.05 236.252 1326.77 213.591 z" fill="rgb(234,123,98)" transform="translate(0,0)"></path>
<path d="M 1326.77 213.591 L 1325.35 213.001 C 1326.74 210.675 1327.92 210.668 1330.68 209.246 C 1334.93 209.423 1333.72 208.813 1336.98 211.061 C 1339.27 214.415 1338.12 217.127 1339 220.963 L 1338.95 221.115 C 1341.01 225.257 1342.83 226.592 1346.28 229.753 L 1278.15 269.328 C 1276.08 264.877 1275.58 263.359 1271.97 260.138 L 1269.29 263.877 C 1274.15 267.989 1273.61 271.59 1274.38 278.208 C 1272.35 283.353 1271.09 287.192 1266.65 290.727 C 1261.73 295.687 1255.16 298.55 1250.32 302.895 C 1227.83 323.056 1207.35 353.33 1173.17 339.422 C 1192.15 327.078 1211.4 315.155 1230.91 303.662 C 1237.96 293.337 1238.41 291.927 1240.65 279.717 L 1237.34 278.055 C 1198.93 301.118 1160.67 324.453 1122.59 348.061 C 1116.84 351.611 1077.68 377.388 1073.47 377.298 L 1073.34 376.209 C 1078.1 371.191 1109.08 352.825 1116.51 348.227 L 1237.89 274.538 C 1244.47 270.539 1240.17 268.148 1246.04 264.766 C 1252.27 261.179 1262.98 261.194 1269.15 257.702 C 1291.81 244.879 1314.62 231.016 1336.98 217.723 C 1336.26 215.551 1335.45 213.42 1334.66 211.274 C 1331.71 210.259 1330.44 211.813 1326.77 213.591 z" fill="rgb(4,21,41)" transform="translate(0,0)"></path>
<path d="M 1240.65 279.717 L 1243.14 277.597 C 1246.85 279.536 1244.63 281.266 1247.74 285.553 C 1252.6 280.617 1244.37 275.986 1245.33 269.659 L 1247.04 268.197 C 1253.97 272.146 1250.67 283.551 1253.04 288.108 L 1255.15 287.733 C 1258.63 282.107 1251.78 271.307 1253.29 266.484 C 1256.53 266.423 1255.33 266.009 1257.84 268.018 C 1261.2 274.89 1258.13 284.627 1260.62 286.977 C 1269.08 281.999 1258.66 267.923 1260.09 263.545 L 1261.63 263.091 C 1272.6 271.395 1262.82 280.706 1266.32 288.936 L 1266.65 290.727 C 1261.73 295.687 1255.16 298.55 1250.32 302.895 C 1227.83 323.056 1207.35 353.33 1173.17 339.422 C 1192.15 327.078 1211.4 315.155 1230.91 303.662 C 1237.96 293.337 1238.41 291.927 1240.65 279.717 z" fill="rgb(252,249,243)" transform="translate(0,0)"></path>
<path d="M 1271.97 260.138 C 1287.8 249.283 1321.55 230.58 1338.95 221.115 C 1341.01 225.257 1342.83 226.592 1346.28 229.753 L 1278.15 269.328 C 1276.08 264.877 1275.58 263.359 1271.97 260.138 z" fill="rgb(234,123,98)" transform="translate(0,0)"></path>
<path d="M 1269.29 263.877 C 1274.15 267.989 1273.61 271.59 1274.38 278.208 C 1272.35 283.353 1271.09 287.192 1266.65 290.727 L 1266.32 288.936 C 1272.31 279.871 1270.81 274.124 1269.29 263.877 z" fill="rgb(239,240,240)" transform="translate(0,0)"></path>
<path d="M 1040.51 296.008 C 1032.36 296.47 1022.34 298.554 1014.52 296.256 C 994.581 290.347 962.442 270.775 968.971 246.081 C 973.224 229.993 1003.82 213.987 1017.91 206.324 C 1022.63 219.755 1025.17 226.455 1035.89 236.228 C 1030.9 240.265 1014.96 251.488 1009.36 253.263 C 1006.67 260.731 1012.53 272.059 1018.74 276.222 C 1024.11 276.742 1036.48 266.315 1040.15 268.708 C 1044.47 267.357 1050.77 264.85 1054.84 267.441 C 1053.98 269.62 1054.65 268.782 1052.9 270.139 L 1054.11 274.229 L 1054.65 273.828 C 1059.22 273.288 1067.39 272.439 1068.54 278.421 C 1067.6 280.06 1066.96 281.622 1065.36 282.557 C 1064.79 283.843 1063.89 285.519 1063.77 286.861 L 1063.45 289.769 L 1061.43 293.259 L 1060.89 293.366 C 1055.02 296.692 1047.14 296.13 1040.51 296.008 z" fill="rgb(252,249,243)" transform="translate(0,0)"></path>
<path d="M 1054.65 273.828 C 1059.22 273.288 1067.39 272.439 1068.54 278.421 C 1067.6 280.06 1066.96 281.622 1065.36 282.557 C 1064.79 283.843 1063.89 285.519 1063.77 286.861 L 1063.45 289.769 L 1061.43 293.259 L 1060.89 293.366 C 1055.02 296.692 1047.14 296.13 1040.51 296.008 L 1040.42 293.923 L 1039.66 292.965 C 1038.72 290.996 1038.92 290.377 1039 288.113 L 1039.69 287.081 L 1040.68 284.449 L 1040.33 281.21 L 1041.91 281.09 C 1045.39 277.112 1050.61 277.11 1055.84 276.37 L 1054.11 274.229 L 1054.65 273.828 z" fill="rgb(2,15,29)" transform="translate(0,0)"></path>
<path d="M 1039.66 292.965 C 1042.81 290.387 1057.92 290.246 1063.45 289.769 L 1061.43 293.259 L 1060.89 293.366 C 1055.02 296.692 1047.14 296.13 1040.51 296.008 L 1040.42 293.923 L 1039.66 292.965 z" fill="rgb(2,15,29)" transform="translate(0,0)"></path>
<path d="M 1060.89 293.366 C 1055.02 296.692 1047.14 296.13 1040.51 296.008 L 1040.42 293.923 C 1047.89 294.117 1053.41 293.858 1060.89 293.366 z" fill="rgb(217,228,226)" transform="translate(0,0)"></path>
<path d="M 1055.84 276.37 C 1059.85 276.252 1060.17 275.625 1063.28 277.251 C 1060.07 280.424 1049.13 281.348 1044.53 281.292 C 1043.66 281.277 1042.78 281.21 1041.91 281.09 C 1045.39 277.112 1050.61 277.11 1055.84 276.37 z" fill="rgb(252,249,243)" transform="translate(0,0)"></path>
<path d="M 1063.77 286.861 L 1063.45 289.769 C 1057.92 290.246 1042.81 290.387 1039.66 292.965 C 1038.72 290.996 1038.92 290.377 1039 288.113 C 1044.01 290.458 1058.13 287.733 1063.77 286.861 z" fill="rgb(217,228,226)" transform="translate(0,0)"></path>
<path d="M 1040.68 284.449 C 1045.71 284.059 1052.62 283.138 1057.36 284.254 C 1055.51 286.337 1048.81 286.605 1045.96 286.772 C 1043.87 286.892 1041.78 286.995 1039.69 287.081 L 1040.68 284.449 z" fill="rgb(170,173,175)" transform="translate(0,0)"></path>
<path d="M 1018.17 279.557 C 1011.86 273.459 1000.67 252.488 1007.54 245.614 C 1009.41 247.796 1009.16 250.24 1009.36 253.263 C 1006.67 260.731 1012.53 272.059 1018.74 276.222 C 1024.11 276.742 1036.48 266.315 1040.15 268.708 C 1038.13 271.413 1022.25 277.786 1018.17 279.557 z" fill="rgb(2,15,29)" transform="translate(0,0)"></path>
<path d="M 1040.33 281.21 C 1038 277.811 1038.34 279.243 1038.4 275.67 C 1040.79 272.374 1048.65 271.165 1052.9 270.139 L 1054.11 274.229 L 1055.84 276.37 C 1050.61 277.11 1045.39 277.112 1041.91 281.09 L 1040.33 281.21 z" fill="rgb(2,15,29)" transform="translate(0,0)"></path>
<path d="M 1135.22 289.499 C 1134.81 288.952 1134.44 288.397 1134.08 287.813 C 1128.18 278.164 1126.27 265.129 1128.83 254.205 C 1131.44 243.098 1138.82 229.49 1148.77 223.418 C 1153.13 220.752 1158.38 219.595 1163.39 220.984 C 1168.37 222.367 1172.17 226.113 1174.63 230.542 C 1176.86 234.553 1184.97 269.584 1183.89 273.421 C 1184.63 274.849 1185.03 274.971 1184.78 276.187 L 1186.22 288.026 C 1176.58 294.443 1157.36 306.595 1147 312.206 C 1144.84 307.602 1139.52 298.527 1139.95 294.401 C 1141.88 291.188 1144.32 291.673 1148.08 290.992 C 1145.2 291.054 1137.46 291.098 1135.22 289.499 z" fill="rgb(122,181,173)" transform="translate(0,0)"></path>
<path d="M 1184.78 276.187 L 1186.22 288.026 C 1176.58 294.443 1157.36 306.595 1147 312.206 C 1144.84 307.602 1139.52 298.527 1139.95 294.401 C 1141.88 291.188 1144.32 291.673 1148.08 290.992 C 1159.55 290.318 1175.75 283.477 1184.78 276.187 z" fill="rgb(252,249,243)" transform="translate(0,0)"></path>
<path d="M 1183.89 273.421 C 1184.63 274.849 1185.03 274.971 1184.78 276.187 C 1175.75 283.477 1159.55 290.318 1148.08 290.992 C 1145.2 291.054 1137.46 291.098 1135.22 289.499 C 1154.34 287.756 1168.32 285.261 1183.89 273.421 z" fill="rgb(2,15,29)" transform="translate(0,0)"></path>
<path d="M 1092.73 135.555 C 1095.16 101.22 1144.65 104.583 1153.27 140.443 L 1154.42 141.054 C 1157.82 141.313 1170.31 150.185 1174.02 152.648 C 1173.51 153.183 1173 153.707 1172.47 154.218 C 1149.87 176.256 1141.13 169.134 1116.73 156.864 C 1105.42 151.175 1091.64 158.162 1092.26 138.273 C 1092.14 137.557 1092.54 136.343 1092.73 135.555 z" fill="rgb(247,187,106)" transform="translate(0,0)"></path>
<path d="M 1092.26 138.273 C 1092.14 137.557 1092.54 136.343 1092.73 135.555 C 1114.13 149.929 1129.96 156.121 1153.27 140.443 L 1154.42 141.054 C 1157.82 141.313 1170.31 150.185 1174.02 152.648 C 1173.51 153.183 1173 153.707 1172.47 154.218 C 1149.87 176.256 1141.13 169.134 1116.73 156.864 C 1105.42 151.175 1091.64 158.162 1092.26 138.273 z" fill="rgb(247,187,106)" transform="translate(0,0)"></path>
<path d="M 1092.26 138.273 C 1092.14 137.557 1092.54 136.343 1092.73 135.555 C 1114.13 149.929 1129.96 156.121 1153.27 140.443 L 1154.42 141.054 C 1139.28 160.334 1108.35 152.568 1092.26 138.273 z" fill="rgb(2,15,29)" transform="translate(0,0)"></path>
<path d="M 1150.89 586.322 L 1162.11 584.886 C 1162.42 593.71 1162.82 602.531 1163.31 611.346 C 1164.17 613.232 1164.85 621.375 1164.42 623.443 C 1161.83 634.945 1149.6 638.304 1139.28 636.718 C 1119.04 633.612 1128.75 614.03 1130.7 601.069 C 1131.38 596.546 1131.38 591.334 1132.09 586.436 C 1134.23 584.801 1136.72 585.856 1140.2 586.271 C 1143.8 586.427 1147.31 586.691 1150.89 586.322 z" fill="rgb(247,187,106)" transform="translate(0,0)"></path>
<path d="M 1150.89 586.322 L 1162.11 584.886 C 1162.42 593.71 1162.82 602.531 1163.31 611.346 L 1162.71 612.195 L 1157.41 610.153 L 1157.08 613.719 C 1154.98 616.027 1148.82 613.775 1145.3 613.719 C 1140.95 613.651 1138.17 614.68 1134.17 615.925 C 1136.99 605.544 1134.66 594.659 1140.13 588.044 C 1140.65 587.343 1140.4 587.633 1140.2 586.271 C 1143.8 586.427 1147.31 586.691 1150.89 586.322 z" fill="rgb(2,15,29)" transform="translate(0,0)"></path>
<path d="M 1150.89 586.322 L 1162.11 584.886 C 1162.42 593.71 1162.82 602.531 1163.31 611.346 L 1162.71 612.195 L 1157.41 610.153 C 1156.36 602.913 1158.6 596.646 1155.64 590.08 C 1153.08 587.902 1154.07 588.495 1149.83 588.823 L 1149.31 587.843 L 1150.89 586.322 z" fill="rgb(249,203,135)" transform="translate(0,0)"></path>
<path d="M 1140.2 586.271 C 1143.8 586.427 1147.31 586.691 1150.89 586.322 L 1149.31 587.843 L 1149.83 588.823 C 1145.36 589.05 1144.52 588.965 1140.13 588.044 C 1140.65 587.343 1140.4 587.633 1140.2 586.271 z" fill="rgb(130,110,83)" transform="translate(0,0)"></path>
<path d="M 1140.16 592.59 C 1143.8 592.565 1148.59 592.219 1151.85 593.485 C 1154.25 596.451 1153.47 596.146 1153.55 600.863 C 1146.88 599.312 1145.15 601.083 1140.53 599.802 C 1138.87 596.77 1139.59 596.807 1140.16 592.59 z" fill="rgb(247,187,106)" transform="translate(0,0)"></path>
<path d="M 1140.39 603.042 C 1144.15 603.084 1148.08 602.825 1151.49 604.347 C 1154.12 607.161 1153.36 606.162 1153.66 610.74 C 1147.63 609.429 1145.02 611.008 1140.35 609.411 C 1138.89 606.788 1139.61 606.679 1140.39 603.042 z" fill="rgb(249,203,135)" transform="translate(0,0)"></path>
<path d="M 1135.01 361.973 L 1143.24 358.037 C 1147.71 381.904 1150.78 399.69 1152.1 423.938 C 1152.65 434.097 1151.81 459.498 1153.41 467.186 C 1156.7 482.984 1163.8 493.573 1165.66 512.594 C 1167.18 528.034 1164.64 549.985 1166.84 563.531 L 1161.22 566.628 C 1160.2 563.54 1160.37 521.727 1159.04 512.573 C 1156.18 492.931 1150.25 483.828 1146 465.936 C 1145.17 462.477 1144.55 434.727 1144.31 428.829 C 1143.31 404.057 1140.23 386.169 1135.01 361.973 z" fill="rgb(122,181,173)" transform="translate(0,0)"></path>
<path d="M 1001.49 546.478 L 1003.94 544.598 C 1011.13 545.724 1010.63 553.653 1016.45 551.583 C 1016.05 549.904 1015.67 548.521 1015.17 546.873 C 1018.74 544.849 1029.36 547.678 1033.81 547.713 C 1037.28 547.741 1040.5 546.879 1043.83 545.964 C 1043.53 549.515 1043.31 558.471 1040.41 559.89 C 1023.84 567.991 978.047 597.555 963.137 580.058 C 961.696 574.247 966.093 573.608 970.664 570.403 C 972.249 569.938 977.749 567.027 979.551 566.119 C 983.693 568.785 988.358 572.757 993.394 571.185 C 996.505 568.768 996.707 568.206 998.261 564.593 C 998.701 564.954 999.501 565.734 999.953 565.831 C 1004.29 564.428 1004.34 563.521 1005.22 559.506 C 1002.27 554.7 999.44 555.36 997.545 551.396 L 999.838 548.696 L 1001.49 546.478 z" fill="rgb(247,187,106)" transform="translate(0,0)"></path>
<path d="M 999.838 548.696 C 1003.99 551.281 1004.94 552.141 1007.24 556.611 L 1005.22 559.506 C 1002.27 554.7 999.44 555.36 997.545 551.396 L 999.838 548.696 z" fill="rgb(249,203,135)" transform="translate(0,0)"></path>
<path d="M 999.838 548.696 L 1001.49 546.478 C 1005.53 549.358 1008.78 551.886 1008.68 557.274 L 1007.4 557.415 L 1007.24 556.611 C 1004.94 552.141 1003.99 551.281 999.838 548.696 z" fill="rgb(34,45,50)" transform="translate(0,0)"></path>
<path d="M 1388.9 169.21 L 1390.48 169.368 C 1383.29 176.925 1356.58 181.958 1356.99 193.369 C 1358.62 239.234 1397.72 202.514 1408.32 195.429 L 1393.77 212.175 C 1387.61 219.282 1383.03 224.746 1373.7 227.664 C 1351.37 234.648 1332.05 215.326 1344.98 193.875 C 1355.26 176.823 1371.45 173.972 1388.9 169.21 z" fill="rgb(252,249,243)" transform="translate(0,0)"></path>
<path d="M 1099.48 173.931 C 1111.09 173.556 1104.11 176.537 1108.61 183.046 C 1113.71 190.393 1120.75 196.506 1128.18 201.428 L 1128.4 203.299 C 1126.35 208.25 1121.26 210.543 1116.61 212.59 C 1106.11 215.354 1089.29 210.129 1088.63 199.252 C 1087.81 185.724 1100.92 192.133 1099.48 173.931 z" fill="rgb(252,249,243)" transform="translate(0,0)"></path>
<path d="M 1056.56 375.256 C 1064.11 381.991 1065.91 384.496 1070.16 393.69 L 1067.22 395.645 C 1064.42 400.724 1050.56 407.779 1044.21 407.118 C 1032 405.846 1026.62 393.332 1037.1 385.529 C 1040.43 383.053 1050.36 376.565 1053.76 377.161 L 1056.56 375.256 z" fill="rgb(252,249,243)" transform="translate(0,0)"></path>
<path d="M 1056.56 375.256 C 1064.11 381.991 1065.91 384.496 1070.16 393.69 L 1067.22 395.645 C 1062.94 385.797 1061.78 384.229 1053.76 377.161 L 1056.56 375.256 z" fill="rgb(2,15,29)" transform="translate(0,0)"></path>
<path d="M 1121.38 163.395 C 1130.76 169.002 1137.6 172.383 1148.56 173.351 C 1146.22 182.436 1145.34 185.822 1138.3 191.967 C 1128.97 194.749 1119.18 190.207 1113.55 181.674 C 1108.67 174.277 1118.35 174.137 1121.38 163.395 z" fill="rgb(252,249,243)" transform="translate(0,0)"></path>
<path d="M 1058.67 182.005 L 1058.85 182.128 C 1059.79 184.244 1051.51 191.238 1048.89 195.573 C 1041.9 207.112 1038.65 218.359 1035.27 231.241 C 1033.28 229.077 1030.94 225.996 1029.05 223.643 C 1025.05 216.959 1022.98 212.018 1020.61 204.678 C 1034.38 196.444 1043.37 188.845 1058.67 182.005 z" fill="rgb(122,181,173)" transform="translate(0,0)"></path>
<path d="M 1070.83 412.814 C 1071.45 413.466 1071.39 413.906 1071.67 414.952 C 1068.38 426.212 1060.84 436.169 1059.27 448.364 C 1055.91 474.596 1058.39 505.773 1044.13 529.614 L 1042.24 529.502 L 1041.92 527.591 C 1046.88 515.299 1053.51 487.479 1053.48 474.594 C 1053.43 446.525 1056.6 437.23 1070.83 412.814 z" fill="rgb(122,181,173)" transform="translate(0,0)"></path>
<path d="M 1004.98 522.779 C 1016.51 531.98 1025.79 533.595 1041.1 532.01 C 1043.93 531.717 1046.64 529.101 1051.18 528.634 L 1051.91 529.895 L 1050.58 532.681 C 1039.85 541.376 1014.76 541.209 1004.8 530.009 C 1002.89 527.857 1004.22 525.256 1004.98 522.779 z" fill="rgb(122,181,173)" transform="translate(0,0)"></path>
<path d="M 1166.84 563.531 C 1167.22 562.217 1167.44 561.629 1167.53 560.256 L 1167.58 559.386 L 1168.4 562.515 L 1170.97 560.915 L 1171.24 562.584 C 1165.46 588.073 1117.42 581.044 1123.9 564.974 C 1133.1 576.109 1152.13 574.85 1163.43 568.416 L 1161.22 566.628 L 1166.84 563.531 z" fill="rgb(122,181,173)" transform="translate(0,0)"></path>
<path d="M 1166.84 563.531 C 1167.22 562.217 1167.44 561.629 1167.53 560.256 L 1167.58 559.386 L 1168.4 562.515 L 1170.97 560.915 L 1171.24 562.584 C 1168.45 565.251 1167.01 566.93 1163.43 568.416 L 1161.22 566.628 L 1166.84 563.531 z" fill="rgb(2,15,29)" transform="translate(0,0)"></path>
<path d="M 1032.7 249.93 L 1033.53 250.705 C 1033.99 253.883 1032.33 262.3 1031.75 265.887 C 1027.31 267.437 1024.53 268.474 1019.83 269.279 L 1015.31 259.964 L 1032.7 249.93 z" fill="rgb(252,249,243)" transform="translate(0,0)"></path>
<path d="M 988.286 558.717 C 991.487 560.448 992.839 561.884 993.746 565.412 C 992.459 568.389 993.324 567.374 990.245 569.109 C 987.395 567.694 985.319 566.866 983.046 564.619 C 983.703 561.725 985.561 561.042 988.286 558.717 z" fill="rgb(249,203,135)" transform="translate(0,0)"></path>
<path d="M 992.139 554.638 C 995.296 555.502 998.796 555.952 1000.48 558.624 C 1001.19 561.526 1000.63 562.982 999.953 565.831 C 999.501 565.734 998.701 564.954 998.261 564.593 C 996.783 560.917 994.862 559.737 991.793 557.222 L 992.139 554.638 z" fill="rgb(249,203,135)" transform="translate(0,0)"></path>
<path d="M 1128.46 640.053 C 1145.07 642.233 1140 645.124 1160.69 639.95 C 1150.72 646.296 1138.6 645.512 1128.46 640.053 z" fill="rgb(91,103,109)" transform="translate(0,0)"></path>
<path d="M 965.336 591.128 C 967.022 591.129 992.708 591.827 992.363 591.721 C 980.382 594.588 976.84 595.167 965.336 591.128 z" fill="rgb(91,103,109)" transform="translate(0,0)"></path>
<path d="M 1135.76 806.354 C 1136.61 806.345 1137.45 806.342 1138.3 806.347 C 1151.62 806.396 1169.68 809.566 1179.14 819.52 C 1188.43 829.293 1187.24 838.827 1186.89 851 C 1199.37 858.075 1214.96 867.754 1227.6 873.562 C 1248.75 867.547 1271.08 866.387 1290.16 879.186 C 1302.96 887.775 1306.92 905.783 1297.36 918.227 C 1288.64 929.587 1273.82 933.858 1260.24 935.672 C 1258.91 935.752 1257.57 935.808 1256.24 935.84 C 1242.98 936.179 1224.89 932.465 1215.54 922.863 C 1207.15 914.244 1207.03 907.621 1206.94 896.754 C 1199.14 892.497 1166.71 875.207 1161.68 870.388 C 1141.7 875.645 1117.26 876.266 1101.1 860.154 C 1092.24 851.316 1093.59 839.633 1093.99 828.072 C 1103.35 811.629 1118.42 808.287 1135.76 806.354 z" fill="rgb(4,21,41)" transform="translate(0,0)"></path>
<path d="M 1243.79 876.165 C 1290.29 871.731 1319.54 908.202 1263.24 919.787 C 1222.45 925.298 1187.52 890.122 1243.79 876.165 z" fill="rgb(252,249,243)" transform="translate(0,0)"></path>
<path d="M 1249.54 882.192 C 1277.49 880.406 1290.16 907.267 1258.24 912.873 C 1229.23 913.864 1218.82 891.475 1249.54 882.192 z" fill="rgb(2,15,29)" transform="translate(0,0)"></path>
<path d="M 1247.9 895.112 C 1254.04 894.438 1266.87 894.249 1267.88 902.289 C 1266.22 905.434 1264.93 905.752 1261.73 907.316 C 1254.17 908.113 1249.4 908.514 1242.43 905.269 C 1240.43 902.766 1240.76 903.942 1241.08 900.9 C 1242.95 897.788 1244.8 896.986 1247.9 895.112 z" fill="rgb(252,249,243)" transform="translate(0,0)"></path>
<path d="M 1249.59 887.111 C 1250.86 887.036 1252.12 887.004 1253.39 887.016 C 1259.57 887.1 1272.05 889.882 1271.39 898.098 C 1266.27 892.116 1265.58 892.191 1257.91 890.041 C 1247.75 889.768 1243.17 890.527 1236.98 898.556 L 1236.59 899.062 C 1235.46 896.971 1235.78 897.709 1235.99 894.987 C 1239.28 889.971 1244.06 888.686 1249.59 887.111 z" fill="rgb(239,240,240)" transform="translate(0,0)"></path>
<path d="M 1132.04 813.242 C 1174.81 808.264 1203.86 846.936 1147.44 857.803 C 1104.37 862.305 1077.56 823.573 1132.04 813.242 z" fill="rgb(252,249,243)" transform="translate(0,0)"></path>
<path d="M 1137.99 818.279 C 1166.71 818.285 1176.13 845.654 1142.78 850.788 C 1112.29 850.55 1105.88 823.435 1137.99 818.279 z" fill="rgb(4,21,41)" transform="translate(0,0)"></path>
<path d="M 1137.57 837.234 C 1141.79 836.661 1152.54 835.881 1152.95 842.01 C 1150.91 844.528 1148.27 844.748 1145.08 845.495 C 1139.5 845.667 1132.2 845.802 1127.84 842.006 L 1128.09 840.248 C 1130.64 837.95 1134.09 837.811 1137.57 837.234 z" fill="rgb(252,249,243)" transform="translate(0,0)"></path>
<path d="M 1136.63 823.184 C 1143.38 822.948 1148.27 823.612 1154.21 827.014 C 1157.82 829.08 1160.8 834.063 1157.98 837.742 C 1153.72 830.246 1157.86 831.576 1147.89 826.536 C 1135.26 824.785 1132.34 827.012 1122.92 834.309 L 1122.21 833.902 L 1122.51 831.349 C 1127.21 825.321 1129.28 825.179 1136.63 823.184 z" fill="rgb(239,240,240)" transform="translate(0,0)"></path>
<path d="M 1137.11 830.118 C 1142.97 829.744 1149.25 829.767 1153.49 834.68 L 1152.54 835.58 L 1146.68 833.603 C 1141.15 833.679 1135.33 834.978 1129.41 835.472 L 1128.59 834.743 C 1131.1 832.484 1134 831.465 1137.11 830.118 z" fill="rgb(239,240,240)" transform="translate(0,0)"></path>
<path d="M 1175.77 852.986 C 1180.79 853.898 1212.59 873.519 1219.78 877.639 L 1210.42 883.429 C 1196.27 876.431 1179.45 866.029 1165.49 857.931 L 1175.77 852.986 z" fill="rgb(252,249,243)" transform="translate(0,0)"></path>
<path d="M 1212.78 909.908 C 1238.87 931.819 1267.79 929.898 1294.39 910.76 L 1295.27 912.621 C 1279.39 937.489 1222.48 938.392 1212.78 909.908 z" fill="rgb(252,249,243)" transform="translate(0,0)"></path>
<path d="M 1098.7 846.552 C 1100.43 847.279 1110.45 856.542 1119.91 860.245 C 1138.17 867.388 1149.95 859.661 1159.75 861.263 L 1160.83 864.839 C 1159.33 865.413 1157.81 865.935 1156.28 866.405 C 1137.27 872.151 1105.01 868.817 1098.7 846.552 z" fill="rgb(252,249,243)" transform="translate(0,0)"></path>
<path d="M 1165.55 864.868 C 1165.73 864.914 1166.91 865.172 1167.04 865.252 C 1174.88 869.992 1204.19 883.297 1207.26 890.131 C 1202.4 890.857 1167.2 870.568 1165.55 864.868 z" fill="rgb(239,240,240)" transform="translate(0,0)"></path>
<metadata><recraft-signature>{"signed_by": "recraft", "signature_b64": "D2eCvfWG2tqOA/FPDk1SYP/VJZJpGM8dtSWt0fuB6/8wz2kgkJELXGq+Si/e5gqNuuVEIQMJdmIZYX6/vpnnBA==", "signing_algo": "Ed25519", "generation_timestamp": 1777312935, "identifier": "274f8ccc-8d4a-496d-8664-e136848a825e"}</recraft-signature></metadata></svg>