<svg xmlns="http://www.w3.org/2000/svg" height="1024" preserveAspectRatio="none" style="display: block;" version="1.1" viewBox="0 0 2048 1024" width="2048">
<path d="M 0 0 L 2048 0 L 2048 1024 L 0 1024 L 0 0 z" fill="rgb(253,253,253)" transform="translate(0,0)"></path>
<path d="M 1389.48 156.076 C 1416.53 155.583 1445.26 161.965 1471.88 166.47 C 1500.14 171.252 1530.19 175.521 1557.69 183.604 C 1582.11 190.779 1731.76 326.281 1746.08 352.546 C 1746.21 369.033 1746.25 385.519 1746.2 402.006 L 1874.08 469.887 C 1899.09 482.959 1924.73 495.664 1949.25 509.593 C 1959.87 515.621 1962.18 523.398 1962.32 534.829 C 1962.46 546.233 1963.18 560.26 1951.45 566.771 C 1940.13 573.029 1928.76 578.631 1917.4 584.52 C 1894.38 596.701 1871.26 608.675 1848.03 620.441 L 1636.73 729.692 C 1552.91 774.028 1468.85 817.933 1384.58 861.405 C 1334.3 887.745 1279.78 917.152 1228.75 941.614 C 1221.09 943.512 1213.49 944.591 1205.59 944.4 C 1197.72 944.272 1189.97 942.463 1182.85 939.094 C 1163.1 929.665 1137.34 915.433 1117.72 904.917 L 1044.82 866.594 L 747.679 708.632 C 724.742 696.198 689.113 678.64 667.363 664.149 C 659.332 658.797 661.413 639.286 661.892 629.368 C 671.275 614.329 683.603 610.704 698.712 602.808 L 746.207 577.929 L 837.452 529.506 C 863.822 515.64 890.453 502.256 916.441 487.701 C 916.694 462.429 915.201 420.884 917.253 394.751 C 917.488 391.753 926.481 387.54 929.722 385.913 C 936.327 386.161 944.08 387.414 950.736 388.328 C 961.224 383.532 976.996 374.421 987.536 368.789 L 1052.64 334.35 L 1288.27 208.819 C 1317.5 193.316 1360.09 168.87 1389.48 156.076 z" fill="rgb(4,7,26)" transform="translate(0,0)"></path>
<path d="M 1746.21 409.399 C 1790.51 432.453 1834.69 455.758 1878.73 479.314 C 1901.34 491.299 1924.3 502.841 1946.54 515.423 C 1958.46 522.166 1957.87 534.665 1946 541.501 C 1935.58 547.506 1925.06 552.844 1914.4 558.361 L 1854.36 589.456 L 1644.74 698.742 L 1373.98 839.807 C 1342.58 856.297 1311.09 872.619 1279.52 888.773 C 1201.71 928.969 1217.51 929.503 1140.3 889.639 C 1083.08 860.296 1026.18 830.334 969.603 799.76 L 751.746 683.849 C 727.018 670.525 702.14 657.459 677.439 644.132 C 674.088 643.21 666.647 633.869 668.874 630.595 C 678.016 617.153 711.605 602.939 725.208 595.924 C 747.11 583.452 772.649 570.804 795.261 558.893 L 916.353 495.196 L 916.501 624.593 C 936.878 635.812 957.401 646.766 978.064 657.452 C 949.632 670.845 912.197 692.244 883.723 707.421 C 910.288 721.799 939.658 735.805 965.57 750.846 C 997.23 734.817 1026.22 718.147 1058.71 703.078 C 1084.53 714.666 1121.79 735.678 1148.16 749.22 C 1118.14 764.587 1088.34 780.393 1058.78 796.636 C 1077.15 808.305 1117.38 827.711 1137.71 837.867 C 1168.57 823.123 1199.72 806.352 1230.5 790.98 C 1243.83 796.594 1269.23 816.726 1282.38 809.766 C 1332.5 783.225 1383.17 757.753 1433.53 731.662 L 1746.55 569.761 C 1745.41 517.365 1746.24 462.02 1746.21 409.399 z" fill="rgb(253,253,253)" transform="translate(0,0)"></path>
<path d="M 1562.56 203.696 C 1620.79 250.817 1674.14 297.979 1725.41 353.052 C 1708.32 362.551 1683.77 374.316 1668.07 383.861 C 1664.88 384.356 1665.64 383.741 1664.02 385.733 C 1653.04 390.764 1612.79 411.705 1603.08 417.645 L 1600.61 418.78 L 1560.82 439.626 C 1556.42 441.926 1544.06 448.033 1540.41 450.601 C 1539.43 451.18 1538.47 451.834 1537.41 452.193 C 1528.61 456.51 1479.95 482.51 1474.93 483.048 C 1473.56 484.087 1473.12 484.015 1472.81 485.302 C 1454.66 494.687 1436.66 504.345 1418.35 513.414 C 1415.89 514.63 1413.5 515.847 1411.3 517.499 L 1408.21 518.828 C 1399.45 521.637 1356.98 544.559 1345.88 550.417 C 1291.37 495.955 1241.33 448.838 1181.52 400.157 C 1191.87 394.64 1235.23 370.71 1244.16 368.999 L 1245.82 368.304 L 1246.16 366.761 C 1263.29 357.199 1290.62 343.354 1308.5 335.26 L 1311.32 333.776 C 1325.35 325.228 1359.46 307.386 1374.35 301.828 L 1376.69 300.611 C 1382.23 296.568 1433.1 270.478 1438.97 269.458 C 1440.11 268.519 1439.96 268.467 1440.78 267.159 C 1451.42 262.071 1497.02 235.624 1504.74 236.676 L 1506.84 235.104 L 1507.23 233.429 C 1523.08 223.561 1545.46 213.365 1562.56 203.696 z" fill="rgb(253,253,253)" transform="translate(0,0)"></path>
<path d="M 1311.32 333.776 C 1353.91 366.608 1397.88 408.132 1436.6 445.39 C 1445.78 454.222 1467.11 474.138 1474.93 483.048 C 1473.56 484.087 1473.12 484.015 1472.81 485.302 C 1454.66 494.687 1436.66 504.345 1418.35 513.414 C 1415.89 514.63 1413.5 515.847 1411.3 517.499 L 1408.21 518.828 C 1399.45 521.637 1356.98 544.559 1345.88 550.417 C 1291.37 495.955 1241.33 448.838 1181.52 400.157 C 1191.87 394.64 1235.23 370.71 1244.16 368.999 L 1245.82 368.304 L 1246.16 366.761 C 1263.29 357.199 1290.62 343.354 1308.5 335.26 L 1311.32 333.776 z" fill="rgb(253,253,253)" transform="translate(0,0)"></path>
<path d="M 1181.52 400.157 C 1191.87 394.64 1235.23 370.71 1244.16 368.999 C 1303.04 415.899 1355.04 466.03 1408.21 518.828 C 1399.45 521.637 1356.98 544.559 1345.88 550.417 C 1291.37 495.955 1241.33 448.838 1181.52 400.157 z" fill="rgb(253,253,253)" transform="translate(0,0)"></path>
<path d="M 1311.32 333.776 C 1353.91 366.608 1397.88 408.132 1436.6 445.39 C 1445.78 454.222 1467.11 474.138 1474.93 483.048 C 1473.56 484.087 1473.12 484.015 1472.81 485.302 C 1465.58 478.751 1457.82 470.962 1451 463.962 C 1405.87 417.646 1358.05 376.589 1308.5 335.26 L 1311.32 333.776 z" fill="rgb(17,18,40)" transform="translate(0,0)"></path>
<path d="M 1244.16 368.999 L 1245.82 368.304 L 1246.16 366.761 C 1291.39 403.26 1334.78 441.988 1376.17 482.799 C 1386.37 492.825 1402.37 507.527 1411.3 517.499 L 1408.21 518.828 C 1355.04 466.03 1303.04 415.899 1244.16 368.999 z" fill="rgb(17,18,40)" transform="translate(0,0)"></path>
<path d="M 1562.56 203.696 C 1620.79 250.817 1674.14 297.979 1725.41 353.052 C 1708.32 362.551 1683.77 374.316 1668.07 383.861 C 1664.88 384.356 1665.64 383.741 1664.02 385.733 C 1653.04 390.764 1612.79 411.705 1603.08 417.645 L 1600.61 418.78 C 1569.9 386.901 1538.2 356.002 1505.54 326.128 C 1496.53 317.971 1485.17 308.076 1476.3 300.295 C 1470.69 295.371 1441.19 272.959 1438.97 269.458 C 1440.11 268.519 1439.96 268.467 1440.78 267.159 C 1451.42 262.071 1497.02 235.624 1504.74 236.676 L 1506.84 235.104 L 1507.23 233.429 C 1523.08 223.561 1545.46 213.365 1562.56 203.696 z" fill="rgb(253,253,253)" transform="translate(0,0)"></path>
<path d="M 1562.56 203.696 C 1620.79 250.817 1674.14 297.979 1725.41 353.052 C 1708.32 362.551 1683.77 374.316 1668.07 383.861 C 1664.88 384.356 1665.64 383.741 1664.02 385.733 C 1662.33 379.581 1594.24 315.101 1583.66 304.742 C 1560.61 282.189 1529.37 257.683 1504.74 236.676 L 1506.84 235.104 L 1507.23 233.429 C 1523.08 223.561 1545.46 213.365 1562.56 203.696 z" fill="rgb(253,253,253)" transform="translate(0,0)"></path>
<path d="M 1506.84 235.104 C 1522.16 245.433 1542.1 263.421 1556.1 275.795 C 1594.86 310.298 1632.21 346.349 1668.07 383.861 C 1664.88 384.356 1665.64 383.741 1664.02 385.733 C 1662.33 379.581 1594.24 315.101 1583.66 304.742 C 1560.61 282.189 1529.37 257.683 1504.74 236.676 L 1506.84 235.104 z" fill="rgb(17,18,40)" transform="translate(0,0)"></path>
<path d="M 1438.97 269.458 C 1440.11 268.519 1439.96 268.467 1440.78 267.159 C 1452.77 277.966 1467.44 288.639 1480.01 299.553 C 1509.15 325.126 1537.6 351.485 1565.32 378.599 C 1575.64 388.676 1594.88 406.954 1603.08 417.645 L 1600.61 418.78 C 1569.9 386.901 1538.2 356.002 1505.54 326.128 C 1496.53 317.971 1485.17 308.076 1476.3 300.295 C 1470.69 295.371 1441.19 272.959 1438.97 269.458 z" fill="rgb(17,18,40)" transform="translate(0,0)"></path>
<path d="M 1311.32 333.776 C 1325.35 325.228 1359.46 307.386 1374.35 301.828 C 1386.37 313.657 1402.37 325.391 1415.39 336.506 C 1458.2 373.032 1496.77 413.48 1537.41 452.193 C 1528.61 456.51 1479.95 482.51 1474.93 483.048 C 1467.11 474.138 1445.78 454.222 1436.6 445.39 C 1397.88 408.132 1353.91 366.608 1311.32 333.776 z" fill="rgb(253,253,253)" transform="translate(0,0)"></path>
<path d="M 1374.35 301.828 L 1376.69 300.611 C 1433.99 345.718 1488.38 399.333 1540.41 450.601 C 1539.43 451.18 1538.47 451.834 1537.41 452.193 C 1496.77 413.48 1458.2 373.032 1415.39 336.506 C 1402.37 325.391 1386.37 313.657 1374.35 301.828 z" fill="rgb(17,18,40)" transform="translate(0,0)"></path>
<path d="M 1722.87 376.072 C 1724.93 378.358 1723.82 537.718 1723.78 554.039 C 1664.09 583.553 1601.84 617.349 1542.46 648.201 L 1288.06 779.879 C 1286.11 777.569 1286.99 618.128 1287.01 601.399 C 1375.23 557.082 1463.04 511.971 1550.45 466.073 C 1608.08 436.375 1665.55 406.374 1722.87 376.072 z" fill="rgb(253,253,253)" transform="translate(0,0)"></path>
<path d="M 1582.6 506.922 L 1585.27 507.31 C 1588.23 511.37 1586.74 556.921 1586.65 565.65 C 1565.14 576.973 1543.54 588.119 1521.84 599.088 L 1518.73 598.494 C 1515.69 594.543 1517 549.764 1517.03 541.132 C 1533.77 530.982 1563.76 517.066 1582.6 506.922 z" fill="rgb(4,7,26)" transform="translate(0,0)"></path>
<path d="M 1579.75 515.005 C 1582.02 518.091 1581.14 555.474 1581.12 562.182 L 1524.08 591.91 C 1522.17 589.017 1523.01 550.468 1523.04 544.001 C 1541.28 535.36 1561.52 524.361 1579.75 515.005 z" fill="rgb(247,193,90)" transform="translate(0,0)"></path>
<path d="M 1487.08 555.794 C 1488.93 555.516 1489.19 555.809 1490.83 556.672 C 1493.3 562.411 1491.9 603.98 1491.78 612.923 C 1470.05 624.533 1448.19 635.882 1426.19 646.967 C 1424.71 647.23 1423.9 646.758 1422.48 646.238 C 1419.9 640.869 1421.61 598.361 1421.78 589.55 C 1442.22 580.01 1467.27 566.648 1487.08 555.794 z" fill="rgb(4,7,26)" transform="translate(0,0)"></path>
<path d="M 1484.3 563.915 L 1485.7 564.987 C 1486.77 575.535 1486.09 598.14 1486.07 609.573 C 1467.7 619.748 1448.26 629.475 1429.55 639.129 L 1428.73 639.005 C 1426.8 635.825 1427.78 599.901 1427.83 593.256 L 1484.3 563.915 z" fill="rgb(247,193,90)" transform="translate(0,0)"></path>
<path d="M 1674.12 460.009 C 1674.97 460.176 1675.85 460.809 1676.65 461.275 C 1679.06 465.957 1677.93 509.324 1677.88 517.511 C 1668.09 524.256 1626.54 544.824 1614.49 550.959 L 1612.3 549.756 C 1609.85 545.375 1611.1 500.459 1611.17 492.34 C 1631.81 481.399 1653.29 470.647 1674.12 460.009 z" fill="rgb(4,7,26)" transform="translate(0,0)"></path>
<path d="M 1670.75 468.023 C 1672.86 471.272 1671.95 507.576 1671.92 514.323 C 1654.11 524.557 1636.24 533.393 1618.04 542.867 C 1616.12 540.098 1617.03 501.788 1617.07 495.459 C 1635.02 486.429 1652.92 477.283 1670.75 468.023 z" fill="rgb(247,193,90)" transform="translate(0,0)"></path>
<path d="M 1393.38 604.771 L 1396 605.583 C 1398.35 610.113 1397.2 653.356 1397.13 661.469 L 1333.86 693.712 L 1331.76 692.662 C 1329.28 688.543 1330.13 645.173 1330.13 637.355 C 1351.1 626.252 1372.55 615.98 1393.38 604.771 z" fill="rgb(4,7,26)" transform="translate(0,0)"></path>
<path d="M 1390.56 613.01 C 1392.64 615.707 1391.7 651.464 1391.67 657.762 L 1337.46 685.567 C 1335.29 682.454 1336.15 647.063 1336.17 640.271 C 1353.97 631.788 1372.85 621.909 1390.56 613.01 z" fill="rgb(247,193,90)" transform="translate(0,0)"></path>
<path d="M 938.374 405.669 C 985.443 410.938 1034.95 419.933 1079.86 435.225 C 1081.37 441.151 1085.17 449.739 1091.47 451.501 C 1095.01 452.491 1101.07 446.802 1104.25 444.838 C 1119.02 448.032 1250.53 569.107 1266.16 584.529 C 1267.62 655.385 1266.25 731.027 1266.17 802.331 C 1259.49 799.109 1246.99 793.062 1241.07 789.272 L 1241.12 657.594 C 1229.45 650.297 1202.62 637.406 1188.77 630.059 C 1179.08 624.905 1127.79 596.507 1121.3 596.268 C 1116.88 597.508 1113.81 601.646 1113.48 606.079 C 1112.55 618.559 1113.06 631.655 1113.08 644.173 L 1113.14 724.499 L 1089.03 711.773 L 1088.86 575.393 C 1072.75 567.721 981.169 515.313 971.626 514.73 C 967.407 515.891 964.63 518.763 964.289 523.247 C 963.22 537.293 963.725 551.711 963.762 565.825 C 963.835 591.405 963.659 616.985 963.234 642.561 L 938.507 629.633 L 938.374 405.669 z" fill="rgb(253,253,253)" transform="translate(0,0)"></path>
<path d="M 1128.68 520.3 C 1135.99 521.708 1196.45 555.663 1206.66 561.137 C 1206.81 569.272 1207.07 581.592 1206.06 589.383 C 1199.89 588.732 1137.45 554.446 1128.41 549.659 C 1128.31 540.46 1127.9 529.309 1128.68 520.3 z" fill="rgb(4,7,26)" transform="translate(0,0)"></path>
<path d="M 1134.13 528.554 C 1155.57 540.69 1178.94 552.704 1200.78 564.357 L 1200.89 581.461 C 1179.71 569.955 1155.73 557.217 1134.13 546.734 L 1134.13 528.554 z" fill="rgb(247,193,90)" transform="translate(0,0)"></path>
<path d="M 985.307 448.303 C 993.604 449.702 1051.63 481.966 1062.92 488.021 C 1063.01 496.92 1063.43 508.01 1062.53 516.684 C 1052.59 514.963 998.925 482.679 985.004 476.622 C 984.388 468.939 984.454 455.9 985.307 448.303 z" fill="rgb(4,7,26)" transform="translate(0,0)"></path>
<path d="M 990.286 456.756 C 1011.34 466.902 1036.8 480.213 1057.28 491.546 L 1057.26 508.665 C 1035.09 497.385 1012.15 484.545 990.196 472.63 L 990.286 456.756 z" fill="rgb(247,193,90)" transform="translate(0,0)"></path>
<path d="M 1087.55 455.954 C 1112.35 457.005 1132.96 495.987 1104.01 509.605 C 1074.71 510.543 1058.52 467.7 1087.55 455.954 z" fill="rgb(4,7,26)" transform="translate(0,0)"></path>
<path d="M 1087.21 461.827 C 1108.44 462.314 1124.16 493.985 1103.4 504.17 C 1082.09 504.362 1065.98 475.753 1087.21 461.827 z" fill="rgb(99,104,117)" transform="translate(0,0)"></path>
<path d="M 1087.74 466.088 C 1088.86 466.118 1089.98 466.239 1091.08 466.449 C 1105.88 469.167 1118.28 490.021 1101.56 500.453 C 1082.45 500.604 1070.99 476.231 1087.74 466.088 z" fill="rgb(4,7,26)" transform="translate(0,0)"></path>
<path d="M 1088.09 471.709 C 1101.5 471.353 1109.58 485.749 1100.3 496.288 C 1087.25 495.418 1079.52 483.039 1088.09 471.709 z" fill="rgb(247,193,90)" transform="translate(0,0)"></path>
<path d="M 1954.87 544.166 C 1960.09 551.58 1951.07 559.988 1944.99 563.202 C 1919.04 576.917 1892.84 590.167 1866.79 603.688 L 1636.24 723.141 L 1373.03 860.698 C 1325.95 885.275 1278.77 909.745 1231.39 933.723 C 1219.4 939.795 1198.57 940.569 1186.49 934.166 C 1162.3 921.341 1137.79 908.563 1113.54 895.77 L 964.137 816.763 C 892.218 779.036 820.511 740.905 749.02 702.371 C 735.743 695.249 676.585 665.138 669.396 657.697 C 667.865 653.875 665.648 648.931 667.69 644.969 C 694.872 661.989 729.993 678.824 758.722 694.405 L 983.098 814.005 C 1030.61 839.411 1078.27 864.546 1126.07 889.409 C 1146.36 900.044 1170.98 913.948 1191.95 922.433 C 1200.8 926.013 1220.24 925.217 1228.98 921.167 C 1252.64 910.195 1277.51 896.701 1300.85 884.601 L 1447.35 808.688 L 1954.87 544.166 z" fill="rgb(253,253,253)" transform="translate(0,0)"></path>
<path d="M 1389.57 161.02 C 1421.34 159.421 1526.09 180.87 1560.96 190.341 C 1569.48 194.52 1582.14 206.609 1589.17 211.515 C 1611.57 227.146 1740.3 340.256 1741.39 357.947 C 1735.13 365.401 1618.71 424.101 1600.87 433.366 C 1496.5 488.397 1391.62 542.436 1286.22 595.478 C 1252.02 563.082 1217.24 531.303 1181.9 500.157 C 1157.81 479.045 1132.83 456.144 1106.01 438.868 L 1114.34 434.309 C 1155.37 464.695 1196.8 505.077 1235.2 538.888 C 1250.12 552.022 1270.43 573.164 1285.73 584.049 C 1292.55 585.974 1367.14 545.759 1379.52 539.353 L 1489.73 482.734 C 1571.13 440.33 1655.4 398.232 1735.78 354.254 C 1729.78 349.967 1717.88 337.823 1712.4 332.294 C 1700.38 319.992 1688.22 307.822 1675.93 295.784 C 1639.91 261.211 1602.17 228.477 1562.85 197.706 L 1557.12 200.903 L 1247.98 359.54 C 1199.83 384.28 1151.41 408.463 1103.53 433.74 C 1095.83 437.802 1100.76 441.511 1094.99 444.813 C 1082.67 444.366 1084.73 432.066 1095.25 426.671 C 1106.62 420.84 1118.26 414.463 1129.51 408.371 C 1165.42 389.192 1201.56 370.435 1237.91 352.103 L 1461.45 236.36 C 1472.45 230.719 1543.3 195.038 1546.78 190.185 L 1545.88 188.231 C 1541.02 188.532 1538.3 188.227 1533.53 187.281 C 1486.51 177.949 1438.56 168.037 1390.71 164.146 C 1377.51 170.492 1364.72 178.003 1351.8 184.923 L 1276.37 225.254 L 1061.89 339.185 L 1002.46 370.846 C 996.13 374.282 966.315 391.989 961.616 389.067 C 964.251 385.496 1165.96 279.645 1188.45 267.493 L 1315.34 199.713 C 1338.54 187.398 1366.25 171.814 1389.57 161.02 z" fill="rgb(99,104,117)" transform="translate(0,0)"></path>
<path d="M 1178.01 401.952 C 1180.86 403.396 1199.21 418.413 1202.1 420.816 C 1232.74 446.574 1262.49 473.369 1291.31 501.155 C 1307.68 516.811 1327.19 535.341 1342.46 551.968 C 1332.22 557.255 1295.66 576.735 1287.27 579.349 C 1267.72 562.733 1247.25 542.935 1228.24 525.488 C 1193.2 492.705 1156.76 461.456 1119.02 431.828 C 1138.57 421.65 1158.24 411.69 1178.01 401.952 z" fill="rgb(253,253,253)" transform="translate(0,0)"></path>
<path d="M 1280.68 228.287 C 1282.74 224.849 1283.74 224.634 1287.6 223.888 L 1288.32 223.755 L 1288.95 222.791 L 1291.02 222.525 C 1296.03 224.629 1312.8 226.231 1318.8 227.4 C 1333.01 230.167 1400.57 247.309 1409.75 254.092 C 1409.28 255.703 1409.37 256.524 1408.32 257.392 C 1393.62 264.53 1363.22 279.59 1349.55 287.581 L 1345.98 289.601 C 1337.37 294.164 1287.97 322.836 1281.79 321.27 C 1281.65 321.234 1281.52 321.172 1281.39 321.124 C 1247.93 306.297 1199.82 297.76 1163.96 290.79 C 1174.08 284.941 1215.24 264.463 1221.12 259.305 C 1222.46 257.534 1224.82 257.001 1227.04 256.606 C 1234.53 253.586 1273.22 232.946 1280.68 228.287 z" fill="rgb(253,253,253)" transform="translate(0,0)"></path>
<path d="M 1280.68 228.287 C 1282.74 224.849 1283.74 224.634 1287.6 223.888 L 1288.32 223.755 L 1288.95 222.791 L 1291.02 222.525 C 1296.03 224.629 1312.8 226.231 1318.8 227.4 C 1333.01 230.167 1400.57 247.309 1409.75 254.092 C 1409.28 255.703 1409.37 256.524 1408.32 257.392 C 1393.62 264.53 1363.22 279.59 1349.55 287.581 C 1322.79 276.882 1288.14 268.661 1259.85 262.008 C 1249.96 259.684 1235.94 259.262 1227.04 256.606 C 1234.53 253.586 1273.22 232.946 1280.68 228.287 z" fill="rgb(253,253,253)" transform="translate(0,0)"></path>
<path d="M 1280.68 228.287 C 1282.74 224.849 1283.74 224.634 1287.6 223.888 L 1288.32 223.755 L 1288.95 222.791 L 1291.02 222.525 C 1296.03 224.629 1312.8 226.231 1318.8 227.4 C 1333.01 230.167 1400.57 247.309 1409.75 254.092 C 1409.28 255.703 1409.37 256.524 1408.32 257.392 C 1397.02 247.556 1295.05 221.368 1280.68 228.287 z" fill="rgb(17,18,40)" transform="translate(0,0)"></path>
<path d="M 1221.12 259.305 C 1222.46 257.534 1224.82 257.001 1227.04 256.606 C 1235.94 259.262 1249.96 259.684 1259.85 262.008 C 1288.14 268.661 1322.79 276.882 1349.55 287.581 L 1345.98 289.601 C 1341.5 287.214 1327.68 282.999 1322.18 281.281 C 1288.13 270.636 1256.45 263.429 1221.12 259.305 z" fill="rgb(17,18,40)" transform="translate(0,0)"></path>
<path d="M 1158.72 293.09 L 1163.05 292.503 L 1163.96 290.79 C 1199.82 297.76 1247.93 306.297 1281.39 321.124 L 1280.04 323.797 C 1260.84 334.687 1240.41 344.297 1220.94 354.729 C 1219.23 355.461 1218.02 355.955 1216.4 356.888 C 1196.51 366.666 1175.92 377.64 1156.03 387.752 C 1113.51 373.799 1079.86 364.65 1035.49 359.174 C 1052.45 348.491 1075.91 338.343 1093.89 327.7 C 1096.1 326.093 1097.32 324.913 1100.07 324.605 C 1112.22 319.503 1146.69 300.067 1158.72 293.09 z" fill="rgb(253,253,253)" transform="translate(0,0)"></path>
<path d="M 1093.89 327.7 C 1096.1 326.093 1097.32 324.913 1100.07 324.605 C 1108.56 327.373 1128.79 328.925 1139.91 331.61 C 1154.86 335.082 1169.7 338.988 1184.43 343.322 C 1195.33 346.633 1210.36 351.951 1220.94 354.729 C 1219.23 355.461 1218.02 355.955 1216.4 356.888 C 1196.51 366.666 1175.92 377.64 1156.03 387.752 C 1113.51 373.799 1079.86 364.65 1035.49 359.174 C 1052.45 348.491 1075.91 338.343 1093.89 327.7 z" fill="rgb(253,253,253)" transform="translate(0,0)"></path>
<path d="M 1093.89 327.7 C 1096.1 326.093 1097.32 324.913 1100.07 324.605 C 1108.56 327.373 1128.79 328.925 1139.91 331.61 C 1154.86 335.082 1169.7 338.988 1184.43 343.322 C 1195.33 346.633 1210.36 351.951 1220.94 354.729 C 1219.23 355.461 1218.02 355.955 1216.4 356.888 C 1188.5 345.417 1122.88 329.056 1093.89 327.7 z" fill="rgb(17,18,40)" transform="translate(0,0)"></path>
<path d="M 1158.72 293.09 L 1163.05 292.503 L 1163.96 290.79 C 1199.82 297.76 1247.93 306.297 1281.39 321.124 L 1280.04 323.797 C 1274.19 321.067 1260 316.896 1253.64 314.795 C 1222.26 304.438 1191.49 297.599 1158.72 293.09 z" fill="rgb(17,18,40)" transform="translate(0,0)"></path>
<path d="M 1353.67 189.365 C 1366.15 183.611 1378.79 173.234 1392.1 170.132 C 1407.41 166.565 1511.56 187.989 1533.29 192.693 L 1495.43 212.526 C 1491.24 214.725 1480.3 220.135 1476.81 222.525 C 1474.83 224.305 1474.71 224.582 1472.2 225.064 C 1460.79 230.074 1416.84 255.247 1409.75 254.092 C 1400.57 247.309 1333.01 230.167 1318.8 227.4 C 1312.8 226.231 1296.03 224.629 1291.02 222.525 C 1297.48 220.134 1340.61 197.092 1346.61 192.848 L 1347.36 191.145 C 1349.48 190.593 1351.58 189.999 1353.67 189.365 z" fill="rgb(253,253,253)" transform="translate(0,0)"></path>
<path d="M 1353.67 189.365 C 1366.15 183.611 1378.79 173.234 1392.1 170.132 C 1407.41 166.565 1511.56 187.989 1533.29 192.693 L 1495.43 212.526 C 1491.24 214.725 1480.3 220.135 1476.81 222.525 C 1456.83 217.398 1433.05 207.357 1410.55 201.366 C 1400.49 198.708 1390.35 196.403 1380.13 194.457 C 1374.23 193.378 1358.26 191.376 1353.67 189.365 z" fill="rgb(253,253,253)" transform="translate(0,0)"></path>
<path d="M 1346.61 192.848 L 1347.36 191.145 C 1349.48 190.593 1351.58 189.999 1353.67 189.365 C 1358.26 191.376 1374.23 193.378 1380.13 194.457 C 1390.35 196.403 1400.49 198.708 1410.55 201.366 C 1433.05 207.357 1456.83 217.398 1476.81 222.525 C 1474.83 224.305 1474.71 224.582 1472.2 225.064 C 1445.5 212.462 1376.12 193.805 1346.61 192.848 z" fill="rgb(17,18,40)" transform="translate(0,0)"></path>
<path d="M 982.926 540.694 C 1011.21 555.44 1040.92 572.654 1069.32 586.216 L 1069.04 699.776 C 1058.79 695.576 1043.41 686.685 1033.45 681.207 C 1016.61 671.851 999.631 662.734 982.53 653.859 C 982.909 616.139 983.041 578.416 982.926 540.694 z" fill="rgb(57,57,78)" transform="translate(0,0)"></path>
<path d="M 1738.9 366.868 L 1739.75 367.493 C 1741.25 370.701 1740.35 545.213 1740.41 565.891 C 1637.15 621.604 1527.55 676.793 1422.99 730.474 C 1378.2 753.123 1333.64 776.234 1289.32 799.802 L 1287.74 799.929 C 1286.51 797.005 1287.04 790.872 1287.12 787.407 C 1354.34 751.234 1424.85 715.701 1492.79 680.682 L 1729.83 557.571 C 1729.65 496.561 1730.7 432.644 1729.27 371.953 L 1738.9 366.868 z" fill="rgb(99,104,117)" transform="translate(0,0)"></path>
<path d="M 1149.8 631.297 C 1172.76 643.385 1199.31 656.376 1221.37 669.338 L 1221.46 779.266 C 1198.48 769.008 1173.22 754.148 1149.17 743.155 C 1149.09 705.868 1149.3 668.581 1149.8 631.297 z" fill="rgb(57,57,78)" transform="translate(0,0)"></path>
<path d="M 983.075 660.84 C 1006.29 673.487 1029.45 685.572 1052.39 698.866 C 1023.79 713.166 995.457 728.003 967.414 743.371 C 963.953 743.619 904.727 711.317 897.432 707.431 C 925.242 691.451 954.815 676.42 983.075 660.84 z" fill="rgb(247,193,90)" transform="translate(0,0)"></path>
<path d="M 1153.86 752.884 C 1156.3 752.54 1216.78 783.989 1223.85 787.527 C 1196.46 800.608 1167.28 816.242 1140.06 830.099 C 1139.82 830.209 1139.58 830.331 1139.33 830.429 C 1134.99 832.141 1079.48 801.058 1071.64 796.903 C 1090.59 784.619 1132.31 764.14 1153.86 752.884 z" fill="rgb(247,193,90)" transform="translate(0,0)"></path>
<path d="M 1029.49 361.945 C 1051.42 359.554 1129.58 382.598 1152.6 389.541 C 1134.78 399.788 1115.71 409.529 1097.47 419.152 C 1096.31 419.973 1094.45 420.15 1093.09 419.748 C 1075.42 414.521 1057.96 408.669 1039.96 404.619 C 1018.23 399.728 996.355 393.397 974.102 391.371 C 992.447 382.114 1011.31 371.663 1029.49 361.945 z" fill="rgb(253,253,253)" transform="translate(0,0)"></path>
<path d="M 970.478 520.266 C 978.051 521.451 1068.59 571.419 1082.49 579.056 C 1082.9 622.113 1083.04 665.173 1082.9 708.232 L 1075.05 704.051 L 1075.16 596.75 L 1075.26 583.652 C 1070.04 580.047 1056.11 573.033 1050.05 569.82 L 1002.81 544.801 C 994.449 540.365 983.783 535.09 976.463 529.375 C 977.871 566.26 975.934 605.501 976.789 642.562 C 976.861 645.677 977.173 646.532 975.439 648.253 C 972.65 648.013 972.37 647.796 970.257 645.936 C 969.169 642.058 969.504 527.194 970.478 520.266 z" fill="rgb(253,253,253)" transform="translate(0,0)"></path>
<path d="M 1120.92 601.811 C 1135.58 608.251 1153.56 618.224 1168.02 625.818 C 1190.3 637.378 1212.48 649.149 1234.54 661.13 C 1234.53 701.263 1234.59 742.765 1234.73 783.014 C 1234.31 783.517 1233.89 784.019 1233.47 784.521 C 1230.65 783.864 1230.25 783.779 1228.02 781.953 C 1226.86 777.036 1227.54 760.901 1227.5 754.759 L 1227.25 677.25 C 1227.28 675.603 1227.3 673.956 1227.28 672.309 C 1227.24 670.358 1227.09 665.886 1225.34 665.015 C 1212.9 658.826 1135.67 614.512 1128.4 614.834 C 1122.38 626.378 1131.51 726.306 1124.06 731 C 1121.92 729.267 1120.97 726.515 1120.27 723.932 C 1118.02 715.646 1118.38 621.132 1119.32 607.456 C 1119.46 605.299 1119.87 603.696 1120.92 601.811 z" fill="rgb(253,253,253)" transform="translate(0,0)"></path>
<path d="M 922.099 402.706 L 933.919 405.319 L 933.828 626.671 C 930.396 625.215 925.633 622.688 922.165 620.991 L 922.099 402.706 z" fill="rgb(99,104,117)" transform="translate(0,0)"></path>
<path d="M 1271.87 589.977 C 1273.96 591.328 1279.16 595.994 1281.29 597.813 L 1281.12 805.209 C 1277.59 806.044 1275.38 806.547 1272.53 804.846 C 1271.03 794.087 1272.41 751.71 1272.31 738.51 C 1271.91 689.194 1272.73 639.303 1271.87 589.977 z" fill="rgb(99,104,117)" transform="translate(0,0)"></path>
<path d="M 928.02 391.815 C 970.139 391.566 1048.47 411.652 1088.55 424.023 L 1082.55 429.986 C 1048.57 419.623 1018.3 411.753 983.036 405.899 C 972.871 404.211 929.098 400.097 923.744 396.809 C 924.514 394.343 925.856 393.79 928.02 391.815 z" fill="rgb(99,104,117)" transform="translate(0,0)"></path>
<path d="M 1133.01 622.578 L 1143.36 627.933 C 1143.42 652.994 1144.65 692.313 1143.04 716.668 L 1133.85 712.65 C 1132.59 706.9 1132.98 688.779 1132.98 682.103 L 1133.01 622.578 z" fill="rgb(253,253,253)" transform="translate(0,0)"></path>
<path d="M 1133.85 712.65 L 1143.04 716.668 C 1142.85 718.215 1142.87 719.257 1142.01 720.557 C 1144.73 724.098 1143.6 734.79 1143.5 739.796 L 1133.04 734.298 L 1133.04 715.501 L 1132.03 713.987 L 1133.85 712.65 z" fill="rgb(253,253,253)" transform="translate(0,0)"></path>
<path d="M 1133.85 712.65 L 1143.04 716.668 C 1142.85 718.215 1142.87 719.257 1142.01 720.557 L 1133.04 715.501 L 1132.03 713.987 L 1133.85 712.65 z" fill="rgb(4,7,26)" transform="translate(0,0)"></path>
<path d="M 435.491 605.894 C 439.57 606.217 631.83 709.428 653.761 721.186 L 653.9 840.004 C 637.961 849.86 604.377 865.673 586.785 874.745 C 537.105 899.893 487.631 925.446 438.368 951.402 C 432.219 952.034 245.466 851.856 220.024 839.454 C 218.976 802.297 219.847 759.207 219.907 721.889 C 239.309 710.087 265.082 697.659 285.569 686.547 C 335.298 659.572 386.286 633.815 435.491 605.894 z" fill="rgb(4,7,26)" transform="translate(0,0)"></path>
<path d="M 436.355 611.913 C 440.188 613.169 455.683 621.726 459.751 623.962 L 501.96 647.122 C 549.106 672.505 596.719 696.667 643.771 722.655 C 639.869 724.988 634.845 727.54 630.745 729.564 C 565.934 761.556 502.15 796.902 437.32 828.667 C 432.457 828.901 250.364 733.215 229.831 722.657 C 235.534 719.741 241.375 716.587 246.977 713.479 C 309.369 678.861 374.64 647.571 436.355 611.913 z" fill="rgb(247,193,90)" transform="translate(0,0)"></path>
<path d="M 435.444 643.832 C 439.068 643.852 569.678 714.141 583.392 721.424 C 535.904 743.856 482.379 773.847 435.377 798.521 C 405.199 782.698 374.934 767.041 344.585 751.55 C 328.372 743.259 302.642 731.162 287.651 721.953 C 335.489 698.852 387.076 668.667 435.444 643.832 z" fill="rgb(4,7,26)" transform="translate(0,0)"></path>
<path d="M 495.989 681.153 C 499.718 682.781 505.998 686.804 509.701 689.026 C 497.533 695.432 485.294 701.701 472.986 707.833 C 467.455 710.625 454.982 715.319 452.938 720.819 C 454.512 725.484 469.761 731.909 474.855 734.594 C 486.326 740.519 497.598 746.821 508.652 753.49 L 495.37 761.143 C 476.065 750.188 455.539 740.215 435.962 729.341 C 418.017 737.204 392.888 750.897 374.404 760.115 C 370.851 760.2 363.322 755.282 359.877 753.317 C 370.337 747.792 380.879 742.425 391.5 737.217 C 397.689 734.219 415.528 727.538 416.628 721.014 C 413.998 715.006 369.598 694.122 360.712 689.659 C 365.811 686.888 370.945 684.181 376.111 681.54 C 395.584 691.231 416.118 703.554 435.789 712.352 C 455.934 702.104 476.001 691.704 495.989 681.153 z" fill="rgb(253,253,253)" transform="translate(0,0)"></path>
<path d="M 516.149 691.994 C 534.624 701.437 552.948 711.174 571.113 721.2 C 553.667 731.367 534.257 740.111 516.286 750.141 C 509.4 748.567 469.516 725.43 460.937 720.728 L 516.149 691.994 z" fill="rgb(253,253,253)" transform="translate(0,0)"></path>
<path d="M 354.416 692.858 C 360.811 694.786 403.885 718.281 410.118 721.647 L 354.991 749.153 C 351.539 750.028 306.547 726.001 299.511 722.454 C 317.363 712.45 336.326 702.801 354.416 692.858 z" fill="rgb(253,253,253)" transform="translate(0,0)"></path>
<path d="M 435.299 649.965 C 438.438 649.752 484.521 674.725 490.617 677.907 C 474.009 685.917 452.386 696.974 436.493 706.078 C 434.064 706.292 388.618 681.711 381.628 678.205 C 398.264 668.688 418.125 658.923 435.299 649.965 z" fill="rgb(253,253,253)" transform="translate(0,0)"></path>
<path d="M 435.504 736.109 C 440.917 737.051 481.578 760.257 488.96 764.322 L 435.816 791.916 C 418.172 783.817 396.925 772.464 379.852 763.402 C 398.237 755.086 416.886 744.799 435.504 736.109 z" fill="rgb(253,253,253)" transform="translate(0,0)"></path>
<path d="M 646.653 728.03 C 648.538 731.232 647.994 795.793 648.016 805.05 C 579.97 836.823 508.757 876.515 441.439 910.449 C 439.487 907.876 440.196 841.52 440.18 833.525 C 472.973 817.468 506.467 799.34 538.917 782.555 L 646.653 728.03 z" fill="rgb(253,253,253)" transform="translate(0,0)"></path>
<path d="M 564.92 801.848 C 569.832 805.124 567.852 826.063 567.709 832.389 C 556.781 838.519 542.44 845.261 531.037 851.014 L 528.518 848.594 C 526.637 843.343 527.509 827.738 527.668 821.843 C 538.65 815.308 553.405 807.977 564.92 801.848 z" fill="rgb(4,7,26)" transform="translate(0,0)"></path>
<path d="M 561.694 809.002 L 562.423 809.716 C 563.313 813.373 562.725 824.564 562.608 828.979 L 551.194 835.023 L 550.532 834.443 C 549.397 831.168 549.883 819.593 549.931 815.406 L 561.694 809.002 z" fill="rgb(99,197,199)" transform="translate(0,0)"></path>
<path d="M 543.24 818.838 L 544.576 819.294 C 545.543 822.87 545.574 833.711 545.687 837.913 L 535.398 843.576 C 534.305 843.972 534.843 843.819 533.362 843.365 C 532.428 839.156 532.923 829.36 533.025 824.577 L 543.24 818.838 z" fill="rgb(99,197,199)" transform="translate(0,0)"></path>
<path d="M 498.79 834.876 L 500.559 835.461 C 503.343 838.808 502.113 859.427 502.013 865.038 C 492.959 868.784 475.34 878.465 466.381 883.377 L 464.177 882.398 C 461.284 878.669 462.639 859.375 462.802 853.599 L 498.79 834.876 z" fill="rgb(4,7,26)" transform="translate(0,0)"></path>
<path d="M 479.859 850.053 C 481.288 852.442 480.727 866.146 480.692 869.804 L 469.188 875.901 C 467.595 873.888 468.2 859.497 468.226 856.01 L 479.859 850.053 z" fill="rgb(99,197,199)" transform="translate(0,0)"></path>
<path d="M 495.184 841.86 L 496.565 842.304 C 497.555 845.863 497.111 857.276 497.058 861.648 L 486.593 866.943 L 485.926 866.734 C 484.625 863.96 485.138 851.309 485.166 847.44 L 495.184 841.86 z" fill="rgb(99,197,199)" transform="translate(0,0)"></path>
<path d="M 628.212 771.902 C 629.827 771.673 629.636 771.898 631.387 772.558 C 633.358 777.102 632.66 794.92 632.62 800.446 C 620.73 806.136 610.007 811.81 598.4 818.076 C 595.291 818.251 596.481 818.638 593.98 816.523 C 592.033 811.4 592.978 795.795 593.145 789.981 C 603.664 783.674 617.011 777.447 628.212 771.902 z" fill="rgb(4,7,26)" transform="translate(0,0)"></path>
<path d="M 609.196 786.876 L 610.184 787.222 C 611.329 790.018 610.867 801.621 610.834 805.415 L 600.457 811.45 L 599.17 811.322 C 598.098 808.169 598.646 796.865 598.718 792.892 L 609.196 786.876 z" fill="rgb(99,197,199)" transform="translate(0,0)"></path>
<path d="M 626.588 777.897 C 627.903 781.875 627.407 792.475 627.355 797.219 L 615.546 803.331 C 615.088 800.097 615.288 787.95 615.274 784.046 L 626.588 777.897 z" fill="rgb(99,197,199)" transform="translate(0,0)"></path>
<path d="M 225.841 727.446 C 246.543 736.271 277.578 753.382 298.325 764.158 C 343.502 787.745 388.811 811.078 434.249 834.157 L 434.54 910.634 C 428.538 909.258 380.06 882.91 370.992 878.198 L 282.715 832.295 C 265.011 823.177 242.767 812.455 225.867 802.553 L 225.841 727.446 z" fill="rgb(253,253,253)" transform="translate(0,0)"></path>
<path d="M 309.666 801.607 C 315.497 802.449 339.748 815.71 345.832 819.177 C 345.959 827.038 346.133 840.598 345.182 847.993 C 337.983 848.862 315.835 836.297 308.825 832.38 C 308.605 824.584 307.852 808.711 309.666 801.607 z" fill="rgb(4,7,26)" transform="translate(0,0)"></path>
<path d="M 313.689 808.46 C 318.523 810.589 321.523 812.196 326.059 814.769 C 327.065 815.093 330.111 815.972 330.85 816.474 C 334.467 818.631 337.048 820.136 340.861 821.894 L 340.878 842.166 L 330.127 836.9 C 328.467 835.895 327.868 835.953 325.982 835.726 C 322.843 833.661 317.186 830.853 313.713 828.992 L 313.689 808.46 z" fill="rgb(99,197,199)" transform="translate(0,0)"></path>
<path d="M 330.85 816.474 C 334.467 818.631 337.048 820.136 340.861 821.894 L 340.878 842.166 L 330.127 836.9 C 330.088 832.132 329.625 820.433 330.85 816.474 z" fill="rgb(99,197,199)" transform="translate(0,0)"></path>
<path d="M 326.059 814.769 C 327.065 815.093 330.111 815.972 330.85 816.474 C 329.625 820.433 330.088 832.132 330.127 836.9 C 328.467 835.895 327.868 835.953 325.982 835.726 C 326.46 831.05 326.095 819.933 326.059 814.769 z" fill="rgb(4,7,26)" transform="translate(0,0)"></path>
<path d="M 244.136 768.267 C 252.561 769.556 273.856 781.708 282.184 786.24 C 282.387 795.703 282.353 805.171 282.082 814.633 C 274.091 814.301 251.993 801.69 243.832 797.477 C 243.731 787.874 243.439 777.809 244.136 768.267 z" fill="rgb(4,7,26)" transform="translate(0,0)"></path>
<path d="M 248.722 774.99 C 251.885 776.202 258.02 779.504 261.275 781.132 L 261.184 800.423 L 248.848 794.223 L 248.722 774.99 z" fill="rgb(99,197,199)" transform="translate(0,0)"></path>
<path d="M 265.612 783.015 C 268.838 784.418 273.675 787.285 276.888 789.057 L 276.836 808.319 L 265.524 802.359 L 265.612 783.015 z" fill="rgb(99,197,199)" transform="translate(0,0)"></path>
<path d="M 375.533 835.729 C 381.216 836.846 404.629 849.709 411 853.085 C 411.126 859.528 412.028 878.148 409.837 883.413 C 403.455 881.476 381.099 869.713 374.403 866.11 C 374.239 859.317 373.105 841.111 375.533 835.729 z" fill="rgb(4,7,26)" transform="translate(0,0)"></path>
<path d="M 379.269 842.328 C 382.212 843.567 387.546 846.587 390.567 848.172 C 391.037 853.795 390.842 862.712 390.881 868.594 C 387.449 867.189 382.785 864.763 379.332 863.103 L 379.269 842.328 z" fill="rgb(99,197,199)" transform="translate(0,0)"></path>
<path d="M 395.112 850.319 C 397.733 851.351 403.38 854.63 406.085 856.104 L 406.066 875.97 C 402.854 874.616 398.406 872.261 395.162 870.675 L 395.112 850.319 z" fill="rgb(99,197,199)" transform="translate(0,0)"></path>
<path d="M 226.193 809.489 C 243.081 816.812 266.428 830.531 283.638 839.145 C 333.613 864.159 384.451 893.564 434.776 917.136 C 434.972 925.898 434.775 934.987 434.703 943.775 C 425.672 940.581 408.552 931.244 399.738 926.596 L 345.818 898.12 C 308.321 878.401 262.069 856.6 225.97 835.286 L 226.193 809.489 z" fill="rgb(253,253,253)" transform="translate(0,0)"></path>
<path d="M 646.734 812.007 C 648.792 814.7 647.892 832.247 647.831 836.825 C 578.86 871.5 510.164 908.821 441.113 943.047 C 440.202 939.354 440.332 922.428 440.303 917.593 C 508.837 882.791 577.453 845.41 646.734 812.007 z" fill="rgb(253,253,253)" transform="translate(0,0)"></path>
<path d="M 1740.61 731.403 C 1740.75 731.382 1740.88 731.361 1741.01 731.341 C 1787.66 727.559 1840.69 736.505 1877.81 766.797 C 1892.12 778.469 1903.94 794.282 1905.58 813.019 C 1906.98 828.926 1900.97 843.402 1890.67 855.154 C 1864.92 884.568 1815.66 899.522 1778.05 902.248 L 1777.48 902.307 C 1731.05 906.981 1674.27 897.014 1636.95 867.479 C 1608.35 844.846 1601.34 809.181 1626.46 780.589 C 1654.74 748.393 1699.2 734.999 1740.61 731.403 z" fill="rgb(17,18,40)" transform="translate(0,0)"></path>
<path d="M 1747.28 733.417 C 1789.38 728.639 1845.55 742.397 1878.13 770.18 C 1904.75 792.88 1913.48 827.109 1887.66 854.722 C 1857.92 886.517 1809.69 897.903 1768 900.431 C 1723.25 902.292 1674.83 894.027 1638.71 865.724 C 1610.81 843.888 1604.25 808.921 1628.88 781.47 C 1658.71 748.225 1704.49 736.625 1747.28 733.417 z" fill="rgb(253,253,253)" transform="translate(0,0)"></path>
<path d="M 1792.71 874.367 C 1790.12 875.61 1785.7 876.335 1782.7 876.761 C 1745.67 881.835 1705.39 877.624 1674.33 855.34 C 1653.4 841.6 1641.98 813.404 1660.5 792.157 C 1700.85 745.877 1795.29 743.332 1842.83 779.255 C 1864.96 795.971 1871.58 821.329 1853.27 843.463 C 1844.89 853.596 1818.51 870.509 1805.83 871.055 L 1805.3 871.503 C 1801.3 874.98 1801.69 876.706 1797.71 877.095 L 1792.71 874.367 z" fill="rgb(253,253,253)" transform="translate(0,0)"></path>
<path d="M 1767.63 781.374 C 1793.77 758.884 1832.65 761.919 1830.84 803.767 C 1830.44 812.96 1810.03 859.132 1804.74 868.631 C 1805.1 870.52 1804.66 869.775 1805.83 871.055 L 1805.3 871.503 C 1801.3 874.98 1801.69 876.706 1797.71 877.095 L 1792.71 874.367 L 1792.35 872.274 L 1792.43 871.744 C 1789.9 866.449 1783.17 856.846 1779.11 852.579 L 1778.7 850.502 C 1775.8 847.218 1768.95 836.011 1766.49 832.09 L 1765.23 829.869 C 1757.89 819.844 1757.05 815.941 1758.45 803.864 C 1759.15 802.713 1758.89 802.162 1758.91 800.581 C 1759.84 794.609 1763.42 788.594 1766.26 783.231 L 1767.63 781.374 z" fill="rgb(17,18,40)" transform="translate(0,0)"></path>
<path d="M 1796.7 772.28 C 1811.07 772.371 1822.2 777.409 1825.11 792.512 C 1826.07 797.792 1825.85 803.22 1824.46 808.405 C 1822.94 814.291 1801.99 864.587 1798.72 869.412 L 1796.84 868.532 C 1787.27 853.968 1777.39 839.697 1768.15 824.854 C 1760.98 813.322 1761.33 800.351 1769 789.042 C 1776.08 778.614 1784.78 774.6 1796.7 772.28 z" fill="rgb(232,128,89)" transform="translate(0,0)"></path>
<path d="M 1806.32 787.878 C 1834.81 787.142 1818.03 823.57 1798.61 832.49 C 1770.27 832.132 1787.5 797.967 1806.32 787.878 z" fill="rgb(17,18,40)" transform="translate(0,0)"></path>
<path d="M 1808.75 792.809 C 1815.74 793.712 1817.23 799.393 1815.24 805.237 C 1811.83 815.236 1806.4 822.034 1797.4 827.147 C 1781.02 824.495 1793.5 803.866 1800.3 798.1 C 1802.99 795.826 1805.66 794.41 1808.75 792.809 z" fill="rgb(253,253,253)" transform="translate(0,0)"></path>
<path d="M 1778.7 850.502 C 1753.13 854.994 1720.26 853.517 1701.17 832.892 C 1690.14 820.985 1693.48 804.568 1706.42 795.403 C 1724.29 782.736 1744.98 780.331 1766.26 783.231 C 1763.42 788.594 1759.84 794.609 1758.91 800.581 C 1758.89 802.162 1759.15 802.713 1758.45 803.864 C 1757.05 815.941 1757.89 819.844 1765.23 829.869 L 1766.49 832.09 C 1768.95 836.011 1775.8 847.218 1778.7 850.502 z" fill="rgb(253,253,253)" transform="translate(0,0)"></path>
<path d="M 1765.23 829.869 C 1755.92 831.335 1738.82 831.506 1733.7 821.684 C 1730.21 814.966 1736.12 807.088 1742.4 804.778 C 1746.48 803.275 1754.35 802.209 1758.45 803.864 C 1757.05 815.941 1757.89 819.844 1765.23 829.869 z" fill="rgb(253,253,253)" transform="translate(0,0)"></path>
<path d="M 1766.49 832.09 C 1765.37 832.429 1764.23 832.677 1763.07 832.832 C 1726.16 837.705 1712.51 802.424 1758.91 800.581 C 1758.89 802.162 1759.15 802.713 1758.45 803.864 C 1754.35 802.209 1746.48 803.275 1742.4 804.778 C 1736.12 807.088 1730.21 814.966 1733.7 821.684 C 1738.82 831.506 1755.92 831.335 1765.23 829.869 L 1766.49 832.09 z" fill="rgb(17,18,40)" transform="translate(0,0)"></path>
<path d="M 1792.71 874.367 C 1790.12 875.61 1785.7 876.335 1782.7 876.761 C 1745.67 881.835 1705.39 877.624 1674.33 855.34 C 1653.4 841.6 1641.98 813.404 1660.5 792.157 C 1700.85 745.877 1795.29 743.332 1842.83 779.255 C 1864.96 795.971 1871.58 821.329 1853.27 843.463 C 1844.89 853.596 1818.51 870.509 1805.83 871.055 C 1804.66 869.775 1805.1 870.52 1804.74 868.631 C 1813.56 867.633 1823.17 861.914 1830.85 858.074 C 1866.29 840.347 1872.98 802.321 1837.41 778.17 C 1790.78 746.512 1697.49 749.276 1660.6 795.902 C 1644.03 816.851 1659.12 844.65 1679.28 855.698 C 1710.43 875.912 1753.76 880.444 1789.43 872.959 C 1790.41 872.763 1791.38 872.534 1792.35 872.274 L 1792.71 874.367 z" fill="rgb(17,18,40)" transform="translate(0,0)"></path>
<path d="M 1779.11 852.579 C 1753.53 859.302 1707.62 853.166 1695.16 828.791 C 1675.71 790.762 1741.4 773.859 1767.63 781.374 L 1766.26 783.231 C 1744.98 780.331 1724.29 782.736 1706.42 795.403 C 1693.48 804.568 1690.14 820.985 1701.17 832.892 C 1720.26 853.517 1753.13 854.994 1778.7 850.502 L 1779.11 852.579 z" fill="rgb(17,18,40)" transform="translate(0,0)"></path>
<path d="M 235.414 285.28 C 241.781 285.749 279.691 307.831 287.577 312.212 C 288.23 331.672 287.277 353.675 287.575 373.666 C 298.206 369.258 300.185 365.504 310.149 371.366 C 314.465 367.469 308.868 369.174 313.842 363.494 C 331.579 343.242 348.977 322.818 366.261 302.179 C 389.326 325.018 396.83 324.495 410.948 357.574 C 415.708 355.378 427.939 348.689 432.511 351.202 C 430.536 356.773 419.092 361.819 413.651 364.661 C 420.897 385.9 421.747 410.631 413.568 431.745 C 411.166 437.945 403.886 454.581 398.429 457.853 C 392.4 458.477 379.796 447.293 374.372 443.232 C 360.908 433.003 347.303 422.958 333.563 413.103 L 322.592 404.819 C 318.876 406.434 314.067 409.079 310.363 410.973 C 308.531 428.505 301.441 430.323 286.852 437.412 C 293.051 441.441 303.643 446.819 310.395 450.518 C 310.468 470.952 310.626 493.419 309.816 513.733 C 291.842 504.517 274.177 494.712 256.849 484.332 L 256.929 447.962 C 249.165 451.944 241.313 455.809 233.122 459.989 C 213.517 469.993 197.573 479.875 181.464 457.509 C 173.735 446.778 173.394 430.388 184.161 421.272 C 199.204 408.537 220.597 401.434 237.975 392.092 C 239.245 391.41 241.438 385.43 243.834 384.263 C 246.739 382.848 252.078 383.117 254.412 381.518 C 254.391 374.911 254.301 368.305 254.142 361.7 C 248.679 358.423 240.882 354.63 235.093 351.609 C 234.991 332.155 234.113 303.858 235.414 285.28 z" fill="rgb(4,7,26)" transform="translate(0,0)"></path>
<path d="M 355.031 322.695 C 359.427 319.42 363.19 314.112 366.648 309.748 C 395.13 334.635 409.82 352.073 413.935 392.596 C 416.212 415.015 408.493 434.342 396.626 453.116 C 392.32 449.849 383.221 442.469 378.711 440.698 C 375.816 439.769 376.882 440.419 374.735 437.837 C 373.536 436.253 364.213 428.944 361.76 426.895 C 381.249 407.369 381.562 382.92 367.936 359.944 C 361.985 349.91 353.197 343.812 344.028 336.989 C 347.704 332.725 349.419 330.541 352.554 325.815 L 355.031 322.695 z" fill="rgb(253,253,253)" transform="translate(0,0)"></path>
<path d="M 352.554 325.815 C 375.056 343.901 389.068 360.31 392.83 389.946 C 394.842 405.799 388.503 428.87 374.735 437.837 C 373.536 436.253 364.213 428.944 361.76 426.895 C 381.249 407.369 381.562 382.92 367.936 359.944 C 361.985 349.91 353.197 343.812 344.028 336.989 C 347.704 332.725 349.419 330.541 352.554 325.815 z" fill="rgb(253,253,253)" transform="translate(0,0)"></path>
<path d="M 352.554 325.815 L 355.031 322.695 C 361.107 328.075 367.924 332.394 373.845 337.979 C 388.512 351.815 396.452 371.816 397.858 391.719 C 399.187 410.554 392.337 427.779 378.711 440.698 C 375.816 439.769 376.882 440.419 374.735 437.837 C 388.503 428.87 394.842 405.799 392.83 389.946 C 389.068 360.31 375.056 343.901 352.554 325.815 z" fill="rgb(4,7,26)" transform="translate(0,0)"></path>
<path d="M 334.222 347.038 C 337.205 346.036 339.327 342.748 341.375 340.21 C 349.551 346.535 357.855 352.374 363.386 361.336 C 375.48 380.937 376.223 402.561 361.529 421.194 C 360.555 422.429 359.555 423.643 358.529 424.836 C 355.359 422.449 348.466 416.937 345.223 415.454 L 342.956 413.991 C 340.219 410.94 332.492 405.703 328.802 403.044 C 347.775 389.255 335.531 373.799 318.295 366.778 C 322.175 362.471 324.744 359.873 327.66 354.76 C 332.282 350.004 327.723 351.126 334.222 347.038 z" fill="rgb(253,253,253)" transform="translate(0,0)"></path>
<path d="M 327.66 354.76 C 355.256 369.137 361.366 388.084 342.956 413.991 C 340.219 410.94 332.492 405.703 328.802 403.044 C 347.775 389.255 335.531 373.799 318.295 366.778 C 322.175 362.471 324.744 359.873 327.66 354.76 z" fill="rgb(253,253,253)" transform="translate(0,0)"></path>
<path d="M 327.66 354.76 C 332.282 350.004 327.723 351.126 334.222 347.038 L 332.412 351.171 C 333.868 354.546 342.144 357.835 345.125 360.82 C 360.738 376.454 362.476 400.485 345.223 415.454 L 342.956 413.991 C 361.366 388.084 355.256 369.137 327.66 354.76 z" fill="rgb(17,18,40)" transform="translate(0,0)"></path>
<path d="M 282.601 374.983 C 298.265 379.778 311.159 406.645 301.925 421.031 C 298.922 425.709 277.34 436.341 271.816 437.47 L 270.913 436.067 C 271.688 418.398 268.121 405.561 252.194 396.119 C 249.913 394.766 247.566 392.834 245.542 391.111 L 245.882 389.814 C 250.3 387.887 253.117 390.032 253.962 389.532 C 262.613 384.415 273.729 378.97 282.601 374.983 z" fill="rgb(247,193,90)" transform="translate(0,0)"></path>
<path d="M 240.643 396.94 C 255.771 396.174 278.486 433.155 257.7 441.626 C 250.613 444.514 242.508 449.045 235.622 452.507 C 235.008 449.423 234.339 446.351 233.616 443.292 C 229.747 427.278 222.116 420.454 208.935 412.394 C 219.073 407.155 230.309 401.951 240.643 396.94 z" fill="rgb(253,253,253)" transform="translate(0,0)"></path>
<path d="M 202.856 416.821 C 220.473 418.05 227.783 440.944 230.481 455.167 L 209.38 464.617 C 192.063 466.649 179.106 451.721 182.243 434.556 C 183.994 424.972 194.911 421.196 202.856 416.821 z" fill="rgb(253,253,253)" transform="translate(0,0)"></path>
<path d="M 191.264 425.938 C 209.314 423.123 221.967 449.234 208.085 461.89 C 189.05 464.869 177.377 440.56 191.264 425.938 z" fill="rgb(4,7,26)" transform="translate(0,0)"></path>
<path d="M 194.061 430.473 C 195.397 430.714 196.67 431.003 197.894 431.606 C 202.331 433.829 205.69 437.739 207.219 442.461 C 208.941 447.826 208.428 452.305 205.851 457.192 C 192.467 454.613 186.475 442.015 194.061 430.473 z" fill="rgb(247,193,90)" transform="translate(0,0)"></path>
<path d="M 317.524 373.962 C 326.017 373.375 335.305 380.165 331.28 389.579 C 327.986 397.285 321.574 398.812 314.356 401.794 C 312.796 402.618 312.756 402.483 311.058 402.271 C 307.69 393.909 306.036 389.797 301.348 382.198 C 306.734 379.677 312.227 376.711 317.524 373.962 z" fill="rgb(247,193,90)" transform="translate(0,0)"></path>
<path d="M 263.13 326.246 C 267.545 328.022 276.454 333.162 280.982 335.624 L 281.086 348.777 C 277.102 347.105 267.394 341.49 263.177 339.207 L 263.13 326.246 z" fill="rgb(247,193,90)" transform="translate(0,0)"></path>
<path d="M 286.743 461.377 L 304.009 470.575 L 304.068 483.785 C 299.821 482.012 291.197 477.048 286.808 474.679 L 286.743 461.377 z" fill="rgb(247,193,90)" transform="translate(0,0)"></path>
<path d="M 286.224 481.387 C 291.516 483.733 298.812 488.178 304.02 491.176 L 304.173 504.149 C 299.594 502.037 291.426 497.157 286.726 494.554 C 286.135 490.885 286.261 485.245 286.224 481.387 z" fill="rgb(247,193,90)" transform="translate(0,0)"></path>
<path d="M 262.952 346.492 C 276.54 353.354 281.867 352.51 281.135 368.681 C 277.062 367.28 267.155 361.354 262.92 358.947 L 262.952 346.492 z" fill="rgb(247,193,90)" transform="translate(0,0)"></path>
<path d="M 262.888 305.665 C 268.324 308.454 275.473 312.882 280.915 316.023 L 280.879 328.464 C 275.934 326.025 268.042 321.109 263.03 318.21 L 262.888 305.665 z" fill="rgb(247,193,90)" transform="translate(0,0)"></path>
<path d="M 263.194 449.66 L 279.967 458.04 L 280.065 471.693 C 274.401 468.616 268.761 465.495 263.146 462.331 L 263.194 449.66 z" fill="rgb(247,193,90)" transform="translate(0,0)"></path>
<path d="M 263.12 469.368 C 266.664 470.775 276.529 476.492 280.35 478.59 L 280.32 490.645 L 263.058 481.593 L 263.12 469.368 z" fill="rgb(247,193,90)" transform="translate(0,0)"></path>
<path d="M 240.505 293.91 C 245.362 295.83 251.666 299.894 256.292 302.662 L 256.565 314.954 C 253.003 314.247 244.528 308.929 241.043 306.884 L 240.505 293.91 z" fill="rgb(247,193,90)" transform="translate(0,0)"></path>
<path d="M 240.951 334.443 C 245.896 337.481 251.445 340.055 256.669 342.628 L 256.681 355.719 C 254.376 354.892 243.784 348.803 241.013 347.263 L 240.951 334.443 z" fill="rgb(247,193,90)" transform="translate(0,0)"></path>
<path d="M 240.988 314.488 C 246.088 317.115 251.211 319.881 256.288 322.568 L 256.383 335.532 C 251.544 333.028 245.793 329.515 240.984 326.74 L 240.988 314.488 z" fill="rgb(247,193,90)" transform="translate(0,0)"></path>
<path d="M 286.84 444.717 C 296.236 449.103 296.289 449.022 295.919 459.396 C 286.774 454.695 286.49 454.969 286.84 444.717 z" fill="rgb(247,193,90)" transform="translate(0,0)"></path>
<path d="M 262.057 366.279 C 264.856 367.604 270.237 370.085 271.802 372.49 L 270.627 374.005 C 267.856 375.457 265.921 376.966 263.009 376.415 C 261.35 374.005 261.961 369.452 262.057 366.279 z" fill="rgb(247,193,90)" transform="translate(0,0)"></path>
<path d="M 278.391 441.09 L 279.214 441.329 C 280.418 444.472 280.569 446.847 278.92 449.72 L 276.093 449.202 C 273.505 447.937 272.388 447.609 270.438 445.44 C 271.641 443.195 275.537 442.256 278.391 441.09 z" fill="rgb(247,193,90)" transform="translate(0,0)"></path>
<path d="M 301.936 452.53 L 303.259 453.721 C 304.658 456.6 304.014 461.011 303.821 464.351 L 302.638 463.316 C 301.21 460.4 301.789 455.919 301.936 452.53 z" fill="rgb(247,193,90)" transform="translate(0,0)"></path>
<path d="M 699.243 67.273 C 709.244 71.0313 740.026 88.4629 751.209 94.4852 L 751.239 154.266 L 759.607 160.215 C 780.505 138.396 805.279 111.222 826.838 90.9069 C 873.592 131.376 894.421 188.095 853.175 241.066 C 827.137 224.484 803.033 205.672 776.35 189.084 L 771.707 196.496 C 762.45 208.868 760.326 210.969 746.605 217.625 C 754.614 222.081 761.344 225.771 769.721 229.623 C 769.69 247.748 769.931 265.854 770.096 283.973 C 770.131 287.794 769.508 289.727 766.932 292.126 C 761.266 293.129 728.811 272.382 717.337 268.186 C 716.649 257.183 717.174 240.193 717.173 228.748 C 697.201 236.34 658.629 265.421 644.028 237.324 C 627.315 205.164 648.881 198.758 672.173 186.434 C 687.481 178.485 702.628 170.228 717.604 161.668 L 717.751 142.636 C 712.739 139.302 704.434 134.877 699.003 131.761 C 698.879 114.57 697.799 82.7942 699.243 67.273 z" fill="rgb(4,7,26)" transform="translate(0,0)"></path>
<path d="M 827.242 98.139 C 869.751 134.6 884.727 185.687 852.532 234.433 C 847.503 230.974 841.57 226.556 836.109 224.052 C 834.844 223.62 834.036 222.715 832.95 221.804 C 831.166 218.896 824.482 214.645 821.398 212.449 C 845.504 183.433 833.894 141.896 803.355 122.978 C 806.848 119.514 809.574 117.066 812.228 112.858 L 814.947 109.647 C 819.689 106.461 823.305 102.28 827.242 98.139 z" fill="rgb(253,253,253)" transform="translate(0,0)"></path>
<path d="M 812.228 112.858 C 846.283 140.027 863.506 183.941 833.498 221.129 L 832.95 221.804 C 831.166 218.896 824.482 214.645 821.398 212.449 C 845.504 183.433 833.894 141.896 803.355 122.978 C 806.848 119.514 809.574 117.066 812.228 112.858 z" fill="rgb(253,253,253)" transform="translate(0,0)"></path>
<path d="M 812.228 112.858 L 814.947 109.647 C 820.133 114.038 825.169 118.326 829.958 123.161 C 854.263 147.699 862.972 192.941 839.092 220.804 C 838.131 221.917 837.137 223.001 836.109 224.052 C 834.844 223.62 834.036 222.715 832.95 221.804 L 833.498 221.129 C 863.506 183.941 846.283 140.027 812.228 112.858 z" fill="rgb(4,7,26)" transform="translate(0,0)"></path>
<path d="M 741.139 157.939 C 756.812 160.331 767.051 181.954 763.325 195.881 C 760.339 207.044 737.337 216.937 727.548 221.999 L 726.707 221.345 C 733.313 200.569 723.404 185.589 705.716 175.23 C 718.309 168.082 727.328 162.644 741.139 157.939 z" fill="rgb(247,193,90)" transform="translate(0,0)"></path>
<path d="M 696.403 181.045 C 712.353 181.408 726.769 199.232 722.558 214.905 C 720.612 222.146 702.492 228.507 695.267 231.669 L 693.52 232.131 C 688.162 227.156 696.817 210.722 669.4 195.162 C 678.281 189.999 686.87 184.917 696.403 181.045 z" fill="rgb(253,253,253)" transform="translate(0,0)"></path>
<path d="M 644.92 213.612 C 650.335 192.97 672.824 198.839 682.801 215.715 C 695.749 237.617 668.053 250.896 654.124 240.598 C 646.234 232.036 642.386 225.332 644.92 213.612 z" fill="rgb(4,7,26)" transform="translate(0,0)"></path>
<path d="M 644.92 213.612 C 650.335 192.97 672.824 198.839 682.801 215.715 C 695.749 237.617 668.053 250.896 654.124 240.598 L 654.486 237.836 C 693.283 255.223 661.345 178.285 645.961 216.897 L 645.459 220.883 L 644.92 213.612 z" fill="rgb(253,253,253)" transform="translate(0,0)"></path>
<path d="M 644.92 213.612 L 645.459 220.883 L 645.961 216.897 C 647.358 226.9 647.581 229.902 654.486 237.836 L 654.124 240.598 C 646.234 232.036 642.386 225.332 644.92 213.612 z" fill="rgb(206,205,197)" transform="translate(0,0)"></path>
<path d="M 654.67 211.478 C 666.182 214.878 670.333 224.749 665.263 235.522 C 652.743 234.744 648.22 221.301 654.67 211.478 z" fill="rgb(253,253,253)" transform="translate(0,0)"></path>
<path d="M 799.346 126.689 C 802.08 127.032 805.137 129.177 807.347 130.731 C 826.295 144.055 834.847 173.105 826.648 194.65 C 825.227 198.385 820.634 207.6 816.975 209.247 L 814.999 208.136 L 804.881 200.88 C 826.108 179.309 816.096 149.339 791.249 135.503 L 799.346 126.689 z" fill="rgb(253,253,253)" transform="translate(0,0)"></path>
<path d="M 787.341 139.557 C 807.467 141.572 817.122 173.314 808.043 189.545 C 804.483 195.909 802.971 198.824 796.091 195.141 L 786.879 188.705 C 797.066 178.892 796.693 165.981 785.095 157.073 C 781.132 154.029 778.268 155.322 774.282 154.17 C 778.128 149.044 782.921 144.235 787.341 139.557 z" fill="rgb(253,253,253)" transform="translate(0,0)"></path>
<path d="M 776.611 159.939 C 788.889 160.897 795.096 184.761 778.404 182.659 L 777.548 182.555 C 773.78 184.032 773.67 184.829 770.483 184 C 767.779 180.762 765.829 172.146 763.243 166.333 L 776.611 159.939 z" fill="rgb(247,193,90)" transform="translate(0,0)"></path>
<path d="M 724.021 250.458 L 741.63 259.573 L 741.568 273.01 C 737.206 271.639 728.401 266.262 724.014 263.743 L 724.021 250.458 z" fill="rgb(247,193,90)" transform="translate(0,0)"></path>
<path d="M 724.122 229.723 C 730.113 232.289 735.773 235.595 741.475 238.761 L 741.617 252.734 C 735.76 249.585 729.963 246.325 724.229 242.955 L 724.122 229.723 z" fill="rgb(247,193,90)" transform="translate(0,0)"></path>
<path d="M 727.067 126.105 C 731.339 127.773 739.6 132.244 743.983 134.465 L 743.967 147.645 C 738.56 145.302 732.386 142.174 726.99 139.608 L 727.067 126.105 z" fill="rgb(247,193,90)" transform="translate(0,0)"></path>
<path d="M 704.967 115.109 C 709.435 116.862 716.79 120.758 721.287 122.995 L 720.519 136.146 C 718.519 135.694 707.589 129.752 705.044 128.414 L 704.967 115.109 z" fill="rgb(247,193,90)" transform="translate(0,0)"></path>
<path d="M 748.024 241.613 L 762.332 249.726 L 762.38 263.88 L 747.923 256.696 L 748.024 241.613 z" fill="rgb(247,193,90)" transform="translate(0,0)"></path>
<path d="M 747.976 263.207 L 762.247 270.475 L 762.343 284.457 L 748.001 277.129 L 747.976 263.207 z" fill="rgb(247,193,90)" transform="translate(0,0)"></path>
<path d="M 726.931 107.145 C 730.455 108.51 739.999 114.017 743.752 116.073 L 743.824 127.52 L 727.094 119.175 L 726.931 107.145 z" fill="rgb(247,193,90)" transform="translate(0,0)"></path>
<path d="M 705.107 95.4026 C 710.113 97.9128 715.841 101.24 720.826 103.967 L 720.921 115.854 L 705.128 108.428 L 705.107 95.4026 z" fill="rgb(247,193,90)" transform="translate(0,0)"></path>
<path d="M 726.793 88.4695 C 738.981 94.2141 744.414 93.8319 743.644 108.047 C 738.876 106.872 731.373 102.573 726.772 100.171 L 726.793 88.4695 z" fill="rgb(247,193,90)" transform="translate(0,0)"></path>
<path d="M 705 76.7107 L 720.365 84.5947 L 720.537 95.9634 C 716.744 95.4995 709.215 91.9401 706.808 88.4872 C 704.07 84.5596 704.784 81.4458 705 76.7107 z" fill="rgb(247,193,90)" transform="translate(0,0)"></path>
<path d="M 748.181 225.59 C 758.281 230.828 762.542 230.704 762.675 242.656 C 751.768 237.753 748.089 238.222 748.181 225.59 z" fill="rgb(247,193,90)" transform="translate(0,0)"></path>
<path d="M 725.014 145.566 C 726.308 146.129 727.598 146.701 728.883 147.284 C 731.355 148.412 735.777 150.047 736.592 152.219 L 734.614 152.634 C 731.714 154.262 729.175 156.21 726.036 155.988 C 724.299 152.751 724.978 149.62 725.014 145.566 z" fill="rgb(253,253,253)" transform="translate(0,0)"></path>
<path d="M 1155.05 165.467 C 1183.54 164.798 1213.57 165.346 1242.18 165.466 C 1238.61 172.655 1222.52 208.393 1219.1 212.546 L 1217.25 212.143 C 1209.4 206.095 1202.79 201.308 1194.56 195.778 C 1190.45 198.436 1176.66 208.015 1172.23 203.781 C 1173.78 197.958 1183.74 194.075 1188.85 191.477 C 1179.89 183.769 1162.63 173.143 1155.05 165.467 z" fill="rgb(17,18,40)" transform="translate(0,0)"></path>
<path d="M 965.506 860.594 C 968.896 863.193 987.845 902.523 991.227 909.498 L 933.961 909.835 C 925.143 909.793 916.325 909.639 907.51 909.372 C 925.486 895.854 949.316 876.155 965.506 860.594 z" fill="rgb(17,18,40)" transform="translate(0,0)"></path>
<path d="M 1077.49 249.901 C 1079.97 249.781 1080.25 249.91 1082.39 251.182 L 1082.56 253.372 C 1079.43 257.475 1066.38 263.849 1061.41 266.489 L 1059.49 266.911 C 1056.51 265.623 1057.44 266.463 1055.83 263.844 C 1057.87 258.762 1071.89 252.795 1077.49 249.901 z" fill="rgb(4,7,26)" transform="translate(0,0)"></path>
<path d="M 681.359 741.487 C 687.356 741.879 701.223 749.243 705.048 754.161 C 706.167 755.6 704.982 758.021 704.488 759.631 C 700.744 758.765 683.708 750.249 681.24 746.692 C 680.007 744.915 680.829 743.642 681.359 741.487 z" fill="rgb(4,7,26)" transform="translate(0,0)"></path>
<path d="M 887.97 349.854 C 890.578 350.442 890.923 351.055 891.817 353.111 C 890.28 357.587 874.723 364.57 869.716 367.15 C 867.201 366.242 866.632 365.173 866.205 362.928 C 868.306 358.626 882.915 352.348 887.97 349.854 z" fill="rgb(4,7,26)" transform="translate(0,0)"></path>
<path d="M 540.614 290.888 C 543.37 291.393 542.367 290.898 544.438 292.738 L 544.141 295.119 C 540.532 299.011 528.594 305.071 523.498 307.904 C 521.883 307.909 520.837 306.957 519.431 306.046 L 519.147 303.893 C 521.761 299.24 535.196 293.516 540.614 290.888 z" fill="rgb(4,7,26)" transform="translate(0,0)"></path>
<path d="M 578.017 271.82 C 580.634 273.171 579.805 272.322 581.083 275.081 C 578.913 280.113 565.229 286.206 559.462 289.419 C 556.567 288.041 556.587 287.69 556.124 284.978 C 558.236 280.157 572.572 274.371 578.017 271.82 z" fill="rgb(4,7,26)" transform="translate(0,0)"></path>
<path d="M 505.284 308.901 C 507.649 311.176 507.058 310.089 507.89 312.995 C 506.199 317.287 490.45 324.166 484.967 327.293 C 483.898 326.077 483.349 324.742 482.624 323.291 C 484.977 317.257 498.906 312.001 505.284 308.901 z" fill="rgb(17,18,40)" transform="translate(0,0)"></path>
<path d="M 695.876 449.763 C 698.752 452.094 698.157 450.971 698.848 453.968 C 696.753 458.248 682.021 464.64 676.387 467.94 C 674.345 466.507 674.134 466.3 673.314 463.951 C 675.001 459.403 690.343 452.771 695.876 449.763 z" fill="rgb(17,18,40)" transform="translate(0,0)"></path>
<path d="M 734.691 429.689 C 737.367 432.421 736.962 431.254 737.261 434.278 C 734.447 439.376 720.166 444.849 714.268 447.507 C 705.503 441.402 729.423 432.592 734.691 429.689 z" fill="rgb(17,18,40)" transform="translate(0,0)"></path>
<path d="M 431.806 590.896 C 434.987 590.755 433.855 590.432 436.389 591.801 L 436.453 593.766 C 434.36 598.283 420.324 604.335 415.335 606.752 C 412.572 606.997 413.614 607.239 411.12 606.13 L 410.926 604.018 C 413.038 599.685 426.83 593.423 431.806 590.896 z" fill="rgb(4,7,26)" transform="translate(0,0)"></path>
<path d="M 771.021 410.885 C 772.669 410.569 773.641 411.077 775.241 411.603 L 775.766 413.553 C 773.913 417.809 759.448 424.588 754.546 427.167 C 753.328 427.034 752.034 426.395 750.843 425.924 L 750.023 423.871 C 752.022 419.501 765.964 413.405 771.021 410.885 z" fill="rgb(4,7,26)" transform="translate(0,0)"></path>
<path d="M 466.996 328.844 C 469.526 330.373 468.723 329.507 470.065 332.107 C 468.304 337.54 454.484 343.118 448.493 346.229 C 446.533 345.118 446.527 344.832 445.443 342.743 C 447.464 336.971 460.746 331.956 466.996 328.844 z" fill="rgb(4,7,26)" transform="translate(0,0)"></path>
<path d="M 232.454 589.402 C 237.592 590.325 253.02 598.818 256.222 602.922 C 257.03 603.957 255.969 606.263 255.583 607.557 C 251.273 606.744 234.728 598.683 231.968 594.699 C 230.835 593.065 231.842 591.406 232.454 589.402 z" fill="rgb(17,18,40)" transform="translate(0,0)"></path>
<path d="M 1154.44 209.912 C 1157.66 211.788 1156.97 210.772 1157.82 213.575 C 1156 218.113 1141.38 224.475 1136.33 227.024 C 1134.38 225.42 1134.17 225.176 1132.99 222.955 C 1135.13 217.95 1148.54 212.883 1154.44 209.912 z" fill="rgb(17,18,40)" transform="translate(0,0)"></path>
<path d="M 619.449 490.673 C 621.32 492.082 621.319 492.23 622.294 494.432 C 619.988 500.002 606.798 504.937 600.5 508.083 C 597.466 506.195 598.119 507.182 597.204 504.462 C 599.002 500.001 614.375 493.23 619.449 490.673 z" fill="rgb(4,7,26)" transform="translate(0,0)"></path>
<path d="M 117.69 529.174 C 123.444 530.235 137.807 537.444 141.034 542.371 C 141.759 543.478 140.385 545.927 139.875 547.217 C 133.978 544.232 117.128 537.409 115.591 531.503 L 117.69 529.174 z" fill="rgb(4,7,26)" transform="translate(0,0)"></path>
<path d="M 905.24 863.749 C 909.298 863.52 912.635 864.325 916.109 866.425 C 922.355 870.202 931.118 871.214 930.173 879.527 C 924.449 880.165 912.864 873.272 908.084 869.763 C 905.125 867.591 905.592 866.953 905.24 863.749 z" fill="rgb(17,18,40)" transform="translate(0,0)"></path>
<path d="M 581.403 510.872 C 584.209 511.979 583.212 511.262 585.143 513.692 L 584.721 515.776 C 581.367 519.291 569.203 525.03 564.367 527.529 C 561.007 526.532 562.061 527.302 560.079 524.831 L 560.552 522.911 C 564.015 519.339 576.431 513.449 581.403 510.872 z" fill="rgb(4,7,26)" transform="translate(0,0)"></path>
<path d="M 96.1012 508.717 C 98.6842 508.955 99.0198 508.995 101.042 510.596 C 100.891 514.098 100.326 513.538 97.2016 516.825 C 99.8899 520.081 101.668 520.784 102.226 524.332 L 101.185 525.382 L 98.1902 525.174 C 92.6675 522.387 87.0821 519.128 81.6719 516.087 C 87.4914 513.547 90.6217 511.934 96.1012 508.717 z" fill="rgb(17,18,40)" transform="translate(0,0)"></path>
<path d="M 811.028 389.865 C 813.922 391.506 813.154 390.592 814.471 393.195 C 811.939 398.225 798.393 403.861 792.612 406.723 C 789.887 406.071 790.844 406.605 788.854 404.802 L 789.129 402.697 C 792.961 398.34 805.565 392.588 811.028 389.865 z" fill="rgb(4,7,26)" transform="translate(0,0)"></path>
<path d="M 1039.2 269.679 C 1040.49 269.87 1041.41 270.636 1042.53 271.362 L 1043 273.587 C 1040.8 278.121 1026.91 284.067 1021.68 286.639 C 1018.65 285.544 1019.57 286.342 1018.06 283.773 C 1019.99 279.062 1033.45 273.097 1039.2 269.679 z" fill="rgb(4,7,26)" transform="translate(0,0)"></path>
<path d="M 964.25 309.804 C 967.013 311.617 966.181 310.607 967.453 313.581 C 965.677 318.393 951.526 323.947 946.245 326.389 C 944.402 326.058 944.089 325.608 942.677 324.423 L 942.545 322.666 C 945.295 318.457 959.356 312.222 964.25 309.804 z" fill="rgb(4,7,26)" transform="translate(0,0)"></path>
<path d="M 830.368 823.499 C 836.442 823.404 849.055 830.49 853.77 834.786 C 855.271 836.154 854.623 838.075 854.442 839.874 C 848.384 840.527 836.678 833.197 831.888 829.264 C 829.797 827.547 830.378 825.962 830.368 823.499 z" fill="rgb(17,18,40)" transform="translate(0,0)"></path>
<path d="M 155.258 549.376 C 160.516 549.697 175.063 557.625 178.847 561.399 C 180.23 562.779 179.397 564.801 179.1 566.524 C 173.07 565.846 159.664 558.97 155.271 554.297 C 154.191 553.147 154.996 550.966 155.258 549.376 z" fill="rgb(17,18,40)" transform="translate(0,0)"></path>
<path d="M 192.929 569.506 C 199.104 569.571 211.676 576.679 216.653 580.888 C 218.227 582.219 217.59 584.418 217.453 586.297 C 211.207 586.458 198.844 578.89 193.93 574.683 C 192.259 573.253 192.835 571.468 192.929 569.506 z" fill="rgb(17,18,40)" transform="translate(0,0)"></path>
<path d="M 720.658 762.281 C 726.468 764.871 741.397 771.217 742.517 777.305 L 740.517 780.177 C 734.609 777.898 720.566 771.889 718.619 765.791 L 720.658 762.281 z" fill="rgb(4,7,26)" transform="translate(0,0)"></path>
<path d="M 792.914 803.518 C 799.28 803.362 811.128 810.197 816.056 814.463 C 817.557 815.762 816.705 818.083 816.442 819.879 C 810.699 819.97 799.33 813.205 794.63 809.506 C 792.434 807.778 792.96 806.245 792.914 803.518 z" fill="rgb(17,18,40)" transform="translate(0,0)"></path>
<path d="M 756.681 783.628 C 760.275 784.124 776.844 791.964 779.014 795.358 C 780.227 797.256 779.462 798.355 778.957 800.651 C 773.84 800.165 758.403 792.532 755.79 787.731 C 755.097 786.458 756.148 784.934 756.681 783.628 z" fill="rgb(17,18,40)" transform="translate(0,0)"></path>
<path d="M 270.316 609.634 C 274.121 610.557 291.245 618.889 294.077 623.047 C 294.925 624.293 294.115 625.692 293.649 627.526 C 287.965 626.687 273.782 619.064 269.718 614.583 C 268.612 613.364 269.855 611.015 270.316 609.634 z" fill="rgb(17,18,40)" transform="translate(0,0)"></path>
<path d="M 308.239 630.535 C 312.492 631.399 329.218 639.422 332.072 643.311 C 333.288 644.968 332.411 646.322 331.874 648.34 C 326.281 646.721 312.729 640.397 308.501 635.791 C 306.978 634.131 307.779 632.821 308.239 630.535 z" fill="rgb(4,7,26)" transform="translate(0,0)"></path>
<path d="M 849.874 369.819 C 852.215 372.086 851.617 370.978 852.343 373.964 C 850.269 378.594 835.403 384.633 830.138 387.113 C 828.33 385.919 828.346 385.746 827.494 383.659 C 829.652 378.601 843.98 372.818 849.874 369.819 z" fill="rgb(4,7,26)" transform="translate(0,0)"></path>
<path d="M 468.551 570.952 C 471.619 570.766 470.818 570.375 473.104 571.705 L 473.356 573.379 C 471.304 577.969 458.072 584.069 453.343 586.538 C 450.874 587.119 452.027 587.268 449.776 586.039 C 449.178 584.851 448.41 584.019 448.936 583.098 C 451.245 579.054 464.343 573.119 468.551 570.952 z" fill="rgb(4,7,26)" transform="translate(0,0)"></path>
<path d="M 657.7 470.841 C 659.343 471.949 659.346 472.133 660.261 473.961 C 657.84 479.731 644.551 484.898 638.087 488.178 C 637.357 487.689 636.213 486.426 635.542 485.746 L 635.694 483.429 C 639.291 479.147 652.335 473.442 657.7 470.841 z" fill="rgb(17,18,40)" transform="translate(0,0)"></path>
<path d="M 1116.78 229.764 C 1119.54 230.841 1118.54 230.147 1120.48 232.624 L 1120.14 234.364 C 1116.65 238.059 1104.85 243.668 1099.8 246.324 C 1096.59 244.674 1097.35 245.614 1096.09 242.938 C 1097.66 238.475 1111.81 232.292 1116.78 229.764 z" fill="rgb(17,18,40)" transform="translate(0,0)"></path>
<path d="M 1002.12 289.779 C 1004.92 291.645 1004.22 290.616 1005 293.533 C 1002.93 298.2 988.662 304.26 983.331 306.87 L 981.43 305.554 C 980.05 302.591 980.449 301.572 983.51 299.72 C 989.319 296.204 996.122 292.94 1002.12 289.779 z" fill="rgb(4,7,26)" transform="translate(0,0)"></path>
<path d="M 505.65 551.026 C 508.585 550.74 507.879 550.388 510.166 551.522 L 510.473 552.858 C 508.708 557.659 496.039 563.351 491.316 565.786 C 488.783 566.397 489.708 566.285 486.983 565.484 L 485.873 563.385 C 487.315 558.925 500.981 553.298 505.65 551.026 z" fill="rgb(17,18,40)" transform="translate(0,0)"></path>
<path d="M 925.539 329.768 C 927.686 329.748 927.771 329.9 929.637 331.125 L 929.847 332.643 C 928.024 337.059 914.226 343.074 909.322 345.519 C 906.621 345.418 907.388 345.827 905.505 344.407 L 905.324 342.92 C 907.149 338.63 920.646 332.35 925.539 329.768 z" fill="rgb(17,18,40)" transform="translate(0,0)"></path>
<path d="M 868.235 843.553 C 873.319 843.546 886.191 850.314 890.449 853.885 C 892.481 855.588 891.958 856.634 892.079 859.456 C 885.753 859.91 874.442 852.878 869.35 849.047 C 867.657 847.773 868.202 845.502 868.235 843.553 z" fill="rgb(17,18,40)" transform="translate(0,0)"></path>
<path d="M 171.138 468.788 C 172.757 468.695 173.792 469.422 175.275 470.151 L 175.715 471.739 C 173.612 476.2 161.364 481.481 156.309 484.049 C 153.335 484.047 154.487 484.444 152.016 482.343 L 151.919 480.5 C 154.722 476.95 166.515 471.267 171.138 468.788 z" fill="rgb(4,7,26)" transform="translate(0,0)"></path>
<path d="M 543.969 530.816 C 546.472 532.439 545.706 531.559 547.03 534.089 C 545.305 538.996 532.035 544.441 526.464 547.33 C 524.701 546.256 524.599 545.698 523.57 543.809 C 525.498 538.74 537.743 534.282 543.969 530.816 z" fill="rgb(4,7,26)" transform="translate(0,0)"></path>
<path d="M 133.921 488.832 C 136.923 489.403 135.901 488.845 137.994 490.765 L 137.693 492.786 C 134.662 496.206 123.05 501.804 118.502 504.179 C 114.851 503.048 115.763 503.888 114.146 501.348 C 115.56 496.991 129.317 491.129 133.921 488.832 z" fill="rgb(4,7,26)" transform="translate(0,0)"></path>
<path d="M 608.422 255.777 C 609.973 256.269 610.34 256.723 611.688 257.675 L 611.782 259.963 C 609.31 263.45 599.844 267.813 595.519 270.082 C 592.293 268.486 593.093 269.407 591.657 266.76 C 593.894 261.551 602.911 258.421 608.422 255.777 z" fill="rgb(4,7,26)" transform="translate(0,0)"></path>
<metadata><recraft-signature>{"signed_by": "recraft", "signature_b64": "iAIorND38MjpFrwvmduL7YvsMi2VoloC/UhrlYBJKzeeiJE0roBhnEWpVchVMIjNHNr1NX2NP71SLm/wn1HWAA==", "signing_algo": "Ed25519", "generation_timestamp": 1777312747, "identifier": "fb456f23-78ca-4df6-991b-28906e345724"}</recraft-signature></metadata></svg>