<svg xmlns="http://www.w3.org/2000/svg" height="1024" preserveAspectRatio="none" style="display: block;" version="1.1" viewBox="0 0 2048 1024" width="2048">
<path d="M 0 0 L 2048 0 L 2048 1024 L 0 1024 L 0 0 z" fill="rgb(254,253,253)" transform="translate(0,0)"></path>
<path d="M 1369.89 791.444 C 1358.75 791.911 1300.03 794.15 1293.73 788.796 C 1293.51 785.975 1293.35 783.15 1293.25 780.323 C 1292.05 745.763 1293.09 706.616 1293.27 671.613 L 1293.89 489.18 L 1294.78 244.986 C 1294.84 192.271 1294.94 139.554 1295.07 86.8396 C 1295.08 81.8543 1294.48 69.5627 1297.47 66.3481 C 1308.6 65.3733 1323.3 65.7995 1334.67 65.8038 L 1395.93 65.8365 L 1587.44 65.7402 L 1783.28 65.7356 C 1795.39 65.7343 1855.62 64.702 1864.74 67.0744 C 1868.87 72.1357 1867.29 168.484 1867.25 181.451 L 1867.31 337.947 L 1867.27 791.941 C 1856.28 793.212 1833.74 792.541 1821.8 792.446 L 1821.88 965.768 L 1913.94 965.816 C 1922.59 965.805 1952.32 963.056 1956.85 969.197 C 1956.18 971.908 1956.75 970.951 1954.68 972.819 C 1945.72 973.764 1921.33 972.917 1911.18 972.897 L 1821.24 972.926 L 1532.48 972.907 L 606.443 973.042 L 229.952 973.289 C 208.416 973.267 103.652 975.696 90.7437 971.094 C 89.6912 970.719 89.9063 970.686 89.4616 969.758 C 95.5934 965.008 124.104 966.607 132.71 966.737 C 132.936 963.679 133.067 959.496 134.179 956.714 C 141.554 938.069 148.023 924.233 151.888 904.344 C 176.886 775.684 211.933 648.371 230.136 518.52 C 235.481 480.387 246.138 450.738 262.039 415.836 C 232.6 379.779 258.484 320.089 267.303 280.255 C 268.464 275.011 270.851 268.606 272.573 263.503 C 273.944 259.439 279.567 247.898 282.628 245.841 C 306.975 229.476 338.438 227.614 364.96 215.785 C 370.896 213.13 374.766 214.802 379.442 213.998 C 382.619 213.452 391.965 198.85 393.976 195.907 C 370.039 177.428 382.028 162.667 384.668 139.087 C 392.818 66.2841 503.231 74.066 498.882 151.636 C 508.348 155.554 539.688 167.04 537.068 179.749 C 529.897 189.202 492.047 192.121 482.207 184.745 C 479.435 187.192 478.812 191.937 477.246 195.501 C 467.762 217.085 458.434 231.967 432.476 231.405 C 426.095 231.267 426.732 231.87 424.159 237.479 C 429.511 243.94 430.158 245.811 432.088 253.745 C 438.048 258.117 457.46 278.301 460.87 284.84 C 460.826 301.219 460.443 317.595 459.72 333.957 C 459.434 339.422 456.41 360.2 460.098 363.112 C 465.065 360.357 482.472 314.962 487.399 305.17 C 497.166 305.683 508.019 307.048 517.829 308.074 C 521.956 305.725 525.899 303.715 530.122 301.578 C 544.169 303.574 544.837 305.025 551.999 297.248 C 553.753 295.344 583.011 301.369 586.273 303.297 C 594.001 320.651 624.589 321.185 640.751 322.239 C 645.723 326.795 648.422 330.185 652.679 335.384 C 648.759 345.648 642.397 358.82 637.87 369.158 C 630.269 386.787 622.788 404.469 615.429 422.201 C 627.098 424.051 638.782 425.807 650.48 427.471 C 675.7 400.437 700.812 378.435 728.556 354.29 C 727.229 352.743 724.352 349.43 724.069 347.456 C 722.549 336.839 716.629 326.514 711.582 317.199 C 673.75 321.451 677.098 312.951 678.319 278.79 C 674.796 275.075 672.419 272.025 674.778 267.261 C 677.724 264.593 681.352 264.177 685.253 263.325 C 688.097 255.223 690.211 249.334 693.868 241.61 C 688.586 240.133 650.947 230.315 663.862 217.222 C 669.795 211.207 693.468 213.898 702.719 215.032 C 712.39 207.322 720.99 201.032 733.076 197.592 C 748.17 193.39 764.322 195.456 777.872 203.322 C 806.496 219.72 808.388 247.042 792.643 273.433 C 801.141 273.326 806.716 273.343 814.604 277.997 C 824.08 283.588 829.148 297.908 823.308 307.657 C 819.812 313.493 808.648 314.828 802.945 318.072 C 797.414 321.217 792.411 326.449 786.374 328.656 C 780.483 330.891 775.252 330.222 769.218 331.408 C 770.293 335.161 794.245 347.579 799.051 351.15 C 811.505 360.402 822.185 370.783 832.293 382.549 C 860.1 414.921 916.033 499.792 924.45 539.799 C 927.932 556.351 924.433 571.524 925.735 588.027 C 929.231 629.441 934.127 670.726 940.416 711.809 C 948.047 717.768 957.128 723.646 965.093 729.73 C 981.912 742.68 997.903 756.672 1012.97 771.623 C 1027.77 786.766 1041.75 802.682 1054.86 819.304 C 1061.7 828.12 1068.63 839.2 1075.97 847.335 C 1088.9 861.649 1102.46 875.695 1115.7 889.734 C 1107.62 897.911 1095.19 907.532 1086.07 915.271 C 1066.23 932.214 1046.29 949.042 1026.26 965.756 C 1139.54 964.173 1256.41 965.74 1369.91 965.809 L 1369.89 791.444 z" fill="rgb(3,16,35)" transform="translate(0,0)"></path>
<path d="M 381.099 219.249 C 389.802 211.676 391.525 206.241 398.704 197.649 C 400.328 197.189 401.705 196.799 402.835 196.479 C 404.569 192.799 392.247 162.03 404.655 158.951 C 410.353 160.069 413.627 164.117 416.808 168.558 C 430.497 166.463 441.688 163.717 455.17 160.436 C 467.532 166.496 468.733 171.837 478.404 180.86 C 480.212 183.184 479.203 182.484 482.592 183.205 L 482.207 184.745 C 479.435 187.192 478.812 191.937 477.246 195.501 C 467.762 217.085 458.434 231.967 432.476 231.405 C 426.095 231.267 426.732 231.87 424.159 237.479 C 423.077 232.462 425.979 233.032 424.903 229.163 C 422.665 231.682 419.863 238.914 418.379 242.314 C 418.805 244.205 418.411 244.793 417.771 246.61 C 416.454 245.719 416.83 246.332 416.351 244.967 C 415.008 248.185 414.75 248.841 412.578 251.675 C 409.191 251.055 385.32 223.876 381.099 219.249 z" fill="rgb(254,253,253)" transform="translate(0,0)"></path>
<path d="M 478.404 180.86 C 480.212 183.184 479.203 182.484 482.592 183.205 L 482.207 184.745 C 479.435 187.192 478.812 191.937 477.246 195.501 C 467.762 217.085 458.434 231.967 432.476 231.405 C 426.095 231.267 426.732 231.87 424.159 237.479 C 423.077 232.462 425.979 233.032 424.903 229.163 C 422.665 231.682 419.863 238.914 418.379 242.314 C 418.805 244.205 418.411 244.793 417.771 246.61 C 416.454 245.719 416.83 246.332 416.351 244.967 C 410.999 237.748 402.815 212.787 406.821 204.75 C 409.872 205.277 418.95 221.287 428.159 224.64 C 459.168 235.927 468.621 201.368 478.404 180.86 z" fill="rgb(3,13,28)" transform="translate(0,0)"></path>
<path d="M 410.171 218.286 C 413.617 220.524 423.083 226.11 424.903 229.163 C 422.665 231.682 419.863 238.914 418.379 242.314 C 413.775 233.558 412.203 227.828 410.171 218.286 z" fill="rgb(9,44,65)" transform="translate(0,0)"></path>
<path d="M 459.169 181.31 C 464.764 184.527 461.5 197.208 458.363 201.971 C 454.32 204.241 455.38 203.563 450.302 203.623 L 448.43 201.268 L 448.94 199.879 C 451.879 199.76 452.498 199.768 455.258 198.802 C 457.72 194.41 456.116 188.77 459.169 181.31 z" fill="rgb(3,13,28)" transform="translate(0,0)"></path>
<path d="M 431.44 200.917 C 439.871 201.238 446.446 209.282 454.721 208.551 L 455.944 210.475 L 452.747 212.391 C 446.248 213.442 433.705 207.072 431.44 200.917 z" fill="rgb(3,13,28)" transform="translate(0,0)"></path>
<path d="M 407.694 169.337 C 410.398 170.122 413.268 171.16 414.558 173.673 L 410.237 176.569 C 411.66 179.124 412.507 178.887 415.551 180.415 C 413.947 183.236 412.631 183.303 409.919 183.2 C 404.209 179.339 404.784 174.636 407.694 169.337 z" fill="rgb(3,13,28)" transform="translate(0,0)"></path>
<path d="M 438.482 173.513 C 439.692 172.54 441.339 172.309 442.77 172.913 C 444.2 173.516 445.185 174.856 445.333 176.402 C 445.481 177.947 444.769 179.45 443.479 180.314 C 441.6 181.573 439.063 181.128 437.724 179.306 C 436.385 177.483 436.719 174.929 438.482 173.513 z" fill="rgb(3,13,28)" transform="translate(0,0)"></path>
<path d="M 1303.41 74.8059 C 1487.32 74.8542 1674.42 76.4506 1858.11 74.2985 L 1858.89 784.303 L 1821.73 784.625 C 1821.08 757.215 1821.48 730.118 1821.04 702.759 C 1810.58 702.202 1799.54 702.321 1789.02 702.264 L 1799.48 690.999 C 1794.97 684.198 1792.52 681.763 1786.82 676.144 C 1789.08 669.813 1790.17 666.112 1791.67 659.559 C 1798.36 657.466 1805.01 655.221 1811.6 652.823 L 1808.25 634.355 L 1789.56 633.695 C 1786.05 626.349 1783.8 622.345 1779.42 615.471 L 1787.36 606.097 C 1786.57 604.798 1786.08 602.884 1785.61 601.383 L 1774.89 615.498 C 1780.69 623.914 1782.87 627.133 1785.68 637.318 C 1792.13 637.541 1798.57 637.822 1805.01 638.162 L 1807.43 649.936 C 1801.85 651.82 1794.13 654.657 1788.64 656.057 C 1786.68 663.738 1785.42 669.265 1781.6 676.323 C 1786.55 681.284 1790.12 684.985 1794.58 690.375 L 1785.1 699.817 L 1786.04 700.58 C 1784.92 702.49 1784.97 702.481 1783.34 703.959 L 1782.14 702.734 C 1777.74 703.384 1764.49 703.395 1759.96 702.882 L 1759.81 701.892 L 1756.22 699.346 C 1734.06 707.98 1715.9 702.349 1695.09 694.726 L 1686.14 701.262 L 1674.67 688.039 L 1681.71 679.62 C 1678.53 672.939 1676.69 667.533 1674.26 660.53 L 1655.03 659.727 L 1654.87 646.618 L 1672.5 642.972 C 1673.39 635.685 1675.98 629.268 1679 622.68 C 1671.87 619.368 1668.87 617.195 1663.31 612.019 L 1662.14 615.498 C 1666.19 620.308 1668.15 621.61 1673.12 625.171 C 1670.86 630.419 1669.75 634.111 1668.13 639.535 C 1662.18 640.416 1656.24 641.372 1650.31 642.405 C 1650.32 649.065 1650.83 657.06 1651.09 663.82 L 1670.81 664.481 C 1672.19 669.251 1677.58 677.584 1674.52 680.795 C 1669.11 685.729 1649.63 680.641 1641.82 678.951 C 1619.47 674.108 1600.25 677.391 1577.49 679.493 C 1547.63 682.264 1517.8 685.371 1488 688.815 C 1486.37 698.933 1485.28 709.13 1484.72 719.364 L 1424.86 719.803 C 1439.46 733.173 1454.98 752.142 1469.09 767.114 C 1440.83 767.204 1398.07 765.477 1370.69 767.371 C 1370.04 771.426 1370.18 779.064 1370.13 783.418 L 1301.38 783.894 L 1303.41 74.8059 z" fill="rgb(254,253,253)" transform="translate(0,0)"></path>
<path d="M 1628.55 490.184 C 1635.78 490.508 1643 491.075 1650.2 491.882 C 1651.36 496.822 1651.81 503.924 1652.3 509.125 C 1658 510.735 1661.83 512.522 1667.21 514.902 L 1683.22 504.883 C 1688.63 510.073 1693.73 515.494 1698.91 520.913 C 1694.99 526.449 1691.03 530.412 1686.37 535.309 C 1688.39 540.843 1689.57 545.537 1691.04 551.207 C 1709.6 558.58 1711.55 554.153 1706.62 576.867 C 1701.01 578.266 1694.68 578.799 1688.9 579.464 C 1687.48 583.019 1685.27 587.449 1683.62 590.998 L 1693.61 602.822 C 1697.69 600.43 1702.48 598.402 1706.82 596.434 C 1704.53 572.72 1708.69 575.395 1730.25 573.537 L 1738.04 593.678 C 1745.86 594.855 1750.79 596.356 1758.14 599.054 C 1762.54 594.813 1768.52 589.281 1773.42 585.813 C 1778.68 589.936 1785.96 594.69 1789.53 599.803 C 1790.15 603.424 1790.07 602.235 1787.36 606.097 C 1786.57 604.798 1786.08 602.884 1785.61 601.383 L 1774.89 615.498 C 1780.69 623.914 1782.87 627.133 1785.68 637.318 C 1792.13 637.541 1798.57 637.822 1805.01 638.162 L 1807.43 649.936 C 1801.85 651.82 1794.13 654.657 1788.64 656.057 C 1786.68 663.738 1785.42 669.265 1781.6 676.323 C 1786.55 681.284 1790.12 684.985 1794.58 690.375 L 1785.1 699.817 L 1786.04 700.58 C 1784.92 702.49 1784.97 702.481 1783.34 703.959 L 1782.14 702.734 C 1777.74 703.384 1764.49 703.395 1759.96 702.882 L 1759.81 701.892 L 1756.22 699.346 C 1734.06 707.98 1715.9 702.349 1695.09 694.726 L 1686.14 701.262 L 1674.67 688.039 L 1681.71 679.62 C 1678.53 672.939 1676.69 667.533 1674.26 660.53 L 1655.03 659.727 L 1654.87 646.618 L 1672.5 642.972 C 1673.39 635.685 1675.98 629.268 1679 622.68 C 1671.87 619.368 1668.87 617.195 1663.31 612.019 L 1662.14 615.498 L 1659.72 613.15 C 1656.37 611.784 1649.52 614.651 1645.93 615.818 L 1640.86 633.843 C 1632.28 633.846 1626.66 633.561 1618.12 632.703 C 1617.29 627.635 1616.83 619.53 1616.4 614.214 C 1609.39 611.87 1608.2 612.089 1601.97 607.728 C 1596.31 611.292 1590.48 614.484 1584.64 617.751 C 1580.06 613.327 1574.18 606.067 1569.9 601.061 C 1573.26 597.21 1579.13 592.069 1583.05 588.437 C 1580.03 582.077 1578.8 579.327 1576.86 572.56 C 1570.13 572.002 1562.45 570.63 1555.7 569.575 C 1556.16 562.329 1556.58 555.081 1556.96 547.83 L 1577.69 546.941 C 1579.92 540.697 1581.33 538.389 1584.65 532.783 C 1581.92 527.911 1577.08 521.06 1573.87 516.243 C 1579.78 510.486 1585.11 505.219 1591.56 500 C 1596.53 503.721 1602.08 507.505 1607.18 511.125 C 1614.5 508.773 1618.19 507.976 1625.79 506.679 C 1626.83 501.834 1627.74 495.193 1628.55 490.184 z" fill="rgb(74,160,157)" transform="translate(0,0)"></path>
<path d="M 1628.55 490.184 C 1635.78 490.508 1643 491.075 1650.2 491.882 C 1651.36 496.822 1651.81 503.924 1652.3 509.125 C 1658 510.735 1661.83 512.522 1667.21 514.902 L 1683.22 504.883 C 1688.63 510.073 1693.73 515.494 1698.91 520.913 C 1694.99 526.449 1691.03 530.412 1686.37 535.309 C 1688.39 540.843 1689.57 545.537 1691.04 551.207 C 1709.6 558.58 1711.55 554.153 1706.62 576.867 C 1701.01 578.266 1694.68 578.799 1688.9 579.464 C 1687.48 583.019 1685.27 587.449 1683.62 590.998 L 1693.61 602.822 C 1697.69 600.43 1702.48 598.402 1706.82 596.434 C 1704.53 572.72 1708.69 575.395 1730.25 573.537 L 1738.04 593.678 C 1745.86 594.855 1750.79 596.356 1758.14 599.054 C 1762.54 594.813 1768.52 589.281 1773.42 585.813 C 1778.68 589.936 1785.96 594.69 1789.53 599.803 C 1790.15 603.424 1790.07 602.235 1787.36 606.097 C 1786.57 604.798 1786.08 602.884 1785.61 601.383 C 1781.58 597.82 1777.42 593.91 1772.98 590.926 L 1758.96 602.884 C 1749.59 599.48 1745.04 598.184 1734.89 597.386 C 1732.43 590.353 1730.45 585.228 1727.4 578.438 L 1710.09 580.811 L 1710.59 598.949 C 1703.26 601.647 1698.82 604.187 1691.95 607.989 C 1687.72 602.502 1683.2 596.396 1678.7 591.228 C 1681.14 586.357 1683.98 581.054 1685.8 575.969 L 1703.69 573.192 C 1704.14 569.057 1704.54 564.81 1705.24 560.719 C 1698.74 558.408 1694.12 556.931 1687.45 555.239 C 1685.82 546.643 1684.6 542.689 1681.7 534.392 C 1686.33 529.918 1689.91 526.606 1693.86 521.494 L 1682.49 510.001 C 1677.64 513.037 1672.35 516.201 1667.6 519.325 C 1661.19 516.46 1655.22 513.716 1648.58 511.394 C 1648.14 506.454 1647.73 499.805 1646.83 495.059 L 1631.82 494.53 L 1629.57 509.822 C 1620.21 511.159 1615.43 511.72 1606.55 515.436 C 1601.72 512.107 1596.55 508.383 1591.6 505.304 C 1587.51 509.034 1583.11 513.197 1578.96 516.791 C 1583.02 522.052 1586.14 526.316 1589.8 531.863 C 1585.27 538.307 1582.88 543.071 1580.51 550.727 C 1574.2 550.987 1567.58 551.153 1561.31 551.542 C 1560.83 556.305 1560.42 561.147 1559.68 565.87 L 1580.47 569.411 C 1581.77 577.824 1583.38 580.871 1588.06 588.025 C 1584.9 593.191 1580.27 597.009 1575.81 601.136 C 1578.63 604.767 1582.21 609.679 1585.18 613.038 C 1590.32 609.809 1596.5 606.134 1601.42 602.725 C 1608.31 607.524 1611.53 608.898 1619.96 610.879 C 1620.4 616.706 1621.04 623.26 1621.26 629.034 L 1637.19 629.358 C 1638.92 624.414 1641.46 616.337 1643.42 611.75 C 1649.83 610.756 1656.58 609.261 1662.46 606.46 C 1669.65 610.484 1671.57 611.724 1677.68 617.611 C 1674.81 616.369 1665.82 612.221 1663.31 612.019 L 1662.14 615.498 L 1659.72 613.15 C 1656.37 611.784 1649.52 614.651 1645.93 615.818 L 1640.86 633.843 C 1632.28 633.846 1626.66 633.561 1618.12 632.703 C 1617.29 627.635 1616.83 619.53 1616.4 614.214 C 1609.39 611.87 1608.2 612.089 1601.97 607.728 C 1596.31 611.292 1590.48 614.484 1584.64 617.751 C 1580.06 613.327 1574.18 606.067 1569.9 601.061 C 1573.26 597.21 1579.13 592.069 1583.05 588.437 C 1580.03 582.077 1578.8 579.327 1576.86 572.56 C 1570.13 572.002 1562.45 570.63 1555.7 569.575 C 1556.16 562.329 1556.58 555.081 1556.96 547.83 L 1577.69 546.941 C 1579.92 540.697 1581.33 538.389 1584.65 532.783 C 1581.92 527.911 1577.08 521.06 1573.87 516.243 C 1579.78 510.486 1585.11 505.219 1591.56 500 C 1596.53 503.721 1602.08 507.505 1607.18 511.125 C 1614.5 508.773 1618.19 507.976 1625.79 506.679 C 1626.83 501.834 1627.74 495.193 1628.55 490.184 z" fill="rgb(3,13,28)" transform="translate(0,0)"></path>
<path d="M 1770.55 689.551 C 1774.82 692.677 1780.67 697.218 1785.1 699.817 L 1786.04 700.58 C 1784.92 702.49 1784.97 702.481 1783.34 703.959 L 1782.14 702.734 C 1777.74 703.384 1764.49 703.395 1759.96 702.882 L 1759.81 701.892 L 1756.22 699.346 C 1762.44 695.749 1765.1 694.249 1770.55 689.551 z" fill="rgb(3,13,28)" transform="translate(0,0)"></path>
<path d="M 1759.81 701.892 L 1771.01 694.138 C 1774.36 696.839 1778.6 700.466 1782.14 702.734 C 1777.74 703.384 1764.49 703.395 1759.96 702.882 L 1759.81 701.892 z" fill="rgb(254,253,253)" transform="translate(0,0)"></path>
<path d="M 1723.85 603.123 C 1749.96 599.302 1774.23 617.365 1778.06 643.474 C 1781.9 669.583 1763.85 693.859 1737.74 697.706 C 1711.61 701.555 1687.32 683.489 1683.48 657.362 C 1679.64 631.234 1697.72 606.947 1723.85 603.123 z" fill="rgb(3,16,35)" transform="translate(0,0)"></path>
<path d="M 1728.57 606.07 C 1752.92 604.814 1773.7 623.463 1775.09 647.802 C 1776.47 672.141 1757.92 693.023 1733.59 694.53 C 1709.08 696.048 1688.02 677.34 1686.62 652.823 C 1685.23 628.306 1704.05 607.335 1728.57 606.07 z" fill="rgb(254,253,253)" transform="translate(0,0)"></path>
<path d="M 1723.7 618.988 C 1741.2 614.818 1758.75 625.683 1762.81 643.204 C 1766.88 660.726 1755.91 678.209 1738.36 682.172 C 1720.97 686.101 1703.66 675.243 1699.63 657.868 C 1695.6 640.493 1706.35 623.123 1723.7 618.988 z" fill="rgb(3,13,28)" transform="translate(0,0)"></path>
<path d="M 1724.25 624.018 C 1738.82 620.18 1753.76 628.823 1757.7 643.37 C 1761.64 657.917 1753.1 672.917 1738.58 676.955 C 1723.92 681.034 1708.74 672.392 1704.76 657.702 C 1700.79 643.012 1709.53 627.894 1724.25 624.018 z" fill="rgb(254,253,253)" transform="translate(0,0)"></path>
<path d="M 1626.9 515.678 C 1651.91 512.039 1675.16 529.283 1678.94 554.273 C 1682.72 579.262 1665.6 602.609 1640.63 606.525 C 1615.47 610.47 1591.9 593.191 1588.09 568.006 C 1584.28 542.821 1601.69 519.347 1626.9 515.678 z" fill="rgb(3,13,28)" transform="translate(0,0)"></path>
<path d="M 1625.09 519.68 C 1640.06 516.651 1655.5 521.922 1665.5 533.475 C 1675.49 545.027 1678.49 561.068 1673.34 575.449 C 1668.19 589.831 1655.69 600.322 1640.63 602.902 C 1617.83 606.808 1596.11 591.688 1591.87 568.948 C 1587.62 546.207 1602.41 524.268 1625.09 519.68 z" fill="rgb(254,253,253)" transform="translate(0,0)"></path>
<path d="M 1626.56 531.005 C 1637.39 528.547 1648.7 532.142 1656.12 540.399 C 1663.54 548.656 1665.91 560.283 1662.31 570.786 C 1658.72 581.289 1649.72 589.024 1638.8 591.001 C 1622.41 593.966 1606.66 583.299 1603.34 566.985 C 1600.01 550.672 1610.33 534.69 1626.56 531.005 z" fill="rgb(3,13,28)" transform="translate(0,0)"></path>
<path d="M 1626.67 536.105 C 1635.61 533.652 1645.17 536.198 1651.7 542.767 C 1658.23 549.337 1660.73 558.914 1658.22 567.835 C 1655.72 576.756 1648.61 583.64 1639.62 585.854 C 1625.96 589.215 1612.14 580.978 1608.6 567.368 C 1605.06 553.757 1613.11 539.827 1626.67 536.105 z" fill="rgb(254,253,253)" transform="translate(0,0)"></path>
<path d="M 1816.42 426.482 L 1819.4 427.083 L 1819.45 428.534 C 1815.22 433.221 1795.29 433.503 1788.35 434.148 C 1770.48 435.738 1752.62 437.495 1734.78 439.421 L 1494.24 463.708 C 1492.62 463.812 1492.17 463.583 1490.58 463.259 L 1490 461.759 L 1491.47 459.989 C 1502.51 454.973 1780.5 429.431 1816.42 426.482 z" fill="rgb(3,16,35)" transform="translate(0,0)"></path>
<path d="M 1814.73 138.454 C 1816.32 138.06 1817.18 138.31 1818.86 138.449 L 1819.63 140.123 C 1815.41 145.049 1789.82 146.035 1782.14 146.854 L 1719.5 153.656 L 1495.25 177.39 C 1492.96 177.772 1492.9 177.759 1490.76 176.723 C 1490.69 175.951 1490.38 175.036 1490.87 174.678 C 1497.4 169.942 1523.11 169.238 1530.38 168.507 L 1609.44 160.506 L 1814.73 138.454 z" fill="rgb(3,16,35)" transform="translate(0,0)"></path>
<path d="M 1808.87 282.395 C 1813.14 281.889 1817.21 280.515 1819.65 284.585 C 1816.51 287.982 1726 295.914 1715.03 297.099 L 1503.76 320.182 C 1502.48 320.381 1501.2 320.561 1499.92 320.723 C 1495.91 321.218 1494.55 321.387 1491.25 318.822 L 1491.76 317.553 C 1497.54 315.418 1561.89 308.982 1572.43 307.808 C 1651.19 298.848 1730.01 290.377 1808.87 282.395 z" fill="rgb(3,16,35)" transform="translate(0,0)"></path>
<path d="M 1466.73 587.572 L 1469.99 588.206 C 1472.55 590.426 1472 589.319 1472.35 592.281 C 1471.26 595.307 1456 616.409 1453.1 619.583 C 1440.28 633.636 1404.77 691.638 1392.09 698.384 C 1387.3 697.303 1367.94 672.164 1363.06 666.279 C 1360.08 662.696 1358.7 661.175 1356.6 657.066 C 1356.53 653.447 1356.06 654.667 1358.01 652.205 L 1360.53 652.316 C 1368.02 656.069 1385.29 679.279 1391.54 687.164 C 1416.37 658.418 1441.45 616.03 1466.73 587.572 z" fill="rgb(74,160,157)" transform="translate(0,0)"></path>
<path d="M 1811.65 462.4 C 1814.89 461.95 1817.73 460.957 1819.25 464.345 C 1815 468.703 1792.34 469.345 1785.02 470.095 L 1729.09 476.02 C 1654.76 483.793 1577.61 490.482 1503.76 499.373 C 1498.64 500.248 1496.16 501.469 1492.3 497.683 L 1493.25 496.408 C 1499.2 494.233 1557.35 488.832 1567.31 487.759 L 1811.65 462.4 z" fill="rgb(3,16,35)" transform="translate(0,0)"></path>
<path d="M 1467.49 396.373 C 1470.75 397.073 1471.51 397.86 1472.87 400.51 C 1472.27 405.711 1435.53 453.805 1429.59 461.466 C 1417.27 477.35 1402.96 499.13 1390.51 515.132 C 1383.29 507.993 1367.54 488.128 1359.98 479.364 C 1356.5 475.668 1354.7 474.447 1354.13 469.665 C 1355.35 467.023 1355.49 466.445 1357.96 464.986 C 1362.68 466.2 1385.47 495.615 1390.02 501.144 C 1415.63 466.06 1441.45 431.136 1467.49 396.373 z" fill="rgb(74,160,157)" transform="translate(0,0)"></path>
<path d="M 1816.6 319.468 L 1819.32 319.895 L 1819.55 321.513 C 1815.56 326.418 1790.14 327.184 1782.48 328.005 L 1708.58 335.815 L 1497.26 357.863 C 1495.75 358.06 1494.72 357.645 1493.24 357.253 L 1492.81 355.441 C 1496.41 351.02 1519.26 350.411 1525.86 349.752 L 1588.3 343.34 L 1816.6 319.468 z" fill="rgb(3,16,35)" transform="translate(0,0)"></path>
<path d="M 1465.65 253.735 C 1469.67 254.206 1468.28 253.579 1471.25 255.821 C 1471.77 259.16 1471.09 261.244 1469 264.074 C 1451.72 287.431 1434.32 310.655 1417.34 334.243 C 1412.57 340.874 1396.06 365.52 1389.53 366.887 C 1383.64 362.65 1365.73 341.756 1360.02 335.352 C 1356.64 331.572 1352.97 328.927 1353.61 323.671 C 1359.82 317.645 1369.82 332.444 1374 337.136 C 1379.57 343.382 1384.99 349.927 1390.52 356.242 C 1415.11 324.321 1442.27 286.499 1465.65 253.735 z" fill="rgb(74,160,157)" transform="translate(0,0)"></path>
<path d="M 1816.28 176.43 C 1818.39 176.467 1817.38 176.223 1819.33 177.421 C 1819.11 178.915 1819.15 178.431 1818.13 179.816 C 1810.78 182.597 1753.31 187.869 1740.83 189.214 L 1563.61 208.002 C 1540.85 210.47 1516.36 212.439 1493.86 215.439 C 1491.3 214.277 1492.15 215.002 1490.59 212.727 C 1492.46 210.777 1493.54 210.412 1496.58 210.09 C 1533.89 206.14 1571.43 202.393 1608.71 198.417 L 1816.28 176.43 z" fill="rgb(3,16,35)" transform="translate(0,0)"></path>
<path d="M 1464.99 111.852 C 1468.59 113.188 1468.72 113.266 1470.41 116.031 C 1470.29 120.771 1430.81 169.798 1425.84 176.966 C 1421.55 183.143 1395.46 221.937 1390.16 222.041 C 1384.26 217.492 1366.71 197.972 1359.81 191.012 C 1357.62 188.546 1356.21 186.726 1354.25 184.075 C 1354.44 180.285 1353.95 181.655 1355.87 178.664 L 1358.09 178.345 C 1366.65 181.665 1384.2 203.57 1391.09 211.588 C 1404.72 189.925 1423.92 166.164 1439.04 145.009 C 1444.07 137.974 1459.5 117.11 1464.99 111.852 z" fill="rgb(74,160,157)" transform="translate(0,0)"></path>
<path d="M 1349.68 151.212 C 1370.65 150.502 1392.72 151.496 1413.82 150.712 C 1417.26 150.584 1424.17 151.814 1426.75 154.599 C 1423.13 156.617 1359.61 155.913 1350.41 155.909 C 1349.79 165.129 1348.89 226.682 1352.39 231.145 C 1359.91 234.468 1418.67 232.873 1431.32 232.779 C 1436.87 225.93 1430.04 182.373 1434.97 174.245 L 1436.61 174.157 L 1437.82 176.003 C 1438.25 186.319 1439.65 226.527 1436.44 233.977 C 1430.08 240.034 1355.09 239.518 1348.46 235.444 C 1342.47 231.77 1346.2 177.712 1345.21 168.163 C 1344.63 162.521 1345.03 155.772 1349.68 151.212 z" fill="rgb(3,16,35)" transform="translate(0,0)"></path>
<path d="M 1433.79 465.404 L 1436.55 466.188 C 1441.13 471.121 1437.79 508.529 1438.5 517.51 C 1438.98 523.553 1434.88 527.086 1428.82 527.265 C 1416.22 527.636 1355.41 530.734 1348.03 525.393 C 1343.97 518.701 1345.43 500.433 1345.5 491.573 C 1345.26 487.308 1344.43 483.844 1347.05 480.879 L 1348.57 481.381 C 1351.55 487.097 1350.76 514.739 1350.93 522.878 C 1364.08 523.159 1424.21 524.398 1432.15 521.057 C 1436.35 514.691 1432.66 477.569 1433.71 466.219 L 1433.79 465.404 z" fill="rgb(3,16,35)" transform="translate(0,0)"></path>
<path d="M 1433.43 321.163 C 1435.75 321.677 1435.94 321.624 1437.43 323.334 C 1438.73 327.902 1438.2 371.298 1436.51 375.76 C 1430.46 382.501 1355.55 381.862 1347.77 376.726 C 1343.36 369.86 1344.97 347.268 1345.09 337.853 L 1345.16 332.884 C 1346.84 330.004 1345.9 330.749 1348.58 329.636 C 1354.52 337.239 1345.38 364.111 1351.45 372.711 C 1352.37 374.011 1355.29 374.801 1356.81 375.04 C 1363.53 376.101 1417.72 375.866 1425.52 375.036 C 1427.76 374.797 1429.62 374.356 1431.47 372.967 C 1434.43 370.752 1431.92 329.529 1433.3 321.88 L 1433.43 321.163 z" fill="rgb(3,16,35)" transform="translate(0,0)"></path>
<path d="M 1436.19 651.496 C 1437.32 651.966 1437.87 652.724 1438.71 653.627 C 1439.89 660.761 1439.77 703.151 1437.82 707.477 C 1434.64 714.542 1355.58 712.956 1347.95 709.225 C 1343.62 703.031 1345.24 681.509 1345.39 672.75 C 1345.14 668.7 1345.05 667.975 1348.37 666.082 C 1352.59 670.383 1347.05 697.233 1351.72 705.483 C 1357.87 708.916 1417.54 706.396 1428.46 706.769 C 1440.97 707.197 1429.25 659.466 1436.19 651.496 z" fill="rgb(3,16,35)" transform="translate(0,0)"></path>
<path d="M 1612.74 641.415 C 1617.87 640.742 1619.31 640.64 1623.34 642.798 L 1623.78 644.365 C 1620.67 646.154 1514.86 654.554 1502.24 655.824 C 1498.33 656.333 1492.96 657.733 1490.75 653.695 C 1496.59 649.879 1596.66 642.716 1612.74 641.415 z" fill="rgb(3,16,35)" transform="translate(0,0)"></path>
<path d="M 1350.54 438.972 C 1360.05 438.503 1421.95 437.25 1426.24 440.512 L 1425.71 442.337 C 1422.82 444.246 1400.68 443.544 1395.53 443.542 L 1350.83 443.752 C 1350.25 450.729 1352.48 466.31 1348.86 470.86 L 1346.74 470.973 C 1344.8 468.207 1345.03 453.457 1345.27 449.519 C 1345.61 444.148 1346.55 442.196 1350.54 438.972 z" fill="rgb(3,16,35)" transform="translate(0,0)"></path>
<path d="M 1351.67 624.234 C 1361.43 624.181 1424.85 621.962 1426.97 627.344 C 1422.73 630.333 1406.45 629.277 1400.25 629.165 C 1383.64 628.974 1367.03 629.039 1350.42 629.36 C 1350.28 634.071 1351.26 649.602 1347.75 651.659 L 1346.27 650.485 C 1345.21 641.117 1342.63 629.53 1351.67 624.234 z" fill="rgb(3,16,35)" transform="translate(0,0)"></path>
<path d="M 1353.53 296.451 L 1399.75 296.476 C 1405.35 296.451 1422.65 295.064 1426.32 298.41 L 1426.29 299.958 C 1423.01 302.225 1400.97 301.351 1395.75 301.296 C 1380.62 301.106 1365.48 301.276 1350.36 301.808 C 1350.26 305.624 1350.33 317.963 1348.63 320.534 C 1342.22 315.849 1342.68 299.61 1353.53 296.451 z" fill="rgb(3,16,35)" transform="translate(0,0)"></path>
<path d="M 430.615 429.166 L 432.246 429.119 C 434.052 434.82 416.855 465.146 416.347 474.514 C 417.423 476.409 417.841 477.437 420.032 478.209 C 428.878 481.329 580.338 500.434 582.618 499.235 C 586.967 496.947 589.452 486.38 591.025 481.962 C 617.511 493.003 695.271 519.126 725.408 515.091 C 738.948 513.278 748.801 500.963 755.903 489.877 C 762.873 496.12 768.435 500.004 776.194 505.185 C 781.762 522.537 785.231 534.392 788.549 552.318 C 783.311 554.279 781.519 555.071 778.97 560.005 C 778.932 563.98 779.51 563.514 781.996 567.48 C 782.501 571.523 761.962 607.877 758.175 615.238 C 745.51 639.86 708.642 714.31 706.8 740.271 C 705.499 758.606 745.646 872.237 753.491 896.696 C 755.229 902.281 761.625 916.596 759.984 921.081 C 757.527 921.657 757.009 921.608 755.139 923.17 C 755.168 925.378 755.317 925.829 754.429 927.779 C 752.147 927.519 750.982 927.441 748.686 927.494 C 746.816 928.761 741.214 933.355 740.003 933.749 C 725.956 938.317 705.722 938.689 693.975 947.796 C 687.798 952.585 687.282 963.35 685.416 965.513 C 666.577 967.42 434.228 965.818 433.374 965.13 C 430.082 962.48 429.494 951.367 424.158 947.462 C 418.684 943.457 406.173 940.736 399.283 937.775 C 386.276 932.184 374.054 924.748 362.534 916.567 C 370.998 847.048 386.373 774.36 395.212 704.995 C 405.099 627.396 406.345 532.662 404.168 454.185 C 407.687 449.473 410.616 438.869 412.523 432.827 C 418.671 432.08 424.585 430.569 430.615 429.166 z" fill="rgb(254,253,253)" transform="translate(0,0)"></path>
<path d="M 1694.28 708.798 C 1700.53 707.709 1721.78 708.237 1729.47 708.082 C 1758.11 707.506 1787.18 708.509 1815.81 707.943 L 1815.99 746.948 L 1816.69 965.883 L 1584.34 965.817 L 1567.86 965.842 L 1567.94 944.935 L 1567.95 929.225 L 1567.85 867.622 C 1567.32 855.508 1565.7 808.12 1567.59 797.789 L 1567.84 782.706 C 1568.32 758.194 1567.97 732.621 1567.94 708.025 L 1643.21 708.094 C 1651.55 708.016 1687 707.21 1692.78 708.799 L 1694.28 708.798 z" fill="rgb(254,253,253)" transform="translate(0,0)"></path>
<path d="M 1584.34 965.817 C 1599.76 952.977 1627.15 925.792 1642.02 911.58 C 1677.24 878.065 1712.26 844.327 1747.05 810.368 C 1762.47 795.363 1799.68 757.998 1815.99 746.948 L 1816.69 965.883 L 1584.34 965.817 z" fill="rgb(74,160,157)" transform="translate(0,0)"></path>
<path d="M 1643.21 708.094 C 1651.55 708.016 1687 707.21 1692.78 708.799 L 1694.28 708.798 C 1700.83 709.115 1707.39 709.206 1713.95 709.069 C 1665.62 754.251 1615.89 805.818 1567.97 852.397 C 1567.97 845.437 1568.44 802.459 1567.59 797.789 L 1567.84 782.706 C 1568.32 758.194 1567.97 732.621 1567.94 708.025 L 1643.21 708.094 z" fill="rgb(254,253,253)" transform="translate(0,0)"></path>
<path d="M 1567.94 708.025 L 1643.21 708.094 C 1636.33 715.937 1627.76 723.258 1620.49 730.773 C 1603.46 748.359 1584.89 765.277 1567.84 782.706 C 1568.32 758.194 1567.97 732.621 1567.94 708.025 z" fill="rgb(254,253,253)" transform="translate(0,0)"></path>
<path d="M 1643.21 708.094 C 1651.55 708.016 1687 707.21 1692.78 708.799 C 1682.37 708.798 1669.97 708.569 1659.7 709.009 C 1628.94 736.852 1598.2 768.992 1567.59 797.789 L 1567.84 782.706 C 1584.89 765.277 1603.46 748.359 1620.49 730.773 C 1627.76 723.258 1636.33 715.937 1643.21 708.094 z" fill="rgb(74,160,157)" transform="translate(0,0)"></path>
<path d="M 1567.94 944.935 C 1575.73 936.697 1584.37 928.196 1592.61 920.345 C 1665.76 850.638 1738.28 780.481 1809.99 709.31 C 1809.99 709.307 1815.28 708.069 1815.81 707.943 L 1815.99 746.948 C 1799.68 757.998 1762.47 795.363 1747.05 810.368 C 1712.26 844.327 1677.24 878.065 1642.02 911.58 C 1627.15 925.792 1599.76 952.977 1584.34 965.817 L 1567.86 965.842 L 1567.94 944.935 z" fill="rgb(254,253,253)" transform="translate(0,0)"></path>
<path d="M 1694.28 708.798 C 1700.53 707.709 1721.78 708.237 1729.47 708.082 C 1758.11 707.506 1787.18 708.509 1815.81 707.943 C 1815.28 708.069 1809.99 709.307 1809.99 709.31 C 1738.28 780.481 1665.76 850.638 1592.61 920.345 C 1584.37 928.196 1575.73 936.697 1567.94 944.935 L 1567.95 929.225 C 1579.33 916.155 1595.8 901.436 1608.54 889.266 C 1630.24 868.203 1652.11 847.316 1674.15 826.608 C 1715.04 787.704 1753.12 747.932 1793.32 708.971 L 1730.25 708.849 C 1707.8 727.986 1683.42 753.937 1662.43 775.058 C 1631.21 806.223 1599.68 837.079 1567.85 867.622 C 1567.32 855.508 1565.7 808.12 1567.59 797.789 C 1568.44 802.459 1567.97 845.437 1567.97 852.397 C 1615.89 805.818 1665.62 754.251 1713.95 709.069 C 1707.39 709.206 1700.83 709.115 1694.28 708.798 z" fill="rgb(74,160,157)" transform="translate(0,0)"></path>
<path d="M 729.859 442.734 C 731.89 440.509 752.464 429.845 756.432 427.736 C 777.465 444.02 802.179 472.753 831.443 469.411 C 851.363 467.136 861.002 453.501 865.137 435.49 C 873.828 449.057 882.225 462.81 890.321 476.741 C 930.454 544.314 935.969 580.819 887.209 645.658 L 888.107 647.195 C 879.686 656.381 871.181 666.8 863.407 676.544 C 856.047 685.77 848.088 689.448 839.326 696.755 L 838.269 696.22 C 826.689 706.525 796.333 733.261 786.778 743.681 L 786.037 745.014 C 785.549 744.978 783.214 744.753 782.93 744.854 C 778.161 746.488 774.642 746.844 771.637 750.519 L 771.44 751.986 C 775.588 753.608 778.404 752.432 782.183 750.209 L 786.426 748.595 C 792.57 752.469 805.475 809.791 802.949 816.286 C 777.695 814.245 757.818 815.59 732.558 816.996 C 724.926 793.232 717.125 770.937 712.092 746.442 C 705.284 723.547 776.673 591.962 788.512 567.286 L 798.169 566.955 L 801.385 563.493 C 795.877 562.49 788.013 564.135 784.382 561.604 C 785.878 554.923 798.801 557.967 804.014 558.595 C 805.55 558.432 806.732 558.113 808.218 557.756 L 808.99 555.053 C 805.471 553.214 797.218 553.218 793.046 553.112 C 790.733 536.848 787.277 525.457 782.541 509.899 L 783.488 509.007 L 786.689 509.473 C 791.177 511.809 800.006 514.378 804.628 511.677 C 801.4 506.28 787.375 505.923 780.807 502.605 C 774.57 499.454 772.886 498.082 767.729 493.708 C 756.205 484.359 733.133 458.088 728.571 444.542 L 729.859 442.734 z" fill="rgb(74,160,157)" transform="translate(0,0)"></path>
<path d="M 756.432 427.736 C 777.465 444.02 802.179 472.753 831.443 469.411 C 851.363 467.136 861.002 453.501 865.137 435.49 C 873.828 449.057 882.225 462.81 890.321 476.741 C 930.454 544.314 935.969 580.819 887.209 645.658 L 888.107 647.195 C 879.686 656.381 871.181 666.8 863.407 676.544 C 856.047 685.77 848.088 689.448 839.326 696.755 L 838.269 696.22 C 826.689 706.525 796.333 733.261 786.778 743.681 L 781.135 740.852 C 781.637 738.61 801.026 723.102 804.336 719.82 C 842.89 681.602 897.732 641.6 912.191 587.017 C 922.022 549.903 909.279 522.571 891.729 491.242 C 883.794 476.985 875.545 462.906 866.986 449.015 C 855.506 478.126 826.334 483.247 800.974 469.746 C 786.783 462.191 767.399 446.75 757.693 433.882 L 758.11 431.861 C 756.927 430.485 756.859 429.49 756.432 427.736 z" fill="rgb(254,253,253)" transform="translate(0,0)"></path>
<path d="M 887.209 645.658 L 888.107 647.195 C 879.686 656.381 871.181 666.8 863.407 676.544 C 856.047 685.77 848.088 689.448 839.326 696.755 L 838.269 696.22 C 839.711 694.374 842.329 691.92 844.091 690.298 C 859.444 676.176 873.017 660.851 887.209 645.658 z" fill="rgb(3,13,28)" transform="translate(0,0)"></path>
<path d="M 788.512 567.286 L 798.169 566.955 C 777.89 590.922 742.828 677.159 729 707.869 C 725.181 716.348 717.22 740.835 712.092 746.442 C 705.284 723.547 776.673 591.962 788.512 567.286 z" fill="rgb(254,253,253)" transform="translate(0,0)"></path>
<path d="M 782.183 750.209 L 786.426 748.595 C 792.57 752.469 805.475 809.791 802.949 816.286 C 802.729 816.236 797.867 814.876 797.804 814.323 C 795.329 792.643 790.016 770.043 782.183 750.209 z" fill="rgb(254,253,253)" transform="translate(0,0)"></path>
<path d="M 793.046 553.112 C 790.733 536.848 787.277 525.457 782.541 509.899 L 783.488 509.007 L 786.689 509.473 C 791.69 520.913 795.659 535.707 797.516 548.095 C 801.738 548.691 808.849 549.424 810.964 553.613 L 810.376 555.34 L 808.99 555.053 C 805.471 553.214 797.218 553.218 793.046 553.112 z" fill="rgb(254,253,253)" transform="translate(0,0)"></path>
<path d="M 729.859 442.734 L 730.497 444.032 L 732.209 447.662 L 736.2 445.602 C 738.591 450.238 748.1 467.106 748.505 470.928 C 752.834 477.649 766.795 489.612 767.729 493.708 C 756.205 484.359 733.133 458.088 728.571 444.542 L 729.859 442.734 z" fill="rgb(193,213,211)" transform="translate(0,0)"></path>
<path d="M 732.209 447.662 L 736.2 445.602 C 738.591 450.238 748.1 467.106 748.505 470.928 C 741.864 463.956 737.032 455.935 732.209 447.662 z" fill="rgb(45,115,122)" transform="translate(0,0)"></path>
<path d="M 729.859 442.734 C 731.89 440.509 752.464 429.845 756.432 427.736 C 756.859 429.49 756.927 430.485 758.11 431.861 L 757.693 433.882 C 750.844 436.68 742.733 441.769 736.2 445.602 L 732.209 447.662 L 730.497 444.032 L 729.859 442.734 z" fill="rgb(3,16,35)" transform="translate(0,0)"></path>
<path d="M 729.859 442.734 C 731.89 440.509 752.464 429.845 756.432 427.736 C 756.859 429.49 756.927 430.485 758.11 431.861 C 754.728 430.983 754.121 430.918 750.939 432.838 C 744.167 436.922 737.524 440.454 730.497 444.032 L 729.859 442.734 z" fill="rgb(45,115,122)" transform="translate(0,0)"></path>
<path d="M 782.93 744.854 C 777.301 743.52 764.318 743.153 760.854 739.257 C 763.348 735.07 777.215 739.354 781.135 740.852 L 786.778 743.681 L 786.037 745.014 C 785.549 744.978 783.214 744.753 782.93 744.854 z" fill="rgb(3,13,28)" transform="translate(0,0)"></path>
<path d="M 801.385 563.493 C 795.877 562.49 788.013 564.135 784.382 561.604 C 785.878 554.923 798.801 557.967 804.014 558.595 L 806.978 559.427 L 805.929 558.975 L 807.034 560.439 C 804.826 561.467 803.387 562.043 801.385 563.493 z" fill="rgb(254,253,253)" transform="translate(0,0)"></path>
<path d="M 836.507 703.674 C 842.172 708.446 866.948 766.192 880.418 776.941 C 894.822 788.435 906.587 794.489 921.981 804.289 C 949.899 822.062 979.45 838.391 1005.91 858.164 C 1013.11 863.54 1024.03 874.122 1030.9 880.489 C 1030.56 885.361 1030.87 890.79 1029.95 895.521 C 1026.68 912.488 1010.63 921.921 1005.3 936.672 C 1001.94 945.966 1009.23 957.43 1013.8 965.377 L 995.582 965.498 L 820.525 965.746 C 820.177 952.537 817.042 941.903 816.617 929.946 C 814.558 872.03 814.314 799.734 791.336 745.632 C 806.544 731.81 821.602 717.823 836.507 703.674 z" fill="rgb(254,253,253)" transform="translate(0,0)"></path>
<path d="M 317.027 446.504 C 335.682 450.267 345.788 450.945 364.442 452.673 L 365.824 453.983 C 364.763 469.306 359.19 507.2 340.402 510.457 C 336.784 508.423 338.064 508.527 334.187 508.625 L 332.949 509.872 C 333.728 512.676 333.155 511.64 336.056 513.787 L 338.642 515.254 C 338.535 518.952 326.519 551.115 324.445 557.258 C 294.847 647.567 262.473 736.942 227.369 825.255 L 204.13 882.957 C 200.449 891.986 195.23 905.933 190.721 914.261 C 187.633 914.922 188 914.481 184.599 913.319 C 177.382 915.335 160.939 917.631 153.655 918.579 C 157.94 901.375 161.337 883.375 164.947 865.966 C 183.416 776.881 204.632 688.48 222.136 599.198 C 230.069 558.735 234.078 518.644 243.353 478.701 C 274.124 481.841 302.228 477.207 317.027 446.504 z" fill="rgb(74,160,157)" transform="translate(0,0)"></path>
<path d="M 184.599 913.319 C 194.308 887.041 207.592 857.561 218.252 831.196 C 236.709 785.647 254.276 739.743 270.942 693.509 C 285.245 654.624 299.016 615.545 312.252 576.283 C 318.986 556.593 325.795 536.248 332.718 516.592 C 333.54 514.257 333.635 514.731 336.056 513.787 L 338.642 515.254 C 338.535 518.952 326.519 551.115 324.445 557.258 C 294.847 647.567 262.473 736.942 227.369 825.255 L 204.13 882.957 C 200.449 891.986 195.23 905.933 190.721 914.261 C 187.633 914.922 188 914.481 184.599 913.319 z" fill="rgb(254,253,253)" transform="translate(0,0)"></path>
<path d="M 340.402 510.457 C 358.368 483.133 349.242 478.531 356.393 454.215 C 358.946 452.257 360.652 452.865 364.442 452.673 L 365.824 453.983 C 364.763 469.306 359.19 507.2 340.402 510.457 z" fill="rgb(254,253,253)" transform="translate(0,0)"></path>
<path d="M 371.077 453.307 C 377.97 453.599 386.545 454.22 393.25 453.433 C 397.668 454.126 397.759 453.327 399.709 455.996 C 400.629 547.263 400.996 639.081 386.688 729.563 C 385.661 736.055 384.59 742.542 383.578 749.036 L 369.432 839.886 C 367.655 851.349 359.38 909.763 356.83 915.766 C 355.593 916.531 354.299 917.392 352.991 918.004 C 349.865 917.746 324.443 924.635 319.852 925.792 C 317.242 889.679 316.667 847.662 314.948 810.948 L 312.387 753.218 C 311.788 738.682 310.091 716.542 312.644 702.571 C 324.026 640.284 342.108 576.632 349.071 513.707 C 365.505 498.225 367.255 474.752 371.077 453.307 z" fill="rgb(74,160,157)" transform="translate(0,0)"></path>
<path d="M 393.25 453.433 C 397.668 454.126 397.759 453.327 399.709 455.996 C 400.629 547.263 400.996 639.081 386.688 729.563 C 385.661 736.055 384.59 742.542 383.578 749.036 L 369.432 839.886 C 367.655 851.349 359.38 909.763 356.83 915.766 C 355.593 916.531 354.299 917.392 352.991 918.004 L 352.077 917.155 C 349.502 911.684 382.555 721.473 384.844 700.114 C 390.07 653.181 393.094 606.03 393.908 558.814 C 394.452 523.522 393.127 488.496 393.25 453.433 z" fill="rgb(254,253,253)" transform="translate(0,0)"></path>
<path d="M 304.643 630.786 C 308.02 634.245 306.316 725.569 306.688 737.41 C 307.267 755.868 308.308 781.126 309.133 799.842 L 312.961 879.335 C 313.797 895.297 314.741 911.072 315.172 927.061 C 315.586 942.398 307.16 951.112 308.617 966.125 C 298.334 966.149 264.372 966.782 256.599 965.269 C 252.586 960.515 254.328 959.211 252.296 954.349 C 250.231 949.409 238.781 945.539 233.752 943.577 C 221.158 939.357 205.614 926.53 194.79 918.268 C 209.497 880.721 225.594 843.165 240.448 805.536 C 263.152 747.774 284.556 689.509 304.643 630.786 z" fill="rgb(254,253,253)" transform="translate(0,0)"></path>
<path d="M 767.765 342.295 C 798.977 340.935 843.922 404.299 860.704 428.26 C 859.583 438.116 857.905 448.228 850.575 455.397 C 822.895 482.47 780.294 443.646 761.491 425.023 C 767.736 421.41 779.661 416.341 783.348 411.566 L 782.951 410.331 C 771.495 409.372 678.76 468.484 658.145 476.477 C 651.654 477.625 643.037 478.635 636.808 476.734 C 613.162 469.518 540.984 442.355 523.016 430.609 C 525.706 420.115 525.854 417.231 533.306 408.986 C 542.986 410.577 561.083 416.059 571.998 418.491 C 597.114 424.021 622.471 428.393 647.989 431.593 C 644.039 438.128 642.866 441.463 640.954 448.585 C 647.828 441.797 653.407 430.973 660.582 424.091 C 689.161 396.679 728.12 350.834 767.765 342.295 z" fill="rgb(254,253,253)" transform="translate(0,0)"></path>
<path d="M 496.223 319.688 C 516.721 322.726 537.819 324.593 558.454 327.226 C 587.625 330.95 616.782 335.027 645.985 338.404 C 637.196 362.214 621.034 396.688 610.571 421.199 C 588.302 417.512 564.527 412.719 542.971 406.235 C 531.429 388.131 516.396 382.267 495.762 380.179 C 487.014 379.294 468.467 381.472 471.094 394.455 C 472.581 401.805 482.451 406.682 488.318 410.143 L 490.314 407.938 L 493.529 408.299 L 494.453 404.051 C 502.874 418.514 502.641 419.666 519.044 422.565 L 519.577 423.728 C 519.256 424.489 519.133 425.202 519.048 426.021 C 518.913 428.62 519.079 430.016 519.319 432.557 C 523.893 439.555 579.456 460.801 591.726 465.833 C 588.062 475.318 584.668 485.682 581.313 495.336 C 534.705 487.521 478.205 481.447 430.998 475.488 C 436.636 463.641 444.118 444.618 449.057 432.327 C 454.346 436.522 457.69 440.131 465.11 439.574 C 474.684 438.979 477.099 429.905 475.897 421.893 C 474.12 410.043 472.625 406.641 463.863 399.457 C 471.887 375.32 486.543 344.599 496.223 319.688 z" fill="rgb(250,208,118)" transform="translate(0,0)"></path>
<path d="M 494.453 404.051 C 502.874 418.514 502.641 419.666 519.044 422.565 L 519.577 423.728 C 519.256 424.489 519.133 425.202 519.048 426.021 C 500.127 427.295 500.084 417.06 488.318 410.143 L 490.314 407.938 L 493.529 408.299 L 494.453 404.051 z" fill="rgb(3,13,28)" transform="translate(0,0)"></path>
<path d="M 921.655 595.239 C 923.412 623.836 927.318 653.369 930.903 681.94 C 931.935 690.166 934.914 703.584 935.803 712.405 C 935.805 712.419 934.166 714.469 934.009 714.586 C 933.595 714.908 933.182 715.229 932.768 715.55 C 931.518 716.229 929.095 717.425 928.092 718.276 L 929.941 722.378 L 932.856 719.993 L 933.56 720.826 C 932.598 723.126 932.177 724.152 930.828 726.239 C 928.354 730.39 922.51 736.485 925.026 741.046 C 930.826 740.103 935.525 729.328 937.624 724.411 L 939.668 719.079 L 940.93 718.65 C 951.001 724.089 993.848 757.374 998.599 766.162 C 997.944 768.385 998.541 767.504 996.844 768.955 C 981.229 785.208 967.8 800.108 954.347 818.161 C 934.736 807.17 896.242 784.814 880.76 769.775 C 874.887 764.07 858.264 733.141 854.037 724.51 C 885.564 694.988 904.715 652.327 916.182 611.518 C 916.458 605.732 919.116 600.433 921.655 595.239 z" fill="rgb(74,160,157)" transform="translate(0,0)"></path>
<path d="M 921.655 595.239 C 923.412 623.836 927.318 653.369 930.903 681.94 C 931.935 690.166 934.914 703.584 935.803 712.405 C 935.805 712.419 934.166 714.469 934.009 714.586 C 933.595 714.908 933.182 715.229 932.768 715.55 L 931.023 713.063 C 928.846 706.67 926.684 692.912 925.49 685.827 C 921.242 661.214 918.136 636.418 916.182 611.518 C 916.458 605.732 919.116 600.433 921.655 595.239 z" fill="rgb(254,253,253)" transform="translate(0,0)"></path>
<path d="M 937.624 724.411 L 939.668 719.079 L 940.93 718.65 C 951.001 724.089 993.848 757.374 998.599 766.162 C 997.944 768.385 998.541 767.504 996.844 768.955 C 993.19 768.789 947.868 730.3 937.624 724.411 z" fill="rgb(254,253,253)" transform="translate(0,0)"></path>
<path d="M 928.092 718.276 L 929.941 722.378 L 922.056 728.238 C 919.17 729.992 914.67 733.261 911.377 731.862 C 913.267 727.708 916.862 725.519 920.519 722.614 L 928.092 718.276 z" fill="rgb(3,13,28)" transform="translate(0,0)"></path>
<path d="M 929.941 722.378 L 932.856 719.993 L 933.56 720.826 C 932.598 723.126 932.177 724.152 930.828 726.239 L 930.07 726.614 C 924.92 729.204 919.316 734.339 915.371 735.881 C 915.848 733.181 920.102 730.389 922.056 728.238 L 929.941 722.378 z" fill="rgb(193,213,211)" transform="translate(0,0)"></path>
<path d="M 931.023 713.063 L 932.768 715.55 C 931.518 716.229 929.095 717.425 928.092 718.276 L 920.519 722.614 C 921.513 718.601 927.356 715.553 931.023 713.063 z" fill="rgb(254,253,253)" transform="translate(0,0)"></path>
<path d="M 290.348 245.684 C 291.988 245.778 293.645 246.025 295.181 246.633 C 340.125 264.402 321.954 330.262 309.453 363.471 C 304.324 363.633 284.807 364.796 284.415 370.832 C 289.726 372.324 304.15 367.512 308.474 369.03 C 334.011 377.994 359.7 384.321 385.935 390.914 C 380.255 400.308 378.651 405.048 376.196 415.75 C 375.261 420.591 375.132 425.116 374.869 430.018 C 365.234 430.147 355.599 429.806 345.996 428.998 C 329.212 427.609 270.948 420.287 262.468 407.607 C 240.647 374.976 264.021 316.533 271.835 281.543 C 274.869 267.96 279.76 254.58 290.348 245.684 z" fill="rgb(254,253,253)" transform="translate(0,0)"></path>
<path d="M 1470.57 869.753 L 1562.61 869.887 C 1562.35 901.761 1562.7 934.055 1562.82 965.947 C 1533.41 966.755 1500.46 966.03 1470.76 966.052 L 1470.57 869.753 z" fill="rgb(250,208,118)" transform="translate(0,0)"></path>
<path d="M 359.604 222.964 C 360.709 222.76 360.196 222.84 361.576 223.573 C 362.316 237.493 371.613 260.933 375.538 275.342 C 376.237 277.907 378.728 278.786 380.875 279.5 C 388.157 278.974 399.865 269.332 406.277 264.706 C 396.024 299.986 386.234 347.685 377.801 383.947 L 365.155 380.896 C 347.705 376.554 330.454 371.453 313.449 365.607 C 322.179 346.266 327.088 321.342 328.744 300.229 C 330.633 276.141 336.616 253.647 315.107 236.208 C 330.059 232.133 345.065 228.31 359.604 222.964 z" fill="rgb(74,160,157)" transform="translate(0,0)"></path>
<path d="M 1375.14 869.898 C 1404.51 869.236 1436.19 869.831 1465.75 869.821 L 1465.9 966.034 L 1374.96 965.923 L 1375.14 869.898 z" fill="rgb(250,208,118)" transform="translate(0,0)"></path>
<path d="M 1470.96 772.134 L 1562.52 772.092 C 1562.42 802.947 1562.49 833.803 1562.72 864.657 C 1534.16 865.682 1499.74 864.749 1470.71 864.749 L 1470.96 772.134 z" fill="rgb(250,208,118)" transform="translate(0,0)"></path>
<path d="M 1375.17 772.259 C 1404.03 771.345 1436.65 772.076 1465.85 772.041 L 1465.77 864.768 L 1375.19 864.768 C 1375 833.932 1375 803.095 1375.17 772.259 z" fill="rgb(250,208,118)" transform="translate(0,0)"></path>
<path d="M 408.114 103.836 C 468.728 64.8426 512.794 144.997 489.129 150.152 C 484.179 149.162 462.853 151.166 455.409 150.765 C 431.797 149.491 411.023 145.913 387.982 141.198 C 391.041 128.202 396.408 111.409 408.114 103.836 z" fill="rgb(74,160,157)" transform="translate(0,0)"></path>
<path d="M 408.114 103.836 C 468.728 64.8426 512.794 144.997 489.129 150.152 C 486.524 146.983 486.641 143.329 486.245 139.057 C 483.369 108.085 454.057 96.1936 426.619 99.1953 C 420.611 99.8525 414.494 102.956 408.114 103.836 z" fill="rgb(254,253,253)" transform="translate(0,0)"></path>
<path d="M 432.127 259.681 L 440.048 268.179 C 441.488 271.656 441.285 283.78 440.281 286.986 C 439.929 303.953 431.098 378.14 422.337 389.529 L 418.544 391.135 C 417.454 391.011 417.996 391.013 417.18 391.076 C 407.193 391.84 392.489 387.4 382.375 384.966 C 392.725 348.306 399.15 305.659 410.696 269.294 C 414.02 273.806 423.605 292.74 428.976 291.611 C 431.973 286.479 431.898 266.68 432.127 259.681 z" fill="rgb(74,160,157)" transform="translate(0,0)"></path>
<path d="M 436.825 290.378 L 439.041 286.955 L 440.281 286.986 C 439.929 303.953 431.098 378.14 422.337 389.529 L 418.544 391.135 C 418.815 387.9 419.638 384.381 420.409 381.202 C 427.709 351.089 432.339 321.007 436.825 290.378 z" fill="rgb(254,253,253)" transform="translate(0,0)"></path>
<path d="M 440.048 268.179 C 441.488 271.656 441.285 283.78 440.281 286.986 L 439.041 286.955 L 436.825 290.378 C 437.354 285.547 438.48 271.984 440.048 268.179 z" fill="rgb(254,253,253)" transform="translate(0,0)"></path>
<path d="M 721.941 446.864 C 725.699 447.737 738.779 471.201 742.955 475.461 C 745.487 478.043 749.521 483.101 752.507 486.09 C 747.163 494.89 741.102 503.779 731.445 508.266 C 705.75 520.207 621.725 488.383 594.216 478.03 C 592.848 475.268 595.114 470.825 596.174 467.95 C 620.46 474.953 641.437 491.131 667.118 477.646 C 676.821 472.55 686.476 466.782 696.116 461.49 C 708.922 468.355 719.459 483.06 725.178 484.857 C 725.239 476.031 707.821 463.126 701.011 458.505 L 721.941 446.864 z" fill="rgb(254,253,253)" transform="translate(0,0)"></path>
<path d="M 698.369 242.719 C 707.876 243.677 719.062 246.002 728.595 247.742 C 731.162 259.393 731.193 267.799 735.322 279.335 C 739.89 274.891 742.98 269.897 749.96 269.971 C 760.827 270.087 759.725 284.931 753.555 290.044 C 749.438 293.456 742.907 292.588 737.944 292.262 C 736.508 297.981 740.47 313.241 743.822 318.63 C 740.958 321.478 738.14 324.66 735.402 327.65 L 727.24 337.587 C 724.212 330.443 720.015 324.701 717.492 317.384 C 719.452 313.608 723.82 316.387 726.232 312.565 C 722.798 306.75 695.429 317.589 685.267 311.953 C 680.925 305.725 682.958 285.501 683.429 277.906 C 682.117 274.087 679.498 273.235 680.283 269.714 C 687.433 267.91 688.85 267.814 691.358 260.351 C 693.352 254.42 695.885 248.465 698.369 242.719 z" fill="rgb(254,253,253)" transform="translate(0,0)"></path>
<path d="M 700.035 288.363 L 700.935 288.394 L 701.964 289.513 C 699.602 295.3 695.132 295.577 689.668 294.497 L 688.08 291.272 C 689.709 287.233 692.083 293.149 700.035 288.363 z" fill="rgb(3,13,28)" transform="translate(0,0)"></path>
<path d="M 701.832 256.245 C 705.539 257.55 704.348 256.623 706.536 259.58 C 707.008 263.185 706.243 264.365 704.849 267.718 C 702.393 267.049 702.177 266.746 700.553 264.757 C 699.613 261.386 700.631 259.557 701.832 256.245 z" fill="rgb(3,13,28)" transform="translate(0,0)"></path>
<path d="M 708.329 217.675 C 717.454 207.314 731.804 200.732 745.56 199.921 C 759.735 199.112 773.645 204.01 784.186 213.521 C 800.097 228.107 801.477 247.705 791.481 266.011 L 789.527 268.526 C 783.199 268.602 716.923 225.473 707.563 218.726 L 708.329 217.675 z" fill="rgb(250,208,118)" transform="translate(0,0)"></path>
<path d="M 708.329 217.675 C 717.454 207.314 731.804 200.732 745.56 199.921 C 759.735 199.112 773.645 204.01 784.186 213.521 C 800.097 228.107 801.477 247.705 791.481 266.011 C 790.508 259.316 792.155 249.831 791.329 242.254 C 787.663 208.606 751.815 197.786 724.025 209.103 C 719.708 210.86 711.836 217.465 708.329 217.675 z" fill="rgb(254,253,253)" transform="translate(0,0)"></path>
<path d="M 1436.91 724.181 L 1512.6 724.006 C 1527.93 737.673 1543.88 754.626 1558.78 767.036 C 1532.98 767.935 1501.73 767.07 1475.5 767.062 C 1464.04 755.69 1448.29 736.797 1436.91 724.181 z" fill="rgb(250,208,118)" transform="translate(0,0)"></path>
<path d="M 764.776 845.465 C 777.803 844.963 794.652 845.863 807.721 846.6 C 809.391 864.185 810.668 881.806 811.552 899.448 L 791.154 897.106 C 779.177 896.262 770.442 896.494 758.594 897.003 C 753.399 879.977 747.933 863.035 742.198 846.184 L 764.776 845.465 z" fill="rgb(254,253,253)" transform="translate(0,0)"></path>
<path d="M 1071.01 857.755 C 1074.24 855.72 1073.67 855.35 1076.79 855.627 C 1080.44 859.159 1097.86 877.392 1099.29 880.84 C 1097.43 883.777 1096.8 884.202 1094.21 886.281 C 1087.54 892.038 1045.21 929.011 1040.24 931.43 C 1032.84 937.964 1022.12 948.003 1014.3 953.419 L 1012.94 953.152 L 1010.61 949.345 C 1010.1 947.048 1008.62 940.422 1009.31 938.773 C 1011.39 933.739 1028.13 910.727 1031.47 909.027 L 1030.37 907.476 L 1030.99 904.929 L 1032.32 904.335 C 1038.79 904.158 1043.42 910.676 1049.38 910.807 L 1050.45 909.405 L 1049.67 907.396 C 1044.06 903.455 1036.79 900.899 1030.35 898.308 C 1036.19 898.392 1048.76 903.559 1052.04 901.287 L 1051.56 898.819 L 1048.18 897.282 L 1048.99 895.315 C 1050.34 895.614 1051.92 895.542 1053.32 895.553 L 1054.2 894.129 C 1053.43 889.905 1038.77 889.134 1035.97 887.183 L 1035.81 885.134 C 1039.14 878.384 1062.9 864.432 1071.01 857.755 z" fill="rgb(74,160,157)" transform="translate(0,0)"></path>
<path d="M 1071.01 857.755 C 1074.24 855.72 1073.67 855.35 1076.79 855.627 C 1080.44 859.159 1097.86 877.392 1099.29 880.84 C 1097.43 883.777 1096.8 884.202 1094.21 886.281 C 1086.42 876.819 1078.68 867.31 1071.01 857.755 z" fill="rgb(254,253,253)" transform="translate(0,0)"></path>
<path d="M 1010.61 949.345 C 1018.34 944.596 1030.31 927.579 1037.67 928.19 L 1040.24 931.43 C 1032.84 937.964 1022.12 948.003 1014.3 953.419 L 1012.94 953.152 L 1010.61 949.345 z" fill="rgb(254,253,253)" transform="translate(0,0)"></path>
<path d="M 1031.47 909.027 L 1030.37 907.476 L 1030.99 904.929 L 1032.32 904.335 C 1036.45 906.958 1044.72 911.192 1045.55 916.225 C 1040.96 917.362 1034.9 911.812 1031.47 909.027 z" fill="rgb(3,13,28)" transform="translate(0,0)"></path>
<path d="M 1020.89 787.766 C 1028.42 793.172 1053.2 824.83 1059.24 832.734 C 1046.8 842.465 1031.01 851.894 1017.42 860.397 C 1003.96 850.547 993.668 843.299 979.655 834.335 C 991.39 818.588 1006.93 801.493 1020.89 787.766 z" fill="rgb(254,253,253)" transform="translate(0,0)"></path>
<path d="M 735.13 249.793 C 750.7 251.67 783.579 272.289 786.977 271.701 L 788.288 272.964 C 787.955 278.011 789.142 279.179 791.838 283.865 C 796.659 290.302 805.47 285.879 809.649 292.644 C 816.01 302.94 801.568 312.911 794.724 317.699 C 780.753 327.472 769.491 325.515 753.915 322.185 C 748.407 317.122 739.047 305.4 744.29 297.625 C 773.75 296.106 767.377 252.361 737.923 268.477 C 737.265 261.895 736.283 256.301 735.13 249.793 z" fill="rgb(9,44,65)" transform="translate(0,0)"></path>
<path d="M 152.897 924.226 C 162.903 922.254 173.434 921.04 183.299 918.516 L 186.404 919.259 C 198.52 924.259 215.221 941.73 231.275 948.254 C 236.703 949.8 241.546 950.939 245.87 954.817 C 246.471 955.183 246.53 955.603 246.981 956.386 C 244.345 957.509 152.131 956.766 139.597 956.833 C 143.102 945.917 148.138 934.678 152.897 924.226 z" fill="rgb(74,160,157)" transform="translate(0,0)"></path>
<path d="M 183.299 918.516 L 186.404 919.259 C 198.52 924.259 215.221 941.73 231.275 948.254 C 236.703 949.8 241.546 950.939 245.87 954.817 C 245.184 955.226 244.346 955.677 243.501 955.561 C 222.716 952.709 195.368 951.131 185.387 929.119 C 183.72 925.443 183.094 922.358 183.299 918.516 z" fill="rgb(254,253,253)" transform="translate(0,0)"></path>
<path d="M 186.404 919.259 C 198.52 924.259 215.221 941.73 231.275 948.254 C 207.964 945.469 195.432 943.338 186.404 919.259 z" fill="rgb(74,160,157)" transform="translate(0,0)"></path>
<path d="M 355.363 921.594 C 355.678 921.562 359.453 921.172 359.453 921.172 C 377.58 930.94 392.272 941.909 412.295 948.161 L 418.856 950.292 C 421.507 951.072 422.771 952.601 424.311 954.684 L 424.025 956.288 C 421.799 957.373 325.647 956.903 313.509 957.032 L 321.159 931.055 C 327.89 928.981 344.658 923.698 351.115 923.784 L 355.363 921.594 z" fill="rgb(74,160,157)" transform="translate(0,0)"></path>
<path d="M 355.363 921.594 C 355.678 921.562 359.453 921.172 359.453 921.172 C 377.58 930.94 392.272 941.909 412.295 948.161 L 418.856 950.292 C 415.773 952.425 411.654 952.203 408.04 951.941 C 385.177 950.281 364.411 943.084 351.115 923.784 L 355.363 921.594 z" fill="rgb(254,253,253)" transform="translate(0,0)"></path>
<path d="M 355.363 921.594 C 355.678 921.562 359.453 921.172 359.453 921.172 C 377.58 930.94 392.272 941.909 412.295 948.161 C 392.097 946.846 366.788 939.589 355.363 921.594 z" fill="rgb(74,160,157)" transform="translate(0,0)"></path>
<path d="M 1496.09 693.241 C 1511.07 696.963 1551.29 703.671 1561.86 707.96 C 1563.27 710.203 1562.89 714.986 1562.9 717.88 L 1562.97 763.974 C 1547.87 751.748 1529.57 732.965 1515.34 719.056 L 1496.02 719.299 C 1496.19 710.705 1496.09 701.858 1496.09 693.241 z" fill="rgb(254,253,253)" transform="translate(0,0)"></path>
<path d="M 1515.34 719.056 C 1531.36 718.89 1546.9 718.757 1562.9 717.88 L 1562.97 763.974 C 1547.87 751.748 1529.57 732.965 1515.34 719.056 z" fill="rgb(74,160,157)" transform="translate(0,0)"></path>
<path d="M 755.553 928.878 C 760.209 930.955 770.147 934.94 775.044 936.254 L 775.951 935.56 C 771.91 932.654 767.494 929.732 764.099 926.133 L 764.495 924.831 C 771.51 924.159 800.876 927.105 808.143 928.878 C 809.793 929.473 810.539 929.35 811.058 930.512 C 814.233 937.614 815.265 948.201 815.595 956.031 C 787.652 954.44 758.968 955.999 730.982 955.812 C 722.89 955.758 702.23 956.569 695.53 955.404 C 695.51 952.613 695.518 953.481 697.314 950.726 C 698.393 950.182 699.484 949.66 700.586 949.163 C 706.086 946.615 739.198 937.83 744.35 939.686 L 745.015 936.95 L 746.203 936.517 C 753.789 938.869 756.219 945.338 763.405 945.167 C 766.23 944.11 766.621 943.974 768.367 941.541 C 767.864 935.455 761.748 934.241 755.553 928.878 z" fill="rgb(74,160,157)" transform="translate(0,0)"></path>
<path d="M 808.143 928.878 C 809.793 929.473 810.539 929.35 811.058 930.512 C 814.233 937.614 815.265 948.201 815.595 956.031 C 787.652 954.44 758.968 955.999 730.982 955.812 C 722.89 955.758 702.23 956.569 695.53 955.404 C 695.51 952.613 695.518 953.481 697.314 950.726 C 705.499 952.058 725.771 951.594 735.279 951.682 L 810.041 952.551 C 809.099 946.664 806.194 933.679 808.143 928.878 z" fill="rgb(254,253,253)" transform="translate(0,0)"></path>
<path d="M 744.35 939.686 L 745.015 936.95 L 746.203 936.517 C 749.803 939.794 753.438 943.031 757.108 946.23 C 752.723 944.394 747.948 942.73 744.35 939.686 z" fill="rgb(3,13,28)" transform="translate(0,0)"></path>
<path d="M 404.1 399.07 C 415.981 396.424 424.171 392.982 436.434 392.873 L 440.945 394.513 C 451.88 397.824 469.704 402.359 468.727 416.85 L 468.838 417.651 C 469.475 422.024 472.01 428.616 468.853 432.854 C 467.108 435.197 465.794 434.459 463.626 435.764 L 462.46 435.44 C 457.943 435.218 447.54 424.365 439.707 423.224 C 427.611 421.462 406.835 434.631 397.619 426.17 C 394.872 419.04 401.165 406.226 404.1 399.07 z" fill="rgb(254,253,253)" transform="translate(0,0)"></path>
<path d="M 462.46 435.44 C 458.011 429.605 446.634 421.138 446.005 419.134 L 447.548 417.864 C 450.565 418.372 459.825 425.4 463.237 427.597 C 461.943 423.592 447.903 413.742 443.686 410.531 L 443.629 408.801 L 445.081 408.198 C 457.863 413.102 458.154 417.112 466.633 422.25 C 465.153 416.451 447.133 407.99 444.306 403.732 L 446.005 402.497 C 453.005 402.764 463.964 411.798 468.727 416.85 L 468.838 417.651 C 469.475 422.024 472.01 428.616 468.853 432.854 C 467.108 435.197 465.794 434.459 463.626 435.764 L 462.46 435.44 z" fill="rgb(3,13,28)" transform="translate(0,0)"></path>
<path d="M 436.434 392.873 L 440.945 394.513 C 440.643 396.05 439.111 400.333 438.364 401.662 C 434.566 408.414 442.136 410.826 436.311 416.461 C 430.225 411.421 433.425 398.906 436.434 392.873 z" fill="rgb(74,160,157)" transform="translate(0,0)"></path>
<path d="M 262.162 427.329 C 275.278 435.536 296.922 441.179 312.224 445.729 C 305.684 457.73 301.939 461.339 290.26 468.183 C 275.674 474.862 261.176 474.656 245.58 473.947 C 247.593 460.847 256.778 439.815 262.162 427.329 z" fill="rgb(74,160,157)" transform="translate(0,0)"></path>
<path d="M 445.311 273.655 C 449.85 276.63 452.93 281.134 456.117 285.443 C 456.155 296.045 452.701 364.895 453.882 367.245 C 456.107 368.359 456.855 368.564 458.542 370.326 C 458.484 374.515 452.024 386.861 449.936 391.016 C 449.472 391.939 448.742 391.803 447.417 392.112 C 439.511 388.063 437.654 387.908 428.742 388.502 C 436.394 356.644 447.095 306.42 445.311 273.655 z" fill="rgb(254,253,253)" transform="translate(0,0)"></path>
<path d="M 490.52 309.95 C 537.749 312.295 587.932 323.343 635.384 326.607 C 638.831 326.844 642.021 329.426 643.928 332.189 L 643.58 333.314 C 637.104 333.226 617.911 330.182 610.284 329.23 C 586.766 326.383 563.263 323.417 539.776 320.332 C 531.321 319.452 497.823 314.406 491.78 314.755 C 489.282 326.328 463.983 392.715 456.053 396.11 C 454.416 388.972 485.196 320.567 490.52 309.95 z" fill="rgb(254,253,253)" transform="translate(0,0)"></path>
<path d="M 495.499 156.326 C 499.684 155.457 525.774 168.711 529.837 172.388 C 532.526 174.821 532.272 175.79 531.061 178.439 C 525.203 182.627 514.563 183.07 507.251 183.957 C 500.38 184.375 495.705 184.174 488.837 183.835 C 485.153 181.297 468.727 164.063 463.681 159.399 C 474.284 158.963 485.072 158.269 495.499 156.326 z" fill="rgb(250,208,118)" transform="translate(0,0)"></path>
<path d="M 368.931 217.722 C 370.67 217.755 373.758 217.755 375.002 219.065 C 386.504 231.17 397.633 243.867 408.766 256.315 C 404.601 259.91 400.348 262.996 395.94 266.271 L 381.499 275.929 C 377.036 263.853 361.911 227.804 368.931 217.722 z" fill="rgb(254,253,253)" transform="translate(0,0)"></path>
<path d="M 1612.26 683.601 C 1632.52 681.269 1649.44 684.663 1669.38 688.68 C 1674.21 693.624 1677.17 697.373 1681.42 702.815 C 1672.18 703.04 1655.2 704.492 1647.52 700.677 C 1623.35 694.695 1597.66 690.787 1573.03 686.829 L 1612.26 683.601 z" fill="rgb(254,253,253)" transform="translate(0,0)"></path>
<path d="M 496.078 393.483 C 502.584 392.9 502.091 392.662 505.617 386.919 C 519.16 389.775 526.905 392.9 536.474 403.831 C 520.127 409.144 526.291 414.114 519.044 422.565 C 502.641 419.666 502.874 418.514 494.453 404.051 C 487.177 397.624 484.91 404.139 474.652 395.449 L 484.946 397.397 C 490.21 398.353 492.778 399.28 496.911 396.417 L 496.078 393.483 z" fill="rgb(254,253,253)" transform="translate(0,0)"></path>
<path d="M 744.854 828.546 C 765.169 827.573 785.524 827.838 805.807 829.34 C 806.359 832.695 807.626 837.658 806.277 840.551 C 803.034 842.331 802.335 841.542 797.951 841.244 C 779.34 840.482 759.182 841.107 740.594 841.662 C 739.401 838.421 737.074 833.39 737.619 830.28 C 740.248 828.009 740.502 828.758 744.854 828.546 z" fill="rgb(254,253,253)" transform="translate(0,0)"></path>
<path d="M 671.384 218.46 C 680.899 217.833 690.958 218.812 700.509 219.497 C 708.946 225.559 730.831 239.541 736.816 245.067 L 736.143 246.011 L 733.759 245.68 C 721.216 241.964 669.095 235.187 665.24 221.751 C 667.694 218.931 667.31 219.698 671.384 218.46 z" fill="rgb(250,208,118)" transform="translate(0,0)"></path>
<path d="M 349.914 446.665 C 347.949 445.739 338.633 444.59 336.003 444.193 C 322.114 442.097 271.624 433.296 264.485 420.834 L 265.003 420.272 C 268.236 419.585 274.806 421.081 278.066 422.232 C 302.638 430.912 328.952 432.159 354.83 434.847 C 353.281 438.086 350.451 443.346 349.914 446.665 z" fill="rgb(9,44,65)" transform="translate(0,0)"></path>
<path d="M 1102.98 884.703 C 1105.21 886.032 1106.8 887.518 1107.35 890.015 C 1103.63 894.543 1085.76 908.906 1080.37 913.462 C 1060.59 930.35 1040.64 947.047 1020.54 963.551 L 1017.94 963.682 L 1016.98 962.037 L 1016.67 962.685 C 1016.99 959.743 1017.15 958.953 1019.38 956.783 C 1045.07 931.739 1078.27 910.403 1102.98 884.703 z" fill="rgb(254,253,253)" transform="translate(0,0)"></path>
<path d="M 1530.59 692.013 C 1537.71 691.518 1555.2 689.993 1561.65 690.535 C 1584.96 692.495 1611.9 698.07 1635.12 702.433 C 1615.33 703.857 1585.44 703.457 1565.48 702.338 C 1559.2 701.986 1540.52 696.445 1531.53 695.276 L 1530.59 692.013 z" fill="rgb(254,253,253)" transform="translate(0,0)"></path>
<path d="M 390.685 147.31 C 399.573 149.034 408.868 151.612 417.742 152.691 C 430.299 154.216 442.777 154.718 455.399 156.272 C 443.273 158.753 431.186 161.421 419.143 164.275 C 415.715 159.921 414.269 158.499 410.082 154.845 C 408.226 154.554 405.664 154.597 403.902 155.263 C 387.373 161.507 396.052 184.266 400.053 195.009 C 380.632 181.012 380.446 167.881 390.685 147.31 z" fill="rgb(9,44,65)" transform="translate(0,0)"></path>
<path d="M 1009.92 775.81 C 1011.98 777.642 1015.56 781.592 1017.61 783.718 C 1003.55 797.373 987.296 816.536 975.272 831.973 C 972.391 830.15 969.444 828.122 966.593 826.225 C 978.712 808.684 995.3 791.123 1009.92 775.81 z" fill="rgb(254,253,253)" transform="translate(0,0)"></path>
<path d="M 137.488 961.296 C 166.498 960.774 195.63 961.275 224.65 961 C 232.505 960.925 240.478 960.87 248.314 961.369 C 250.417 963.148 249.843 963.491 250.305 966.842 C 238.278 966.896 141.794 968.124 138.188 966.018 L 137.488 961.296 z" fill="rgb(254,253,253)" transform="translate(0,0)"></path>
<path d="M 690.953 961.258 C 712.133 958.776 787.58 961.986 814.116 961.218 C 815.246 961.185 816.329 964.455 816.956 965.896 C 810.159 967.095 694.612 966.283 692.249 965.363 L 690.953 961.258 z" fill="rgb(254,253,253)" transform="translate(0,0)"></path>
<path d="M 354.83 434.847 C 366.165 435.953 387.051 439.191 397.482 434.327 C 399.977 433.163 404.118 434.156 406.862 434.499 L 401.688 448.833 C 384.405 448.968 367.126 448.244 349.914 446.665 C 350.451 443.346 353.281 438.086 354.83 434.847 z" fill="rgb(74,160,157)" transform="translate(0,0)"></path>
<path d="M 313.082 961.49 C 325.595 961.323 423.57 960.07 427.001 962.496 L 427.426 966.589 C 393.127 966.903 358.822 966.83 324.523 966.759 C 321.043 966.752 315.282 967.216 312.854 965.006 L 313.082 961.49 z" fill="rgb(254,253,253)" transform="translate(0,0)"></path>
<path d="M 760.39 902.103 C 771.462 901.996 801.665 901.244 810.73 905.317 C 812.461 907.663 812.064 911.929 812.105 915.098 C 803.419 913.97 767.766 911.832 763.4 910.755 C 761.255 908.633 760.983 905.153 760.39 902.103 z" fill="rgb(74,160,157)" transform="translate(0,0)"></path>
<path d="M 391.085 391.907 L 401.096 394.891 C 397.591 401.601 395.658 407.589 393.617 414.859 C 392.724 418.043 391.908 425.774 389.767 427.45 C 386.738 427.858 383.706 428.247 380.671 428.616 L 379.562 427.272 C 378.349 417.705 385.202 399.777 391.085 391.907 z" fill="rgb(254,253,253)" transform="translate(0,0)"></path>
<path d="M 546.737 308.24 C 551.213 307.321 551.922 306.301 554.772 302.775 C 559.909 301.714 576.894 305.865 583.045 306.845 C 587.313 312.379 588.715 313.588 594.097 317.946 C 577.539 315.432 559.169 313.54 543.139 310.811 L 546.737 308.24 z" fill="rgb(74,160,157)" transform="translate(0,0)"></path>
<path d="M 423.641 244.738 L 424.139 245.297 C 429.915 251.911 426.513 274.003 425.758 283.315 L 421.194 276.735 C 417.647 271.592 413.579 266.548 409.732 261.607 C 415.627 256.77 419.451 250.974 423.641 244.738 z" fill="rgb(254,253,253)" transform="translate(0,0)"></path>
<path d="M 1061.96 837.021 C 1063.72 838.864 1063.92 838.928 1064.19 841.343 C 1060.64 847.801 1033.68 864.935 1026.25 869.452 C 1023.78 867.635 1023.28 867.344 1021.68 864.76 C 1025.94 860.173 1054.79 842.038 1061.96 837.021 z" fill="rgb(254,253,253)" transform="translate(0,0)"></path>
<path d="M 1003.61 769.665 L 1005.61 771.628 C 1005.97 774.924 998.4 781.853 995.692 784.698 C 983.633 797.363 972.512 810.41 962.062 824.423 C 959.624 821.631 959.673 822.555 959.548 819.475 C 967.956 806.674 992.379 781.054 1003.61 769.665 z" fill="rgb(254,253,253)" transform="translate(0,0)"></path>
<path d="M 439.906 428.333 C 445.372 430.664 443.418 434.734 441.637 439.375 C 437.05 451.336 431.437 463.067 426.111 474.733 C 423.038 473.955 423.028 474.526 421.599 472.355 C 425.662 459.777 434.172 440.548 439.906 428.333 z" fill="rgb(254,253,253)" transform="translate(0,0)"></path>
<path d="M 306.836 238.869 C 319.418 239.696 329.971 263.814 325.917 272.632 L 325.121 270.592 C 318.931 257.455 311.665 249.6 298.854 242.78 C 301.145 241.502 304.399 240.042 306.836 238.869 z" fill="rgb(254,253,253)" transform="translate(0,0)"></path>
<path d="M 1067.41 846.71 C 1069.99 847.339 1070.17 848.516 1070.4 850.665 C 1067.18 856.042 1042.01 872.37 1035.2 877.027 C 1033.68 876.096 1032.8 875.126 1031.53 873.893 C 1032.12 872.28 1063.16 850.302 1067.41 846.71 z" fill="rgb(254,253,253)" transform="translate(0,0)"></path>
<path d="M 758.7 820.449 C 766.857 820.253 799.67 818.55 804.873 822.313 L 804.823 823.807 C 801.138 825.707 789.489 824.357 784.762 824.048 C 779.177 824.03 736.109 824.396 735.092 823.884 C 739.198 820.028 752.409 820.656 758.7 820.449 z" fill="rgb(254,253,253)" transform="translate(0,0)"></path>
<path d="M 788.288 272.964 C 798.199 283.797 808.373 273.121 817.746 287.431 C 822.771 295.103 821.074 308.125 811.47 310.393 C 813.405 306.38 815.507 304.263 816.044 299.746 C 817.63 286.395 802.694 280.591 791.838 283.865 C 789.142 279.179 787.955 278.011 788.288 272.964 z" fill="rgb(254,253,253)" transform="translate(0,0)"></path>
<path d="M 763.215 915.312 C 773.027 914.879 802.134 916.841 811.937 920.07 C 812.562 920.276 812.9 922.092 813.193 923.014 C 813.023 923.107 812.86 923.213 812.684 923.294 C 808.63 925.15 770.004 920.599 765.184 918.757 C 764.267 918.406 763.643 916.242 763.215 915.312 z" fill="rgb(254,253,253)" transform="translate(0,0)"></path>
<path d="M 746.479 322.133 C 746.972 322.444 748.607 324.007 749.143 324.495 C 748.651 329.339 734.921 343.379 730.829 348.088 C 729.537 347.492 729.449 346.971 728.535 345.688 C 729.357 340.259 742.237 326.91 746.479 322.133 z" fill="rgb(254,253,253)" transform="translate(0,0)"></path>
<path d="M 543.139 310.811 C 539.264 310.556 531.499 310.555 528.53 308.434 L 530.058 307.268 C 535.564 306.05 541.117 307.369 546.737 308.24 L 543.139 310.811 z" fill="rgb(74,160,157)" transform="translate(0,0)"></path>
<path d="M 496.911 396.417 C 492.728 393.869 482.771 392.784 477.128 391.432 L 476.483 390.15 L 478.24 389.498 C 482.202 390.136 493.536 391.471 496.078 393.483 L 496.911 396.417 z" fill="rgb(193,213,211)" transform="translate(0,0)"></path>
<path d="M 482.776 385.519 C 488.752 384.967 495.483 383.162 499.869 387.564 C 493.762 388.199 488.511 387.889 482.776 385.519 z" fill="rgb(193,213,211)" transform="translate(0,0)"></path>
<path d="M 1048.18 897.282 C 1044.13 896.599 1041.34 896.41 1037.84 894.293 L 1037.69 893.258 C 1041.39 892.529 1045.32 894.164 1048.99 895.315 L 1048.18 897.282 z" fill="rgb(254,253,253)" transform="translate(0,0)"></path>
<path d="M 1515.6 692.613 C 1520.77 692.204 1525.44 692.107 1530.59 692.013 L 1531.53 695.276 L 1515.6 692.613 z" fill="rgb(254,253,253)" transform="translate(0,0)"></path>
<path d="M 1068.59 147.458 C 1081.74 147.313 1096.36 147.871 1109.62 148.09 C 1111.11 160.949 1112.36 173.834 1113.37 186.741 C 1137.12 190.97 1149.63 197.378 1169.8 209.144 C 1180.24 201.91 1191.61 194.709 1202.29 187.721 C 1211.82 196.632 1220.42 206.052 1229.24 215.639 C 1220.82 225.496 1212.58 235.063 1204.6 245.289 C 1215.92 261.18 1222.99 284.355 1225.66 303.556 C 1234.08 303.639 1264.79 299.395 1266.3 308.722 C 1274.59 359.671 1259.74 349.831 1225.49 349.994 C 1220.32 372.926 1213.76 385.321 1201.76 404.813 C 1209.91 414.26 1219.09 426.659 1226.75 436.605 C 1219.51 444.551 1205.89 456.648 1197.69 464.382 C 1189.43 458.706 1173.51 444.256 1165.28 437.15 C 1143.95 449.176 1131.79 454.044 1107.5 458.942 C 1106.65 465.957 1103.19 494.524 1099.48 498.742 C 1052.61 497.898 1059.98 506.876 1053.46 458.107 C 1029.08 452.657 1020.21 447.523 998.947 435.651 C 988.716 442.71 978.632 451.618 968.855 459.499 C 958.703 448.842 948.915 438.603 939.272 427.489 C 946.28 419.956 958.072 409.494 965.916 401.78 C 953.654 380.144 946.274 366.967 941.694 342.119 C 930.627 340.233 913.053 338.957 901.433 337.752 C 901.72 324.96 902.576 311.481 903.042 298.581 L 943.075 295.909 C 947.362 272.468 954.14 259.408 967.351 239.922 C 960.03 232.048 949.738 218.024 942.375 209.054 C 952.518 199.567 963.867 189.844 974.306 180.572 C 983.167 187.664 994.968 199.497 1003.56 207.558 C 1025.03 194.26 1038.94 190.49 1063.04 185.515 C 1064.11 179.046 1066.61 150.77 1068.59 147.458 z" fill="rgb(3,13,28)" transform="translate(0,0)"></path>
<path d="M 1072.35 152.815 L 1104.9 153.131 C 1106.35 165.724 1107.45 178.355 1108.19 191.01 C 1134.05 195.3 1148.55 202.115 1170.17 215.717 C 1180.41 208.27 1190.83 201.079 1201.43 194.15 C 1208.15 200.716 1215.49 208.951 1221.98 215.894 C 1213.52 226.186 1205.97 235.286 1196.89 245.024 C 1210.13 259.68 1218.8 289.133 1220.75 308.4 L 1262.35 308.897 L 1261.87 344.357 L 1220.84 344.728 C 1216.51 368.196 1209.15 384.705 1195.13 403.763 C 1202.2 414.133 1211.96 426.117 1219.81 436.202 C 1212.39 443.04 1205.04 450.066 1197.69 456.997 C 1187.4 449.473 1175.11 438.489 1165.17 430.015 C 1141.17 445.444 1131.2 448.748 1103.31 454.276 C 1101.55 461.98 1098.45 486.512 1096.19 492.263 L 1094.18 493.064 L 1063.79 493.06 L 1058.63 453.475 C 1035.37 449.337 1018.08 441.853 999.007 428.328 L 969.775 452.224 C 961.254 443.76 954.605 436.501 946.671 427.476 L 973.699 401.934 C 957.92 380.912 951.168 362.701 946.615 337.217 C 933.463 335.575 920.14 334.479 906.862 332.814 L 908.198 303.182 C 921.293 302.745 934.385 302.231 947.474 301.641 C 951.851 275.472 958.352 261.354 974.119 240.291 L 949.76 209.605 C 957.475 202.292 966.256 194.656 974.194 187.476 C 982.91 194.684 995.193 208.422 1003.18 213.988 C 1027.67 199.24 1039.89 194.849 1068.08 190.684 C 1069.95 179.734 1071.28 164.042 1072.35 152.815 z" fill="rgb(254,253,253)" transform="translate(0,0)"></path>
<path d="M 1076.57 157.415 L 1100.87 157.946 C 1102.35 169.313 1102.85 182.646 1104.11 194.451 C 1130.78 198.363 1148.19 207.243 1170.52 221.134 C 1180.52 214.059 1190.45 206.885 1200.3 199.614 C 1206.25 205.496 1210.56 210.03 1215.99 216.379 C 1209.55 225.292 1199.31 236.523 1191.91 244.871 C 1208.4 268.769 1212.88 284.073 1217.37 312.188 C 1230.3 313.196 1245.23 312.776 1258.26 312.623 L 1258.04 340.59 C 1244.64 340.439 1231.24 340.496 1217.84 340.76 C 1213.07 362.285 1205.02 386.792 1188.6 402.28 C 1196.91 413.117 1205.27 424.885 1213.38 435.943 C 1208.17 440.614 1202.26 446.787 1197.21 451.8 C 1186.71 443.447 1175.98 433.597 1165.86 424.617 C 1143.56 438.306 1125.6 447.713 1098.85 450.33 C 1097.06 462.948 1094.96 475.712 1092.99 488.32 L 1067.28 488.049 C 1066.85 477.916 1064.15 460.921 1062.74 450.393 C 1038.66 445.183 1019.2 438.407 999.949 422.956 C 991.659 428.542 978.442 439.873 970.29 446.519 C 964.049 440.706 958.351 434.192 952.63 427.856 C 961.546 419.554 970.213 411.525 978.769 402.839 C 962.992 381.305 954.283 359.621 950.548 333.255 C 937.421 331.774 924.754 330.224 911.546 329.624 L 912.67 307.008 C 925.185 306.651 937.694 306.095 950.191 305.341 C 957.883 274.487 961.349 265.104 979.861 240.043 L 955.558 210.385 L 974.576 193.248 C 983.016 200.594 995.245 214.4 1002.89 219.899 C 1023.77 205.117 1047.1 197.523 1072.31 194.752 C 1073.59 182.29 1075.01 169.843 1076.57 157.415 z" fill="rgb(74,160,157)" transform="translate(0,0)"></path>
<path d="M 1082.08 214.101 C 1141.75 213.132 1190.9 260.722 1191.85 320.387 C 1192.81 380.052 1145.2 429.189 1085.54 430.128 C 1025.89 431.067 976.778 383.485 975.825 323.841 C 974.871 264.197 1022.44 215.069 1082.08 214.101 z" fill="rgb(254,253,253)" transform="translate(0,0)"></path>
<path d="M 1080.5 229.381 C 1123.33 227.045 1164.97 255.974 1177 297.352 C 1183.65 320.376 1180.82 345.103 1169.14 366.029 C 1157.09 387.703 1136.92 403.705 1113.08 410.521 C 1087.11 417.92 1057.59 415.432 1033.88 402.194 C 1012.36 390.066 996.442 369.992 989.542 346.273 C 983.52 324.851 985.773 300.352 996.625 280.78 C 1000.57 273.672 1014.21 253.928 1021.8 251.801 L 1023.23 252.662 C 1022.73 257.525 1012.25 266.922 1007.86 272.354 C 988.063 301.277 984.891 334.447 1003.13 365.144 C 1015.54 385.93 1035.74 400.891 1059.24 406.691 C 1107.82 418.829 1161.41 392.203 1173.27 341.946 C 1178.49 319.697 1174.55 296.284 1162.35 276.962 C 1140.63 242.235 1094.93 226.143 1056.22 238.678 C 1051.77 240.12 1042 244.468 1037.69 243.473 L 1038.05 242.027 C 1049.73 232.363 1066.01 230.617 1080.5 229.381 z" fill="rgb(3,13,28)" transform="translate(0,0)"></path>
<path d="M 1078.26 293.704 C 1093.18 290.348 1108.01 299.686 1111.43 314.594 C 1114.85 329.502 1105.57 344.369 1090.68 347.851 C 1075.7 351.354 1060.72 342.01 1057.28 327.013 C 1053.84 312.016 1063.25 297.08 1078.26 293.704 z" fill="rgb(3,16,35)" transform="translate(0,0)"></path>
<path d="M 1079.39 299.121 C 1090.64 298.539 1101.52 301.496 1106.37 312.767 C 1108.54 317.717 1108.62 323.336 1106.6 328.348 C 1103.37 336.347 1097.72 339.383 1090.25 342.453 C 1061.52 346.665 1047.07 309.751 1079.39 299.121 z" fill="rgb(254,253,253)" transform="translate(0,0)"></path>
<metadata><recraft-signature>{"signed_by": "recraft", "signature_b64": "uKODHp9fsImY0z9s+KduoBeQR8P9i7X9Z/zLwq6IOWGBodjUJOP0yEHGupOlIR8FVuITh48r5oN437P2lmM2AQ==", "signing_algo": "Ed25519", "generation_timestamp": 1777312831, "identifier": "9a0e2ee9-5733-4404-903d-2a5926f3eeea"}</recraft-signature></metadata></svg>