<svg xmlns="http://www.w3.org/2000/svg" height="1024" preserveAspectRatio="none" style="display: block;" version="1.1" viewBox="0 0 2048 1024" width="2048">
<path d="M 0 0 L 2048 0 L 2048 1024 L 0 1024 L 0 0 z" fill="rgb(254,254,253)" transform="translate(0,0)"></path>
<path d="M 1218.24 132.148 C 1214.72 127.737 1211.78 124.296 1210.89 118.108 C 1208.95 104.731 1227.78 104.523 1236.06 100.311 C 1239.22 98.7042 1243.62 85.7813 1245.9 82.5935 C 1254.33 70.4417 1272.96 66.2768 1286.58 69.0888 C 1297.22 71.3346 1306.56 77.6757 1312.57 86.7439 C 1318.31 95.4994 1319.14 102.281 1319.32 112.231 C 1325.62 116.57 1353.14 132.376 1348.55 140.656 C 1343.06 143.185 1334.49 139.993 1329.08 137.992 C 1320.88 135.001 1312.76 131.752 1304.76 128.249 C 1296.05 148.815 1286.31 157.064 1263.95 159.27 C 1305.54 180.829 1334 185.052 1380.6 187.576 C 1388.8 182.311 1404.79 178.563 1414.62 173.967 C 1410.45 166.061 1405.11 158.239 1400.2 150.722 C 1409.77 144.364 1439.95 132.531 1451.29 127.829 C 1457.49 138.246 1463.8 148.602 1470.2 158.897 C 1485.13 155.564 1494.37 154.251 1509.78 154.037 C 1511.56 142.183 1513.11 130.297 1514.45 118.385 C 1530.64 119.106 1554.01 120.237 1569.29 124.617 L 1562.91 160.982 C 1576.31 164.84 1589.64 169.685 1601.7 176.804 C 1608.21 169.819 1619.94 156.17 1626.27 150.275 C 1635.38 156.977 1661.72 175.927 1669.64 183.21 C 1660.33 192.547 1650.89 201.761 1641.34 210.85 C 1650.96 222.075 1656.19 229.686 1662.21 243.375 C 1673.91 241.42 1688.66 239.622 1700.56 238.54 L 1709.78 286.879 C 1697.22 289.272 1684.07 291.976 1671.41 293.563 C 1671.86 306.664 1671.33 316.81 1668.46 329.661 L 1704.32 344.076 C 1698.44 358.485 1689.79 375.155 1682.62 389.059 C 1671.7 384.546 1655.77 377.577 1644.83 374.069 C 1638.41 384.078 1628.7 394.212 1619.24 401.379 C 1624.96 412.569 1633.38 424.563 1638.34 434.953 C 1623.76 442.51 1607.06 450.904 1592 457.16 L 1571.73 426.001 C 1561.39 428.812 1546.82 432.146 1536.13 433.353 C 1535.06 445.953 1534.08 457.621 1532.3 470.142 C 1514.4 468.523 1495.16 468.998 1478.18 467.357 C 1478.36 455.318 1478.71 442.866 1478.69 430.861 C 1467.56 428.739 1456.53 424.56 1445.76 420.855 C 1437.74 429.57 1428.3 440.306 1419.91 448.324 C 1408.01 440.161 1386.85 427.176 1376.95 418.865 C 1384.13 409.638 1393.48 398.845 1401.47 390.146 C 1391.38 379.718 1385.6 373.383 1377.48 361.246 C 1364.57 364.801 1351.25 368.279 1338.52 372.371 C 1333.37 358.337 1326.92 341.451 1323.07 327.025 C 1336.09 323.069 1349.9 317.349 1362.16 313.844 C 1360.05 300.048 1360.39 289.741 1363.06 276.059 C 1351.31 273.665 1336.2 270.962 1324.9 267.92 C 1330.1 251.491 1333.96 239.843 1343.11 224.817 C 1327.23 229.735 1301.17 240.168 1285.74 231.954 C 1284.03 231.046 1282.36 230.04 1280.76 228.941 C 1253.91 230.438 1236.31 230.69 1209.84 224.406 C 1197.65 229.389 1189.59 231.842 1176.65 234.366 C 1167.37 242.452 1152.67 251.894 1147.06 262.523 C 1145.37 265.73 1154.34 276.455 1156.65 279.197 C 1177.75 304.28 1211.59 330.187 1207.92 366.447 C 1203.18 413.338 1180.43 456.019 1165.1 499.838 C 1182.81 510.557 1196.53 505.951 1196.84 528.161 L 1597.24 527.388 L 1729.79 527.422 C 1750.93 527.442 1772.48 527.379 1793.65 527.64 C 1796.35 527.673 1798.8 528.533 1800.8 530.423 C 1804.89 543.189 1779.85 550.011 1780.19 567.565 C 1780.41 578.382 1778.73 586.44 1790.79 594.033 C 1802.01 600.203 1811.94 607.364 1794.5 615.525 L 1795 616.191 C 1796.71 618.473 1797.25 619.086 1797.24 622.035 C 1795.11 627.887 1788.84 627.175 1786.84 629.703 C 1774.38 645.474 1777.37 674.728 1785.72 691.916 C 1791.92 693.101 1798.89 693.382 1798.11 701.79 C 1793.2 710.672 1759.85 706.515 1749.27 707.186 C 1762.79 711.746 1773.67 717.086 1780.53 730.77 C 1785.37 740.253 1786.13 751.295 1782.65 761.353 C 1777.47 775.969 1765.99 782.356 1753.01 788.538 L 1798.28 788.55 C 1806.59 788.555 1831.9 785.991 1833.81 796.044 C 1831.29 802.73 1826.4 802.306 1820.14 803.095 C 1810.54 817.044 1809.26 832.158 1812.29 848.523 C 1813.42 854.474 1815.21 860.284 1817.6 865.849 C 1822.69 868.528 1824.09 869.152 1827.29 874.013 C 1853.69 874.129 1879.99 873.972 1906.48 874.036 C 1916.44 874.572 1927.73 879.665 1916.58 889.709 C 1914.16 891.893 1905.62 891.375 1905.29 891.615 C 1886.25 905.552 1887.81 941.786 1904.08 956.884 C 1914.55 956.647 1918.95 955.783 1921.45 967.822 C 1935.21 971.126 1981.19 966.688 1987.78 970.014 L 1987.83 971.724 C 1982.62 976.28 1961.33 974.544 1953.48 974.504 L 1892.16 974.192 L 1701 974.265 L 586.085 974.454 L 232.773 974.305 L 114.827 974.241 C 106.032 974.222 63.6049 975.657 59.5411 972.797 L 59.7916 971.019 C 65.3897 967.062 85.9695 968.762 94.207 968.816 L 153.088 968.842 C 144.595 957.251 132.777 939.276 125.08 926.782 C 168.391 901.757 205.198 864.067 245.957 833.804 C 257.027 802.122 261.806 771.472 272.27 739.701 C 278.761 719.992 285.192 708.668 294.857 690.466 C 308.916 663.988 326.723 625.541 354.291 611.446 C 364.029 606.467 373.131 605.887 383.668 605.698 L 389.166 601.208 C 387.679 598.017 378.676 576.239 378.286 573.675 C 373.018 546.054 385.236 539.162 408.289 530.447 C 423.097 527.953 432.747 531.739 443.284 542.441 C 455.41 539.301 473.698 535.34 485.821 540.429 L 486.939 542.156 C 484.191 551.518 453.639 557.472 451.026 562.802 C 452.063 578.379 460.813 591.916 448.368 606.536 C 446.446 608.794 443.318 611.516 440.46 611.066 C 433.472 609.964 419.83 607.535 419.051 619.016 C 424.058 624.337 454.837 637.162 462.23 643.78 C 469.328 650.135 476.28 644.984 483.021 647.817 C 485.951 651.025 485.948 653.598 486.713 658.181 C 515.829 657.141 548.259 651.596 577.408 647.273 C 583.762 642.482 586.746 637.676 592.517 632.783 C 594.476 631.122 599.844 632.84 601.114 630.531 C 606.616 620.523 612.093 606.076 616.422 595.655 L 647.327 521.875 C 652.01 510.828 658.58 494.028 663.788 483.865 C 670.356 484.022 679.123 483.965 685.503 484.452 C 677.403 503.174 669.218 523.344 660.9 541.82 L 749.483 541.666 C 754.398 533.679 769.587 495.278 773.114 484.943 C 780.004 485.049 789.153 484.915 795.852 485.371 C 790.852 497.153 785.956 508.98 781.167 520.849 L 862.494 487.275 C 872.056 483.332 905.661 467.28 914.663 470.28 C 921.213 476.934 931.71 506.316 936.634 516.766 C 940.925 501.589 953.193 483.539 962.421 470.553 C 981.007 444.396 996.507 416.464 1013.98 389.79 C 1009.66 358.625 1009.36 299.537 1019.41 270.298 C 1042.23 203.917 1126.33 141.064 1195.87 132.94 C 1204.1 131.979 1210.14 131.158 1218.24 132.148 z" fill="rgb(3,27,49)" transform="translate(0,0)"></path>
<path d="M 378.286 573.675 C 373.018 546.054 385.236 539.162 408.289 530.447 C 412.332 532.047 414.173 532.774 418.399 533.646 L 408.954 534.614 C 408.772 535.9 408.64 537.522 408.22 538.698 C 419.439 541.902 423.71 544.014 431.595 553.257 C 453.206 544.856 457.4 542.604 480.609 543.094 C 469.685 548.368 388.513 576.619 384.208 575.35 L 383.187 573.737 L 378.286 573.675 z" fill="rgb(249,196,102)" transform="translate(0,0)"></path>
<path d="M 378.286 573.675 C 373.018 546.054 385.236 539.162 408.289 530.447 C 412.332 532.047 414.173 532.774 418.399 533.646 L 408.954 534.614 C 408.772 535.9 408.64 537.522 408.22 538.698 C 384.804 538.587 380.742 553.735 383.187 573.737 L 378.286 573.675 z" fill="rgb(3,27,49)" transform="translate(0,0)"></path>
<path d="M 418.399 533.646 C 424.558 537.377 433.711 536.41 436.649 544.926 L 435.598 546.199 C 431.139 546.513 422.854 539.492 418.2 537.781 C 415.168 536.665 412.008 535.646 408.954 534.614 L 418.399 533.646 z" fill="rgb(249,196,102)" transform="translate(0,0)"></path>
<path d="M 1519.05 123.897 C 1531.17 123.885 1551.16 126.045 1563.1 128.373 C 1561.06 140.203 1559.26 152.401 1557.37 164.284 C 1575.96 170.024 1585.89 173.77 1602.85 183.089 L 1627.36 157.466 C 1638.59 166.502 1650.43 173.817 1661.5 183.676 L 1634.3 210.322 C 1646.98 226.45 1650.84 228.469 1658.47 248.972 L 1696.13 243.961 L 1703.63 282.448 C 1691.83 285.129 1677.91 287.348 1665.85 289.527 C 1666.26 304.554 1666.06 318.143 1661.69 332.607 C 1672.62 337.505 1685.76 342.393 1697.03 346.851 C 1692.71 357.494 1685.31 372.014 1679.86 382.147 C 1667.7 377.377 1655.28 371.955 1643.21 366.853 C 1632.1 382.494 1626.43 388.689 1611.45 400.442 C 1618.2 410.988 1624.7 422.211 1631.5 432.948 C 1619.37 438.074 1606.26 444.833 1594.33 450.712 C 1587.21 440.042 1580.83 430.522 1574.48 419.378 C 1559.11 424.472 1546.3 426.363 1530.5 428.251 C 1530.26 434.283 1529.65 461.429 1526.08 464.299 C 1512.53 464.026 1497.35 462.873 1483.7 462.12 C 1484.17 450.37 1484.13 438.269 1484.24 426.488 C 1468.32 423.125 1458.99 419.926 1444.09 414.148 C 1435.67 423.264 1427.8 431.75 1419.92 441.345 C 1408.12 433.718 1396.41 425.965 1384.79 418.088 C 1393.48 407.617 1399.99 399.607 1409.41 389.668 C 1395.12 376.038 1390.56 371.408 1379.57 354.825 C 1366.86 358.249 1354.23 361.967 1341.69 365.975 C 1337.64 354.377 1333.76 342.47 1329.83 330.807 C 1342.88 326.591 1355.76 321.872 1368.45 316.663 C 1364.01 301.024 1365.82 287.332 1368.86 271.793 C 1357.45 268.921 1343.79 266.57 1332.05 264.29 C 1335.96 250.344 1340.78 240.19 1347.9 227.716 C 1358.83 229.192 1369.75 230.798 1380.64 232.534 C 1390.87 213.089 1408.36 193.698 1427.46 182.598 C 1420.86 175.171 1412.52 161.126 1407.1 152.304 C 1418.77 148.176 1436.8 139.596 1448.38 134.462 C 1455 144.393 1461.5 154.701 1467.97 164.747 C 1483.11 160.525 1498.99 159.586 1514.6 159.121 C 1516.78 147.786 1517.83 135.434 1519.05 123.897 z" fill="rgb(4,156,155)" transform="translate(0,0)"></path>
<path d="M 1500.53 192.323 C 1527.94 188.616 1568.28 199.279 1589.04 217.098 C 1667.56 284.483 1622.56 382.216 1527.93 394.647 C 1498.23 396.77 1462.52 389.98 1439.45 370.54 C 1360.31 303.843 1406.66 205.399 1500.53 192.323 z" fill="rgb(254,254,253)" transform="translate(0,0)"></path>
<path d="M 1500.95 204.361 C 1550.53 198.001 1607.01 228.4 1615.25 280.684 C 1624.13 337.071 1580.88 374.764 1528.85 383.365 C 1476.41 389.837 1419.69 358.248 1412.73 302.841 C 1410.21 281.074 1416.44 259.199 1430.05 242.026 C 1447.66 219.664 1473.13 207.761 1500.95 204.361 z" fill="rgb(3,27,49)" transform="translate(0,0)"></path>
<path d="M 1506.35 208.376 C 1631.65 202.167 1653.65 363.066 1524.36 379.189 C 1475.3 381.462 1422.48 354.129 1417.22 301.063 C 1415.22 279.997 1421.68 258.999 1435.18 242.7 C 1453.41 220.735 1478.61 210.937 1506.35 208.376 z" fill="rgb(254,254,253)" transform="translate(0,0)"></path>
<path d="M 1500.57 212.344 C 1617.99 200.44 1653.12 348.708 1530.76 374.65 C 1530.15 374.746 1529.55 374.837 1528.94 374.923 C 1481.64 381.612 1428.29 353.166 1421.5 302.841 C 1419.04 283.267 1424.38 263.51 1436.38 247.849 C 1452.44 226.768 1474.72 215.816 1500.57 212.344 z" fill="rgb(3,27,49)" transform="translate(0,0)"></path>
<path d="M 1503.22 217.352 C 1567.42 208.256 1630.5 272.219 1589.61 333.675 C 1575.6 354.724 1551.31 365.772 1526.81 369.872 C 1482.23 373.188 1433.35 351.298 1426.71 302.836 C 1424.31 284.231 1429.32 265.431 1440.64 250.48 C 1456.35 230.081 1478.26 220.559 1503.22 217.352 z" fill="rgb(4,156,155)" transform="translate(0,0)"></path>
<path d="M 1509.8 271.235 C 1544.65 268.833 1556.85 310.225 1517.67 319.103 C 1503.31 319.655 1488.66 314.704 1485.22 298.957 C 1484.01 293.573 1485.08 287.93 1488.19 283.368 C 1493.28 275.802 1501.26 272.821 1509.8 271.235 z" fill="rgb(254,254,253)" transform="translate(0,0)"></path>
<path d="M 775.154 534.655 C 792.475 576.139 809.206 625.354 825.496 667.769 L 940.452 968.323 C 919.707 969.774 892.881 969.069 871.55 969.078 L 753.216 968.96 L 587.793 969.004 L 775.154 534.655 z" fill="rgb(254,254,253)" transform="translate(0,0)"></path>
<path d="M 581.363 665.802 L 582.35 665.678 C 584.189 667.145 582.619 669.669 581.44 672.176 C 557.857 722.327 537.151 773.56 514.791 824.262 L 477.874 908.96 C 470.178 926.484 462.391 943.974 454.998 961.626 C 453.978 964.06 453.894 966.193 454.39 968.747 C 433.418 970.436 391.284 969.02 368.759 968.951 L 365.424 957.112 C 358.072 952.882 346.067 949.928 337.599 947.565 L 345.912 941.266 C 384.087 911.7 415.136 883.298 396.608 833.164 C 391.705 819.897 386.376 799.872 382.695 786.059 C 378.692 771.285 376.013 756.184 374.688 740.935 C 381.766 726.284 394.608 707.616 403.819 693.546 C 409.478 696.967 415.468 704.076 418.204 704.789 C 421.497 705.647 433.835 704.591 438.864 704.906 C 498.699 708.656 531.26 692.043 581.363 665.802 z" fill="rgb(254,254,253)" transform="translate(0,0)"></path>
<path d="M 1066.96 207.26 C 1091.36 212.93 1110.85 211.169 1134.37 202.5 C 1140.37 200.289 1146.28 198.527 1151.79 195.109 C 1152.71 194.541 1153.62 193.94 1154.5 193.307 C 1157.08 193.836 1156.23 193.598 1158.39 195.709 C 1155.16 201.993 1135.72 207.127 1128.71 210.31 C 1123.74 212.564 1115.97 210.735 1112.46 213.282 C 1113.95 219.24 1129.21 224.753 1134.63 227.185 C 1145.13 231.89 1157.65 232.786 1168.99 233.886 C 1159.5 241.408 1119.65 273.302 1121.69 284.704 L 1123.31 286.553 L 1124.97 286.383 C 1129.82 276.146 1135.01 279.249 1145.16 273.449 C 1168.66 302.056 1207.94 331.802 1202.37 369.774 C 1196.18 411.998 1175.83 457.925 1160.01 497.269 L 1136.18 497.686 C 1137.74 455.39 1142 413.237 1148.93 371.483 C 1153.72 371.146 1159.4 371.048 1162.81 367.267 L 1162.93 365.409 C 1159.97 365.602 1147.23 367.018 1145.78 366.202 C 1129.4 356.997 1106.14 338.729 1091.63 327.729 C 1094.19 314.114 1095.97 304.152 1100.96 290.921 C 1103.74 283.581 1117.51 265.698 1116.64 260.817 L 1115.2 260.318 C 1104.56 266.74 1093.58 293.998 1090.13 306.306 C 1082.46 333.686 1085.31 367.62 1078.77 394.599 C 1072.41 420.832 1026.81 457.389 1008.22 475.844 C 997.408 486.58 977.721 504.174 965.743 511.988 C 958.241 510.268 952.975 508.847 945.667 506.454 C 969.311 468.047 994.703 433.522 1017.5 393.764 C 1018.96 392.846 1019.41 392.21 1020.62 390.982 C 1013.95 376.101 1017.14 315.907 1018.91 297.928 C 1022.15 264.979 1042.02 229.572 1066.96 207.26 z" fill="rgb(4,156,155)" transform="translate(0,0)"></path>
<path d="M 1020.62 390.982 C 1023.54 390.753 1025.32 390.297 1027.92 391.567 L 1028.38 393.32 C 1024.26 396.265 1022.34 394.945 1017.5 393.764 C 1018.96 392.846 1019.41 392.21 1020.62 390.982 z" fill="rgb(3,27,49)" transform="translate(0,0)"></path>
<path d="M 1063.01 243.178 C 1065.48 243.57 1083.21 256.03 1093.08 259.86 C 1091.01 263.339 1088.38 266.766 1085.97 270.049 C 1077.3 274.831 1065.98 273.963 1061.52 263.938 C 1058.15 256.35 1060.1 250.631 1063.01 243.178 z" fill="rgb(3,27,49)" transform="translate(0,0)"></path>
<path d="M 1065.63 250.642 C 1069.21 253.106 1082.87 261.398 1084.62 263.197 L 1083.43 265.986 C 1070.54 271.547 1063.15 264.429 1065.63 250.642 z" fill="rgb(4,156,155)" transform="translate(0,0)"></path>
<path d="M 1016.01 396.436 C 1019.71 396.836 1024.29 400.949 1027.83 403.103 C 1032.64 406.032 1038.25 406.758 1040.63 411.341 C 1030.59 413.796 1019.69 405.651 1016.01 396.436 z" fill="rgb(3,27,49)" transform="translate(0,0)"></path>
<path d="M 1151.66 374.934 C 1152.64 375.193 1158.86 378.444 1160.01 379.195 C 1165.48 382.77 1170.44 379.428 1175.58 381.583 L 1175.28 384.674 C 1167.97 386.39 1150.7 385.308 1151.66 374.934 z" fill="rgb(3,27,49)" transform="translate(0,0)"></path>
<path d="M 908.602 473.875 L 910.96 474.271 C 921.038 482.622 1079 873.898 1092.83 908.976 C 1076.9 914.97 1061.04 921.147 1045.25 927.507 C 1042.92 928.605 1042.59 928.748 1040.02 928.808 C 1037.9 925.539 1029.55 903.043 1027.39 897.657 L 996.059 820.527 C 965.007 742.546 933.305 664.826 900.957 587.373 C 888.756 558.036 875.298 521.219 862.235 493.363 C 877.803 487.137 893.261 480.641 908.602 473.875 z" fill="rgb(4,156,155)" transform="translate(0,0)"></path>
<path d="M 929.463 672.052 C 932.56 677.595 937.391 690.41 940.085 697.036 L 961.082 749.283 C 985.311 808.519 1011.49 871.722 1034.16 931.323 C 1007.65 943.064 977.418 954.358 950.22 965.325 L 947.573 966.485 C 944.53 964.339 927.839 918.122 925.271 911.417 L 846.886 707.37 C 872.262 697.873 902.995 682.684 929.463 672.052 z" fill="rgb(249,196,102)" transform="translate(0,0)"></path>
<path d="M 1258.83 547.026 C 1277.95 546.37 1299.57 546.823 1318.99 546.779 L 1441.8 546.758 L 1782.82 546.634 C 1779.07 552.146 1778.01 554.193 1775.29 560.228 L 1655.33 560.409 C 1638.72 560.454 1620.93 560.343 1604.22 560.654 C 1601.84 560.698 1601.39 561.532 1600.36 562.986 L 1601.62 564.608 C 1608.89 567.761 1752.11 563.326 1774.02 565.499 C 1775.18 568.467 1774.14 571.639 1773.54 574.945 L 1773.46 576.245 C 1770.28 577.485 1756.39 576.743 1749.62 576.841 C 1714.37 577.356 1677.9 576.121 1642.81 577.392 C 1641.27 577.448 1640.4 579.332 1639.94 580.45 C 1643.23 583.133 1678.05 581.875 1684.71 581.885 L 1775.2 581.903 C 1777.31 588.036 1779.14 591.39 1783.06 596.485 C 1753.57 597.622 1718.96 596.889 1689.16 596.869 L 1535.58 596.993 L 1361.63 596.783 C 1328.73 596.817 1295.68 596.927 1262.78 596.865 C 1259.21 596.858 1257 596.191 1253.8 594.689 C 1247.52 591.674 1242.7 586.279 1240.4 579.699 C 1234.94 564.206 1244.2 551.805 1258.83 547.026 z" fill="rgb(254,254,253)" transform="translate(0,0)"></path>
<path d="M 1530.72 711.471 C 1566.64 709.954 1614.57 711.067 1651.58 710.836 L 1703.84 710.674 C 1726.67 710.686 1739.62 708.254 1758.74 723.179 L 1711.71 723.628 C 1704.25 723.63 1684.02 721.925 1679.99 726.515 L 1681.04 728.123 C 1688.36 730.294 1751.82 728.475 1763.86 728.393 C 1767.15 733.665 1768.62 737.224 1771.06 742.875 C 1756.54 742.861 1704.97 741.117 1694.44 744.963 L 1694.74 746.84 L 1693.16 746.082 C 1704.25 751.167 1765.8 744.536 1770.61 749.371 C 1771.39 753.574 1769.95 757.561 1768.85 761.712 C 1757.69 764.514 1722.11 758.261 1711.3 764.555 L 1711.82 765.675 C 1719.34 768.331 1756.1 767.199 1765.72 767.143 C 1755.01 777.804 1744.63 785.125 1728.97 785.708 C 1709.63 786.543 1690.19 786.079 1670.83 786.236 C 1653.67 786.635 1636.22 785.857 1619.09 786.294 C 1600.57 786.765 1582.88 784.049 1564.52 783.45 C 1538.8 782.61 1512.69 785.754 1487.14 781.549 C 1476.6 779.814 1468.57 777.389 1460.37 770.026 C 1448.16 759.524 1445.23 741.78 1457.18 729.878 C 1475.3 711.83 1507.07 712.357 1530.72 711.471 z" fill="rgb(254,254,253)" transform="translate(0,0)"></path>
<path d="M 1213.05 707.687 C 1228.27 706.72 1248.24 707.139 1263.78 707.169 L 1345.53 707.231 L 1458.21 707.169 C 1474.59 707.204 1493.97 706.612 1509.97 707.282 C 1503.47 708.653 1497.06 709.05 1490.45 709.624 L 1481.18 711.449 C 1468.2 715.062 1455.85 719.663 1448.71 732.258 C 1444.48 739.657 1443.44 748.457 1445.83 756.637 C 1450.73 773.963 1466.78 782.011 1482.81 786.341 L 1490.51 787.259 L 1490.98 788.469 C 1488.61 788.815 1486.52 789.09 1484.13 789.318 C 1478.36 788.777 1466.65 788.974 1460.43 788.88 C 1432.3 789.823 1399.96 789.089 1371.46 789.053 L 1213.19 789.013 L 1213.05 707.687 z" fill="rgb(249,196,102)" transform="translate(0,0)"></path>
<path d="M 1213.05 707.687 C 1228.27 706.72 1248.24 707.139 1263.78 707.169 L 1345.53 707.231 L 1458.21 707.169 C 1474.59 707.204 1493.97 706.612 1509.97 707.282 C 1503.47 708.653 1497.06 709.05 1490.45 709.624 L 1481.18 711.449 L 1481.99 708.167 L 1303.69 708.064 C 1277.71 708.075 1237.7 709.418 1213.05 707.687 z" fill="rgb(109,113,90)" transform="translate(0,0)"></path>
<path d="M 1481.99 708.167 C 1484.91 708.155 1488.81 707.666 1491.03 708.931 L 1490.45 709.624 L 1481.18 711.449 L 1481.99 708.167 z" fill="rgb(230,197,115)" transform="translate(0,0)"></path>
<path d="M 1482.81 786.341 L 1490.51 787.259 L 1490.98 788.469 C 1488.61 788.815 1486.52 789.09 1484.13 789.318 C 1478.36 788.777 1466.65 788.974 1460.43 788.88 C 1467.27 786.804 1477.44 789.415 1482.81 786.341 z" fill="rgb(230,197,115)" transform="translate(0,0)"></path>
<path d="M 1480.43 882.491 L 1489.31 882.55 C 1487.85 885.566 1486.51 888.638 1485.3 891.757 C 1473.79 921.027 1477.21 940.803 1489.34 968.654 C 1416.97 969.145 1344.61 969.214 1272.25 968.859 C 1270.03 968.999 1264.82 969.5 1263.17 968.349 C 1255.61 963.059 1252.77 954.787 1251 946.479 C 1246.18 923.811 1250.02 902.312 1262.57 882.897 C 1334.38 881.645 1408.3 882.959 1480.43 882.491 z" fill="rgb(4,156,155)" transform="translate(0,0)"></path>
<path d="M 1609.42 891.481 C 1634.21 890 1669.37 891.35 1695 891.313 L 1895.43 891.35 C 1891.15 898.152 1888.13 905.673 1886.53 913.55 C 1883.42 929.386 1886.73 943.713 1895.6 957.002 L 1695.5 957.084 C 1668.29 957.02 1629.9 958.445 1602.45 955.851 C 1598.77 955.503 1591.68 948.771 1588.64 945.873 C 1598.91 945.831 1621.2 947.543 1629.03 943.88 L 1629.42 942.375 C 1624.02 939.283 1594.15 940.727 1586.24 940.845 C 1584.96 936.699 1583.87 931.362 1582.87 927.054 C 1597.83 927.02 1641.06 929.54 1652.12 924.618 L 1652.01 922.996 L 1652.99 923.62 C 1648.11 921.05 1592.49 921.912 1583.34 921.913 L 1586.03 909.38 C 1611.2 909.236 1636.85 909.291 1662.04 908.701 C 1665.11 908.629 1665.25 908.797 1666.72 907.106 C 1659.7 900.903 1606.09 905.407 1591.11 903.628 L 1590.82 902.572 L 1591.23 901.956 C 1595.69 895.501 1601.9 892.852 1609.42 891.481 z" fill="rgb(254,254,253)" transform="translate(0,0)"></path>
<path d="M 1091.21 334.475 C 1109.11 347.572 1124.21 359.47 1143.28 371.462 C 1138.87 392 1125.55 513.959 1131.05 527.858 L 1027.5 528.838 C 1021.3 528.837 1001.34 530.326 994.141 528.691 C 994.277 528.722 991.533 524.023 991.44 523.966 C 985.494 520.33 978.353 516.933 972.076 514.254 C 973.848 512.967 977.641 509.949 979.535 508.205 C 1010.9 479.31 1065.58 438.2 1083.07 399.946 C 1086.55 392.351 1090.37 343.995 1091.21 334.475 z" fill="rgb(254,254,253)" transform="translate(0,0)"></path>
<path d="M 1552.39 627.158 C 1626.46 625.403 1706.35 627.201 1780.94 627.171 C 1769.1 651.414 1771.69 667.933 1779.25 692.845 L 1765.72 692.889 L 1551.24 693.075 C 1543.75 688.48 1539.67 685.123 1535.61 676.84 C 1531.09 667.422 1530.48 656.602 1533.89 646.732 C 1537.56 636.131 1542.93 631.66 1552.39 627.158 z" fill="rgb(254,254,253)" transform="translate(0,0)"></path>
<path d="M 1199.45 794.866 L 1386.15 794.789 L 1386.29 848.804 C 1386.31 855.625 1386.72 870.533 1385.75 876.835 L 1199.59 876.786 L 1199.45 794.866 z" fill="rgb(249,196,102)" transform="translate(0,0)"></path>
<path d="M 1599.46 803.166 C 1669.6 801.825 1742.2 803.101 1812.67 802.647 L 1812.4 803.183 C 1801.11 826.452 1803.54 844.244 1811.4 868.006 L 1797.69 868.011 L 1661.46 867.977 C 1647.33 867.971 1611.52 869.317 1598.69 866.778 C 1577.71 862.626 1570.93 821.381 1589.73 808.91 C 1593.14 806.643 1595.36 805.175 1599.46 803.166 z" fill="rgb(254,254,253)" transform="translate(0,0)"></path>
<path d="M 403.754 673.416 L 406.984 675.097 C 407.431 676.932 407.884 678.194 406.568 679.929 C 394.574 695.741 352.38 761.944 356.849 778.581 L 358.086 778.953 C 362.297 775.093 367.116 757.415 370.233 750.141 C 382.205 850.702 440.624 865.94 333.438 943.531 L 317.943 935.908 C 322.433 926.49 326.972 917.096 331.56 907.726 C 353.827 860.004 347.155 864.244 318.966 825.441 C 313.587 818.021 308.83 810.169 304.743 801.966 C 289.174 770.456 286.438 743.024 297.577 710.035 C 308.414 715.116 313.001 716.371 324.793 718.589 C 320.41 726.519 306.362 757.281 310.586 765.259 L 312.988 765.531 C 315.22 763.487 316.326 756.548 317.103 753.101 C 320.181 739.429 323.491 731.903 330.217 719.702 C 370.359 724.755 383.287 702.529 403.754 673.416 z" fill="rgb(4,156,155)" transform="translate(0,0)"></path>
<path d="M 1191.1 616.912 L 1334.02 616.875 L 1333.95 701.958 L 1191.45 702.01 L 1191.1 616.912 z" fill="rgb(4,156,155)" transform="translate(0,0)"></path>
<path d="M 315.124 829.753 C 321.045 834.999 330.717 849.628 335.48 856.194 C 344.546 868.694 334.867 888.522 329.153 900.866 C 321.696 916.977 312.531 933.559 304.281 949.385 C 302.898 952.061 300.662 963.492 299.679 967.255 C 296.878 969.808 279.093 968.978 274.347 968.969 C 247.397 968.918 220.45 968.951 193.5 969.006 C 174.18 969.545 183.913 968.052 172.563 960.013 L 171.872 959.531 C 170.132 950.826 169.692 947.048 168.994 937.973 C 176.242 930.232 189.367 926.415 198.815 921.555 C 247.647 896.434 293.556 884.789 315.124 829.753 z" fill="rgb(254,254,253)" transform="translate(0,0)"></path>
<path d="M 1089.05 882.434 L 1228.99 882.752 C 1218.7 903.784 1214.77 923.536 1220.06 946.98 C 1221.51 953.386 1224.85 960.635 1226.75 967.479 L 1225.94 968.64 L 1220.25 968.821 L 1107.33 968.835 C 1105.43 967.756 1103.55 966.65 1101.69 965.516 C 1086.35 956.161 1083.23 947.855 1079.26 931.535 C 1084.74 929.734 1088.69 928.069 1093.94 925.799 C 1092.56 915.666 1091.35 916.129 1099.64 909.969 C 1096.87 903.433 1090.32 888.612 1089.05 882.434 z" fill="rgb(4,156,155)" transform="translate(0,0)"></path>
<path d="M 1249.21 533.354 C 1280.95 532.395 1317.11 533.158 1349.19 533.132 L 1540.18 533.023 L 1710.17 533.062 C 1736.28 533.055 1762.51 532.798 1788.63 532.77 C 1792.34 532.766 1793.96 533.058 1796.2 535.433 C 1793.09 543.62 1748.75 540.956 1739.33 540.925 L 1658.56 540.989 L 1369.4 541.025 L 1297.81 541.014 C 1274.07 541.029 1233.7 535.373 1233.31 570.564 C 1233.25 579.218 1236.72 587.524 1242.9 593.575 C 1250.91 601.472 1258.45 602.511 1268.89 602.565 L 1632.95 602.276 L 1737.43 602.251 C 1752.85 602.227 1782.49 601.389 1796.54 603.178 C 1798.19 606.006 1797.89 604.736 1797.71 607.971 C 1794.62 610.947 1786.29 610.908 1782.05 610.924 C 1741.35 611.075 1700.65 610.994 1659.95 610.977 L 1436.16 611.075 C 1411.47 611.077 1257.12 613.246 1246.15 609.464 C 1236.89 606.266 1228.85 597.742 1224.84 588.986 C 1220.32 579.139 1219.9 567.898 1223.68 557.743 C 1228.49 544.976 1237.44 538.656 1249.21 533.354 z" fill="rgb(249,196,102)" transform="translate(0,0)"></path>
<path d="M 1170.57 143.3 C 1171.63 143.86 1185.81 155.192 1187.56 156.51 C 1213.05 175.756 1227.2 188.956 1257.56 199.351 C 1277.93 206.326 1332.4 200.349 1342.85 206.318 L 1342.61 208.578 C 1341.77 209.647 1340.34 211.06 1339.11 211.621 C 1306.5 226.459 1246.62 228.065 1213.53 219.472 C 1191.81 212.035 1173.13 201.758 1156.17 186.429 C 1152.91 183.481 1147.45 176.533 1143.93 175.183 L 1142.38 175.982 C 1142.37 180.848 1148.07 185.83 1151.53 189.599 C 1125.03 203.627 1100.78 207.603 1071.41 203.453 C 1095.15 177.464 1136.89 153.197 1170.57 143.3 z" fill="rgb(254,254,253)" transform="translate(0,0)"></path>
<path d="M 1016.03 534.466 C 1037.7 534.133 1059.38 533.941 1081.06 533.889 C 1062.01 559.797 1062.3 586.47 1083.41 611.171 L 1039.75 611.136 L 978.018 610.804 C 970.982 597.03 962.567 576.435 956.988 561.796 C 959.612 549.497 961.99 544.777 969.737 535.375 C 984.181 534.595 1001.43 534.719 1016.03 534.466 z" fill="rgb(249,196,102)" transform="translate(0,0)"></path>
<path d="M 1425 616.881 L 1532.3 616.838 C 1512.52 639.285 1509.1 664.932 1522.59 691.614 C 1524.67 694.789 1528.44 699.038 1530.95 702.053 L 1425.02 701.931 L 1425 616.881 z" fill="rgb(4,156,155)" transform="translate(0,0)"></path>
<path d="M 394.84 614.986 C 410.916 619.501 454.165 644.949 469.597 654.024 C 468.255 663.121 463.977 675.991 461.004 684.893 C 436.725 681.397 411.397 672.092 389.544 660.91 C 385.815 659.003 378.77 656.099 374.734 656.024 L 374.324 657.152 C 377.168 661.691 391.849 667.686 397.444 671.52 L 397.112 672.986 C 370.363 713.104 357.284 722.977 308.809 709.757 C 323.565 678.436 362.066 629.128 394.84 614.986 z" fill="rgb(254,254,253)" transform="translate(0,0)"></path>
<path d="M 1034.74 616.774 L 1110.94 616.762 C 1110.67 638.579 1111.03 660.403 1110.97 682.221 C 1110.95 688.412 1111.28 694.621 1110.36 700.765 C 1107.4 702.519 1105.91 701.881 1101.93 701.948 L 1032.78 702.141 C 1021.15 675.062 1020.91 643.158 1034.74 616.774 z" fill="rgb(4,156,155)" transform="translate(0,0)"></path>
<path d="M 855.876 496.013 L 857.184 496.471 C 859.914 500.599 866.085 516.743 868.172 521.927 L 887.897 571.064 C 862.817 582.559 835.206 593.665 809.568 605.061 C 809.447 605.025 809.316 605.012 809.205 604.952 C 806.549 603.497 781.762 535.784 778.326 527.453 L 855.876 496.013 z" fill="rgb(249,196,102)" transform="translate(0,0)"></path>
<path d="M 1086.34 708.057 C 1103.89 707.006 1133.08 707.807 1151.43 707.796 C 1151.27 734.911 1151.33 762.028 1151.61 789.142 L 1124.5 789.1 C 1113.86 788.966 1089.26 791.013 1080.45 787.647 C 1053.06 777.182 1050.24 731.774 1073.27 714.917 C 1077.98 711.467 1080.97 710.223 1086.34 708.057 z" fill="rgb(249,196,102)" transform="translate(0,0)"></path>
<path d="M 1141.11 533.331 C 1172.7 533.547 1204.29 533.559 1235.88 533.366 C 1232.76 535.858 1228.65 539.465 1226.15 542.502 C 1218.23 552.158 1214.44 564.554 1215.61 576.991 C 1217.09 591.41 1223.6 600.572 1234.32 609.406 L 1235.3 610.188 L 1234.64 610.943 L 1144.89 611.401 C 1118.02 592.038 1120.45 556.331 1141.11 533.331 z" fill="rgb(249,196,102)" transform="translate(0,0)"></path>
<path d="M 1054.12 795.14 L 1150.06 794.879 L 1150.1 876.778 L 1086.44 876.853 C 1076.07 849.412 1064 823.274 1054.12 795.14 z" fill="rgb(249,196,102)" transform="translate(0,0)"></path>
<path d="M 1491.19 794.743 C 1520.09 794.514 1549 794.522 1577.9 794.77 C 1557.15 816.158 1554.34 842.82 1570.46 867.866 C 1572.91 870.91 1576.02 874.095 1578.71 876.992 L 1491.35 876.803 L 1491.19 794.743 z" fill="rgb(249,196,102)" transform="translate(0,0)"></path>
<path d="M 502.584 904.493 C 532.833 904.435 563.082 904.544 593.33 904.82 C 588.705 915.138 566.4 961.849 567.247 969.106 L 474.951 968.817 C 482.347 949.371 493.881 923.573 502.584 904.493 z" fill="rgb(254,254,253)" transform="translate(0,0)"></path>
<path d="M 593.944 692.966 C 623.651 692.449 654.631 692.909 684.437 692.924 C 676.303 710.1 666.854 734.616 659.041 752.84 C 628.716 753.16 598.388 753.193 568.061 752.937 C 575.775 733.267 585.391 712.42 593.944 692.966 z" fill="rgb(254,254,253)" transform="translate(0,0)"></path>
<path d="M 641.856 763.491 L 654.43 763.447 C 645.914 783.541 637.211 803.555 628.32 823.487 L 551.5 823.716 L 537.426 823.706 C 546.54 804.147 553.59 783.189 563.656 763.885 C 588.785 763.093 616.562 763.55 641.856 763.491 z" fill="rgb(254,254,253)" transform="translate(0,0)"></path>
<path d="M 534.042 834.478 C 561.282 833.167 596.657 834.209 624.216 834.302 C 615.449 853.992 606.171 874.16 598.146 894.111 L 507.31 894.05 C 510.548 886.323 530.287 836.699 534.042 834.478 z" fill="rgb(254,254,253)" transform="translate(0,0)"></path>
<path d="M 656.75 552.223 C 686.366 551.942 715.985 551.932 745.601 552.193 L 719.25 612.048 C 690.402 612.052 660.434 611.685 631.683 612.421 C 637.754 595.132 649.086 568.997 656.75 552.223 z" fill="rgb(254,254,253)" transform="translate(0,0)"></path>
<path d="M 777.47 490.305 C 781.341 490.279 783.322 489.551 786.034 491.391 C 787.546 497.545 778.891 510.454 776.153 517.35 C 754.893 570.905 731.318 623.582 708.408 676.449 C 667.383 773.698 625.373 870.528 582.385 966.925 C 578.41 966.84 575.911 967.029 573.181 964.652 C 573.588 961.467 587.061 932.111 589.35 926.967 L 626.337 843.209 L 715.381 635.52 C 735.847 588.006 758.822 538.232 777.47 490.305 z" fill="rgb(254,254,253)" transform="translate(0,0)"></path>
<path d="M 657.043 622.787 L 715.006 622.828 L 689.128 682.702 C 659.019 682.121 628.903 682.043 598.791 682.47 C 603.737 670.125 613.148 652.623 621.172 641.786 C 625.525 635.908 651.934 637.936 658.251 630.975 C 658.971 628.134 658.872 627.355 657.048 624.65 L 657.043 622.787 z" fill="rgb(254,254,253)" transform="translate(0,0)"></path>
<path d="M 1523.22 882.752 L 1583.55 882.741 C 1581.87 884.108 1580.27 885.469 1578.75 887.028 C 1568.61 897.391 1563.06 911.395 1563.35 925.892 C 1563.53 941.979 1569.33 954.33 1580.67 965.339 L 1583.11 967.595 L 1582.97 968.556 C 1565.59 969.583 1541.11 968.68 1523.22 968.552 C 1506.78 935.645 1506.79 915.913 1523.22 882.752 z" fill="rgb(4,156,155)" transform="translate(0,0)"></path>
<path d="M 1825.13 879.453 C 1849.49 876.889 1881.56 880.636 1906.59 879.224 C 1910.12 879.025 1914.34 879.968 1914.96 883.884 C 1910.66 887.541 1893.53 885.967 1887.11 885.956 L 1837.3 885.863 L 1678 885.324 C 1654.52 885.264 1629.52 884.269 1606.3 886.429 C 1589.55 887.987 1578 909.83 1577.55 925.159 C 1577.23 935.62 1581.23 945.752 1588.61 953.173 C 1600.38 965.174 1614.19 962.771 1629.3 962.743 L 1674.79 962.71 L 1837.5 962.817 C 1854.73 962.869 1901.75 960.729 1914.98 964.753 L 1914.32 967.629 C 1904.45 969.236 1884.32 968.783 1873.51 968.812 L 1802.04 968.857 L 1648.94 968.632 C 1635.24 968.627 1621.48 969.577 1607.79 969.395 C 1603.82 969.342 1599.43 969.287 1595.68 967.87 C 1585.83 964.148 1577.44 955.262 1573.35 945.697 C 1568.08 933.384 1567.4 919.018 1572.45 906.537 C 1576.52 896.458 1584.53 886.889 1595 883.156 C 1607.12 878.835 1630.35 881.197 1643.64 881.192 C 1662.51 881.186 1816.39 883.571 1824.53 879.763 C 1824.73 879.667 1824.93 879.556 1825.13 879.453 z" fill="rgb(4,156,155)" transform="translate(0,0)"></path>
<path d="M 1156.86 707.851 C 1173.77 708.014 1190.84 707.854 1207.76 707.809 L 1207.81 788.953 C 1190.84 788.869 1173.87 788.875 1156.91 788.973 L 1156.86 707.851 z" fill="rgb(254,254,253)" transform="translate(0,0)"></path>
<path d="M 597.206 661.644 C 599.938 663.241 599.23 662.341 600.265 664.902 C 597.595 673.588 585.459 699.083 581.319 708.422 L 549.775 781.401 L 498.457 899.467 C 489.36 920.658 480.616 942.101 471.184 963.143 C 469.345 967.246 468.01 966.885 463.739 968.434 L 460.729 965.893 C 459.811 960.673 467.862 946.91 470.088 941.654 C 486.592 902.604 503.411 863.688 520.545 824.91 C 542.227 775.329 563.304 725.313 585.231 675.811 C 589.422 666.349 588.981 664.739 597.206 661.644 z" fill="rgb(254,254,253)" transform="translate(0,0)"></path>
<path d="M 1155.78 794.872 L 1193.97 794.661 L 1194.2 876.887 L 1155.64 876.789 L 1155.78 794.872 z" fill="rgb(254,254,253)" transform="translate(0,0)"></path>
<path d="M 1448.4 794.894 L 1485.84 794.855 C 1485.91 819.693 1486.9 852.789 1485.61 877.017 L 1448.28 876.976 C 1448.52 849.616 1448.56 822.255 1448.4 794.894 z" fill="rgb(254,254,253)" transform="translate(0,0)"></path>
<path d="M 1391.92 794.908 L 1426.96 794.825 L 1426.9 876.865 L 1391.79 876.882 L 1391.92 794.908 z" fill="rgb(254,254,253)" transform="translate(0,0)"></path>
<path d="M 902.391 609.931 C 905.826 611.417 913.978 633.056 916.058 637.949 L 836.26 672.481 L 835.362 672.754 C 831.811 670.167 825.03 649.471 823.006 643.87 C 845.947 632.725 878.304 620.188 902.391 609.931 z" fill="rgb(249,196,102)" transform="translate(0,0)"></path>
<path d="M 889.476 576.072 C 892.609 580.708 899.461 598.235 901.886 604.222 C 876.452 616.367 847.486 627.378 821.413 639.242 C 819.73 636.874 811.617 614.201 809.94 609.835 C 818.119 607.47 828.764 602.279 836.662 598.915 C 854.194 591.446 871.724 582.89 889.476 576.072 z" fill="rgb(254,254,253)" transform="translate(0,0)"></path>
<path d="M 1540.75 617.052 C 1550.34 618.905 1567.34 617.145 1574.96 617.995 C 1601.71 620.981 1777.76 613.816 1789.48 620.174 C 1785 623.441 1729.63 622.03 1720.25 622.014 L 1599.57 621.862 C 1593.67 621.853 1552.65 621.206 1548.89 622.928 C 1518.95 636.623 1518.33 684.297 1550.89 698.232 C 1569.64 698.006 1786.85 696.601 1792.65 699.17 L 1792.64 700.454 C 1792.08 700.826 1791.4 701.283 1790.59 701.826 C 1772.34 702.12 1749.1 701.952 1731.39 701.927 L 1539.47 701.845 C 1510.57 677.721 1514.84 640.984 1540.75 617.052 z" fill="rgb(254,254,253)" transform="translate(0,0)"></path>
<path d="M 1590.08 794.473 C 1611.55 793.497 1820.83 792.774 1827.53 795.167 L 1827.5 796.495 C 1826.97 796.912 1826.32 797.421 1825.56 798.021 C 1813.94 798.149 1798.85 798.073 1787.68 798.062 L 1651.36 798 C 1645.25 798.007 1638.78 797.733 1632.71 798.031 C 1611.22 799.087 1589.67 792.854 1577.86 815.985 C 1572.79 826.142 1571.98 837.901 1575.61 848.658 C 1579.5 860.271 1586.14 866.377 1596.64 871.704 C 1605.48 873.495 1634.29 872.962 1644.95 872.954 L 1760.13 872.814 C 1773.98 872.806 1808.87 872.087 1820.39 874.105 L 1820.13 874.435 C 1808.72 877.19 1774.22 876.131 1760.07 876.135 L 1655.64 876.194 C 1634.48 876.211 1609.78 875.52 1589.06 877.338 C 1580.65 872.088 1574.76 866.334 1570.42 857.216 C 1564.71 844.981 1564.02 830.992 1568.52 818.258 C 1572.66 806.56 1579.15 799.737 1590.08 794.473 z" fill="rgb(249,196,102)" transform="translate(0,0)"></path>
<path d="M 1391.42 616.993 L 1419.2 617.042 C 1419.49 645.353 1419.44 673.666 1419.07 701.976 L 1391.12 701.904 L 1391.42 616.993 z" fill="rgb(254,254,253)" transform="translate(0,0)"></path>
<path d="M 916.897 643.062 C 920.206 646.323 925.767 661.631 927.803 666.82 C 901.634 677.246 872.89 690.582 846.507 701.806 L 845.55 701.648 C 843.11 698.201 837.921 683.467 836.116 678.684 C 862.784 665.973 890.235 655.489 916.897 643.062 z" fill="rgb(254,254,253)" transform="translate(0,0)"></path>
<path d="M 1339.78 617.018 L 1364.65 616.954 C 1364.83 645.263 1364.75 673.572 1364.41 701.88 C 1358.26 702.344 1346.35 701.943 1339.77 701.931 L 1339.78 617.018 z" fill="rgb(254,254,253)" transform="translate(0,0)"></path>
<path d="M 1246.72 157.47 C 1250.68 158.439 1278.95 173.102 1289.96 176.961 C 1307.87 183.339 1326.47 187.599 1345.37 189.655 C 1353.31 190.579 1376.23 190.787 1380.34 196.493 L 1379.81 198.864 C 1377.72 199.553 1376.31 199.1 1373.94 198.165 C 1367.41 195.588 1357.38 197.784 1350.23 198.845 C 1348.09 200.114 1341.07 199.466 1338.3 199.281 C 1305.48 197.093 1278.31 201.902 1247.03 190.06 C 1248.05 190.199 1249.07 190.314 1250.09 190.405 C 1255.57 190.877 1271.33 192.369 1274.94 189.302 L 1274.25 188.204 C 1268.53 186.097 1249.86 185.859 1242.7 185.57 C 1246.94 174.93 1249.16 168.921 1246.72 157.47 z" fill="rgb(254,254,253)" transform="translate(0,0)"></path>
<path d="M 1071.51 933.93 L 1072.15 933.946 C 1076.08 936.337 1075.98 956.77 1097.15 968.901 L 998.421 968.808 C 989.563 969.092 980.698 969.12 971.839 968.892 C 1004.39 956.787 1037.97 946.406 1071.51 933.93 z" fill="rgb(254,254,253)" transform="translate(0,0)"></path>
<path d="M 980.428 616.382 L 1027.71 616.347 C 1017.18 643.278 1015.02 670.346 1024.81 697.702 C 1025.56 699.127 1025.45 699.649 1025.48 701.23 C 1022.79 702.867 1018.37 701.8 1015 701.383 C 1008.78 687.614 1002.75 672.019 996.954 657.936 C 992.507 647.131 983.343 627.336 980.428 616.382 z" fill="rgb(254,254,253)" transform="translate(0,0)"></path>
<path d="M 1017.5 707.254 L 1073.45 707.537 C 1048.34 726.261 1046.54 752.626 1060.98 778.702 C 1063.82 782.78 1067.47 786.025 1071.05 789.468 L 1051.2 789.698 C 1039.68 762.791 1028.86 734.499 1017.5 707.254 z" fill="rgb(254,254,253)" transform="translate(0,0)"></path>
<path d="M 486.861 663.591 C 517.585 661.531 552.657 658.532 582.163 649.981 C 588.584 648.12 591.686 632.949 604.537 636.071 C 602.135 637.975 600.114 639.256 598.565 641.88 L 599.498 643.003 L 602.969 642.906 L 604.421 644.514 C 606.088 647.477 608.293 646.078 610.48 648.878 C 608.203 651.404 603.868 651.557 600.143 653.033 C 602.9 653.313 604.163 653.282 606.748 654.398 C 603.378 658.865 586.879 659.142 580.599 660.905 C 548.35 669.956 516.183 681.372 482.779 685.184 C 484.875 677.342 485.696 671.665 486.861 663.591 z" fill="rgb(254,254,253)" transform="translate(0,0)"></path>
<path d="M 1289.2 143.72 C 1276.85 156.547 1249.3 160.362 1245.26 139.049 L 1244.11 138.349 L 1242.18 140.253 C 1241.23 144.301 1243.67 147.938 1245.6 151.637 L 1243.47 152.038 C 1238.89 150.003 1235.14 148.853 1232.11 153.978 C 1234.5 158.068 1236.39 154.872 1239.06 157.943 C 1234.5 166.942 1223.14 171.286 1219.63 157.677 C 1215.53 141.735 1233.32 140.716 1241.95 130.722 C 1247.65 124.12 1245.43 116.958 1254.5 115.147 C 1257.62 116.425 1256.54 115.605 1258.6 118.249 C 1258.88 121.532 1258.35 122.216 1256.86 125.024 L 1254.99 125.359 L 1253.85 123.973 L 1254.74 120.546 L 1254.05 119.837 L 1252.37 121.015 C 1251.31 124.001 1251.11 124.441 1251.99 127.446 C 1255.58 129.658 1253.7 125.843 1256.94 125.783 C 1268.2 125.576 1279.35 123.309 1290.75 122.711 L 1299.65 127.335 C 1296.58 133.87 1295.56 136.162 1291.12 141.88 L 1289.2 143.72 z" fill="rgb(254,254,253)" transform="translate(0,0)"></path>
<path d="M 1289.2 143.72 C 1282.67 142.821 1275.24 142.26 1275.38 133.715 L 1276.57 132.904 C 1281.92 137.59 1283.82 139.597 1290.62 141.727 L 1291.12 141.88 L 1289.2 143.72 z" fill="rgb(3,27,49)" transform="translate(0,0)"></path>
<path d="M 1257.81 138.634 C 1258.99 138.839 1271.04 148.755 1271.92 149.822 C 1263.61 151.148 1259.57 145.947 1257.81 138.634 z" fill="rgb(3,27,49)" transform="translate(0,0)"></path>
<path d="M 1496.15 882.639 L 1517.08 882.529 C 1514.58 886.994 1512.46 891.661 1510.74 896.482 C 1501.03 923.923 1504.61 942.892 1516.72 968.406 L 1495.44 968.513 C 1480.08 936.446 1479.24 914.123 1496.15 882.639 z" fill="rgb(254,254,253)" transform="translate(0,0)"></path>
<path d="M 1235.26 882.895 L 1255.94 882.797 C 1239.9 913.907 1238.6 937.028 1253.83 968.542 L 1234.84 968.751 C 1218.43 941.348 1220.57 910.379 1235.26 882.895 z" fill="rgb(254,254,253)" transform="translate(0,0)"></path>
<path d="M 1166.2 616.948 L 1185.64 616.977 L 1185.9 702.197 L 1166.12 702.261 L 1166.2 616.948 z" fill="rgb(254,254,253)" transform="translate(0,0)"></path>
<path d="M 1116.12 616.903 L 1135.99 616.853 L 1136.03 702.167 L 1116.75 702.087 C 1117.08 674.352 1116.27 644.818 1116.12 616.903 z" fill="rgb(254,254,253)" transform="translate(0,0)"></path>
<path d="M 1266.54 75.0675 C 1289.42 72.8681 1298.52 85.7099 1302.77 106.15 C 1300.82 109.824 1297.2 115.028 1294.85 118.647 L 1282.97 114.013 C 1269.53 108.634 1256.66 104.582 1242.88 100.148 C 1247.98 85.9077 1251.83 79.9029 1266.54 75.0675 z" fill="rgb(249,196,102)" transform="translate(0,0)"></path>
<path d="M 1141.32 616.865 L 1160.88 616.853 L 1160.75 702.282 L 1141.51 702.242 C 1141.62 673.783 1141.55 645.323 1141.32 616.865 z" fill="rgb(4,156,155)" transform="translate(0,0)"></path>
<path d="M 667.314 489.327 C 671.053 489.293 673.965 488.886 676.57 491.017 C 675.481 495.72 619.847 626.96 618.736 628.382 C 618.336 628.894 617.334 629.459 616.792 629.875 C 613.585 630.971 612.959 631.179 609.541 631.499 L 608.356 630.406 C 611.542 619.458 622.865 594.13 627.592 582.85 C 640.632 551.591 653.873 520.416 667.314 489.327 z" fill="rgb(254,254,253)" transform="translate(0,0)"></path>
<path d="M 1103.42 533.832 L 1120.14 533.735 C 1103.58 559.409 1099.52 586.116 1121.05 611.071 C 1117.08 611.271 1112.37 611.201 1108.34 611.249 C 1082.1 589.558 1080.46 558.447 1103.42 533.832 z" fill="rgb(254,254,253)" transform="translate(0,0)"></path>
<path d="M 1370.13 617.108 L 1385.79 617.054 L 1385.37 702.008 L 1370.29 701.997 L 1370.13 617.108 z" fill="rgb(4,156,155)" transform="translate(0,0)"></path>
<path d="M 444.285 573.392 C 446.248 573.347 445.25 573.193 447.246 574.411 C 449.215 578.843 450.745 593.634 448.78 597.681 C 443.513 608.528 431.264 601.764 419.582 607.754 C 417.808 610.556 415.977 614.368 414.423 617.39 C 406.536 614.035 397.879 610.044 389.632 608.001 C 399.234 603.112 405.851 597.362 414.708 591.508 C 415.668 590.873 418.23 593.915 422.417 590.709 L 422.45 589.325 C 418.118 585.471 415.194 584.168 415.197 578.244 C 417.251 575.156 416.331 575.498 419.147 574.625 C 422.101 576.152 424.155 581.262 426.556 584.679 C 433.079 583.162 424.699 574.673 444.285 573.392 z" fill="rgb(254,254,253)" transform="translate(0,0)"></path>
<path d="M 440.372 587.52 C 443.007 589.765 440.928 594.397 440.19 597.652 L 438.479 596.131 C 437.849 592.086 438.696 591.923 440.372 587.52 z" fill="rgb(3,27,49)" transform="translate(0,0)"></path>
<path d="M 1164.48 200.923 C 1162.91 200.788 1197.82 219.276 1203.24 221.467 C 1192.32 225.424 1179.28 229.772 1167.5 228.6 C 1147.87 226.8 1142.03 225.265 1124.09 217.012 C 1139.58 212.542 1150.02 207.671 1164.48 200.923 z" fill="rgb(254,254,253)" transform="translate(0,0)"></path>
<path d="M 1431.97 794.833 C 1435.39 794.759 1439.48 794.351 1442.53 795.661 C 1443.39 802.901 1443.05 816.764 1443.06 824.612 L 1443.13 876.822 L 1432.08 876.793 L 1431.97 794.833 z" fill="rgb(249,196,102)" transform="translate(0,0)"></path>
<path d="M 553.228 674.132 L 554.527 674.221 L 554.128 675.115 C 530.602 686.257 506.197 695.202 480.226 698.359 C 471.263 699.449 439.158 702.023 431.722 698.165 L 431.676 695.751 L 434.191 684.891 C 442.473 686.729 470.717 696.249 475.116 694.815 C 481.631 687.812 492.982 689.881 502.442 687.77 C 519.659 683.929 536.313 679.052 553.228 674.132 z" fill="rgb(254,254,253)" transform="translate(0,0)"></path>
<path d="M 373.848 610.263 L 374.406 611.276 C 342.139 630.902 315.042 669.278 297.289 702.146 L 296.512 701.142 C 297.268 695.198 315.696 662.053 320.412 655.281 C 338.255 629.661 343.361 617.346 373.848 610.263 z" fill="rgb(254,254,253)" transform="translate(0,0)"></path>
<path d="M 1088.3 533.688 C 1090.66 533.651 1091.96 533.391 1094.02 534.538 C 1093.9 539.264 1077.49 556.349 1081.99 580.256 C 1085.32 597.963 1097.79 607.686 1098.39 611.779 C 1083.99 611.158 1075.27 590.897 1073.72 578.37 C 1071.47 560.131 1077.76 547.45 1088.3 533.688 z" fill="rgb(254,254,253)" transform="translate(0,0)"></path>
<path d="M 1130.55 532.649 C 1134.61 534.489 1128.83 539.845 1127.06 543.497 C 1115.19 567.971 1117.38 589.147 1134.39 610.37 L 1131.09 612.378 C 1111.84 599.565 1108.09 571.872 1116.07 551.681 C 1118.71 544.995 1123.87 535.677 1130.55 532.649 z" fill="rgb(254,254,253)" transform="translate(0,0)"></path>
<path d="M 1292.67 76.0352 C 1302.47 81.7641 1318.9 97.915 1313.23 110.378 C 1310.22 110.847 1309.69 110.406 1307.77 112.245 C 1320.85 118.269 1334.6 128.979 1345.61 138.114 C 1330.23 132.955 1314.45 126.446 1299.3 120.456 C 1301.3 117.524 1301.88 116.501 1304.58 114.141 C 1310.32 97.9334 1303.18 87.5985 1292.67 76.0352 z" fill="rgb(249,196,102)" transform="translate(0,0)"></path>
<path d="M 1361.2 202.396 C 1367.16 201.804 1374.46 201.798 1377.56 207.901 C 1377.74 215.427 1372.15 216.622 1365.87 218.885 C 1359.65 219.738 1354.31 221.099 1349.37 216.923 C 1347.3 213.187 1348.11 208.305 1348.37 203.931 L 1361.2 202.396 z" fill="rgb(254,254,253)" transform="translate(0,0)"></path>
<path d="M 147.481 918.933 C 150.152 920.316 161.801 936.223 164.969 940.118 C 164.813 945.643 166.952 956.867 165.363 959.421 L 162.208 959.445 C 158.211 954.68 144.432 931.01 139.781 923.704 L 147.481 918.933 z" fill="rgb(249,196,102)" transform="translate(0,0)"></path>
<path d="M 1202.71 137.367 C 1205.61 136.887 1206.4 136.655 1209.35 137.255 C 1205.17 153.156 1203.57 147.167 1206.54 164.377 L 1196.22 156.842 L 1176.47 141.672 C 1185.17 139.973 1193.92 138.538 1202.71 137.367 z" fill="rgb(4,156,155)" transform="translate(0,0)"></path>
<path d="M 997.091 952.246 C 1025.96 941.086 1055.24 929.281 1084.06 917.879 C 1084.06 917.879 1086.57 918.472 1086.83 918.534 L 1088.06 920.518 C 1086.79 923.07 1086.11 923.581 1083.25 924.592 C 1054.8 934.666 1025.83 944.867 997.265 954.46 L 997.091 952.246 z" fill="rgb(254,254,253)" transform="translate(0,0)"></path>
<path d="M 410.175 574.215 L 410.934 574.915 C 412.889 589.173 408.554 593.505 394.984 599.631 L 393.242 598.596 C 389.421 593.328 388.576 589.191 386.908 583.053 C 394.866 578.971 401.659 576.897 410.175 574.215 z" fill="rgb(10,61,84)" transform="translate(0,0)"></path>
<path d="M 308.894 950.176 C 314.33 951.946 319.796 953.624 325.289 955.209 L 332.494 951.569 C 340.895 954.357 353.293 955.732 360.288 960.49 C 354.291 962.102 314.647 960.86 306.677 960.816 L 308.894 950.176 z" fill="rgb(249,196,102)" transform="translate(0,0)"></path>
<path d="M 474.792 651.218 C 488.749 653.598 478.346 683.519 473.001 691.068 C 470.11 690.327 468.093 690.157 466.123 688.006 C 469.649 675.9 473.027 663.716 474.792 651.218 z" fill="rgb(254,254,253)" transform="translate(0,0)"></path>
<path d="M 1148.79 514.493 C 1157.76 514.312 1185.6 511.89 1190.77 518.167 L 1190.48 519.487 C 1187.26 520.956 1180.78 520.398 1176.96 520.331 C 1167.92 520.314 1143.18 521.813 1135.77 520.144 C 1134.78 517.263 1134.79 518.474 1135.75 515.583 C 1139.2 513.957 1144.8 514.452 1148.79 514.493 z" fill="rgb(249,196,102)" transform="translate(0,0)"></path>
<path d="M 374.694 617.911 L 375.047 618.145 C 375.269 619.47 363.887 628.738 361.771 630.676 C 336.601 653.732 321.492 677.873 303.644 706.277 L 302.575 704.854 C 304.337 699.228 310.068 690.786 313.389 685.601 C 328.952 661.295 350.324 633.867 374.694 617.911 z" fill="rgb(254,254,253)" transform="translate(0,0)"></path>
<path d="M 1216.33 135.339 C 1218.43 136.437 1218.73 136.582 1220.06 138.537 C 1212.34 148.872 1210.08 169.011 1226.92 171.605 C 1229.49 172.001 1235.35 167.717 1238.71 167.011 L 1237.45 169.643 L 1228.73 180.107 C 1222.34 176.051 1218.91 173.643 1213.08 168.83 C 1209.37 154.569 1209.49 147.927 1216.33 135.339 z" fill="rgb(4,156,155)" transform="translate(0,0)"></path>
<path d="M 133.147 926.391 C 134.307 926.602 136.288 927.22 136.95 928.156 C 144.883 939.361 150.617 951.586 158.611 962.989 C 163.463 963.822 170.647 963.958 172.621 968.626 C 168.896 968.695 162.444 967.939 158.533 967.601 C 153.516 962.052 132.433 931.913 133.147 926.391 z" fill="rgb(254,254,253)" transform="translate(0,0)"></path>
<path d="M 1758.89 717.012 C 1784.39 728.239 1785.52 757.638 1766.66 775.87 L 1764.99 775.758 C 1765.47 773.055 1777.47 762.419 1775.95 747.208 C 1774.43 732.041 1769.55 726.883 1758.89 717.012 z" fill="rgb(15,113,122)" transform="translate(0,0)"></path>
<path d="M 305.47 965.473 C 315.262 966.064 354.946 964.699 360.599 966.531 L 361.754 968.857 C 354.797 969.423 309.403 969.694 305.653 967.916 L 305.47 965.473 z" fill="rgb(254,254,253)" transform="translate(0,0)"></path>
<path d="M 944.075 511.528 C 948.736 512.932 974.515 519.838 977.122 521.257 L 976.525 521.996 C 964.507 521.226 952.473 520.735 940.432 520.523 L 944.075 511.528 z" fill="rgb(254,254,253)" transform="translate(0,0)"></path>
<path d="M 534.317 828.494 C 542.508 827.436 622.693 827.374 626.431 829.117 C 625.795 829.309 625.151 829.475 624.502 829.615 C 617.823 831.049 537.257 830.335 534.317 828.494 z" fill="rgb(130,140,137)" transform="translate(0,0)"></path>
<path d="M 658.38 546.478 C 667.274 545.154 743.9 545.193 748.425 547.506 C 740.071 548.807 661.743 548.561 658.38 546.478 z" fill="rgb(92,112,116)" transform="translate(0,0)"></path>
<path d="M 595.223 687.49 C 602.81 686.031 684.007 686.158 687.614 688.5 C 678.835 689.172 599.619 689.562 595.223 687.49 z" fill="rgb(92,112,116)" transform="translate(0,0)"></path>
<path d="M 628.991 617.471 C 633.277 616.699 659.22 616.657 664.944 616.835 C 680.24 617.313 701.879 615.921 716.595 617.172 L 717.625 618.525 C 717.148 618.569 716.302 618.67 715.564 618.666 C 687.205 618.543 658.835 619.094 630.482 618.869 C 629.985 618.403 629.488 617.937 628.991 617.471 z" fill="rgb(92,112,116)" transform="translate(0,0)"></path>
<path d="M 939.549 526.329 C 945.638 525.001 985.085 525.679 988.546 529.346 C 979.655 530.745 958.451 529.604 948.624 529.706 C 943.428 529.761 942.483 529.534 939.549 526.329 z" fill="rgb(254,254,253)" transform="translate(0,0)"></path>
<path d="M 606 757.5 C 611.867 757.608 653.056 756.876 654.94 758.299 C 645.405 759.543 636.334 759.331 626.75 759.318 C 618.874 759.319 571.834 759.995 566.871 758.477 C 573.488 757.156 597.512 757.678 606 757.5 z" fill="rgb(92,112,116)" transform="translate(0,0)"></path>
<path d="M 445.497 562.175 L 446.829 562.407 C 448.047 564.603 447.733 563.73 447.358 566.645 C 443.914 570.342 433.981 569.258 425.373 574.904 C 422.481 573.255 421.948 573.648 421.084 571.073 C 424.097 566.713 439.671 563.679 445.497 562.175 z" fill="rgb(10,61,84)" transform="translate(0,0)"></path>
<path d="M 1155.65 502.474 C 1157.7 502.316 1157.85 502.481 1159.79 503.345 L 1159.21 504.443 C 1151.98 509.486 1148.05 509.517 1139.75 509.223 L 1136.99 509.283 L 1135.34 507.612 C 1134.89 504.673 1134.58 505.596 1135.94 503.591 C 1140.15 502.056 1150.63 502.474 1155.65 502.474 z" fill="rgb(254,254,253)" transform="translate(0,0)"></path>
<path d="M 422.029 680.352 C 424.913 681.232 426.798 681.507 428.763 683.85 C 430.009 687.867 426.558 694.422 424.834 698.766 C 422.829 700.063 422.556 700.254 420.196 700.067 C 417.599 696.049 420.907 685.598 422.029 680.352 z" fill="rgb(254,254,253)" transform="translate(0,0)"></path>
<path d="M 156.381 912.544 C 159.54 914.589 167.892 924.678 168.44 928.825 C 168.798 931.54 167.874 931.895 166.278 934.415 C 162.863 930.045 154.658 920.601 153.98 915.62 L 156.381 912.544 z" fill="rgb(254,254,253)" transform="translate(0,0)"></path>
<path d="M 503.27 899.503 C 510.489 898.53 587.608 897.943 593.356 899.496 C 590.091 901.279 512.805 900.39 503.27 899.503 z" fill="rgb(92,112,116)" transform="translate(0,0)"></path>
<path d="M 657.048 624.65 C 647.285 624.946 633.751 629.062 625.3 628.197 C 625.038 626.07 624.936 626.907 626.408 624.756 C 632.898 621.276 649.007 622.624 657.043 622.787 L 657.048 624.65 z" fill="rgb(254,254,253)" transform="translate(0,0)"></path>
<path d="M 956.26 534.835 C 959.376 535.233 959.168 534.665 960.747 536.433 C 959.786 541.509 955.899 545.643 953.775 554.154 C 951.755 551.303 949.322 545.053 947.843 541.61 C 950.539 539.664 953.638 536.985 956.26 534.835 z" fill="rgb(254,254,253)" transform="translate(0,0)"></path>
<path d="M 1135.14 526.515 C 1141.8 525.516 1187.91 524.306 1192.25 527.511 C 1185.46 528.62 1139.16 528.807 1135.14 526.515 z" fill="rgb(191,196,191)" transform="translate(0,0)"></path>
<path d="M 414.393 677.443 C 415.334 678.09 415.816 678.782 416.579 679.649 C 416.661 684.33 416.219 688.945 414.108 693.205 L 412.4 693.19 C 410.249 691.78 408.78 691.216 408.028 688.841 C 408.193 685.049 412.03 680.708 414.393 677.443 z" fill="rgb(254,254,253)" transform="translate(0,0)"></path>
<path d="M 1381.48 201.196 C 1385.52 201.708 1386.76 202.698 1388.27 206.478 C 1388.62 212.852 1383.78 217.708 1379.85 222.522 C 1378.55 221.793 1378.2 221.431 1377.07 220.515 C 1383.69 212.396 1386.21 211.286 1381.48 201.196 z" fill="rgb(254,254,253)" transform="translate(0,0)"></path>
<path d="M 1343.92 218.097 L 1344.88 219.893 L 1344.32 221.062 C 1336.04 222.64 1325.27 224.891 1317.43 227.605 L 1317.21 226.23 C 1321.1 220.896 1337.53 220.669 1343.92 218.097 z" fill="rgb(191,196,191)" transform="translate(0,0)"></path>
<path d="M 1537.37 788.52 C 1545.37 787.29 1572.46 786.892 1579.47 789.667 C 1572.97 790.316 1542.45 790.692 1537.37 788.52 z" fill="rgb(92,112,116)" transform="translate(0,0)"></path>
<path d="M 1490.51 787.259 C 1493.47 787.315 1516.76 788.317 1517.89 788.978 L 1519.44 789.022 C 1516.83 788.657 1517.84 789.172 1516.42 789.304 C 1506.4 790.239 1494.09 789.657 1484.13 789.318 C 1486.52 789.09 1488.61 788.815 1490.98 788.469 L 1490.51 787.259 z" fill="rgb(109,113,90)" transform="translate(0,0)"></path>
<path d="M 313.783 941.74 C 318.718 942.021 327.597 944.556 328.722 949.964 C 323.275 950.386 314.736 947.923 313.783 941.74 z" fill="rgb(254,254,253)" transform="translate(0,0)"></path>
<path d="M 621.897 634.366 L 623.198 636.088 C 616.716 638.775 610.771 641.527 604.421 644.514 L 602.969 642.906 C 607.647 638.475 615.786 636.27 621.897 634.366 z" fill="rgb(254,254,253)" transform="translate(0,0)"></path>
<path d="M 1299.97 227.514 C 1302.77 227.072 1306.29 226.176 1308.27 228.441 C 1306.07 230.524 1303.9 230.327 1300.76 230.63 C 1297.73 230.455 1295.35 230.061 1292.36 229.583 L 1292.37 228.801 C 1295.28 228.155 1297.03 227.873 1299.97 227.514 z" fill="rgb(191,196,191)" transform="translate(0,0)"></path>
<path d="M 621.897 634.366 C 625.14 633.314 641.883 629.59 644.821 630.145 C 642.512 632.656 629.237 633.925 623.198 636.088 L 621.897 634.366 z" fill="rgb(92,112,116)" transform="translate(0,0)"></path>
<path d="M 1241.37 171.767 C 1242.72 175.929 1238.85 182.144 1235.2 184.41 L 1234.51 182.33 C 1235.56 178.931 1239.12 174.744 1241.37 171.767 z" fill="rgb(4,156,155)" transform="translate(0,0)"></path>
<path d="M 1141.72 264.845 C 1142.2 265.659 1142.54 267.043 1142.84 267.997 C 1141.53 270.905 1137.12 272.53 1134.11 274.005 L 1133.42 273.123 C 1134.87 270.188 1139.05 267.109 1141.72 264.845 z" fill="rgb(4,156,155)" transform="translate(0,0)"></path>
<path d="M 997.265 954.46 C 993.537 955.718 989.781 956.894 986.001 957.987 L 986.677 956.806 C 986.137 957.059 984.294 958.03 983.879 957.995 C 986.598 955.976 993.622 953.588 997.091 952.246 L 997.265 954.46 z" fill="rgb(191,196,191)" transform="translate(0,0)"></path>
<path d="M 340.941 138.598 C 341.519 138.967 342.217 139.413 343.035 139.936 C 348.574 154.783 355.313 178.356 359.789 193.003 C 377.186 189.028 385.972 188.073 403.606 187.553 C 405.955 175.075 408.208 163.355 409.811 150.751 C 426.436 152.596 447.663 157.139 464.364 160.428 C 462.281 173.031 460.102 185.618 457.829 198.188 C 468.902 202.807 476.46 207.13 486.539 213.505 C 497.942 207.104 509.886 197.528 522.115 190.544 L 559.308 227.469 L 520.676 250.921 C 527.963 261.885 531.159 269.301 535.929 281.58 C 547.586 280.81 562.797 278.335 574.642 276.687 C 580.524 293.82 581.951 305.415 584.344 323.406 C 570.53 325.748 556.092 327.678 542.187 329.721 C 540.817 341.976 538.901 350.68 535.579 362.484 C 546.917 367.768 558.227 373.113 569.507 378.52 C 562.275 393.068 552.991 409.475 544.959 423.733 L 507.287 409.285 C 498.21 417.93 492.375 421.787 481.476 427.906 C 486.227 440.049 490.5 451.176 494.605 463.542 L 467.738 473.388 L 443.313 482.178 C 438.512 470.537 433.55 458.963 428.428 447.46 C 410.937 450.043 405.426 450.327 387.82 448.968 C 384.259 459.71 378.389 474.771 373.846 484.983 C 356.637 478.886 338.574 472.772 321.595 466.231 C 325.812 454.848 330.334 443.581 335.157 432.442 C 321.567 424.937 316.083 421.114 304.263 411.006 C 291.227 415.542 278.305 421.358 264.994 425.905 C 256.424 411.744 248.881 396.3 240.624 381.737 C 249.673 376.347 264.908 369.401 274.769 364.613 C 269.295 349.594 267.562 341.167 265.94 325.436 C 252.689 322.934 238.414 321.213 224.968 319.379 C 226.152 303.597 228.542 285.485 230.276 269.611 C 243.396 270.035 257.874 271.225 271.078 272.04 C 278.4 257.08 281.452 251.671 291.728 238.697 C 282.648 229.319 273.229 219.921 264.963 209.838 C 275.935 200.256 292.825 189.546 305.231 179.238 L 332.481 204.134 C 340.993 199.971 346.197 197.714 355.111 194.545 C 350.04 178.477 344.73 162.109 340.197 145.878 C 339.05 141.768 339.141 141.489 340.941 138.598 z" fill="rgb(3,27,49)" transform="translate(0,0)"></path>
<path d="M 414.621 156.305 C 428.73 158.197 445.121 161.473 459.315 163.953 C 456.828 176.283 454.533 188.651 452.431 201.052 C 465.104 206.324 476.445 211.193 487.235 219.738 C 496.804 211.888 510.771 203.321 521.329 196.834 C 531.012 205.769 541.635 216.88 551.073 226.296 C 542.085 232.838 524.354 243.079 514.049 249.628 C 523.286 263.007 527.275 272.221 532.729 287.384 C 545.554 285.533 558.392 283.774 571.242 282.107 C 575.564 297.091 577.185 304.02 578.458 319.621 L 537.235 325.269 C 537.472 340.298 534.162 350.564 529.408 364.683 C 540.052 370.315 551.621 375.529 562.557 380.676 C 556.594 392.75 549.287 405.75 542.868 417.702 C 530.173 413.116 519.339 408.862 506.832 403.655 C 494.832 414.278 489.637 417.837 475.7 425.946 L 488.495 460.66 C 474.492 466.072 460.365 471.16 446.127 475.921 C 441.149 465.71 435.919 452.889 431.349 442.323 C 425.229 443.322 418.15 444.027 411.925 444.785 C 401.755 445.298 394.351 444.623 384.266 443.521 C 380.263 455.375 375.994 467.139 371.464 478.803 C 356.767 473.996 342.438 468.431 327.703 463.725 C 331.534 452.814 336.682 440.945 341.094 430.156 C 325.108 421.725 318.295 417.842 305.623 405.2 C 292.916 410.444 280.119 415.466 267.238 420.266 C 260.318 408.698 253.542 395.395 247.162 383.383 C 258.261 377.697 269.914 372.151 281.136 366.633 C 274.288 352.781 271.239 336.837 270.759 321.485 C 257.686 318.949 243.165 317.287 229.842 315.52 C 231.637 302.118 232.975 288.057 234.374 274.592 C 247.513 275.186 261.368 276.331 274.546 277.21 C 281.355 259.83 286.161 253.21 298.254 238.88 C 289.288 229.618 280.534 220.152 271.999 210.491 C 282.903 201.924 294.076 193.705 305.5 185.847 C 314.169 193.565 323.005 202.032 331.53 209.978 C 357.467 195.293 378.862 192.668 407.638 192.979 C 409.811 181.931 411.656 166.509 414.621 156.305 z" fill="rgb(254,254,253)" transform="translate(0,0)"></path>
<path d="M 392.09 237.36 C 439.466 234.374 485.16 263.125 490.87 312.5 C 493.173 332.835 487.202 353.242 474.302 369.13 C 458.032 389.384 436.264 398.827 410.986 401.655 C 364.919 404.618 318.974 375.818 312.65 328.055 C 310.068 308.076 315.505 287.889 327.771 271.909 C 343.845 251.089 366.453 240.579 392.09 237.36 z" fill="rgb(3,27,49)" transform="translate(0,0)"></path>
<path d="M 391.321 242.31 C 414.474 240.339 436.916 246.005 455.538 260.212 C 471.987 272.693 482.824 291.181 485.679 311.63 C 488.205 330.885 482.889 350.348 470.928 365.646 C 456.283 384.5 435.429 393.815 412.237 396.753 C 367.605 399.661 324.133 374.593 317.57 327.877 C 315.088 308.908 320.198 289.726 331.788 274.505 C 346.267 255.348 368.002 245.5 391.321 242.31 z" fill="rgb(254,254,253)" transform="translate(0,0)"></path>
<path d="M 400.568 251.379 C 498.838 254.756 500.721 382.731 405.206 388.167 C 305.312 385.631 298.958 257.779 400.568 251.379 z" fill="rgb(3,27,49)" transform="translate(0,0)"></path>
<path d="M 394.286 256.346 C 428.322 252.617 463.436 275.616 469.999 310.024 C 472.89 325.375 469.562 341.246 460.747 354.142 C 448.738 371.728 431.61 379.247 411.451 383.025 C 374.955 384.497 338.313 366.021 332.59 327.024 C 330.39 311.237 334.617 295.227 344.323 282.583 C 356.879 266.151 374.384 259.048 394.286 256.346 z" fill="rgb(254,254,253)" transform="translate(0,0)"></path>
<path d="M 728.927 294.968 C 738.752 297.459 750.092 301.951 759.697 305.555 C 755.455 311.707 751.909 318.089 748.188 324.564 C 755.036 329.564 757.537 331.919 763.225 338.134 C 770.503 334.948 777.034 332.538 784.518 329.84 C 788.777 337.093 793.814 347.905 797.7 355.631 L 775.258 364.186 C 775.706 370.664 775.154 376.905 774.756 383.383 L 798.015 389.352 C 794.787 398.748 790.158 408.308 785.998 417.386 C 778.662 415.098 771.173 412.311 763.912 409.719 C 758.855 416.223 755.929 418.061 749.247 422.476 C 753.103 428.438 757.458 434.562 761.498 440.44 C 752.031 445.332 741.596 449.499 731.739 453.651 C 728.331 447.887 724.62 438.969 721.784 432.648 C 712.789 433.387 707.901 433.35 698.857 432.921 C 695.632 439.66 692.485 445.372 688.821 451.891 C 681.953 450.301 666.893 443.936 659.772 440.994 C 663.358 434.637 666.485 428.914 669.716 422.374 C 663.537 418.685 659.561 415.06 654.632 409.966 C 647.635 412.969 640.579 416.197 633.611 419.3 L 620.273 393.481 L 642.923 384.431 C 641.3 374.049 641.438 371.097 644.406 361.052 L 621.697 352.009 L 635.234 326.266 L 656.866 335.056 C 660.925 330.574 664.77 328.088 669.647 324.589 C 665.964 318.785 659.445 311.661 662.261 305.015 C 664.705 302.914 682.407 297.139 687.184 295.363 C 690.685 302.025 694.263 308.647 697.919 315.225 C 707.387 313.991 711.813 314.181 721.091 315.257 C 722.915 309.477 726.624 300.83 728.927 294.968 z" fill="rgb(3,27,49)" transform="translate(0,0)"></path>
<path d="M 730.796 297.988 C 738.253 300.982 747.148 303.857 754.826 306.537 C 752.316 311.686 746.744 320.389 743.635 325.571 C 752.355 330.099 756.265 334.165 762.109 341.616 C 769.099 338.816 776.072 335.974 783.028 333.089 L 793.86 354.089 C 786.517 356.765 778.956 359.396 771.848 362.608 C 772.98 372.103 772.943 376.142 771.221 385.156 C 778.279 387.55 786.732 389.588 794.031 391.524 C 790.895 399.975 788.055 405.798 784.017 413.91 L 763.086 406.379 C 756.418 413.953 753.951 416.567 745.418 421.558 C 749.136 427.508 753.214 433.538 757.084 439.417 C 749.284 442.788 741.313 446.525 733.545 450.036 C 730.384 445.269 726.069 435.095 723.523 429.505 C 713.266 431.197 707.712 431.501 697.494 429.649 L 686.992 449.18 C 679.591 445.764 671.601 442.808 663.973 439.852 C 667.25 433.665 670.82 427.388 674.214 421.243 C 665.334 416.794 661.929 413.089 655.237 406.111 L 634.914 415.247 C 631.407 409.45 627.358 401.303 624.088 395.181 C 631.136 391.93 639.137 389.132 646.468 386.408 C 643.496 375.722 644.852 369.112 647.819 359.047 L 625.49 350.693 L 636.589 330.018 C 643.56 333.061 650.568 336.02 657.61 338.894 C 662.761 332.362 666.46 330.109 673.275 325.782 C 671.125 320.651 665.695 312.725 662.505 307.762 L 685.037 299.003 C 687.69 301.069 694.394 314.553 696.459 318.41 C 707.408 317.115 712.394 316.709 723.144 318.977 C 725.371 312.086 728.239 304.815 730.796 297.988 z" fill="rgb(254,254,253)" transform="translate(0,0)"></path>
<path d="M 703.62 341.421 C 721.857 339.541 740.553 349.77 743.809 368.769 C 745.134 376.647 743.223 384.726 738.509 391.176 C 731.567 400.806 722.497 403.689 711.502 405.542 C 694.118 405.513 676.595 397.473 672.844 378.976 C 671.28 371.093 673.017 362.914 677.649 356.347 C 684.085 347.104 693.008 343.383 703.62 341.421 z" fill="rgb(3,27,49)" transform="translate(0,0)"></path>
<path d="M 703.832 344.256 C 720.097 343.117 735.999 349.637 740.659 366.549 C 742.617 373.482 741.614 380.917 737.889 387.083 C 732.23 396.603 723.598 400.101 713.531 402.692 C 696.94 403.827 679.505 396.399 675.587 378.84 C 673.985 371.738 675.409 364.289 679.518 358.279 C 685.48 349.443 693.947 346.203 703.832 344.256 z" fill="rgb(254,254,253)" transform="translate(0,0)"></path>
<path d="M 702.225 348.162 C 716.646 347.231 731.529 352.018 736.231 367.201 C 738.043 372.968 737.411 379.225 734.483 384.513 C 729.803 393.012 722.363 396.179 713.644 398.691 C 699.656 399.773 684.8 394.502 680.256 380.009 C 678.423 374.199 679.019 367.894 681.91 362.531 C 686.399 354.251 693.635 350.736 702.225 348.162 z" fill="rgb(3,27,49)" transform="translate(0,0)"></path>
<path d="M 705.854 350.22 C 717.671 350.35 730.204 355.939 733.732 368.098 C 735.252 373.205 734.63 378.71 732.01 383.349 C 727.671 391.081 721.117 393.917 713.03 396.122 C 699.812 396.405 685.519 392.026 682.423 377.348 C 681.221 371.823 682.396 366.046 685.661 361.429 C 690.689 354.253 697.703 351.794 705.854 350.22 z" fill="rgb(254,254,253)" transform="translate(0,0)"></path>
<path d="M 1756.88 401.079 C 1763.76 399.751 1770.42 404.283 1771.7 411.18 C 1772.99 418.077 1768.41 424.701 1761.51 425.941 C 1754.66 427.17 1748.11 422.645 1746.84 415.81 C 1745.57 408.976 1750.05 402.396 1756.88 401.079 z" fill="rgb(3,27,49)" transform="translate(0,0)"></path>
<path d="M 1756.03 406.351 C 1758.63 405.148 1761.67 405.475 1763.95 407.201 C 1766.23 408.928 1767.37 411.772 1766.91 414.593 C 1766.45 417.415 1764.47 419.752 1761.76 420.669 C 1757.88 421.984 1753.64 420.032 1752.12 416.223 C 1750.59 412.415 1752.31 408.079 1756.03 406.351 z" fill="rgb(254,254,253)" transform="translate(0,0)"></path>
<path d="M 296.756 80.0294 C 298.802 80.5172 298.696 80.5017 300.373 81.8028 C 301.95 86.1362 301.117 92.0401 300.819 96.7867 C 299.385 96.4487 298.79 95.9769 297.556 95.2222 C 295.94 90.8589 296.591 84.8241 296.756 80.0294 z" fill="rgb(3,27,49)" transform="translate(0,0)"></path>
<path d="M 297.951 105.415 C 298.655 105.826 299.792 106.818 300.473 107.369 C 301.816 112.612 301.67 117.562 299.531 122.573 C 295.293 118.549 295.429 110.244 297.951 105.415 z" fill="rgb(3,27,49)" transform="translate(0,0)"></path>
<path d="M 277.967 99.3813 C 282.808 99.0392 289.075 97.8987 292.824 100.576 L 292.844 103.591 C 286.971 103.783 279.409 105.805 277.967 99.3813 z" fill="rgb(3,27,49)" transform="translate(0,0)"></path>
<path d="M 304.919 99.3505 C 310.691 98.9914 318.163 96.8605 320.371 102.689 C 315.694 103.182 309.64 104.379 305.49 102.254 L 304.919 99.3505 z" fill="rgb(3,27,49)" transform="translate(0,0)"></path>
<path d="M 234.315 515.966 C 235.543 516.261 236.765 516.582 237.98 516.928 C 241.949 518.091 243.241 518.714 245.018 521.898 C 240.087 522.655 235.266 521.344 234.315 515.966 z" fill="rgb(3,27,49)" transform="translate(0,0)"></path>
<path d="M 241.33 529.74 C 243.421 530.601 242.688 530.114 244.09 532.042 C 242.615 534.151 239.227 534.806 236.555 535.699 L 234.361 535.043 L 234.114 533.912 C 235.889 531.795 238.706 530.904 241.33 529.74 z" fill="rgb(3,27,49)" transform="translate(0,0)"></path>
<path d="M 275.038 516.526 C 276.719 516.704 276.93 517.024 278.338 517.944 C 276.917 520.887 275.018 521.217 271.738 523.17 C 270.502 523.584 270.702 523.371 269.196 523.106 L 269.163 522.003 C 270.497 519.078 272.358 518.223 275.038 516.526 z" fill="rgb(3,27,49)" transform="translate(0,0)"></path>
<path d="M 268.612 529.84 C 273.425 530.923 276.984 530.969 278.487 535.915 C 273.277 536.213 269.987 534.965 268.612 529.84 z" fill="rgb(3,27,49)" transform="translate(0,0)"></path>
<path d="M 250.555 537.786 L 251.56 539.381 C 251.936 542.466 249.738 545.117 248.03 547.829 L 246.331 546.181 C 246.024 543.036 248.59 540.427 250.555 537.786 z" fill="rgb(3,27,49)" transform="translate(0,0)"></path>
<metadata><recraft-signature>{"signed_by": "recraft", "signature_b64": "WZxHQYPEAEIe0OvPLz6rBfX0FmfPYkeUofpMuOs2zunX1dThl774c9apOyhoW6Y26NO0/oyUzbIfSqbJhXzCDQ==", "signing_algo": "Ed25519", "generation_timestamp": 1777312806, "identifier": "9a0cf012-38bc-45b6-9ca0-8ad1233c2007"}</recraft-signature></metadata></svg>