<svg xmlns="http://www.w3.org/2000/svg" height="1024" preserveAspectRatio="none" style="display: block;" version="1.1" viewBox="0 0 2048 1024" width="2048">
<path d="M 0 0 L 2048 0 L 2048 1024 L 1302.11 1024 L 1293.67 1024 L 1284.25 1024 L 1274.68 1024 L 1249.57 1024 L 1239.56 1024 L 1121.47 1024 L 1104.81 1024 L 1085.85 1024 L 1068.9 1024 L 1062.87 1024 L 1054.83 1024 L 1044.76 1024 L 1036.64 1024 L 1011.13 1024 L 1002.2 1024 L 962.96 1024 L 955.128 1024 L 949.038 1024 L 940.99 1024 L 919.857 1024 L 904.165 1024 L 891.621 1024 L 875.477 1024 L 854.759 1024 L 847.328 1024 L 840.263 1024 L 832.93 1024 L 282.525 1024 L 264.187 1024 L 168.932 1024 L 150.086 1024 L 36.5953 1024 L 22.2798 1024 L 0 1024 L 0 0 z" fill="rgb(254,254,253)" transform="translate(0,0)"></path>
<path d="M 1506.88 118.55 C 1521.46 119.599 1556.44 121.658 1569.98 124.032 C 1578.95 143.047 1590.59 175.994 1598.14 196.29 C 1620.3 184.74 1642.38 173.039 1664.39 161.187 C 1677.49 167.663 1693.4 177.968 1706.27 185.462 C 1713.13 189.455 1729.9 199.033 1735.69 203.466 C 1732.78 228.379 1731.54 255.017 1729.33 280.22 L 1761.3 303.5 C 1778.79 293.242 1796.21 282.87 1813.56 272.385 C 1830.8 287.593 1866.71 319.482 1881.51 335.208 C 1869.17 353.731 1852.59 376.336 1841.73 394.521 C 1851.94 409.253 1864.9 426.88 1874.21 441.86 C 1892.46 444.779 1930.94 447.237 1945.86 451.378 C 1950.1 461.589 1978.18 525.843 1976.98 534.057 C 1976.19 539.475 1928 565.207 1918.8 570.132 C 1922.47 584.059 1924.43 594.016 1925.14 608.531 C 1938.57 616.436 1952.2 625.248 1965.43 633.591 C 1975.66 640.045 1989.77 647.907 1999.08 654.953 L 1992.39 729.742 C 1971.75 742.173 1948.23 751.762 1927.94 764.14 C 1934.05 770.645 1954.68 792.237 1955.93 800.269 C 1956.57 804.391 1934.29 824.981 1929.62 829.826 C 1907.94 852.296 1872.19 863.394 1846.92 881.372 C 1840.36 873.166 1833.89 865.164 1827.73 856.642 C 1814 864.188 1787.29 877.777 1774.98 885.767 C 1756.53 883.862 1719.07 878.913 1701.25 875.116 C 1696.2 858.059 1691.47 840.91 1687.06 823.678 C 1668.06 833.213 1649.88 843.789 1631.32 853.112 L 1558.11 809.196 C 1560.98 783.709 1562.12 756.915 1564.12 731.206 C 1557.41 726.185 1550.88 721.321 1544.4 715.992 C 1527.81 725.443 1502.03 741.297 1485.72 749.242 L 1437.7 700.264 C 1432.54 695.057 1416.56 679.641 1413.19 674.921 C 1427.15 659.453 1443.05 643.551 1457.81 628.753 C 1450.19 617.537 1442.15 606.95 1434.41 595.803 C 1427.73 586.198 1421.72 574.425 1415.31 565.159 C 1393.01 565.327 1370.7 566.691 1348.38 567.215 C 1341.6 549.459 1334.6 531.79 1327.37 514.212 C 1323.39 504.44 1315.85 486.885 1313.3 476.859 C 1330.05 466.87 1347.08 457.369 1364.38 448.367 C 1363.48 444.936 1362.45 440.517 1361.42 437.217 C 1332.95 450.952 1303.06 467.225 1275.01 482.093 L 1122.89 563.099 C 1130.51 584.783 1139.69 607.065 1148.09 628.608 C 1159.89 659.736 1171.92 690.771 1184.2 721.711 C 1218.68 809.505 1251.92 897.823 1287.21 985.319 C 1292.32 997.985 1297.56 1011.13 1302.11 1024 L 1293.67 1024 L 1284.25 1024 L 1274.68 1024 L 1249.57 1024 L 1239.56 1024 L 1121.47 1024 L 1104.81 1024 L 1085.85 1024 L 1068.9 1024 L 1062.87 1024 L 1054.83 1024 L 1044.76 1024 L 1036.64 1024 L 1011.13 1024 L 1002.2 1024 L 962.96 1024 L 955.128 1024 L 949.038 1024 L 940.99 1024 L 919.857 1024 L 904.165 1024 L 891.621 1024 L 875.477 1024 L 854.759 1024 L 847.328 1024 L 840.263 1024 L 832.93 1024 L 282.525 1024 L 264.187 1024 L 168.932 1024 L 150.086 1024 L 656.734 751.293 L 789.58 679.457 C 808.748 669.067 829.702 658.55 848.323 647.643 C 845.737 640.847 843.239 633.968 840.154 627.385 C 849.996 622.03 863.782 614.066 873.728 609.43 C 878.964 612.109 887.543 616.206 892.258 619.197 C 902.541 612.221 920.575 603.049 931.84 596.907 L 1004.17 557.739 C 1018.73 549.888 1036.22 540.97 1050 532.242 C 1046.95 525.304 1040.98 512.759 1038.73 506.011 C 1049.04 498.676 1064.13 490.844 1075.55 484.65 C 1084.55 491.363 1093.46 498.189 1102.29 505.126 C 1168.71 471.925 1235.94 432.19 1302.05 397.938 L 1135.13 309.936 C 1097.72 290.077 1059.84 269.183 1021.89 250.484 C 955.559 284.592 889.146 322.59 823.066 357.729 C 839.654 367.32 957.271 427.999 962.189 433.895 L 962.551 436.015 C 960.052 438.657 961.285 437.96 957.939 438.849 C 949.118 435.974 908.719 413.179 899.958 408.157 C 889.495 402.159 812.664 363.501 808.851 357.718 C 812.193 353.586 1006.71 248.229 1022.75 240.932 L 1206.7 338.464 L 1276.58 375.261 C 1286.91 380.697 1301.38 387.659 1311.07 393.328 C 1320.42 388.351 1329.66 383.186 1338.8 377.834 C 1319.96 367.079 1301.02 356.513 1281.97 346.137 C 1283.5 322.261 1286.11 295.172 1288.71 271.309 C 1310.19 259.048 1334.1 244.867 1355.64 233.318 C 1345.36 221.49 1329.47 204.685 1320.15 192.895 C 1350.38 173.25 1415.97 133.271 1448.98 119.461 C 1459.93 123.228 1472.44 127.867 1483.51 130.812 L 1506.88 118.55 z" fill="rgb(22,45,61)" transform="translate(0,0)"></path>
<path d="M 282.525 1024 C 308.364 1009.06 334.487 996.184 360.709 982.053 L 544.377 883.263 L 750.403 771.615 C 777.312 757.237 805.587 741.053 832.829 727.613 L 832.93 1024 L 282.525 1024 z" fill="rgb(254,254,253)" transform="translate(0,0)"></path>
<path d="M 168.932 1024 C 200.303 1005.59 235.6 987.538 267.945 970.186 L 446.594 874.397 L 643.748 767.986 C 713.159 730.05 782.777 692.493 852.598 655.316 C 857.94 667.82 865.986 685.298 870.211 697.771 L 441.469 928.672 C 403.08 949.658 364.566 970.415 325.929 990.944 C 309.253 999.841 279.451 1014.52 264.187 1024 L 168.932 1024 z" fill="rgb(254,254,253)" transform="translate(0,0)"></path>
<path d="M 851.93 633.407 C 862.229 636.562 873.024 639.677 883.086 643.425 C 916.158 719.716 947.262 802.238 978.484 879.816 C 988.867 905.906 999.454 931.913 1010.24 957.837 C 1017.78 975.867 1030.76 1006.07 1036.64 1024 L 1011.13 1024 C 959.621 894.852 907.404 760.531 851.93 633.407 z" fill="rgb(254,254,253)" transform="translate(0,0)"></path>
<path d="M 854.91 956.202 L 941.148 911.977 C 940.952 937.584 940.948 963.192 941.136 988.799 C 927.841 995.853 884.588 1017.48 875.477 1024 L 854.759 1024 C 854.52 1001.4 854.571 978.8 854.91 956.202 z" fill="rgb(254,254,253)" transform="translate(0,0)"></path>
<path d="M 1054.23 1002.68 C 1100.31 976.855 1155.29 945.363 1202.62 922.013 C 1213.69 926.535 1222.16 930.62 1232.84 935.961 C 1179.25 965.896 1122.84 994.27 1068.9 1024 L 1062.87 1024 C 1060.02 1017.11 1056.76 1009.63 1054.23 1002.68 z" fill="rgb(254,254,253)" transform="translate(0,0)"></path>
<path d="M 1284.25 1024 C 1271.67 995.303 1259.95 963.879 1248.66 934.53 L 1191.29 785.432 C 1165.49 720.394 1140.19 655.156 1115.4 589.726 C 1108.05 569.944 1100.04 550.177 1093.19 530.197 C 1091.76 526.016 1088.83 522.316 1091.27 517.744 C 1093.34 517.205 1093.01 516.903 1094.67 517.753 C 1096.43 518.657 1098.28 520.819 1098.95 522.713 C 1105.21 540.228 1112.1 557.799 1118.84 575.098 L 1167.42 700.754 C 1208.94 808.722 1251.02 916.472 1293.67 1024 L 1284.25 1024 z" fill="rgb(88,190,183)" transform="translate(0,0)"></path>
<path d="M 888.796 638.192 L 897.023 633.993 C 929.429 712.073 961.141 790.44 992.157 869.082 L 1031.99 967.188 C 1039.39 985.367 1048.12 1005.54 1054.83 1024 L 1044.76 1024 C 1006.32 930.254 968.402 836.296 931.003 742.131 C 922.25 719.743 913.256 697.45 904.025 675.255 C 899.523 664.357 892.544 648.841 888.796 638.192 z" fill="rgb(88,190,183)" transform="translate(0,0)"></path>
<path d="M 1121.47 1024 C 1146.43 1008.3 1191 986.735 1218.85 971.638 C 1225.65 987.085 1234.56 1008.14 1239.56 1024 L 1121.47 1024 z" fill="rgb(254,254,253)" transform="translate(0,0)"></path>
<path d="M 840.263 1024 L 840.389 806.135 C 840.268 779.051 840.117 751.953 840.239 724.871 C 840.246 723.175 843.659 721.229 845.055 720.657 L 847.1 721.145 C 848.617 729.158 847.746 744.872 847.573 753.538 C 847.266 767.138 847.183 780.741 847.325 794.343 L 847.328 1024 L 840.263 1024 z" fill="rgb(254,254,253)" transform="translate(0,0)"></path>
<path d="M 962.96 1024 L 963.247 928.67 C 975.606 958.631 989.381 995.124 1002.2 1024 L 962.96 1024 z" fill="rgb(254,254,253)" transform="translate(0,0)"></path>
<path d="M 1227.18 967.623 C 1234.1 963.843 1240.82 960.066 1248.02 956.832 C 1255.35 973.825 1269.17 1006.67 1274.68 1024 L 1249.57 1024 C 1241.45 1005.62 1235.17 986.278 1227.18 967.623 z" fill="rgb(254,254,253)" transform="translate(0,0)"></path>
<path d="M 1085.85 1024 C 1118.35 1005.11 1153.9 987.448 1186.94 969.17 C 1194.32 965.092 1234.85 943.225 1241.2 941.113 C 1243.16 943.523 1243.36 945.051 1244.13 947.993 C 1241.04 952.745 1120.94 1013.78 1104.81 1024 L 1085.85 1024 z" fill="rgb(254,254,253)" transform="translate(0,0)"></path>
<path d="M 949.015 892.009 C 958.062 913.098 955.784 928.255 955.716 950.564 L 955.128 1024 L 949.038 1024 C 948.775 980.003 948.768 936.006 949.015 892.009 z" fill="rgb(254,254,253)" transform="translate(0,0)"></path>
<path d="M 891.621 1024 C 902.27 1017.64 928.591 1002.49 939.524 998.001 L 940.815 998.745 C 941.426 1002.11 941.813 1001.36 940.657 1003.97 C 931.376 1011.29 914.382 1017.37 904.165 1024 L 891.621 1024 z" fill="rgb(254,254,253)" transform="translate(0,0)"></path>
<path d="M 919.857 1024 C 924.19 1021.62 934.7 1014.84 938.632 1014.65 C 942.703 1016.19 941.311 1019.93 940.99 1024 L 919.857 1024 z" fill="rgb(254,254,253)" transform="translate(0,0)"></path>
<path d="M 1445.14 161.839 C 1462.49 163.247 1486.72 163.881 1503.19 166.165 C 1514.8 195.19 1526.84 227.776 1539.58 256.093 C 1547.38 258.756 1587.82 275.785 1592.44 275.193 C 1596.56 267.21 1600.85 219.926 1602.26 207.247 C 1621.47 218.745 1642.59 231.11 1661.06 243.614 C 1659.36 267.66 1657.37 292.757 1657 316.772 C 1676.39 328.294 1690.96 342.611 1708.77 355.008 C 1723.54 342.591 1739.52 330.196 1754.64 318.11 C 1771.81 335.506 1788.18 353.918 1805.52 371.423 C 1795.75 385.717 1774.16 411.566 1767.08 423.971 C 1783.17 447.255 1794.77 463.54 1808.24 488.271 C 1829.4 491.57 1858.29 492.944 1880.11 494.65 C 1889.56 518.007 1898.77 541.456 1907.75 564.994 C 1898.45 564.998 1849.24 562.274 1845.07 564.965 C 1843.71 567.799 1851.43 595.547 1852.62 602.433 C 1855.1 616.642 1856.5 631.017 1856.81 645.436 C 1875.22 659.807 1907.01 679.833 1927.4 693.855 C 1924.07 711.383 1921.84 736.435 1919.19 754.898 C 1896.14 738.876 1870.49 721.472 1846.77 706.605 C 1840.89 725.021 1830.19 741.221 1817.45 755.535 L 1884.4 832.151 C 1871.46 842.682 1857.78 855.502 1845.28 866.766 C 1838.46 858.192 1788.58 789.439 1787.75 784.806 C 1790.29 782.807 1791.03 782.219 1793.18 779.71 C 1792.69 776.669 1793.15 777.815 1790.09 775.179 C 1785.81 775.131 1776.13 779.344 1771.22 781.094 C 1764.11 783.231 1749.62 784.9 1744.8 787.911 C 1743.81 793.737 1764.41 864.715 1767.14 876.308 C 1749.62 872.835 1725.81 870.207 1707.69 867.669 C 1699.34 842.041 1690.99 807.857 1683.73 781.151 C 1678.59 779.871 1638.66 766.817 1638.85 766.773 C 1634.55 774.615 1630.12 829.376 1628.72 841.73 C 1608.05 829.719 1587.59 817.349 1567.35 804.626 C 1568.67 778.603 1571.26 752.639 1572.27 726.648 C 1563.1 720.124 1554.22 713.208 1545.65 705.918 C 1540.1 701.208 1531.59 691.513 1524.43 691.003 C 1517.07 692.824 1490.24 726.53 1483 734.674 C 1463.85 714.334 1445.36 694.964 1425.03 675.763 C 1435.92 664.785 1460.15 640.47 1468.9 629.009 C 1464.88 622.051 1451.96 606.722 1446.48 598.675 C 1436.73 584.358 1428.7 570.855 1419.61 556.183 C 1397.86 557.177 1376.07 557.682 1354.35 559.045 C 1346.15 538.55 1330.99 503.778 1324.97 483.848 C 1333.95 483.872 1373.37 482.902 1379.64 481.111 C 1381.07 479.215 1382.19 477.619 1381.27 475.04 C 1370.13 443.971 1364.73 415.917 1363.83 382.639 C 1339.75 368.795 1315.19 355.569 1291.04 341.78 C 1292.36 321.985 1293.99 299.591 1296.26 279.965 C 1318.77 294.562 1349.43 311.52 1373.25 324.524 C 1390.73 290.863 1405.15 269.179 1444.68 256.469 C 1452.67 253.898 1469.85 252.787 1476.32 250.152 C 1474.82 240.464 1466.79 220.625 1463.15 210.959 L 1445.14 161.839 z" fill="rgb(254,254,253)" transform="translate(0,0)"></path>
<path d="M 1490.02 280.351 C 1548.95 274.169 1624.22 311.913 1670.14 348.827 C 1749.01 412.23 1813.5 507.701 1826.59 609.634 C 1831.3 646.294 1825.05 691.966 1801.21 721.167 C 1781.32 745.533 1759.93 755.431 1729.24 758.792 C 1670.21 761.394 1612.37 732.961 1565.32 697.643 C 1482.8 635.691 1409.66 533.49 1392.77 430.074 C 1387.02 394.917 1393.9 347.998 1416.18 319.57 C 1435.64 294.734 1459.46 284.494 1490.02 280.351 z" fill="rgb(22,45,61)" transform="translate(0,0)"></path>
<path d="M 1492.82 288.387 C 1540.17 282.627 1608.07 314.09 1647.38 341.682 C 1730.29 399.882 1796.8 492.606 1815.9 593.019 C 1823.1 630.868 1821.48 677.385 1799.02 710.236 C 1787.09 727.682 1771.27 732.469 1751.59 735.839 C 1689.41 740.383 1624.35 705.309 1576.57 666.436 C 1502.28 605.986 1435.45 508.771 1423.1 411.988 C 1418.95 379.466 1423.83 335.487 1444.49 308.626 C 1455.38 294.469 1475.74 290.15 1492.82 288.387 z" fill="rgb(254,254,253)" transform="translate(0,0)"></path>
<path d="M 1565.6 380.904 C 1570.2 383.307 1588.47 398.899 1593.54 403.161 C 1600.86 398.868 1607.52 394.41 1614.57 389.713 C 1620.74 392.737 1653.29 413.197 1652.83 416.459 C 1650.54 432.887 1652.45 441.805 1667.23 458.085 C 1674.48 455.251 1681 449.156 1688.77 447.782 C 1694.21 450.444 1716.81 482.908 1720.74 489.405 C 1713.78 494.942 1703.22 501.346 1695.31 507.364 C 1704.02 511.01 1720.47 515.824 1729.93 518.953 C 1735.38 532.93 1741.57 547.362 1747.27 561.298 C 1742.57 564.789 1733.16 570.199 1727.88 573.45 C 1731.02 581.956 1735.95 592.371 1739.68 600.815 C 1732.12 606.696 1696.88 628.983 1687.95 633.207 C 1686.73 632.076 1685.39 630.941 1684.14 629.841 C 1678.11 628.609 1667.8 636.066 1662.32 639.437 C 1650.19 637.712 1639.83 636.417 1627.61 635.342 L 1621.91 616.907 C 1615.2 620.143 1609.64 622.843 1603.24 626.621 C 1592.02 618.886 1570.21 603.959 1561.07 595.193 C 1562.35 592.103 1566.33 583.164 1565.69 580.207 C 1557.14 578.679 1546.02 561.324 1539.35 553.592 C 1534.64 554.805 1528.45 556.907 1523.85 555.765 C 1518.98 551.712 1503.57 518.332 1502.5 511.758 C 1504.81 508.867 1517.43 503.206 1521.41 501.243 L 1519.64 487.055 C 1512.16 482.335 1501.53 476.795 1493.63 472.248 C 1492.7 462.67 1493.07 450.614 1493.24 440.905 C 1493.53 424.481 1508.32 433.652 1517.45 419.714 C 1515.69 417.298 1514.95 416.49 1514.05 413.536 C 1515.83 409.221 1558.49 385.348 1565.6 380.904 z" fill="rgb(22,45,61)" transform="translate(0,0)"></path>
<path d="M 1540.74 406.248 C 1543.54 408.628 1556.16 427.915 1556.89 431.884 C 1553.47 437.3 1547.88 431.057 1547.75 439.927 C 1554.93 442.465 1573.38 439.311 1582.04 442.718 C 1583.95 443.472 1587.43 444.555 1589.38 444.389 C 1592.3 440.326 1588.06 424.633 1586.97 419.318 C 1596.05 424.458 1604.95 430.132 1613.8 435.657 C 1615.08 444.339 1616.51 452.996 1618.1 461.625 C 1627.96 467.924 1649.51 490.815 1655.12 491.193 L 1655.51 489.15 C 1654.56 484.783 1651.66 481.558 1648.96 477.98 L 1661.29 471.244 C 1667.72 479.865 1674.02 489.682 1680.04 498.678 C 1674.4 500.888 1667.29 504.368 1661.65 506.94 C 1673.21 531.953 1682.78 557.026 1670.32 583.795 C 1668.06 586.978 1666.64 589.172 1663.55 591.656 C 1658.35 595.839 1646.19 598.213 1643.94 604.156 C 1646.66 606.876 1647.11 604.958 1651.63 606.835 C 1653.9 611.71 1656.66 624.835 1658.05 630.683 C 1650.17 629.895 1641.71 628.665 1633.81 627.669 C 1631 619.101 1628.37 608.816 1625.89 600.032 C 1606.97 593.049 1589.68 582.28 1575.07 568.385 C 1552.59 547.201 1531.45 511.032 1530.84 479.533 C 1530.51 462.465 1535.72 455.163 1546.58 443.69 C 1541.65 438.253 1530.44 422.066 1525.28 415.088 C 1529.14 412.495 1536.45 408.656 1540.74 406.248 z" fill="rgb(254,254,253)" transform="translate(0,0)"></path>
<path d="M 1575.56 467.181 C 1624.89 465.907 1681.83 552.048 1631.98 572.347 C 1582.76 581.236 1523.48 479.64 1575.56 467.181 z" fill="rgb(22,45,61)" transform="translate(0,0)"></path>
<path d="M 1573.92 476.164 C 1619.79 472.809 1665.99 544.431 1631.88 563.591 C 1590.54 572.145 1540.97 495.037 1573.92 476.164 z" fill="rgb(243,182,104)" transform="translate(0,0)"></path>
<path d="M 1686.07 456.798 L 1687.43 456.91 C 1692.72 460.137 1706.01 480.795 1710.17 486.933 C 1703.45 491.858 1698.36 495.753 1692.09 501.203 L 1691.36 501.507 C 1688.42 499.973 1671.27 471.971 1668.23 467.129 C 1673.76 463.696 1680.36 460.1 1686.07 456.798 z" fill="rgb(88,190,183)" transform="translate(0,0)"></path>
<path d="M 1642.09 426.821 C 1644.07 427.868 1644.48 431.072 1644.94 433.403 C 1647.21 444.762 1652.5 453.172 1659.86 461.981 C 1652.22 466.715 1650.31 467.12 1641.77 469.343 C 1636.28 464.761 1631.42 460.581 1625.47 456.595 C 1624.57 450.36 1623.99 443.791 1623.33 437.499 L 1642.09 426.821 z" fill="rgb(88,190,183)" transform="translate(0,0)"></path>
<path d="M 1564.64 390.875 C 1567.39 390.962 1582.36 404.405 1585.56 407.123 C 1573.32 416.613 1583.72 422.955 1580.78 431.953 C 1577.73 433.55 1577.51 432.707 1573.22 431.837 C 1565.56 431.525 1553 408.647 1548.09 401.299 C 1553.67 398.098 1559.22 394.376 1564.64 390.875 z" fill="rgb(88,190,183)" transform="translate(0,0)"></path>
<path d="M 1723.46 527.839 C 1727.23 529.941 1735.35 552.585 1737.89 558.382 C 1731.26 562.142 1724.07 566.854 1717.54 570.931 C 1715.9 571.818 1716.79 571.599 1714.73 571.316 C 1712.06 567.079 1707.17 545.255 1705.57 538.704 C 1711.32 535.523 1717.79 531.331 1723.46 527.839 z" fill="rgb(88,190,183)" transform="translate(0,0)"></path>
<path d="M 1615.07 398.801 C 1615.96 399.037 1639.56 415.014 1642.04 416.593 C 1634.88 420.519 1627.2 425.247 1620.1 429.415 C 1610.77 424.459 1600.52 418.448 1592.03 412.197 C 1599.09 408.754 1608.17 402.951 1615.07 398.801 z" fill="rgb(88,190,183)" transform="translate(0,0)"></path>
<path d="M 1502.39 440.607 L 1528.66 456.531 C 1527.22 465.271 1525.88 470.817 1525.98 479.692 C 1523.21 480.171 1505.45 469.276 1501.75 467.148 L 1502.39 440.607 z" fill="rgb(254,254,253)" transform="translate(0,0)"></path>
<path d="M 1512.12 516.74 C 1520.07 517.653 1527.51 517.764 1535.49 517.964 C 1539.11 526.129 1543.71 535.008 1547.72 543.071 L 1546.71 544.45 C 1540.59 545.16 1533.12 546.687 1526.94 547.801 L 1512.12 516.74 z" fill="rgb(254,254,253)" transform="translate(0,0)"></path>
<path d="M 1577.47 576.526 C 1586.47 583.826 1592.96 588.459 1602.71 594.796 C 1602.22 601.032 1601.55 607.251 1600.69 613.447 L 1599.2 614.2 C 1589.53 607.624 1579.93 600.248 1570.54 593.236 C 1572.53 587.897 1575.23 581.844 1577.47 576.526 z" fill="rgb(254,254,253)" transform="translate(0,0)"></path>
<path d="M 1707.78 585.089 C 1713.63 582.403 1716.18 580.877 1721.55 577.407 C 1724.28 584.123 1727.05 591.312 1730.27 597.76 L 1708.7 611.016 C 1703.89 603.689 1696.75 593.687 1689.64 588.35 L 1690.02 586.535 C 1693.55 588.924 1698.24 592.31 1701.88 594.278 C 1704.1 591.122 1706.02 588.53 1707.78 585.089 z" fill="rgb(88,190,183)" transform="translate(0,0)"></path>
<path d="M 1678.63 535.763 C 1685.26 537.412 1690.73 539.467 1697.14 541.785 C 1700.41 552.535 1703.43 563.363 1706.19 574.257 C 1699.76 571.544 1689.73 566.138 1683.19 562.884 C 1682.77 553.176 1681.14 545.077 1678.63 535.763 z" fill="rgb(254,254,253)" transform="translate(0,0)"></path>
<path d="M 1676.41 586.646 C 1685.08 595.302 1693.22 604.908 1702.44 614.031 L 1692.61 621.009 L 1689.5 622.415 C 1684.59 620.149 1673.15 602.548 1669.47 597.25 C 1671.7 594.304 1674.36 589.855 1676.41 586.646 z" fill="rgb(254,254,253)" transform="translate(0,0)"></path>
<path d="M 1686.96 514.924 C 1695.67 516.966 1707 520.9 1715.73 523.66 L 1701.37 531.814 C 1697.92 532.552 1677.72 527.774 1676.65 521.596 C 1678.42 518.294 1683.38 516.603 1686.96 514.924 z" fill="rgb(88,190,183)" transform="translate(0,0)"></path>
<path d="M 1661.23 609.587 C 1665.93 611.684 1675.58 616.1 1676.52 621.691 L 1674.67 623.422 L 1665.53 628.261 C 1663.98 622.314 1662.6 615.634 1661.23 609.587 z" fill="rgb(88,190,183)" transform="translate(0,0)"></path>
<path d="M 1548.09 551.514 C 1553.81 552.477 1564.63 567.148 1567.76 572.363 C 1560.77 571.729 1552.44 557.554 1548.09 551.514 z" fill="rgb(88,190,183)" transform="translate(0,0)"></path>
<path d="M 1522.98 426.861 C 1526.34 429.544 1534.46 441.156 1534.22 445.649 C 1530.43 442.018 1522.3 435.109 1521.24 430.058 C 1521.09 429.32 1522.4 427.74 1522.98 426.861 z" fill="rgb(88,190,183)" transform="translate(0,0)"></path>
<path d="M 1609.67 603.193 C 1613.1 604.439 1618 605.514 1619.44 608.271 L 1617.59 610.251 C 1614.82 611.784 1613.06 613.167 1609.98 612.998 C 1608.44 609.775 1609.32 607.166 1609.67 603.193 z" fill="rgb(88,190,183)" transform="translate(0,0)"></path>
<path d="M 1682.91 571.812 C 1687.83 572.596 1698.56 577.963 1700.04 583.181 C 1695.27 582.2 1686.78 575.126 1682.91 571.812 z" fill="rgb(225,226,221)" transform="translate(0,0)"></path>
<path d="M 1682.69 504.01 L 1682.92 505.69 C 1681.07 508.515 1674.83 512.132 1671.74 514.165 L 1671.48 513.008 C 1673.01 509.698 1679.1 506.489 1682.69 504.01 z" fill="rgb(225,226,221)" transform="translate(0,0)"></path>
<path d="M 1511.19 432.865 C 1514.49 433.407 1520.38 438.943 1520.94 442.076 C 1517.42 439.866 1513.56 437.714 1510.72 434.713 L 1511.19 432.865 z" fill="rgb(88,190,183)" transform="translate(0,0)"></path>
<path d="M 1689.64 588.35 C 1687.13 586.183 1683.23 583.254 1682.41 580.311 C 1685.5 581.523 1687.65 584.14 1690.02 586.535 L 1689.64 588.35 z" fill="rgb(95,118,116)" transform="translate(0,0)"></path>
<path d="M 1427.6 318.951 C 1427.8 322.24 1419.98 338.958 1418.74 344.539 C 1414.34 364.36 1412.66 386.372 1414.72 406.611 C 1424.83 506.087 1491.3 605.127 1566.13 668.43 C 1607.74 703.632 1664.29 736.658 1718.69 743.341 C 1733.33 745.139 1747.47 744.235 1762.03 742.96 L 1746.32 748.034 C 1739.87 749.445 1733.33 750.378 1726.75 750.823 C 1662.55 755.003 1590.65 710.203 1543.38 668.795 C 1472.8 606.954 1407.46 508.704 1399.45 413.305 C 1396.8 381.624 1406.06 343.287 1427.6 318.951 z" fill="rgb(88,190,183)" transform="translate(0,0)"></path>
<path d="M 1346.67 382.905 C 1348.15 383.591 1353.04 385.117 1354.83 385.717 C 1355.53 400.07 1357.1 414.368 1359.53 428.53 C 1329.23 442.572 1128.49 553.754 1119.16 554.448 C 1114.26 541.277 1108.53 527.464 1103.34 514.324 C 1160.1 482.225 1219.97 452.303 1277.16 420.768 C 1299.55 408.419 1325.06 395.926 1346.67 382.905 z" fill="rgb(254,254,253)" transform="translate(0,0)"></path>
<path d="M 1125.56 732.833 L 1126.73 732.935 C 1129.71 736.116 1148.85 787.828 1151.98 796.046 C 1145.15 799.872 1138.04 803.622 1131.09 807.229 C 1088.68 829.209 1047.19 854.334 1004.45 875.541 L 1003.07 875.451 C 1000.13 870.194 995.964 858.986 993.542 852.969 C 987.991 839.394 982.619 825.746 977.427 812.03 C 1025.39 788.764 1076.88 757.82 1125.56 732.833 z" fill="rgb(254,254,253)" transform="translate(0,0)"></path>
<path d="M 1081.01 613.06 C 1083.13 615.281 1102.91 668.409 1105.73 675.83 C 1058.34 703.942 1003.57 729.733 955.041 757.669 C 946.857 736.44 937.878 715.38 929.951 694.078 C 980.244 667.388 1030.48 638.814 1081.01 613.06 z" fill="rgb(254,254,253)" transform="translate(0,0)"></path>
<path d="M 1173.29 852.105 C 1175.69 853.217 1195.66 906.831 1199.18 914.35 C 1179.52 925.804 1158.56 936.358 1138.5 947.244 L 1052.4 994.401 C 1048.6 991.796 1028.69 939.846 1025.13 931.338 C 1074.1 907.367 1124.23 877.279 1173.29 852.105 z" fill="rgb(254,254,253)" transform="translate(0,0)"></path>
<path d="M 920.529 822.929 C 924.966 826.251 938.782 865.987 940.844 873.533 C 941.355 875.403 941.103 884.469 940.998 887.124 L 870.653 923.516 C 865.452 926.418 860.219 928.867 854.855 931.44 C 854.126 907.318 854.69 880.567 854.774 856.26 C 874.229 847.546 901.015 832.846 920.529 822.929 z" fill="rgb(254,254,253)" transform="translate(0,0)"></path>
<path d="M 1564.45 134.913 C 1566.11 135.98 1567.21 138.952 1567.91 140.774 C 1576.54 163.277 1585.55 185.674 1593.98 208.243 C 1594.73 210.247 1593.25 217.163 1592.77 219.549 C 1584.72 224.893 1552.39 243.048 1544.03 246.642 C 1533.6 219.218 1521.99 192.261 1511.89 164.903 L 1564.45 134.913 z" fill="rgb(88,190,183)" transform="translate(0,0)"></path>
<path d="M 1064.11 562.06 C 1071.28 564.65 1087.73 572.896 1095.91 576.428 C 1080.34 586.124 1053.74 599.283 1036.69 608.518 C 1003.35 626.895 969.892 645.04 936.304 662.952 L 920.027 671.462 C 916.972 663.012 913.138 654.16 909.694 645.807 C 961.388 618.301 1012.86 590.385 1064.11 562.06 z" fill="rgb(254,254,253)" transform="translate(0,0)"></path>
<path d="M 1109.77 682.916 C 1114.02 682.372 1137.06 693.881 1141.43 696.078 C 1122.98 706.823 1102.11 717.414 1083.18 727.599 L 981.791 782.078 L 967.706 789.607 L 957.732 764.572 C 971.756 756.188 991.134 746.636 1005.85 738.698 L 1109.77 682.916 z" fill="rgb(254,254,253)" transform="translate(0,0)"></path>
<path d="M 1879.08 738.173 C 1912.7 756.241 1921.38 768.911 1944.7 796.812 C 1929.41 804.284 1912.48 814.672 1897.6 823.362 L 1890.81 827.553 C 1872.55 806.135 1853.93 785.026 1834.96 764.236 L 1879.08 738.173 z" fill="rgb(88,190,183)" transform="translate(0,0)"></path>
<path d="M 1154.13 803.868 C 1160.15 804.621 1180.1 814.067 1186.56 817.013 C 1135.74 844.883 1084.6 872.185 1033.17 898.914 L 1016.19 907.598 C 1012.65 899.855 1009.28 891.517 1005.94 883.645 C 1023.47 875.588 1048.25 861.325 1065.5 851.812 C 1094.83 835.446 1124.38 819.463 1154.13 803.868 z" fill="rgb(254,254,253)" transform="translate(0,0)"></path>
<path d="M 1380.95 168.907 C 1383.02 170.58 1397.1 191.226 1399.29 194.405 C 1411.94 213.109 1424.85 231.634 1438.03 249.973 C 1428.42 253.191 1420.62 257.479 1412.23 263.149 C 1409.42 265.051 1402.31 270.575 1399.69 270.937 L 1397 268.356 C 1375.8 243.478 1354.34 218.825 1332.62 194.399 C 1345.65 189.165 1367.04 176.15 1380.95 168.907 z" fill="rgb(254,254,253)" transform="translate(0,0)"></path>
<path d="M 1939.37 460.932 L 1939.94 461.052 C 1943.16 463.913 1966.31 523.439 1968.94 531.478 C 1951.93 541.201 1935.01 551.098 1918.2 561.168 L 1916.55 561.833 C 1914.61 560.331 1891.91 500.908 1888.31 492.232 C 1903.54 483.969 1923.98 470.339 1939.37 460.932 z" fill="rgb(88,190,183)" transform="translate(0,0)"></path>
<path d="M 1812.23 283.105 C 1824.26 292.018 1857.52 323.631 1869.47 335.02 L 1818.42 363.461 C 1816.69 364.436 1815.16 365.103 1813.35 365.918 C 1809.01 364.925 1767.37 320.293 1761.4 313.624 L 1812.23 283.105 z" fill="rgb(88,190,183)" transform="translate(0,0)"></path>
<path d="M 1919.11 614.843 C 1921.44 614.889 1977.73 651.273 1983.14 655.783 C 1966.43 666.096 1949.53 676.105 1932.46 685.805 C 1930.16 685.616 1876.21 648.501 1868.25 643.385 C 1885.38 634.192 1902.34 624.676 1919.11 614.843 z" fill="rgb(88,190,183)" transform="translate(0,0)"></path>
<path d="M 1450.78 129.111 C 1456.45 131.523 1467.78 134.565 1474.07 136.441 C 1464.57 140.794 1442.28 149.862 1436.79 156.751 C 1435.41 163.522 1458.41 220.804 1462.29 232.195 C 1455.49 234.951 1449.41 239.145 1442.65 242.326 L 1441.23 241.433 C 1425.11 216.971 1405.47 187.537 1388.28 164.149 C 1407.23 152.795 1431.26 139.211 1450.78 129.111 z" fill="rgb(88,190,183)" transform="translate(0,0)"></path>
<path d="M 1725.84 211.244 C 1726.63 216.388 1721.52 269.651 1720.88 279.119 C 1702.15 289.3 1684.1 300.15 1665.49 310.393 C 1664.68 305.174 1668.61 252.206 1669.14 243.333 C 1687.31 232.497 1707.33 221.682 1725.84 211.244 z" fill="rgb(88,190,183)" transform="translate(0,0)"></path>
<path d="M 1663.19 171.855 C 1668.64 171.557 1712.75 199.577 1720.69 204.511 C 1702.11 214.539 1683.71 224.899 1665.5 235.587 C 1663.09 235.693 1614.96 204.926 1608.49 200.846 C 1622.55 192.249 1648.16 179.261 1663.19 171.855 z" fill="rgb(88,190,183)" transform="translate(0,0)"></path>
<path d="M 885.31 738.853 L 887.224 739.406 C 891.342 746.199 909.317 791.972 913.089 801.227 C 901.426 807.942 888.322 814.601 876.35 820.954 C 869.587 824.684 861.802 828.394 854.839 831.891 C 854.688 806.134 854.731 780.376 854.968 754.619 C 862.96 749.423 876.437 743.238 885.31 738.853 z" fill="rgb(254,254,253)" transform="translate(0,0)"></path>
<path d="M 1360.02 240.792 C 1360.21 240.791 1360.4 240.767 1360.59 240.787 C 1365.17 241.275 1388.96 271.29 1393.92 276.886 C 1383.61 288.067 1376.7 299.915 1369.69 313.225 C 1362.42 309.148 1355.17 305.029 1347.95 300.867 L 1301.23 273.836 C 1320.44 262.676 1340.59 251.676 1360.02 240.792 z" fill="rgb(88,190,183)" transform="translate(0,0)"></path>
<path d="M 1834.36 400.158 C 1838.99 404.667 1860.22 436.206 1865.15 443.38 C 1848.14 452.375 1827.36 465.038 1811.09 475.171 C 1809.49 473.906 1784.85 435.28 1780.19 429.057 C 1798.14 419.217 1816.2 409.583 1834.36 400.158 z" fill="rgb(88,190,183)" transform="translate(0,0)"></path>
<path d="M 1989.11 662.933 C 1989.92 667.87 1984.62 715.823 1983.76 724.173 C 1967.48 733.917 1946.12 744.538 1928.99 753.647 C 1927.98 750.146 1934.56 702.503 1935.23 694.762 C 1950.75 684.415 1972.63 672.522 1989.11 662.933 z" fill="rgb(88,190,183)" transform="translate(0,0)"></path>
<path d="M 1777.64 788.156 L 1778.35 788.213 C 1781.17 790.002 1817.07 842.398 1822.09 849.209 C 1813.15 854.998 1801.99 860.953 1792.59 866.259 L 1775.74 875.373 C 1768.49 847.957 1760.94 820.622 1753.1 793.372 C 1761.41 792.317 1769.62 790.572 1777.64 788.156 z" fill="rgb(88,190,183)" transform="translate(0,0)"></path>
<path d="M 1051.71 541.288 C 1054.43 544.175 1057.35 551.318 1059.15 555.186 C 1045.32 564.221 1022.76 575.42 1007.58 583.682 L 907.55 638.104 C 906.392 637.096 901.568 626.372 899.835 623.485 C 916.367 616.069 939.304 602.385 955.755 593.342 C 987.625 575.778 1019.61 558.427 1051.71 541.288 z" fill="rgb(254,254,253)" transform="translate(0,0)"></path>
<path d="M 1854.22 572.172 C 1873.28 573.083 1893.1 573.252 1912.23 573.664 C 1915.19 584.468 1916.78 594.599 1918.32 605.677 C 1911.88 609.346 1905.13 612.908 1898.6 616.454 C 1887.21 623.095 1875.73 629.595 1864.17 635.953 C 1862.28 608.686 1860.58 598.29 1854.22 572.172 z" fill="rgb(88,190,183)" transform="translate(0,0)"></path>
<path d="M 1723.56 287.999 C 1727.92 287.998 1748.78 304.286 1753.95 308.101 C 1743.15 315.423 1716.89 339.281 1708.34 343.72 L 1706.46 342.836 L 1671.99 316.24 C 1688.19 308.372 1706.54 296.665 1723.56 287.999 z" fill="rgb(88,190,183)" transform="translate(0,0)"></path>
<path d="M 1870.72 450.089 C 1887.68 453.316 1911.67 454.947 1929.68 457.476 C 1920.38 462.698 1885.22 486.367 1877.75 485.757 C 1857.41 484.111 1836.71 482.133 1816.35 481.722 C 1833.4 471.322 1853.25 459.519 1870.72 450.089 z" fill="rgb(88,190,183)" transform="translate(0,0)"></path>
<path d="M 1154.73 715.967 C 1157.61 719.379 1188.06 799.385 1192.08 810.942 L 1178.42 804.931 L 1161.11 797.295 C 1153.46 774.745 1143.57 749.912 1134.52 727.912 C 1140.51 723.85 1148.33 719.626 1154.73 715.967 z" fill="rgb(254,254,253)" transform="translate(0,0)"></path>
<path d="M 1109.19 598.041 C 1111.84 599.701 1141.14 678.706 1144.32 688.308 L 1132 683.021 C 1126.37 680.473 1120.51 678.224 1114.77 675.935 C 1106.42 657.476 1096.36 628.086 1088.97 608.581 L 1109.19 598.041 z" fill="rgb(254,254,253)" transform="translate(0,0)"></path>
<path d="M 1200.64 837.999 L 1201.74 838.196 C 1205.4 842.447 1234.24 919.343 1238.27 929.568 L 1228.07 925.066 L 1208.85 915.618 C 1200.57 897.205 1189.22 866.608 1182.41 847.304 C 1189.36 843.23 1193.21 840.985 1200.64 837.999 z" fill="rgb(254,254,253)" transform="translate(0,0)"></path>
<path d="M 1101.54 582.817 C 1102.65 582.851 1103.13 583.305 1104.19 583.873 C 1106.01 587.067 1105.77 585.681 1105.31 589.092 C 1102.35 593.353 947.266 676.074 929.264 686.094 C 927.022 685.936 927.68 685.938 925.574 684.223 C 924.21 680.776 924.265 682.215 925.227 678.797 C 929.669 673.13 1086.49 590.316 1101.54 582.817 z" fill="rgb(254,254,253)" transform="translate(0,0)"></path>
<path d="M 1194.54 820.914 C 1197.77 823.629 1197.28 824.504 1198.97 829.058 C 1142.01 861.102 1081.94 892.208 1024.35 923.436 L 1022.96 922.834 C 1021.42 920.391 1020.13 918.913 1020.29 915.996 C 1024.65 911.314 1079.57 883.378 1088.56 878.344 C 1122.85 859.153 1160.67 840.779 1194.54 820.914 z" fill="rgb(254,254,253)" transform="translate(0,0)"></path>
<path d="M 1147.86 701.988 L 1150.18 702.617 C 1152.2 704.753 1151.69 703.618 1151.63 707.324 C 1147.89 713.264 1106.99 733.375 1097.98 738.267 L 974.886 804.981 C 973.409 803.726 971.644 799.021 970.776 797.02 L 1088.01 733.858 C 1105.99 724.198 1129.76 710.142 1147.86 701.988 z" fill="rgb(254,254,253)" transform="translate(0,0)"></path>
<path d="M 1644.2 776.447 C 1653.58 781.122 1666.97 785.733 1677.28 787.635 L 1684.33 814.891 C 1678.35 818.599 1670.79 822.466 1664.51 825.87 L 1636.94 841.046 C 1639.83 819.928 1641.91 797.705 1644.2 776.447 z" fill="rgb(88,190,183)" transform="translate(0,0)"></path>
<path d="M 1511.32 127.081 C 1521.16 128.79 1544.84 129.779 1555.59 130.427 C 1546.13 135.053 1510.29 158.24 1503.94 157.465 C 1491.49 157.073 1469.48 155.84 1457.23 154.349 C 1475.46 145.173 1492.49 135.343 1511.32 127.081 z" fill="rgb(88,190,183)" transform="translate(0,0)"></path>
<path d="M 1858.46 350.939 L 1859.16 351.487 C 1859.21 354.463 1836.59 386.042 1833.1 391.076 C 1818.4 397.584 1798.21 409.543 1784 417.623 C 1783.87 417.048 1783.75 416.473 1783.63 415.898 C 1787.7 409.166 1806.42 383.474 1812.33 378.451 C 1823.14 369.261 1845.29 358.503 1858.46 350.939 z" fill="rgb(88,190,183)" transform="translate(0,0)"></path>
<path d="M 1049.88 511.944 C 1053.28 512.751 1076.87 522.846 1082.07 524.932 C 1088.08 539.425 1093.54 554.143 1098.43 569.054 C 1088.12 564.338 1077.88 559.483 1067.7 554.492 C 1062.08 540.887 1054.6 525.463 1049.88 511.944 z" fill="rgb(254,254,253)" transform="translate(0,0)"></path>
<path d="M 939.38 895.887 C 940.481 896.134 940.333 896.385 941.41 897.457 L 940.945 901.406 C 937.206 906.572 867.679 941.253 856.708 946.442 L 855.773 946.356 C 854.681 944.3 854.898 943.968 855.235 941.533 C 856.615 939.36 859.969 936.923 862.246 935.849 C 888.471 923.477 913.807 909.57 939.38 895.887 z" fill="rgb(254,254,253)" transform="translate(0,0)"></path>
<path d="M 1590.01 231.01 L 1590.47 231.429 C 1591.51 234.049 1587.67 260.85 1587.07 265.671 L 1565.75 257.097 C 1561.49 255.513 1556.82 253.485 1552.57 251.754 C 1563.45 246.502 1579.01 237.154 1590.01 231.01 z" fill="rgb(88,190,183)" transform="translate(0,0)"></path>
<path d="M 1851.13 719.426 L 1871.95 732.335 C 1862.34 737.544 1851.27 744.451 1841.72 750.082 C 1838.06 752.375 1830.88 755.975 1826.86 758.16 C 1837.76 743.321 1842.93 736.117 1851.13 719.426 z" fill="rgb(88,190,183)" transform="translate(0,0)"></path>
<path d="M 915.645 808.984 C 916.819 810.199 917.339 811.937 917.978 813.536 C 917.741 814.105 917.456 814.791 917.122 815.593 C 901.088 824.916 872.516 839.038 856.721 847.081 L 855.76 846.765 C 854.433 844.198 854.747 845.3 855.36 841.726 C 860.274 836.23 906.306 813.751 915.645 808.984 z" fill="rgb(254,254,253)" transform="translate(0,0)"></path>
<path d="M 1930.58 813.943 L 1931.54 814.994 C 1908.63 839.315 1897.02 842.996 1868.22 858.918 L 1867.96 858.763 L 1867.97 857.676 C 1893.91 834.795 1900.48 831.158 1930.58 813.943 z" fill="rgb(88,190,183)" transform="translate(0,0)"></path>
<path d="M 1074.64 494.134 C 1078.56 496.449 1088.93 504.42 1093.7 507.68 C 1090.39 509.533 1080.71 515.625 1077.68 515.187 C 1070.04 511.782 1062.33 508.548 1054.55 505.486 C 1060.95 501.64 1068.09 497.813 1074.64 494.134 z" fill="rgb(254,254,253)" transform="translate(0,0)"></path>
<path d="M 1525.35 700.716 C 1528.12 701.628 1535 708.367 1537.46 710.635 C 1525.79 716.582 1515.89 722.258 1504.58 728.914 L 1493.43 735.483 C 1503.97 723.806 1514.62 712.217 1525.35 700.716 z" fill="rgb(88,190,183)" transform="translate(0,0)"></path>
<path d="M 1364.91 456.829 L 1366.71 457.632 C 1368.47 463.018 1370.13 468.435 1371.7 473.882 C 1361.32 473.958 1350.94 474.287 1340.58 474.867 C 1338.49 474.902 1336.15 474.712 1334.04 474.592 C 1334.05 474.582 1362.27 458.376 1364.91 456.829 z" fill="rgb(88,190,183)" transform="translate(0,0)"></path>
<path d="M 872.902 705.909 C 875.495 707.911 876.934 712.964 878.183 716.242 C 871.542 719.527 864.853 723.639 858.443 727.423 C 857.134 728.195 857.678 727.959 856.078 728.089 C 854.37 725.126 854.847 718.975 854.826 715.232 C 860.21 712.134 867.256 708.779 872.902 705.909 z" fill="rgb(254,254,253)" transform="translate(0,0)"></path>
<path d="M 872.003 618.757 C 876.316 618.473 887.478 624.856 891.956 627.114 C 888.406 629.228 884.166 632.288 880.68 634.656 C 873.447 631.94 865.266 629.577 857.826 627.269 C 862.027 624.396 867.537 621.37 872.003 618.757 z" fill="rgb(254,254,253)" transform="translate(0,0)"></path>
<path d="M 880.62 723.974 C 885.559 728.255 882.421 731.481 877.965 733.945 C 871.26 737.653 864.259 740.944 857.373 744.323 L 855.899 744.661 C 854.691 742.886 855.082 741.781 855.268 739.487 C 858.457 733.846 874.213 727.12 880.62 723.974 z" fill="rgb(254,254,253)" transform="translate(0,0)"></path>
<path d="M 239.432 533.579 C 202.997 513.843 166.445 494.327 129.776 475.03 C 123.524 471.724 77.1939 448.324 75.0452 444.899 C 75.2383 441.141 74.7158 442.481 76.7875 439.659 C 83.728 439.23 114.034 456.829 122.37 461.282 L 184.376 494.266 L 227.247 517.121 C 235.09 521.305 246.524 526.991 253.473 531.942 C 253.538 533.445 253.9 535.292 252.506 536.082 C 198.633 566.611 112.236 612.75 60.5596 640.684 C 101.234 661.801 398.414 817.095 402.806 822.579 C 402.47 825.059 402.57 826.369 399.957 828.053 C 392.439 832.9 383.539 837.345 375.656 841.528 C 360.614 849.521 345.616 857.597 330.663 865.755 L 125.48 976.045 L 66.8548 1007.34 C 58.9408 1011.56 43.0892 1019.43 36.5953 1024 L 22.2798 1024 C 25.3829 1018.2 62.5339 999.995 70.3147 995.846 L 147.961 954.131 L 389.345 824.209 L 181.412 714.238 C 146.815 696.331 112.39 678.096 78.1396 659.536 C 70.2305 655.162 52.774 647.99 47.7744 641.375 L 47.589 639.215 C 56.6662 632.225 89.2204 615.46 100.676 609.256 C 126.973 594.805 153.366 580.529 179.852 566.428 C 199.099 556.112 221.005 544.894 239.432 533.579 z" fill="rgb(22,45,61)" transform="translate(0,0)"></path>
<path d="M 1017.79 41.1891 C 1022.35 40.9689 1024.88 42.1591 1024.96 46.6259 C 1016.19 65.9443 981.73 80.0201 965.283 89.3925 C 946.336 100.389 927.273 111.184 908.097 121.777 C 911.212 130.472 915.004 145.984 906.835 153.466 C 899.066 160.582 885.67 166.566 876.098 172.004 C 832.65 196.685 789.508 221.945 745.713 246.008 C 744.813 251.282 745.415 257.803 742.179 262.272 C 737.459 268.792 725.664 275.251 721.059 281.188 C 720.161 285.222 721.526 287.393 722.918 291.638 C 720.829 297.035 711.935 305.597 707.932 311.253 C 690.464 335.944 673.535 373.666 646.737 388.528 C 631.917 396.746 613.056 388.853 598.145 383.885 C 604.021 409.392 612.552 434.213 623.599 457.943 C 634.51 481.96 653.602 512.48 659.002 537.402 C 661.244 547.753 656.29 571.43 654.151 582.502 C 676.287 569.712 701.119 557.245 723.838 545.183 C 775.055 518.435 825.976 491.123 876.591 463.252 L 747.37 393.723 C 733.82 386.476 720.214 379.415 706.534 372.421 C 702.228 370.22 700.043 367.651 700.495 362.759 L 702.289 361.698 C 706.186 361.985 750.568 386.474 757.362 390.036 C 785.015 404.488 812.524 419.215 839.884 434.217 C 846.931 438.011 888.559 459.179 890.64 463.212 C 890.437 463.743 890.19 464.388 889.898 465.149 C 875.746 473.676 855.584 484.053 841.577 491.553 L 733.036 549.463 C 706.754 563.393 677.829 578.263 652.323 593.199 C 647.149 618.39 643.719 644.607 638.282 669.641 C 644.981 674.75 654.368 683.484 661.334 689.267 C 667.605 694.742 684.888 709.388 673.884 719.403 C 655.359 736.262 625.624 723.609 607.286 712.772 C 600.947 709.025 586.417 704.375 585.02 694.727 C 584.636 672.863 591.804 647.021 590.797 625.515 C 574.432 634.455 549.781 647.417 534.587 657.338 C 531.718 667.466 527.88 679.692 525.993 689.902 C 523.246 704.756 528.196 710.044 513.877 720.594 C 517.789 724.519 521.581 728.423 525.968 732.398 C 535.86 741.361 571.956 767.363 548.53 780.518 C 524.575 793.97 494.264 775.213 474.578 761.574 C 458.632 752.735 471.478 728.077 468.301 718.799 C 460.796 696.883 469.813 693.996 470.784 670.47 C 474.053 591.291 483.692 511.605 476.191 432.455 C 474.625 415.936 476.189 397.989 474.384 381.374 C 469.877 336.148 448.008 271.301 493.308 239.645 C 498.352 236.121 503.007 230.902 507.042 226.137 C 434.029 172.123 505.643 107.414 551.429 142.945 C 562.909 138.25 577.025 132.463 588.852 129.353 C 595.076 131.04 602.394 132.207 604.739 138.734 C 602.856 147.856 572.806 157.254 565.591 162.046 C 558.185 166.966 577.317 183.157 581.309 187.454 C 570.453 202.602 585.548 215.677 571.258 226.18 C 590.229 239.848 606.475 260.828 627.728 277.898 C 629.405 273.136 631.703 265.643 634.686 261.815 C 643.136 250.975 659.063 243.697 671.444 237.235 C 669.782 233.6 668.358 231.261 668.511 227.273 C 670.13 222.033 700.4 205.687 706.931 201.842 C 707.974 193.528 708.734 184.067 714.823 177.679 C 722.506 169.62 843.767 100.757 860.329 93.3055 C 863.821 91.7346 866.629 91.0751 870.479 91.088 C 881.457 91.1248 890.053 97.2034 897.54 104.581 C 925.195 89.0209 953.258 74.9534 979.163 56.7082 C 989.131 49.6875 1006.04 44.2938 1017.79 41.1891 z" fill="rgb(22,45,61)" transform="translate(0,0)"></path>
<path d="M 579.904 407.374 C 581.168 411.45 580.164 426.104 579.921 431.217 C 577.864 432.482 576.403 433.635 574.518 435.097 C 573.786 437.998 573.485 437.29 574.47 439.465 C 576.181 438.943 577.209 438.394 578.882 438.94 C 578.959 448.708 573.921 472.181 571.838 482.971 C 557.7 556.222 534.388 627.011 514.661 698.863 C 500.823 705.06 490.306 705.842 477.358 697.383 C 480.285 629.94 486.219 561.121 487.666 493.529 C 488.157 470.583 484.154 440.078 483.441 415.766 C 512.907 436.341 552.182 424.583 579.904 407.374 z" fill="rgb(88,190,183)" transform="translate(0,0)"></path>
<path d="M 495.757 433.816 C 500.791 434.007 513.109 438.485 520.477 438.736 C 531.441 439.11 541.769 441.276 551.002 433.869 L 551.471 433.485 C 561.466 437.342 554.685 495.27 502.924 475.239 C 499.187 473.166 498.762 472.848 496.705 469.12 L 497.615 467.693 C 503.617 467.575 511.011 472.653 518.189 473.301 C 540.682 475.333 547.319 462.127 549.44 442.204 C 536.1 444.958 502.228 449.448 495.757 433.816 z" fill="rgb(22,45,61)" transform="translate(0,0)"></path>
<path d="M 487.232 611.359 C 488.561 611.675 489.248 612.306 490.356 613.095 C 491.804 616.488 490.566 620.111 489.765 623.786 C 486.374 622.536 487.382 623.433 485.756 620.586 C 485.337 616.798 486.125 614.994 487.232 611.359 z" fill="rgb(22,45,61)" transform="translate(0,0)"></path>
<path d="M 485.514 626.227 L 488.678 627.458 C 490.444 630.482 489.218 635.254 488.697 638.931 L 485.728 637.745 C 484.002 634.507 485.05 630.011 485.514 626.227 z" fill="rgb(22,45,61)" transform="translate(0,0)"></path>
<path d="M 488.827 584.232 C 490.077 584.836 490.594 585.312 491.699 586.128 C 493.115 589.553 492.046 592.929 491.364 596.649 C 490.083 595.917 489.257 594.96 488.21 593.921 C 486.877 590.469 487.931 587.859 488.827 584.232 z" fill="rgb(22,45,61)" transform="translate(0,0)"></path>
<path d="M 482.9 681.321 C 485.359 682.598 484.52 681.977 486.104 684.473 C 486.613 688.182 485.928 689.902 484.959 693.505 L 482.468 691.614 C 481.173 687.95 482.123 685.153 482.9 681.321 z" fill="rgb(22,45,61)" transform="translate(0,0)"></path>
<path d="M 599.404 414.819 C 605.066 432.639 611.849 450.083 619.714 467.046 C 628.907 487.188 649.774 522.079 652.268 542.23 C 653.479 552.015 646.348 589.109 643.806 599.746 C 640.392 614.033 637.465 638.121 633.695 651.591 C 619.523 656.586 613.131 656.295 598.322 651.33 C 598.36 619.957 599.128 586.797 598.715 555.613 C 588.692 544.352 580.642 532.442 571.355 521.682 C 577.331 493.06 583.463 461.271 586.456 432.143 C 591.3 427.139 597.331 422.506 597.783 415.938 L 599.404 414.819 z" fill="rgb(88,190,183)" transform="translate(0,0)"></path>
<path d="M 683.183 282.347 C 691.307 286.959 700.535 293.671 708.349 299.06 L 707.022 301.201 C 694.651 320.935 659.569 379.425 638.167 384.733 C 613.202 390.923 456.071 314.961 538.677 287.823 C 558.084 281.448 605.053 316.298 622.111 328.866 C 626.001 331.911 632.714 337.03 635.402 340.957 C 637.52 343.506 639.219 346.391 642.749 345.692 C 643.322 340.265 638.23 335.535 634.837 331.847 C 650.195 315.467 667.383 298.463 683.183 282.347 z" fill="rgb(254,254,253)" transform="translate(0,0)"></path>
<path d="M 622.111 328.866 C 626.001 331.911 632.714 337.03 635.402 340.957 L 634.125 343.163 C 632.749 344.555 633.584 344.061 631.388 344.369 C 627.265 342.151 620.352 338.171 618.607 333.632 L 620.077 331.593 L 622.111 328.866 z" fill="rgb(22,45,61)" transform="translate(0,0)"></path>
<path d="M 622.111 328.866 C 626.001 331.911 632.714 337.03 635.402 340.957 L 634.125 343.163 C 632.645 338.34 624.303 333.78 620.077 331.593 L 622.111 328.866 z" fill="rgb(225,226,221)" transform="translate(0,0)"></path>
<path d="M 501.148 276.167 C 515.029 274.879 520.961 277.197 533.358 282.084 C 477.465 309.497 528.667 347.334 559.855 364.292 C 565.151 367.171 578.747 373.817 582.444 377.338 C 581.234 382.447 571.436 388.083 566.648 391.453 C 559.934 395.455 546.898 400.397 539.19 401.859 C 515.598 406.333 503.051 404.109 483.228 391.359 C 482.602 378.851 479.225 360.956 477.294 348.047 C 474.336 328.261 472.997 313.774 473.06 293.844 C 481.792 283.091 488.065 279.221 501.148 276.167 z" fill="rgb(233,146,117)" transform="translate(0,0)"></path>
<path d="M 569.093 530.835 C 571.098 532.503 585.969 552.468 591.848 558.372 C 591.73 577.571 591.363 596.768 590.75 615.959 L 556.169 634.917 L 538.044 644.52 C 549.751 608.194 560.235 568.022 569.093 530.835 z" fill="rgb(254,254,253)" transform="translate(0,0)"></path>
<path d="M 529.593 178.21 C 536.305 174.575 548.945 166.077 555.68 166.719 C 561.95 170.131 559.215 172.926 562.146 177.396 C 565.348 182.28 574.04 183.547 573.532 190.441 C 567.726 196.905 575.392 211.607 571.113 218.429 C 567.375 224.388 544.491 226.551 542.057 231.776 L 543.069 233.219 C 545.522 233.583 547.019 233.823 549.543 233.878 C 551.926 236.301 552.902 240.906 553.922 244.302 L 549.108 252.588 C 537.061 248.982 525.256 245.365 514.675 238.303 C 516.806 230.616 518.961 222.127 521.793 214.742 L 525.364 213.34 C 525.957 209.296 523.07 208.268 519.566 206.772 L 519.236 203.983 C 520.608 200.827 519.709 201.926 522.966 199.978 C 525.89 201.543 526.488 201.737 529.191 200.506 C 529.588 196.667 529.338 197.638 527.082 193.67 L 528.588 192.626 C 532.451 191.079 532.478 191.793 534.332 188.892 C 534.266 185.341 531.47 181.41 529.593 178.21 z" fill="rgb(254,254,253)" transform="translate(0,0)"></path>
<path d="M 863.318 98.0433 C 886.703 94.1649 908.692 120.7 905.147 143.006 C 904.003 150.205 889.465 156.075 883.198 159.33 C 880.926 160.61 879.381 161.179 876.992 162.123 C 875.129 160.221 876.338 157.864 875.816 154.987 C 871.896 133.394 860.842 119.836 841.909 109.806 C 849.014 106.061 856.262 101.933 863.318 98.0433 z" fill="rgb(233,146,117)" transform="translate(0,0)"></path>
<path d="M 484.122 189.831 C 483.325 185.072 482.592 180.578 482.666 175.722 C 482.751 166.156 486.648 157.018 493.493 150.334 C 510.259 134.123 535.455 135.47 551.36 152.33 L 556.528 158.462 C 554.821 159.768 548.418 161.296 545.963 161.979 C 542.336 155.739 535.546 143.189 527.272 145.835 C 526.559 148.335 527.463 148.559 529.551 150.688 C 534.311 155.539 537.018 159.42 540.13 165.332 C 527.67 172.773 497.233 187.365 484.122 189.831 z" fill="rgb(243,182,104)" transform="translate(0,0)"></path>
<path d="M 672.888 243.96 C 675.403 243.743 681.041 247.823 685.761 249.616 C 674.226 256.18 659.212 265.788 648.428 273.378 L 647.416 281.911 C 648.426 284.338 649.45 286.76 650.488 289.176 C 653.2 295.446 652.555 295.582 657.927 297.707 C 657.858 300.842 635.095 322.734 631.242 327.046 C 622.221 320.382 612.635 313.558 604.123 306.319 C 611.031 307.739 614.252 309.702 620.426 312.905 C 625.75 302.435 633.774 276.557 638.933 263.335 C 648.959 256.847 662.011 248.062 672.888 243.96 z" fill="rgb(254,254,253)" transform="translate(0,0)"></path>
<path d="M 844.671 136.921 C 849.031 139.057 852.49 147.921 854.393 152.434 L 777.513 197.196 C 776.763 196.647 768.976 183.863 767.227 181.516 C 789.465 167.224 821.216 149.158 844.671 136.921 z" fill="rgb(254,254,253)" transform="translate(0,0)"></path>
<path d="M 821.451 122.929 C 828.152 124.581 834.102 127.712 840.118 130.961 C 816.524 145.395 786.85 160.543 764.422 175.496 C 761.859 175.815 751.195 168.182 747.631 166.036 C 770.164 151.386 797.936 136.002 821.451 122.929 z" fill="rgb(254,254,253)" transform="translate(0,0)"></path>
<path d="M 474.903 720.139 C 482.586 722.958 485.404 723.847 493.443 725.195 C 492.173 727.432 490.206 730.926 490.703 733.422 C 492.561 742.765 509.846 752.686 517.444 757.906 C 521.804 751.374 523.365 750.347 530.352 746.562 C 537.021 750.95 541.468 753.604 546.213 760.086 C 546.693 761.185 546.445 760.803 546.068 762.436 C 521.076 779.559 494.468 758.12 473.932 743.05 C 474.712 734.9 474.828 728.348 474.903 720.139 z" fill="rgb(243,182,104)" transform="translate(0,0)"></path>
<path d="M 594.4 672.92 C 605.15 676.97 607.581 675.655 617.161 678.368 L 616.832 681.749 C 619.857 686.931 628.801 696.178 635.074 697.633 C 643.225 699.523 646.805 695.854 653.688 691.558 C 658.528 695.427 664.261 699.648 668.258 704.288 C 646.81 719.106 630.64 709.197 610.406 697.952 C 603.863 694.316 597.616 690.428 591.399 686.226 C 592.253 681.639 593.29 677.436 594.4 672.92 z" fill="rgb(243,182,104)" transform="translate(0,0)"></path>
<path d="M 562.142 229.644 C 581.547 232.09 592.428 277.158 598.047 292.79 C 599.228 296.077 600.588 300.959 600.921 304.459 L 600.008 304.805 L 594.879 301.5 C 587.049 296.105 577.09 290.878 568.657 286.588 C 560.044 249.273 571.499 264.755 575.865 254.502 C 575.042 244.456 567.015 239.444 562.485 230.35 L 562.142 229.644 z" fill="rgb(233,146,117)" transform="translate(0,0)"></path>
<path d="M 854.84 159.843 L 856.105 161.131 C 856.719 165.251 855.649 170.398 855.015 174.614 C 832.718 189.15 803.097 205.174 779.624 218.056 C 779.355 213.511 778.792 209.027 778.271 204.506 L 854.84 159.843 z" fill="rgb(254,254,253)" transform="translate(0,0)"></path>
<path d="M 723.662 181.06 C 749.811 180.757 763.941 206.174 757.226 230.219 C 754.803 232.173 750.882 234.624 748.187 236.42 C 745.907 233.746 743.253 231.261 740.73 228.797 L 738.073 225.811 C 737.553 220.745 748.967 216.805 745.032 206.051 C 738.05 186.964 722.488 202.984 714.877 199.432 C 711.587 192.076 717.309 184.508 723.662 181.06 z" fill="rgb(233,146,117)" transform="translate(0,0)"></path>
<path d="M 496.548 243.792 C 498.079 245.456 498.959 249.428 502.487 252.543 C 517.282 265.611 535.147 271.159 552.295 282.383 C 543.327 280.063 530.998 274.455 520.839 271.383 C 500.349 267.597 487.66 271.022 472.693 285.62 C 476.76 266.042 480.893 256.771 496.548 243.792 z" fill="rgb(233,146,117)" transform="translate(0,0)"></path>
<path d="M 717.208 238.115 L 719.658 239.01 C 722.083 242.502 719.265 242.431 720.957 247.441 C 725.576 250.124 728.1 243.108 732.585 244.563 C 753.231 251.265 725.041 270.574 719.937 273.824 C 714.784 276.501 714.926 280.142 708.719 279.57 C 704.663 276.433 700.517 274.109 696.119 271.514 C 708.604 261.462 712.378 252.629 717.208 238.115 z" fill="rgb(254,254,253)" transform="translate(0,0)"></path>
<path d="M 711.833 205.668 L 714.501 206.139 C 716.91 208.282 717.961 215.489 721.331 221.341 C 710.638 228.045 699.151 235.44 688.133 241.422 C 685.613 235.985 681.822 231.601 677.628 227.438 C 689.403 219.972 700.295 213.791 711.833 205.668 z" fill="rgb(88,190,183)" transform="translate(0,0)"></path>
<path d="M 690.43 253.874 C 693.838 255.817 696.452 263.009 694.72 267.136 C 690.59 269.399 685.832 266.518 684.202 268.751 C 677.583 277.816 670.887 285.123 662.557 292.644 L 653.222 278.547 C 659.721 272.844 682.011 259.232 690.43 253.874 z" fill="rgb(88,190,183)" transform="translate(0,0)"></path>
<path d="M 736.406 170.776 C 754.627 171.512 776.176 200.825 771.753 218.782 C 770.432 224.145 769.412 224.293 765.209 227.065 C 770.164 201.451 755.16 180.795 730.48 174.504 L 736.406 170.776 z" fill="rgb(254,254,253)" transform="translate(0,0)"></path>
<path d="M 834.516 113.95 C 852.09 120.56 882.927 155.437 863.84 170.718 C 864.649 145.29 851.597 128.852 830.062 117.869 C 830.656 116.01 832.538 115.304 834.516 113.95 z" fill="rgb(254,254,253)" transform="translate(0,0)"></path>
<path d="M 972.958 70.9142 L 974.717 73.0689 L 974.507 74.8321 C 957.691 86.414 924.017 104.305 905.348 114.778 C 903.987 113.166 903.949 112.881 903.16 110.889 C 905.052 108.353 965.31 75.1974 972.958 70.9142 z" fill="rgb(254,254,253)" transform="translate(0,0)"></path>
<path d="M 555.515 149.149 C 564.976 143.874 584.369 134.713 594.75 138.593 L 595.296 139.668 C 591.039 142.712 564.344 157.039 560.681 156.208 L 556.528 158.462 L 551.36 152.33 L 555.515 149.149 z" fill="rgb(243,182,104)" transform="translate(0,0)"></path>
<path d="M 555.515 149.149 L 560.681 156.208 L 556.528 158.462 L 551.36 152.33 L 555.515 149.149 z" fill="rgb(7,30,48)" transform="translate(0,0)"></path>
<path d="M 612.561 273.603 L 625.206 284.535 C 623.752 288.811 620.318 301.355 617.289 303.255 C 611.927 298.953 606.762 295.236 602.702 289.673 C 607.04 283.936 609.8 280.28 612.561 273.603 z" fill="rgb(254,254,253)" transform="translate(0,0)"></path>
<path d="M 470.99 700.548 C 482.698 709.476 492.563 713.051 507.713 709.452 C 510.679 708.748 514.387 706.517 517.062 706.602 L 517.004 711.154 C 505.107 719.647 485.142 722.113 473.652 711.255 C 470.388 708.17 470.937 704.823 470.99 700.548 z" fill="rgb(254,254,253)" transform="translate(0,0)"></path>
<path d="M 504.792 189.216 C 500.014 202.682 505.826 207.174 516.228 213.686 C 515.242 216.629 514.839 218.411 512.845 220.868 C 509.267 220.678 509.062 219.594 505.611 217.009 C 496.123 208.437 493.979 206.06 487.483 195.048 C 493.273 193.165 499.043 191.221 504.792 189.216 z" fill="rgb(59,161,156)" transform="translate(0,0)"></path>
<path d="M 592.73 655.541 C 615.132 664.796 609.64 664.232 632.997 660.123 C 633.868 661.59 632.867 663.802 632.376 665.949 C 619.964 673.111 594.865 674.645 592.73 655.541 z" fill="rgb(254,254,253)" transform="translate(0,0)"></path>
<path d="M 1011.33 49.9835 L 1012.46 50.8177 C 1008.41 57.3615 989.24 69.4938 982.199 73.3514 C 980.222 70.2391 978.611 68.1527 978.758 64.86 C 984.508 59.7084 1003.34 53.0804 1011.33 49.9835 z" fill="rgb(88,190,183)" transform="translate(0,0)"></path>
<path d="M 509.523 231.835 C 511.609 233.899 507.062 237.365 509.652 241.667 C 517.229 254.254 538.857 256.896 550.998 260.589 C 552.329 262.964 552.203 261.932 551.661 264.376 L 550.13 263.82 C 546.901 262.148 546.276 262.019 542.809 261.291 C 539.734 262.744 539.217 262.929 535.898 263.64 C 527.76 261.72 506.489 248.09 505.266 239.096 C 505.85 235.317 506.891 234.604 509.523 231.835 z" fill="rgb(254,254,253)" transform="translate(0,0)"></path>
<path d="M 585.718 403.215 C 590.324 400.136 591.211 399.073 594.732 394.755 C 596.179 401.469 597.736 408.157 599.404 414.819 L 597.783 415.938 C 593.479 416.287 589.125 422.275 585.957 425.704 C 586.491 416.979 586.295 411.979 585.718 403.215 z" fill="rgb(88,190,183)" transform="translate(0,0)"></path>
<path d="M 729.192 202.815 C 731.908 202.18 734.755 203.06 736.639 205.117 C 738.523 207.174 739.151 210.087 738.281 212.737 C 737.411 215.387 735.178 217.362 732.442 217.901 C 728.311 218.716 724.29 216.07 723.404 211.955 C 722.517 207.839 725.092 203.773 729.192 202.815 z" fill="rgb(254,254,253)" transform="translate(0,0)"></path>
<path d="M 695.296 244.353 L 710.756 234.746 L 711.474 235.687 C 710.191 237.852 710.081 241.095 708.967 244.093 C 706.856 249.777 704.094 253.606 700.681 258.562 C 699.116 253.691 697.759 248.839 695.296 244.353 z" fill="rgb(88,190,183)" transform="translate(0,0)"></path>
<path d="M 473.652 751.992 C 477.583 753.014 499.679 768.765 509.631 772.539 C 525.434 778.533 531.422 777.103 547.943 770.329 L 549.482 771.569 C 525.593 788.157 492.046 769.14 473.652 751.992 z" fill="rgb(225,226,221)" transform="translate(0,0)"></path>
<path d="M 593.732 255.941 C 598.306 259.512 604.538 265.282 609.08 269.22 L 603.454 278.609 L 602.039 280.04 L 600.915 279.656 C 598.667 274.464 594.013 261.298 593.732 255.941 z" fill="rgb(254,254,253)" transform="translate(0,0)"></path>
<path d="M 598.339 700.878 C 613.061 703.92 629.15 718.437 646.546 719.2 C 655.948 719.613 667.726 711.611 671.915 712.088 C 669.349 715.565 663.642 718.382 659.65 719.693 C 641.077 725.789 615.031 709.547 598.339 700.878 z" fill="rgb(225,226,221)" transform="translate(0,0)"></path>
<path d="M 519.566 206.772 C 514.312 207.29 510.298 204.162 509.264 199.07 C 510.182 196.042 510.479 195.767 512.925 193.733 C 518.295 192.773 521.131 194.762 522.966 199.978 C 519.709 201.926 520.608 200.827 519.236 203.983 L 519.566 206.772 z" fill="rgb(225,226,221)" transform="translate(0,0)"></path>
<path d="M 686.821 274.976 C 693.157 276.189 713.584 287.713 715.08 294.144 C 709.41 293.496 688.383 279.897 686.821 274.976 z" fill="rgb(254,254,253)" transform="translate(0,0)"></path>
<path d="M 556.623 234.767 C 560.193 237.184 567.127 246.552 567.613 251.132 L 566.444 252.375 L 561.127 251.623 C 559.705 252.838 558.998 253.238 557.387 254.205 L 556.229 253.52 C 556.613 249.959 558.973 248.379 561.643 245.903 C 559.438 241.771 558.332 239.146 556.623 234.767 z" fill="rgb(254,254,253)" transform="translate(0,0)"></path>
<path d="M 512.719 186.619 L 523.987 181.848 C 526.079 186.018 527.184 188.212 528.588 192.626 L 527.082 193.67 C 521.374 189.999 519.382 188.448 512.719 186.619 z" fill="rgb(59,161,156)" transform="translate(0,0)"></path>
<path d="M 514.835 730.794 C 516.352 732.047 516.392 732.285 517.347 734.051 C 516.083 737.33 509.765 740.42 506.512 742.412 C 504.085 740.927 504.632 741.738 503.76 739.416 C 505.591 736.035 511.362 732.998 514.835 730.794 z" fill="rgb(254,254,253)" transform="translate(0,0)"></path>
<path d="M 540.512 266.052 C 546.747 267.618 561.286 275.757 563.347 282.285 C 558.467 279.922 542.592 270.583 540.512 266.052 z" fill="rgb(233,146,117)" transform="translate(0,0)"></path>
<path d="M 506.126 723.904 C 507.125 724.418 508.947 725.661 509.97 726.318 L 510.229 728.128 C 508.141 731.342 501.129 734.539 497.445 736.543 L 496.317 733.971 C 498.358 730.088 501.716 729.266 506.061 726.401 C 505.387 725.244 505.663 725.843 506.126 723.904 z" fill="rgb(254,254,253)" transform="translate(0,0)"></path>
<path d="M 522.23 738.794 C 524.385 739.582 523.46 738.942 524.894 741.025 C 523.427 743.92 517.716 747.008 514.728 748.916 C 513.487 748.189 512.885 747.574 511.8 746.647 C 512.876 743.154 518.675 740.747 522.23 738.794 z" fill="rgb(254,254,253)" transform="translate(0,0)"></path>
<path d="M 567.351 395.764 C 571.663 399.206 570.208 405.907 567.277 409.88 C 562.137 406.258 563.095 399.791 567.351 395.764 z" fill="rgb(233,146,117)" transform="translate(0,0)"></path>
<path d="M 522.532 408.013 L 526.493 409.119 C 529.061 412.325 528.271 417.596 528.229 421.949 L 524.508 420.994 C 521.922 418.077 522.554 412.124 522.532 408.013 z" fill="rgb(233,146,117)" transform="translate(0,0)"></path>
<path d="M 639.804 678.853 C 641.233 680.134 641.153 680.023 641.568 681.9 C 639.947 684.855 634.858 687.615 631.832 689.577 L 629.694 686.872 C 631.067 683.146 636.122 680.972 639.804 678.853 z" fill="rgb(254,254,253)" transform="translate(0,0)"></path>
<path d="M 710.756 234.746 C 715.093 232 717.631 230.314 722.437 228.294 C 724.777 230.994 728.286 234.528 729.332 237.77 L 727.666 239.309 C 719.094 234.68 725.567 227.933 711.474 235.687 L 710.756 234.746 z" fill="rgb(59,161,156)" transform="translate(0,0)"></path>
<path d="M 501.156 406.129 C 502.616 406.465 503.745 407.059 505.103 407.677 C 506.979 410.969 506.209 415.949 506.005 419.895 C 504.058 419.311 503.78 419.062 502.047 417.953 C 500.379 414.996 501.029 409.747 501.156 406.129 z" fill="rgb(233,146,117)" transform="translate(0,0)"></path>
<path d="M 536.249 406.824 C 539.739 409.818 539.388 417.218 537.611 421.196 L 534.862 419.287 C 533.127 414.235 532.601 410.885 536.249 406.824 z" fill="rgb(233,146,117)" transform="translate(0,0)"></path>
<path d="M 633.898 673.021 L 635.339 674.81 C 633.753 677.577 628.235 680.407 625.271 682.201 C 624.871 681.823 623.841 680.332 623.452 679.799 C 625.113 676.293 629.946 674.872 633.898 673.021 z" fill="rgb(254,254,253)" transform="translate(0,0)"></path>
<path d="M 554.641 401.24 C 558.684 403.128 559.968 409.96 558.987 413.794 L 556.051 413.509 C 553.549 409.725 554.124 405.605 554.641 401.24 z" fill="rgb(233,146,117)" transform="translate(0,0)"></path>
<path d="M 492.249 402.543 L 494.459 403.959 C 496.272 407.613 495.906 412.627 495.953 416.815 C 495.084 416.464 493.72 415.619 492.854 415.127 C 491.153 411.473 491.955 406.674 492.249 402.543 z" fill="rgb(233,146,117)" transform="translate(0,0)"></path>
<path d="M 545.721 404.539 C 549.702 407.804 549.7 414.069 547.582 418.462 C 543.86 415.413 543.687 408.617 545.721 404.539 z" fill="rgb(233,146,117)" transform="translate(0,0)"></path>
<path d="M 645.388 685.647 C 647.659 686.164 646.687 685.64 648.362 687.353 C 647.12 689.834 643.535 691.526 640.959 693.084 C 638.11 693.111 638.904 693.533 637.194 692.005 C 638.76 689.441 642.72 687.325 645.388 685.647 z" fill="rgb(254,254,253)" transform="translate(0,0)"></path>
<path d="M 483.63 397.322 L 486.378 399.547 C 486.865 403.816 486.934 407.17 487.009 411.475 C 485.669 411.67 486.173 411.546 484.6 410.902 C 483.197 407.297 483.609 401.377 483.63 397.322 z" fill="rgb(233,146,117)" transform="translate(0,0)"></path>
<path d="M 573.99 391.739 C 577.663 393.989 577.516 399.3 577.775 403.098 L 575.967 402.408 C 574.465 399.675 574.321 395.016 573.99 391.739 z" fill="rgb(190,157,133)" transform="translate(0,0)"></path>
<path d="M 255.909 47.831 C 261.796 47.9377 417.187 131.595 429.816 140.364 C 429.871 140.782 429.923 140.934 429.804 141.394 C 428.713 145.623 298.911 214.031 284.196 222.039 C 296.846 228.843 383.043 270.498 385.565 275.926 C 384.471 278.777 382.959 279.845 380.199 281.372 C 303.7 323.684 225.844 364.091 149.501 406.679 C 193.278 428.938 238.484 454.077 282.299 476.915 L 348.538 511.545 C 358.257 516.687 368.192 521.848 377.86 527.085 C 381.29 528.943 382.318 529.671 383.407 532.831 C 378.202 538.248 316.624 570.388 306.005 576.054 C 266.492 597.027 227.18 618.376 188.074 640.099 L 359.046 730.283 C 387.759 745.396 424.104 765.581 452.95 779.262 C 461.474 774.417 463.625 772.382 473.378 771.872 L 474.721 773.984 C 472.014 780.555 458.899 786.113 452.456 789.296 C 382.634 751.572 311.026 714.787 240.694 677.605 C 230.8 672.426 181.832 647.845 175.944 642.76 C 175.185 637.605 176.567 636.619 181.364 634.006 C 206.342 620.395 231.417 605.866 256.696 592.882 C 294.412 573.509 331.546 551.443 369.329 532.405 C 345.893 519.104 317.762 505.135 293.676 492.616 L 203.293 444.989 C 189.243 437.655 146.056 416.503 134.781 408.229 L 135.045 405.641 C 136.814 402.305 202.28 368.399 210.541 363.943 L 371.006 276.398 C 340.33 260.684 308.707 244.736 278.068 228.812 C 273.613 226.496 271.718 225.904 271.711 220.883 C 274.139 216.65 400.676 149.383 415.644 141.149 L 257.59 56.9542 C 211.959 82.2319 162.892 107.4 116.648 132.261 C 125.637 136.826 196.822 171.917 198.758 176.487 L 197.633 178.802 C 196.659 179.456 193.634 181.493 192.4 180.887 C 163.45 166.674 132.41 150.942 104.451 134.687 C 103.145 133.927 103.672 132.141 103.811 130.938 C 107.686 125.618 239.473 56.5963 255.909 47.831 z" fill="rgb(22,45,61)" transform="translate(0,0)"></path>
<path d="M 1175.23 396.883 C 1177.71 397.265 1177.97 397.568 1179.82 399.307 L 1179.82 401.549 C 1176.67 406.781 1147.09 421.026 1139.73 424.964 L 1064.68 465.314 C 977.385 511.98 890.331 559.088 803.517 606.635 L 708.52 658.389 C 693.666 666.408 674.376 677.56 659.405 684.38 C 656.568 683.341 655.553 683.224 654.581 680.56 C 657.14 674.857 712.588 646.794 723.027 641.223 L 808.051 594.782 L 1175.23 396.883 z" fill="rgb(22,45,61)" transform="translate(0,0)"></path>
<path d="M 581.973 708.75 C 585.384 709.809 586.384 710.566 586.921 713.855 C 584.093 719.023 560.045 730.485 552.606 734.829 C 548.766 734.02 548.133 733.364 547.274 729.921 C 549.47 724.402 575.161 712.312 581.973 708.75 z" fill="rgb(22,45,61)" transform="translate(0,0)"></path>
<metadata><recraft-signature>{"signed_by": "recraft", "signature_b64": "oVLm1ZIxX5GoL6OooqcDvavgI+dQvsdbu+Q6i6Fg7yNWOmV7uR9NvTYo/T4xMYZ4KPueENWIYjTysP/zahrZAQ==", "signing_algo": "Ed25519", "generation_timestamp": 1777312758, "identifier": "e59c131c-f02a-4642-940d-14eee7d6ee84"}</recraft-signature></metadata></svg>