<svg xmlns="http://www.w3.org/2000/svg" height="1024" preserveAspectRatio="none" style="display: block;" version="1.1" viewBox="0 0 2048 1024" width="2048">
<path d="M 0 0 L 2048 0 L 2048 1024 L 0 1024 L 0 0 z" fill="rgb(252,250,244)" transform="translate(0,0)"></path>
<path d="M 1014.74 379.855 C 1011.89 376.644 1009.76 373.059 1007.5 369.428 C 982.205 328.826 955.549 289.097 930.204 248.532 C 928.697 246.121 926.472 242.316 926.272 239.577 C 928.821 235.535 954.477 224.909 960.287 222.298 L 1034.02 189.166 C 1118.38 151.181 1202.34 112.209 1286.77 74.4096 C 1290.82 72.5995 1300.22 68.0961 1304.29 68.7447 C 1309.18 71.806 1382.39 191.654 1392.91 208.464 C 1435.88 181.844 1479.51 147.683 1522.98 121.716 C 1544.48 130.748 1567.95 142.503 1589.19 152.624 L 1690.44 200.518 C 1730.77 219.34 1770.97 238.435 1811.04 257.8 C 1822.04 263.006 1889.83 293.183 1891.7 299.301 C 1889.73 309.369 1850.61 365.259 1842.78 377.573 C 1879.19 364.972 1914.36 348.021 1950.97 335.779 C 1956.1 334.063 1963.53 331.432 1965.37 337.944 C 1965.06 338.989 1964.68 340.26 1964.23 341.756 C 1924.85 368.605 1856.78 411.357 1818.97 436.728 L 1818.66 714.003 C 1847.25 725.359 1878.74 741.188 1907.56 753.21 C 1918.03 757.581 1952.86 772.974 1961.51 778.156 C 1966.5 786.447 1970.48 800.826 1959.3 806.44 C 1937.95 817.154 1915.68 826.885 1893.85 836.599 L 1787.24 884.636 L 1699.81 923.881 C 1682.19 931.883 1662.79 943.116 1643.9 947.576 C 1637.56 949.071 1449.1 949.302 1435.62 946.888 C 1435.47 946.913 1435.32 946.941 1435.17 946.963 C 1428.12 947.952 1374.26 919.958 1364.23 915.171 C 1292.15 880.719 1219.79 846.871 1147.15 813.629 L 1054.96 771.341 C 1043.09 765.817 1015.96 753.918 1006.35 746.901 C 1005.37 741.271 1005.63 725.584 1005.64 719.342 L 1005.72 670.088 C 1005.35 614.21 1005.38 558.33 1005.82 502.452 C 978.687 486.306 942.41 471.589 914.521 455.392 C 910.869 453.271 910.766 452.997 909.922 449.585 C 910.187 448.966 910.51 448.212 910.889 447.324 C 941.197 426.33 986.005 399.714 1014.74 379.855 z" fill="rgb(6,42,66)" transform="translate(0,0)"></path>
<path d="M 1818.66 714.003 C 1847.25 725.359 1878.74 741.188 1907.56 753.21 C 1918.03 757.581 1952.86 772.974 1961.51 778.156 C 1966.5 786.447 1970.48 800.826 1959.3 806.44 C 1937.95 817.154 1915.68 826.885 1893.85 836.599 L 1787.24 884.636 L 1699.81 923.881 C 1682.19 931.883 1662.79 943.116 1643.9 947.576 C 1637.56 949.071 1449.1 949.302 1435.62 946.888 C 1481.94 928.702 1534.83 904.082 1580.69 883.917 L 1818.61 778.138 L 1818.66 714.003 z" fill="rgb(226,225,222)" transform="translate(0,0)"></path>
<path d="M 1804.49 442.859 L 1805.55 443.053 C 1808.23 447.133 1806.79 739.024 1806.75 771.086 C 1782.05 783.72 1752.56 795.919 1726.88 807.293 L 1606.52 860.549 C 1552.84 883.912 1494.11 912.391 1440.29 933.645 L 1438.97 933.623 C 1437.36 930.548 1438.23 622.667 1438.28 598.743 C 1473.99 584.082 1509.21 568.123 1544.83 553.068 L 1804.49 442.859 z" fill="rgb(252,250,244)" transform="translate(0,0)"></path>
<path d="M 1708.01 642.963 C 1708.58 643.787 1709.14 644.61 1709.71 645.434 C 1710.4 675.134 1710.06 704.922 1710 734.638 C 1697.17 741.858 1669.29 753.191 1654.88 759.588 L 1546.34 807.821 C 1545.86 807.57 1545.67 807.515 1545.26 807.073 C 1542.53 804.141 1544.02 728.076 1543.94 716.484 C 1598.6 692.577 1653.31 666.263 1708.01 642.963 z" fill="rgb(1,36,59)" transform="translate(0,0)"></path>
<path d="M 1701.95 651.98 L 1703.05 652.354 C 1704.66 656.032 1704.02 722.145 1704.02 731.576 C 1654.7 751.693 1600.63 777.119 1551.77 799.073 L 1551.16 798.913 C 1548.64 795.861 1550.22 730.516 1550.32 720.422 C 1567.9 711.521 1589.7 702.519 1608.06 694.269 L 1701.95 651.98 z" fill="rgb(248,204,132)" transform="translate(0,0)"></path>
<path d="M 1679.35 681.858 C 1681.34 681.645 1681.72 681.964 1683.65 682.746 C 1685.72 685.913 1685.43 684.508 1684.93 687.997 C 1681.03 693.384 1587.11 734.023 1573.35 740.145 C 1571.34 740.411 1570.52 739.647 1568.65 738.607 C 1566.79 735.52 1566.97 736.791 1567.52 733.765 C 1571.72 728.251 1664.23 688.553 1679.35 681.858 z" fill="rgb(1,36,59)" transform="translate(0,0)"></path>
<path d="M 1680.9 707.892 C 1684.64 710.55 1685.43 711.909 1684.24 716.094 C 1679.48 720.038 1650.63 732.219 1642.82 735.685 L 1572.42 767.128 L 1569.56 765.892 C 1567.51 762.567 1567.77 763.954 1568.03 760.55 C 1572 754.683 1665.1 715.452 1680.9 707.892 z" fill="rgb(1,36,59)" transform="translate(0,0)"></path>
<path d="M 1299.69 80.9745 C 1302.98 83.0302 1374 198.973 1382.64 213.269 C 1366.74 221.945 1339.19 233.246 1321.59 241.253 C 1278.29 261.082 1234.85 280.596 1191.26 299.793 L 1078.23 350.743 C 1061.39 358.288 1040.94 368.058 1024.14 374.519 C 1015.7 363.212 1007.61 349.096 999.721 337.2 C 979.631 306.916 960.328 273.784 939.461 244.162 C 991.875 218.131 1053.3 192.264 1107.06 167.764 L 1225.39 114.049 C 1249.61 103.081 1275.19 91.0083 1299.69 80.9745 z" fill="rgb(252,250,244)" transform="translate(0,0)"></path>
<path d="M 1523.4 133.933 C 1532.71 135.57 1586.95 163.564 1598.46 168.989 L 1879.43 302.277 C 1864.65 326.039 1841.16 361.665 1824.84 383.659 C 1811.84 388.988 1798.7 393.969 1785.43 398.597 L 1767.34 389.6 C 1724.41 369.937 1679.53 347.607 1636.52 327.276 L 1401.43 216.349 C 1424.36 200.139 1447.53 184.254 1470.92 168.7 C 1487.87 157.198 1505.97 144.49 1523.4 133.933 z" fill="rgb(252,250,244)" transform="translate(0,0)"></path>
<path d="M 1021.23 388.859 C 1025.46 389.033 1071.73 412.884 1078.77 416.398 C 1141.75 447.504 1204.45 479.191 1266.84 511.454 C 1317.75 538.324 1368.86 567.646 1419.55 593.937 C 1388.06 605.972 1353.52 618.125 1321.73 629.319 L 1301.54 636.754 C 1289.87 629.64 1270.68 620.948 1257.94 614.835 C 1234.34 603.563 1210.8 592.158 1187.32 580.619 C 1101.19 538.087 1011.6 494.348 926.744 449.647 C 957.936 428.918 989.433 408.653 1021.23 388.859 z" fill="rgb(252,250,244)" transform="translate(0,0)"></path>
<path d="M 1398.33 227.64 C 1420.1 236.975 1443.9 248.774 1465.5 258.898 C 1504.21 276.817 1542.83 294.941 1581.35 313.267 C 1644.35 343.084 1710.7 372.904 1772.63 404.557 C 1738.1 417.984 1701.44 433.715 1667.24 447.99 L 1640.46 459.013 C 1634.66 453.51 1628.84 447.592 1623.13 441.956 C 1616.07 444.472 1592.89 454.99 1587.51 453.165 C 1585.53 448.321 1596.55 423.151 1599.32 415.517 C 1592.3 411.217 1559.51 396.942 1551.56 393.914 C 1544.07 402.313 1536.42 410.573 1528.62 418.689 C 1524.18 417.566 1518.71 416.75 1514.12 415.941 C 1512.37 406.262 1510.77 396.44 1508.05 386.995 C 1491.82 388.067 1475.6 389.342 1459.4 390.82 C 1458.23 400.822 1457.35 410.855 1456.78 420.908 L 1440.65 427.367 C 1437.6 424.875 1435.64 423.858 1432.19 421.942 C 1426.84 410.717 1414.24 386.694 1405.68 378.368 C 1404.26 376.98 1401.18 377.34 1399.53 375.786 C 1397.37 373.761 1398.31 240.636 1398.33 227.64 z" fill="rgb(252,250,244)" transform="translate(0,0)"></path>
<path d="M 1425.79 608.839 C 1427.73 610.775 1427.03 636.866 1427.03 641.583 L 1427.06 704.242 C 1427.08 780.076 1426.17 857.324 1427.24 932.946 C 1412.2 927.102 1392.28 916.389 1377.12 909.177 L 1278.26 862.501 L 1206.44 829.256 C 1281.36 756.719 1351.98 681.659 1425.79 608.839 z" fill="rgb(252,250,244)" transform="translate(0,0)"></path>
<path d="M 1385.33 223.925 L 1386.75 224.99 C 1387.85 237.003 1387.08 264.029 1387.1 276.911 L 1387.02 378.944 C 1381.72 381.687 1374.31 386.327 1368.5 385.65 L 1367.49 384.169 C 1368.08 381.12 1382.01 356.608 1384.75 350.611 C 1379.59 345.715 1371.87 341.059 1365.77 337.087 C 1362.24 337.072 1358.42 337.594 1354.89 337.986 C 1348.24 334.319 1341.62 330.588 1335.04 326.794 C 1329.65 331.44 1318.19 343.7 1312.78 349.195 L 1304.42 346.387 C 1302.93 336.648 1301.95 326.817 1300.9 317.019 C 1284.8 316.983 1268.71 317.033 1252.61 317.17 C 1250.63 325.669 1248.98 336.615 1247.41 345.363 L 1232.58 349.248 C 1225.31 343.371 1217.69 335.73 1210.86 329.193 C 1200.89 334.339 1179.15 348.674 1170.34 355.593 C 1174.26 363.972 1178.92 372.483 1183.25 380.696 C 1179.65 384.824 1177.43 388.142 1174.38 392.617 C 1167.98 390.109 1151.66 382.087 1145.71 385.455 C 1138.84 396.909 1131.9 415.212 1127.45 427.971 C 1096.67 414.437 1063.99 396.936 1033.47 381.928 C 1151.1 330.018 1268.38 277.349 1385.33 223.925 z" fill="rgb(252,250,244)" transform="translate(0,0)"></path>
<path d="M 1016.32 507.272 C 1069.49 533.694 1130.21 562.666 1182.06 590.264 C 1156.42 615.343 1129.86 643.55 1104.33 669.302 L 1027.86 746.891 C 1024.58 745.698 1019.7 743.298 1016.39 741.799 L 1016.32 507.272 z" fill="rgb(252,250,244)" transform="translate(0,0)"></path>
<path d="M 1260.36 326.91 C 1271.06 327.05 1282.08 326.847 1292.81 326.784 C 1293.28 335.607 1294.01 344.415 1294.99 353.197 C 1303.37 354.541 1308.5 356.466 1316.58 359.264 C 1322.34 352.013 1329.52 344.866 1335.98 338.142 C 1344.19 342.788 1353.41 348.804 1361.53 353.818 C 1357.65 362.09 1352.82 370.753 1348.72 379.258 C 1356.14 385.583 1361.37 391.626 1366.91 399.558 L 1392.71 387.71 C 1396.74 397.191 1401.17 404.462 1406.35 413.285 C 1399.4 418.212 1383.02 425.986 1380.37 432.284 C 1379.57 439.41 1389.45 454.958 1393.28 462.074 C 1388.66 468.333 1386.76 470.907 1383.42 477.872 L 1354.35 471.694 C 1348.73 484.958 1342.82 504.195 1338.18 518.2 C 1347.77 522.603 1358.17 526.786 1367.93 530.903 L 1367.01 546.077 L 1360.06 549.931 C 1341.89 540.298 1323.8 530.514 1305.8 520.578 C 1319.62 512.827 1326.16 507.178 1335.32 494.37 C 1340.15 486.322 1343.29 478.923 1344.88 469.635 C 1347.8 452.156 1343.66 434.236 1333.37 419.808 C 1321.69 403.79 1304.16 393.027 1284.59 389.857 C 1265.57 386.79 1243.31 392.285 1227.97 403.798 C 1207.32 419.292 1199.31 438.352 1195.52 462.985 C 1187.66 459.253 1170.57 451.736 1164.23 447.255 C 1162.84 444.834 1163.86 440.578 1164.25 437.532 C 1155.82 433.243 1147.34 429.064 1138.8 424.998 C 1142.09 414.789 1147.02 404.146 1151.63 394.452 C 1159.98 397.303 1169.3 401.208 1177.6 404.466 C 1181.65 396.299 1189.17 387.554 1195.94 381.484 C 1191.15 373.96 1186.59 366.292 1182.27 358.492 C 1191.49 352.235 1200.49 346.982 1210.07 341.333 L 1228.64 360.485 C 1236.28 357.151 1247.68 354.713 1255.81 353.132 C 1257.54 344.238 1259.16 335.917 1260.36 326.91 z" fill="rgb(252,250,244)" transform="translate(0,0)"></path>
<path d="M 1494.65 397.449 C 1496.73 397.047 1497.15 397.2 1499.29 397.479 C 1503.26 401.796 1504.41 417.794 1505.21 424.279 C 1514.89 424.867 1523.55 426.551 1532.84 429.198 C 1538.3 421.113 1545.71 413.301 1552.53 406.37 L 1578.71 419.158 L 1567.71 448.399 C 1573.04 453.131 1579.52 460.618 1584.48 466.038 C 1592.58 463.79 1607.89 457.338 1616.29 454.009 L 1627.51 464.869 C 1592.14 478.181 1588.86 485.689 1557.43 503.864 C 1551.36 491.371 1540.83 479.53 1528.99 472.248 C 1512.64 462.324 1493.01 459.347 1474.46 463.978 C 1452.5 469.364 1437.54 481.813 1426.03 500.752 C 1412.88 524.647 1414.41 556.723 1432.21 577.834 C 1433.98 579.941 1437.06 583.108 1437.59 585.725 L 1436.32 587.352 C 1426.47 588.376 1390.44 566.966 1379.82 561.027 C 1376.8 548.64 1376.46 536.697 1377.72 524.1 C 1368.55 520.224 1359.35 516.409 1350.12 512.655 C 1353.63 502.653 1356.88 492.557 1359.85 482.379 C 1369.18 484.589 1378.5 486.85 1387.81 489.164 C 1393.3 477.75 1397.63 471.785 1405.34 461.672 C 1400.21 453.649 1395.16 444.154 1390.47 435.769 C 1397.02 430.68 1406.13 424.915 1413.16 420.193 C 1421.1 426.285 1429.08 432.322 1437.1 438.305 C 1446.39 433.559 1456.05 429.588 1465.99 426.435 L 1468.27 399.271 L 1494.65 397.449 z" fill="rgb(252,250,244)" transform="translate(0,0)"></path>
<path d="M 1266.37 395.334 C 1310.48 389.004 1351.17 433.893 1336.82 477.045 C 1329.9 497.865 1317.09 507.263 1298.86 516.942 L 1285.93 510.086 C 1257.94 495.103 1229.46 481.086 1201.7 466.098 C 1205.29 428.517 1227.85 400.248 1266.37 395.334 z" fill="rgb(252,250,244)" transform="translate(0,0)"></path>
<path d="M 1912.21 361.964 L 1913.34 362.35 C 1911.13 364.73 1885.43 380.529 1880.79 383.507 C 1867.2 392.169 1853.69 400.963 1840.26 409.888 C 1832.16 415.277 1819.62 424.159 1811.35 428.4 C 1803.21 432.579 1789.28 437.885 1780.5 441.489 C 1762.96 448.627 1745.51 455.971 1728.14 463.521 C 1647.58 498.361 1565.79 531.558 1485.76 567.077 L 1484.51 566.464 C 1486.37 564.612 1527.39 536.801 1531.77 534.176 C 1554.39 520.619 1585.93 495.908 1608.3 484.619 C 1628.24 474.556 1663.74 460.971 1685.35 452.109 C 1719.78 437.989 1755.47 422.055 1789.96 408.716 C 1831.3 392.732 1871.03 379.536 1912.21 361.964 z" fill="rgb(252,250,244)" transform="translate(0,0)"></path>
<path d="M 1253.51 624.792 C 1262.07 629.856 1284.18 639.621 1293.98 644.26 L 1139.9 798.196 C 1126.59 792.141 1113.35 785.941 1100.18 779.598 C 1151.84 729.787 1202.82 675.78 1253.51 624.792 z" fill="rgb(65,136,145)" transform="translate(0,0)"></path>
<path d="M 1485.27 468.312 C 1514.71 464.292 1539.21 482.649 1552.52 507.494 C 1527.14 525.29 1499.14 543.107 1473.23 560.899 L 1443.93 581.471 C 1402.03 538.608 1428.29 476.347 1485.27 468.312 z" fill="rgb(252,250,244)" transform="translate(0,0)"></path>
<path d="M 1417.03 605.922 L 1418.38 606.216 C 1417.72 608.024 1214.97 814.447 1200.29 825.972 C 1195.93 824.366 1188.92 820.955 1184.5 818.958 L 1172.96 813.538 C 1184.49 802.925 1197.02 789.629 1208.34 778.453 L 1316.75 669.663 C 1325.19 661.286 1350.77 633.113 1358.39 628.933 C 1372.64 621.121 1400.07 613.383 1417.03 605.922 z" fill="rgb(65,136,145)" transform="translate(0,0)"></path>
<path d="M 1219.08 608.633 C 1225.2 610.595 1241.62 619.158 1247.1 622.171 C 1243.29 626.75 1234.64 634.948 1230.22 639.413 L 1196.75 673.42 C 1163.25 707.691 1128.18 744.591 1093.41 777.319 C 1083.53 772.864 1073.67 768.344 1063.85 763.759 L 1219.08 608.633 z" fill="rgb(252,250,244)" transform="translate(0,0)"></path>
<path d="M 1187.64 593.689 C 1191.75 594.294 1209.24 603.126 1214 605.409 C 1162.62 652.987 1109.13 710.372 1058.74 760.275 C 1055.51 760.722 1038.03 751.817 1033.79 749.799 C 1085.37 698.059 1136.66 646.021 1187.64 593.689 z" fill="rgb(65,136,145)" transform="translate(0,0)"></path>
<path d="M 1340.31 633.974 L 1342.34 633.932 C 1341.9 636.002 1182.64 796.492 1166.51 810.875 L 1153.94 804.951 L 1145.48 801.07 L 1251.1 696.173 C 1265.2 682.112 1283.67 661.958 1298.95 649.909 C 1302.95 646.758 1333.14 636.563 1340.31 633.974 z" fill="rgb(252,250,244)" transform="translate(0,0)"></path>
<path d="M 1587.88 416.586 C 1588.84 416.943 1589.4 417.527 1590.23 418.187 C 1590.44 422.47 1581.98 441.19 1579.7 446.476 L 1578.93 446.61 C 1577.38 442.316 1587.76 424.27 1587.88 416.586 z" fill="rgb(226,225,222)" transform="translate(0,0)"></path>
<path d="M 1372.16 350.056 L 1374.2 351.28 C 1374.91 354.937 1363.81 373.09 1361.29 377.5 L 1360.21 377.662 C 1360.02 372.557 1371.63 358.226 1372.16 350.056 z" fill="rgb(226,225,222)" transform="translate(0,0)"></path>
<path d="M 1401.05 383.876 C 1403.61 387.089 1415 407.096 1416.15 411.117 C 1411.41 408.442 1401.28 389.747 1401.05 383.876 z" fill="rgb(226,225,222)" transform="translate(0,0)"></path>
<path d="M 717.745 54.1001 C 738.361 65.6616 770.938 78.7739 793.547 90.0422 C 793.794 95.0001 793.777 100.743 793.87 105.766 C 789.39 107.676 783.866 111.004 779.521 113.453 C 768.245 171.675 762.04 238.258 751.975 297.639 C 784.916 310.724 787.32 317.7 771.307 352.002 C 767.12 360.972 761.44 369.819 756.169 378.152 C 755.681 378.924 749.596 382.343 747.602 384.314 C 747.342 390.356 757.953 386.857 761.733 393.017 C 768.474 404.004 767.497 417.002 758.904 426.689 C 753.681 432.577 745.6 436.081 747.35 444.649 C 749.707 445.606 750.91 445.855 753.351 446.416 C 755.886 448.71 759.676 461.043 761.264 465.293 C 796.533 440.561 785.961 441.696 825.519 463.954 C 822.752 469.461 812.379 484.431 813.246 488.909 C 818.427 490.313 831.792 482.941 837.946 480.441 C 845.272 485.323 861.194 501.532 867.331 508.25 C 862.618 515.985 856.281 520.639 849.368 526.352 C 851.087 530.25 852.83 534.981 854.434 539.002 C 860.779 540.453 873.912 541.814 875.215 548.268 C 876.595 555.098 879.52 573.611 876.308 579.486 C 872.298 581.729 859.532 583.547 854.151 584.641 C 853.256 589.33 851.921 594.681 850.859 599.396 C 857.607 603.616 863.277 606.645 868.855 612.371 C 864.248 621.122 854.476 642.395 846.367 646.413 C 842.24 646.773 834.215 642.939 829.5 641.255 C 826.664 644.082 822.931 648.123 819.649 650.184 C 819.598 656.732 829.921 666.597 825.1 670.279 C 817.016 676.452 801.533 687.343 791.974 689.762 C 782.577 689.096 776.91 670.208 764.857 674.4 C 760.364 680.069 767.776 699.606 748.299 700.815 C 738.886 701.399 726.213 701.085 717.182 698.612 C 704.69 668.852 705.991 682.199 687.283 694.555 C 675.815 689.105 649.515 682.147 656.882 666.874 C 658.243 664.089 659.65 661.326 661.103 658.588 L 654.084 652.956 L 640.181 660.579 C 628.424 655.452 617.953 645.687 609.687 636.043 C 615.254 628.005 625.964 619.701 633.696 613.181 C 632.713 610.147 631.567 606.247 630.395 603.369 C 601.903 600.165 603.478 597.931 603.823 570.026 C 610.626 567.317 628.282 561.905 631.549 556.748 C 631.483 548.502 617.695 540.733 612.055 534.652 C 615.408 529.364 627.156 508.558 631.871 507.166 C 637.578 505.481 650.707 515.166 656.682 511.326 C 658.321 506.184 648.448 490.469 645.705 485.39 C 672.61 462.476 674.24 456.653 703.448 478.228 C 706.712 470.861 712.14 452.722 716.89 449.197 C 722.313 447.756 732.591 447.233 735.682 445.489 C 736.5 436.077 717.637 442.446 718.047 425.694 C 718.469 408.402 748.702 402.154 735.17 388.062 C 727.145 378.276 709.665 369.476 703.376 361.206 C 688.347 341.444 718.52 307.425 734.038 299.73 C 725.026 250.245 715.4 200.874 705.161 151.628 C 665.513 170.672 623.058 193.155 583.809 213.366 C 542.191 234.444 500.707 255.786 459.359 277.391 C 463.253 285.76 470.795 300.219 473.785 308.412 C 483.295 334.468 499.866 336.917 519.604 351.77 L 520.02 369.627 C 506.031 376.881 491.462 384.318 477.75 392.055 C 486.125 452.284 493.803 512.608 500.784 573.015 C 501.191 576.468 501.753 579.467 503.083 582.712 C 507.326 593.071 504.363 605.497 504.986 616.539 C 505.631 627.99 506.706 639.387 507.753 650.821 C 531.847 663.832 563.598 677.476 589.085 689.46 L 736.716 758.948 C 761.115 770.374 786.044 781.593 810.109 793.726 C 811.906 794.632 815.779 796.881 816.099 799.021 C 818.016 809.972 816.811 824.825 816.954 835.933 C 825.493 842.007 856.764 855.04 859.749 859.792 C 858.916 862.133 858.395 863.399 855.638 864.597 C 836.78 872.797 817.649 881.337 798.881 889.702 C 757.73 908.322 716.433 926.618 674.995 944.589 L 618.486 969.42 C 613.002 971.889 583.116 985.214 579.477 986.006 C 570.173 988.033 524.037 987.778 516.76 986.076 C 512.163 987.846 506.502 990.656 501.936 992.763 C 484.97 984.119 464.29 975.046 446.893 966.952 C 407.264 948.418 367.492 930.189 327.582 912.269 L 77.9353 797.864 L 77.8855 742.835 C 156.604 704.801 243.288 669.423 323.593 633.807 C 325.966 620.69 326.898 608.155 329.001 595.272 C 340.786 522.767 351.253 450.055 360.398 377.171 C 333.183 363.41 305.807 349.968 278.277 336.849 C 276.731 317.69 282.259 309.399 289.768 292.385 C 296.485 277.165 303.279 261.902 310.02 246.689 C 333.31 236.382 361.395 218.771 385.225 212.864 C 387.218 212.37 395.947 214.578 398.546 215.21 C 430.982 200.283 468.44 179.862 500.793 163.523 L 717.745 54.1001 z" fill="rgb(1,36,59)" transform="translate(0,0)"></path>
<path d="M 816.954 835.933 C 825.493 842.007 856.764 855.04 859.749 859.792 C 858.916 862.133 858.395 863.399 855.638 864.597 C 836.78 872.797 817.649 881.337 798.881 889.702 C 757.73 908.322 716.433 926.618 674.995 944.589 L 618.486 969.42 C 613.002 971.889 583.116 985.214 579.477 986.006 C 570.173 988.033 524.037 987.778 516.76 986.076 C 534.411 976.706 564.599 964.319 584.095 955.56 L 733.127 888.695 C 759.31 876.99 791.802 863.72 816.737 850.713 L 816.954 835.933 z" fill="rgb(226,225,222)" transform="translate(0,0)"></path>
<path d="M 826.476 639.271 C 827.97 639.903 828.451 639.976 829.5 641.255 C 826.664 644.082 822.931 648.123 819.649 650.184 C 818.05 648.796 816.631 647.457 815.103 645.992 L 816.558 646.72 C 820.394 646.065 823.647 642.097 826.476 639.271 z" fill="rgb(1,36,59)" transform="translate(0,0)"></path>
<path d="M 816.558 646.72 C 818.534 643.676 821.205 639.668 824.448 638.164 L 826.476 639.271 C 823.647 642.097 820.394 646.065 816.558 646.72 z" fill="rgb(226,225,222)" transform="translate(0,0)"></path>
<path d="M 356.029 622.871 C 361.857 623.022 404.785 645.862 412.743 650.25 C 412.736 667.088 412.595 699.749 412.155 717.988 C 412.13 719.034 409.835 719.485 409.441 723.834 C 411.873 726.706 417.946 728.941 421.605 730.591 C 436.866 720.653 430.458 720.744 430.553 703.07 C 430.655 684.091 430.514 665.03 430.584 646.047 C 435.788 642.967 441.713 639.922 447.089 637.036 C 457.649 641.301 479.477 652.48 489.603 657.781 C 491.144 669.625 488.539 666.369 488.794 673.74 C 490.362 676.759 495.049 678.28 498.352 679.767 C 516.405 670.71 505.337 672.294 509.797 663.047 C 518.673 666.232 536.507 675.284 546.181 679.809 L 614.198 711.678 C 676.309 741.187 738.568 770.384 800.972 799.267 L 605.264 886.435 C 573.331 900.597 535.933 919.071 503.973 931.311 C 501.105 930.465 498.913 929.392 496.199 928.196 C 452.841 909.089 410.461 887.783 367.259 868.38 L 200.216 791.812 C 166.299 776.352 130.746 759.065 96.3751 745.353 C 133.328 726.681 176.899 710.026 214.836 691.773 C 209.737 698.456 179.512 733.518 179.769 738.819 L 181.719 739.707 C 186.016 738.263 219.349 694.586 223.957 688.109 L 237.902 682.035 C 226.26 700.77 207.969 722.314 194.415 740.039 C 192.779 742.179 191.054 744.613 191.466 747.37 L 193.499 748.312 C 198.144 747.09 242.22 685.548 248.119 677.818 L 322.322 645.699 C 321.055 657.94 322.418 666.972 310.793 671.834 C 303.852 674.737 290.088 684.939 290.267 693.054 C 289.135 726.914 366.946 730.787 382.965 711.55 C 411.233 677.602 358.582 667.36 336.52 667.149 C 339.097 656.468 340.475 641.195 342.423 629.722 C 346.519 627.233 351.648 624.959 356.029 622.871 z" fill="rgb(252,250,244)" transform="translate(0,0)"></path>
<path d="M 285.27 719.439 C 287.917 718.785 288.249 718.814 290.911 719.427 C 293.784 721.698 294.557 725.984 295.63 729.607 C 307.682 730.128 311.999 732.515 322.668 733.742 C 331.059 734.707 342.004 729.889 352.011 734.821 C 357.062 741.075 352.434 745.323 347.993 750.312 C 368.317 751.972 372.196 749.212 371.173 771.309 C 364.094 778.901 362.037 779.563 352.495 782.42 L 350.901 797.501 C 338.027 805.183 333.921 810.257 321.697 799.154 C 320.565 799.272 319.434 799.404 318.305 799.548 C 300.782 801.821 311.555 811.547 294.672 812.622 C 289.265 812.202 283.363 812.088 277.907 811.874 L 274.729 802.767 L 262.876 797.616 C 257.028 800.105 253.267 802.082 247.72 805.138 C 241.131 802.185 234.442 798.708 227.967 795.454 C 228.474 769.173 219.874 783.68 211.207 777.831 C 206.392 772.153 207.639 765.572 207.762 757.966 L 212.697 750.53 C 217.454 750.354 222.759 750.685 226.611 748.176 C 230.815 738.578 217.916 737.814 236.656 726.663 C 241.487 728.058 247.835 730.769 252.639 732.656 L 265.882 730.694 L 270.206 719.978 C 276.112 720.096 279.296 720.097 285.27 719.439 z" fill="rgb(1,36,59)" transform="translate(0,0)"></path>
<path d="M 278.769 725.36 C 282.751 724.125 285.218 722.842 288.815 725.554 L 288.953 727.721 C 290.756 730.869 290.849 732.679 294.551 733.658 C 303.56 736.04 312.54 737.496 321.781 738.582 C 330.345 739.589 337.65 737.564 346.247 737.693 C 343.42 740.204 340.197 742.44 339.478 746.056 C 340.438 750.722 342.354 751.768 346.293 754.633 C 353.829 755.417 358.743 756.079 366.139 757.644 C 359.189 761.858 342.009 768.857 339.173 773.982 C 339.373 776.493 339.396 777.542 341.901 779.074 L 346.26 783.449 C 345.172 784.227 334.805 788.126 332.84 788.894 C 330.416 786.626 326.849 784.388 324.033 782.494 C 315.638 783.888 308.276 784.753 299.805 786.567 C 299.401 788.152 298.943 789.723 298.433 791.277 C 292.792 807.904 284.114 787.54 281.019 786.682 C 274.122 784.771 266.531 783.649 259.197 781.206 C 255.011 784.017 251.819 785.673 247.399 787.974 C 237.619 782.007 240.05 783.404 237.488 772.899 C 237.031 771.029 234.178 766.314 233.03 764.462 C 227.198 763.713 218.277 763.367 214.305 759.065 L 215.007 757.526 C 222.157 753.759 226.899 754.172 235.033 753.562 C 239.395 748.012 242.346 746.724 238.735 740.266 C 235.585 737.719 234.987 738.142 234.248 734.991 L 235.599 733.399 C 239.067 732.592 239.657 732.889 242.85 734.044 C 246.463 735.588 250.616 737.058 254.324 738.467 C 257.361 737.428 261.927 736.228 265.098 735.751 C 272.299 734.668 270.879 732.762 273.564 726.818 L 274.825 727.225 L 278.769 725.36 z" fill="rgb(248,204,132)" transform="translate(0,0)"></path>
<path d="M 278.769 725.36 C 282.751 724.125 285.218 722.842 288.815 725.554 L 288.953 727.721 C 283.582 731.329 279.911 730.707 274.825 727.225 L 278.769 725.36 z" fill="rgb(6,42,66)" transform="translate(0,0)"></path>
<path d="M 278.769 725.36 C 282.751 724.125 285.218 722.842 288.815 725.554 C 284.168 726.228 283.421 726.135 278.769 725.36 z" fill="rgb(59,93,109)" transform="translate(0,0)"></path>
<path d="M 238.735 740.266 C 235.585 737.719 234.987 738.142 234.248 734.991 L 235.599 733.399 C 239.067 732.592 239.657 732.889 242.85 734.044 C 241.026 736.294 239.772 737.535 238.735 740.266 z" fill="rgb(235,210,158)" transform="translate(0,0)"></path>
<path d="M 283.902 748.182 C 315.212 746.065 336.719 770.601 301.019 778.776 C 267.732 785.087 245.217 757.738 283.902 748.182 z" fill="rgb(1,36,59)" transform="translate(0,0)"></path>
<path d="M 282.059 753.174 C 283.591 752.977 285.129 752.824 286.67 752.715 C 295.48 752.122 312.759 754.505 313.446 765.672 C 310.923 771.348 306.649 772.357 301.025 774.614 C 291.967 775.549 268.825 775.495 269.479 762.005 C 272.165 756.817 276.767 755.223 282.059 753.174 z" fill="rgb(252,250,244)" transform="translate(0,0)"></path>
<path d="M 279.598 739.309 C 296.389 737 314.438 741.095 328.715 750.579 C 344.145 760.829 330.253 779.102 318.043 779.936 C 317.827 779.493 317.611 779.051 317.395 778.609 C 322.15 774.675 328.016 770.064 329.425 763.73 C 330.065 760.919 329.48 757.819 327.721 755.517 C 324.37 751.135 319.2 749.167 314.247 747.105 C 309.119 744.971 303.735 744.017 298.235 743.209 C 285.045 741.907 247.7 744.426 248.172 764.005 C 248.35 771.364 262.233 773.508 262.627 778.886 C 248.794 782.961 218.75 748.338 279.598 739.309 z" fill="rgb(1,36,59)" transform="translate(0,0)"></path>
<path d="M 259.239 785.837 C 264.734 786.155 274.293 789.056 279.102 791.995 L 277.873 792.423 L 278.797 791.88 L 275.408 791.91 L 276.944 792.283 L 265.426 788.568 C 262.768 788.186 261.678 787.802 259.359 789.167 L 258.942 790.992 C 260.109 792.017 262.007 792.69 263.506 793.354 C 256.781 791.393 255.809 794.211 252.321 791.942 C 253.5 789.159 256.45 787.793 259.239 785.837 z" fill="rgb(59,93,109)" transform="translate(0,0)"></path>
<path d="M 341.901 779.074 C 342.966 775.541 343.075 774.946 346.108 772.717 L 348.348 772.597 C 351.408 777.143 349.439 779.701 346.26 783.449 L 341.901 779.074 z" fill="rgb(6,42,66)" transform="translate(0,0)"></path>
<path d="M 284.876 805.447 C 288.879 805.099 293.213 804.423 297.026 805.518 C 293.781 807.527 285.903 807.145 281.95 807.171 L 284.876 805.447 z" fill="rgb(50,113,131)" transform="translate(0,0)"></path>
<path d="M 363.733 763.929 C 364.413 764.486 364.107 764.245 364.352 765.477 C 360.312 768.545 359.249 769.066 354.54 771.049 L 353.611 770.164 C 355.671 767.687 360.671 765.502 363.733 763.929 z" fill="rgb(59,93,109)" transform="translate(0,0)"></path>
<path d="M 313.434 787.798 C 317.047 787.776 320.063 785.9 323.009 787.489 L 321.795 788.709 C 318.806 788.987 313.457 789.487 310.782 788.435 L 313.434 787.798 z" fill="rgb(59,93,109)" transform="translate(0,0)"></path>
<path d="M 327.823 791.497 C 331.283 793.579 332.017 796.803 333.773 800.809 C 329.004 799.171 328.935 795.986 327.823 791.497 z" fill="rgb(226,225,222)" transform="translate(0,0)"></path>
<path d="M 281.95 807.171 C 281.527 804.297 281.082 803.026 282.034 800.278 L 283.536 801.074 L 284.876 805.447 L 281.95 807.171 z" fill="rgb(226,225,222)" transform="translate(0,0)"></path>
<path d="M 217.328 767.283 C 221.491 766.979 226.688 766.448 229.959 769.607 C 225.587 769.101 221.617 768.197 217.328 767.283 z" fill="rgb(59,93,109)" transform="translate(0,0)"></path>
<path d="M 239.912 795.109 L 241.007 794.721 C 243.517 795.51 244.448 795.663 246.622 797.188 C 244.189 798.242 242.014 796.293 239.912 795.109 z" fill="rgb(65,136,145)" transform="translate(0,0)"></path>
<path d="M 229.959 769.607 C 231.393 771.864 232.265 772.46 232.427 774.904 L 230.934 774.116 L 229.959 769.607 z" fill="rgb(59,93,109)" transform="translate(0,0)"></path>
<path d="M 618.322 756.414 L 629.318 756.217 L 635.088 765.581 L 646.633 765.923 C 658.137 757.965 668.8 755.808 666.038 774.288 C 672.743 772.818 679.441 771.756 686.209 770.628 C 690.029 774.956 693.375 777.117 692.119 783.138 C 689.84 786.474 685.263 788.319 681.57 790.222 C 686.394 791.324 695.487 792.579 698.803 795.153 C 700.629 797.957 700.21 806.557 699.806 810.187 C 697.356 832.199 685.899 811.702 674.633 819.302 C 674.434 823.413 682.093 823.045 680.313 832.11 C 676.428 837.787 661.166 842.265 653.699 845.357 C 649.407 840.836 647.85 839.39 642.87 835.577 C 638.504 835.465 633.395 835.861 628.978 836.09 C 628.382 838.859 628.145 839.383 626.855 841.912 C 622.557 845.355 613.971 845.737 608.741 844.37 C 600.456 842.203 604.713 838.12 599.336 833.619 C 592.278 831.98 583.476 838.607 575.806 842.35 C 567.245 838.759 558.122 837.217 556.797 827.139 C 557.398 823.989 560.238 821.334 562.445 818.797 C 555.573 813.449 553.849 816.063 547.029 813.81 C 543.073 810.313 541.787 804.374 540.051 799.196 C 548.936 779.986 545.266 788.045 561.948 782.976 C 565.871 781.784 560.452 778.242 561.194 773.178 C 565.825 766.828 575.107 764.104 582.547 761.115 L 595.03 768.749 C 596.02 768.557 597.008 768.354 597.994 768.142 C 605.161 766.606 603.177 765.065 607.572 758.26 C 610.252 756.235 614.802 756.542 618.322 756.414 z" fill="rgb(1,36,59)" transform="translate(0,0)"></path>
<path d="M 592.188 773.168 C 598.185 772.496 604.94 772.194 610.321 769.675 C 613.009 765.643 612.752 763.029 616.6 760.526 C 623.149 759.339 627.61 764.643 630.835 769.747 C 635.983 770.194 641.126 770.689 646.264 771.23 C 649.918 769.225 655.685 765.27 659.262 766.118 C 660.337 770.965 659.508 775.867 663.784 778.106 C 671.303 782.044 678.39 772.944 685.807 778.191 L 686.247 780.211 C 681.543 785.264 674.245 783.344 674.305 790.075 C 680.058 799.207 692.154 793.824 695.175 801.464 L 693.826 803.567 C 690.177 803.685 680.863 802.191 676.074 801.922 C 672.156 804.571 664.874 808.782 662.811 812.613 C 662.482 818.859 667.616 821 672.411 824.54 L 658.461 829.455 C 654.136 825.457 649.822 821.135 644.845 818.032 C 642.428 818.279 632.759 819.104 631.026 819.663 L 630.576 822.383 C 627.276 820.925 616.645 821.28 613.283 822.06 L 611.501 824.831 C 608.505 817.113 608.774 824.131 604.237 818.757 C 600.061 817.665 595.869 816.638 591.661 815.677 L 573.879 828 C 569.733 825.77 568.406 826.009 566.693 822.563 C 568.877 817.908 575.681 814.263 580.438 810.932 L 570.843 801.395 L 549.745 799.772 C 550.728 794.962 550.085 793.917 552.98 791.015 C 557.123 789.789 562.718 791.387 568.725 790.974 C 572.218 786.806 575.774 782.691 579.392 778.632 L 570.313 772.088 C 573.71 770.568 578.46 768.266 581.854 767.068 L 592.188 773.168 z" fill="rgb(248,204,132)" transform="translate(0,0)"></path>
<path d="M 604.237 818.757 C 612.718 819.334 622.675 820.297 631.026 819.663 L 630.576 822.383 C 627.276 820.925 616.645 821.28 613.283 822.06 L 611.501 824.831 C 608.505 817.113 608.774 824.131 604.237 818.757 z" fill="rgb(1,36,59)" transform="translate(0,0)"></path>
<path d="M 616.17 774.334 C 667.505 772.458 680.033 807.686 627.861 813.661 C 583.926 815.509 559.78 781.642 616.17 774.334 z" fill="rgb(1,36,59)" transform="translate(0,0)"></path>
<path d="M 612.672 787.174 C 637.009 784.404 665.238 801.933 631.448 809.814 C 606.743 813.417 578.616 797.14 612.672 787.174 z" fill="rgb(252,250,244)" transform="translate(0,0)"></path>
<path d="M 616.088 777.325 C 627.825 776.656 647.557 778.662 655.483 788.523 C 659.219 793.169 656.301 798.965 651.501 801.613 C 645.281 795.972 656.447 790.634 629.29 783.294 C 590.64 780.125 598.504 795.84 590.054 799.24 C 574.199 786.273 607.701 778.444 616.088 777.325 z" fill="rgb(248,204,132)" transform="translate(0,0)"></path>
<path d="M 564.631 809.709 C 559.402 808.711 554.411 808.079 549.729 805.526 L 549.522 804.529 C 559.772 803.417 567.287 801.346 573.279 810.898 C 568.298 814.276 568.455 813.127 564.631 809.709 z" fill="rgb(65,136,145)" transform="translate(0,0)"></path>
<path d="M 564.631 809.709 C 561.611 805.852 561.049 809.048 560.222 805.989 L 562.922 807.433 L 564.062 806.094 C 569.927 807.983 569.532 809.239 573.279 810.898 C 568.298 814.276 568.455 813.127 564.631 809.709 z" fill="rgb(6,42,66)" transform="translate(0,0)"></path>
<path d="M 613.283 822.06 C 617.894 822.899 622.013 822.391 624.872 824.429 C 624.65 829.495 620.012 831.771 615.403 831.784 C 611.449 829.821 611.007 829.687 611.501 824.831 L 613.283 822.06 z" fill="rgb(248,204,132)" transform="translate(0,0)"></path>
<path d="M 592.902 820.059 C 596.87 819.69 601.104 821.015 604.884 822.09 C 598.324 824.159 596.512 819.132 585.981 827.117 C 582.872 827.555 581.829 831.181 577.718 831.79 C 580.147 827.581 588.613 822.532 592.902 820.059 z" fill="rgb(59,93,109)" transform="translate(0,0)"></path>
<path d="M 676.862 805.224 C 680.948 805.451 691.508 806.535 693.105 810.227 C 688.061 808.9 681.931 807.833 676.747 806.791 L 676.862 805.224 z" fill="rgb(50,113,131)" transform="translate(0,0)"></path>
<path d="M 623.652 834.049 C 623.756 834.318 623.727 836.341 623.73 836.787 L 622.422 837.842 C 617.998 836.43 616.662 836.185 612.037 835.655 L 610.719 835.353 L 611.399 834.404 C 616.508 834.654 618.646 834.798 623.652 834.049 z" fill="rgb(50,113,131)" transform="translate(0,0)"></path>
<path d="M 630.576 822.383 C 634.094 822.143 639.079 821.435 642.187 822.588 L 641.492 823.391 C 638.219 823.895 633.915 824.843 630.802 824.227 L 630.576 822.383 z" fill="rgb(143,157,163)" transform="translate(0,0)"></path>
<path d="M 664.606 831.051 L 665.44 831.544 C 663.953 833.382 659.345 834.71 656.767 835.723 L 656.385 835.406 L 656.657 834.192 L 664.606 831.051 z" fill="rgb(59,93,109)" transform="translate(0,0)"></path>
<path d="M 649.689 828.312 L 651.288 827.869 L 653.165 829.79 L 651.071 830.279 L 649.689 828.312 z" fill="rgb(59,93,109)" transform="translate(0,0)"></path>
<path d="M 447.573 768.459 C 449.226 768.313 450.884 768.237 452.543 768.231 C 471.191 768.085 495.265 771.626 509.608 785.072 C 512.439 787.726 514.974 791.074 514.988 794.962 C 513.379 796.798 512.534 797.507 510.641 799.058 C 512.009 801.662 516.735 807.796 515.06 810.371 C 504.867 826.043 486.385 824.29 472.435 829.304 L 471.583 829.616 C 454.721 834.104 424.144 828.525 409.129 819.368 C 400.113 813.868 395.933 805.073 402.743 795.824 C 403.018 795.45 401.922 789.969 401.754 789.174 C 404.857 775.42 435.522 769.491 447.573 768.459 z" fill="rgb(1,36,59)" transform="translate(0,0)"></path>
<path d="M 406.075 790.868 C 414.806 779.018 445.929 770.325 460.109 774.282 C 461.241 774.772 462.579 775.449 463.743 775.696 C 467.176 773.454 469.445 773.832 473.046 774.9 C 475.617 774.798 475.918 774.845 478.186 776.054 C 485.83 776.383 506.152 785.389 507.745 793.52 C 503.983 795.479 504.173 792.054 499.76 795.136 C 498.88 798.035 498.688 798.478 499.677 801.305 C 504.24 805.726 507.28 803.042 508.274 806.877 C 505.103 811.598 500.721 813.955 495.821 816.515 C 488.806 820.181 486.094 822.168 479.091 817.707 C 474.93 818.064 470.667 818.379 466.53 818.883 C 465.932 820.588 465.295 821.858 465.449 823.641 L 465.209 824.597 C 449.811 826.239 408.315 821.572 406.376 801.493 C 408.505 801.842 409.923 802.254 412.003 802.841 C 418.032 801.74 421.108 799.102 420.31 792.498 C 418.018 788.793 419.006 789.958 415.024 787.811 C 410.761 787.659 409.744 788.561 406.075 790.868 z" fill="rgb(248,204,132)" transform="translate(0,0)"></path>
<path d="M 465.274 817.499 C 454.794 818.471 427.374 816.13 430.853 801.039 C 438.253 768.938 518.472 793.293 473.118 815.577 L 465.274 817.499 z" fill="rgb(1,36,59)" transform="translate(0,0)"></path>
<path d="M 457.565 789.32 C 483.201 788.618 492.322 809.214 460.258 814.05 C 430.828 814.172 425.708 793.427 457.565 789.32 z" fill="rgb(252,250,244)" transform="translate(0,0)"></path>
<path d="M 463.743 775.696 C 467.176 773.454 469.445 773.832 473.046 774.9 C 475.617 774.798 475.918 774.845 478.186 776.054 C 475.44 783.762 462.274 782.915 458.724 777.409 L 460.109 774.282 C 461.241 774.772 462.579 775.449 463.743 775.696 z" fill="rgb(1,36,59)" transform="translate(0,0)"></path>
<path d="M 463.743 775.696 C 467.176 773.454 469.445 773.832 473.046 774.9 C 469.886 777.437 467.662 776.358 463.743 775.696 z" fill="rgb(191,192,177)" transform="translate(0,0)"></path>
<path d="M 473.118 815.577 C 474.978 816.325 477.162 817.311 479.091 817.707 C 474.93 818.064 470.667 818.379 466.53 818.883 L 465.274 817.499 L 473.118 815.577 z" fill="rgb(235,210,158)" transform="translate(0,0)"></path>
<path d="M 406.075 790.868 C 409.744 788.561 410.761 787.659 415.024 787.811 C 414.738 789.777 414.438 792.651 413.876 794.46 C 414.342 794.591 415.044 795.207 415.494 795.542 C 413.58 797.94 414.66 797.227 410.765 797.761 C 407.415 796.64 407.113 795.949 405.259 793.111 L 406.075 790.868 z" fill="rgb(6,42,66)" transform="translate(0,0)"></path>
<path d="M 405.259 793.111 C 408.792 794.317 410.178 795.023 413.876 794.46 C 414.342 794.591 415.044 795.207 415.494 795.542 C 413.58 797.94 414.66 797.227 410.765 797.761 C 407.415 796.64 407.113 795.949 405.259 793.111 z" fill="rgb(191,192,177)" transform="translate(0,0)"></path>
<path d="M 465.449 823.641 C 472.43 823.135 469.807 822.325 477.087 824.094 L 476.615 825.029 C 470.296 825.909 470.386 824.805 465.209 824.597 L 465.449 823.641 z" fill="rgb(171,185,186)" transform="translate(0,0)"></path>
<path d="M 504.371 692.196 C 518.137 691.35 555.831 692.477 567.168 701.985 C 573.191 707.037 574.222 714.151 574.516 721.549 C 588.179 734.053 550.948 746.647 543.412 751.621 C 538.714 754.721 533.53 754.739 528.165 753.313 C 524.14 752.671 514.024 753.125 509.956 753.217 C 489.128 753.687 446.014 742.897 467.125 713.945 C 466.989 714.132 464.507 708.447 464.381 706.39 C 467.839 698.588 473.178 699.12 479.549 701.728 C 485.177 700.63 499.652 695.183 504.371 692.196 z" fill="rgb(1,36,59)" transform="translate(0,0)"></path>
<path d="M 507.606 697.414 C 511.329 695.703 514.663 695.93 518.642 696.935 C 533.992 697.501 552.152 704.201 560.454 703.566 C 562.601 706.257 566.434 710.39 566.867 713.552 C 565.554 716.908 564.332 719.283 564.479 722.885 C 565.712 725.492 567.746 726.386 570.188 727.882 C 567.474 737.808 542.905 741.904 534.002 743.152 C 532.641 743.343 530.522 745.89 529.664 747.034 C 515.137 745.664 475.267 748.911 470.202 729.235 C 468.237 721.6 477.973 727.48 483.929 719.828 C 483.257 710.217 475.07 713.067 472.568 706.663 C 474.083 706.664 475.019 706.643 476.512 706.81 C 485.64 707.828 491.583 702.092 503.118 700.527 L 507.606 697.414 z" fill="rgb(248,204,132)" transform="translate(0,0)"></path>
<path d="M 507.606 697.414 C 511.329 695.703 514.663 695.93 518.642 696.935 L 518.367 697.983 L 518.191 700.113 C 515.067 702.191 506.413 702.231 503.118 700.527 L 507.606 697.414 z" fill="rgb(1,36,59)" transform="translate(0,0)"></path>
<path d="M 507.606 697.414 C 511.329 695.703 514.663 695.93 518.642 696.935 L 518.367 697.983 C 516.698 697.214 511.215 698.226 507.606 697.414 z" fill="rgb(59,93,109)" transform="translate(0,0)"></path>
<path d="M 515.261 709.276 C 546.249 705.472 565.218 734.435 523.577 741.677 C 489.523 743.237 476.078 715.255 515.261 709.276 z" fill="rgb(1,36,59)" transform="translate(0,0)"></path>
<path d="M 512.723 713.217 C 536.601 711.328 558.946 726.86 527.596 737.18 C 503.845 740.245 477.905 723.116 512.723 713.217 z" fill="rgb(252,250,244)" transform="translate(0,0)"></path>
<path d="M 473.64 715.875 L 474.605 716.828 C 467.974 722.515 469.622 717.878 466.913 728.27 L 466.008 728.049 C 464.24 722.67 468.764 717.756 473.64 715.875 z" fill="rgb(59,93,109)" transform="translate(0,0)"></path>
<path d="M 529.664 747.034 C 533.979 746.814 539.138 745.386 541.93 748.63 C 535.957 750.235 534.735 750.746 529.664 747.034 z" fill="rgb(171,185,186)" transform="translate(0,0)"></path>
<path d="M 494.854 839.272 C 510.34 838.077 525.337 840.071 538.774 848.688 C 544.201 852.399 549.92 858.221 550.926 865.034 C 554.278 887.732 522.599 892.43 507.234 894.844 C 446.385 900.042 425.834 852.262 494.854 839.272 z" fill="rgb(1,36,59)" transform="translate(0,0)"></path>
<path d="M 535.517 882.356 C 515.985 889.885 470.35 896.667 457.908 871.203 C 452.203 859.526 478.944 847.776 489.155 846.114 C 503.532 843.774 521.62 843.154 534.84 851.932 C 557.947 870.372 535.125 871.642 532.512 875.217 C 532.011 878.834 531.868 877.342 533.438 880.98 L 535.517 882.356 z" fill="rgb(248,204,132)" transform="translate(0,0)"></path>
<path d="M 501.995 852.317 C 530.947 850.679 545.241 875.812 509.48 881.925 C 476.827 882.465 467.368 857.321 501.995 852.317 z" fill="rgb(1,36,59)" transform="translate(0,0)"></path>
<path d="M 500.319 856.318 C 508.883 855.683 527.799 858.267 525.385 870.363 C 521.827 875.365 517.171 876.126 511.36 877.878 C 487.331 879.642 471.908 863.154 500.319 856.318 z" fill="rgb(252,250,244)" transform="translate(0,0)"></path>
<path d="M 533.438 880.98 C 536.867 879.203 537.928 877.942 541.298 878.02 C 539.667 880.548 538.206 880.97 535.517 882.356 L 533.438 880.98 z" fill="rgb(191,192,177)" transform="translate(0,0)"></path>
<path d="M 364.725 793.396 C 366.422 794.055 366.508 794.476 367.447 796.018 C 366.716 801.585 346.097 827.663 341.161 834.537 C 338.954 833.48 339.721 834.075 338.343 831.98 C 339.237 825.66 359.354 800.591 364.725 793.396 z" fill="rgb(1,36,59)" transform="translate(0,0)"></path>
<path d="M 380.442 798.603 C 382.717 799.364 381.743 798.747 383.387 800.638 C 383.148 805.228 362.21 831.254 357.874 836.93 L 355.327 836.015 L 354.656 834.496 C 356.155 828.102 375.306 804.187 380.442 798.603 z" fill="rgb(1,36,59)" transform="translate(0,0)"></path>
<path d="M 587.664 867.291 C 591.398 868.047 595.454 869.256 597.194 872.701 C 596.967 876.28 593.202 879.632 590.659 882.459 C 587.984 883.485 584.322 883.001 582.502 880.625 C 582.189 876.425 585.143 870.561 587.664 867.291 z" fill="rgb(1,36,59)" transform="translate(0,0)"></path>
<path d="M 428.901 841.693 C 430.038 841.739 431.502 842.145 432.655 842.401 C 436.929 849.217 429.519 853.94 426.554 858.339 L 426.058 859.083 C 423.057 858.392 423.871 859.001 421.895 857.042 L 423.104 852.516 C 420.863 851.346 421.419 851.993 420.108 850.027 C 421.786 846.29 426.249 847.359 428.901 841.693 z" fill="rgb(1,36,59)" transform="translate(0,0)"></path>
<path d="M 438.134 745.406 C 439.579 745.828 444.925 750.118 446.455 751.293 L 446.081 752.741 C 444.096 753.504 442.487 754.046 440.636 755.127 L 440.445 759.279 L 436.789 762.144 C 436.359 762.531 435.024 762.796 434.365 762.979 L 433.095 762.013 C 432.824 758.836 432.819 755.9 432.787 752.719 C 435.299 750.084 436 749.338 437.749 746.123 L 438.134 745.406 z" fill="rgb(1,36,59)" transform="translate(0,0)"></path>
<path d="M 738.208 452.39 C 740.474 452.067 746.314 451.928 748.861 451.791 C 751.885 460.011 754.761 468.285 757.489 476.608 C 764.018 477.448 769.572 478.278 776.032 479.527 C 783.118 471.864 788.827 465.629 795.297 457.362 L 814.365 466.534 C 809.895 474.276 805.765 481.901 802.577 490.258 C 808.118 494.988 812.941 499.751 818.146 504.842 C 825.364 502.245 833.92 496.983 840.751 493.068 C 846.284 499.557 851.663 504.761 857.731 510.691 C 850.75 516.861 842.371 521.474 834.791 527.949 C 838.781 535.364 840.766 541.832 842.849 549.895 C 851.455 550.341 860.071 550.597 868.689 550.661 L 868.822 575.85 C 859.839 577.284 851.997 578.377 842.954 579.286 C 838.534 604.248 833.694 601.643 859.972 612.979 C 855.445 620.952 848.915 630.863 843.972 638.937 C 837.329 635.844 829.752 631.483 823.222 627.931 C 817.349 634.69 812.832 639.632 806.414 645.847 C 811.032 653.231 815.015 659.611 819.049 667.373 L 798.998 679.526 C 793.592 674.138 787.649 667.066 782.517 661.257 C 774.049 664.044 765.891 666.731 757.293 669.149 C 756.574 671.99 755.958 675.335 755.348 678.243 L 753.583 693.005 C 746.314 693.384 738.837 693.491 731.543 693.677 C 730.796 687.194 728.431 676.852 727.11 670.171 C 719.835 668.668 711.573 667.437 704.078 665.987 C 698.758 672.832 693.165 679.462 687.314 685.86 C 681.514 682.718 675.618 679.303 669.848 676.063 C 673.84 668.094 677.509 662.45 682.381 654.931 C 675.162 649.665 671.66 647.032 665.382 640.764 C 656.44 643.791 652.301 646.108 644.592 651.229 C 639.404 645.61 633.686 640.042 628.262 634.612 C 635.109 630.506 644.223 623.833 650.995 619.184 C 648.256 610.361 645.887 606.977 643.708 596.745 C 636.606 596.766 629.505 596.659 622.407 596.424 C 622.183 589.596 621.784 582.775 621.209 575.967 C 627.78 574.212 637.229 571.799 643.267 569.211 C 644.076 560.867 645.408 555.306 647.658 547.318 C 643.145 543.789 635.932 539.583 630.873 536.461 C 633.928 530.339 638.421 522.8 641.823 516.703 C 648.433 519.531 655.133 522.144 661.912 524.537 C 666.531 519.766 672.19 512.866 676.658 507.734 C 672.903 500.477 669.671 495.677 665.07 488.87 C 672.055 484.035 678.196 479.324 684.906 474.102 C 691.766 478.602 698.203 483.267 705.251 487.779 C 711.455 484.833 717.754 482.506 724.159 480.038 C 725.569 470.936 725.969 463.153 726.491 454.009 C 729.68 453.283 734.823 452.808 738.208 452.39 z" fill="rgb(248,204,132)" transform="translate(0,0)"></path>
<path d="M 742.451 508.218 C 757.84 507.164 772.154 509.929 785.167 518.519 C 798.602 527.392 807.888 541.311 810.922 557.123 C 819.406 599.822 786.159 630.5 746.904 637.92 C 730.142 638.771 715.59 637.127 701.146 627.485 C 688.035 618.857 678.91 605.353 675.795 589.969 C 667.35 546.456 703.001 515.802 742.451 508.218 z" fill="rgb(1,36,59)" transform="translate(0,0)"></path>
<path d="M 740.432 514.184 C 755.314 512.69 768.362 514.484 781.284 522.691 C 793.503 530.487 802.087 542.857 805.113 557.032 C 808.496 572.406 805.513 588.494 796.844 601.633 C 784.895 620.077 768.722 628.212 747.949 632.67 C 733.146 634.185 718.795 632.192 705.99 624.144 C 693.781 616.53 685.145 604.328 682.025 590.282 C 673.477 550.828 704.387 521.997 740.432 514.184 z" fill="rgb(252,250,244)" transform="translate(0,0)"></path>
<path d="M 740.934 525.255 C 752.096 524.193 762.898 526.221 772.634 531.956 C 783.062 538.042 790.581 548.092 793.477 559.813 C 801.23 591.446 776.721 614.614 748.287 621.659 C 679.865 626.822 672.97 541.719 740.934 525.255 z" fill="rgb(1,36,59)" transform="translate(0,0)"></path>
<path d="M 739.746 531.226 C 795.724 523.595 809.563 600.357 748.552 615.899 C 738.666 617.174 729.121 616.271 720.157 611.638 C 711.303 607.087 704.658 599.159 701.723 589.647 C 692.703 561.051 713.917 539.167 739.746 531.226 z" fill="rgb(252,250,244)" transform="translate(0,0)"></path>
<path d="M 88.881 752.337 L 498.47 940.179 C 498.286 953.439 498.368 966.904 498.33 980.183 C 468.193 967.562 430.451 948.103 399.799 933.931 C 334.254 904.309 268.886 874.297 203.699 843.897 C 168.903 827.731 123.853 805.479 88.7293 791.974 C 88.4031 778.763 88.4537 765.545 88.881 752.337 z" fill="rgb(252,250,244)" transform="translate(0,0)"></path>
<path d="M 171.209 806.492 C 180.151 807.924 248.487 841.704 260.842 847.345 C 310.052 869.532 359.12 892.035 408.042 914.852 L 451.396 934.899 C 459.146 938.48 471.132 943.625 478.01 947.868 C 479.326 950.721 479.109 949.441 478.063 953.253 C 471.314 951.77 452.783 942.469 446.06 939.233 C 432.084 932.462 418.031 925.851 403.904 919.399 C 328.878 885.72 254.156 851.368 179.746 816.346 C 173.989 813.573 169.988 813.043 171.209 806.492 z" fill="rgb(1,36,59)" transform="translate(0,0)"></path>
<path d="M 111.227 780.527 C 116.237 780.533 142.793 792.88 148.095 796.832 C 150.438 798.578 149.951 799.566 150.232 802.43 C 144.403 802.229 117.911 789.529 112.091 785.368 C 110.83 784.466 111.243 782.477 111.227 780.527 z" fill="rgb(1,36,59)" transform="translate(0,0)"></path>
<path d="M 804.643 807.979 L 805.443 808.21 C 808.016 811.054 806.931 838.831 806.891 844.98 C 783.913 857.072 745.789 872.487 720.533 883.9 L 509.722 978.721 L 509.334 978.417 C 508.099 975.516 508.5 946.165 508.305 940.169 C 519.735 935.669 533.749 928.906 545.2 923.804 L 619.847 890.419 L 804.643 807.979 z" fill="rgb(252,250,244)" transform="translate(0,0)"></path>
<path d="M 779.241 834.799 C 782.288 835.538 781.272 834.894 783.23 837.081 L 782.659 839.225 C 778.79 843.092 613.329 915.85 594.321 924.12 C 592.44 924.372 592.17 924.139 590.461 923.426 L 590.031 921.565 C 592.127 917.792 650.439 892.929 659.065 889.079 C 699.219 871.197 739.278 853.104 779.241 834.799 z" fill="rgb(1,36,59)" transform="translate(0,0)"></path>
<path d="M 560.854 931.596 C 562.678 931.676 563.216 932.245 564.727 933.254 L 565.171 935.615 C 563.308 939.508 561.944 940.112 558.271 942.495 C 555.275 940.842 554.99 940.456 554.377 937.492 C 555.651 934.586 558.171 933.354 560.854 931.596 z" fill="rgb(1,36,59)" transform="translate(0,0)"></path>
<path d="M 540.971 939.613 C 544.414 939.938 544.928 941.19 545.389 944.069 C 543.987 947.711 542.735 948.235 539.447 950.346 C 536.515 949.345 535.85 949.178 534.75 946.51 C 535.699 943.209 538.226 941.749 540.971 939.613 z" fill="rgb(1,36,59)" transform="translate(0,0)"></path>
<path d="M 431.759 247.003 C 435.901 251.313 463.545 312.485 468.316 322.529 C 447.542 333.903 423.976 345.122 402.683 356.062 L 398.961 357.902 L 397.33 357.238 C 388.589 339.483 375.901 298.753 368.123 278.084 C 380.724 270.19 415.904 254.688 431.759 247.003 z" fill="rgb(252,250,244)" transform="translate(0,0)"></path>
<path d="M 316.701 258.734 C 330.303 264.451 343.579 270.912 356.47 278.09 C 363.361 295.805 388.58 362.696 388.414 377.409 L 387.009 379.391 C 370.855 372.595 350.415 361.393 334.22 353.722 C 324.259 349.003 296.508 335.652 288.451 329.791 C 286.642 320.386 311.062 271.179 316.701 258.734 z" fill="rgb(65,136,145)" transform="translate(0,0)"></path>
<path d="M 771.748 117.059 L 772.564 118.117 C 770.159 132.812 748.119 292.341 745.784 296.029 C 743.343 296.959 742.658 297.527 740.335 296.785 C 738.165 292.257 736.637 282.144 735.635 276.761 C 729.486 238.435 719.096 186.94 710.485 148.922 C 730.338 137.933 751.529 127.776 771.748 117.059 z" fill="rgb(252,250,244)" transform="translate(0,0)"></path>
<path d="M 331.687 664.093 C 332.316 666.507 332.814 668.868 333.869 671.12 C 347.715 676.87 371.867 671.172 383.103 688.768 C 381.324 690.496 378.336 689.017 379.297 691.272 C 384.067 702.471 385.841 702.311 374.428 710.575 C 371.119 712.953 368.817 714.466 365.294 716.504 C 350.682 718.34 342.508 718.506 328.765 716.353 C 300.482 711.923 281.949 690.315 316.019 675.682 C 316.806 675.344 319.847 676.202 320.836 676.415 C 320.977 676.113 321.238 673.372 321.647 672.177 C 324.955 671.66 325.602 671.305 328.034 669.001 C 328.591 668.849 330.058 668.078 330.662 667.783 L 331.687 664.093 z" fill="rgb(248,204,132)" transform="translate(0,0)"></path>
<path d="M 365.294 716.504 C 361.369 716.352 360.175 716.489 357.635 714.19 L 357.609 712.233 C 362.248 706.83 368.675 707.852 374.428 710.575 C 371.119 712.953 368.817 714.466 365.294 716.504 z" fill="rgb(1,36,59)" transform="translate(0,0)"></path>
<path d="M 331.687 664.093 C 332.316 666.507 332.814 668.868 333.869 671.12 C 330.659 675.245 326.33 678.479 320.836 676.415 C 320.977 676.113 321.238 673.372 321.647 672.177 C 324.955 671.66 325.602 671.305 328.034 669.001 C 328.591 668.849 330.058 668.078 330.662 667.783 L 331.687 664.093 z" fill="rgb(6,42,66)" transform="translate(0,0)"></path>
<path d="M 337.793 681.399 C 369.386 682.433 376.988 707.287 345.813 711.182 C 311.987 711.657 302.941 685.207 337.793 681.399 z" fill="rgb(1,36,59)" transform="translate(0,0)"></path>
<path d="M 331.965 686.259 C 342.14 685.248 356.127 685.667 361.071 696.517 C 360.977 703.361 354.889 705.157 348.994 706.577 C 339.779 707.06 327.544 706.207 321.664 697.911 C 320.231 690.488 326.03 688.678 331.965 686.259 z" fill="rgb(252,250,244)" transform="translate(0,0)"></path>
<path d="M 477.022 330.965 C 475.428 330.838 507.277 350.944 510.56 352.891 C 506.022 356.112 442.687 389.833 438.529 390.776 C 425.877 383.667 413.119 376.745 400.262 370.013 C 424.117 358.842 452.637 343.079 477.022 330.965 z" fill="rgb(65,136,145)" transform="translate(0,0)"></path>
<path d="M 383.07 218.846 C 390.683 219.436 417.451 233.15 425.347 236.988 C 407.889 247.165 382.884 258.806 364.381 268.359 C 361.502 269.083 327.965 250.907 322.639 248.148 C 342.332 238.026 363.042 228.353 383.07 218.846 z" fill="rgb(65,136,145)" transform="translate(0,0)"></path>
<path d="M 753.943 310.071 C 797.521 307.773 764.99 364.069 739.244 370.984 C 702.379 370.553 718.489 319.762 753.943 310.071 z" fill="rgb(65,136,145)" transform="translate(0,0)"></path>
<path d="M 751.859 319.11 C 776.617 318.434 763.584 356.525 737.265 362.966 C 734.883 363.027 732.516 362.563 730.332 361.609 C 714.998 354.83 729.085 333.366 737.125 326.525 C 742.391 322.044 745.271 320.979 751.859 319.11 z" fill="rgb(1,36,59)" transform="translate(0,0)"></path>
<path d="M 750.482 324.944 C 767.829 327.269 754.858 345.787 747.915 351.721 C 745.178 354.059 741.885 355.501 738.666 356.958 C 733.907 356.908 732.619 356.613 730.075 352.623 C 728.238 341.288 740.893 329.265 750.482 324.944 z" fill="rgb(252,250,244)" transform="translate(0,0)"></path>
<path d="M 786.329 96.9192 C 787.545 97.335 787.57 97.8081 788.526 99.018 L 788.043 101.05 C 783.879 105.585 695.5 149.668 683.922 155.58 L 457.397 271.711 C 456.114 269.769 456.103 269.643 455.564 267.35 C 461.326 260.926 583.99 200.319 600.295 192.047 C 660.991 161.256 725.039 126.273 786.329 96.9192 z" fill="rgb(252,250,244)" transform="translate(0,0)"></path>
<path d="M 600.031 133.107 L 600.727 134.098 C 592.655 150.88 573.629 182.143 563.686 198.84 C 554.758 195.567 540.895 188.986 531.808 185 C 525.834 182.365 519.225 179.798 513.144 177.296 C 516.7 175.645 520.347 173.616 523.83 171.779 C 549.068 158.474 574.838 146.523 600.031 133.107 z" fill="rgb(252,250,244)" transform="translate(0,0)"></path>
<path d="M 716.052 60.9146 C 719.115 61.7108 721.556 62.0956 724.167 63.8654 C 723.475 65.5741 716.199 67.6501 713.787 68.7799 C 702.001 74.2981 690.432 80.2236 678.82 86.0957 L 415.408 219.924 C 413.23 221.187 410.315 220.676 408.678 218.828 L 409.248 216.977 C 412.129 214.022 466.408 187.409 474.248 183.423 L 716.052 60.9146 z" fill="rgb(252,250,244)" transform="translate(0,0)"></path>
<path d="M 715.741 74.9734 L 716.793 76.3871 C 705.793 96.4608 695.849 116.891 684.905 136.895 L 652.75 123.596 C 646.751 121.305 640.38 118.52 634.41 116.039 C 661.315 101.948 688.428 88.2577 715.741 74.9734 z" fill="rgb(252,250,244)" transform="translate(0,0)"></path>
<path d="M 419.474 405.794 C 422.149 407.157 423.06 407.515 425.272 409.705 L 424.716 631.378 C 424.582 650.005 424.546 668.633 424.608 687.261 C 424.607 697.129 424.913 714.469 423.541 723.808 C 421.38 723.486 421.257 723.396 419.293 722.382 C 417.144 711.442 418.96 664.234 418.874 650.456 L 419.474 405.794 z" fill="rgb(252,250,244)" transform="translate(0,0)"></path>
<path d="M 328.034 669.001 C 326.178 666.897 325.465 666.879 325.758 664.141 C 326.891 653.533 328.918 642.376 330.119 631.85 C 333.376 603.308 338.625 575.515 342.942 547.124 C 350.866 495.013 357.483 442.764 364.75 390.566 C 365.185 387.442 365.54 383.727 367.586 381.773 C 371.061 384.145 371.036 383.353 372.414 386.677 C 365.644 413.262 346.981 585.039 341.755 591.385 C 338.05 595.885 339.002 600.616 338.703 606.158 C 337.087 607.758 336.309 608.051 334.289 609.156 L 334.232 610.845 C 336.359 612.058 336.779 612.307 338.493 614.045 C 338.492 622.323 333.037 654.856 331.687 664.093 L 330.662 667.783 C 330.058 668.078 328.591 668.849 328.034 669.001 z" fill="rgb(252,250,244)" transform="translate(0,0)"></path>
<path d="M 626.906 132.38 C 635.449 134.305 660.685 146.023 670.266 149.94 C 656.768 156.046 639.223 165.754 625.634 172.647 C 615.795 177.838 605.868 182.861 595.856 187.712 C 602.141 173.822 618.648 146.62 626.906 132.38 z" fill="rgb(252,250,244)" transform="translate(0,0)"></path>
<path d="M 507.223 193.837 C 520.716 199.243 536.25 205.28 548.888 212.158 C 533.858 218.976 517.157 227.935 502.285 235.533 C 493.5 239.706 484.124 245.03 475.505 249.697 C 486.122 232.452 497.343 211.669 507.223 193.837 z" fill="rgb(252,250,244)" transform="translate(0,0)"></path>
<path d="M 470.146 395.603 L 472.114 397.03 C 474.644 408.429 477.155 434.54 478.857 447.451 L 493.578 562.067 C 495.211 574.666 498.856 589.293 499.62 601.917 C 499.787 604.682 497.015 606.116 494.792 607.88 C 493.286 607.644 493.873 607.796 492.547 606.738 C 486.636 555.407 480.175 504.141 473.166 452.949 C 471.013 436.377 468.125 416.965 466.091 400.147 C 465.882 398.419 468.464 396.974 470.146 395.603 z" fill="rgb(252,250,244)" transform="translate(0,0)"></path>
<path d="M 482.076 193.163 L 482.723 194.099 C 475.533 208.495 457.094 236.753 447.841 251.67 C 445.202 246.381 442.457 239.903 439.975 234.441 C 437.652 231.407 424.804 226.137 420.553 224.218 C 441.156 214.477 461.46 203.207 482.076 193.163 z" fill="rgb(252,250,244)" transform="translate(0,0)"></path>
<path d="M 411.345 568.935 C 411.726 569.025 412.341 569.641 412.709 569.947 C 413.481 583.855 413.02 601.706 413.032 615.908 L 383.584 601.259 C 377.336 597.991 370.347 594.739 363.967 591.609 C 379.895 584.339 395.691 576.779 411.345 568.935 z" fill="rgb(252,250,244)" transform="translate(0,0)"></path>
<path d="M 357.395 531.33 C 371.266 537.337 385.711 544.355 399.47 550.773 L 380.234 560.936 L 350.701 576.054 C 353.536 561.72 354.923 546.032 357.395 531.33 z" fill="rgb(252,250,244)" transform="translate(0,0)"></path>
<path d="M 738.058 81.7558 L 772.057 97.5765 L 740.676 113.588 L 715.749 126.346 L 738.058 81.7558 z" fill="rgb(252,250,244)" transform="translate(0,0)"></path>
<path d="M 430.904 569.277 C 444.899 576.57 458.652 582.696 472.848 590.409 L 459.218 597.789 L 430.8 613.025 L 430.904 569.277 z" fill="rgb(252,250,244)" transform="translate(0,0)"></path>
<path d="M 475.788 529.958 C 478.266 532.153 481.267 565.377 482.208 571.707 C 474.352 567.787 466.452 563.956 458.509 560.215 L 437.885 549.95 C 450.372 543.01 463.009 536.344 475.788 529.958 z" fill="rgb(252,250,244)" transform="translate(0,0)"></path>
<path d="M 368.335 454.112 C 380.655 460.269 392.81 464.864 405.447 471.389 L 389.103 479.909 C 381.329 484.089 370.849 488.81 362.734 492.747 C 364.728 479.887 366.595 467.008 368.335 454.112 z" fill="rgb(252,250,244)" transform="translate(0,0)"></path>
<path d="M 412.028 493.365 C 413.711 496.014 412.342 526.925 412.167 531.93 C 404.227 528.109 396.315 524.229 388.432 520.291 L 373.474 513.86 C 385.831 506.448 399.131 499.76 412.028 493.365 z" fill="rgb(252,250,244)" transform="translate(0,0)"></path>
<path d="M 430.898 492.039 C 439.482 495.417 458.166 505.512 466.641 510.119 L 455.083 516.72 C 446.735 521.549 439.466 525.283 430.883 529.555 L 430.898 492.039 z" fill="rgb(252,250,244)" transform="translate(0,0)"></path>
<path d="M 358.916 518.381 C 360.595 517.207 362.045 515.729 364.258 516.514 C 375.137 520.375 403.954 533.135 411.717 539.789 C 412.82 542.569 412.76 541.385 411.957 544.249 C 412.438 547.155 412.913 547.378 411.994 550.244 C 408.962 550.435 360.028 526.014 358.271 524.114 C 358.523 522.208 358.738 520.296 358.916 518.381 z" fill="rgb(6,42,66)" transform="translate(0,0)"></path>
<path d="M 358.916 518.381 C 360.595 517.207 362.045 515.729 364.258 516.514 C 375.137 520.375 403.954 533.135 411.717 539.789 C 412.82 542.569 412.76 541.385 411.957 544.249 C 396.213 535.61 375.493 526.539 358.916 518.381 z" fill="rgb(252,250,244)" transform="translate(0,0)"></path>
<path d="M 499.932 183.786 C 501.47 184.561 500.881 183.984 501.609 185.705 C 489.722 207.796 474.056 236.244 459.749 257.407 C 459.135 258.316 455.538 259.771 454.339 260.236 C 452.694 259.675 453.121 259.709 451.838 258.102 C 452.533 251.234 487.647 198.189 493.151 188.504 C 494.025 186.967 498.163 184.684 499.932 183.786 z" fill="rgb(252,250,244)" transform="translate(0,0)"></path>
<path d="M 465.806 453.942 C 468.261 456.201 471.163 483.83 471.878 489.183 L 450.344 478.68 C 444.842 476.132 439.228 473.848 433.63 471.517 C 443.977 465.345 455.14 459.618 465.806 453.942 z" fill="rgb(252,250,244)" transform="translate(0,0)"></path>
<path d="M 748.347 396.422 C 759.541 404.361 758.473 417.592 748.542 425.906 C 744.109 429.618 740.483 430.291 735.053 431.715 C 714.929 424.065 741.733 406.437 748.051 396.875 L 748.347 396.422 z" fill="rgb(252,250,244)" transform="translate(0,0)"></path>
<path d="M 728.225 66.3544 C 731.591 67.8949 732.3 67.4905 733.744 70.2171 C 727.763 86.7672 710.843 113.935 703.129 130.487 C 701.646 133.67 697.728 135.197 694.472 136.836 L 692.311 137.988 L 691.776 137.134 C 694.647 127.492 722.097 77.7102 728.225 66.3544 z" fill="rgb(252,250,244)" transform="translate(0,0)"></path>
<path d="M 612.722 125.697 C 614.443 125.912 615.914 126.265 617.606 126.641 L 618.17 128.061 C 611.314 142.179 602.402 156.056 594.934 170.009 C 590.658 177.997 585.783 187.015 581.252 194.907 C 580.643 195.968 575.802 198.108 574.36 198.761 C 572.803 199.741 572.62 199.567 570.802 199.503 C 570.606 196.241 607.79 133.334 612.722 125.697 z" fill="rgb(252,250,244)" transform="translate(0,0)"></path>
<path d="M 411.812 417.126 C 413.767 420.001 412.743 444.184 412.673 449.379 L 393.66 440.342 L 379.539 433.675 C 390.183 427.94 400.943 422.422 411.812 417.126 z" fill="rgb(252,250,244)" transform="translate(0,0)"></path>
<path d="M 438.565 399.593 C 456.417 389.739 480.991 375.676 500.034 369.505 C 488.772 378.057 451.867 398.851 438.777 405.704 C 426.364 399.408 398.512 384.008 387.009 379.391 L 388.414 377.409 C 397.378 378.54 428.245 395.069 438.565 399.593 z" fill="rgb(50,113,131)" transform="translate(0,0)"></path>
<path d="M 350.449 590.398 C 355.117 596.503 403.464 614.555 411.22 622.249 C 413.105 624.119 412.639 624.914 412.531 627.397 L 411.214 628.375 C 391.185 618.278 365.984 607.071 346.956 596.713 C 346.953 593.855 348.331 593.149 350.449 590.398 z" fill="rgb(252,250,244)" transform="translate(0,0)"></path>
<path d="M 745.191 301.973 C 747.764 302.133 747.941 302.061 750.027 303.434 C 748.722 305.671 735.009 310.745 730.264 315.632 C 717.387 328.895 710.866 339.678 712.116 359.719 C 711.059 359.741 710.134 359.338 709.079 359.018 C 708.03 358.109 705.636 356.051 705.549 354.664 C 704.055 330.863 723.252 308.129 745.191 301.973 z" fill="rgb(252,250,244)" transform="translate(0,0)"></path>
<path d="M 431.019 418.039 C 439.845 421.462 451.105 427.585 459.752 431.986 L 450.609 436.63 C 444.182 439.992 437.391 444.032 431.045 447.649 L 431.019 418.039 z" fill="rgb(252,250,244)" transform="translate(0,0)"></path>
<path d="M 405.579 553.911 C 407.844 555.009 409.509 555.468 410.743 557.58 C 404.09 563.26 363.8 583.26 354.254 587.41 L 351.896 587.992 L 350.805 586.954 L 351.05 584.548 C 355.897 578.441 396.076 558.963 405.579 553.911 z" fill="rgb(252,250,244)" transform="translate(0,0)"></path>
<path d="M 483.726 617.967 L 484.489 618.55 C 485.901 621.612 487.875 641.559 488.462 646.294 L 472.692 638.454 C 467.892 636.078 462.793 633.756 457.932 631.455 L 483.726 617.967 z" fill="rgb(252,250,244)" transform="translate(0,0)"></path>
<path d="M 496.308 611.657 C 496.377 611.722 496.451 611.782 496.514 611.852 C 499.814 615.516 503.791 663.161 502.917 669.895 C 502.625 672.15 499.762 673.56 498.077 674.802 C 495.336 666.591 492.655 627.649 491.604 616.898 C 491.412 614.931 494.604 613.011 496.308 611.657 z" fill="rgb(252,250,244)" transform="translate(0,0)"></path>
<path d="M 410.295 475.853 L 411.351 476.259 L 412.22 478.423 C 409.951 485.233 371.546 502.657 362.781 507.065 L 361.994 506.763 C 360.101 502.556 362.136 500.042 365.861 497.99 C 380.169 490.109 395.67 483.071 410.295 475.853 z" fill="rgb(252,250,244)" transform="translate(0,0)"></path>
<path d="M 485.025 603.885 C 485.908 604.075 485.991 604.353 486.817 605.014 L 486.627 607.845 C 483.537 612.129 440.438 634.178 432.691 638.475 L 432.106 638.482 C 430.631 636.411 431.091 637.11 431.489 633.782 C 435.416 629.238 477.122 608.058 485.025 603.885 z" fill="rgb(252,250,244)" transform="translate(0,0)"></path>
<path d="M 343.918 604.835 C 352.146 606.968 398.136 631.331 408.861 636.437 C 411.918 637.892 412.263 639.434 412.905 642.132 C 397.671 637.193 364.67 618.129 348.523 610.627 C 345.026 609.001 344.673 607.879 343.918 604.835 z" fill="rgb(252,250,244)" transform="translate(0,0)"></path>
<path d="M 378.062 386.241 C 385.288 389.472 393.005 393.439 400.166 396.947 L 390.344 401.966 C 385.3 404.654 379.234 407.25 373.977 409.652 C 375.238 401.831 376.6 394.027 378.062 386.241 z" fill="rgb(252,250,244)" transform="translate(0,0)"></path>
<path d="M 405.422 400.833 C 408.317 400.981 409.736 401.414 411.494 403.201 C 409.031 407.564 383.578 419.432 377.259 422.617 C 375.861 423.349 374.958 423.612 373.49 424.138 L 372.155 422.442 L 372.536 419.291 C 375.204 413.887 398.986 403.874 405.422 400.833 z" fill="rgb(252,250,244)" transform="translate(0,0)"></path>
<path d="M 483.667 589.817 C 484.198 590.625 484.773 592.484 485.133 593.483 C 484.935 594.064 484.697 594.762 484.42 595.576 C 469.055 604.592 447.231 615.599 432.254 624.075 L 431.547 623.426 C 431.439 622.807 431.31 622.066 431.159 621.203 C 439.252 612.161 478.197 597.838 483.667 589.817 z" fill="rgb(252,250,244)" transform="translate(0,0)"></path>
<path d="M 430.369 553.698 C 432.654 553.993 443.621 558.872 445.902 560.264 C 454.711 565.639 481.048 573.792 484.259 582.709 C 483.357 582.671 482.22 582.668 481.066 582.141 C 464.726 574.672 447.365 566.659 432.035 557.334 C 431.342 555.822 430.787 554.61 430.369 553.698 z" fill="rgb(252,250,244)" transform="translate(0,0)"></path>
<path d="M 623.063 117.98 C 625.149 118.349 629.61 119.56 631.331 120.513 C 639.72 125.158 678.628 137.754 682.425 144.111 C 676.132 143.884 631.789 125.238 623.91 121.057 C 623.22 120.691 623.231 119.073 623.063 117.98 z" fill="rgb(252,250,244)" transform="translate(0,0)"></path>
<path d="M 368.841 437.952 C 377.36 437.572 402.385 450.964 410.578 455.261 C 412.756 456.404 412.855 457.978 413.606 460.202 C 407.043 459.791 371.345 443.225 368.841 437.952 z" fill="rgb(252,250,244)" transform="translate(0,0)"></path>
<path d="M 505.566 180.169 C 511.247 181.461 559.212 201.691 561.447 206.423 C 556.552 206.386 510.266 186.63 505.552 182.697 L 505.566 180.169 z" fill="rgb(252,250,244)" transform="translate(0,0)"></path>
<path d="M 473.086 513.851 C 474.377 514.522 474.017 514.527 474.682 516.334 C 472.283 520.524 439.971 536.593 433.436 540.039 L 431.852 539.869 L 431.259 538.158 C 433.828 534.106 466.44 517.42 473.086 513.851 z" fill="rgb(252,250,244)" transform="translate(0,0)"></path>
<path d="M 426.012 475.304 C 437.943 478.17 460.26 489.515 471.639 495.615 C 473.188 498.241 473.25 497.484 473.206 500.114 C 469.136 500.964 446.82 488.302 440.696 485.604 L 439.874 485.34 C 435.023 482.118 430.428 479.146 426.012 475.304 z" fill="rgb(252,250,244)" transform="translate(0,0)"></path>
<path d="M 740.867 71.7945 C 746.114 73.4521 780.181 88.5398 783.462 92.0432 L 782.782 94.2055 C 777.778 94.2135 743.467 78.5337 740.438 74.5049 L 740.867 71.7945 z" fill="rgb(252,250,244)" transform="translate(0,0)"></path>
<path d="M 464.036 436.922 C 464.437 437.171 465.162 438.155 465.512 438.578 L 465.173 440.758 C 461.26 444.431 438.946 455.499 432.526 458.833 L 431.61 458.673 C 430.28 454.934 431.9 454.048 435.115 451.98 C 444.165 446.156 454.337 441.524 464.036 436.922 z" fill="rgb(252,250,244)" transform="translate(0,0)"></path>
<path d="M 787.465 452.8 L 787.951 454.679 C 786.326 459.292 780.249 465.664 776.292 468.654 C 771.232 472.477 771.922 471.674 766.071 470.968 L 765.274 469.781 L 787.465 452.8 z" fill="rgb(252,250,244)" transform="translate(0,0)"></path>
<path d="M 718.982 455.552 C 720.808 459.1 719.097 470.148 718.646 474.721 L 710.614 478.781 C 710.419 476.746 717.554 459.151 718.982 455.552 z" fill="rgb(252,250,244)" transform="translate(0,0)"></path>
<path d="M 653.608 486.736 C 657.994 489.332 666.151 502.684 669.112 507.288 C 666.98 509.995 664.632 512.767 662.436 515.447 L 660.945 515.516 C 660.654 513.186 663.532 510.035 665.177 507.642 C 661.242 500.717 657.385 493.748 653.608 486.736 z" fill="rgb(226,225,222)" transform="translate(0,0)"></path>
<path d="M 660.825 647.918 C 663.075 648.745 670.38 654.485 672.735 656.238 C 669.056 661.465 665.865 668.707 663.038 674.603 L 661.831 672.581 C 661.874 668.709 667.149 660.262 669.343 656.326 C 664.425 654.038 660.294 653.627 660.825 647.918 z" fill="rgb(226,225,222)" transform="translate(0,0)"></path>
<path d="M 440.559 412.032 C 444.581 412.05 459.054 418.444 462.288 421.673 C 462.909 422.293 462.632 423.755 462.628 424.944 C 455.572 421.784 447.415 418.393 440.955 414.324 L 440.559 412.032 z" fill="rgb(252,250,244)" transform="translate(0,0)"></path>
<path d="M 637.537 604.495 L 638.276 604.269 C 640.565 605.528 642.271 613.129 643.356 616.433 C 639.096 620.149 630.344 626.112 625.488 629.635 L 624.564 629.762 C 625.085 627.951 637.797 616.5 640.632 613.65 C 639.094 610.239 637.981 608.23 637.537 604.495 z" fill="rgb(226,225,222)" transform="translate(0,0)"></path>
<path d="M 677.203 468.73 L 678.949 469.696 L 678.826 471.238 C 675.115 475.274 667.229 480.724 662.529 484.187 L 660.41 483.559 L 660.404 481.844 C 664.236 477.609 672.281 472.251 677.203 468.73 z" fill="rgb(226,225,222)" transform="translate(0,0)"></path>
<path d="M 458.566 402.926 L 460.408 403.852 C 461.696 407.379 463.137 410.215 460.561 413.379 L 457.744 412.485 C 454.995 411.331 452.238 410.661 450.864 408.243 C 452.563 405.469 455.353 404.652 458.566 402.926 z" fill="rgb(252,250,244)" transform="translate(0,0)"></path>
<path d="M 752.793 370.164 L 753.266 370.415 C 751.662 374.433 744.521 380.558 740.234 380.816 C 738.708 379.412 738.26 378.818 736.988 377.165 C 739.416 375.208 746.249 374.172 752.793 370.164 z" fill="rgb(65,136,145)" transform="translate(0,0)"></path>
<path d="M 718.166 675.564 C 723.146 678.188 723.518 687.566 723.574 692.773 C 720.921 691.131 718.061 680.431 717.004 676.918 L 718.166 675.564 z" fill="rgb(226,225,222)" transform="translate(0,0)"></path>
<path d="M 611.034 572.638 L 612.93 574.585 C 614.349 581.555 614.242 587.591 613.534 594.636 C 610.561 591.133 610.087 577.343 611.034 572.638 z" fill="rgb(226,225,222)" transform="translate(0,0)"></path>
<path d="M 633.532 512.682 L 633.942 514.646 C 631.456 520.914 625.912 529.519 621.975 535.107 L 621.589 532.768 C 623.931 527.544 629.969 517.079 633.532 512.682 z" fill="rgb(226,225,222)" transform="translate(0,0)"></path>
<path d="M 833.807 488.055 L 834.596 489.073 C 832.611 491.768 824.849 495.365 821.496 497.136 L 820.596 496.469 L 820.535 494.827 C 823.731 491.956 829.692 489.81 833.807 488.055 z" fill="rgb(226,225,222)" transform="translate(0,0)"></path>
<path d="M 777.319 669.756 C 783.463 670.395 787.615 677.058 792.296 682.283 C 788.116 681.834 779.624 673.431 777.319 669.756 z" fill="rgb(226,225,222)" transform="translate(0,0)"></path>
<path d="M 637.615 562.277 C 637.937 564.218 637.962 563.207 636.993 565.34 C 632.832 567.68 625.882 568.967 621.055 570.109 L 621.025 569.569 C 622.936 567.689 633.854 564.03 637.615 562.277 z" fill="rgb(226,225,222)" transform="translate(0,0)"></path>
<path d="M 844.726 530.675 C 852.24 538.056 841.91 539.697 860.307 544.599 C 846.795 545.807 847.254 543.534 844.726 530.675 z" fill="rgb(171,185,186)" transform="translate(0,0)"></path>
<path d="M 440.696 485.604 L 439.663 487.769 C 440.697 488.819 441.542 489.667 442.491 490.815 C 438.809 490.05 434.218 489.405 432.577 485.749 L 434.835 484.114 L 439.874 485.34 L 440.696 485.604 z" fill="rgb(6,42,66)" transform="translate(0,0)"></path>
<path d="M 617.465 635.704 C 624.246 636.771 625.752 640.646 630.146 646.469 C 625.581 645.08 620.799 639.268 617.465 635.704 z" fill="rgb(226,225,222)" transform="translate(0,0)"></path>
<path d="M 717.004 676.918 C 713.995 677.044 709.083 677.765 707.263 675.13 C 710.312 673.625 714.66 674.922 718.166 675.564 L 717.004 676.918 z" fill="rgb(143,157,163)" transform="translate(0,0)"></path>
<path d="M 453.058 496.125 C 455.463 496.757 457.876 497.231 460.309 497.739 L 461.487 500.315 L 460.548 500.935 C 456.831 499.23 456.001 498.946 453.058 496.125 z" fill="rgb(6,42,66)" transform="translate(0,0)"></path>
<path d="M 391.873 458.071 L 393.608 457.464 L 396.178 458.936 L 394.278 459.478 L 391.873 458.071 z" fill="rgb(59,93,109)" transform="translate(0,0)"></path>
<path d="M 740.324 438.426 L 741.631 438.179 L 741.264 440.444 L 740.5 440.819 L 740.324 438.426 z" fill="rgb(59,93,109)" transform="translate(0,0)"></path>
<path d="M 956.641 851.084 C 965.935 850.917 976.308 851.257 985.687 851.356 L 988.289 862.067 L 1002.87 866.262 L 1021.04 857.585 C 1028.03 861.44 1034.94 865.461 1041.74 869.643 C 1039.84 874.715 1036.07 880.864 1033.33 885.691 C 1042.3 886.371 1050.29 887.291 1059.22 888.454 C 1060.94 892.305 1061.79 896.86 1062.73 901.007 L 1062.91 901.99 C 1064.83 912.062 1072.27 920.266 1065.12 930.141 C 1055.54 943.366 1034.96 949.991 1019.64 953.356 C 1015.18 954.338 984.269 956.825 982.26 955.502 C 977.575 955.581 968.803 955.452 964.454 955.856 C 955.367 957.769 929.043 950.302 919.621 947.373 C 906.889 946.46 882.221 932.649 903.271 919.016 C 895.338 917.788 887.417 916.488 879.508 915.114 C 877.696 901.314 877.93 899.608 881.17 886.02 C 885.78 885.616 901.848 884.835 904.739 883.329 C 900.798 877.832 899.042 877.658 899.195 869.94 C 901.805 865.569 913.61 859.806 918.572 858.058 C 922.479 856.682 933.143 863.233 937.713 865.553 C 943.534 864.141 948.086 863.313 953.983 862.358 C 954.677 858.523 955.67 854.852 956.641 851.084 z" fill="rgb(1,36,59)" transform="translate(0,0)"></path>
<path d="M 1062.73 901.007 L 1062.91 901.99 C 1064.83 912.062 1072.27 920.266 1065.12 930.141 C 1055.54 943.366 1034.96 949.991 1019.64 953.356 C 1015.18 954.338 984.269 956.825 982.26 955.502 L 985.599 954.501 C 987.822 952.127 987.913 948.153 988.384 944.763 L 1005.36 941.089 C 1010.73 944.095 1016.19 946.94 1021.74 949.622 L 1044 937.086 C 1043.92 924.929 1044.66 926.178 1035.63 917.988 C 1055.89 917.8 1057.13 922.556 1062.73 901.007 z" fill="rgb(226,225,222)" transform="translate(0,0)"></path>
<path d="M 934.414 940.503 L 950.74 944.29 C 951.895 947.922 952.739 952.188 955.722 954.367 C 958.932 955.678 961.013 955.631 964.454 955.856 C 955.367 957.769 929.043 950.302 919.621 947.373 C 924.45 945.065 929.49 942.546 934.414 940.503 z" fill="rgb(226,225,222)" transform="translate(0,0)"></path>
<path d="M 961.443 856.164 C 967.242 855.963 976.341 854.65 980.559 858.262 C 983.909 869.522 991.825 869.144 1002.29 871.378 C 1007.33 869.521 1015.18 865.391 1020.26 862.883 L 1031.83 869.236 C 1027.82 872.563 1023.23 876.032 1019.11 879.285 C 1023.68 882.943 1025.46 884.999 1029.25 889.313 C 1038.5 890.234 1047.97 890.524 1056.16 895 L 1056.51 897.685 C 1050.99 901.645 1038.48 901.311 1031.59 901.618 C 1028.28 908.44 1024.42 910.444 1024.63 916.907 C 1026.63 920.342 1032.23 922.761 1035.92 924.777 C 1030.94 927.709 1026.49 930.64 1020.94 932.314 C 1016.45 929.015 1014.47 928.032 1009.46 925.616 C 1002.95 927.015 983.877 929.568 980.235 933.063 C 979.847 935.001 979.65 935.809 979.616 937.774 C 979.086 939.267 979.137 938.861 977.568 939.977 C 972.255 940.623 966.495 941.428 961.576 938.676 C 960.837 938.263 960.135 934.918 959.802 933.771 L 959.348 932.309 C 957.052 930.37 934.612 925.578 929.765 924.342 C 925.078 926.507 920.229 929.031 915.587 931.348 C 911.475 929.047 908.012 926.362 904.238 923.571 C 908.26 920.277 911.828 918.238 916.237 915.582 C 912.074 910.013 910.379 908.507 907.878 901.822 C 901.54 901.234 886.183 901.193 884.115 894.008 C 887.313 888.753 902.205 889.678 907.42 889.726 C 910.973 885.509 914.643 882.082 918.597 878.265 C 914.145 875.333 909.863 873.351 905.102 871.024 C 909.515 868.047 915.08 865.104 919.779 862.46 C 924.517 864.79 930.116 868.033 934.82 870.615 L 935.322 870.575 C 944.376 869.767 950.488 868.405 959.365 866.524 L 961.443 856.164 z" fill="rgb(248,204,132)" transform="translate(0,0)"></path>
<path d="M 957.912 874.297 C 1010.09 869.483 1047.18 907.718 984.754 922.589 C 967.948 925.728 948.21 924.178 933.422 914.829 C 925.167 909.609 918.515 898.875 925.365 889.762 C 932.672 880.043 946.436 876.429 957.912 874.297 z" fill="rgb(1,36,59)" transform="translate(0,0)"></path>
<path d="M 959.289 878.217 C 1005.16 874.102 1041.46 907.109 982.054 919.622 C 966.685 920.974 934.559 921.122 928.635 901.106 C 924.416 886.855 948.353 880.307 959.289 878.217 z" fill="rgb(252,250,244)" transform="translate(0,0)"></path>
<path d="M 968.114 882.39 C 1003.01 881.678 1021.22 909.164 975.247 916.203 C 929.789 916.256 922.907 886.159 968.114 882.39 z" fill="rgb(1,36,59)" transform="translate(0,0)"></path>
<path d="M 963.247 887.256 C 988.068 885.248 1016.75 900.934 979.768 911.204 C 968.702 912.641 948.975 912.257 943.776 900.384 C 943.788 890.42 955.241 888.847 963.247 887.256 z" fill="rgb(252,250,244)" transform="translate(0,0)"></path>
<path d="M 959.802 933.771 C 960.135 934.918 960.837 938.263 961.576 938.676 C 966.495 941.428 972.255 940.623 977.568 939.977 C 979.137 938.861 979.086 939.267 979.616 937.774 C 980.049 940.002 980.907 945.104 981.528 947.032 C 982.038 944.555 982.41 940.966 983.956 939.228 C 984.002 943.542 983.844 944.825 983.057 949.079 C 977.199 949.481 962.085 951.2 957.817 948.473 L 957.579 946.79 C 958.264 946.877 959.304 946.966 959.973 947.149 L 966.241 946.29 C 958.571 944.467 959.584 939.783 959.802 933.771 z" fill="rgb(6,42,66)" transform="translate(0,0)"></path>
<path d="M 981.528 947.032 C 982.038 944.555 982.41 940.966 983.956 939.228 C 984.002 943.542 983.844 944.825 983.057 949.079 C 977.199 949.481 962.085 951.2 957.817 948.473 L 957.579 946.79 C 958.264 946.877 959.304 946.966 959.973 947.149 C 965.604 947.741 976.189 948.617 981.528 947.032 z" fill="rgb(65,136,145)" transform="translate(0,0)"></path>
<path d="M 1035.92 924.777 L 1038.01 927.607 C 1035.43 932.676 1032.95 929.753 1030.36 934.17 L 1030.99 935.681 C 1033.47 934.574 1035.82 932.877 1037.83 933.541 C 1034.05 937.136 1024.42 942.511 1019.19 942.424 L 1014.85 939.572 L 1014.82 937.627 C 1017.43 931.626 1015.85 937.342 1020.94 932.314 C 1026.49 930.64 1030.94 927.709 1035.92 924.777 z" fill="rgb(6,42,66)" transform="translate(0,0)"></path>
<path d="M 1030.99 935.681 C 1033.47 934.574 1035.82 932.877 1037.83 933.541 C 1034.05 937.136 1024.42 942.511 1019.19 942.424 C 1023.15 940.229 1027.08 937.981 1030.99 935.681 z" fill="rgb(171,185,186)" transform="translate(0,0)"></path>
<path d="M 887.862 907.792 L 884.768 905.687 L 884.582 903.939 L 886.596 902.926 C 889.234 903.258 890.59 903.241 892.849 904.756 C 895.859 904.86 901.802 904.516 903.803 906.728 L 904.915 909.822 C 902.922 910.073 901.156 910.224 899.152 910.362 C 893.996 909.869 892.785 909.519 887.862 907.792 z" fill="rgb(6,42,66)" transform="translate(0,0)"></path>
<path d="M 892.849 904.756 C 895.859 904.86 901.802 904.516 903.803 906.728 C 899.839 907.729 896.466 906.189 892.849 904.756 z" fill="rgb(50,113,131)" transform="translate(0,0)"></path>
<path d="M 1005.49 935.115 C 1000.23 936.663 997.375 937.537 991.845 938.257 L 990.737 937.06 L 989.782 937.444 L 990.353 938.309 L 989.256 938.131 L 989.881 937.156 L 990.412 938.039 L 991.116 936.605 C 992.556 936.168 994.009 935.773 995.472 935.421 C 1003.68 933.489 1008.11 933.492 1014.82 937.627 L 1014.85 939.572 L 1005.49 935.115 z" fill="rgb(50,113,131)" transform="translate(0,0)"></path>
<path d="M 899.152 910.362 L 902.841 910.748 C 904.137 911.873 904.992 911.955 906.605 912.216 L 905.646 912.877 C 899.78 912.529 890.114 911.994 884.839 909.606 L 885.131 908.169 L 887.862 907.792 C 892.785 909.519 893.996 909.869 899.152 910.362 z" fill="rgb(171,185,186)" transform="translate(0,0)"></path>
<path d="M 916.435 933.899 C 920.093 933.651 922.605 932.99 924.989 935.94 C 923.432 939.526 922.816 939.062 919.049 941.676 C 917.973 941.298 916.887 940.568 915.877 939.975 L 917.316 938.436 C 917.829 936.18 917.472 936.531 916.435 933.899 z" fill="rgb(6,42,66)" transform="translate(0,0)"></path>
<path d="M 935.321 934.272 C 939.267 933.995 953.418 935.533 956.512 938.198 L 956.402 940.796 C 951.557 936.656 942.865 937.304 935.321 934.272 z" fill="rgb(50,113,131)" transform="translate(0,0)"></path>
<path d="M 1036.32 910.499 C 1040.7 909.843 1051.78 908.9 1055.53 911.326 C 1051.21 912.284 1040.13 913 1036.32 910.499 z" fill="rgb(226,225,222)" transform="translate(0,0)"></path>
<path d="M 905.356 934.564 C 910.745 935.062 911.722 935.9 915.689 939.243 C 910.351 938.319 909.856 937.788 905.356 934.564 z" fill="rgb(6,42,66)" transform="translate(0,0)"></path>
<path d="M 282.255 95.2739 C 289.042 97.0364 285.588 108.696 292.24 117.111 C 303.474 131.324 313.919 131.528 329.555 134.191 C 320.864 137.802 309.165 137.664 300.046 144.821 C 289.733 152.915 287.718 162.68 286.032 174.772 C 284.877 174.38 282.697 173.85 282.328 172.822 C 278.862 163.16 279.218 156.915 272.978 148.517 C 265.742 138.777 247.849 137.883 245.274 135.064 C 249.336 131.518 260.994 130.156 266.618 126.024 C 277.314 118.166 279.986 107.302 282.255 95.2739 z" fill="rgb(1,36,59)" transform="translate(0,0)"></path>
<path d="M 284.037 112.605 C 291.055 125.049 294.895 128.209 306.935 135.47 C 294.882 140.608 289.7 146.115 284.487 157.711 C 279.345 145.808 272.294 140.705 261.553 134.72 C 273.648 127.887 277.038 124.426 284.037 112.605 z" fill="rgb(248,204,132)" transform="translate(0,0)"></path>
<path d="M 1884.71 117.191 C 1891.87 119.318 1889.13 136.757 1899.44 144.373 C 1909.81 152.027 1915 150.961 1924.84 155.888 L 1925.04 157.232 C 1922.2 159.302 1915.9 161.133 1912.32 162.096 C 1899.98 165.42 1894.78 173.37 1890.81 184.961 C 1889.24 189.539 1890.17 190.754 1887.51 195.91 C 1881.44 190.486 1885.65 181.056 1874.19 169.335 C 1862.17 157.037 1850.67 160.843 1845.82 156.821 C 1850.08 153.163 1863.69 153.38 1871.13 146.797 C 1881.61 137.517 1883.17 130.124 1884.71 117.191 z" fill="rgb(1,36,59)" transform="translate(0,0)"></path>
<path d="M 1886.64 134.816 C 1893.05 146.835 1898.36 150.29 1909.72 157.174 C 1896.83 164.446 1894.18 166.778 1887.06 179.874 C 1879.78 165.507 1878.06 164.436 1864.54 156.546 C 1877.33 149.684 1879.49 146.972 1886.64 134.816 z" fill="rgb(248,204,132)" transform="translate(0,0)"></path>
<path d="M 900.871 148.353 L 903.536 149.094 C 906.31 151.554 908.42 160.136 909.665 164.195 C 914.024 165.537 920.707 166.772 923.609 169.695 L 923.471 171.613 C 920.116 174.724 913.856 176.266 908.802 178.723 C 907.289 183.649 905.841 189.783 902.566 193.593 C 898.903 189.923 896.892 182.553 895.103 177.505 C 889.905 176.214 883.322 175.297 879.7 171.669 L 879.98 169.648 C 883.908 166.288 890.042 165.456 895.381 164.025 C 897.096 158.761 898.927 153.536 900.871 148.353 z" fill="rgb(1,36,59)" transform="translate(0,0)"></path>
<path d="M 901.854 163.334 C 903.84 166.178 905.359 167.397 907.919 169.701 L 907.916 171.497 C 904.993 173.732 904.336 174.227 902.595 177.493 L 902.218 178.215 C 900.197 174.976 896.764 173.349 896.063 170.775 C 899.038 168.236 899.52 167.657 901.403 164.177 L 901.854 163.334 z" fill="rgb(252,250,244)" transform="translate(0,0)"></path>
<metadata><recraft-signature>{"signed_by": "recraft", "signature_b64": "PYw7JQTq4Ue9tT1pky7twA94ZPqhaem/num1NLNcPv6JTDEdzLSlwa4w/+zwjefHP0wQY2u4ry4C/7Iyb80fCA==", "signing_algo": "Ed25519", "generation_timestamp": 1777312879, "identifier": "323cc366-c0b8-41a0-b23d-9db83565a914"}</recraft-signature></metadata></svg>