<svg xmlns="http://www.w3.org/2000/svg" height="1024" preserveAspectRatio="none" style="display: block;" version="1.1" viewBox="0 0 2048 1024" width="2048">
<path d="M 0 0 L 2048 0 L 2048 1024 L 0 1024 L 0 0 z" fill="rgb(254,253,253)" transform="translate(0,0)"></path>
<path d="M 749.918 500.325 C 757.826 497.868 775.242 489.013 783.093 485.101 C 869.072 442.253 918.243 357.639 976.601 285.592 C 999.848 256.891 1030.49 224.683 1059.44 201.406 C 1090.84 176.001 1125.52 154.929 1162.54 138.752 C 1307.34 76.9248 1490.97 93.1372 1629.21 165.05 C 1654.3 178.102 1676.19 190.369 1699.36 206.64 C 1710.16 214.219 1720.94 222.288 1731.76 229.832 C 1733.48 231.036 1738.07 231.577 1740.3 231.819 C 1748.81 233.393 1746.12 235.659 1758.58 236.852 C 1766.05 244.086 1768.98 248.82 1765.46 259.272 C 1774.94 265.939 1792.65 285.51 1801.43 294.632 C 1870.95 366.886 1923.16 451.026 1942.16 550.298 C 1971.09 701.442 1872.4 814.982 1762.7 903.777 L 1874.74 903.673 C 1887.14 903.665 1918.64 902.875 1929.21 904.126 C 1931.82 904.221 1931.96 904.163 1933.99 905.644 L 1934.13 907.605 C 1932.1 909.222 1929.73 909.535 1927.15 909.484 C 1904.25 909.039 1881.1 909.19 1858.21 909.238 L 1714.76 909.744 L 1272.54 909.936 C 1271.97 911.519 1269.68 918.117 1268.43 918.434 C 1231.59 927.472 1190.27 927.261 1152.25 928.381 C 1134.68 928.899 1136.51 922.781 1138.01 909.101 L 1045.77 908.916 C 1046.16 915.1 1047.14 917.537 1043.43 921.907 C 1034.64 925.461 995.123 922.715 984.133 921.232 C 973.522 919.801 967.059 917.714 960.673 909.081 L 266.574 909.295 C 216.973 909.24 167.129 909.151 117.504 909.231 C 113.261 909.238 109.245 910.246 107.233 906.115 C 107.711 905.695 108.284 905.191 108.953 904.604 C 131.837 903.692 167.568 904.081 189.269 904.087 C 181.968 894.87 173.705 886.693 166.33 877.337 C 124.955 824.848 81.7722 752.722 109.514 684.597 C 129.627 635.204 168.447 613.618 214.854 593.929 L 215.206 359.339 L 215.042 292.914 C 215 285.014 214.437 263.958 215.507 257.136 L 231.843 257.099 L 231.831 271.527 C 239.843 271.646 272.324 273.044 277.295 270.207 C 283.096 261.998 281.485 242.565 281.459 232.002 L 281.256 181.864 L 433.735 181.766 C 433.471 211.634 433.434 241.504 433.623 271.374 L 671.292 271.197 L 671.246 257.63 L 687.705 257.628 L 687.529 271.164 L 733.357 271.173 L 733.384 259.129 L 750.095 258.886 L 749.918 500.325 z" fill="rgb(9,10,24)" transform="translate(0,0)"></path>
<path d="M 749.918 500.325 C 757.826 497.868 775.242 489.013 783.093 485.101 C 869.072 442.253 918.243 357.639 976.601 285.592 C 999.848 256.891 1030.49 224.683 1059.44 201.406 C 1090.84 176.001 1125.52 154.929 1162.54 138.752 C 1307.34 76.9248 1490.97 93.1372 1629.21 165.05 C 1654.3 178.102 1676.19 190.369 1699.36 206.64 C 1710.16 214.219 1720.94 222.288 1731.76 229.832 C 1733.48 231.036 1738.07 231.577 1740.3 231.819 C 1663.77 232.928 1586.29 230.518 1509.72 232.554 C 1503.68 232.714 1497.65 240.198 1496.17 245.624 C 1487.82 276.036 1480.11 306.631 1472 337.119 L 1446.82 431.144 C 1444.32 440.438 1441.71 449.745 1439.32 459.064 C 1437.46 466.352 1434.21 473.26 1439.02 479.971 C 1448.62 486.372 1479.61 484.542 1492.53 484.503 C 1517.77 484.279 1543.01 484.275 1568.25 484.492 C 1562.99 501.219 1556.54 520.199 1552.02 536.951 L 1510.95 536.804 C 1483.7 536.742 1463.95 536.087 1443 557.019 C 1425.92 574.081 1422.57 592.759 1422.62 615.874 L 1422.95 904.709 L 1273.03 905.138 C 1269.71 897.109 1263.72 893.178 1255.55 890.29 C 1238.43 884.236 1222.13 878.578 1205.21 871.896 L 1210.55 770.619 C 1211.54 753.126 1214.92 720.348 1212.75 703.971 C 1204.41 640.789 1190.17 576.913 1180.44 513.967 L 1255.11 520.698 C 1268.93 522.026 1283.48 524.431 1297.35 524.344 C 1300.68 524.323 1304.3 524.299 1307.05 522.163 C 1311.89 518.414 1385.36 411.536 1391.46 399.061 C 1391.52 395.612 1391.45 395.215 1389.48 392.299 C 1381.08 386.692 1322.09 382.731 1308.27 381.694 C 1308.03 378.771 1307.74 371.917 1304.97 370.514 C 1295.34 365.65 1276.97 369.073 1266.37 368.813 C 1255.39 368.544 1243.08 390.947 1237.38 399.9 C 1221.76 375.394 1209.47 348.158 1187.41 328.73 C 1182.28 324.213 1169.52 319.852 1167.9 313.268 C 1168.61 310.897 1168.56 310.67 1170.39 309.157 C 1191.29 315.77 1195.06 314.515 1207.33 295.17 C 1219.8 291.983 1217.49 286.019 1214.94 275.971 C 1217.53 268.487 1218.88 264.336 1220.42 256.613 C 1229.98 260.015 1268 269.491 1275.49 263.586 C 1276.37 252.994 1237.44 246.077 1228.56 245.902 C 1227.57 245.881 1226.58 245.882 1225.58 245.905 C 1227.28 232.094 1229.51 215.549 1219.59 204.82 C 1199.62 183.208 1158.77 179.005 1135.55 198.034 C 1122.7 208.566 1125.26 222.428 1122.88 236.793 C 1122.63 238.328 1117.24 241.228 1117.82 244.247 C 1119.57 253.322 1124.21 261.845 1127.43 270.468 C 1129.46 275.912 1131.22 278.542 1126.94 283.298 C 1123.67 285.105 1119.6 284.127 1115.8 283.661 C 1109.49 288.483 1105.98 291.66 1100.55 297.554 C 1037.86 302.448 1013.69 364.003 1020.59 418.14 C 1025.62 457.727 1009.23 490.908 1008.96 529.685 C 1008.61 581.136 1017.99 635.396 1024.76 686.644 C 1009.82 719.532 979.281 775.367 970.184 807.118 C 932.919 839.448 935.656 837.174 953.258 880.657 C 955.445 886.06 957.838 897.781 959.241 903.972 L 749.925 903.876 L 749.918 500.325 z" fill="rgb(182,213,210)" transform="translate(0,0)"></path>
<path d="M 1633.43 484.793 C 1650.59 484.76 1699.65 490.873 1705.99 470.9 C 1712.82 449.391 1718.83 425.494 1724.82 403.516 C 1737.88 355.299 1751.43 307.215 1765.46 259.272 C 1774.94 265.939 1792.65 285.51 1801.43 294.632 C 1870.95 366.886 1923.16 451.026 1942.16 550.298 C 1971.09 701.442 1872.4 814.982 1762.7 903.777 L 1874.74 903.673 C 1887.14 903.665 1918.64 902.875 1929.21 904.126 C 1921.6 905.155 1883.88 904.625 1875.07 904.63 L 1761.3 904.847 L 1761.14 691.534 L 1761.44 631.264 C 1761.5 602.629 1763.74 578.416 1741.52 556.427 C 1719.09 534.232 1692.78 536.761 1663.73 536.861 L 1617.97 536.87 C 1622.51 519.79 1628.28 501.789 1633.43 484.793 z" fill="rgb(182,213,210)" transform="translate(0,0)"></path>
<path d="M 214.854 593.929 L 215.206 359.339 L 215.042 292.914 C 215 285.014 214.437 263.958 215.507 257.136 C 217.114 270.894 216.221 309.431 216.22 324.676 L 216.148 457.404 L 216.156 904.076 L 189.269 904.087 C 181.968 894.87 173.705 886.693 166.33 877.337 C 124.955 824.848 81.7722 752.722 109.514 684.597 C 129.627 635.204 168.447 613.618 214.854 593.929 z" fill="rgb(182,213,210)" transform="translate(0,0)"></path>
<path d="M 1048.24 380.04 C 1059.49 383.057 1081.97 386.195 1093.87 388.041 C 1093.21 439.36 1111.66 473.417 1168.71 466.122 C 1175.79 520.527 1185.35 571.619 1195.07 625.548 C 1199.35 649.309 1205.23 680.123 1208.01 703.59 C 1209.41 715.438 1206.42 753.092 1205.71 766.451 L 1200.48 871.812 C 1181.49 876.693 1163.51 877.372 1144.87 871.029 L 1130.78 768.003 C 1128.14 748.289 1125.78 725.542 1121.98 706.239 C 1120.49 698.646 1114.16 680.151 1111.57 672.05 C 1104.62 650.428 1097.55 628.845 1090.36 607.304 C 1087.66 599.191 1079.18 570.753 1074.39 565.691 L 1072.72 565.707 C 1072.52 566.368 1072.27 567.162 1071.99 568.09 C 1081.67 595.118 1095.24 637.215 1103.43 662.755 C 1104.61 666.129 1109.93 680.934 1109.92 683.271 C 1109.69 732.023 1051.7 806.706 1022.56 842.073 C 1007.11 829.497 992.125 817.248 975.507 806.234 C 984.788 776.974 1012.17 722.946 1027.13 694.062 C 1031.58 702.662 1035.9 708.589 1045.07 712.812 C 1049.18 714.703 1058.43 717.384 1062.8 715.796 C 1062.81 715.118 1063 714.414 1062.81 713.763 C 1062.53 712.794 1059.22 711.829 1058.36 711.632 C 1049.25 709.559 1041.29 707.557 1035.47 699.449 C 1025.52 685.603 1012.95 558.399 1013.52 535.341 C 1014.09 512.577 1018.51 489.635 1022.57 467.289 C 1027.83 468.604 1034.61 471.003 1039.6 472.923 C 1052.77 477.994 1111.78 492.673 1122.32 485.547 C 1120.8 482.238 1119.03 482.674 1115.29 482.608 C 1083.09 482.037 1053.45 473.535 1023.32 462.227 C 1029.43 433.206 1036.61 407.295 1048.24 380.04 z" fill="rgb(50,138,141)" transform="translate(0,0)"></path>
<path d="M 1167.55 716.803 C 1168.49 717.694 1168.9 718.811 1169.48 719.984 C 1166.6 730.131 1146.11 727.863 1138.25 725.58 C 1136.38 724.055 1136.97 725.003 1136.46 722.62 C 1142.15 718.775 1153.75 728.426 1167.55 716.803 z" fill="rgb(3,4,17)" transform="translate(0,0)"></path>
<path d="M 1676.31 236.5 C 1686.44 236.434 1736.32 234.874 1741.97 237.943 C 1747.88 244.956 1746.19 249.931 1743.77 258.396 C 1731.53 301.249 1719.54 344.181 1707.57 387.112 L 1693.41 438.967 C 1690.83 448.356 1689.43 458.967 1683.68 466.327 C 1682.16 468.274 1681.68 469.045 1682.18 471.378 L 1683.64 471.511 C 1687.52 469.195 1689.27 467.392 1690.77 462.931 C 1698.19 440.926 1703.96 417.218 1710.21 394.858 L 1750.3 252.451 C 1752.71 243.898 1750 243.612 1750.9 241.115 C 1772.71 238.539 1753.51 283.061 1750.61 293.362 L 1726.41 381.605 C 1721.25 399.311 1716.31 417.084 1711.61 434.92 C 1708.92 445.01 1706.51 455.108 1703.34 465.068 C 1699.07 478.498 1692.84 479.592 1679.84 479.723 C 1611.97 480.404 1544.1 479.623 1476.23 479.835 C 1465.52 479.869 1452.7 480.568 1442.52 477.482 C 1438.76 471.75 1445.43 454.396 1447.27 447.395 L 1471.55 357.037 L 1489.08 290.485 C 1492.43 277.509 1498.39 246.905 1506.44 238.25 C 1515.92 234.84 1656.38 236.587 1676.31 236.5 z" fill="rgb(50,138,141)" transform="translate(0,0)"></path>
<path d="M 1515.83 244.167 C 1585.27 242.626 1655.93 245.137 1725.45 244.329 C 1744.18 244.112 1730.7 275.11 1727.64 285.713 L 1711.44 342.149 C 1704.15 369.259 1696.72 396.332 1689.15 423.366 C 1685.65 435.948 1682.19 449.295 1678.05 461.659 C 1676.55 466.117 1673.27 468.599 1669.65 471.553 C 1669.4 471.617 1669.15 471.677 1668.9 471.745 C 1661.43 473.75 1461.18 473.672 1456.98 472.119 C 1455.5 471.57 1453.15 470.155 1452.47 468.769 C 1450.85 465.408 1452.75 457.452 1453.53 453.659 C 1460.32 420.98 1470.7 388.559 1478.88 356.153 C 1484.71 332.644 1490.77 309.192 1497.05 285.801 C 1500.06 274.594 1503.1 262.765 1506.84 251.766 C 1508.44 247.079 1511.46 246.065 1515.83 244.167 z" fill="rgb(3,4,17)" transform="translate(0,0)"></path>
<path d="M 1516.4 248.197 L 1652.51 248.43 C 1664.64 248.426 1722.41 246.756 1731.02 251.286 C 1731.03 251.443 1731.06 251.6 1731.07 251.757 C 1731.67 258.255 1682.25 435.182 1676.37 453.999 C 1675.12 457.994 1674.07 461.951 1671.31 465.199 C 1670.33 465.816 1666.54 467.771 1665.51 467.788 C 1599.66 468.835 1533.61 467.676 1467.7 468.14 C 1464.35 468.163 1459.69 467.63 1456.99 465.875 C 1456.04 463.728 1456.24 461.418 1456.81 459.182 C 1474.03 392.16 1490.99 324.976 1509.28 258.246 C 1510.7 253.049 1511.53 250.667 1516.4 248.197 z" fill="rgb(254,253,253)" transform="translate(0,0)"></path>
<path d="M 1585.56 274.01 L 1657.63 273.902 C 1655.74 281.675 1649.83 306.48 1646.75 312.998 L 1574.1 312.856 C 1576.21 303.728 1582.29 282.38 1585.56 274.01 z" fill="rgb(51,54,61)" transform="translate(0,0)"></path>
<path d="M 1586.63 276.147 L 1654.81 276.161 C 1651.98 288.488 1649.34 298.368 1645.67 310.475 L 1576.74 310.294 C 1580.19 299.831 1583.55 286.894 1586.63 276.147 z" fill="rgb(254,253,253)" transform="translate(0,0)"></path>
<path d="M 1587.49 287.496 C 1594.22 287.358 1603.86 286.879 1610.25 287.749 L 1611.67 289.851 C 1606.76 289.981 1591.81 290.713 1587.95 289.307 L 1587.49 287.496 z" fill="rgb(9,10,24)" transform="translate(0,0)"></path>
<path d="M 1641.61 338.299 L 1677.77 338.657 C 1673.75 352.828 1670.45 366.705 1666.01 380.864 L 1629.01 380.886 C 1633.73 369.874 1636.64 351.179 1641.61 338.299 z" fill="rgb(51,54,61)" transform="translate(0,0)"></path>
<path d="M 1642.87 340.995 L 1674.76 340.951 C 1672.39 352.087 1668.25 367.098 1664.9 378.035 L 1632.96 377.993 C 1635.84 365.653 1639.46 353.218 1642.87 340.995 z" fill="rgb(254,253,253)" transform="translate(0,0)"></path>
<path d="M 1625.49 403.034 L 1661.47 403.082 C 1658.45 413.895 1653.01 436.389 1649.35 445.782 L 1612.69 445.812 C 1617.37 433.655 1621.4 416.182 1625.49 403.034 z" fill="rgb(51,54,61)" transform="translate(0,0)"></path>
<path d="M 1626.96 405.832 L 1658.3 405.772 L 1648.09 442.936 C 1638.51 443.313 1626.18 443.013 1616.43 443.02 C 1620.14 430.681 1623.65 418.283 1626.96 405.832 z" fill="rgb(254,253,253)" transform="translate(0,0)"></path>
<path d="M 1533.59 273.951 L 1572.18 274.095 C 1568.24 286.904 1564.55 299.788 1561.11 312.742 C 1548.7 313.058 1535.31 312.847 1522.82 312.885 C 1526.32 299.883 1529.91 286.904 1533.59 273.951 z" fill="rgb(51,54,61)" transform="translate(0,0)"></path>
<path d="M 1534.75 276.088 L 1570.28 276.215 C 1566.3 287.255 1562.98 299.49 1559.68 310.817 C 1549.79 311.397 1534.83 310.949 1524.59 310.918 C 1528.14 300.211 1531.58 287.092 1534.75 276.088 z" fill="rgb(182,213,210)" transform="translate(0,0)"></path>
<path d="M 1667.85 274.039 L 1704.88 274.033 C 1701.37 286.985 1697.97 299.967 1694.69 312.98 C 1682.49 312.632 1669.06 312.893 1656.77 312.898 C 1660.77 300.036 1664.47 287.079 1667.85 274.039 z" fill="rgb(51,54,61)" transform="translate(0,0)"></path>
<path d="M 1669.59 276.207 L 1702.55 276.147 C 1699.29 287.724 1696.1 299.32 1692.98 310.933 L 1659.46 310.928 C 1662.61 302.577 1666.61 285.799 1669.59 276.207 z" fill="rgb(182,213,210)" transform="translate(0,0)"></path>
<path d="M 1499.64 401.512 C 1502.41 401.502 1504.47 401.77 1507.19 402.09 C 1506.22 403.425 1505.63 404.486 1504.82 405.903 C 1503.97 418.17 1517.02 420.543 1519.29 424.86 C 1518.12 430.123 1513.24 432.038 1508.2 431.051 C 1504 427.805 1505.83 424.662 1508.71 420.858 L 1509.2 420.213 C 1506.51 415.963 1503.48 410.327 1500.93 405.857 C 1499.33 411.519 1496.25 426.575 1493.09 429.778 L 1492.45 429.098 L 1499.64 401.512 z" fill="rgb(9,10,24)" transform="translate(0,0)"></path>
<path d="M 1528.09 356.428 C 1531.04 356.533 1531.59 356.724 1534.4 357.665 C 1540.08 363.532 1533.01 364.29 1533.8 370.159 C 1533.9 370.951 1541.95 378.12 1542 380.514 C 1535.72 381.682 1517.01 381.037 1509.75 380.961 C 1507.46 381.049 1507.38 381.069 1505.45 379.751 L 1506.27 378.708 C 1516.64 377.98 1527.87 378.461 1538.32 378.681 C 1534.08 372.865 1528.97 369.138 1525.99 363.774 C 1525.66 359.541 1525.83 360.686 1528.09 356.428 z" fill="rgb(51,54,61)" transform="translate(0,0)"></path>
<path d="M 1580.81 337.92 C 1583.87 337.898 1586.65 337.593 1588.98 339.07 C 1587.28 339.596 1585.42 340.122 1583.84 340.946 C 1581 342.422 1573.75 373.416 1572.33 378.531 L 1611.83 378.337 C 1612.99 378.832 1612.48 378.442 1613.11 379.86 C 1609.72 381.876 1575.73 381.097 1569.17 381.085 C 1573.21 366.836 1577.49 352.323 1580.81 337.92 z" fill="rgb(9,10,24)" transform="translate(0,0)"></path>
<path d="M 1566.16 402.786 C 1569.79 402.597 1575.29 402.058 1578.05 403.984 C 1575.61 406.571 1569.59 404.045 1568.62 405.788 C 1565.14 412.043 1558.96 436.712 1557.17 443.094 L 1587.25 443.03 C 1590.06 443.14 1589.06 442.705 1591.07 444.445 C 1588.95 446.503 1559.19 445.565 1553.78 445.527 C 1558.04 431.319 1562.17 417.071 1566.16 402.786 z" fill="rgb(9,10,24)" transform="translate(0,0)"></path>
<path d="M 1482.93 443.499 C 1483.66 443.378 1484.9 443.168 1485.83 443.158 C 1498.69 443.016 1512.06 442.34 1524.86 443.509 C 1525.73 444.32 1526.44 444.99 1527.01 445.519 C 1526.61 445.57 1525.08 445.775 1524.73 445.749 C 1516.06 445.126 1488.43 448.298 1482.93 443.499 z" fill="rgb(51,54,61)" transform="translate(0,0)"></path>
<path d="M 1518.34 335.82 C 1520.09 335.785 1522.27 335.917 1524.05 335.971 L 1524.76 337.168 L 1520.99 338.933 C 1520.69 341.215 1527.27 352.982 1529.06 358.207 C 1526.34 354.561 1522.29 345.617 1518.35 345.034 L 1516.98 348.224 C 1516.02 351.63 1512.81 363.973 1510.21 365.563 C 1512.32 355.156 1515.26 345.94 1518.34 335.82 z" fill="rgb(9,10,24)" transform="translate(0,0)"></path>
<path d="M 1551.36 335.579 C 1553.37 339.976 1545.83 361.712 1543.3 366.163 C 1541.6 361.883 1548.94 340.004 1551.36 335.579 z" fill="rgb(9,10,24)" transform="translate(0,0)"></path>
<path d="M 1534.11 402.608 L 1534.96 403.547 C 1535.62 406.137 1528.45 429.331 1527.24 433.502 C 1525.93 432.693 1526.53 433.163 1525.73 431.478 C 1527.39 421.81 1530.78 411.819 1534.11 402.608 z" fill="rgb(9,10,24)" transform="translate(0,0)"></path>
<path d="M 1563.92 430.424 C 1569.44 430.183 1583.3 429.329 1588.15 430.652 L 1589.01 432.592 C 1582.32 432.992 1571.65 433.609 1565.29 432.483 L 1563.92 430.424 z" fill="rgb(51,54,61)" transform="translate(0,0)"></path>
<path d="M 1578.19 368.506 C 1584.26 367.546 1607.16 366.742 1612.43 369.514 C 1606.46 370.511 1583.46 371.26 1578.19 368.506 z" fill="rgb(9,10,24)" transform="translate(0,0)"></path>
<path d="M 1428.1 621.159 L 1623.14 621.18 L 1623.1 904.774 L 1428.26 904.724 L 1428.1 621.159 z" fill="rgb(246,202,98)" transform="translate(0,0)"></path>
<path d="M 1492.73 640.464 C 1510.22 641.464 1538.04 640.778 1556.26 640.849 C 1556.28 648.807 1556.46 657.416 1555.86 665.293 L 1490.73 665.266 C 1490.66 659.026 1489.55 644.646 1492.73 640.464 z" fill="rgb(3,4,17)" transform="translate(0,0)"></path>
<path d="M 1495.03 645.615 C 1513.96 645.724 1532.89 645.728 1551.81 645.626 L 1551.81 660.324 L 1494.98 660.82 L 1495.03 645.615 z" fill="rgb(50,138,141)" transform="translate(0,0)"></path>
<path d="M 294.162 772.049 L 671.221 772.148 L 671.514 904.03 L 293.953 904.1 L 294.162 772.049 z" fill="rgb(182,213,210)" transform="translate(0,0)"></path>
<path d="M 293.984 456.295 L 671.31 456.677 C 671.431 476.763 671.375 496.849 671.143 516.934 C 670.86 520.846 670.55 524.616 670.546 528.549 C 660.81 530.176 646.971 532.1 636.998 532.441 C 637.05 528.551 637.51 525.589 635.614 522.657 C 629.527 521.768 613.885 522.184 607.131 522.181 L 551.745 522.14 L 354.5 522.117 C 355.913 538.326 354.902 572.351 354.866 590.359 L 294.076 590.584 C 293.969 575.563 293.478 558.408 294.105 543.563 C 293.569 514.825 293.953 485.107 293.984 456.295 z" fill="rgb(254,253,253)" transform="translate(0,0)"></path>
<path d="M 353.832 558.531 C 353.775 549.564 353.296 530.362 354.5 522.117 C 355.913 538.326 354.902 572.351 354.866 590.359 L 294.076 590.584 C 293.969 575.563 293.478 558.408 294.105 543.563 C 295.199 552.148 294.657 564.886 294.511 573.852 C 312.093 568.437 335.519 563.182 353.832 558.531 z" fill="rgb(182,213,210)" transform="translate(0,0)"></path>
<path d="M 294.232 297.481 L 671.308 297.615 L 671.574 427.288 L 624.322 427.364 L 624.254 341.359 L 588.5 341.341 L 486.898 341.211 C 487.213 369.698 486.93 398.716 486.935 427.246 L 437.073 427.28 L 437.168 344.685 L 314.033 344.244 C 314.55 371.457 314.05 400.212 313.935 427.506 L 293.999 427.559 L 293.913 340.71 C 293.887 329.031 293.197 308.204 294.232 297.481 z" fill="rgb(254,253,253)" transform="translate(0,0)"></path>
<path d="M 1754.69 684.824 L 1755.36 685.488 C 1756.35 689.767 1755.91 737.998 1755.9 745.951 L 1755.85 904.604 L 1630.26 904.748 C 1629.9 904.287 1629.46 903.728 1628.94 903.072 C 1628.36 874.291 1628.73 833.946 1628.8 806.392 L 1754.69 684.824 z" fill="rgb(246,202,98)" transform="translate(0,0)"></path>
<path d="M 1180.11 330.362 C 1199.74 334.045 1244.95 430.457 1260.5 439.119 C 1261.82 434.425 1254.8 425.28 1252.17 421.382 C 1259.88 423.653 1264.99 424.694 1270.89 430.727 C 1280.17 440.217 1279.44 457.485 1269.59 466.051 C 1261.4 473.17 1243.97 482.44 1233.19 481.505 C 1213.43 479.79 1188.69 450.842 1175.66 437.038 C 1170.87 431.929 1147.19 404.282 1143.32 402.844 L 1141.83 403.69 L 1141.76 405.968 C 1147.5 414.104 1163.1 430.236 1170.21 437.791 C 1169.98 445.364 1169.16 454.078 1168.62 461.724 C 1113.07 470.225 1097.63 433.601 1098.47 386.144 C 1099.74 384.121 1101.09 382.15 1102.52 380.238 C 1120.73 355.379 1149.2 335.178 1180.11 330.362 z" fill="rgb(254,253,253)" transform="translate(0,0)"></path>
<path d="M 1688.66 542.311 C 1690.61 542.153 1692.56 542.074 1694.51 542.072 C 1710.92 542.142 1726.62 548.765 1738.12 560.468 C 1755.41 578.207 1756.17 594.717 1755.89 617.606 C 1747.8 624.021 1732.77 638.739 1724.93 646.274 C 1704.87 665.665 1685.01 685.257 1665.35 705.047 C 1653.23 717.152 1640.99 729.13 1628.62 740.977 L 1628.7 646.529 C 1628.71 633.626 1628.04 605.573 1630.14 594.261 C 1631.92 584.883 1635.83 576.039 1641.56 568.409 C 1653.56 552.319 1669.3 545.125 1688.66 542.311 z" fill="rgb(246,202,98)" transform="translate(0,0)"></path>
<path d="M 299.461 616.494 L 671.39 616.787 L 671.632 744.396 L 649.056 744.345 L 648.92 657.889 L 648.909 642.541 C 541.055 641.255 429.935 641.846 321.968 641.915 L 322.037 744.778 L 294.005 744.746 L 293.951 664.314 C 293.947 650.043 293.426 631.722 294.371 617.71 C 296.095 616.124 296.628 616.621 299.461 616.494 z" fill="rgb(182,213,210)" transform="translate(0,0)"></path>
<path d="M 1486.49 542.354 C 1505.65 541.455 1529.6 542.056 1549.06 542.042 L 1666.9 542.133 C 1634.06 559.089 1623.36 579.566 1623.54 615.663 L 1608.5 615.676 L 1427.96 615.629 C 1427.21 576.142 1445.53 547.431 1486.49 542.354 z" fill="rgb(246,202,98)" transform="translate(0,0)"></path>
<path d="M 1481.5 557.077 L 1609.33 556.939 C 1601.98 571.19 1595.21 585.768 1587.76 599.99 L 1459.42 599.73 C 1463.57 589.375 1475.67 568.914 1481.5 557.077 z" fill="rgb(3,4,17)" transform="translate(0,0)"></path>
<path d="M 1483.91 561.649 C 1522.02 562.571 1564.18 562.053 1602.38 561.621 C 1597.03 572.425 1590.86 585.226 1585.11 595.649 C 1545.14 595.873 1505.17 595.889 1465.19 595.697 C 1472.06 584.546 1477.84 573.24 1483.91 561.649 z" fill="rgb(50,138,141)" transform="translate(0,0)"></path>
<path d="M 1113.47 696.771 C 1121.43 705.899 1133.32 840.733 1138.71 860.852 C 1141.74 872.124 1139.39 892.029 1138.13 904.085 L 1046.75 904.146 L 1044.22 903.684 C 1038.54 895.783 1029.17 894.449 1023.43 884.145 C 1018.16 874.696 1018.33 861.971 1021.36 851.943 C 1023.24 845.701 1034.35 835.931 1038.84 829.639 C 1068.74 787.771 1102.43 747.904 1113.47 696.771 z" fill="rgb(182,213,210)" transform="translate(0,0)"></path>
<path d="M 1265.33 379.875 L 1265.89 382.862 C 1293.51 383.831 1322.61 387.732 1350.19 390.175 C 1355.17 390.615 1381.47 393.043 1385.05 394.123 L 1386.73 395.622 C 1386.82 398.724 1385.71 400.867 1383.83 403.486 C 1357.52 440.051 1333.93 478.816 1307.36 515.106 C 1304.97 518.375 1301 520.001 1297.12 519.636 C 1276.93 518.482 1255.32 516.39 1235.22 514.098 C 1216.71 511.988 1197.67 511.302 1179.53 509.118 C 1178.54 505.284 1177.04 500.681 1177.36 496.827 L 1176.99 492.601 C 1172.65 473.286 1173.23 461.905 1174.46 442.755 C 1182.46 451.001 1189.24 457.674 1197.75 465.415 C 1200.04 466.294 1199.12 465.592 1200.56 467.655 C 1203.51 470.807 1204.36 470.588 1204.6 473.976 L 1202.87 477.362 C 1205.71 477.487 1206.43 476.816 1208.81 475.323 L 1212.08 476.466 L 1210.43 476.965 C 1233.45 494.231 1257.6 481.786 1278.03 466.727 C 1289.08 466.771 1305.18 468.282 1316.13 470.304 C 1317.88 467.397 1319 465.241 1320.48 462.184 C 1323.2 459.657 1328.69 450.408 1330.94 446.845 C 1332.29 444.929 1332.54 444.552 1333.31 442.345 L 1332.23 440.855 L 1327.02 440.437 C 1324.66 437.178 1335.14 429.85 1330.87 423.458 C 1331.14 423.851 1329.75 414.684 1329.59 413.781 C 1332.22 408.265 1339.53 410.737 1339.31 402.555 C 1337.45 399.486 1338.5 400.53 1334.87 398.804 C 1330.08 398.394 1316.19 405.575 1310.1 407.123 C 1294.67 411.046 1281.06 414.283 1266.6 421.264 C 1260.23 418.593 1251.56 419.934 1249.86 415.615 L 1252.52 410.964 C 1252.62 408.627 1252.74 408.096 1252.16 405.868 C 1247.87 407.432 1249.92 409.473 1245.14 412.348 L 1244.65 410.962 C 1247.78 404.199 1260.68 385.877 1265.33 379.875 z" fill="rgb(254,253,253)" transform="translate(0,0)"></path>
<path d="M 1377.89 395.21 L 1377.03 394.103 C 1379.7 394.151 1382.38 394.157 1385.05 394.123 L 1386.73 395.622 C 1386.82 398.724 1385.71 400.867 1383.83 403.486 C 1357.52 440.051 1333.93 478.816 1307.36 515.106 C 1304.97 518.375 1301 520.001 1297.12 519.636 C 1276.93 518.482 1255.32 516.39 1235.22 514.098 C 1216.71 511.988 1197.67 511.302 1179.53 509.118 C 1178.54 505.284 1177.04 500.681 1177.36 496.827 L 1176.99 492.601 C 1172.65 473.286 1173.23 461.905 1174.46 442.755 C 1182.46 451.001 1189.24 457.674 1197.75 465.415 C 1200.04 466.294 1199.12 465.592 1200.56 467.655 C 1203.51 470.807 1204.36 470.588 1204.6 473.976 L 1202.87 477.362 C 1200.36 478.253 1187.07 499.008 1184.53 502.928 C 1194.67 505.257 1215.64 506.924 1226.5 508.044 C 1250.77 510.418 1275 513.072 1299.2 516.006 C 1304.57 510.95 1307.71 506.474 1311.99 500.428 C 1334.81 468.234 1356.55 435.29 1378.21 402.316 C 1379.9 399.74 1378.7 397.902 1377.89 395.21 z" fill="rgb(50,138,141)" transform="translate(0,0)"></path>
<path d="M 1174.46 442.755 C 1182.46 451.001 1189.24 457.674 1197.75 465.415 C 1189.94 473.912 1183.33 482.967 1176.99 492.601 C 1172.65 473.286 1173.23 461.905 1174.46 442.755 z" fill="rgb(254,253,253)" transform="translate(0,0)"></path>
<path d="M 1197.75 465.415 C 1200.04 466.294 1199.12 465.592 1200.56 467.655 C 1196.8 472.312 1180.18 494.57 1177.36 496.827 L 1176.99 492.601 C 1183.33 482.967 1189.94 473.912 1197.75 465.415 z" fill="rgb(3,4,17)" transform="translate(0,0)"></path>
<path d="M 1265.33 379.875 L 1265.89 382.862 C 1293.51 383.831 1322.61 387.732 1350.19 390.175 C 1355.17 390.615 1381.47 393.043 1385.05 394.123 C 1382.38 394.157 1379.7 394.151 1377.03 394.103 L 1377.89 395.21 C 1378.7 397.902 1379.9 399.74 1378.21 402.316 C 1356.55 435.29 1334.81 468.234 1311.99 500.428 C 1307.71 506.474 1304.57 510.95 1299.2 516.006 C 1275 513.072 1250.77 510.418 1226.5 508.044 C 1215.64 506.924 1194.67 505.257 1184.53 502.928 C 1187.07 499.008 1200.36 478.253 1202.87 477.362 C 1205.71 477.487 1206.43 476.816 1208.81 475.323 L 1212.08 476.466 L 1210.43 476.965 C 1204.82 484.547 1199.16 491.988 1194.17 500.001 C 1198.57 500.628 1203.52 501.091 1207.95 501.474 C 1237.8 504.048 1267.93 509.018 1297.75 511.191 C 1306.32 502.799 1315.27 488.165 1322.4 478.078 C 1340.2 452.904 1356.49 425.308 1374.54 400.438 C 1339.6 396.763 1301.71 394.143 1267.36 389.841 C 1262.46 397.139 1257.9 403.983 1252.52 410.964 C 1252.62 408.627 1252.74 408.096 1252.16 405.868 C 1247.87 407.432 1249.92 409.473 1245.14 412.348 L 1244.65 410.962 C 1247.78 404.199 1260.68 385.877 1265.33 379.875 z" fill="rgb(3,4,17)" transform="translate(0,0)"></path>
<path d="M 1265.89 382.862 C 1293.51 383.831 1322.61 387.732 1350.19 390.175 C 1355.17 390.615 1381.47 393.043 1385.05 394.123 C 1382.38 394.157 1379.7 394.151 1377.03 394.103 L 1377.89 395.21 C 1373.01 396.455 1266.89 386.254 1265.21 385.299 L 1265.89 382.862 z" fill="rgb(50,138,141)" transform="translate(0,0)"></path>
<path d="M 316.411 432.496 L 733.249 432.631 L 733.246 451.589 L 710.5 451.611 L 293.825 451.198 L 293.845 432.704 L 316.411 432.496 z" fill="rgb(254,253,253)" transform="translate(0,0)"></path>
<path d="M 294.205 749.955 L 733.52 749.798 L 733.487 766.882 L 294.181 766.673 L 294.205 749.955 z" fill="rgb(254,253,253)" transform="translate(0,0)"></path>
<path d="M 557.108 595.495 L 733.199 595.251 L 733.225 611.215 L 472.5 611.172 L 294.2 611.03 L 294.187 595.686 L 557.108 595.495 z" fill="rgb(254,253,253)" transform="translate(0,0)"></path>
<path d="M 293.653 276.634 C 341.287 275.961 390.384 276.715 438.139 276.712 L 733.404 276.6 L 733.417 292.23 L 293.666 292.139 L 293.653 276.634 z" fill="rgb(254,253,253)" transform="translate(0,0)"></path>
<path d="M 231.949 456.79 L 278.156 456.74 L 278.122 574.456 L 278.251 590.732 C 271.948 590.798 235.937 591.567 231.711 589.91 C 233.036 547.948 231.943 499.245 231.949 456.79 z" fill="rgb(254,253,253)" transform="translate(0,0)"></path>
<path d="M 278.122 574.456 L 278.251 590.732 C 271.948 590.798 235.937 591.567 231.711 589.91 C 242.439 583.064 265.626 579.728 278.122 574.456 z" fill="rgb(182,213,210)" transform="translate(0,0)"></path>
<path d="M 232.185 771.905 L 278.398 771.965 L 278.435 904.019 L 231.994 904.122 L 232.185 771.905 z" fill="rgb(182,213,210)" transform="translate(0,0)"></path>
<path d="M 687.627 456.926 L 733.181 456.997 C 734.532 468.53 733.889 491.97 733.855 504.503 L 733.57 590.082 L 687.711 590.169 C 687.733 568.439 688.153 545.287 687.732 523.672 L 687.627 456.926 z" fill="rgb(182,213,210)" transform="translate(0,0)"></path>
<path d="M 687.627 456.926 L 733.181 456.997 C 731.946 470.59 732.731 493.471 732.739 507.984 C 718.947 514.156 702.255 519.172 687.732 523.672 L 687.627 456.926 z" fill="rgb(254,253,253)" transform="translate(0,0)"></path>
<path d="M 231.802 297.587 L 277.97 297.59 L 278.149 427.484 L 231.817 427.676 L 231.802 297.587 z" fill="rgb(254,253,253)" transform="translate(0,0)"></path>
<path d="M 687.941 772.281 L 733.108 772.254 L 733.069 904.004 L 687.83 904.043 C 687.816 861.378 686.707 814.535 687.941 772.281 z" fill="rgb(182,213,210)" transform="translate(0,0)"></path>
<path d="M 232.011 616.558 L 278.218 616.534 L 278.388 744.678 L 232.015 744.705 L 232.011 616.558 z" fill="rgb(182,213,210)" transform="translate(0,0)"></path>
<path d="M 730.796 297.502 L 732.808 298.14 C 733.725 302.11 733.302 332.16 733.3 337.784 L 733.482 427.438 L 689.875 427.266 L 688.954 426.964 C 688.594 426.504 688.233 426.044 687.873 425.584 C 687.886 395.942 687.759 321.997 687.724 297.716 L 730.796 297.502 z" fill="rgb(254,253,253)" transform="translate(0,0)"></path>
<path d="M 687.912 616.84 L 733.158 616.804 L 733.327 744.488 L 687.842 744.568 L 687.912 616.84 z" fill="rgb(182,213,210)" transform="translate(0,0)"></path>
<path d="M 354.5 646.955 L 404.251 646.973 L 404.031 744.576 L 354.645 744.559 L 354.5 646.955 z" fill="rgb(246,202,98)" transform="translate(0,0)"></path>
<path d="M 1165.96 189.55 L 1164.67 189.263 C 1168.77 188.981 1175.51 188.081 1179.14 189.368 L 1177.29 190.78 C 1177.64 190.808 1177.98 190.84 1178.32 190.875 C 1190.34 192.133 1208.4 197.442 1215.78 207.446 C 1224.96 219.901 1222.82 232.002 1221.25 245.986 C 1199.86 246.635 1146.77 240.757 1126.99 233.433 C 1128.63 203.497 1138.28 197.616 1165.45 189.772 C 1165.62 189.698 1165.79 189.624 1165.96 189.55 z" fill="rgb(246,202,98)" transform="translate(0,0)"></path>
<path d="M 1165.96 189.55 L 1164.67 189.263 C 1168.77 188.981 1175.51 188.081 1179.14 189.368 L 1177.29 190.78 C 1177.45 190.906 1177.61 191.032 1177.78 191.158 L 1179.45 192.535 C 1187.73 199.398 1195.67 220.999 1188.9 229.063 L 1187.5 228.844 C 1186.16 225.515 1186.85 221.817 1186.79 218.251 C 1186.59 206.381 1178.58 191.496 1165.96 189.55 z" fill="rgb(3,4,17)" transform="translate(0,0)"></path>
<path d="M 409.756 646.974 L 452.611 647.057 L 453.126 744.647 L 409.699 744.737 L 409.756 646.974 z" fill="rgb(246,202,98)" transform="translate(0,0)"></path>
<path d="M 415.564 652.963 L 445.937 652.836 L 445.8 670.503 C 436.411 670.688 426.186 670.498 416.738 670.491 C 416.725 663.398 416.609 659.961 415.564 652.963 z" fill="rgb(3,4,17)" transform="translate(0,0)"></path>
<path d="M 422.159 657.287 C 427.71 657.47 434.056 655.942 438.667 657.924 C 441.199 660.856 440.38 660.686 440.604 665.506 C 435.103 665.382 427.817 666.858 423.477 664.537 C 421.456 661.629 422.162 661.562 422.159 657.287 z" fill="rgb(254,253,253)" transform="translate(0,0)"></path>
<path d="M 600.569 647.189 C 614.903 647.093 629.238 647.194 643.569 647.49 L 643.843 744.778 L 600.803 744.67 L 600.569 647.189 z" fill="rgb(246,202,98)" transform="translate(0,0)"></path>
<path d="M 606.717 653.084 L 636.889 652.991 L 636.848 670.707 C 628.894 671.188 615.144 670.833 606.797 670.857 L 606.717 653.084 z" fill="rgb(3,4,17)" transform="translate(0,0)"></path>
<path d="M 612.112 657.775 C 617.598 657.808 625.417 656.622 629.561 658.532 C 631.818 661.31 631.086 661.217 631.286 665.597 C 625.741 665.472 618.979 666.995 614.335 665 C 611.761 662.223 612.554 662.422 612.112 657.775 z" fill="rgb(254,253,253)" transform="translate(0,0)"></path>
<path d="M 458.291 647.235 L 500.587 647.257 C 500.872 679.705 500.921 712.154 500.733 744.602 L 458.376 744.672 L 458.291 647.235 z" fill="rgb(246,202,98)" transform="translate(0,0)"></path>
<path d="M 464.307 652.984 L 494.279 652.939 C 494.28 658.919 494.187 664.899 494 670.877 L 464.974 670.736 C 464.356 665.111 464.407 658.696 464.307 652.984 z" fill="rgb(3,4,17)" transform="translate(0,0)"></path>
<path d="M 469.725 657.889 C 473.165 657.907 476.719 657.443 480.156 657.429 C 488.286 657.397 488.013 658.855 489.083 665.401 C 483.396 665.217 477.054 666.697 472.179 664.885 C 469.337 662.282 470.209 662.792 469.725 657.889 z" fill="rgb(254,253,253)" transform="translate(0,0)"></path>
<path d="M 553.102 647.28 L 595.133 647.31 L 595.288 744.717 L 553.175 744.81 L 553.102 647.28 z" fill="rgb(246,202,98)" transform="translate(0,0)"></path>
<path d="M 558.725 653.243 L 587.979 653.092 L 587.946 670.831 C 579.777 671.329 567.27 670.953 558.764 670.976 L 558.725 653.243 z" fill="rgb(3,4,17)" transform="translate(0,0)"></path>
<path d="M 564.363 657.28 C 569.276 657.358 576.204 656.001 580.168 657.816 C 582.721 660.915 581.864 660.828 581.955 665.859 C 577.052 665.787 569.74 667.164 565.943 665.184 C 563.613 662.09 564.413 662.036 564.363 657.28 z" fill="rgb(254,253,253)" transform="translate(0,0)"></path>
<path d="M 506.143 647.202 L 547.249 647.226 C 547.75 679.734 547.956 712.245 547.868 744.756 L 506.131 744.658 L 506.143 647.202 z" fill="rgb(246,202,98)" transform="translate(0,0)"></path>
<path d="M 512.011 653.168 L 541.217 653.149 C 541.123 659.237 540.831 664.753 540.437 670.825 L 512.215 670.824 C 511.908 665.534 512.047 658.595 512.011 653.168 z" fill="rgb(3,4,17)" transform="translate(0,0)"></path>
<path d="M 517.165 657.629 C 522.412 657.673 529.649 656.22 533.878 658.449 C 536.02 661.364 535.298 661.452 535.406 665.824 C 529.954 665.678 523.969 667.192 519.343 665.213 C 516.715 662.167 517.533 662.507 517.165 657.629 z" fill="rgb(254,253,253)" transform="translate(0,0)"></path>
<path d="M 520.584 346.711 L 567.834 346.557 L 567.812 427.149 L 520.566 427.086 L 520.584 346.711 z" fill="rgb(246,202,98)" transform="translate(0,0)"></path>
<path d="M 601.675 346.5 L 619.157 346.405 L 619.214 427.35 L 590.864 427.252 L 572.872 427.268 L 572.951 346.505 L 601.675 346.5 z" fill="rgb(246,202,98)" transform="translate(0,0)"></path>
<path d="M 738.756 263.969 C 740.839 264.35 741.828 264.628 743.849 265.269 C 745.529 268.619 744.383 849.886 744.333 902.095 C 743.97 902.903 743.008 903.804 742.365 904.51 L 740.154 903.686 C 738.753 901.051 738.663 896.361 738.671 893.268 C 738.873 818.496 738.832 743.6 738.932 668.835 L 738.756 263.969 z" fill="rgb(254,253,253)" transform="translate(0,0)"></path>
<path d="M 221.043 262.082 C 223.603 262.364 224.079 262.351 226.219 263.743 C 227.102 269.441 226.575 305.38 226.59 314.114 L 226.543 436.854 L 226.744 904.506 C 225.018 904.329 223.872 903.954 222.224 903.495 C 220.202 897.97 221.577 770.221 221.569 757.667 L 221.043 262.082 z" fill="rgb(254,253,253)" transform="translate(0,0)"></path>
<path d="M 283.148 270.229 L 287.393 271.269 C 289.483 274.351 288.775 338.539 288.783 346.969 L 288.74 489.719 L 288.676 904.479 C 286.436 904.328 286.364 904.306 284.408 903.25 C 282.971 891.03 283.954 853.297 283.964 839.34 L 283.871 711.21 L 283.148 270.229 z" fill="rgb(254,253,253)" transform="translate(0,0)"></path>
<path d="M 1094.85 302.427 C 1116.15 300.524 1138.29 308.919 1157.88 316.732 C 1135.03 323.404 1118.01 335.708 1100.36 351.033 C 1093.26 357.292 1087.97 362.905 1082.02 370.246 C 1078.68 374.371 1074.27 380.339 1068.57 378.347 C 1060.97 367.613 1079.83 306.831 1094.85 302.427 z" fill="rgb(254,253,253)" transform="translate(0,0)"></path>
<path d="M 1036.67 917.957 C 1034.21 919.08 1026.9 919.62 1024.04 919.17 C 1009.52 916.883 977.924 920.713 967.621 910.179 C 961.378 902.066 960.953 888.306 957.68 878.772 C 953.6 866.887 938.045 840.813 949.543 830.53 C 950.688 830.294 952.47 830.039 953.606 830.452 C 977.361 839.078 980.994 871.726 992.477 891.241 C 1001.3 906.244 1008.4 909.94 1023.35 914.238 C 1027.86 915.649 1032.12 916.771 1036.67 917.957 z" fill="rgb(38,35,65)" transform="translate(0,0)"></path>
<path d="M 1755.31 639.744 C 1756.39 644.479 1755.9 655.29 1755.82 660.648 C 1714.67 702.198 1672.53 742.747 1629.42 782.26 C 1628.18 778.595 1628.67 768.755 1628.72 764.318 C 1631.86 761.379 1634.94 758.335 1637.95 755.266 C 1676.24 716.188 1717.22 678.963 1755.31 639.744 z" fill="rgb(246,202,98)" transform="translate(0,0)"></path>
<path d="M 1203.66 250.983 C 1206.69 252.429 1212.83 254.493 1216.2 255.741 C 1215.36 262.393 1212.82 268.45 1210.52 274.767 C 1211.48 278.517 1213.36 284.195 1212.7 287.786 C 1209.58 291.341 1205.25 290.709 1204.78 291.349 C 1189.5 312.174 1174.03 322.478 1169.79 286.542 L 1169.02 286.185 C 1165.71 290.604 1168.72 299.849 1165.9 304.419 C 1163.04 304.436 1158.26 299.75 1155.42 297.524 C 1147.71 291.912 1137.05 288.624 1132.42 283.151 L 1134.14 280.039 C 1138.15 278.514 1144.34 282.062 1148.44 283.837 C 1155.74 278.55 1164.2 267.716 1169.99 267.255 C 1171.19 269.365 1171.41 269.559 1173.46 270.856 L 1175.36 270.365 C 1175.89 267.336 1172.99 262.962 1171.46 259.013 C 1172.52 255.167 1171.73 256.602 1174.77 253.634 C 1178.67 252.618 1177.18 252.473 1180.56 253.81 C 1183.6 256.775 1184.81 261.028 1186.34 265.039 C 1192.92 260.227 1197.52 256.375 1203.66 250.983 z" fill="rgb(254,253,253)" transform="translate(0,0)"></path>
<path d="M 286.592 187.088 L 428.212 187.002 L 428.223 204.495 L 286.54 204.753 L 286.592 187.088 z" fill="rgb(246,202,98)" transform="translate(0,0)"></path>
<path d="M 506.686 527.116 L 545.843 527.134 L 545.938 590.242 L 506.685 590.335 L 506.686 527.116 z" fill="rgb(246,202,98)" transform="translate(0,0)"></path>
<path d="M 511.749 532.166 L 540.732 532.169 L 540.587 549.393 C 532.379 550.014 520.259 549.671 511.766 549.685 L 511.749 532.166 z" fill="rgb(9,10,24)" transform="translate(0,0)"></path>
<path d="M 517.032 536.872 C 522.074 536.984 528.565 535.627 532.803 537.438 C 535.295 540.256 534.517 539.667 534.657 544.351 C 529.609 544.242 523.476 545.544 519.124 543.931 C 516.396 541.236 517.246 541.818 517.032 536.872 z" fill="rgb(254,253,253)" transform="translate(0,0)"></path>
<path d="M 286.864 232.02 L 428.294 232.03 L 428.295 249.727 L 286.855 249.163 L 286.864 232.02 z" fill="rgb(246,202,98)" transform="translate(0,0)"></path>
<path d="M 286.738 209.951 L 428.242 209.807 L 428.314 227.054 L 286.722 226.871 L 286.738 209.951 z" fill="rgb(246,202,98)" transform="translate(0,0)"></path>
<path d="M 593.514 527.088 L 631.831 527.144 L 631.769 590.193 L 593.58 590.141 L 593.514 527.088 z" fill="rgb(246,202,98)" transform="translate(0,0)"></path>
<path d="M 597.742 532.096 L 627.028 532.103 L 626.931 549.659 L 597.693 549.678 L 597.742 532.096 z" fill="rgb(9,10,24)" transform="translate(0,0)"></path>
<path d="M 603.075 536.926 C 608.565 537.023 614.418 535.648 619.317 537.526 C 622.033 540.286 621.216 539.624 621.73 544.3 C 616.055 544.118 609.518 545.718 604.826 543.773 C 602.486 541.228 603.251 541.341 603.075 536.926 z" fill="rgb(254,253,253)" transform="translate(0,0)"></path>
<path d="M 1145.59 876.261 C 1171 884.627 1182.93 876.888 1207.59 877.345 C 1210.9 877.406 1206.63 881.885 1208.58 885.69 L 1210.54 885.863 C 1212.6 884.357 1213.77 883.36 1215.64 881.627 C 1216.06 882.866 1214.82 885.583 1214.37 887.691 L 1215.99 889.389 C 1219.23 889.429 1219.48 885.197 1221.34 884.802 C 1226.06 883.802 1258.92 896.204 1260.31 898.253 L 1257.71 899.628 C 1235.13 906.315 1209.14 906.046 1185.81 906.074 C 1184.74 901.891 1183.84 896.147 1180.93 893.225 L 1179.34 893.345 C 1177.77 896.971 1179.17 902.157 1179.83 906.235 C 1167.46 905.983 1155.11 905.136 1142.82 903.696 C 1143.98 894.577 1144.91 885.428 1145.59 876.261 z" fill="rgb(246,202,98)" transform="translate(0,0)"></path>
<path d="M 463.33 527.04 L 501.144 527.098 L 501.229 590.213 L 463.182 590.289 C 463.037 569.206 463.086 548.122 463.33 527.04 z" fill="rgb(246,202,98)" transform="translate(0,0)"></path>
<path d="M 467.854 531.899 L 496.315 532.061 L 496.138 549.465 L 467.819 549.592 L 467.854 531.899 z" fill="rgb(9,10,24)" transform="translate(0,0)"></path>
<path d="M 473.475 536.478 C 478.52 536.627 484.647 535.205 488.84 536.918 C 491.388 539.811 490.553 539.552 490.68 544.437 C 485.698 544.312 479.382 545.657 475.233 543.916 C 472.737 541.175 473.573 541.267 473.475 536.478 z" fill="rgb(254,253,253)" transform="translate(0,0)"></path>
<path d="M 287.035 254.233 C 333.774 253.77 381.542 254.358 428.347 254.512 L 428.353 271.36 L 337.447 271.314 C 323.592 271.322 308.991 271.838 295.257 270.73 C 288.53 270.187 286.655 259.562 287.035 254.233 z" fill="rgb(246,202,98)" transform="translate(0,0)"></path>
<path d="M 420.574 526.754 L 457.46 526.825 C 457.75 547.932 457.88 569.04 457.849 590.148 L 420.752 590.227 L 420.574 526.754 z" fill="rgb(246,202,98)" transform="translate(0,0)"></path>
<path d="M 425.244 531.866 C 434.285 531.838 443.326 531.761 452.366 531.634 L 452.224 549.273 L 425.234 549.29 L 425.244 531.866 z" fill="rgb(9,10,24)" transform="translate(0,0)"></path>
<path d="M 430.464 536.277 C 435.201 536.385 441.231 535.099 445.147 536.819 C 447.706 539.823 446.908 539.549 447.271 544.323 C 442.989 544.521 435.517 545.47 432.083 543.569 C 429.957 540.621 430.65 540.589 430.464 536.277 z" fill="rgb(254,253,253)" transform="translate(0,0)"></path>
<path d="M 551.213 527.212 L 587.971 527.256 L 588.078 590.153 L 551.116 590.208 L 551.213 527.212 z" fill="rgb(246,202,98)" transform="translate(0,0)"></path>
<path d="M 555.833 532.014 L 583.141 532.132 C 583.228 538.229 582.921 543.6 582.575 549.673 L 555.659 549.687 L 555.833 532.014 z" fill="rgb(9,10,24)" transform="translate(0,0)"></path>
<path d="M 561.214 536.214 C 566.021 536.308 572.117 535.027 576.165 536.782 C 578.535 539.877 577.709 539.665 577.574 544.568 C 572.873 544.524 566.81 545.862 562.888 544.107 C 560.506 541.101 561.317 540.97 561.214 536.214 z" fill="rgb(254,253,253)" transform="translate(0,0)"></path>
<path d="M 381.154 527.11 L 415.11 527.092 L 415.068 590.095 L 381.098 590.156 L 381.154 527.11 z" fill="rgb(246,202,98)" transform="translate(0,0)"></path>
<path d="M 327.149 646.973 L 348.9 646.946 C 349.092 679.484 349.102 712.024 348.927 744.563 L 327.422 744.523 L 327.149 646.973 z" fill="rgb(246,202,98)" transform="translate(0,0)"></path>
<path d="M 671.143 516.934 C 672.597 538.187 671.324 568.219 671.367 590.216 L 637.049 590.227 L 636.998 532.441 C 646.971 532.1 660.81 530.176 670.546 528.549 C 670.55 524.616 670.86 520.846 671.143 516.934 z" fill="rgb(182,213,210)" transform="translate(0,0)"></path>
<path d="M 1569.93 494.077 L 1616.39 494.238 C 1611.44 507.22 1606.94 523.607 1603.38 537.002 L 1556.31 537.053 L 1569.93 494.077 z" fill="rgb(50,138,141)" transform="translate(0,0)"></path>
<path d="M 352.807 349.622 L 432.191 349.661 L 432.167 374.282 L 352.867 374.451 L 352.807 349.622 z" fill="rgb(246,202,98)" transform="translate(0,0)"></path>
<path d="M 514.157 346.504 L 515.146 347.471 C 515.913 354.359 515.532 368.04 515.525 375.52 L 515.445 427.224 L 493.946 427.223 L 492.475 426.025 C 490.807 409.045 492.056 365.534 492.076 346.619 L 514.157 346.504 z" fill="rgb(246,202,98)" transform="translate(0,0)"></path>
<path d="M 352.81 405.046 L 431.995 405.078 L 431.968 427.304 L 352.822 427.321 L 352.81 405.046 z" fill="rgb(246,202,98)" transform="translate(0,0)"></path>
<path d="M 973.07 811.158 C 986.028 817.676 1005.67 834.812 1017.49 844.188 C 1013.27 860.603 1012.06 884.137 1026.6 895.845 C 1029.59 898.259 1032.92 899.587 1035.79 902.342 L 1033.58 903.11 C 985.618 887.894 1004.39 842.694 964.486 818.708 L 973.07 811.158 z" fill="rgb(246,202,98)" transform="translate(0,0)"></path>
<path d="M 427.532 379.502 C 429.319 379.38 429.501 379.567 431.166 380.117 C 433.228 384.363 432.317 394.873 432.17 400.064 L 357.75 399.869 C 355.652 399.974 355.536 400.037 353.76 399.043 C 351.903 394.487 352.705 385.072 352.823 379.716 L 427.532 379.502 z" fill="rgb(246,202,98)" transform="translate(0,0)"></path>
<path d="M 1332.85 403.059 L 1333.28 403.851 C 1330.33 411.196 1307.44 413.847 1305.91 420.934 L 1307.32 422.119 C 1312.65 422.103 1317.31 417.905 1323.81 416.775 L 1324.96 417.958 L 1324.4 419.765 C 1321.33 422.544 1313.48 424.579 1308.97 426.572 L 1308.34 428.504 L 1309.47 430.299 C 1313.41 431.298 1319.83 426.448 1326.46 425.175 L 1326.84 426.995 C 1322.92 431.615 1312.34 432.169 1309.17 436.852 L 1310.25 438.708 C 1314.69 439.751 1317.37 435.495 1321.57 436.244 L 1321.42 438.229 C 1317.39 440.016 1316 440.759 1312.61 443.408 C 1303 450.912 1291.71 455.642 1280.52 460.159 C 1283.35 444.375 1282.54 434.891 1270.71 423.539 C 1294.05 413.823 1308.22 415.708 1332.85 403.059 z" fill="rgb(254,253,253)" transform="translate(0,0)"></path>
<path d="M 1063.42 315.132 C 1063.5 316.509 1053.5 335.07 1051.88 339.954 C 1047.58 352.962 1047.22 369.52 1042.36 381.884 C 1036.15 397.666 1031.33 413.129 1025.96 429.052 C 1020.19 391.581 1027.31 336.065 1063.42 315.132 z" fill="rgb(254,253,253)" transform="translate(0,0)"></path>
<path d="M 1128.71 238.961 C 1152.96 245.959 1172.39 247.257 1197.33 250.08 C 1195.05 252.149 1193.72 253.236 1191.22 255.046 C 1184.24 255.846 1185.2 246.807 1171.67 251.106 C 1168.58 254.992 1167.81 257.126 1165.21 260.739 C 1160.3 267.551 1153.51 273.816 1147.29 279.405 C 1142.55 277.424 1133.82 274.643 1131.81 270.104 C 1128.17 261.873 1125.8 253.644 1123.27 245.041 C 1124.05 242.028 1126.14 240.952 1128.71 238.961 z" fill="rgb(225,105,87)" transform="translate(0,0)"></path>
<path d="M 1754.92 624.924 C 1756.28 626.439 1756.01 627.812 1756.28 630.181 C 1755.17 634.879 1724.78 662.788 1718.6 668.914 L 1629.24 757.092 C 1628.33 755.266 1628.08 752.107 1628.21 750.064 C 1628.55 745.004 1744.25 633.723 1754.92 624.924 z" fill="rgb(50,138,141)" transform="translate(0,0)"></path>
<path d="M 1754.49 668.738 C 1756.42 670.824 1755.85 671.28 1756.11 674.64 C 1753.61 680.884 1641.3 787.354 1629.18 799.053 C 1628.17 797.29 1628.53 792.268 1628.56 789.918 C 1640.38 779.663 1651.07 767.847 1662.46 757.097 C 1693.2 728.073 1723.3 697.159 1754.49 668.738 z" fill="rgb(50,138,141)" transform="translate(0,0)"></path>
<path d="M 1163.92 320.2 C 1167.48 321.108 1172.64 324.43 1175.99 326.372 C 1139.34 333.249 1116.49 356.333 1093.93 383.62 L 1079.35 380.885 C 1097.12 354.181 1132.08 327.472 1163.92 320.2 z" fill="rgb(246,202,98)" transform="translate(0,0)"></path>
<path d="M 359.938 527.07 L 376.026 527.051 L 376.026 590.149 L 359.908 590.198 L 359.938 527.07 z" fill="rgb(246,202,98)" transform="translate(0,0)"></path>
<path d="M 231.81 432.816 L 278.059 432.713 L 278.05 451.339 L 231.805 451.37 L 231.81 432.816 z" fill="rgb(254,253,253)" transform="translate(0,0)"></path>
<path d="M 232.02 749.939 L 278.417 749.979 L 278.433 766.391 L 232.007 766.437 L 232.02 749.939 z" fill="rgb(254,253,253)" transform="translate(0,0)"></path>
<path d="M 1080.71 305.875 L 1083.04 305.795 C 1083.47 307.616 1079.43 312.767 1078.15 315.084 C 1067.4 334.445 1064.52 355.046 1061.26 376.65 C 1058.58 378.02 1056.67 377.106 1053.14 376.648 C 1051.51 376.409 1051.43 376.187 1049.96 375.423 C 1046.75 360.186 1064.3 312.947 1080.71 305.875 z" fill="rgb(246,202,98)" transform="translate(0,0)"></path>
<path d="M 1018.36 908.535 C 984.857 890.482 992.794 866.922 972.599 838.925 C 968.513 833.26 956.894 828.797 955.868 825.951 C 959.006 823.187 957.827 823.415 961.459 823.122 C 990.561 834.102 989.611 894.29 1021.65 903.614 C 1025.89 904.847 1039.2 908.157 1041.15 910.94 L 1041.13 914.421 C 1039.8 916.965 1039.57 916.481 1036.67 917.957 C 1032.12 916.771 1027.86 915.649 1023.35 914.238 C 1020.63 909.318 1020.91 913.612 1018.36 908.535 z" fill="rgb(254,253,253)" transform="translate(0,0)"></path>
<path d="M 1018.36 908.535 C 1026.74 911.139 1032.53 912.626 1041.13 914.421 C 1039.8 916.965 1039.57 916.481 1036.67 917.957 C 1032.12 916.771 1027.86 915.649 1023.35 914.238 C 1020.63 909.318 1020.91 913.612 1018.36 908.535 z" fill="rgb(3,4,17)" transform="translate(0,0)"></path>
<path d="M 677.015 771.319 C 679.743 771.795 680.315 771.691 682.351 773.389 C 683.189 779.26 682.443 805.709 682.421 813.644 L 682.269 904.943 C 680.037 904.456 679.473 904.21 677.4 903.238 C 676.491 899.372 676.612 866.161 676.73 860.29 C 677.315 831.372 675.778 799.985 677.015 771.319 z" fill="rgb(254,253,253)" transform="translate(0,0)"></path>
<path d="M 676.83 297.006 C 679.573 297.384 679.886 297.307 682.147 298.764 C 683.087 306.121 682.596 331.939 682.59 340.331 L 682.435 427.019 C 678.933 427.302 679.768 427.759 677.248 426.261 C 676.177 415.391 676.842 392.69 676.85 381.01 L 676.83 297.006 z" fill="rgb(254,253,253)" transform="translate(0,0)"></path>
<path d="M 676.776 616.464 C 679.526 616.752 679.864 616.658 682.164 618.041 C 683.117 621.827 682.651 652.654 682.628 658.464 L 682.597 744.914 C 679.149 744.713 679.186 745.316 677.095 743.317 C 676.069 731.576 676.79 710.296 676.826 697.936 L 676.776 616.464 z" fill="rgb(254,253,253)" transform="translate(0,0)"></path>
<path d="M 677.017 456.163 C 679.465 456.505 679.808 456.623 682.019 457.73 C 683.011 463.553 682.424 492.12 682.407 499.643 L 682.2 591.043 C 679.124 590.37 679.142 590.862 677.014 588.858 C 676.031 576.71 676.757 555.145 676.798 542.357 L 677.017 456.163 z" fill="rgb(254,253,253)" transform="translate(0,0)"></path>
<path d="M 319.157 349.609 L 347.871 349.573 L 347.74 374.622 L 319.175 374.621 L 319.157 349.609 z" fill="rgb(246,202,98)" transform="translate(0,0)"></path>
<path d="M 231.664 276.789 L 277.677 276.774 L 277.713 292.074 L 231.297 292.1 L 231.664 276.789 z" fill="rgb(254,253,253)" transform="translate(0,0)"></path>
<path d="M 232.032 595.945 L 278.255 595.837 L 278.241 611.144 L 232.023 611.187 L 232.032 595.945 z" fill="rgb(254,253,253)" transform="translate(0,0)"></path>
<path d="M 1265.11 902.242 C 1266.34 902.799 1266.84 904.152 1267.55 905.403 L 1266.65 907.24 C 1244.22 917.788 1170.64 916.693 1144.51 914.505 L 1142.43 912.774 L 1142.26 910.217 C 1144.85 908.714 1169.35 910.798 1174.97 910.92 C 1188.59 911.153 1202.22 910.969 1215.82 910.368 C 1234.12 909.461 1247.73 907.782 1265.11 902.242 z" fill="rgb(254,253,253)" transform="translate(0,0)"></path>
<path d="M 319.354 404.989 L 347.545 405.018 L 347.468 427.456 L 319.384 427.412 L 319.354 404.989 z" fill="rgb(246,202,98)" transform="translate(0,0)"></path>
<path d="M 319.256 379.451 L 347.664 379.622 L 347.611 399.989 L 319.213 399.859 L 319.256 379.451 z" fill="rgb(246,202,98)" transform="translate(0,0)"></path>
<path d="M 1279.58 466.136 C 1295.65 459.263 1309.11 452.111 1323.76 442.814 C 1325.03 442.012 1327.19 441.969 1328.69 442.022 C 1331.1 443.856 1330.36 442.82 1330.94 446.845 C 1328.69 450.408 1323.2 459.657 1320.48 462.184 C 1318.69 462.725 1316.34 466.699 1314.97 468.586 C 1304.84 466.174 1290.22 466.203 1279.58 466.136 z" fill="rgb(246,202,98)" transform="translate(0,0)"></path>
<path d="M 1262.28 372.975 C 1270.32 372.961 1294.9 372.168 1301.43 374.785 L 1301.71 376.657 C 1295.95 386.125 1275.86 375.943 1265.33 379.875 C 1260.68 385.877 1247.78 404.199 1244.65 410.962 C 1243.5 409.439 1241.07 406.436 1241.24 404.765 C 1242.15 395.774 1256.82 379.412 1262.28 372.975 z" fill="rgb(225,105,87)" transform="translate(0,0)"></path>
<path d="M 1116.56 287.973 C 1127.72 289.01 1160 299.206 1162.32 311.37 L 1161.16 312.538 L 1158.5 311.937 C 1140.72 304.171 1125.59 300.331 1106.61 297.342 L 1116.56 287.973 z" fill="rgb(254,253,253)" transform="translate(0,0)"></path>
<path d="M 1571.95 485.419 C 1590.37 484.997 1609.84 485.234 1628.34 485.149 C 1623.84 502.521 1618.5 519.591 1613.98 537.387 C 1599.86 536.501 1622.63 502.332 1620.48 490.723 C 1615.63 485.308 1582.38 491.719 1572.67 488.026 L 1571.95 485.419 z" fill="rgb(21,41,57)" transform="translate(0,0)"></path>
<path d="M 1140.66 917.929 C 1160.37 921.164 1184.77 919.998 1204.88 920.062 C 1206.19 920.066 1207.48 920.681 1208.56 921.384 C 1198.27 923.322 1155.31 926.267 1143.42 922.543 C 1141.2 921.847 1141.24 920.078 1140.66 917.929 z" fill="rgb(38,35,65)" transform="translate(0,0)"></path>
<path d="M 1222.66 250.309 C 1233.32 248.71 1252.13 252.177 1260.77 258.045 L 1260.72 260.1 C 1250.26 259.292 1231.99 257.099 1222.6 252.297 L 1222.66 250.309 z" fill="rgb(38,35,65)" transform="translate(0,0)"></path>
<path d="M 605.635 96.0628 C 638.67 92.6866 668.234 116.614 671.818 149.627 C 675.402 182.641 651.661 212.355 618.671 216.146 C 585.386 219.972 555.348 195.972 551.732 162.664 C 548.117 129.355 572.305 99.4691 605.635 96.0628 z" fill="rgb(9,10,24)" transform="translate(0,0)"></path>
<path d="M 603.259 101.578 C 633.507 96.8399 661.835 117.619 666.401 147.893 C 670.966 178.168 650.027 206.377 619.727 210.771 C 589.67 215.129 561.735 194.394 557.206 164.362 C 552.677 134.329 573.253 106.278 603.259 101.578 z" fill="rgb(254,253,253)" transform="translate(0,0)"></path>
<path d="M 604.265 116.846 C 626.158 112.915 647.099 127.454 651.068 149.341 C 655.037 171.227 640.534 192.194 618.655 196.2 C 596.722 200.217 575.692 185.671 571.714 163.731 C 567.735 141.791 582.318 120.787 604.265 116.846 z" fill="rgb(9,10,24)" transform="translate(0,0)"></path>
<path d="M 608.353 121.678 C 627.387 120.008 644.242 133.916 646.216 152.921 C 648.189 171.926 634.553 189 615.581 191.277 C 603.037 192.783 590.656 187.409 583.188 177.218 C 575.72 167.027 574.326 153.602 579.54 142.094 C 584.754 130.586 595.767 122.783 608.353 121.678 z" fill="rgb(254,253,253)" transform="translate(0,0)"></path>
<path d="M 606.645 142.363 C 614.559 140.01 622.874 144.554 625.169 152.484 C 627.464 160.415 622.859 168.697 614.912 170.934 C 607.047 173.147 598.868 168.601 596.597 160.752 C 594.326 152.903 598.813 144.691 606.645 142.363 z" fill="rgb(3,4,17)" transform="translate(0,0)"></path>
<path d="M 607.875 147.367 C 612.935 145.563 618.499 148.211 620.291 153.276 C 622.083 158.341 619.422 163.898 614.352 165.678 C 609.3 167.451 603.766 164.801 601.98 159.753 C 600.194 154.706 602.831 149.165 607.875 147.367 z" fill="rgb(246,202,98)" transform="translate(0,0)"></path>
<metadata><recraft-signature>{"signed_by": "recraft", "signature_b64": "hpWL5CSxzbWgNr47Y4121kAtpas83OGeTBUh3IdPTzP/h8qUNLa2uqx2fMDwPpuypP8hbrMskm/BP8VmgmHlCQ==", "signing_algo": "Ed25519", "generation_timestamp": 1777312817, "identifier": "bea8a1e0-3547-41d7-a96d-13735746c127"}</recraft-signature></metadata></svg>