<svg xmlns="http://www.w3.org/2000/svg" height="1024" preserveAspectRatio="none" style="display: block;" version="1.1" viewBox="0 0 2048 1024" width="2048">
<defs>
	<linearGradient gradientUnits="userSpaceOnUse" id="Gradient1" x1="986.387" x2="822.53" y1="1113.47" y2="768.915">
		<stop class="stop0" offset="0" stop-color="rgb(0,4,16)" stop-opacity="1"></stop>
		<stop class="stop1" offset="1" stop-color="rgb(23,48,64)" stop-opacity="1"></stop>
	</linearGradient>
</defs>
<path d="M 0 0 L 2048 0 L 2048 1024 L 0 1024 L 0 0 z" fill="rgb(254,253,253)" transform="translate(0,0)"></path>
<path d="M 1405.24 42.722 C 1434.23 55.219 1463.6 69.5928 1492.47 82.7964 L 1706.11 180.422 L 1859.05 250.196 L 1924.52 279.869 C 1937.73 285.872 1952.87 292.288 1965.55 299.008 C 1966.04 314.494 1963.32 320.391 1963.21 334.33 C 1962.98 361.754 1963.08 389.363 1963.07 416.795 L 1963.17 564.864 C 1963.27 594.441 1964.02 626.822 1963.12 656.267 C 1815.46 716.742 1667.41 776.245 1518.97 834.771 C 1502.06 824.973 1490.74 821.912 1473.09 815.549 C 1462.82 811.846 1441.82 802.048 1432.21 796.926 L 1431.93 743.429 L 1431.86 566.621 C 1412.91 559.859 1382.05 545.351 1362.99 536.9 C 1330.04 522.281 1296.93 508.016 1263.68 494.109 L 1203.28 518.71 C 1194.55 522.3 1178.38 528.427 1170.59 532.819 C 1168.93 532.293 1168.81 531.204 1167.74 529.294 C 1174.77 525.354 1193.24 518.334 1201.46 514.966 C 1221.84 506.443 1242.28 498.07 1262.78 489.847 C 1263.03 454.76 1263.07 419.672 1262.92 384.585 C 1184.47 348.126 1106.35 316.006 1027.55 281.532 C 1029.01 319.336 1027.56 367.774 1027.71 406.865 L 1027.77 502.993 C 1027.81 512.058 1028.89 576.614 1026.75 581.767 C 1018.77 585.3 1021.15 591.462 1011.69 598.705 L 970.567 579.809 C 969.916 575.39 970.782 571.595 969.078 567.21 L 957.033 572.022 L 945.64 566.599 C 934.046 571.731 922.078 577.254 910.269 581.776 C 914.89 596.325 915.802 603.26 916.903 618.335 C 918.411 638.971 922.23 643.992 913.35 663.835 C 901.644 670.113 890.887 674.27 878.385 678.772 C 876.122 677.611 875.827 677.397 874.064 675.564 L 874.716 674.217 C 877.144 674.83 877.925 674.623 880.243 673.724 C 882.75 670.832 882.292 662.47 881.95 658.599 C 878.008 614.008 833.398 638.021 817.334 659.563 C 804.461 676.826 799.293 684.735 798.29 706.098 C 776.694 714.982 753.145 725.204 731.497 733.41 C 724.498 764.086 691.587 796.793 662.289 767.981 C 659.943 773.659 655.435 784.54 650.759 788.403 C 646.843 793.966 644.666 795.444 639.522 799.712 C 629.262 808.228 604.77 812.925 598.019 797.243 C 596.142 797.079 594.115 796.798 592.229 796.577 C 586.387 818.678 571.829 833.675 549.075 838.311 C 538.028 835.55 519.529 826.269 508.876 820.608 C 507.975 821.275 503.537 823.9 502.809 823.541 C 457.802 801.293 411.582 778.978 366.445 757.247 L 226.522 813.67 L 171.665 836.341 C 136.123 850.9 116.818 860.814 78.711 848.41 C 86.2372 843.56 107.383 835.36 116.451 831.62 L 183.771 804.045 C 195.267 799.339 212.869 792.598 223.451 787.09 C 227.084 785.581 226.735 786.42 227.931 783.628 C 232.23 784.942 259.309 772.693 264.98 770.361 L 334.504 741.708 C 325.741 737.523 317.658 733.614 309.091 728.973 C 308.945 721.551 307.465 703.253 311.724 698.301 C 322.091 699.733 391.761 733.416 405.402 739.93 L 502.426 786.052 C 507.261 784.323 511.81 782.25 516.462 780.102 C 551.991 763.702 587.449 747.421 623.85 732.976 C 671.076 711.483 721.096 694.241 768.363 672.7 C 770.961 671.516 771.088 670.387 772.16 667.924 C 771.38 665.014 772.072 665.994 769.53 664.275 L 766.106 664.946 C 758.479 669.424 731.837 679.782 722.325 683.733 L 631.282 721.642 L 567.461 748.717 C 563.629 750.344 544.015 758.883 541.202 759.421 C 531.379 763.847 534.05 770.007 517.126 773.456 C 514.211 774.1 506.857 770.263 503.478 768.798 C 502.148 769.751 500.4 770.663 498.954 771.485 C 494.439 771.074 341.798 697.025 325.998 690.772 C 324.184 690.054 322.857 685.839 320.626 683.846 L 312.932 686.633 C 309.046 687.089 301.471 682.31 297.831 680.29 C 296.485 647.31 297.126 610.036 297.17 576.796 C 297.038 519.887 297.254 462.979 297.816 406.073 C 324.135 393.418 363.585 378.397 391.228 366.87 L 552.64 298.217 C 595.19 317.597 637.86 336.715 680.645 355.572 C 703.307 365.601 729.22 376.371 751.322 387.626 C 755.971 389.494 758.744 390.534 763.064 393.228 L 763.071 456.326 C 779.819 463.99 858.256 498.434 865.692 506.833 C 878.02 519.075 892.518 541.175 900.438 557.068 C 913.614 551.66 929.309 544.855 941.811 538.161 C 940.159 490.626 941.337 436.248 941.498 388.378 L 941.503 171.593 C 928.121 167.142 922.194 150.127 935.856 145.523 C 949.774 140.961 972.031 136.593 986.761 133.344 L 1070.11 114.99 C 1181.44 90.3943 1294.41 68.0567 1405.24 42.722 z" fill="rgb(20,42,57)" transform="translate(0,0)"></path>
<path d="M 1405.24 42.722 C 1434.23 55.219 1463.6 69.5928 1492.47 82.7964 L 1706.11 180.422 L 1859.05 250.196 L 1924.52 279.869 C 1937.73 285.872 1952.87 292.288 1965.55 299.008 C 1966.04 314.494 1963.32 320.391 1963.21 334.33 C 1962.98 361.754 1963.08 389.363 1963.07 416.795 L 1963.17 564.864 C 1963.27 594.441 1964.02 626.822 1963.12 656.267 C 1815.46 716.742 1667.41 776.245 1518.97 834.771 C 1502.06 824.973 1490.74 821.912 1473.09 815.549 C 1462.82 811.846 1441.82 802.048 1432.21 796.926 L 1431.93 743.429 L 1432.93 739.367 L 1434.04 739.821 C 1436.07 749.901 1433.45 773.51 1435.82 781.576 L 1436.03 794.351 C 1443.91 798.036 1473.31 812.275 1480.86 813.995 C 1482.31 811.711 1482.04 807.353 1482.11 804.432 C 1483.01 809.797 1482.26 812.958 1485.84 816.034 L 1489 814.807 C 1491.74 810.478 1488.74 553.89 1489.84 524.508 C 1490.81 517.113 1490.4 495.731 1490.63 486.893 C 1491.25 489.239 1490.93 511.832 1491.05 515.862 C 1491.92 545.103 1490.12 579.072 1491.53 607.863 C 1495.11 600.657 1489.29 480.546 1491.59 465.502 C 1491.92 463.345 1491.29 459.418 1489.91 457.368 L 1485.55 456.862 L 1485.17 455.203 C 1488.29 455.419 1490.43 455.203 1492.83 457.066 C 1494.87 461.361 1493.96 779.646 1494 817.999 C 1500.94 821.63 1509.62 825.434 1516.82 828.811 L 1516.79 552.232 C 1516.79 514.245 1517.81 472.065 1516.59 434.441 L 1515.08 431.061 C 1514.75 432.547 1514.04 416.052 1514.04 415.406 C 1446.14 371.676 1378.7 327.238 1311.73 282.099 L 1253.27 242.092 C 1246.73 237.602 1224.75 221.797 1218.56 219.944 C 1197.61 213.672 1173.3 208.335 1151.93 202.849 L 1016.93 169.253 C 990.878 162.879 962.067 156.499 936.467 148.917 C 939.382 147.165 939.66 149.513 943.119 147.156 C 940.911 145.426 939.097 145.836 935.856 145.523 C 949.774 140.961 972.031 136.593 986.761 133.344 L 1070.11 114.99 C 1181.44 90.3943 1294.41 68.0567 1405.24 42.722 z" fill="rgb(8,23,35)" transform="translate(0,0)"></path>
<path d="M 1957.96 322.341 C 1959.7 324.931 1959.13 623.149 1959.16 653.328 C 1937.22 663.326 1911.68 672.917 1889.01 682.146 C 1847.33 699.377 1805.51 716.259 1763.55 732.791 L 1522.23 829.382 C 1519.92 826.919 1520.9 785.685 1520.91 780.157 L 1520.92 692.589 L 1521.14 431.599 C 1531.17 429.86 1551.22 423.883 1561.68 421.121 C 1585.87 414.732 1610.12 408.521 1634.41 402.487 L 1832.78 353.318 C 1874.11 342.992 1916.49 331.375 1957.96 322.341 z" fill="rgb(254,253,253)" transform="translate(0,0)"></path>
<path d="M 1880.64 398.045 L 1883 398.001 C 1885.83 401.632 1884.78 480.599 1884.75 491.926 C 1875.97 496.527 1859.82 502.519 1850.37 506.276 L 1795.92 528.058 L 1607.22 603.173 C 1605.33 603.845 1606 603.676 1603.82 603.246 C 1602.1 599.841 1602.93 519.131 1602.96 508.624 C 1623.15 498.944 1656.16 487.748 1677.92 478.611 C 1744.61 450.608 1813.92 425.77 1880.64 398.045 z" fill="rgb(4,16,28)" transform="translate(0,0)"></path>
<path d="M 1878.5 473.934 L 1879.92 474.261 C 1881.23 477.306 1880.44 486.014 1880.3 489.786 C 1857.75 499.563 1832.94 508.923 1809.97 518.072 C 1742.94 544.023 1676.2 570.73 1609.78 598.188 C 1609.29 598.203 1608.02 597.84 1607.47 597.706 C 1606.21 594.191 1606.76 586.636 1606.85 582.587 C 1695.69 544.71 1789.78 511.52 1878.5 473.934 z" fill="rgb(127,177,176)" transform="translate(0,0)"></path>
<path d="M 1742.24 457.028 L 1743.22 457.491 C 1744.32 462.091 1743.74 515.074 1743.71 523.267 C 1722.15 532.036 1700.51 540.627 1678.8 549.04 L 1677.96 548.869 C 1676.19 546.432 1676.89 491.066 1676.9 483.195 C 1698.34 474.266 1720.62 465.645 1742.24 457.028 z" fill="rgb(254,253,253)" transform="translate(0,0)"></path>
<path d="M 1671.9 485.148 L 1672.28 485.509 C 1673.67 488.828 1673 543.572 1673 551.592 C 1652.61 558.952 1628.9 569.255 1608.24 577.308 C 1605.45 573.194 1606.63 520.802 1606.7 511.073 C 1628.53 502.674 1650.27 494.032 1671.9 485.148 z" fill="rgb(254,253,253)" transform="translate(0,0)"></path>
<path d="M 1812.98 429.163 C 1814.97 431.956 1814.1 487.698 1814.09 495.329 C 1793.27 504.101 1770.39 512.731 1749.28 521.027 C 1746.14 517.36 1747.75 463.611 1747.77 454.907 L 1812.98 429.163 z" fill="rgb(254,253,253)" transform="translate(0,0)"></path>
<path d="M 1879.77 403.013 C 1881.48 409.326 1881.07 461.048 1880.21 469.217 L 1819.31 493.274 C 1816.87 489.469 1817.96 435.826 1817.98 427.35 C 1838.51 419.077 1859.11 410.965 1879.77 403.013 z" fill="rgb(254,253,253)" transform="translate(0,0)"></path>
<path d="M 1880.73 552.025 L 1883.17 552.426 C 1885.7 556.855 1884.59 622.579 1884.31 633.212 C 1848.28 646.694 1808.19 663.974 1771.98 678.63 L 1606.33 744.778 C 1603.94 744.79 1604.99 745.159 1603.12 743.481 C 1602.4 736.405 1602.8 722.511 1602.8 714.991 C 1602.86 698.225 1602.75 681.459 1602.49 664.695 C 1629.91 651.999 1670.08 637.248 1698.66 625.687 L 1880.73 552.025 z" fill="rgb(8,23,35)" transform="translate(0,0)"></path>
<path d="M 1740.66 613.042 L 1742.87 613.281 C 1744.61 617.281 1743.92 676.634 1743.91 685.441 C 1723.01 694.614 1699.6 703.608 1678.28 711.515 L 1676.63 711.616 C 1675.06 708.73 1675.77 646.83 1675.79 639.206 C 1696.99 631.121 1719.44 621.551 1740.66 613.042 z" fill="rgb(254,253,253)" transform="translate(0,0)"></path>
<path d="M 1670.87 675.108 C 1672.81 678.286 1671.94 707.871 1671.89 714.049 C 1651.17 723.097 1628.93 731.428 1607.79 739.671 C 1605.85 737.085 1606.75 707.113 1606.8 701.409 C 1626.78 692.337 1650.16 683.783 1670.87 675.108 z" fill="rgb(254,253,253)" transform="translate(0,0)"></path>
<path d="M 1812.96 620.157 C 1814.79 622.366 1814.01 652.116 1813.99 657.389 C 1795.05 665.957 1768.99 675.476 1749.24 683.312 C 1746.95 680.647 1747.74 651.939 1747.73 646.261 C 1769.11 637.34 1791.41 628.752 1812.96 620.157 z" fill="rgb(254,253,253)" transform="translate(0,0)"></path>
<path d="M 1878.3 593.967 L 1879.25 594.088 C 1881.65 597.203 1880.77 624.232 1880.77 630.042 C 1862.17 638.358 1839.37 647.038 1820.29 654.813 L 1819.24 654.997 C 1816.8 651.776 1817.91 623.988 1817.95 617.813 C 1836.97 611.298 1859.39 601.589 1878.3 593.967 z" fill="rgb(254,253,253)" transform="translate(0,0)"></path>
<path d="M 1812.43 584.113 L 1813.29 584.464 C 1814.35 588.165 1813.88 609.965 1813.86 615.191 C 1792.59 623.97 1771.24 632.583 1749.83 641.031 C 1748.96 640.884 1748.93 640.636 1748.09 639.97 C 1747.23 633.547 1747.75 617.237 1747.8 610.072 L 1812.43 584.113 z" fill="rgb(254,253,253)" transform="translate(0,0)"></path>
<path d="M 1879.06 557.034 C 1881.8 560.455 1880.68 582.955 1880.65 588.812 C 1860.9 597.228 1839.97 605.155 1819.94 613.05 C 1819.04 612.924 1819.1 612.702 1818.17 611.979 C 1817.37 603.755 1817.93 590.574 1818.04 581.967 C 1834.6 573.873 1861.41 563.963 1879.06 557.034 z" fill="rgb(254,253,253)" transform="translate(0,0)"></path>
<path d="M 1670.96 641.144 C 1672.68 643.364 1671.9 666.511 1671.87 670.747 L 1608.22 696.209 C 1605.6 693.271 1606.67 672.369 1606.73 667.025 C 1628.09 658.266 1649.5 649.639 1670.96 641.144 z" fill="rgb(254,253,253)" transform="translate(0,0)"></path>
<path d="M 1403.43 47.2672 C 1409.82 48.2985 1450.41 67.6945 1458.63 71.4771 L 1591.89 132.987 L 1955.47 298.817 C 1926.65 307.263 1887.4 315.693 1857.49 323.191 L 1629.29 380.241 C 1595.47 388.821 1547.5 400.316 1514.87 411.028 L 1505.48 405.309 C 1439.74 362.637 1374.35 319.423 1309.33 275.671 L 1254.69 238.532 C 1245.23 231.979 1232.35 222.006 1222.58 216.817 C 1220.23 215.568 1203.51 211.522 1199.63 210.541 L 1153.95 199.131 L 1020.68 165.994 C 997.57 160.337 967.179 154.057 944.946 147.153 C 1095.37 110.812 1251.96 80.7113 1403.43 47.2672 z" fill="rgb(127,177,176)" transform="translate(0,0)"></path>
<path d="M 1379.23 77.01 C 1383.4 77.2845 1402.24 86.1711 1407.02 88.325 C 1424.23 95.9931 1441.35 103.85 1458.38 111.895 C 1465.03 114.981 1475.7 117.676 1480.9 121.22 C 1495.64 131.251 1488.68 140.788 1475.52 145.462 C 1456.41 152.251 1438.07 158.55 1419.45 165.111 L 1313.22 202.891 C 1303.69 199.925 1273.39 185.289 1263.22 180.326 C 1244.06 170.981 1221.51 161.783 1203.04 152.233 C 1202.38 144.853 1200.26 136.26 1208.95 133.281 C 1228.71 126.508 1248.71 120.287 1268.58 113.804 L 1379.23 77.01 z" fill="rgb(4,16,28)" transform="translate(0,0)"></path>
<path d="M 1379.37 80.9198 C 1387.46 82.2769 1471.86 121.719 1483.79 127.543 C 1461.43 136.591 1436.78 144.873 1413.92 152.914 L 1311.72 188.774 C 1276.32 171.889 1240.82 155.205 1205.23 138.723 C 1220.84 132.615 1241.3 127.079 1257.61 121.535 C 1297.58 107.947 1339.88 95.4378 1379.37 80.9198 z" fill="rgb(254,253,253)" transform="translate(0,0)"></path>
<path d="M 1373.1 98.2012 C 1379.61 100.026 1395.51 107.665 1403.02 110.835 C 1416.24 116.415 1430.69 121.863 1443.51 127.844 C 1402.03 143.371 1362.42 154.935 1320.18 171.988 C 1319.86 172.006 1319.55 172.016 1319.24 172.041 C 1310.52 172.722 1260 145.59 1248.52 139.922 C 1262.53 136.516 1278.77 130.711 1292.61 126.063 L 1373.1 98.2012 z" fill="rgb(4,16,28)" transform="translate(0,0)"></path>
<path d="M 1295.99 129.144 C 1303.21 133.909 1339.47 151.052 1349.93 156.262 C 1341.22 159.767 1325.44 165.99 1316.78 168.427 C 1300.45 161.443 1276.01 149.211 1260.16 140.944 C 1272.02 137.504 1284.26 133.128 1295.99 129.144 z" fill="rgb(254,253,253)" transform="translate(0,0)"></path>
<path d="M 1335.18 116.059 C 1342.27 117.757 1381.04 137.29 1390.71 141.825 C 1379.34 145.465 1368.46 149.554 1357.28 153.708 C 1350.78 154.447 1309.34 132.005 1301.33 127.35 C 1312.55 123.41 1323.84 119.646 1335.18 116.059 z" fill="rgb(254,253,253)" transform="translate(0,0)"></path>
<path d="M 1371.39 102.935 C 1376.26 102.719 1424.32 124.22 1433.8 127.49 C 1423.79 130.436 1413.87 133.652 1404.04 137.133 C 1403.24 137.44 1402.44 137.743 1401.62 138.01 C 1390.41 141.674 1352.78 119.495 1341.15 113.695 L 1371.39 102.935 z" fill="rgb(254,253,253)" transform="translate(0,0)"></path>
<path d="M 1482.9 132.131 C 1484.45 134.644 1484.1 133.47 1483.69 137 C 1480.71 140.08 1331.06 192.559 1313.41 198.989 C 1312.19 196.842 1312.18 196.522 1312.25 194.042 C 1314.87 190.82 1464.77 139.311 1482.9 132.131 z" fill="rgb(127,177,176)" transform="translate(0,0)"></path>
<path d="M 1205.88 143.636 C 1209.02 144.659 1211.73 145.87 1214.71 147.297 C 1244.72 161.668 1275.39 174.91 1304.98 190.12 C 1308.2 191.776 1308.04 192.983 1308.71 196.116 C 1289.7 191.092 1230.79 159.199 1208.52 150.585 C 1206.52 149.813 1206.29 145.878 1205.88 143.636 z" fill="rgb(127,177,176)" transform="translate(0,0)"></path>
<path d="M 1565.87 169.09 C 1574.24 167.773 1628.86 196.647 1640.77 200.79 C 1645.69 202.5 1665.92 212.441 1670.18 215.342 C 1670.62 235.397 1670.22 233.78 1651.75 240.372 C 1613.79 253.923 1575.7 267.144 1537.76 280.749 C 1525.75 285.056 1513.11 290.02 1500.75 293.051 L 1434.6 264.214 C 1423.2 259.234 1411.54 254.479 1400.51 248.784 C 1390.78 243.761 1391.39 229.251 1401.85 225.034 C 1419.38 217.964 1437.36 212.368 1455.23 206.206 C 1491.95 193.374 1528.84 181.001 1565.87 169.09 z" fill="rgb(4,16,28)" transform="translate(0,0)"></path>
<path d="M 1567.22 173.062 C 1571.39 172.727 1658.44 212.507 1668.28 219.044 C 1660.05 223.3 1647.98 226.984 1639.02 230.156 L 1592.23 246.863 L 1531.85 268.222 C 1523.7 271.083 1509.34 276.755 1501.32 278.524 C 1474.26 267.622 1447.69 254.444 1420.7 243.254 C 1412.93 240.035 1404.01 236.313 1396.84 232.153 C 1411 224.462 1439.86 215.469 1455.9 209.981 C 1492.88 197.306 1529.99 184.999 1567.22 173.062 z" fill="rgb(254,253,253)" transform="translate(0,0)"></path>
<path d="M 1562.09 189.019 C 1566.25 187.932 1621.63 214.632 1629.81 218.927 C 1589.52 232.659 1546.55 249.714 1506.51 262.423 C 1503.37 262.675 1445.73 235.921 1438.43 232.626 C 1451.64 227.357 1467.98 222.231 1481.62 217.439 L 1562.09 189.019 z" fill="rgb(4,16,28)" transform="translate(0,0)"></path>
<path d="M 1523.61 206.974 C 1527.52 206.275 1572.27 229.166 1579.17 232.585 L 1545.27 244.284 C 1542.46 244.712 1495.8 221.804 1489.79 218.782 C 1501.13 215.049 1512.41 211.112 1523.61 206.974 z" fill="rgb(254,253,253)" transform="translate(0,0)"></path>
<path d="M 1483.65 221.063 C 1487.35 221.382 1531.8 243.358 1538.97 246.512 C 1528.15 250.688 1517.26 254.67 1506.29 258.457 C 1487.73 250.851 1467.86 241.37 1449.52 233.007 C 1460.82 228.818 1472.2 224.836 1483.65 221.063 z" fill="rgb(254,253,253)" transform="translate(0,0)"></path>
<path d="M 1563.51 193.028 C 1569.74 193.987 1610.98 214.512 1619.17 218.358 L 1585.62 230.029 C 1581.46 230.68 1537.03 207.769 1530.39 204.707 C 1539.73 200.885 1553.68 196.472 1563.51 193.028 z" fill="rgb(254,253,253)" transform="translate(0,0)"></path>
<path d="M 1663.64 224.98 L 1665.06 224.988 C 1666.55 227.559 1666.27 226.352 1665.69 229.809 C 1662.98 233.922 1522.54 282.05 1505.22 288.068 C 1503.05 288.027 1503.9 288.31 1502.06 286.606 L 1502.16 284.059 C 1502.78 283.105 1503.42 282.31 1504.54 281.901 C 1557.29 262.479 1611.32 245.461 1663.64 224.98 z" fill="rgb(127,177,176)" transform="translate(0,0)"></path>
<path d="M 1397.8 237.703 C 1404.8 239.768 1414.3 244.483 1421.21 247.513 C 1446.38 258.551 1471.56 269.693 1496.55 281.115 C 1499.27 282.356 1499.12 284.772 1499.79 287.476 C 1494.33 286.954 1409.74 249.247 1399.76 244.816 C 1397.58 241.99 1398.23 241.852 1397.8 237.703 z" fill="rgb(127,177,176)" transform="translate(0,0)"></path>
<path d="M 1959.68 302.208 L 1960.31 302.664 C 1961.7 305.602 1961.13 313.679 1961.07 317.39 C 1896.11 331.121 1825.42 351.238 1760 367.046 C 1710.8 378.934 1661.67 391.157 1612.64 403.715 C 1583.4 411.098 1546.54 419.611 1518.3 428.813 L 1517.68 428.256 C 1518.19 423.537 1518.1 419.033 1518.09 414.3 C 1563.33 399.869 1621.64 386.428 1668.41 374.565 L 1959.68 302.208 z" fill="rgb(254,253,253)" transform="translate(0,0)"></path>
<path d="M 552.64 298.217 C 595.19 317.597 637.86 336.715 680.645 355.572 C 703.307 365.601 729.22 376.371 751.322 387.626 C 755.971 389.494 758.744 390.534 763.064 393.228 L 763.071 456.326 C 779.819 463.99 858.256 498.434 865.692 506.833 C 863.415 506.644 861.94 506.263 859.927 507.273 C 841.247 494.799 785.598 470.845 762.309 460.263 C 760.05 469.004 762.606 521.458 761.756 534.869 L 761.043 534.918 C 758.359 516.258 761.867 407.062 758.475 400.931 C 755.444 400.952 755.078 401.814 752.15 403.552 C 752.072 412.932 751.406 443.565 753.124 450.769 L 753.813 453.548 C 752.857 454.708 753.161 454.678 751.943 455.266 C 752.972 460.177 752.377 476.411 752.397 482.728 C 754.126 480.169 753.633 475.906 753.607 472.761 C 754.685 474.364 754.597 524.05 755.406 532.307 L 755.94 527.998 C 756.437 536.975 757.065 557.693 755.922 566.553 L 755.348 560.462 L 754.112 574.259 C 753.271 570.172 753.332 566.406 752.704 563.371 C 751.799 569.943 751.1 602.88 752.606 608.398 L 754.115 612.033 L 752.724 613.044 C 695.063 636.085 638.312 661.185 580.85 684.598 C 572.724 687.909 535.904 704.411 530.47 705.685 C 529.317 710.016 529.899 728.378 528.895 735.496 C 527.615 678.256 527.144 621.001 527.481 563.748 C 527.478 552.486 528.93 503.543 526.862 495.48 L 525.357 495.529 C 525.103 493.721 525.519 494.397 524.354 493.302 C 523.264 495.897 522.417 497.928 520.621 500.16 L 515.179 505.326 C 514.039 513.442 514.525 532.181 514.566 540.851 L 514.685 600.04 L 514.666 707.064 C 514.659 724.9 513.684 747.077 516.195 764.644 C 516.575 767.297 516.814 766.988 516.45 769.869 L 518.424 770.009 L 516.676 772.197 L 517.126 773.456 C 514.211 774.1 506.857 770.263 503.478 768.798 C 502.148 769.751 500.4 770.663 498.954 771.485 C 494.439 771.074 341.798 697.025 325.998 690.772 C 324.184 690.054 322.857 685.839 320.626 683.846 L 312.932 686.633 C 309.046 687.089 301.471 682.31 297.831 680.29 C 296.485 647.31 297.126 610.036 297.17 576.796 C 297.038 519.887 297.254 462.979 297.816 406.073 C 324.135 393.418 363.585 378.397 391.228 366.87 L 552.64 298.217 z" fill="rgb(8,23,35)" transform="translate(0,0)"></path>
<path d="M 552.64 298.217 C 595.19 317.597 637.86 336.715 680.645 355.572 C 703.307 365.601 729.22 376.371 751.322 387.626 C 748.683 389.119 745.055 385.701 740.237 390.625 C 740.3 391.417 740.372 393.024 740.541 393.72 L 742.456 395.688 C 740.748 398.293 737.208 399.223 734.127 399.311 L 733.605 401.911 L 732.447 402.279 L 731.107 401.35 L 730.535 401.868 C 712.549 410.894 690.569 419.643 671.82 427.62 L 567.306 472.134 C 552.52 478.452 536.578 484.594 522.177 491.259 C 490.217 478.309 454.654 460.781 422.979 446.418 C 402.265 437.047 381.601 427.565 360.989 417.971 C 351.688 413.665 338.492 408.047 329.876 403.439 L 329.02 401.958 C 325.545 402.677 325.123 402.868 322.116 404.601 C 318.312 406.289 314.107 408.049 310.427 409.924 L 320.88 414.273 C 319.192 416.942 316.363 419.881 313.862 421.798 L 313.601 422.998 L 313.626 602.88 C 313.681 626.913 312.679 659.365 314.11 682.366 L 311.893 682.932 L 311.272 684.62 L 312.932 686.633 C 309.046 687.089 301.471 682.31 297.831 680.29 C 296.485 647.31 297.126 610.036 297.17 576.796 C 297.038 519.887 297.254 462.979 297.816 406.073 C 324.135 393.418 363.585 378.397 391.228 366.87 L 552.64 298.217 z" fill="rgb(254,253,253)" transform="translate(0,0)"></path>
<path d="M 552.64 298.217 C 595.19 317.597 637.86 336.715 680.645 355.572 C 703.307 365.601 729.22 376.371 751.322 387.626 C 748.683 389.119 745.055 385.701 740.237 390.625 C 740.3 391.417 740.372 393.024 740.541 393.72 L 742.456 395.688 C 740.748 398.293 737.208 399.223 734.127 399.311 L 733.605 401.911 L 732.447 402.279 L 731.107 401.35 L 730.535 401.868 C 685.751 380.782 640.831 359.987 595.776 339.484 C 580.518 332.481 562.802 324.461 547.239 317.624 C 546.825 317.442 545.428 314.253 545.16 313.528 C 518.052 323.397 484.118 338.764 456.998 350.2 L 329.876 403.439 L 329.02 401.958 C 325.545 402.677 325.123 402.868 322.116 404.601 C 318.312 406.289 314.107 408.049 310.427 409.924 L 320.88 414.273 C 319.192 416.942 316.363 419.881 313.862 421.798 L 313.601 422.998 L 313.626 602.88 C 313.681 626.913 312.679 659.365 314.11 682.366 L 311.893 682.932 L 311.272 684.62 L 312.932 686.633 C 309.046 687.089 301.471 682.31 297.831 680.29 C 296.485 647.31 297.126 610.036 297.17 576.796 C 297.038 519.887 297.254 462.979 297.816 406.073 C 324.135 393.418 363.585 378.397 391.228 366.87 L 552.64 298.217 z" fill="rgb(20,42,57)" transform="translate(0,0)"></path>
<path d="M 734.127 399.311 C 730.538 396.251 707.432 386.197 701.163 383.271 C 670.314 368.785 639.371 354.499 608.337 340.413 C 590.701 332.449 572.587 324.588 555.145 316.185 C 552.432 314.879 552.131 314.603 551.203 312.33 L 552.295 310.819 C 555.777 309.819 609.012 334.898 617.098 338.537 C 658.365 356.663 699.514 375.058 740.541 393.72 L 742.456 395.688 C 740.748 398.293 737.208 399.223 734.127 399.311 z" fill="rgb(254,253,253)" transform="translate(0,0)"></path>
<path d="M 752.15 403.552 C 752.072 412.932 751.406 443.565 753.124 450.769 C 730.365 458.861 701.034 472.566 678.255 482.182 L 530.901 543.724 L 530.979 498.847 C 538.174 495.477 545.758 492.397 553.066 489.238 C 619.428 460.553 686.199 433.188 752.15 403.552 z" fill="rgb(254,253,253)" transform="translate(0,0)"></path>
<path d="M 751.943 455.266 C 752.972 460.177 752.377 476.411 752.397 482.728 L 752.312 501.993 C 679.739 528.864 603.198 567.065 530.822 593.151 L 530.932 548.238 C 604.82 517.767 678.492 486.776 751.943 455.266 z" fill="rgb(254,253,253)" transform="translate(0,0)"></path>
<path d="M 752.704 563.371 C 751.799 569.943 751.1 602.88 752.606 608.398 L 531.111 701.154 L 531.131 655.843 C 541.1 652.772 554.187 646.767 564.026 642.607 L 618.055 619.776 C 661.48 601.53 710.34 582.593 752.704 563.371 z" fill="rgb(254,253,253)" transform="translate(0,0)"></path>
<path d="M 313.601 422.998 C 316.291 423.826 318.849 424.311 320.665 426.462 C 321.998 446.98 321.639 676.705 320.275 678.453 C 318.973 680.121 315.979 681.359 314.11 682.366 C 312.679 659.365 313.681 626.913 313.626 602.88 L 313.601 422.998 z" fill="rgb(254,253,253)" transform="translate(0,0)"></path>
<path d="M 310.427 409.924 C 314.107 408.049 318.312 406.289 322.116 404.601 C 384.807 434.314 455.557 467.447 519.178 494.869 C 516.67 496.685 513.945 498.749 511.396 500.449 C 447.573 472.418 384.557 442.195 320.88 414.273 L 310.427 409.924 z" fill="rgb(254,253,253)" transform="translate(0,0)"></path>
<path d="M 509 763.993 C 508.607 763.556 508.126 763.021 507.558 762.39 C 506.877 747.036 507.404 727.178 507.352 712.216 L 506.392 567.506 C 506.423 545.887 508.666 528.158 504.52 506.758 L 505.535 505.206 L 506.977 505.341 C 510.096 511.56 505.724 527.21 509.349 530.146 C 511.267 525.208 513.116 506.612 508.052 503.218 L 509.497 502.794 C 512.777 505.465 511.956 510.546 511.95 515.106 C 511.852 587.964 511.757 660.855 511.972 733.711 C 511.987 738.855 512.636 760.038 511.196 763.18 L 510.074 764.085 L 509 763.993 z" fill="rgb(20,42,57)" transform="translate(0,0)"></path>
<path d="M 509 763.993 L 510.074 764.085 C 511.904 765.761 514.603 768.381 516.45 769.869 L 518.424 770.009 L 516.676 772.197 L 517.126 773.456 C 514.211 774.1 506.857 770.263 503.478 768.798 C 507.614 766.577 507.012 767.655 509 763.993 z" fill="rgb(4,16,28)" transform="translate(0,0)"></path>
<path d="M 749.551 506.901 L 751.17 506.998 C 753.099 510.656 752.44 552.147 752.417 559.671 C 727.597 568.303 700.056 581.651 675.394 591.59 C 627.856 610.746 580.841 631.548 533.315 650.723 L 532.01 650.673 C 530.051 647.379 530.795 604.785 530.8 597.714 C 559.263 587.256 594.41 571.965 622.509 560.173 L 749.551 506.901 z" fill="rgb(254,253,253)" transform="translate(0,0)"></path>
<path d="M 409.255 466.884 C 413.191 466.88 454.827 487.065 461.07 489.99 C 428.41 504.193 396.338 518.969 363.513 533.013 L 325.274 549.617 L 325.211 502.502 L 409.255 466.884 z" fill="rgb(254,253,253)" transform="translate(0,0)"></path>
<path d="M 383.218 644.983 L 384.617 643.385 C 389.683 644.65 417.321 657.801 423.058 660.557 C 427.88 662.659 433.216 665.585 437.941 668.03 L 438.361 738.6 C 419.83 730.255 401.374 721.743 382.997 713.065 C 382.954 690.371 383.028 667.676 383.218 644.983 z" fill="rgb(244,200,99)" transform="translate(0,0)"></path>
<path d="M 396.097 661.667 L 397.13 657.443 C 402.467 655.236 413.778 663.168 419.796 665.495 C 420.154 669.423 419.82 679.448 419.796 683.825 C 412.109 680.286 404.378 676.841 396.606 673.492 C 396.619 669.527 396.338 665.621 396.097 661.667 z" fill="rgb(4,16,28)" transform="translate(0,0)"></path>
<path d="M 399.844 659.71 C 411.755 665.088 417.568 663.265 416.827 677.819 C 404.297 673.83 399.044 673.709 399.844 659.71 z" fill="rgb(254,253,253)" transform="translate(0,0)"></path>
<path d="M 383.218 644.983 L 384.617 643.385 C 389.683 644.65 417.321 657.801 423.058 660.557 L 419.796 665.495 C 413.778 663.168 402.467 655.236 397.13 657.443 L 396.097 661.667 L 395.205 668.075 C 390.964 662.054 403.319 651.051 383.218 644.983 z" fill="rgb(248,222,156)" transform="translate(0,0)"></path>
<path d="M 441.904 669.523 C 446.543 671.497 451.204 673.948 455.722 676.223 L 479.729 687.035 C 485.326 689.492 491.156 691.683 496.857 693.907 L 496.717 766.738 C 478.433 758.424 460.321 749.737 442.392 740.681 C 442.246 722.552 442.224 704.422 442.327 686.292 C 442.287 680.756 442.059 675.07 441.904 669.523 z" fill="rgb(244,200,99)" transform="translate(0,0)"></path>
<path d="M 455.722 676.223 L 479.729 687.035 C 479.032 687.986 477.291 690.218 476.842 691.172 C 478.76 694.535 478.038 708.198 477.98 712.938 C 471.149 709.333 455.514 704.346 454.232 697.402 C 455.559 692.335 454.051 687.879 455.746 682.586 C 455.607 681.357 455.719 677.659 455.722 676.223 z" fill="rgb(4,16,28)" transform="translate(0,0)"></path>
<path d="M 455.722 676.223 L 479.729 687.035 C 479.032 687.986 477.291 690.218 476.842 691.172 C 469.566 688.497 462.874 685.64 455.746 682.586 C 455.607 681.357 455.719 677.659 455.722 676.223 z" fill="rgb(254,253,253)" transform="translate(0,0)"></path>
<path d="M 458.633 687.974 C 471.731 693.233 475.388 692.157 474.87 706.677 C 461.817 701.403 458.074 702.485 458.633 687.974 z" fill="rgb(254,253,253)" transform="translate(0,0)"></path>
<path d="M 441.904 669.523 C 446.543 671.497 451.204 673.948 455.722 676.223 C 455.719 677.659 455.607 681.357 455.746 682.586 C 454.051 687.879 455.559 692.335 454.232 697.402 L 453.57 698.342 C 453.785 692.937 453.288 683.171 445.051 685.876 C 443.47 688.581 443.734 693.688 443.661 697.027 C 442.918 692.495 444.49 689.632 442.327 686.292 C 442.287 680.756 442.059 675.07 441.904 669.523 z" fill="rgb(248,222,156)" transform="translate(0,0)"></path>
<path d="M 325.534 616.494 C 331.67 619.111 338.232 622.32 344.328 625.157 C 354.265 629.569 364.722 634.019 374.416 638.858 C 379.431 641.677 379.255 641.469 379.354 647.465 C 377.973 662.024 378.971 695.138 378.981 710.883 C 363.343 703.647 340.236 693.761 325.757 685.51 L 325.534 616.494 z" fill="rgb(244,200,99)" transform="translate(0,0)"></path>
<path d="M 344.328 625.157 C 354.265 629.569 364.722 634.019 374.416 638.858 L 369.239 639.749 L 368.805 641.143 L 369.813 642.941 C 368.072 642.367 366.263 641.557 364.563 640.844 L 362.354 638.906 C 359.824 638.401 346.989 633.272 343.087 631.93 L 341.382 629.808 L 340.104 630.024 C 338.716 635.37 339.651 637.938 338.613 642.231 C 336.794 637.22 335.786 632.137 339.998 628.56 C 342.216 628.508 343.351 628.712 345.213 627.654 L 344.328 625.157 z" fill="rgb(248,222,156)" transform="translate(0,0)"></path>
<path d="M 343.087 631.93 C 346.989 633.272 359.824 638.401 362.354 638.906 C 362.167 641.826 362.193 646.249 360.914 648.634 C 353.828 647.494 349.977 646.466 344.39 641.321 C 342.11 639.221 342.979 635.294 343.087 631.93 z" fill="rgb(254,253,253)" transform="translate(0,0)"></path>
<path d="M 338.613 642.231 C 339.651 637.938 338.716 635.37 340.104 630.024 L 341.382 629.808 L 343.087 631.93 C 342.979 635.294 342.11 639.221 344.39 641.321 C 349.977 646.466 353.828 647.494 360.914 648.634 C 362.193 646.249 362.167 641.826 362.354 638.906 L 364.563 640.844 L 364.961 655.141 C 359.384 652.894 341.285 646.571 338.613 642.231 z" fill="rgb(4,16,28)" transform="translate(0,0)"></path>
<path d="M 374.416 638.858 C 379.431 641.677 379.255 641.469 379.354 647.465 C 376.857 646.609 372.358 644.208 369.813 642.941 L 368.805 641.143 L 369.239 639.749 L 374.416 638.858 z" fill="rgb(248,222,156)" transform="translate(0,0)"></path>
<path d="M 411.946 571.753 C 419.491 575.455 462.956 595.003 464.936 597.935 C 464.22 602.64 464.438 616.259 464.44 621.453 L 464.505 665.495 C 446.933 657.153 429.607 650.013 411.834 641.291 C 411.682 624.703 411.727 608.113 411.971 591.526 L 411.946 571.753 z" fill="rgb(244,200,99)" transform="translate(0,0)"></path>
<path d="M 424.619 589.012 L 425.978 586.757 C 429.895 586.568 445.931 594.214 448.057 597.077 C 447.73 602.592 447.922 610.18 447.905 615.848 L 425.203 605.755 C 425.29 599.376 425.34 595.388 424.619 589.012 z" fill="rgb(4,16,28)" transform="translate(0,0)"></path>
<path d="M 428.759 590.488 C 433.666 593.104 439.802 595.596 444.967 597.853 L 444.968 609.852 C 439.886 607.854 433.908 605.056 428.817 602.84 L 428.759 590.488 z" fill="rgb(254,253,253)" transform="translate(0,0)"></path>
<path d="M 411.946 571.753 C 419.491 575.455 462.956 595.003 464.936 597.935 C 461.455 599.838 452.244 597.757 448.057 597.077 C 445.931 594.214 429.895 586.568 425.978 586.757 L 424.619 589.012 C 422.706 588.122 422.242 584.959 415.962 584.714 C 412.611 587.387 413.552 586.857 411.971 591.526 L 411.946 571.753 z" fill="rgb(248,222,156)" transform="translate(0,0)"></path>
<path d="M 355.986 545.321 C 373.227 553.258 390.677 560.683 407.799 568.859 L 407.742 638.994 C 390.454 630.955 373.215 622.808 356.028 614.556 L 355.986 545.321 z" fill="rgb(244,200,99)" transform="translate(0,0)"></path>
<path d="M 371.323 558.34 C 376.665 559.981 385.423 564.342 390.805 566.849 C 390.978 572.284 390.94 578.067 390.994 583.534 L 371.233 574.425 C 371.12 569.007 371.225 563.752 371.323 558.34 z" fill="rgb(4,16,28)" transform="translate(0,0)"></path>
<path d="M 374.149 561.727 C 384.665 566.535 388.072 565.687 388.329 577.83 C 377.657 572.757 373.601 575.495 374.149 561.727 z" fill="rgb(254,253,253)" transform="translate(0,0)"></path>
<path d="M 355.401 442.848 C 360.68 442.735 397.716 460.707 405.18 464.166 C 391.306 470.506 375.908 476.644 361.76 482.587 L 325.406 497.971 C 325.053 484.234 325.224 469.818 325.189 456.026 C 333.506 452.948 346.805 446.617 355.401 442.848 z" fill="rgb(254,253,253)" transform="translate(0,0)"></path>
<path d="M 501.761 585.995 C 503.421 591.168 502.334 637.458 502.284 646.577 C 490.944 651.13 479.687 655.886 468.517 660.843 L 468.48 598.849 C 479.923 594.836 490.53 590.545 501.761 585.995 z" fill="rgb(244,200,99)" transform="translate(0,0)"></path>
<path d="M 348.94 543.992 L 350.91 544.118 C 352.894 547.441 351.959 594.177 351.926 601.489 C 346.291 603.265 333.628 609.444 327.726 612.14 L 326.69 611.801 C 324.57 608.16 325.324 561.459 325.33 553.729 C 332.743 550.424 341.353 547.116 348.94 543.992 z" fill="rgb(254,253,253)" transform="translate(0,0)"></path>
<path d="M 383.819 528.999 C 396.925 533.931 424.472 547.215 437.254 553.856 C 428.405 557.825 419.23 561.651 410.303 565.494 C 392.106 556.921 373.778 548.629 355.325 540.622 C 364.488 537.302 374.727 532.771 383.819 528.999 z" fill="rgb(244,200,99)" transform="translate(0,0)"></path>
<path d="M 436.979 558.997 C 451.227 560.457 485.784 584.169 500.579 581.221 C 498.01 583.208 482.286 589.014 478.256 590.589 L 468.4 594.189 C 460.847 589.294 425.415 573.613 414.589 568.381 C 421.368 565.955 430.195 561.89 436.979 558.997 z" fill="rgb(244,200,99)" transform="translate(0,0)"></path>
<path d="M 424.16 510.916 C 427.567 511.081 475.131 531.958 480.864 534.401 C 474.599 536.878 468.445 539.639 462.275 542.345 C 457.879 543.218 413.283 522.355 405.839 519.059 L 424.16 510.916 z" fill="rgb(244,200,99)" transform="translate(0,0)"></path>
<path d="M 442.183 502.919 C 444.951 502.099 494.797 522.024 501.038 524.871 L 487.244 530.647 C 483.276 532.302 437.443 511.931 429.456 508.742 L 442.183 502.919 z" fill="rgb(244,200,99)" transform="translate(0,0)"></path>
<path d="M 454.912 550.946 C 459.67 550.484 492.38 564.306 497.85 567.848 C 500.711 569.701 501.233 570.449 501.783 573.376 L 500.298 575.332 C 497.076 576.689 496.182 577.274 492.681 576.92 C 476.517 570.737 458.013 563.814 442.564 556.066 L 454.912 550.946 z" fill="rgb(244,200,99)" transform="translate(0,0)"></path>
<path d="M 399.414 521.862 C 404.688 521.799 446.782 541.446 455.119 545.177 L 445.005 550.078 L 442.578 550.624 C 436.085 548.585 394.099 529.976 391.402 526.548 C 392.643 524.473 396.975 522.961 399.414 521.862 z" fill="rgb(244,200,99)" transform="translate(0,0)"></path>
<path d="M 465.106 492.913 C 468.988 493.141 496.763 506.062 502.086 508.473 C 502.204 511.691 502.73 516.233 501.306 518.956 C 497.832 519.903 496.892 518.639 492.725 516.992 C 478.042 511.47 463.392 505.864 448.773 500.174 L 465.106 492.913 z" fill="rgb(244,200,99)" transform="translate(0,0)"></path>
<path d="M 501.82 651.087 C 501.958 651.259 502.095 651.431 502.233 651.602 C 502.664 659.783 505.784 673.402 498.523 678.069 C 493.427 678.636 482.432 672.927 477.251 670.657 L 466.362 666.461 C 478.251 661.481 490.171 656.607 501.82 651.087 z" fill="rgb(244,200,99)" transform="translate(0,0)"></path>
<path d="M 476.358 540.911 C 484.351 543.411 494.252 547.863 502.15 551.166 L 502.163 564.357 L 493.658 561.021 C 482.986 556.871 472.114 552.052 461.554 547.543 L 476.358 540.911 z" fill="rgb(244,200,99)" transform="translate(0,0)"></path>
<path d="M 350.953 606.222 C 352.609 608.373 351.698 612.801 351.393 615.52 C 354.037 619.52 382.597 631.595 388.972 634.465 C 387.695 635.038 386.408 635.589 385.111 636.117 C 380.64 637.899 380.266 637.387 376.612 635.793 C 362.482 628.597 347.267 621.938 332.832 614.811 C 336.476 612.609 346.647 608.214 350.953 606.222 z" fill="rgb(254,253,253)" transform="translate(0,0)"></path>
<path d="M 325.226 428.161 C 329.862 429.599 345.932 437.442 351.237 439.924 L 341.641 443.999 C 336.342 446.27 330.604 449.062 325.319 451.496 L 325.226 428.161 z" fill="rgb(254,253,253)" transform="translate(0,0)"></path>
<path d="M 448.896 664.607 C 455.227 664.511 491.812 679.913 496.116 684.296 C 496.857 687.741 496.946 686.305 495.607 689.742 C 488.512 686.615 451.058 670.75 447.655 666.857 L 448.896 664.607 z" fill="rgb(254,253,253)" transform="translate(0,0)"></path>
<path d="M 394.691 637.05 C 405.811 642.906 439.047 656.622 446.484 662.403 C 445.176 663.921 444.527 664.154 442.766 665.178 C 435.987 662.574 394.627 643.986 389.423 640.559 C 390.518 638.278 391.832 638.352 394.691 637.05 z" fill="rgb(254,253,253)" transform="translate(0,0)"></path>
<path d="M 501.834 691.498 C 502.369 691.906 503.128 692.947 503.59 693.519 C 504.165 700.802 504.801 760.342 502.931 766.35 L 501.477 764.889 C 500.625 758.791 500.261 696.604 501.834 691.498 z" fill="rgb(244,200,99)" transform="translate(0,0)"></path>
<path d="M 500.953 530.048 L 501.417 530.452 C 502.85 533.668 502.274 542.629 502.229 546.651 L 488.323 540.872 L 481.397 538.028 C 487.948 535.447 494.467 532.787 500.953 530.048 z" fill="rgb(244,200,99)" transform="translate(0,0)"></path>
<path d="M 401.998 455.757 C 408.346 456.892 409.763 460.528 414.462 464.962 C 409.447 462.878 402.48 461.438 401.998 455.757 z" fill="rgb(20,42,57)" transform="translate(0,0)"></path>
<path d="M 945.951 171.957 C 1018.38 189.309 1090.7 207.097 1162.92 225.319 C 1178.01 229.275 1197.72 232.64 1212.21 237.571 C 1217.09 239.23 1234.5 252.045 1239.25 255.424 C 1250.19 263.2 1261.2 270.862 1272.3 278.409 C 1328.68 316.724 1385.4 354.527 1442.45 391.815 L 1489.25 422.699 C 1495.69 426.941 1502.89 431.816 1509.56 435.755 C 1511.77 437.056 1513.91 435.507 1516.59 434.441 C 1517.81 472.065 1516.79 514.245 1516.79 552.232 L 1516.82 828.811 C 1509.62 825.434 1500.94 821.63 1494 817.999 C 1493.96 779.646 1494.87 461.361 1492.83 457.066 C 1490.43 455.203 1488.29 455.419 1485.17 455.203 C 1481.24 451.617 1433.98 432.036 1425.72 428.421 C 1272.4 361.334 1120.52 289.723 965.15 227.474 C 964.302 240.442 964.697 256.677 964.679 269.832 L 964.731 343.985 L 964.747 558.186 C 953.352 561.999 958.211 567.479 946.643 562.361 L 945.951 171.957 z" fill="rgb(254,253,253)" transform="translate(0,0)"></path>
<path d="M 530.47 705.685 C 535.904 704.411 572.724 687.909 580.85 684.598 C 638.312 661.185 695.063 636.085 752.724 613.044 C 751.304 623.385 752.096 647.514 752.281 658.679 C 679.671 687.171 601.945 719.459 530.938 751.69 C 530.985 743.244 531.568 712.088 530.47 705.685 z" fill="rgb(254,253,253)" transform="translate(0,0)"></path>
<path d="M 936.467 148.917 C 962.067 156.499 990.878 162.879 1016.93 169.253 L 1151.93 202.849 C 1173.3 208.335 1197.61 213.672 1218.56 219.944 C 1224.75 221.797 1246.73 237.602 1253.27 242.092 L 1311.73 282.099 C 1378.7 327.238 1446.14 371.676 1514.04 415.406 C 1514.04 416.052 1514.75 432.547 1515.08 431.061 C 1514.47 431.324 1513.92 431.563 1513.25 431.652 C 1508.44 432.296 1402.07 360.413 1390.09 352.443 C 1345.1 322.848 1300.44 292.737 1256.14 262.116 C 1246.85 255.729 1224.05 241.941 1217.58 232.796 C 1212.83 231.778 1199.23 230.131 1195.3 229.157 C 1111.91 208.458 1028.62 187.293 945.004 167.554 C 935.043 165.203 928.204 158.103 936.467 148.917 z" fill="rgb(254,253,253)" transform="translate(0,0)"></path>
<path d="M 762.309 460.263 C 785.598 470.845 841.247 494.799 859.927 507.273 C 833.513 517.98 803.511 529.76 778.659 543.135 C 773.813 540.486 768.176 538.162 763.084 535.92 C 763.003 518.812 764.191 475.026 762.309 460.263 z" fill="rgb(254,253,253)" transform="translate(0,0)"></path>
<path d="M 1435.94 741.183 C 1449.38 747.36 1469.97 755.493 1481.92 761.808 C 1481.91 770.696 1481.24 796.898 1482.11 804.432 C 1482.04 807.353 1482.31 811.711 1480.86 813.995 C 1473.31 812.275 1443.91 798.036 1436.03 794.351 L 1435.82 781.576 C 1435.98 768.112 1436.02 754.647 1435.94 741.183 z" fill="rgb(254,253,253)" transform="translate(0,0)"></path>
<path d="M 1016.44 276.868 C 1019.5 278.111 1020.55 278.61 1023.38 280.36 C 1024.31 283.813 1024.03 289.883 1024.03 293.593 C 1024.02 347.897 1023.47 402.288 1024.17 456.588 C 1023.9 470.523 1023.91 484.463 1024.21 498.397 C 1023.46 514.98 1024.52 532.121 1024.14 548.723 C 1023.94 557.297 1027.09 576.191 1018.99 581.343 L 1017.83 580.777 C 1014.85 573.576 1016.33 306.785 1016.44 276.868 z" fill="rgb(127,177,176)" transform="translate(0,0)"></path>
<path d="M 775.796 673.928 L 780.07 673.996 C 779.638 680.501 778.538 686.646 781.212 692.509 C 786.503 696.229 791.637 690.275 794.936 698.2 C 793.241 705.07 778.724 710.111 772.347 712.58 C 759.083 717.717 745.514 723.882 732.133 728.537 C 732.013 724.701 732.083 719.266 731.063 715.71 C 730.433 707.818 724.536 702.495 718.86 697.76 C 728.221 694.017 770.077 677.903 775.796 673.928 z" fill="rgb(254,253,253)" transform="translate(0,0)"></path>
<path d="M 763.114 540.189 C 767.617 542.272 772.589 544.42 776.828 546.927 C 779.388 582.417 782.175 638.265 780.07 673.996 L 775.796 673.928 L 775.638 657.866 C 770.32 659.45 768.058 660.398 763.047 662.813 L 763.114 540.189 z" fill="rgb(127,177,176)" transform="translate(0,0)"></path>
<path d="M 1485.84 816.034 C 1485.14 804.076 1485.77 784.197 1485.78 771.743 L 1485.86 684.749 C 1485.88 660.757 1484.9 464.03 1487.7 460.565 C 1491.03 472.723 1488.71 508.741 1489.84 524.508 C 1488.74 553.89 1491.74 810.478 1489 814.807 L 1485.84 816.034 z" fill="rgb(127,177,176)" transform="translate(0,0)"></path>
<path d="M 520.621 500.16 C 521.133 526.207 522.433 755.867 520.159 760.786 L 518.553 761.956 L 516.802 761.386 C 511.318 750.366 519.106 566.904 515.727 541.71 C 514.74 534.354 516.764 514.913 515.179 505.326 L 520.621 500.16 z" fill="rgb(254,253,253)" transform="translate(0,0)"></path>
<path d="M 1024.17 456.588 C 1025.85 451.396 1025.31 427.571 1025.3 420.574 L 1025.04 329.601 C 1024.97 318.42 1024.07 291.241 1025.25 281.27 L 1027.55 281.532 C 1029.01 319.336 1027.56 367.774 1027.71 406.865 L 1027.77 502.993 C 1027.81 512.058 1028.89 576.614 1026.75 581.767 C 1021.95 575.1 1028.27 512.561 1024.21 498.397 C 1023.91 484.463 1023.9 470.523 1024.17 456.588 z" fill="rgb(8,23,35)" transform="translate(0,0)"></path>
<path d="M 763.047 662.813 C 768.058 660.398 770.32 659.45 775.638 657.866 L 775.796 673.928 C 770.077 677.903 728.221 694.017 718.86 697.76 C 724.536 702.495 730.433 707.818 731.063 715.71 C 731.096 719.205 731.263 728.977 729.025 731.369 C 726.969 715.963 729.374 706.318 712.965 699.446 C 688.649 709.542 664.049 720.897 639.262 730.032 C 635.666 731.358 634.787 730.933 631.464 731.434 C 628.697 731.851 627.174 734.799 623.928 733.887 L 623.85 732.976 C 671.076 711.483 721.096 694.241 768.363 672.7 C 770.961 671.516 771.088 670.387 772.16 667.924 C 771.38 665.014 772.072 665.994 769.53 664.275 L 766.106 664.946 L 763.047 662.813 z" fill="rgb(4,16,28)" transform="translate(0,0)"></path>
<path d="M 969.078 567.21 L 969.14 359.593 C 969.129 347.798 968.324 238.595 970.503 234.982 C 971.932 256.581 971.049 287.293 971.04 309.669 L 970.976 444.591 L 970.992 534.9 C 970.996 544.623 971.617 571.294 970.567 579.809 C 969.916 575.39 970.782 571.595 969.078 567.21 z" fill="rgb(144,154,155)" transform="translate(0,0)"></path>
<path d="M 589.503 795.684 L 592.229 796.577 C 586.387 818.678 571.829 833.675 549.075 838.311 C 538.028 835.55 519.529 826.269 508.876 820.608 L 508.023 820.229 C 518.812 814.644 539.452 837.298 553.113 833.725 C 572.592 828.631 583.629 813.282 589.503 795.684 z" fill="rgb(8,23,35)" transform="translate(0,0)"></path>
<path d="M 598.818 789.721 C 600.473 801.528 610.81 804.171 621.46 804.112 C 630.905 804.059 646.411 789.233 650.759 788.403 C 646.843 793.966 644.666 795.444 639.522 799.712 C 629.262 808.228 604.77 812.925 598.019 797.243 C 598.233 796.516 597.985 796.331 597.711 795.347 L 594.25 794.047 L 594.53 792.504 L 598.818 789.721 z" fill="rgb(8,23,35)" transform="translate(0,0)"></path>
<path d="M 518.424 770.009 C 520.042 768.306 522.887 767.232 525.074 765.981 C 531.093 762.537 533.845 757.708 541.202 759.421 C 531.379 763.847 534.05 770.007 517.126 773.456 L 516.676 772.197 L 518.424 770.009 z" fill="rgb(4,16,28)" transform="translate(0,0)"></path>
<path d="M 589.503 795.684 C 591.599 791.715 591.36 785.33 595.438 783.307 C 597.768 784.933 597.969 786.897 598.818 789.721 L 594.53 792.504 L 594.25 794.047 L 597.711 795.347 C 597.985 796.331 598.233 796.516 598.019 797.243 C 596.142 797.079 594.115 796.798 592.229 796.577 L 589.503 795.684 z" fill="rgb(4,16,28)" transform="translate(0,0)"></path>
<path d="M 861.189 510.91 L 863.909 511.105 C 866.22 512.938 868.987 515.844 870.749 518.219 C 894.885 550.757 915.991 587.543 911.757 628.908 C 902.443 633.705 893.013 638.273 883.475 642.606 C 862.085 615.3 831.185 636.378 814.175 656.647 C 805.855 666.627 800.617 678.797 794.399 690.11 C 793.643 691.486 786.199 690.322 784.562 689.302 C 783.668 681.952 784.718 649.881 784.695 639.987 C 784.918 608.836 783.615 577.693 780.79 546.669 C 797.693 536.005 841.473 519.309 861.189 510.91 z" fill="rgb(127,177,176)" transform="translate(0,0)"></path>
<path d="M 861.615 524.954 L 864.433 525.573 C 874.975 537.07 897.785 578.226 901.925 593.929 C 903.018 598.074 876.084 610.838 868.135 608.621 C 862.272 604.658 861.617 594.162 859.643 586.217 C 848.022 588.174 825.299 594.77 813.349 597.856 L 803.168 600.051 C 803.99 606.766 803.097 613.925 805.038 620.373 C 807.286 620.73 808.146 620.984 810.322 621.676 L 811.381 624.084 C 811.042 627.262 811.138 628.439 808.984 630.918 C 805.476 632.405 806.902 632.343 803.552 631.468 C 799.571 627.987 799.694 603.5 799.175 597.158 C 797.849 581.955 795.401 566.87 791.851 552.027 C 813.361 542.579 839.354 533.491 861.615 524.954 z" fill="rgb(4,16,28)" transform="translate(0,0)"></path>
<path d="M 851.134 533.071 L 852.381 534.054 C 856.401 545.092 858.44 569.848 859.165 582.059 C 841.057 586.914 822.865 591.448 804.598 595.659 L 803.837 595.415 C 802.578 592.316 798.523 562.306 796.62 554.153 C 814.714 546.926 832.886 539.898 851.134 533.071 z" fill="rgb(254,253,253)" transform="translate(0,0)"></path>
<path d="M 858.312 529.455 C 860.747 529.691 861.528 529.352 863.593 531.29 C 871.701 538.899 899.58 588.528 889.591 598.23 L 884.899 600.33 C 878.803 599.61 868.931 588.491 863.235 583.42 C 863.146 567.08 859.414 548.903 857.036 532.491 C 857.54 531.291 857.965 530.279 858.312 529.455 z" fill="rgb(254,253,253)" transform="translate(0,0)"></path>
<path d="M 865.062 590.598 C 868.993 593.133 875.549 599.345 877.378 603.771 C 873.119 605.149 872.226 605.294 868.747 603.685 C 866.21 600.636 865.755 594.723 865.062 590.598 z" fill="rgb(254,253,253)" transform="translate(0,0)"></path>
<path d="M 899.728 616.042 C 902.593 615.369 904.897 616.773 906.108 619.257 C 906.139 628.048 900.404 630.799 893.246 633.338 C 890.095 632.758 888.365 631.235 886.858 628.466 C 886.244 620.46 893.77 618.22 899.728 616.042 z" fill="rgb(4,16,28)" transform="translate(0,0)"></path>
<path d="M 899.547 619.932 C 900.281 620.095 901.425 620.949 902.131 621.403 L 901.875 623.562 C 899.085 626.828 897.805 627.102 893.729 628.609 L 891.393 627.318 L 891.303 625.297 C 893.356 622.515 896.395 621.443 899.547 619.932 z" fill="rgb(254,253,253)" transform="translate(0,0)"></path>
<path d="M 974.93 236.033 C 1092.98 284.877 1204.77 335.005 1321.3 386.853 L 1429.93 434.679 C 1444.85 441.289 1468.78 451.029 1482.68 458.496 L 1482.13 475.322 C 1475.88 475.674 1166.23 336.47 1132.25 321.647 C 1079.98 298.898 1027.49 276.64 974.805 254.878 L 974.93 236.033 z" fill="rgb(254,253,253)" transform="translate(0,0)"></path>
<path d="M 347.509 717.496 C 385.443 734.73 423.161 752.436 460.653 770.61 C 460.505 779.621 460.686 788.948 460.741 797.984 C 446.326 790.266 428.502 782.497 413.531 775.446 C 391.373 764.942 369.293 754.275 347.291 743.447 C 347.583 734.8 347.656 726.147 347.509 717.496 z" fill="rgb(254,253,253)" transform="translate(0,0)"></path>
<path d="M 1436.74 601.147 C 1451.03 608.073 1467.45 614.992 1482.01 621.505 C 1482.18 639.226 1482.13 656.948 1481.88 674.668 C 1466.68 667.912 1451.36 661.418 1435.93 655.189 C 1435.85 645.915 1435.09 607.487 1436.74 601.147 z" fill="rgb(254,253,253)" transform="translate(0,0)"></path>
<path d="M 1435.41 460.261 C 1448.3 464.833 1467.06 474.828 1481.99 480.536 L 1482.1 533.533 C 1466.55 526.932 1451.05 520.233 1435.58 513.434 C 1435.4 495.71 1435.35 477.985 1435.41 460.261 z" fill="rgb(254,253,253)" transform="translate(0,0)"></path>
<path d="M 1435.82 531.265 C 1451.14 538.366 1466.54 545.305 1482 552.083 C 1482.05 568.965 1482.01 585.847 1481.88 602.729 C 1467.09 596.59 1449.85 589.279 1435.75 582.004 L 1435.82 531.265 z" fill="rgb(254,253,253)" transform="translate(0,0)"></path>
<path d="M 1435.95 672.658 C 1449.72 679.528 1467.77 686.866 1482.04 693.112 C 1482.01 706.16 1481.8 719.758 1482.27 732.74 L 1482.05 742.861 C 1468.16 737.795 1450.1 729.071 1435.92 722.998 L 1435.95 672.658 z" fill="rgb(254,253,253)" transform="translate(0,0)"></path>
<path d="M 974.907 259.412 C 987.581 264.478 1000.15 269.799 1012.61 275.371 C 1012.77 293.87 1012.74 312.37 1012.53 330.868 C 1008.33 330.589 981.487 318.687 974.947 316.031 L 974.907 259.412 z" fill="rgb(254,253,253)" transform="translate(0,0)"></path>
<path d="M 974.833 332.128 C 987.258 337.056 1000.34 342.893 1012.7 348.159 C 1012.76 365.073 1012.66 381.987 1012.42 398.899 C 1007.93 399.24 980.384 385.498 974.955 382.866 L 974.833 332.128 z" fill="rgb(254,253,253)" transform="translate(0,0)"></path>
<path d="M 974.794 463.194 C 987.528 468.545 1000.14 474.177 1012.63 480.086 C 1012.76 496.27 1012.74 512.454 1012.57 528.638 C 1009.85 528.073 978.736 514.139 974.642 512.342 L 974.794 463.194 z" fill="rgb(254,253,253)" transform="translate(0,0)"></path>
<path d="M 974.645 528.368 C 986.969 533.871 1000.72 539.714 1012.57 545.882 C 1012.55 561.979 1012.43 578.077 1012.23 594.173 C 1001.46 590.134 984.653 582.223 974.41 577.009 L 974.645 528.368 z" fill="rgb(254,253,253)" transform="translate(0,0)"></path>
<path d="M 974.779 400.117 C 983.273 402.783 1003.48 412.088 1012.53 415.957 L 1012.55 462.882 C 1008.89 462.634 979.728 449.109 974.887 446.92 L 974.779 400.117 z" fill="rgb(254,253,253)" transform="translate(0,0)"></path>
<path d="M 567.553 770.115 C 596.214 772.648 577.808 814.22 553.634 823.677 C 523.854 818.55 544.843 777.148 567.553 770.115 z" fill="rgb(254,253,253)" transform="translate(0,0)"></path>
<path d="M 563.119 783.81 C 578.315 788.969 566.479 803.757 558.048 809.178 C 542.629 805.366 553.269 788.903 563.119 783.81 z" fill="rgb(4,16,28)" transform="translate(0,0)"></path>
<path d="M 562.788 788.743 C 563.894 789.59 564.25 790.743 564.772 791.984 C 564.481 797.318 561.459 800.594 557.882 804.258 C 556.525 803.017 556.056 802.272 555.541 800.512 C 555.928 795.055 559.058 792.348 562.788 788.743 z" fill="rgb(254,253,253)" transform="translate(0,0)"></path>
<path d="M 635.187 741.01 C 664.506 738.964 650.465 781.968 625.872 792.746 C 609.84 792.831 606.669 781.403 611.403 767.989 C 615.903 755.238 623.288 747.037 635.187 741.01 z" fill="rgb(254,253,253)" transform="translate(0,0)"></path>
<path d="M 632.17 754.6 C 646.973 755.336 638.621 772.674 629.812 778.56 C 626.836 778.135 626.409 777.757 623.889 776.068 C 619.076 767.482 625.669 760.117 632.17 754.6 z" fill="rgb(4,16,28)" transform="translate(0,0)"></path>
<path d="M 632.784 759.651 C 637.788 764.026 633.083 769.306 630.033 773.696 C 628.067 771.934 627.979 771.62 627.502 769.01 C 627.913 765.482 630.598 762.559 632.784 759.651 z" fill="rgb(254,253,253)" transform="translate(0,0)"></path>
<path d="M 702.286 714.04 C 732.225 711.623 719.483 752.471 694.66 763.865 C 691.627 764.065 689.015 764.199 686.099 763.144 C 683.068 762.046 680.594 759.792 679.217 756.876 C 672.29 742.075 687.94 720.119 702.286 714.04 z" fill="rgb(254,253,253)" transform="translate(0,0)"></path>
<path d="M 700.261 726.58 C 714.61 729.657 705.988 744.562 698.115 750.109 C 682.809 747.194 692.281 732.335 700.261 726.58 z" fill="rgb(4,16,28)" transform="translate(0,0)"></path>
<path d="M 700.095 732.63 C 706.932 733.895 700.087 742.253 697.927 744.764 C 695.491 742.858 696.225 743.9 695.349 740.622 C 696.026 736.985 697.707 735.465 700.095 732.63 z" fill="rgb(254,253,253)" transform="translate(0,0)"></path>
<path d="M 464.66 772.636 C 473.162 776.449 489.556 783.062 496.907 788.967 C 498.285 790.074 497.422 792.093 497.06 793.878 C 496.56 798.993 498.416 806.103 497.719 813.074 L 497.548 815.379 C 493.313 815.494 467.269 803.695 465.25 800.277 C 464.376 792.268 464.672 780.937 464.66 772.636 z" fill="rgb(244,200,99)" transform="translate(0,0)"></path>
<path d="M 464.66 772.636 C 473.162 776.449 489.556 783.062 496.907 788.967 C 498.285 790.074 497.422 792.093 497.06 793.878 C 494.108 791.303 472.069 781.377 467.387 779.212 L 467.683 789.482 C 467.415 793.227 467.586 797.48 465.25 800.277 C 464.376 792.268 464.672 780.937 464.66 772.636 z" fill="rgb(254,253,253)" transform="translate(0,0)"></path>
<path d="M 465.25 800.277 C 467.586 797.48 467.415 793.227 467.683 789.482 C 467.72 792.359 467.342 797.233 468.896 799.32 L 469.864 799.508 C 471.891 800.069 475.217 800.788 476.837 801.91 L 479.097 804.412 L 481.171 804.051 C 486.664 804.263 488.107 807.337 493.111 807.796 C 495.262 804.784 494.588 803.063 494.751 798.781 C 498.374 804.593 496.39 807.658 497.719 813.074 L 497.548 815.379 C 493.313 815.494 467.269 803.695 465.25 800.277 z" fill="rgb(225,173,76)" transform="translate(0,0)"></path>
<path d="M 467.387 779.212 C 472.069 781.377 494.108 791.303 497.06 793.878 C 496.56 798.993 498.416 806.103 497.719 813.074 C 496.39 807.658 498.374 804.593 494.751 798.781 L 494.589 797.134 C 492.343 794.017 474.711 785.368 470.373 783.066 C 470.486 788.44 470.857 794.27 469.864 799.508 L 468.896 799.32 C 467.342 797.233 467.72 792.359 467.683 789.482 L 467.387 779.212 z" fill="rgb(4,16,28)" transform="translate(0,0)"></path>
<path d="M 480.224 785.488 C 480.925 792.389 481.141 797.113 481.171 804.051 L 479.097 804.412 L 476.837 801.91 C 478.769 798.13 479.562 790.001 480.224 785.488 z" fill="rgb(4,16,28)" transform="translate(0,0)"></path>
<path d="M 312.991 701.187 C 321.723 706.308 336.853 711.603 344.246 717.012 C 343.888 725.231 343.735 733.457 343.787 741.684 C 337.367 738.6 320.352 730.73 315.132 726.994 C 311.342 724.167 312.898 706.527 312.991 701.187 z" fill="rgb(4,16,28)" transform="translate(0,0)"></path>
<path d="M 321.859 728.506 C 321.629 723.281 321.585 720.966 320.347 715.862 L 321.387 714.26 C 328.155 713.02 337.79 720.712 340.211 727.114 C 339.901 730.146 340.406 728.984 337.903 731.435 C 332.375 732.098 327.679 728.078 322.5 728.717 L 321.859 728.506 z" fill="rgb(244,200,99)" transform="translate(0,0)"></path>
<path d="M 312.991 701.187 C 321.723 706.308 336.853 711.603 344.246 717.012 L 341.443 719.929 C 333.875 715.677 325.09 712.138 317.061 708.689 L 316.171 708.964 C 316.18 713.19 316.816 724.185 315.132 726.994 C 311.342 724.167 312.898 706.527 312.991 701.187 z" fill="rgb(254,253,253)" transform="translate(0,0)"></path>
<path d="M 315.132 726.994 C 316.816 724.185 316.18 713.19 316.171 708.964 L 317.061 708.689 C 316.746 714.174 315.907 720.43 317.701 725.506 C 319.422 727.139 319.743 727.452 321.859 728.506 L 322.5 728.717 C 328.456 730.88 334.445 732.954 340.463 734.937 L 341.443 719.929 L 344.246 717.012 C 343.888 725.231 343.735 733.457 343.787 741.684 C 337.367 738.6 320.352 730.73 315.132 726.994 z" fill="rgb(244,200,99)" transform="translate(0,0)"></path>
<path d="M 912.748 633.979 C 920.011 635.985 912.187 655.536 910.437 660.68 C 903.378 664.631 895.309 667.809 887.806 670.956 L 887.436 670.816 C 886.058 669.028 885.76 652.576 884.636 646.465 C 893.685 642.243 903.574 638.051 912.748 633.979 z" fill="rgb(254,253,253)" transform="translate(0,0)"></path>
<path d="M 1435.67 586.928 C 1447.2 592.369 1471.14 601.082 1480.54 607.331 C 1482.35 609.66 1481.89 613.487 1481.91 616.696 C 1475.69 614.81 1442.59 599.903 1437.05 596.658 C 1435.16 594.065 1435.64 590.252 1435.67 586.928 z" fill="rgb(254,253,253)" transform="translate(0,0)"></path>
<path d="M 1435.9 727.364 C 1446.88 732.005 1471.62 741.998 1480.71 747.563 C 1482.29 750.263 1481.85 753.402 1481.83 756.678 C 1471.95 753.193 1445.35 742.035 1437.36 736.733 C 1435.42 733.42 1436.03 731.612 1435.9 727.364 z" fill="rgb(254,253,253)" transform="translate(0,0)"></path>
<path d="M 1435.59 518.055 C 1448.49 523.637 1469.39 531.508 1480.79 537.768 C 1482.57 540.423 1482.06 544.118 1481.99 547.417 C 1470.47 542.532 1446.75 533.131 1436.89 526.876 C 1435.04 524.275 1435.55 521.426 1435.59 518.055 z" fill="rgb(254,253,253)" transform="translate(0,0)"></path>
<path d="M 1435.88 659.56 C 1444.06 662.707 1474.01 675.169 1480.5 679.362 C 1482.41 682.601 1481.74 684.052 1481.85 688.371 C 1474.16 685.684 1443.56 672.47 1437.26 668.351 C 1435.36 665.859 1435.86 662.899 1435.88 659.56 z" fill="rgb(254,253,253)" transform="translate(0,0)"></path>
<path d="M 974.285 320.483 C 983.274 322.993 1002.13 330.68 1010.17 335.889 C 1013.02 337.729 1012.61 340.344 1012.96 343.585 C 1005.66 341.581 983.853 331.786 976.06 327.859 C 974.625 327.137 974.543 322.592 974.285 320.483 z" fill="rgb(254,253,253)" transform="translate(0,0)"></path>
<path d="M 974.011 451.309 C 984.534 455.214 1000.46 462.133 1010.77 467.424 C 1012.79 468.457 1012.45 472.771 1012.6 475.319 C 1001.16 470.499 987.355 465.318 976.737 458.974 C 974.014 457.347 974.368 454.445 974.011 451.309 z" fill="rgb(254,253,253)" transform="translate(0,0)"></path>
<path d="M 974.709 387.877 C 985.645 392.349 1000.3 397.654 1010.23 404.047 C 1012.61 405.579 1012.12 408.383 1012.33 411.421 C 1002.03 407.202 985.221 401.129 975.98 394.686 C 973.923 393.252 974.605 390.453 974.709 387.877 z" fill="rgb(254,253,253)" transform="translate(0,0)"></path>
<path d="M 974.406 517.02 C 985.605 521.488 1000.53 526.681 1010.54 533.465 C 1013 535.13 1012.55 538.292 1012.73 541.27 C 1001.8 535.466 986.374 531.031 976.106 523.586 C 973.901 521.987 974.45 519.809 974.406 517.02 z" fill="rgb(254,253,253)" transform="translate(0,0)"></path>
<path d="M 760.682 569.28 C 762.299 571.236 762.685 574.18 762.384 576.541 C 760.618 590.377 764.759 656.009 760.93 663.376 C 758.158 656.947 760.711 579.986 760.682 569.28 z" fill="rgb(4,16,28)" transform="translate(0,0)"></path>
<path d="M 501.441 788.284 C 502.94 788.38 504.308 788.753 505.752 789.132 C 508.589 794.168 508.06 813.885 505.985 819.033 C 504.644 818.837 503.839 818.53 502.556 818.138 C 499.653 813.838 501.197 794.443 501.441 788.284 z" fill="rgb(254,253,253)" transform="translate(0,0)"></path>
<path d="M 1482.27 732.74 C 1485.44 727.48 1481.74 700.012 1483.34 692.874 C 1483.66 691.459 1483.76 690.252 1483.85 688.814 L 1484.86 688.771 C 1484.83 692.967 1484.94 745.658 1484.15 746.85 C 1483.39 744.83 1483.48 743.962 1482.05 742.861 L 1482.27 732.74 z" fill="rgb(4,16,28)" transform="translate(0,0)"></path>
<path d="M 734.651 127.832 C 739.626 115.993 743.866 103.445 747.346 91.1411 C 751.288 77.2064 768.709 72.141 781.843 65.7484 C 805.587 76.5149 811.142 73.2508 818.647 98.9373 C 828.567 92.0796 839.912 85.1467 850.141 78.6526 C 859.488 83.4331 884.019 89.8905 887.634 99.8885 C 890.16 106.875 872.436 140.907 868.694 149.841 C 881.589 151.374 912.535 145.719 916.538 160.246 C 917.411 163.414 917.93 181.283 916.548 183.818 C 909.369 196.99 879.443 204.545 872.996 216.973 C 871.835 223.828 883.262 248.091 886.702 256.518 C 881.189 267.999 874.422 275.884 865.687 284.917 C 854.366 283.195 820.247 270.893 816.244 285.52 C 812.167 300.419 807.575 316.424 803.312 331.374 C 794.622 334.745 782.107 338.57 773.044 341.605 C 762.141 335.425 751.094 329.501 739.913 323.84 L 732.322 308.226 C 720.957 314.715 709.275 322.574 697.614 329.367 C 692.295 327.407 655.852 307.374 654.368 304.48 C 655.225 296.301 676.002 267.968 681.591 259.88 C 666.049 257.697 651.012 249.85 637.033 242.82 C 636.734 232.87 636.691 222.913 636.906 212.961 C 644.191 206.614 674.456 190.787 685.696 183.674 C 677.461 180.903 669.15 178.361 660.774 176.051 C 592.103 158.168 519.15 168.109 457.768 203.713 C 398.299 237.776 355.015 294.308 337.643 360.603 C 296.542 361.428 261.422 367.017 224.098 385.373 C 168.284 412.822 124.186 457.724 103.569 516.747 C 84.9685 569.334 88.2382 627.185 112.646 677.342 C 135.314 724.049 178.403 766.506 227.931 783.628 C 226.735 786.42 227.084 785.581 223.451 787.09 C 201.448 780.062 173.869 760.155 156.917 744.524 C 67.1264 661.728 64.1431 521.666 149.565 434.35 C 201.167 381.604 260.326 358.15 334.223 356.595 C 335.857 350.139 337.737 343.748 339.858 337.435 C 359.853 277.164 412.834 220.131 469.376 192.634 C 539.142 158.707 608.655 153.874 681.85 178.102 C 665.598 132.655 657.006 137.421 699.452 114.913 C 708.819 117.138 725.571 124.057 734.651 127.832 z" fill="rgb(8,23,35)" transform="translate(0,0)"></path>
<path d="M 801.491 83.9598 C 815.654 81.415 812.287 107.473 821.275 114.03 C 835.775 124.607 870.113 87.1288 882.682 98.5267 C 887.667 109.128 860.494 139.665 867.842 152.165 C 873.384 155.956 902.772 155.795 912.403 156.551 C 913.135 161.767 912.867 177.428 912.91 183.407 C 868.486 220.134 856.324 192.131 881.867 256.742 C 877.027 265.312 870.832 272.912 864.404 280.311 C 833.972 273.929 812.905 261.972 807.754 300.646 C 806.989 306.393 801.631 321.921 799.716 328.419 L 772.958 336.911 L 769 330.47 C 764.294 322.662 762.507 314.78 758.891 307.98 C 747.561 286.675 711.58 316.091 697.35 324.524 C 695.391 323.502 682.329 317.584 682.179 315.12 C 681.409 302.438 713.691 271.56 711.286 261.694 C 705.199 257.685 679.448 255.041 670.488 253.49 C 667.389 243.518 667.361 235.392 667.008 225.019 C 728.887 190.43 716.219 204.467 698.091 147.035 C 704.76 140.982 717.428 133.984 725.378 129.319 C 773.389 148.39 766.087 140.933 780.215 93.9359 L 801.491 83.9598 z" fill="rgb(127,177,176)" transform="translate(0,0)"></path>
<path d="M 804.458 148.262 C 813.72 147.419 824.373 149.018 831.748 154.631 C 859.558 175.797 846.119 218.127 829.243 241.235 C 814.533 261.378 798.907 271.89 775.362 275.891 C 698.527 278.361 729.629 161.895 804.458 148.262 z" fill="rgb(4,16,28)" transform="translate(0,0)"></path>
<path d="M 804.973 152.22 C 813.862 151.553 819.443 155.385 820.438 164.744 C 825.052 208.144 794.433 250.892 751.73 259.056 C 722.849 256.748 737.103 210.016 747.172 194.727 C 762.502 171.448 778.061 158.77 804.973 152.22 z" fill="rgb(254,253,253)" transform="translate(0,0)"></path>
<path d="M 820.429 153.644 C 873.128 176.183 827.22 272.741 767.746 271.813 C 758.333 270.363 754.433 268.022 746.48 263.367 C 754.505 262.492 759.997 261.999 767.576 258.967 C 806.201 243.52 836.484 194.566 820.429 153.644 z" fill="rgb(127,177,176)" transform="translate(0,0)"></path>
<path d="M 686.117 259.778 L 707.32 264.007 L 676.61 311.168 L 676.343 311.641 C 673.513 311.787 661.426 305.134 657.905 303.375 C 667.273 288.662 677.007 274.841 686.117 259.778 z" fill="rgb(254,253,253)" transform="translate(0,0)"></path>
<path d="M 754.805 85.0206 C 761.026 87.3098 769.927 91.4827 776.249 94.1746 C 772.434 104.267 765.956 130.256 760.089 136.419 C 754.289 136.3 744.417 131.832 738.623 129.557 C 744.331 115.893 749.895 99.0565 754.805 85.0206 z" fill="rgb(254,253,253)" transform="translate(0,0)"></path>
<path d="M 687.601 187.924 C 688.944 187.891 705.285 194.14 708.284 195.145 C 693.968 203.929 679.579 212.595 665.12 221.142 L 644.235 213.298 C 656.807 205.026 674.421 195.469 687.601 187.924 z" fill="rgb(254,253,253)" transform="translate(0,0)"></path>
<path d="M 673.019 138.443 C 679.659 141.173 686.691 144.472 693.29 147.419 C 696.919 160.147 705.83 177.087 710.354 191.016 C 705.557 189.827 693.16 184.916 688.16 183.06 C 682.974 168.645 677.257 153.07 673.019 138.443 z" fill="rgb(254,253,253)" transform="translate(0,0)"></path>
<path d="M 849.762 84.2162 C 855.015 85.8124 864.967 90.2396 870.398 92.4684 C 860.973 97.762 845.526 104.492 835.344 109.266 C 829.839 111.775 821.519 114.26 821.908 104.713 C 825.097 98.4313 842.391 89.0884 849.762 84.2162 z" fill="rgb(254,253,253)" transform="translate(0,0)"></path>
<path d="M 699.641 119.913 C 703.936 119.926 717.186 125.436 721.813 127.186 C 712.546 131.652 703.721 136.985 695.458 143.114 C 692.623 142.895 677.845 135.535 674.206 133.797 C 682.746 128.795 690.899 124.485 699.641 119.913 z" fill="rgb(254,253,253)" transform="translate(0,0)"></path>
<path d="M 641.601 217.208 C 649.307 219.809 655.111 221.756 662.453 225.177 C 662.914 235.685 662.876 241.193 665.305 251.465 C 657.221 247.683 649.183 243.803 641.193 239.826 C 641.137 232.458 640.896 224.491 641.601 217.208 z" fill="rgb(254,253,253)" transform="translate(0,0)"></path>
<path d="M 780.394 71.8357 C 784.562 71.2218 795.901 77.2212 801.393 79.2779 L 779.294 89.518 C 775.748 90.7034 762.538 83.5962 758.375 81.6167 L 780.394 71.8357 z" fill="rgb(254,253,253)" transform="translate(0,0)"></path>
<path d="M 738.451 303.919 C 745.45 303.735 747.512 304.625 753.765 307.815 C 756.914 315.385 760.272 322.538 763.748 329.951 L 762.859 331.101 C 757.114 327.684 749.59 323.941 743.579 320.742 C 741.095 316.065 735.533 308.461 738.451 303.919 z" fill="rgb(254,253,253)" transform="translate(0,0)"></path>
<path d="M 1126.83 686.164 C 1123.91 678.786 1119.27 668.881 1118.82 660.978 C 1118.64 657.97 1120.86 656.815 1123.05 654.855 C 1125.46 657.191 1125.36 656.352 1125.58 658.932 C 1127.88 668.382 1133.39 682.056 1136.81 691.487 L 1157.22 748.149 C 1180.17 744.888 1203.5 743.217 1226.48 739.941 C 1228.13 739.705 1234.82 741.043 1236.58 741.761 L 1237.4 743.37 C 1238.14 742.196 1238.31 741.099 1238.7 739.733 C 1251.73 731.704 1284.77 736.257 1307.84 719.402 C 1308.59 718.396 1311.36 716.157 1312.46 715.211 C 1312.8 735.164 1313.44 754.926 1314.13 774.865 C 1315.67 819.688 1314.19 863.508 1317.04 908.362 C 1330.46 909.498 1351.29 917.182 1363.33 923.489 C 1372.54 928.311 1382.28 939.881 1375.14 950.097 C 1366.85 961.957 1341.67 970.219 1327.78 972.679 C 1275.62 981.913 1209.94 984.47 1161.95 959.553 C 1157.6 956.993 1150.95 950.465 1150.5 945.122 C 1148.18 917.64 1202.25 909.702 1220.13 906.582 C 1222.06 882.747 1220.29 856.757 1221.6 832.791 C 1222.23 821.181 1224.4 807.51 1225.63 795.673 C 1227.2 780.22 1228.09 764.705 1228.28 749.173 C 1217.67 750.575 1160.09 756.855 1153.41 754.854 C 1147.51 748.473 1132.21 701.882 1128.13 690.709 C 1125.27 692.202 1113.33 696.35 1112.41 697.135 L 1112.27 700.976 C 1110.58 703.137 1095.95 708.615 1092.56 710.011 L 1050.63 727.266 L 889.075 793.368 L 590.037 915.208 C 563.11 926.017 536.242 936.973 509.435 948.077 C 468.546 964.97 445.351 979.952 400.525 968.377 C 402.694 967.314 404.762 966.531 406.971 965.598 C 468.722 939.491 531.251 915.023 593.144 889.337 L 883.75 771.328 C 960.104 739.99 1036.24 708.133 1112.16 675.76 C 1112.18 681.646 1110.49 687.171 1115.77 690.302 C 1119.54 690.407 1123.39 687.945 1126.83 686.164 z" fill="url(#Gradient1)" transform="translate(0,0)"></path>
<path d="M 1285.79 904.105 C 1287.75 912.777 1290.67 927.071 1293.39 935.03 C 1286.35 941.485 1273 948.761 1272.49 957.466 C 1273.45 960.373 1274.45 962.055 1277.28 963.474 C 1285.49 967.58 1296.29 966.377 1304.64 963.421 C 1310.95 961.185 1318.1 957.588 1321.12 951.234 C 1323.45 946.355 1317.09 917.254 1317.04 908.362 C 1330.46 909.498 1351.29 917.182 1363.33 923.489 C 1372.54 928.311 1382.28 939.881 1375.14 950.097 C 1366.85 961.957 1341.67 970.219 1327.78 972.679 C 1275.62 981.913 1209.94 984.47 1161.95 959.553 C 1157.6 956.993 1150.95 950.465 1150.5 945.122 C 1148.18 917.64 1202.25 909.702 1220.13 906.582 C 1219.03 911.079 1219.08 915.672 1218.94 920.301 C 1212.82 924.435 1181.67 943.596 1203.56 951.159 C 1209.17 955.663 1244.28 945.293 1244.33 938.322 C 1244.4 930.583 1247.34 913.287 1249.66 903.696 C 1261.7 903.581 1273.75 903.717 1285.79 904.105 z" fill="rgb(127,177,176)" transform="translate(0,0)"></path>
<path d="M 1265.29 826.029 C 1269.09 848.091 1279.04 881.961 1285.79 904.105 C 1273.75 903.717 1261.7 903.581 1249.66 903.696 C 1255.23 877.723 1259.52 852.075 1265.29 826.029 z" fill="rgb(254,253,253)" transform="translate(0,0)"></path>
<path d="M 1307.84 719.402 C 1309.16 724.614 1308.96 734.904 1308.85 740.586 C 1295.98 747.748 1282.43 750.65 1267.74 750.358 C 1258.34 750.171 1240.95 750.973 1238.7 739.733 C 1251.73 731.704 1284.77 736.257 1307.84 719.402 z" fill="rgb(244,200,99)" transform="translate(0,0)"></path>
<path d="M 1154.73 752.074 C 1144.84 722.31 1132.96 692.934 1123.52 663.002 C 1122.82 660.782 1123.05 660.21 1124.16 658.48 L 1125.58 658.932 C 1127.88 668.382 1133.39 682.056 1136.81 691.487 L 1157.22 748.149 C 1180.17 744.888 1203.5 743.217 1226.48 739.941 C 1228.13 739.705 1234.82 741.043 1236.58 741.761 C 1231.5 746.387 1166.53 750.855 1154.73 752.074 z" fill="rgb(254,253,253)" transform="translate(0,0)"></path>
<path d="M 1307.69 746.108 C 1311.87 750.745 1311.04 854.777 1311.21 869.474 C 1311.38 884.268 1314.08 913.504 1313.68 928.172 C 1309.4 931.929 1301.88 930.146 1296.59 929.45 L 1291.32 909.271 C 1286.17 889.835 1274.24 853.537 1271.4 835.523 C 1267.95 813.568 1266.47 778.448 1264.27 754.823 C 1281.13 755.16 1292.5 752.973 1307.69 746.108 z" fill="rgb(127,177,176)" transform="translate(0,0)"></path>
<path d="M 1232.16 748.545 C 1237.19 749.066 1253.78 753.199 1259.86 754.452 C 1261.31 770.495 1263.5 790.542 1263.97 806.508 C 1264.2 814.35 1258.68 836.99 1256.9 845.494 L 1244.78 905.282 C 1242.42 920.314 1235.6 917.638 1223.18 915.645 C 1227.18 888.413 1223.72 859.552 1225.86 833.482 C 1228.35 803.093 1231.95 779.759 1232.16 748.545 z" fill="rgb(127,177,176)" transform="translate(0,0)"></path>
<path d="M 1301.88 939.307 C 1303.73 939.915 1305.2 940.458 1307 941.198 L 1308.91 940.085 C 1309.07 937.581 1308.08 937.387 1306.01 934.966 C 1308.37 933.407 1313.17 932.694 1315.79 933.946 C 1316.69 937.195 1318.01 940.307 1317.11 943.372 L 1319.33 946.54 C 1312.61 959.424 1282.99 970.566 1275.96 955.919 C 1276.53 954.655 1277.51 952.96 1278.2 951.694 L 1286.65 945.3 L 1287.99 944.762 C 1291.6 939.626 1296.21 939.43 1301.88 939.307 z" fill="rgb(254,253,253)" transform="translate(0,0)"></path>
<path d="M 1317.11 943.372 L 1319.33 946.54 C 1312.61 959.424 1282.99 970.566 1275.96 955.919 C 1276.53 954.655 1277.51 952.96 1278.2 951.694 C 1288.98 964.216 1307.91 950.942 1317.11 943.372 z" fill="rgb(4,16,28)" transform="translate(0,0)"></path>
<path d="M 1319.33 946.54 C 1312.61 959.424 1282.99 970.566 1275.96 955.919 C 1293.95 965.532 1305.17 957.467 1319.33 946.54 z" fill="rgb(254,253,253)" transform="translate(0,0)"></path>
<path d="M 1286.65 945.3 L 1287.99 944.762 C 1291.6 939.626 1296.21 939.43 1301.88 939.307 C 1302.34 941.301 1302.85 942.289 1304.01 943.971 C 1303.11 947.403 1300.56 948.078 1296.96 950.483 C 1292.85 947.915 1291.22 946.748 1286.65 945.3 z" fill="rgb(4,16,28)" transform="translate(0,0)"></path>
<path d="M 1228.12 930.638 C 1229.22 927.033 1229.52 927.846 1228.72 924.555 C 1226.8 923.063 1225.57 922.177 1223.49 920.908 L 1224.3 919.882 C 1225.13 920.201 1229.58 922.148 1229.99 922.192 C 1235.96 922.843 1238.53 919.364 1241.31 925.121 C 1241.13 927.258 1241.09 930.291 1240.13 932.082 L 1240.93 936.363 C 1236.03 944.666 1206.51 954.09 1200.06 943.505 C 1200.29 942.386 1200.46 939.898 1200.58 938.648 C 1211.78 926.491 1210.85 937.275 1219.43 935.756 L 1218.95 935.089 C 1216.09 931.079 1215.58 931.006 1216.3 926.734 C 1218.69 924.395 1217.43 924.964 1221.18 924.853 C 1224.86 926.255 1225.64 927.591 1228.12 930.638 z" fill="rgb(254,253,253)" transform="translate(0,0)"></path>
<path d="M 1240.13 932.082 L 1240.93 936.363 C 1236.03 944.666 1206.51 954.09 1200.06 943.505 C 1200.29 942.386 1200.46 939.898 1200.58 938.648 C 1213.38 946.662 1228.17 938.254 1240.13 932.082 z" fill="rgb(4,16,28)" transform="translate(0,0)"></path>
<path d="M 1240.93 936.363 C 1236.03 944.666 1206.51 954.09 1200.06 943.505 C 1216.09 948.964 1225.99 942.697 1240.93 936.363 z" fill="rgb(254,253,253)" transform="translate(0,0)"></path>
<path d="M 1219.43 935.756 L 1218.95 935.089 C 1216.09 931.079 1215.58 931.006 1216.3 926.734 C 1218.69 924.395 1217.43 924.964 1221.18 924.853 C 1224.86 926.255 1225.64 927.591 1228.12 930.638 C 1226.07 931.788 1221.03 934.461 1219.43 935.756 z" fill="rgb(4,16,28)" transform="translate(0,0)"></path>
<path d="M 1116.13 507.988 C 1124.38 511.771 1162.03 530.031 1167.74 529.294 C 1168.81 531.204 1168.93 532.293 1170.59 532.819 C 1186.31 539.193 1201.39 546.636 1216.92 552.882 L 1216.94 619.215 C 1197.07 626.831 1161.9 641.692 1142.43 650.953 C 1147.75 650.365 1154.09 649.499 1159.33 649.131 C 1162.35 646.882 1165.3 643.892 1168.59 643.495 C 1170.22 645.544 1170.64 646.134 1172.64 647.781 C 1180.78 647.8 1198.51 643.261 1203.47 646.339 C 1206.24 649.873 1207.13 653.415 1208.53 657.635 C 1212.44 655.46 1218.21 652.012 1222.23 650.488 C 1230.29 639.101 1246.38 616.763 1262.14 616.784 C 1263.33 616.545 1264.17 616.083 1265.29 615.594 C 1260.6 604.474 1259.95 595.682 1260.01 583.923 C 1253.33 579.953 1250.4 578.266 1244.66 573.117 L 1245.58 570.606 C 1250.66 568.587 1256.85 568.705 1262.43 568.244 C 1267.89 560.447 1272.73 556.476 1282.43 554.687 C 1296.74 552.047 1309.66 558.915 1313.09 573.449 C 1314.03 577.293 1311.72 586.531 1312.94 589.067 C 1324.46 603.61 1297.17 605.134 1303.12 619.955 C 1339.06 632.48 1324.83 677.448 1317.88 704.977 C 1317.13 707.939 1314.64 713.063 1312.46 715.211 C 1311.36 716.157 1308.59 718.396 1307.84 719.402 C 1284.77 736.257 1251.73 731.704 1238.7 739.733 C 1238.31 741.099 1238.14 742.196 1237.4 743.37 L 1236.58 741.761 C 1234.82 741.043 1228.13 739.705 1226.48 739.941 C 1203.5 743.217 1180.17 744.888 1157.22 748.149 L 1136.81 691.487 C 1133.39 682.056 1127.88 668.382 1125.58 658.932 C 1125.36 656.352 1125.46 657.191 1123.05 654.855 C 1128.07 652.287 1132.94 652.003 1138.49 651.278 C 1118.08 638.575 1074.2 621.369 1050.16 609.144 L 1050.03 536.818 C 1066.59 530.951 1099.42 515.534 1116.13 507.988 z" fill="rgb(4,16,28)" transform="translate(0,0)"></path>
<path d="M 1262.43 568.244 C 1267.89 560.447 1272.73 556.476 1282.43 554.687 C 1296.74 552.047 1309.66 558.915 1313.09 573.449 C 1314.03 577.293 1311.72 586.531 1312.94 589.067 C 1324.46 603.61 1297.17 605.134 1303.12 619.955 L 1300.23 622.694 C 1295.48 611.229 1300.68 607.008 1302.84 600.006 C 1302.24 596.207 1302.93 597.343 1300.62 595.079 L 1298.63 595.567 C 1291 604.975 1302.48 607.969 1292.81 615.455 C 1283.2 618.831 1277.7 615.146 1273.75 620.918 L 1270.97 619.186 C 1268.59 617.32 1265.2 617.204 1262.14 616.784 C 1263.33 616.545 1264.17 616.083 1265.29 615.594 C 1260.6 604.474 1259.95 595.682 1260.01 583.923 C 1253.33 579.953 1250.4 578.266 1244.66 573.117 L 1245.58 570.606 C 1250.66 568.587 1256.85 568.705 1262.43 568.244 z" fill="rgb(8,23,35)" transform="translate(0,0)"></path>
<path d="M 1262.43 568.244 C 1267.89 560.447 1272.73 556.476 1282.43 554.687 C 1296.74 552.047 1309.66 558.915 1313.09 573.449 C 1314.03 577.293 1311.72 586.531 1312.94 589.067 C 1312.73 590.466 1313.07 589.89 1312.11 590.908 C 1309.94 588.683 1309.63 587.425 1308.55 584.601 C 1303.06 581.505 1298.39 583.927 1292.74 585.623 C 1284.47 581.791 1273.59 575.449 1265.39 570.894 L 1264.32 574.728 C 1258.96 572.309 1256.25 572.647 1250.52 573.2 C 1247.57 574.675 1248.6 574.308 1244.66 573.117 L 1245.58 570.606 C 1250.66 568.587 1256.85 568.705 1262.43 568.244 z" fill="rgb(244,200,99)" transform="translate(0,0)"></path>
<path d="M 1262.43 568.244 C 1267.89 560.447 1272.73 556.476 1282.43 554.687 C 1296.74 552.047 1309.66 558.915 1313.09 573.449 C 1314.03 577.293 1311.72 586.531 1312.94 589.067 C 1312.73 590.466 1313.07 589.89 1312.11 590.908 C 1309.94 588.683 1309.63 587.425 1308.55 584.601 C 1313.9 557.773 1281.33 548.179 1265.39 570.894 L 1264.32 574.728 C 1258.96 572.309 1256.25 572.647 1250.52 573.2 C 1247.57 574.675 1248.6 574.308 1244.66 573.117 L 1245.58 570.606 C 1250.66 568.587 1256.85 568.705 1262.43 568.244 z" fill="rgb(4,16,28)" transform="translate(0,0)"></path>
<path d="M 1250.52 573.2 C 1256.25 572.647 1258.96 572.309 1264.32 574.728 C 1271.46 578.525 1278.6 582.744 1285.62 586.785 C 1273.36 584.131 1260.48 581.281 1250.52 573.2 z" fill="rgb(244,200,99)" transform="translate(0,0)"></path>
<path d="M 1264.25 585.57 C 1278.01 590.873 1301.98 585.551 1287.81 604.891 L 1286.95 606.044 C 1284.45 606.859 1270.44 604.246 1265 604.006 C 1264.48 597.968 1264.42 591.644 1264.25 585.57 z" fill="rgb(254,253,253)" transform="translate(0,0)"></path>
<path d="M 1292.81 615.455 C 1302.48 607.969 1291 604.975 1298.63 595.567 L 1300.62 595.079 C 1302.93 597.343 1302.24 596.207 1302.84 600.006 C 1300.68 607.008 1295.48 611.229 1300.23 622.694 C 1288.65 627.74 1288.91 632.152 1271.85 636.809 C 1278.61 631.051 1286.29 622.118 1292.81 615.455 z" fill="rgb(254,253,253)" transform="translate(0,0)"></path>
<path d="M 1270.97 619.186 L 1273.75 620.918 C 1271.69 624.529 1271.53 627.793 1269.81 632.147 L 1268.97 631.751 C 1268.42 626.009 1268.99 624.651 1270.97 619.186 z" fill="rgb(254,253,253)" transform="translate(0,0)"></path>
<path d="M 1176.27 662.278 C 1175.63 657.335 1174.5 656.258 1176.26 652.435 C 1179.19 649.897 1188.11 650.802 1193.29 650.178 C 1200.49 669.277 1210.55 698.529 1218.9 716.376 C 1211.8 724.492 1209.8 727.81 1217.69 736.149 L 1217.36 737.362 C 1210.33 739.64 1170.17 743.583 1160.32 744.381 C 1150.46 716.628 1137.86 684.289 1128.97 656.698 L 1153.9 653.799 C 1151.15 658.367 1147.74 662.344 1147.84 667.331 C 1148.69 668.616 1149.25 670.004 1151.12 670.015 C 1156.92 670.05 1176.83 668.936 1180.09 664.688 C 1178.63 662.997 1179.53 663.509 1177.25 663.192 L 1176.27 662.278 z" fill="rgb(254,253,253)" transform="translate(0,0)"></path>
<path d="M 1190.2 682.483 L 1191.47 682.965 L 1191.93 684.349 C 1187.97 687.399 1159.26 688.998 1152.84 689.516 C 1152.33 689.303 1152.07 688.724 1151.64 688.136 L 1152.7 686.774 C 1160.87 684.898 1180.94 683.386 1190.2 682.483 z" fill="rgb(4,16,28)" transform="translate(0,0)"></path>
<path d="M 1194.31 693.417 L 1195.7 693.589 L 1196.33 694.91 C 1192.77 697.078 1164.08 700.263 1158.18 701.041 L 1156.64 700.741 L 1155.93 699.326 C 1160.15 696.592 1187.94 694.142 1194.31 693.417 z" fill="rgb(4,16,28)" transform="translate(0,0)"></path>
<path d="M 1194.03 705.397 C 1195.38 705.012 1196.56 705.232 1197.96 705.344 L 1199.02 706.768 C 1197.28 708.432 1169.54 711.588 1164.98 712.217 C 1163.67 712.329 1162.92 712.03 1161.66 711.694 L 1161.98 712.221 L 1161.1 711.867 L 1160.82 710.779 C 1164.64 708.151 1188.01 706.084 1194.03 705.397 z" fill="rgb(4,16,28)" transform="translate(0,0)"></path>
<path d="M 1201.25 717.489 L 1202.45 717.91 L 1202.65 719.359 C 1198.67 721.883 1172.07 723.893 1165.9 724.49 C 1165.09 724.024 1165.36 724.078 1164.76 723.096 C 1168.44 720.313 1195.16 718.155 1201.25 717.489 z" fill="rgb(4,16,28)" transform="translate(0,0)"></path>
<path d="M 1260.61 619.765 L 1263.64 619.92 C 1266.52 622.077 1264.1 627.038 1265.13 631.946 C 1265.59 634.181 1266.98 636.115 1268.95 637.261 C 1271.37 638.688 1274.58 639.644 1277.36 638.854 L 1277.9 638.694 C 1287.75 635.882 1296.4 628.456 1304.74 626.36 L 1305.95 627.127 C 1292.09 652.862 1293.1 667.032 1292.93 696.672 C 1288.64 698.896 1283.52 701.016 1279.06 702.993 C 1265.88 708.063 1252.53 712.697 1239.05 716.888 C 1236.97 716.428 1229.53 715.056 1229.12 712.677 C 1225.34 690.72 1240.5 630.441 1260.61 619.765 z" fill="rgb(244,200,99)" transform="translate(0,0)"></path>
<path d="M 1211.27 555.997 L 1212.53 557.053 C 1213.68 564.165 1212.98 606.517 1212.97 616.213 C 1191.18 626.009 1169.16 635.258 1146.91 643.953 C 1144.33 640.542 1145.21 591.571 1145.2 582.94 C 1167.43 573.299 1188.69 564.912 1211.27 555.997 z" fill="rgb(244,200,99)" transform="translate(0,0)"></path>
<path d="M 1054.05 541.691 C 1066.84 546.379 1083.32 553.967 1096.09 559.413 L 1096.6 626.736 C 1084.61 620.41 1067.13 613.249 1054.01 606.874 C 1054.17 585.147 1054.19 563.419 1054.05 541.691 z" fill="rgb(244,200,99)" transform="translate(0,0)"></path>
<path d="M 1065.77 553.771 L 1067.51 552.222 C 1072.98 552.942 1075.19 554.094 1079.21 557.796 C 1079.48 559.888 1079.54 559.864 1079.11 561.89 C 1081.87 562.452 1080.84 561.942 1082.99 564.017 C 1083.95 567.324 1083.84 569.219 1081.13 571.515 C 1080.61 571.754 1076.26 572.943 1075.18 573.297 L 1075.86 573.625 C 1067.89 574.652 1066.49 570.903 1064.83 563.787 C 1062.71 561.949 1062.44 561.704 1061.82 558.99 C 1062.99 555.403 1062.61 556.471 1065.77 553.771 z" fill="rgb(254,253,253)" transform="translate(0,0)"></path>
<path d="M 1065.77 553.771 L 1067.51 552.222 C 1072.98 552.942 1075.19 554.094 1079.21 557.796 C 1079.48 559.888 1079.54 559.864 1079.11 561.89 L 1077.94 563.282 C 1071.29 565.274 1067.55 558.854 1065.77 553.771 z" fill="rgb(4,16,28)" transform="translate(0,0)"></path>
<path d="M 1064.83 563.787 C 1069.47 565.535 1077.75 568.182 1081.13 571.515 C 1080.61 571.754 1076.26 572.943 1075.18 573.297 L 1075.86 573.625 C 1067.89 574.652 1066.49 570.903 1064.83 563.787 z" fill="rgb(4,16,28)" transform="translate(0,0)"></path>
<path d="M 1311.09 629.405 C 1331.85 633.102 1318.85 700.993 1309.57 712.537 C 1299.27 725.359 1269.16 729.231 1254.22 732.013 L 1249.99 731.901 C 1247.53 730.243 1244.76 723.564 1242.56 720.044 C 1261.59 713.962 1278.99 707.98 1296.99 699.206 C 1296.88 690.478 1297.02 681.749 1297.43 673.031 C 1298.22 658.058 1299.46 639.859 1311.09 629.405 z" fill="rgb(254,253,253)" transform="translate(0,0)"></path>
<path d="M 1101.22 569.985 L 1101.36 567.117 C 1106.48 565.809 1134.79 578.578 1141.16 581.853 C 1142.12 600.812 1141.45 627.539 1141.54 647.069 C 1130.8 643.027 1112.46 633.786 1100.97 628.684 C 1100.87 609.117 1100.96 589.55 1101.22 569.985 z" fill="rgb(244,200,99)" transform="translate(0,0)"></path>
<path d="M 1101.22 569.985 L 1101.36 567.117 C 1106.48 565.809 1134.79 578.578 1141.16 581.853 C 1133.33 585.717 1137.51 587.028 1135.8 594.534 C 1131.74 594.75 1120.12 587.668 1113.42 587.753 C 1109.4 586.859 1103.92 584.084 1102.4 580.094 L 1103.57 583.174 L 1103.29 583.272 C 1100.84 580.49 1101.34 574.031 1101.22 569.985 z" fill="rgb(254,253,253)" transform="translate(0,0)"></path>
<path d="M 1101.22 569.985 L 1101.36 567.117 C 1106.48 565.809 1134.79 578.578 1141.16 581.853 C 1133.33 585.717 1137.51 587.028 1135.8 594.534 C 1135.52 591.207 1135.54 587.961 1134 585.041 C 1131.32 583.441 1132.5 583.851 1128.76 584.103 C 1126.79 578.745 1119.56 576.007 1114.32 575.545 C 1111.36 574.802 1109.66 574.016 1106.9 575.135 C 1105.03 579.639 1110.7 584.122 1113.42 587.753 C 1109.4 586.859 1103.92 584.084 1102.4 580.094 L 1103.57 583.174 L 1103.29 583.272 C 1100.84 580.49 1101.34 574.031 1101.22 569.985 z" fill="rgb(244,200,99)" transform="translate(0,0)"></path>
<path d="M 1114.32 575.545 C 1119.56 576.007 1126.79 578.745 1128.76 584.103 L 1127.17 587.055 C 1118.76 589.366 1115.45 582.116 1114.32 575.545 z" fill="rgb(8,23,35)" transform="translate(0,0)"></path>
<path d="M 1077.51 528.804 C 1082.47 528.464 1110.99 542.902 1118.65 546.413 L 1098.37 555.046 C 1093.29 555.108 1062.91 540.968 1056.77 538.231 L 1077.51 528.804 z" fill="rgb(244,200,99)" transform="translate(0,0)"></path>
<path d="M 1127.1 552.94 C 1130.76 553.033 1159.79 567.74 1164.62 570.24 C 1157.67 573.28 1151.21 576.035 1144.12 578.74 C 1131.74 572.445 1118.3 567.743 1105.45 562.194 C 1112.1 559.701 1120.44 555.814 1127.1 552.94 z" fill="rgb(244,200,99)" transform="translate(0,0)"></path>
<path d="M 1166.78 535.972 C 1171.69 537.046 1200.35 550.236 1206.85 553.161 L 1188.48 560.864 C 1175.67 554.803 1161.52 548.922 1148.45 543.226 C 1154.5 540.967 1160.76 538.369 1166.78 535.972 z" fill="rgb(244,200,99)" transform="translate(0,0)"></path>
<path d="M 1114.59 512.957 C 1119.7 513.171 1148.34 526.671 1155.34 529.816 C 1150.59 532.358 1144.44 535.134 1139.49 537.528 C 1137.59 537.62 1104.44 521.95 1099.95 519.875 L 1114.59 512.957 z" fill="rgb(244,200,99)" transform="translate(0,0)"></path>
<path d="M 1243.79 629.963 L 1244.51 630.803 C 1236.56 646.833 1232.04 661.165 1227.69 678.259 C 1224.85 679.579 1221.62 681.422 1218.57 681.427 C 1215.37 679.142 1216.01 678.674 1214.33 674.288 L 1209.56 661.368 C 1212.08 660.263 1214.91 658.83 1217.43 657.624 L 1218.55 659.807 L 1219.95 660.012 C 1223.66 656.922 1237.65 636.764 1243.79 629.963 z" fill="rgb(254,253,253)" transform="translate(0,0)"></path>
<path d="M 1141.85 546.025 C 1145.55 545.447 1176.84 560.058 1182.94 562.765 L 1172.1 567.001 C 1167.18 568.574 1138.56 553.527 1131.73 550.265 L 1141.85 546.025 z" fill="rgb(244,200,99)" transform="translate(0,0)"></path>
<path d="M 1094.9 521.974 C 1104.32 527.063 1122.46 533.984 1133.68 539.426 L 1123.67 543.756 C 1118.13 542.622 1090.63 529.033 1084.69 526.129 L 1094.9 521.974 z" fill="rgb(244,200,99)" transform="translate(0,0)"></path>
<path d="M 1224.32 718.079 C 1233.08 718.813 1238.27 719.655 1242.78 729.043 C 1243.83 731.224 1242.54 732.863 1241.41 734.576 C 1238.04 736.592 1235.44 736.135 1231.49 736.009 C 1226.97 732.794 1227.36 732.807 1221.58 732.535 C 1223.54 730.209 1223.5 731.01 1223.39 728.701 C 1219.98 727.798 1220.6 728.291 1216.62 729.862 L 1215.73 729.241 L 1216.71 729.803 L 1216.15 727.442 C 1218.07 722.333 1219.98 721.44 1224.32 718.079 z" fill="rgb(254,253,253)" transform="translate(0,0)"></path>
<path d="M 1197.94 648.742 L 1200.13 649.701 C 1203.89 654.965 1221.11 705.357 1224.08 714.465 C 1219.42 712.633 1198.67 655.641 1197.94 648.742 z" fill="rgb(254,253,253)" transform="translate(0,0)"></path>
<path d="M 1167.28 648.395 C 1169.4 650.173 1170.49 655.49 1171.35 658.459 C 1167.13 658.717 1162.47 659.746 1158.28 660.548 L 1156.09 660.524 L 1155.39 659.345 C 1157.76 653.348 1161.46 650.734 1167.28 648.395 z" fill="rgb(254,253,253)" transform="translate(0,0)"></path>
<path d="M 1223.22 683.153 C 1224.67 683.484 1224.93 683.799 1226.15 684.63 C 1226.65 689.286 1224.95 695.192 1223.91 699.894 C 1220.77 693.043 1216.58 688.33 1223.22 683.153 z" fill="rgb(254,253,253)" transform="translate(0,0)"></path>
<path d="M 1123.32 548.317 L 1124.05 548.816 C 1121.92 552.137 1106.89 557.299 1102.22 559.125 L 1101.38 558.321 C 1102.67 556.365 1119.67 549.837 1123.32 548.317 z" fill="rgb(157,143,89)" transform="translate(0,0)"></path>
<path d="M 1177.25 663.192 C 1173.45 664.709 1155.71 667.357 1151.61 666.019 C 1154.18 664.611 1171.39 663.212 1176.27 662.278 L 1177.25 663.192 z" fill="rgb(144,154,155)" transform="translate(0,0)"></path>
<path d="M 1159.59 532.868 L 1161.22 533.313 C 1158.82 536.345 1148.11 539.395 1144.26 540.284 L 1142.81 540.4 C 1146.3 537.956 1155.18 534.653 1159.59 532.868 z" fill="rgb(157,143,89)" transform="translate(0,0)"></path>
<path d="M 805.449 707.24 C 805.568 649.617 873.714 614.59 874.716 674.217 L 874.064 675.564 C 875.827 677.397 876.122 677.611 878.385 678.772 C 877.311 679.203 874.714 680.105 874.225 681.149 C 868.994 692.34 864.223 702.465 854.886 710.834 C 842.912 721.565 829.892 726.655 815.62 716.798 C 811.412 713.892 808.851 710.984 805.449 707.24 z" fill="rgb(20,42,57)" transform="translate(0,0)"></path>
<path d="M 843.217 659.149 C 872.826 656.094 863.815 695.169 838.96 706.04 C 810.9 710.974 818.727 672.078 843.217 659.149 z" fill="rgb(254,253,253)" transform="translate(0,0)"></path>
<path d="M 840.987 671.774 C 843.909 671.8 844.297 671.886 847.034 672.914 C 853.391 679.881 847.798 687.253 842.431 692.972 C 839.539 693.322 839.138 693.224 836.312 692.475 C 829.875 686.191 836.11 677.131 840.987 671.774 z" fill="rgb(4,16,28)" transform="translate(0,0)"></path>
<path d="M 842.388 676.404 C 845.184 678.092 844.362 677.04 845.307 680.493 C 844.381 684.308 842.921 685.549 840.313 688.483 C 839.032 687.911 838.899 687.275 838.19 686.016 C 838.271 682.201 840.336 679.659 842.388 676.404 z" fill="rgb(254,253,253)" transform="translate(0,0)"></path>
<path d="M 1861.05 778.005 C 1861.63 777.944 1863.46 778.165 1864.16 778.23 L 1864.54 779.878 C 1858.92 785.591 1815.32 800.053 1806.2 804.595 C 1787.35 813.979 1668.03 854.432 1663.71 864.428 C 1666.6 877.196 1699.57 871.32 1698.15 887.481 C 1694.27 894.068 1683.53 898.919 1676.51 901.126 C 1636.4 913.736 1592.36 911.393 1554.84 891.938 C 1542.73 885.661 1528.67 880.254 1516.24 874.523 C 1480.4 858.002 1443.75 842.943 1408.16 825.949 C 1406.89 825.422 1405.52 824.449 1404.35 823.693 L 1404.4 822.042 C 1412.51 820.446 1554.1 889.405 1576.81 896.945 C 1582.62 898.873 1589.83 901.047 1596.44 902.31 C 1621.88 906.924 1648.04 905.551 1672.86 898.301 C 1679.67 896.294 1689.02 893.157 1692.54 886.665 C 1691.86 874.439 1658.49 879.7 1658.79 864.083 C 1664.39 852.884 1720.62 833.831 1735.2 828.13 C 1777.27 811.73 1819.22 795.021 1861.05 778.005 z" fill="rgb(8,23,35)" transform="translate(0,0)"></path>
<path d="M 1943.6 720.94 L 1946.46 721.33 L 1946.9 722.632 C 1944.7 725.986 1874.83 753.005 1866.54 756.396 L 1588.29 867.473 L 1585.91 867.557 L 1585.19 866.385 C 1587.38 861.692 1619.77 850.538 1626.8 847.76 L 1702.05 817.829 L 1943.6 720.94 z" fill="rgb(8,23,35)" transform="translate(0,0)"></path>
<path d="M 318.975 797.733 C 325.002 798.039 502.544 881.075 522.842 892.32 C 525.71 893.909 525.806 894.677 526.737 897.74 C 514.486 894.682 500.758 886.204 489.295 880.756 L 406.016 841.286 L 346.514 814.329 C 338.464 810.654 328.724 807.301 321.429 802.48 C 319.226 801.025 319.502 800.279 318.975 797.733 z" fill="rgb(8,23,35)" transform="translate(0,0)"></path>
<path d="M 249.676 834.109 C 251.64 834.427 441.851 919.678 449.211 925.376 C 449.874 925.889 449.964 928.406 450.095 929.332 C 449.891 929.307 449.685 929.294 449.484 929.256 C 441.039 927.666 418.866 915.721 410.111 911.698 C 394.798 904.66 250.977 839.921 248.983 837.103 L 249.676 834.109 z" fill="rgb(8,23,35)" transform="translate(0,0)"></path>
<path d="M 941.054 596.859 C 950.532 598.219 1065.49 653.951 1081.49 660.248 C 1084.64 661.486 1084.76 662.628 1085.45 665.231 C 1079.59 664.709 957.632 607.253 943.493 600.996 C 941.258 600.007 941.518 599.001 941.054 596.859 z" fill="rgb(8,23,35)" transform="translate(0,0)"></path>
<path d="M 935.249 659.852 C 937.756 660.213 941.109 661.637 944.368 663.204 C 966.156 673.679 989.198 683.23 1010.48 694.562 C 1010.89 695.656 1011.23 696.57 1011.51 697.305 C 1005.22 697.203 948.959 669.333 937.879 664.465 C 935.522 663.43 935.581 661.863 935.249 659.852 z" fill="rgb(8,23,35)" transform="translate(0,0)"></path>
<path d="M 773.581 730.065 C 775.721 730.505 778.333 731.43 780.305 732.419 C 802.336 743.467 825.461 752.818 847.051 764.605 C 847.051 764.605 848.189 766.876 848.3 767.097 C 843.838 767.355 777.481 736.678 773.513 732.733 L 773.581 730.065 z" fill="rgb(8,23,35)" transform="translate(0,0)"></path>
<path d="M 884.199 707.965 C 884.974 707.878 887.741 707.804 888.341 708.107 C 897.044 712.497 929.061 724.301 933.225 730.928 C 927.593 732.05 886.913 712.783 884.199 707.965 z" fill="rgb(8,23,35)" transform="translate(0,0)"></path>
<path d="M 725.122 773.925 C 725.748 773.949 727.768 774.076 728.733 774.489 C 742.647 780.438 757.017 786.652 770.34 793.812 C 770.902 794.978 771.359 795.925 771.711 796.655 C 768.891 797.223 767.365 796.662 764.844 795.432 C 752.233 789.276 738.875 784.133 726.707 777.166 C 726.707 777.166 725.263 774.212 725.122 773.925 z" fill="rgb(8,23,35)" transform="translate(0,0)"></path>
<path d="M 646.197 811.883 C 647.278 811.731 648.369 811.668 649.426 811.989 C 654.326 813.476 682.989 826.2 685.699 829.377 C 686.306 830.089 686.802 831.31 687.278 832.144 C 686.307 832.385 685.286 832.552 684.303 832.282 C 679.584 830.986 650.388 818.097 647.927 815.04 C 647.254 814.205 646.724 812.846 646.197 811.883 z" fill="rgb(8,23,35)" transform="translate(0,0)"></path>
<path d="M 567.525 845.878 C 575.151 846.37 598.577 857.774 605.446 862.268 C 607.46 863.586 607.271 863.785 607.716 866.053 C 600.45 865.816 578.816 854.482 571.512 850.599 C 568.796 849.155 568.417 848.883 567.525 845.878 z" fill="rgb(8,23,35)" transform="translate(0,0)"></path>
<metadata><recraft-signature>{"signed_by": "recraft", "signature_b64": "cneT761ZukrqIK8r/mtXO5dfmWUczvMnN0sVGeIFBTMMfw2VpqvqHfjSnqIg8C6qgzcKAZ/IgeCWhxBwVbDbCg==", "signing_algo": "Ed25519", "generation_timestamp": 1777312921, "identifier": "43df3809-28ca-49d0-87ba-d5b18c4d9071"}</recraft-signature></metadata></svg>