<svg xmlns="http://www.w3.org/2000/svg" height="1024" preserveAspectRatio="none" style="display: block;" version="1.1" viewBox="0 0 2048 1024" width="2048">
<defs>
	<linearGradient gradientUnits="userSpaceOnUse" id="Gradient1" x1="1841" x2="1850.48" y1="926.762" y2="941.531">
		<stop class="stop0" offset="0" stop-color="rgb(10,19,36)" stop-opacity="1"></stop>
		<stop class="stop1" offset="1" stop-color="rgb(26,54,81)" stop-opacity="1"></stop>
	</linearGradient>
	<linearGradient gradientUnits="userSpaceOnUse" id="Gradient2" x1="1580.59" x2="1580.45" y1="956.713" y2="967.609">
		<stop class="stop0" offset="0" stop-color="rgb(8,14,30)" stop-opacity="1"></stop>
		<stop class="stop1" offset="1" stop-color="rgb(22,44,71)" stop-opacity="1"></stop>
	</linearGradient>
	<linearGradient gradientUnits="userSpaceOnUse" id="Gradient3" x1="1554.87" x2="1565.76" y1="289.75" y2="283.979">
		<stop class="stop0" offset="0" stop-color="rgb(11,17,29)" stop-opacity="1"></stop>
		<stop class="stop1" offset="1" stop-color="rgb(24,51,67)" stop-opacity="1"></stop>
	</linearGradient>
</defs>
<path d="M 0 0 L 2048 0 L 2048 1024 L 0 1024 L 0 0 z" fill="rgb(254,254,253)" transform="translate(0,0)"></path>
<path d="M 1557.63 248.52 C 1564.27 202.042 1615.05 184.567 1650.94 212.989 C 1655.62 216.698 1658.88 221.127 1662.69 225.718 C 1667.92 223.725 1672.16 222.431 1677.5 220.865 L 1687.72 221.415 L 1687.75 221.849 C 1675.88 223.382 1675.68 224.282 1665.68 226.322 C 1661.73 233.953 1672.36 250.236 1671.65 259.065 C 1671.35 262.825 1665.97 261.711 1665.18 265.916 L 1667.94 267.95 C 1667.9 269.093 1668.11 269.159 1667.64 269.901 L 1666.02 269.749 C 1663.82 273.191 1656.87 296.863 1654.09 303.828 C 1658.52 307.549 1664.8 313.293 1669.91 315.18 C 1701.77 326.947 1728.32 309.636 1744.13 350.635 C 1757.96 386.55 1758.75 426.723 1770.36 463.181 C 1777.83 486.633 1795.53 506.368 1807.08 527.834 C 1838.96 587.111 1826.33 654.283 1800.28 713.104 C 1795.47 723.958 1805.8 721.443 1796.38 732.133 C 1818.71 764.491 1838.71 797.578 1855.19 833.323 C 1857.36 838.035 1865.05 851.698 1863.76 855.954 C 1859.25 870.818 1871.76 875.735 1881.98 883.083 C 1890.69 889.346 1898.28 901.643 1902.99 911.669 C 1883.44 932.309 1828.18 962.238 1799.82 968.358 C 1792.04 970.036 1787.54 954.025 1788.05 947.169 C 1789.5 927.558 1837.18 899.343 1824.66 878.384 L 1823.98 878.279 C 1815.83 876.961 1808.06 865.236 1802.13 858.738 C 1772.9 826.699 1735.58 793.328 1708.79 759.971 C 1698.97 747.737 1701.1 687.391 1702.05 670.064 C 1693.38 692.837 1682.69 710.289 1670.24 731.108 C 1671.06 732.436 1671.86 733.774 1672.66 735.119 C 1671.3 737.85 1669.49 738.839 1667.05 740.6 C 1666.72 792.322 1657.18 851.77 1645.14 902.145 C 1644.88 903.237 1638.38 904.298 1637.36 904.434 C 1637.2 906.964 1636.56 917.249 1636.96 919.157 C 1641.41 940.365 1645.31 947.174 1643.97 969.044 C 1676.24 969.014 1962.8 967.705 1966.35 970.833 C 1956.58 975.004 1865.04 973.096 1846.4 973.117 L 1595.08 973.146 L 1042.25 973.755 C 1046.13 973.175 1046.56 972.64 1049.42 969.931 C 1035.36 970.084 1032.27 970.959 1019.62 965.556 L 1018.69 967.486 C 1004.48 961.599 988.011 957.023 973.204 951.809 L 962.876 953.527 C 961.626 953.073 960.658 952.361 959.539 951.641 C 958.005 948.487 959.149 944.064 959.693 940.447 C 959.999 933.605 956.325 919.658 954.084 913.086 L 953.283 915.633 L 951.544 914.322 C 954.6 928.565 956.596 938.796 956.95 953.578 C 927.582 957.374 898.158 960.72 868.687 963.613 C 855.934 964.982 834.849 968.511 823.017 969.087 C 798.477 970.281 768.887 969.818 744.189 968.809 C 739.579 968.621 730.633 966.096 725.567 965.18 L 725.303 966.988 C 724.284 967.066 724.165 966.859 723.729 967.334 L 725.056 968.714 C 721.722 970.078 712.504 969.358 708.379 969.269 C 707.116 967.788 707.393 961.533 707.31 958.999 L 705.999 958.656 C 688.557 958.108 573.899 957.277 568.051 960.058 L 566.996 961.653 C 566.751 964.533 566.855 966.457 565.139 968.831 C 564.864 964.015 563.946 961.292 565.844 957.295 C 568.798 955.273 569.986 955.52 573.562 955.511 C 588.015 923.558 635.829 939.232 644.465 905.233 C 642.077 902.395 640.79 904.957 636.355 902.482 C 628.704 881.933 620.745 861.499 612.481 841.189 C 606.634 827.042 599.493 813.616 595.872 798.666 C 589.473 772.24 598.447 761.363 621.824 751.215 C 617.689 749.452 606.442 745.329 604.271 742.291 L 605.533 740.145 C 603.006 736.832 565.743 725.369 559.553 720.362 C 546.984 710.194 540.973 699.678 527.994 689.465 C 520.914 689.011 516.321 689.18 509.996 685.715 C 499.308 679.861 489.92 670.916 486.254 659.115 C 475.153 651.431 448.035 633.423 439.921 624.924 C 444.211 620.845 452.632 615.04 457.688 611.352 C 492.729 633.994 526.792 659.946 562.508 682.521 C 572.693 683.069 587.029 682.195 597.461 681.857 L 657.466 679.709 C 673.038 669.323 685.055 642.238 695.005 625.899 C 697.864 621.204 699.616 614.505 703.436 610.266 L 704.536 610.717 C 705.616 618.839 680.046 657.725 674.492 666.264 C 687.396 681.258 700.371 689.46 717.325 698.864 C 724.217 684.159 726.442 676.023 730.808 660.464 C 718.783 649.964 712.294 636.459 710.494 620.702 C 709.949 615.935 710.576 606.442 706.196 604.651 C 701.56 607.626 696.749 615.628 692.576 619.675 C 689.667 622.497 685.851 625.073 682.518 627.403 C 670.404 622.476 662.428 616.086 651.342 609.503 C 649.658 608.503 648.06 609.548 644.619 607.887 C 643.43 605.6 643.512 593.642 643.109 589.553 C 636.145 584.645 633.481 581.185 628.93 574.391 C 622.685 578.671 599.264 593.939 592.434 589.841 C 592.337 584.128 604.344 568.147 608.129 562.736 C 597.553 539.788 593.758 516.133 613.833 496.084 C 641.716 468.238 692.018 467.072 713.561 503.655 C 718.388 511.015 718.757 511.691 718.635 519.051 C 718.54 524.759 738.617 552.915 741.645 557.519 L 751.811 562.052 C 768.352 560.048 801.967 561.591 817.768 567.107 C 878.431 590.61 918.289 645.617 948.412 702.585 C 970.192 743.774 992.318 811.643 988.298 860.229 C 987.568 869.05 979.516 862.482 976.371 865.105 C 959.477 879.199 942.891 890.165 923.137 900.053 C 934.49 901.871 944.424 901.851 953.994 908.01 C 971.852 905.224 986.325 874.328 996.828 882.963 C 1008.44 892.512 1076.11 959.178 1078.61 969.255 C 1084.1 970.039 1111.45 969.418 1118.63 969.383 L 1207.31 969.128 L 1525.2 969.155 C 1524.59 968.443 1523.94 967.691 1523.43 966.911 C 1508.85 944.717 1538.23 936.751 1553.97 931.94 C 1568.98 927.354 1582.21 918.246 1595.8 910.705 C 1598.19 909.382 1599.59 910.886 1602.66 908.753 L 1602.8 905.751 C 1601.29 903.025 1601.33 903.775 1597.43 902.539 C 1595.57 899.813 1593.51 852.572 1593.08 845.163 C 1591.63 821.1 1590.04 797.045 1588.32 772.999 C 1587.63 762.885 1585.31 735.697 1586.41 726.374 C 1590.98 687.839 1603.73 649.663 1614.16 612.467 C 1621.77 585.34 1635.15 556.961 1639.76 530.188 C 1640.88 523.676 1638.54 494.967 1634.59 490.475 C 1625.07 490.597 1605.96 486.091 1596.03 483.975 C 1600.78 491.201 1614.79 511.488 1616.94 518.584 C 1616.4 522.085 1616.27 522.501 1613.86 525.196 C 1606.13 528.885 1523.52 528.073 1509.21 528.044 C 1503.84 521.864 1487.49 497.072 1483.63 489.889 C 1478.33 481.393 1478.76 485.661 1469.45 486.086 C 1462.78 484.075 1455.44 469.96 1452.11 464.124 C 1448.83 458.363 1448.98 458.472 1450.56 453.03 C 1445.85 449.723 1415.13 401.913 1410.72 393.952 C 1408.11 390.853 1404.84 386.899 1405.04 382.603 C 1405.17 379.982 1406.82 377.878 1408.71 376.198 C 1412.31 372.986 1496.2 373.461 1505.97 374.564 C 1509.21 374.929 1512.53 375.208 1515.03 377.524 C 1524.44 386.244 1528.35 400.339 1536.76 410.056 C 1543.83 418.237 1554.4 421.795 1561.19 430.294 C 1568.86 431.74 1577.99 432.72 1585.83 433.751 C 1593.1 405.668 1601.6 373.25 1617.39 348.51 C 1620.43 343.756 1629.15 332.806 1623.94 327.797 C 1618.42 326.928 1617.38 331.264 1612.1 333.359 C 1588.78 342.616 1578.03 321.627 1570.37 303.962 C 1567.33 302.335 1564.86 300.842 1561.95 299.009 C 1557.08 295.435 1554.18 292.693 1552.07 286.958 C 1549.68 281.777 1549.86 279.915 1549.75 274.344 C 1544.14 274.898 1532.16 277.833 1531.38 270.316 C 1534.4 263.181 1550.83 253.059 1557.63 248.52 z" fill="rgb(4,8,17)" transform="translate(0,0)"></path>
<path d="M 689.347 899.016 C 674.293 899.472 654.934 902.021 640.493 899.092 C 637.996 898.586 626.862 867.453 625.753 863.673 C 615.809 829.776 566.507 766.841 628.105 754.198 C 657.446 767.71 709.212 793.295 740.222 791.819 C 752.789 784.55 757.355 776.605 764.395 764.459 C 810.441 775.912 834.366 784.153 874.101 811.953 C 893.653 825.632 914.336 840.835 936.01 850.382 C 912.452 891.926 830.431 909.057 791.609 935.058 C 785.092 939.422 778.336 942.333 779.491 951.39 C 780.899 953.735 781.764 955.188 784.472 956.113 C 796.088 960.084 900.863 910.446 918.674 902.449 C 928.13 904.839 937.519 904.756 946.563 907.948 C 950.287 909.262 950.038 910.648 951.544 914.322 C 954.6 928.565 956.596 938.796 956.95 953.578 C 927.582 957.374 898.158 960.72 868.687 963.613 C 855.934 964.982 834.849 968.511 823.017 969.087 C 798.477 970.281 768.887 969.818 744.189 968.809 C 739.579 968.621 730.633 966.096 725.567 965.18 C 721.513 961.613 713.791 959.688 709.043 956.231 C 705.242 953.463 703.235 949.436 702.621 944.845 C 697.383 905.652 782.176 845.458 811.815 826.622 C 821.44 820.505 844.628 810.109 850.639 802.362 C 836.238 803.32 781.679 842.581 768.081 853.091 C 741.412 844.118 711.695 833.114 685.445 822.903 C 682.084 816.261 666.018 785.882 661.675 782.078 L 659.924 782.207 L 659.339 783.677 C 662.618 790.949 671.348 805.157 675.746 812.742 C 669.115 809.087 643.218 793.946 638.242 794.586 C 643.311 800.903 670.127 813.449 679.524 819.252 C 682.324 843.287 685.207 875.819 689.347 899.016 z" fill="rgb(29,125,126)" transform="translate(0,0)"></path>
<path d="M 1643.39 438.274 C 1657.14 409.162 1675.61 342.325 1707.79 326.636 C 1711.64 324.758 1718.87 326.172 1722.79 328.299 C 1735.02 334.941 1740.75 349.86 1744.59 362.384 C 1758.14 406.515 1755.79 448.312 1778.14 489.415 C 1772.34 495.148 1766.23 500.803 1758.98 504.685 C 1744.33 485.666 1725.9 459.454 1713.75 438.623 C 1726.56 420.114 1733.39 410.427 1741.32 389.271 C 1723.23 412.074 1691.15 483.179 1658.88 488.584 C 1654.27 489.357 1641.46 488.126 1636.36 487.619 C 1609.99 484.317 1583.98 478.514 1558.7 470.289 C 1563.84 457.464 1566.32 448.601 1563.61 434.677 C 1588.41 438.207 1615.73 441.253 1640.86 441.884 C 1644.48 441.975 1653.88 439.372 1655.59 435.99 L 1654.57 435.161 C 1649.93 435.819 1647.83 436.666 1643.39 438.274 z" fill="rgb(254,254,253)" transform="translate(0,0)"></path>
<path d="M 1410.72 393.952 C 1410.64 390.537 1410.06 390.509 1411.78 388.084 C 1418.32 386.892 1440.19 387.424 1447.96 387.43 C 1467.42 387.446 1486.88 387.256 1506.33 386.86 C 1518.92 401.185 1525.81 418.666 1540.8 433.41 C 1528.24 434.004 1520.25 433.737 1508.34 429.7 C 1504.16 428.285 1494.16 423.384 1491.01 424.036 L 1490.36 424.787 C 1490.28 425.81 1489.91 427.351 1490.49 427.768 C 1499.74 434.452 1514.07 437.035 1524.56 442.871 L 1524.41 443.472 C 1513.05 441.67 1501.46 435.624 1494.09 434.614 L 1491.79 433.496 C 1486.19 443.209 1496.75 444.593 1497.33 452.701 C 1497.48 454.698 1504.61 459.145 1506.39 459.964 C 1523.33 468.857 1538.86 466.054 1556.83 467.909 C 1557.59 467.988 1558.27 469.519 1558.7 470.289 C 1583.98 478.514 1609.99 484.317 1636.36 487.619 L 1634.59 490.475 C 1625.07 490.597 1605.96 486.091 1596.03 483.975 C 1600.78 491.201 1614.79 511.488 1616.94 518.584 C 1616.4 522.085 1616.27 522.501 1613.86 525.196 C 1606.13 528.885 1523.52 528.073 1509.21 528.044 C 1503.84 521.864 1487.49 497.072 1483.63 489.889 C 1478.33 481.393 1478.76 485.661 1469.45 486.086 C 1462.78 484.075 1455.44 469.96 1452.11 464.124 C 1448.83 458.363 1448.98 458.472 1450.56 453.03 C 1445.85 449.723 1415.13 401.913 1410.72 393.952 z" fill="rgb(21,37,54)" transform="translate(0,0)"></path>
<path d="M 1450.56 453.03 L 1452.46 452.854 L 1453.14 453.494 C 1460.05 459.872 1463.38 453.915 1470.8 456.669 C 1474.18 460.448 1485.69 473.994 1485.49 478.877 C 1485.37 481.712 1482.8 484.718 1483.63 489.889 C 1478.33 481.393 1478.76 485.661 1469.45 486.086 C 1462.78 484.075 1455.44 469.96 1452.11 464.124 C 1448.83 458.363 1448.98 458.472 1450.56 453.03 z" fill="rgb(4,8,17)" transform="translate(0,0)"></path>
<path d="M 1476.82 469.352 C 1477.74 469.881 1478.4 470.721 1479.16 471.52 C 1477.26 474.127 1468.67 476.595 1465 477.879 C 1463.15 476.367 1462.64 475.237 1462.86 473.111 C 1466.06 470.874 1472.72 470.108 1476.82 469.352 z" fill="rgb(254,254,253)" transform="translate(0,0)"></path>
<path d="M 1479.71 476.207 C 1480.12 476.203 1482.75 476.78 1483.33 476.899 C 1483.49 478.074 1483.48 477.993 1483.13 479.128 C 1479.73 481.571 1475.74 481.903 1471.61 482.61 C 1470.11 482.465 1469.35 482.022 1467.93 481.467 L 1468.01 480.215 C 1471.14 478.161 1475.99 477.187 1479.71 476.207 z" fill="rgb(254,254,253)" transform="translate(0,0)"></path>
<path d="M 1452.24 457.735 C 1458.23 458.597 1463.31 459.143 1469.33 459.632 L 1470.65 461.359 C 1462.07 463.037 1457.31 465.871 1452.24 457.735 z" fill="rgb(254,254,253)" transform="translate(0,0)"></path>
<path d="M 1472.07 464.518 C 1472.33 464.656 1472.68 465.491 1472.86 465.833 C 1470.18 467.922 1463.3 469.299 1459.68 470.252 L 1458.65 467.413 C 1460.66 465.34 1468.78 464.953 1472.07 464.518 z" fill="rgb(254,254,253)" transform="translate(0,0)"></path>
<path d="M 1585.07 481.56 C 1589.23 482.259 1591.43 483.549 1593.63 487.175 C 1597.82 494.079 1614.32 514.87 1612.89 522.469 L 1610.73 522.388 C 1607.68 519.932 1588.23 486.748 1585.07 481.56 z" fill="rgb(254,254,253)" transform="translate(0,0)"></path>
<path d="M 982.099 893.927 C 991.76 902.551 1053.73 963.62 1056.23 969.429 C 1053.24 970.012 1052.47 970.027 1049.42 969.931 C 1035.36 970.084 1032.27 970.959 1019.62 965.556 L 1018.58 963.138 L 1022.06 955.653 L 1021.61 954.71 C 1018.08 957.37 1011.02 963.658 1007.16 958.75 C 1008.46 955.658 1011.22 951.589 1010.83 948.996 C 1006.52 950.516 1005.43 953.633 1003.11 957.76 L 995.388 954.935 C 997.295 951.257 999.967 947.114 999.852 943.09 L 998.576 942.91 C 995.333 945.962 993.957 950.176 992.219 954.301 C 988.295 953.184 984.053 952.098 980.315 950.528 C 981.004 948.733 981.592 948.33 982.917 946.986 C 983.446 937.266 970.683 915.364 965.193 906.97 L 982.099 893.927 z" fill="rgb(248,196,100)" transform="translate(0,0)"></path>
<path d="M 1490.36 424.787 C 1500.7 428.665 1535.13 442.155 1543.93 433.752 L 1544.12 432.103 C 1536.72 424.192 1510.93 385.331 1507.65 384.686 C 1497.6 382.707 1423.13 384.882 1410.17 383.693 L 1409.15 382.351 C 1409.49 381.094 1409.95 378.906 1411.45 378.811 C 1443.54 377.08 1477.34 376.867 1509.51 378.635 C 1516.3 379.008 1531.76 413.123 1538.92 417.649 C 1563.83 433.388 1565.34 437.059 1557.42 465.649 C 1546.11 465.003 1532.73 464.458 1521.69 462.56 L 1522.97 459.07 C 1519.73 453.589 1498.27 449.416 1495.44 442.917 C 1498.7 438.927 1516.67 452.664 1523.74 450.791 C 1520.89 444.886 1497.1 441.867 1494.09 434.614 C 1501.46 435.624 1513.05 441.67 1524.41 443.472 L 1524.56 442.871 C 1514.07 437.035 1499.74 434.452 1490.49 427.768 C 1489.91 427.351 1490.28 425.81 1490.36 424.787 z" fill="rgb(254,254,253)" transform="translate(0,0)"></path>
<path d="M 954.084 913.086 C 956.411 910.583 955.997 911.298 959.915 910.451 C 968.724 913.425 977.983 937.199 979.948 946.09 C 974.479 947.7 966.939 950.914 962.003 949.524 C 959.316 946.092 960.136 945.62 959.693 940.447 C 959.999 933.605 956.325 919.658 954.084 913.086 z" fill="rgb(254,254,253)" transform="translate(0,0)"></path>
<path d="M 1552.07 286.958 C 1553.2 284.32 1553.04 279.495 1553.38 276.257 C 1555.97 273.213 1557.25 273.844 1561.93 273.303 C 1564.09 282.102 1566.46 290.848 1569.03 299.534 C 1566.19 300.112 1565.06 297.829 1561.95 299.009 C 1557.08 295.435 1554.18 292.693 1552.07 286.958 z" fill="url(#Gradient3)" transform="translate(0,0)"></path>
<path d="M 708.379 969.269 C 708.641 966.402 708.546 965.028 709.922 962.475 C 714.041 962.211 716.553 965.567 723.729 967.334 L 725.056 968.714 C 721.722 970.078 712.504 969.358 708.379 969.269 z" fill="rgb(254,254,253)" transform="translate(0,0)"></path>
<path d="M 1521.69 462.56 C 1512.27 459.361 1507.4 456.932 1499.82 450.595 C 1504.48 452.75 1518.5 460.027 1522.97 459.07 L 1521.69 462.56 z" fill="rgb(254,254,253)" transform="translate(0,0)"></path>
<path d="M 1744.72 535.126 C 1746.31 535.879 1751.42 544.832 1753.39 547.064 C 1769.54 565.393 1797.18 572.37 1819.68 575.395 C 1827.07 609.634 1818.56 652.151 1807.5 684.672 C 1803.72 695.764 1798.33 706.343 1794.49 717.404 C 1789.66 720.109 1776.57 726.903 1773.57 731.142 L 1774.52 732.173 C 1781.04 731.254 1792.79 720.678 1797.45 723 C 1796.55 727.937 1783.54 738.235 1781.71 744.529 L 1783.3 744.837 C 1786.77 743.29 1791.25 738.074 1794.07 735.155 C 1815.93 763.67 1837.67 806.014 1853.21 838.028 C 1844.48 844.735 1832.46 851.18 1822.43 855.62 L 1809.05 860.84 C 1787.16 836.893 1763.82 814.106 1741.31 790.735 C 1732.08 781.158 1720.33 771.087 1713.24 759.956 C 1696.24 733.277 1709 625.826 1710.62 591.272 C 1711.23 578.277 1713.18 561.086 1709.68 548.716 L 1708.25 548.397 C 1705.19 553.173 1708.94 588.242 1705.26 598.255 C 1690.03 602.654 1695.77 555.58 1695.9 546.492 C 1714.15 541.723 1723.76 542.215 1744.72 535.126 z" fill="rgb(29,125,126)" transform="translate(0,0)"></path>
<path d="M 1663.91 543.85 C 1670.55 545.584 1684.74 545.731 1692.09 545.927 C 1692.26 558.549 1691.39 571.151 1691.49 583.737 C 1691.58 596.339 1694.02 600.97 1706.35 603.087 C 1704.91 617.554 1704.58 640.794 1702.77 653.857 C 1699.91 674.572 1677.22 714.583 1664.98 730.977 C 1660.25 732.609 1646.62 736.943 1644.3 740.737 L 1645.39 741.372 C 1653.15 740.217 1661.5 736.342 1668.88 733.341 C 1663.08 740.174 1649.23 753.577 1645.56 760.152 L 1646.28 761.459 C 1651.26 760.469 1659.34 749.575 1663.37 744.974 C 1663.49 776.209 1657.64 813.341 1652.93 844.239 C 1650.75 857.652 1648.77 869.31 1646.08 882.687 C 1627.38 885.36 1617.84 886.79 1598.81 882.293 L 1592.73 781.126 C 1592.04 770.818 1588.91 735.397 1589.93 727.897 C 1596.05 682.758 1612.21 629.335 1626.63 586.143 C 1644.58 576.801 1655.08 561.253 1663.91 543.85 z" fill="rgb(29,125,126)" transform="translate(0,0)"></path>
<path d="M 781.449 565.143 C 894.02 561.852 993.583 761.562 984.665 861.902 L 969.238 857.721 C 946.007 851.47 930.082 844.658 909.799 832.278 C 905.851 772.553 879.748 699.372 842.441 652.038 C 849.211 639.06 843.88 628.492 834.289 618.404 C 814.183 597.254 791.14 587.564 762.139 586.554 C 767.176 578 771.262 567.233 781.449 565.143 z" fill="rgb(248,196,100)" transform="translate(0,0)"></path>
<path d="M 923.46 820.055 C 928.638 821.471 973.198 839.877 976.814 842.614 L 977.159 845.556 C 971.28 845.249 936.367 827.72 927.689 825.213 C 925.063 824.455 924.33 822.44 923.46 820.055 z" fill="rgb(4,8,17)" transform="translate(0,0)"></path>
<path d="M 729.429 677.647 C 747.335 694.159 762.328 702.189 783.636 712.994 C 775.301 738.006 761.941 768.784 742.293 786.896 C 733.058 789.107 726.686 788.729 717.619 786.19 C 689.134 778.212 660.76 765.795 634.223 753.059 C 626.812 749.337 617.026 745.301 609.301 741.849 C 612.129 737.317 614.807 732.905 616.925 727.981 C 618.647 723.977 617.362 720.926 619.485 718.391 C 627.96 717.852 648.439 718.755 657.888 720.093 C 675.751 722.622 707.361 716.835 718.214 733.116 C 720.314 736.266 720.634 741.1 723.396 743.483 C 728.066 735.786 716.521 725.736 710.888 721.969 L 711.918 721.019 C 717.752 721.225 722.517 722.214 727.938 724.461 L 728.301 723.492 C 723.045 717.167 716.984 717.074 709.423 717.795 C 719.709 703.27 723.563 694.548 729.429 677.647 z" fill="rgb(254,254,253)" transform="translate(0,0)"></path>
<path d="M 759.905 590.087 C 761.629 590.032 763.353 590.015 765.078 590.036 C 790.41 590.373 837.722 610.384 841.693 641.448 C 842.829 650.325 824.816 668.186 818.042 674.671 C 822.012 664.675 829.625 651.405 831.143 640.916 L 829.764 642.293 L 830.89 640.725 L 830.503 642.746 L 829.232 643.042 C 824.374 651.094 820.3 660.7 816.384 669.333 C 808.363 684.687 803.892 698.374 793.839 713.435 C 766.371 700.98 752.235 693.935 730.09 673.11 C 741.639 645.7 743.554 620.138 759.905 590.087 z" fill="rgb(254,254,253)" transform="translate(0,0)"></path>
<path d="M 860.45 685.892 C 863.076 688.446 869.566 701.976 871.245 705.534 C 891.511 748.482 900.793 783.7 906.502 830.417 C 889.5 818.356 873.786 806.865 856.005 795.885 C 845.741 789.546 828.523 782.345 820.103 776.307 C 822.511 762.523 818.738 757.088 814.187 744.381 C 810.234 735.877 808.669 732.146 803.731 723.851 L 814.001 719.342 C 822.202 737.402 827.792 751.859 828.293 771.934 C 838.622 777.254 857.443 789.458 867.392 791.253 L 868.27 790.551 C 865.917 787.813 837.887 772.997 832.2 769.719 C 830.499 749.807 825.063 735.583 817.436 717.649 C 835.369 709.388 847.219 700.131 860.45 685.892 z" fill="rgb(248,196,100)" transform="translate(0,0)"></path>
<path d="M 1603.65 267.361 C 1617.17 266.304 1610.4 273.547 1619.07 277.022 C 1625.19 276.148 1622.94 268.918 1630.73 269.911 C 1641.65 277.455 1636.4 283.796 1631.43 292.169 C 1633.05 294.6 1632.17 294.051 1634.62 294.638 L 1636.75 291.927 C 1638.92 291.508 1639.98 293.958 1642.09 296.375 C 1649.77 305.149 1660.73 314.612 1670.64 320.621 C 1667.22 341.941 1655.08 356.579 1635.3 364.799 C 1624.1 366.551 1625.87 358.776 1627.44 351.003 C 1630.18 337.428 1629.37 332.166 1622.7 320.535 C 1586.19 354.488 1569.48 301.703 1566.43 272.956 C 1578.12 270.774 1591.73 269.086 1603.65 267.361 z" fill="rgb(254,254,253)" transform="translate(0,0)"></path>
<path d="M 1581.79 279.294 C 1587.37 278.559 1607.55 278.329 1610.14 283.694 C 1606.95 283.865 1584.68 283.027 1582.27 282.162 L 1581.79 279.294 z" fill="rgb(4,8,17)" transform="translate(0,0)"></path>
<path d="M 1588.49 287.241 C 1591.76 287.686 1592.19 287.754 1594.48 290.095 C 1595.91 293.318 1595.49 294.657 1595.05 298.155 C 1591.78 297.561 1591.25 297.496 1588.79 295.095 C 1587.36 291.968 1587.89 290.551 1588.49 287.241 z" fill="rgb(4,8,17)" transform="translate(0,0)"></path>
<path d="M 1604.65 309.735 L 1605.03 312.492 C 1602.79 319.533 1597.71 321.098 1590.87 320.935 C 1590.27 319.046 1590.34 319.991 1590.73 317.992 C 1597.78 316.701 1600.14 315.111 1604.65 309.735 z" fill="rgb(4,8,17)" transform="translate(0,0)"></path>
<path d="M 1626.32 274.269 L 1629.22 275.264 C 1631.39 277.694 1631.3 280.832 1631.73 284.247 C 1627.59 282.454 1627.27 278.328 1626.32 274.269 z" fill="rgb(4,8,17)" transform="translate(0,0)"></path>
<path d="M 657.665 550.944 C 694.016 573.511 679.507 544.858 694.003 540.198 C 701.065 540.809 705.89 551.714 705.828 557.982 C 703.985 561.658 702.514 563.811 700.185 567.223 L 701.379 568.968 C 703.545 568.414 706.793 565.053 706.6 565.019 C 725.508 568.377 722.951 571.174 740.418 560.205 C 743.584 561.837 747.192 563.807 750.414 565.193 C 741.01 580.12 734.625 599.279 726.58 612.362 C 718.265 607.774 711.845 604.174 704.459 598.1 C 698.245 608.764 693.109 616.07 682.721 623.253 C 676.47 620.618 666.028 615.702 660.63 611.777 C 666.243 607.876 673.064 603.561 672.206 595.517 C 665.045 595.982 656.575 610.959 648.087 603.541 C 646.173 600.15 646.891 594.194 647.274 590.223 C 648.325 586.319 648.756 586.111 651.569 584.002 C 656.636 579.614 659.21 572.719 653.058 568.073 C 650.787 572.82 652.529 576.691 649.886 579.591 C 646.846 578.573 642.254 573.304 641.033 570.38 C 644.185 564.7 661.302 565.013 668.371 563.133 C 658.454 561.475 651.114 560.951 641.184 564.076 C 646.48 559.851 652.308 554.969 657.665 550.944 z" fill="rgb(254,254,253)" transform="translate(0,0)"></path>
<path d="M 692.802 545.984 C 695.018 546.794 695.994 547.386 697.484 549.21 C 699.556 551.73 700.528 554.977 700.182 558.221 C 697.134 556.517 692.621 549.753 692.802 545.984 z" fill="rgb(4,8,17)" transform="translate(0,0)"></path>
<path d="M 658.437 479.289 C 683.605 476.067 702.513 489.999 713.968 511.054 C 676.82 520.25 664.125 528.042 633.76 548.686 C 628.195 529.741 632.631 510.978 648.711 498.828 C 651.369 497.437 654.389 496.42 654.817 493.368 C 640.503 491.311 625.405 522.369 628.41 534.819 C 629.578 539.656 629.728 545.649 630.871 551.068 C 625.741 553.331 614.981 555.869 609.232 557.342 C 591.642 514.496 615.499 484.762 658.437 479.289 z" fill="rgb(248,196,100)" transform="translate(0,0)"></path>
<path d="M 1606.67 203.246 C 1641.57 201.455 1659.26 217.751 1666.77 250.763 C 1651.89 252.012 1636.68 252.171 1621.75 252.335 C 1596.29 252.317 1586.34 252.136 1560.89 247.442 C 1569.81 219.279 1577.18 210.358 1606.67 203.246 z" fill="rgb(248,196,100)" transform="translate(0,0)"></path>
<path d="M 1620.14 210.165 C 1623.29 209.911 1627.84 209.44 1630.64 210.659 L 1630.23 211.955 C 1624.82 215.434 1616.32 213.906 1609.66 217.289 C 1599.05 222.677 1594.4 230.704 1590.53 241.187 C 1589.76 245.001 1590.25 245.847 1587.98 248.212 L 1586.59 247.253 C 1585.72 242.482 1589.47 233.069 1592.07 229.006 C 1599.51 217.387 1607.56 213.343 1620.14 210.165 z" fill="rgb(4,8,17)" transform="translate(0,0)"></path>
<path d="M 684.171 826.412 C 707.602 834.877 741.199 846.368 763.407 856.105 C 749.571 867.906 736.424 880.491 724.033 893.8 C 712.423 906.657 704.955 915.667 699.775 932.052 C 698.279 927.183 696.891 921.799 694.361 917.43 C 681.467 910.944 692.272 902.525 692.074 900.244 C 689.941 875.644 686.908 850.968 684.171 826.412 z" fill="rgb(254,254,253)" transform="translate(0,0)"></path>
<path d="M 672.89 670.675 C 674.986 672.064 679.526 676.636 681.596 678.547 C 692.152 688.289 703.055 695.241 715.373 702.399 C 714.466 704.054 713.498 705.673 712.47 707.254 C 710.4 710.444 705.865 717.875 702.474 718.607 L 702.236 716.202 C 699.952 715.568 699.452 716.199 697.389 717.317 C 691.573 720.469 627.043 715.214 616.224 713.827 C 613.888 711.905 610.983 708.927 608.74 706.755 C 597.182 695.134 584.251 691.919 569.177 686.106 C 583.691 686.263 600.928 685.145 615.696 684.718 C 627.144 684.386 652.693 684.21 663.15 681.764 C 666.149 685.58 670.009 691.472 674.192 693.285 L 674.425 691.86 C 672.346 686.711 668.689 683.035 665.057 678.829 C 667.496 676.733 670.619 673.14 672.89 670.675 z" fill="rgb(254,254,253)" transform="translate(0,0)"></path>
<path d="M 939.691 851.845 C 948.861 855.862 963.285 859.976 972.919 862.726 C 942.373 892.493 851.261 929.295 808.242 946.453 C 801.687 948.966 788.892 955.685 782.831 949.758 C 781.937 934.653 897.167 893.782 913.759 879.331 C 927.133 867.682 929.321 867.934 939.691 851.845 z" fill="rgb(29,125,126)" transform="translate(0,0)"></path>
<path d="M 1710.77 442.596 C 1711.02 442.743 1747.81 496.867 1756.94 506.046 C 1729.2 523.375 1696.21 528.793 1664.02 528.141 C 1656.63 527.388 1651.31 526.667 1644.01 525.261 C 1643.23 518.815 1642.52 512.361 1641.88 505.899 C 1644.24 508.173 1647.67 511.34 1650.83 512.156 C 1670.05 517.127 1702.72 512.91 1717.18 499.664 C 1710.27 487.815 1703.67 474.731 1697.27 462.508 C 1702.2 455.698 1706.48 449.82 1710.77 442.596 z" fill="rgb(29,125,126)" transform="translate(0,0)"></path>
<path d="M 449.517 621.942 L 457.913 615.47 C 488.464 636.532 519.862 658.472 550.584 679.012 C 580.063 698.72 590.391 690.391 615.631 719.253 C 613.292 726.521 612.055 729.716 608.65 736.537 C 598.807 733.245 559.5 718.733 555.52 712.664 C 537.616 685.363 511.757 676.388 488.089 655.999 L 489.103 653.664 C 513.647 669.374 536.953 687.608 559.735 705.685 C 563.542 708.706 577.379 711.055 581.954 706.678 C 581.179 698.144 551.258 680.792 540.926 681.288 C 539.986 682.296 539.372 683.057 538.209 683.831 L 479.173 642.243 C 471.472 636.864 457.312 626.351 449.517 621.942 z" fill="rgb(254,254,253)" transform="translate(0,0)"></path>
<path d="M 1827 897.036 C 1832.67 898.964 1840.98 902.749 1846.31 900.974 C 1849.06 891.072 1851.18 892.781 1860.03 890.894 C 1866.14 889.593 1866.78 885.196 1869.63 880.372 L 1871.87 879.941 C 1879.52 883.106 1887.36 893.135 1891.62 900.128 C 1875.64 914.709 1855.34 926.13 1836.81 937.408 C 1828.53 941.531 1814.11 947.764 1807.04 951.607 C 1805.09 952.127 1803.13 952.626 1801.16 953.103 C 1796.52 954.21 1796.07 954.284 1792.27 951.94 C 1787.69 941.257 1804.83 926.592 1812.28 920.312 C 1819.95 922.472 1823.1 923.66 1829.56 928.32 C 1833.43 923.898 1841.09 915.416 1842.78 909.97 L 1842.08 908.841 C 1840.16 909.439 1840.01 909.811 1838.54 911.33 L 1838.1 911.792 C 1833.4 909.024 1826.69 908.114 1823.94 905.139 C 1823.8 901.306 1824.83 900.958 1827 897.036 z" fill="rgb(254,254,253)" transform="translate(0,0)"></path>
<path d="M 687.626 917.765 C 693.675 920.409 695.208 929.114 698.609 934.686 C 698.389 942.398 699.735 947.297 700.4 954.53 C 689.635 957.02 671.671 955.098 660.301 955.054 C 632.887 954.912 605.472 954.943 578.059 955.147 C 578.651 953.559 579.336 952.007 580.11 950.499 C 586.24 938.701 613.304 934.947 625.119 931.222 C 627.93 933.465 635.289 943.64 637.148 944.098 C 644.448 945.893 679.933 922.549 687.626 917.765 z" fill="rgb(248,196,100)" transform="translate(0,0)"></path>
<path d="M 1624.53 934.031 L 1634.98 929.045 C 1638.8 940.626 1640.09 945.934 1641.12 958.081 C 1619.55 958.192 1586.24 957.198 1565.6 958.312 C 1551.74 958.235 1545.31 958.836 1531.84 954.822 C 1527.93 952.254 1527.81 953.11 1526.7 949.552 C 1529.44 941.782 1546.52 938.265 1554.06 936.33 C 1558.59 940.648 1563.19 944.9 1567.85 949.085 C 1582.64 944.467 1598.45 936.966 1612.65 930.493 C 1616.37 931.683 1620.77 933.227 1624.53 934.031 z" fill="rgb(254,254,253)" transform="translate(0,0)"></path>
<path d="M 1673.72 320.647 C 1677.73 321.055 1680.44 321.125 1684.17 322.65 C 1682.37 328.81 1674.23 340.791 1670.94 346.916 C 1660.29 366.783 1654.87 387.316 1651.4 409.447 C 1641.81 411.341 1632.18 413.087 1622.53 414.684 C 1619.46 415.303 1620.08 415.704 1618.15 414.459 C 1617 404.021 1619.07 376.01 1623.42 366.212 C 1626.32 364.767 1629.72 370.171 1633.09 368.972 C 1655.76 360.9 1670.48 344.254 1673.72 320.647 z" fill="rgb(254,254,253)" transform="translate(0,0)"></path>
<path d="M 786.665 714.271 C 789.044 715.699 795.137 717.007 795.991 718.147 C 802.154 726.375 823.464 766.014 815.532 774.045 C 812.197 774.297 806.53 771.98 803.133 770.831 C 790.34 767.27 778.973 764.296 766.017 761.435 C 774.829 745.537 780.807 731.399 786.665 714.271 z" fill="rgb(254,254,253)" transform="translate(0,0)"></path>
<path d="M 1694.53 465.72 C 1697.24 468.402 1709.83 494.809 1712.24 499.798 C 1697.47 508.665 1675.69 511.469 1658.78 510.045 C 1650.06 510.171 1639.25 501.732 1640.05 492.977 C 1642.86 491.34 1652.41 492.994 1657.72 492.368 C 1675.11 490.32 1684.43 478.321 1694.53 465.72 z" fill="rgb(29,125,126)" transform="translate(0,0)"></path>
<path d="M 839.612 655.478 C 845.635 659.373 854.896 675.466 858.992 682.169 C 846.841 695.809 839.08 701.975 823.257 711.042 C 820.897 712.328 817.657 713.78 815.172 714.986 C 811.928 708.712 809.975 705.299 805.981 699.492 C 809.161 693.369 812.121 687.134 814.857 680.801 C 825.58 673.064 832.115 666.2 839.612 655.478 z" fill="rgb(248,196,100)" transform="translate(0,0)"></path>
<path d="M 712.501 522.726 L 714.35 522.82 C 717.156 525.728 736.553 555.539 736.588 558.02 C 734.161 561.079 728.768 563.495 725.005 564.29 C 698.604 569.867 714.487 547.12 694.337 535.83 C 679.307 542.764 688.755 554.367 676.69 557.342 C 674.351 557.918 660.936 552.511 661.031 547.673 C 666.606 542.024 701.901 528.342 712.501 522.726 z" fill="rgb(21,37,54)" transform="translate(0,0)"></path>
<path d="M 990.118 884.776 C 990.643 884.837 991.169 884.895 991.69 884.984 C 994.211 885.413 995.988 886.28 997.968 887.895 C 1012.83 900.02 1032.66 922.947 1046.54 937.38 C 1055.09 946.268 1066.79 956.004 1073.76 966.071 C 1074.31 966.867 1073.88 967.704 1073.71 968.625 L 1071.01 969.936 C 1067.73 970.021 1064.74 970.206 1061.61 969.107 C 1053.53 960.4 985.299 891.301 985.038 890.268 C 986.477 886.839 986.789 887.387 990.118 884.776 z" fill="rgb(254,254,253)" transform="translate(0,0)"></path>
<path d="M 1789.84 508.743 C 1797.31 512.987 1811.29 545.622 1814.45 554.634 C 1805.22 552.836 1797.34 550.96 1788.23 548.628 C 1773.1 543.21 1768.47 540.385 1755.56 530.552 C 1768.31 524.481 1779.03 517.833 1789.84 508.743 z" fill="rgb(29,125,126)" transform="translate(0,0)"></path>
<path d="M 1560.8 250.775 C 1587.35 257.933 1618.75 255.872 1646.11 255.229 C 1652.24 255.085 1663.28 253.304 1668.48 256.032 L 1668.94 257.746 C 1666.05 261.124 1639.89 261.418 1633.46 261.922 C 1603.54 261.731 1565.29 269.797 1532.1 271.777 C 1541.33 265.418 1551.52 257.478 1560.8 250.775 z" fill="rgb(248,196,100)" transform="translate(0,0)"></path>
<path d="M 710.98 515.209 C 712.048 515.036 713.322 515.153 714.434 515.188 L 715.528 516.649 C 711.848 521.825 677.346 532.871 669.317 538.215 C 643.691 555.27 630.21 572.331 601.416 585.757 L 598.181 586.208 C 598.072 580.734 610.38 565.193 614.168 559.678 C 636.709 554.365 643.289 544.728 662.736 533.732 C 676.953 525.693 695.194 519.225 710.98 515.209 z" fill="rgb(248,196,100)" transform="translate(0,0)"></path>
<path d="M 1623.3 345.781 C 1624.67 348.822 1617.18 375.011 1616.33 383.066 C 1614.72 398.433 1614.37 405.024 1614.93 420.323 C 1626.41 418.138 1637.85 416.042 1649.24 413.383 C 1647.64 418.571 1645.37 423.869 1643.33 428.927 L 1639.27 438.34 C 1632.72 437.956 1616.62 437.441 1610.86 435.126 C 1605.32 425.175 1608.77 382.367 1610.62 368.992 C 1611.33 363.891 1619.91 350.441 1623.3 345.781 z" fill="rgb(29,125,126)" transform="translate(0,0)"></path>
<path d="M 1565.6 958.312 C 1561.1 959.778 1553.23 959.474 1548.27 959.458 C 1551.93 961.708 1626.61 958.189 1640.29 961.379 C 1640.79 964.482 1640.86 965.013 1640.42 968.112 C 1631.95 971.098 1552.74 968.806 1538.24 968.999 C 1535.33 969.037 1529.35 967.38 1526.52 966.104 C 1523.35 964.68 1523.14 961.898 1521.86 958.501 C 1524.74 953.668 1530.73 960.076 1535.22 958.378 C 1534.43 955.99 1534.44 956.622 1531.84 954.822 C 1545.31 958.836 1551.74 958.235 1565.6 958.312 z" fill="url(#Gradient2)" transform="translate(0,0)"></path>
<path d="M 1836.81 937.408 L 1837.72 939.258 C 1846.03 939.844 1880.5 914.867 1888.17 907.958 C 1894.54 902.219 1894.51 903.552 1898.69 910.063 C 1894.35 921.721 1814.52 965.893 1797.21 964.236 C 1795.73 960.52 1795.5 961.608 1796.61 958.49 C 1799.58 956.965 1800.87 957.103 1804.12 956.99 C 1801.72 956.666 1798.81 956.782 1797.48 955.377 L 1798.43 955.377 C 1802 955.358 1802.76 955.337 1806.06 954.029 L 1807.33 952.706 L 1807.04 951.607 C 1814.11 947.764 1828.53 941.531 1836.81 937.408 z" fill="url(#Gradient1)" transform="translate(0,0)"></path>
<path d="M 758.215 564.445 C 762.567 564.174 767.881 564.427 772.31 564.519 C 758.112 586.154 751.007 595.771 743.104 620.78 L 729.988 613.864 C 733.857 604.744 750.267 566.939 758.215 564.445 z" fill="rgb(254,254,253)" transform="translate(0,0)"></path>
<path d="M 1750.92 531.591 C 1753.22 532.085 1756.86 535.724 1759 537.491 C 1775.76 551.378 1794.96 554.725 1816.05 559 C 1817.11 562.959 1818.58 567.268 1818.24 571.298 C 1807.91 570.077 1797.77 567.63 1788.03 564.01 C 1777.86 560.246 1745.44 545.26 1750.92 531.591 z" fill="rgb(29,125,126)" transform="translate(0,0)"></path>
<path d="M 1630.74 264.997 C 1641.77 265.023 1653.07 263.932 1663.62 264.088 C 1661.63 269.571 1653.58 298.364 1651 300.332 C 1650.97 300.32 1638.63 288.131 1638.67 288.293 C 1636.91 279.902 1640.23 269.03 1627.97 267.09 L 1630.74 264.997 z" fill="rgb(21,37,54)" transform="translate(0,0)"></path>
<path d="M 1854.3 841.918 C 1856.66 845.854 1859.09 850.452 1861.35 854.507 C 1855.38 858.319 1826.55 874.999 1821.27 874.268 L 1811.62 863.965 C 1826.85 858.748 1841.23 851.319 1854.3 841.918 z" fill="rgb(29,125,126)" transform="translate(0,0)"></path>
<path d="M 1598.73 886.014 C 1614.6 890.255 1629.47 889.396 1645.4 886.122 C 1644.31 890.621 1643.9 895.003 1643.55 899.599 C 1643.02 899.718 1642.49 899.843 1641.95 899.939 C 1633.7 901.421 1606.47 902.976 1600.3 898.31 C 1599.39 897.62 1598.92 887.816 1598.73 886.014 z" fill="rgb(29,125,126)" transform="translate(0,0)"></path>
<path d="M 1738.62 519 C 1739.76 520.189 1743.27 529.666 1744.13 531.854 C 1730.64 536.33 1717.23 538.908 1703.33 541.611 L 1702.03 541.556 C 1700.07 539.23 1699.61 533.611 1699.06 530.303 C 1713.72 527.267 1724.66 524.359 1738.62 519 z" fill="rgb(21,37,54)" transform="translate(0,0)"></path>
<path d="M 1605.3 903.817 C 1614.84 905.219 1624.17 905.081 1633.77 904.676 C 1633.28 911.68 1634.02 919.509 1632.57 926.342 C 1630.29 927.788 1628.1 929.068 1625.45 929.698 C 1623.15 930.245 1619.96 930.503 1617.95 929.082 C 1613.44 925.899 1612.64 918.401 1609.92 913.822 C 1608.86 912.051 1607.06 910.709 1606.05 909.026 C 1605.53 908.163 1605.47 904.969 1605.3 903.817 z" fill="rgb(254,254,253)" transform="translate(0,0)"></path>
<path d="M 1856.31 862.097 C 1864.61 865.404 1869.22 892.988 1852.82 889.17 C 1848.76 888.225 1847.79 884.566 1846.15 881.32 C 1838.09 876.742 1833.42 881.352 1829.22 877.936 C 1830.96 874.039 1850.6 865.31 1856.31 862.097 z" fill="rgb(254,254,253)" transform="translate(0,0)"></path>
<path d="M 666.386 903.547 C 672.189 902.89 678.262 902.98 684.11 902.766 L 685.863 913.915 C 681.121 917.07 673.273 924.874 668.019 925.607 C 664.529 920.877 661.08 915.752 656.867 911.636 C 654.395 909.221 651.103 907.9 649.019 905.116 C 652.447 902.945 661.982 903.726 666.386 903.547 z" fill="rgb(254,254,253)" transform="translate(0,0)"></path>
<path d="M 1779.98 492.856 C 1783.01 496.352 1785.94 500.856 1788.6 504.709 C 1782.53 511.432 1770.33 518.488 1762.48 522.856 C 1761.54 523.923 1762.11 523.458 1760.15 523.681 C 1757.83 520.998 1756.43 514.581 1755.37 510.916 C 1765.11 504.654 1771.81 501.494 1779.98 492.856 z" fill="rgb(21,37,54)" transform="translate(0,0)"></path>
<path d="M 1604.63 382.65 C 1605.5 384.831 1604.81 390.545 1604.7 393.133 C 1604.07 407.715 1603.45 421.647 1606.8 435.947 L 1593.48 434.604 L 1590.09 433.689 C 1588.73 430.147 1602.3 389.316 1604.63 382.65 z" fill="rgb(254,254,253)" transform="translate(0,0)"></path>
<path d="M 1689.13 322.195 L 1702.66 323.916 C 1682.54 340.652 1675.93 354.472 1664.49 377.968 L 1662.26 374.955 C 1669.77 354.932 1678.89 340.701 1689.13 322.195 z" fill="rgb(29,125,126)" transform="translate(0,0)"></path>
<path d="M 713.064 608.674 C 722.417 614.267 732.393 618.752 742.035 623.968 L 738.195 635.727 C 737.694 636.993 737.949 636.421 736.633 637.427 C 728.628 633.271 713.765 618.186 713.064 608.674 z" fill="rgb(248,196,100)" transform="translate(0,0)"></path>
<path d="M 1652.46 541.679 C 1654.18 541.904 1655.83 542.549 1657.48 543.111 L 1658.22 545.06 C 1656.49 556.346 1642.78 569.826 1634.23 576.904 C 1632.42 578.102 1632.09 578.283 1630.06 579.07 C 1628.17 570.756 1641.91 559.693 1646.47 552.599 C 1649.37 548.103 1650.24 546.503 1652.46 541.679 z" fill="rgb(29,125,126)" transform="translate(0,0)"></path>
<path d="M 713.863 620.759 C 716.804 622.683 732.781 639.3 736.572 642.838 L 732.958 653.806 L 731.92 655.436 L 730.108 655.201 C 720.812 647.349 715.881 632.443 713.863 620.759 z" fill="rgb(248,196,100)" transform="translate(0,0)"></path>
<path d="M 1641.45 528.907 C 1645.91 528.95 1673.28 531.555 1678.39 532.135 L 1678.51 541.608 C 1673.64 542.07 1659.34 539.782 1654.4 538.044 C 1647.19 535.514 1644.75 535.272 1641.45 528.907 z" fill="rgb(21,37,54)" transform="translate(0,0)"></path>
<path d="M 647.3 909.767 C 655.924 913.409 659.96 920.629 665.35 927.949 L 656.327 932.196 L 655.562 932.522 C 650.913 931.311 645.064 921.496 640.254 918.078 L 647.3 909.767 z" fill="rgb(248,196,100)" transform="translate(0,0)"></path>
<path d="M 1597.1 913.26 C 1598.94 913.144 1600.74 913.213 1602.54 913.608 C 1605.35 914.224 1607.72 916.053 1609.1 918.583 C 1610.37 920.908 1610.24 923.548 1609.31 925.969 C 1607.94 929.548 1604.55 930.453 1601.27 931.764 C 1599.37 932.436 1599.21 932.356 1597.38 931.846 C 1593.38 927.584 1592.19 924.648 1591.93 918.798 C 1593.26 915.705 1594.42 915.194 1597.1 913.26 z" fill="rgb(254,254,253)" transform="translate(0,0)"></path>
<path d="M 1833.59 881.763 L 1839.1 881.695 C 1845.54 884.257 1849.78 896.639 1842.55 898.988 C 1837.13 896.304 1831.46 897.311 1828.83 891.926 C 1829.2 888.367 1831.69 884.898 1833.59 881.763 z" fill="rgb(254,254,253)" transform="translate(0,0)"></path>
<path d="M 544.264 685.041 C 550.994 686.315 575.735 699.224 577.682 705.776 C 566.366 706.177 546.405 694.927 544.264 685.041 z" fill="rgb(254,254,253)" transform="translate(0,0)"></path>
<path d="M 1585.81 920.904 L 1587.51 921.383 L 1594.36 934.963 L 1583.62 939.35 C 1580.56 935.094 1577.03 931.29 1573.5 927.418 L 1585.81 920.904 z" fill="rgb(254,254,253)" transform="translate(0,0)"></path>
<path d="M 1820.69 907.936 C 1825.55 910.322 1831.73 911.806 1836.88 913.849 L 1829.05 923.814 C 1823.91 920.869 1819.66 919.322 1813.76 918.462 L 1820.69 907.936 z" fill="rgb(254,254,253)" transform="translate(0,0)"></path>
<path d="M 1570.96 929.065 C 1574.54 932.273 1577.63 936.881 1580.7 940.619 L 1569.66 945.178 L 1557.38 934.598 L 1570.96 929.065 z" fill="rgb(254,254,253)" transform="translate(0,0)"></path>
<path d="M 488.089 655.999 C 477.797 648.836 453.911 633.304 446.207 625.364 L 446.941 625.069 C 454.403 628.44 481.381 647.999 489.103 653.664 L 488.089 655.999 z" fill="rgb(254,254,253)" transform="translate(0,0)"></path>
<path d="M 803.331 703.428 C 806.925 705.925 810.866 710.812 811.071 715.348 C 809.424 718.65 809.631 717.732 805.351 719.548 L 803.011 719.641 C 799.398 717.581 800.316 718.732 798.887 715.47 C 798.945 711.295 801.431 707.234 803.331 703.428 z" fill="rgb(248,196,100)" transform="translate(0,0)"></path>
<path d="M 1751.8 512.971 C 1752.93 514.496 1755.26 523.84 1755.93 526.28 L 1747.88 529.978 C 1746.1 526.425 1744.28 521.569 1742.75 517.808 L 1751.8 512.971 z" fill="rgb(29,125,126)" transform="translate(0,0)"></path>
<path d="M 492.07 663.819 C 498.051 666.449 516.385 680.715 521.982 685.147 C 511.198 686.485 496.946 672.566 492.07 663.819 z" fill="rgb(254,254,253)" transform="translate(0,0)"></path>
<path d="M 633.368 925.511 C 633.985 925.827 634.077 925.847 634.713 926.338 C 638.259 929.075 642.331 933.391 642.876 937.996 L 639.758 940.615 C 638.967 940.339 638.456 940.029 637.823 939.478 C 635.165 937.163 629.876 933.016 629.988 929.234 C 630.029 927.856 632.3 926.43 633.368 925.511 z" fill="rgb(248,196,100)" transform="translate(0,0)"></path>
<path d="M 1642.89 538.566 C 1645.99 539.864 1646.6 539.463 1647.88 541.94 C 1647.71 546.159 1643.88 550.379 1641.27 553.942 C 1639.6 555.551 1639.28 555.915 1637.29 557.078 C 1636.35 554.026 1641.47 542.356 1642.89 538.566 z" fill="rgb(44,106,109)" transform="translate(0,0)"></path>
<path d="M 647.274 590.223 C 644.898 578.686 632.206 576.491 633.443 570.192 L 635.515 569.357 C 641.921 572.222 639.028 577.921 651.569 584.002 C 648.756 586.111 648.325 586.319 647.274 590.223 z" fill="rgb(254,254,253)" transform="translate(0,0)"></path>
<path d="M 1613.04 265.968 C 1619.98 265.122 1623.75 264.967 1630.74 264.997 L 1627.97 267.09 C 1622.7 269.767 1622.82 272.788 1618.63 273.844 C 1615.98 272.359 1614.57 268.826 1613.04 265.968 z" fill="rgb(5,16,31)" transform="translate(0,0)"></path>
<path d="M 1690.95 529.529 C 1698.17 529.968 1699.95 536.197 1698.28 542.336 C 1694.09 542.248 1691.83 541.871 1690.34 537.396 C 1689.47 534.798 1689.69 531.96 1690.95 529.529 z" fill="rgb(254,254,253)" transform="translate(0,0)"></path>
<path d="M 637.514 920.894 C 640.025 921.708 641.755 923.311 643.647 925.091 C 646.462 927.74 650.224 931.76 650.324 935.629 C 648.749 935.991 647.788 935.967 646.187 935.73 C 642.508 931.974 637.537 926.228 637.514 920.894 z" fill="rgb(248,196,100)" transform="translate(0,0)"></path>
<path d="M 669.709 596.832 L 670.484 597.678 L 670.303 599.976 C 667.323 605.474 663.195 608.359 657.714 611.16 L 655.857 609.043 C 655.855 605.62 663.764 604.549 669.709 596.832 z" fill="rgb(254,254,253)" transform="translate(0,0)"></path>
<path d="M 1680.78 531.328 L 1684.33 532.225 C 1686.69 534.776 1686.91 539.078 1687.47 542.63 L 1683.89 541.35 C 1681.37 538.751 1681.3 535.016 1680.78 531.328 z" fill="rgb(254,254,253)" transform="translate(0,0)"></path>
<path d="M 1657.44 392.398 C 1658.91 386.666 1660.67 380.681 1662.26 374.955 L 1664.49 377.968 C 1662.23 383.749 1661.1 387.317 1657.44 392.398 z" fill="rgb(44,106,109)" transform="translate(0,0)"></path>
<path d="M 1117.04 55.5138 C 1118.7 54.981 1120.23 55.1946 1121.99 55.2613 C 1125.64 58.7798 1130.97 103.018 1132.32 111.989 L 1157.54 115.516 C 1166.01 98.993 1173.67 81.2103 1181.26 64.1896 C 1202.94 71.7567 1224.94 80.598 1246.33 89.0596 C 1245.14 94.9409 1241.28 104.318 1239.32 110.378 C 1235.79 121.27 1232.22 132.252 1228.47 143.065 C 1236.87 148.963 1245.19 154.972 1253.43 161.09 C 1268.8 150.471 1284.37 140.149 1300.13 130.128 C 1315.02 144.83 1332.06 166.943 1344.68 183.27 C 1330.88 196.179 1316.65 208.634 1302.04 220.613 C 1307.61 230.636 1311.74 242.321 1315.85 253.086 C 1329.3 250.535 1355.61 248.339 1370.29 246.644 C 1376.65 269.382 1379.98 293.096 1381.46 316.643 C 1362.2 320.463 1342.91 324.104 1323.58 327.565 C 1323.22 332.401 1322.51 337.282 1321.89 342.097 C 1335.75 345.24 1360.92 354.557 1374.85 359.338 C 1368.02 377.278 1359.42 408.042 1353.23 427.428 C 1335.06 421.523 1316.22 416.559 1297.77 411.486 C 1291.81 421.453 1285.16 430.987 1277.86 440.018 C 1289.05 453.607 1299.39 468.48 1309.57 482.872 C 1292.91 497.239 1270.84 512.359 1253.12 526.813 C 1243.18 517.277 1227.73 498.092 1218.57 487.167 C 1207.7 492.183 1196.57 496.61 1185.22 500.429 C 1187.42 517.099 1188.55 535.256 1190.3 552.223 C 1167.67 556.955 1149.2 558.555 1126.15 560.781 C 1122.66 561.011 1119.46 561.554 1116.25 560.227 C 1114.07 554.916 1108.91 518.83 1107.59 510.407 C 1095.67 509.598 1083.11 508.132 1071.17 506.926 C 1063.41 521.961 1055.12 538.832 1046.79 553.397 C 1020.52 542.72 1004.28 537.181 978.333 524.474 C 985.327 511.517 992.718 494.143 999.434 480.513 C 988.72 473.134 978.435 466.214 968.311 458.021 C 955.914 465.318 937.867 477.649 925.945 485.824 C 910.235 468.319 894.452 447.419 883.167 426.66 C 893.603 418.169 910.791 406.692 922.307 398.503 C 916.24 387.436 913.646 380.335 909.442 368.573 C 897.593 369.202 871.46 371.435 860.264 373.315 C 854.294 350.154 851.084 326.368 850.702 302.453 C 864.389 299.513 886.672 297.95 901.718 295.507 C 902.366 284.438 905.914 269.692 908.407 258.645 C 898.889 253.635 871.12 243.226 859.988 238.632 C 869.409 218.386 880.194 195.857 890.591 176.186 C 904.285 180.542 925.407 189.131 938.992 194.4 C 945.617 185.414 953.775 176.98 961.61 169.03 C 952.137 156.478 940.009 136.601 931.199 122.947 L 989.159 83.3036 C 998.138 92.6266 1014.23 117.724 1023.41 129.41 C 1033.79 124.912 1044.49 121.216 1055.43 118.351 C 1054.16 101.612 1052.64 77.3487 1053 60.8818 C 1074.32 58.7304 1095.67 56.9408 1117.04 55.5138 z" fill="rgb(4,8,17)" transform="translate(0,0)"></path>
<path d="M 987.442 88.7805 C 994.335 91.7077 1015.83 125.668 1021.91 134.168 C 1045.08 124.228 1060.72 119.871 1086.03 116.739 C 1142.7 109.526 1199.91 124.994 1245.22 159.774 C 1336.95 231.376 1343.27 350.649 1273.34 440.087 C 1284.55 454.05 1294.17 467.878 1304.74 482.276 C 1293.68 489.23 1264.81 512.979 1253.01 522.028 C 1241.9 509.007 1230.52 495.305 1219.07 482.652 C 1206.91 488.351 1194.68 494.125 1181.71 497.726 L 1186.1 549.695 C 1161.94 553.52 1142.95 556.103 1118.36 557.432 C 1117.7 548.815 1112.93 516.131 1110.41 508.54 C 1107.51 506.335 1105.26 506.663 1101.23 506.072 C 1092.97 506.016 1077.19 503.979 1068.94 502.545 C 1061.15 518.103 1053.16 533.442 1045.51 549.087 C 1021.63 539.457 1006.69 534.166 983.333 522.753 C 990.659 509.324 996.642 493.432 1004.49 479.069 C 992.079 470.97 979.991 462.378 968.26 453.315 L 926.451 481.3 C 910.225 461.829 901.098 449.641 887.748 427.781 C 899.889 418.919 914.654 407.597 927.219 399.909 C 922.294 389.458 914.592 375.731 912.277 364.507 C 895.71 366.397 879.112 367.996 862.49 369.304 C 857.487 347.896 855.549 327.1 854.414 305.245 C 871.176 303.009 887.975 301.063 904.805 299.41 C 906.7 283.324 909.058 271.851 912.745 256.336 C 897.038 249.667 880.746 243.274 864.902 236.85 C 873.774 218.25 882.743 198.736 892.404 180.61 L 940.142 198.845 C 949.429 187.318 956.154 179.444 967.345 169.545 C 957.8 158.635 944.472 137.004 935.662 124.043 C 952.548 112.602 971.126 100.755 987.442 88.7805 z" fill="rgb(116,201,196)" transform="translate(0,0)"></path>
<path d="M 1105.26 125.401 C 1106.37 125.297 1107.97 125.283 1109.13 125.249 C 1162.27 124.066 1213.74 143.888 1252.36 180.414 C 1287.33 213.22 1307.76 258.626 1309.12 306.557 C 1311.85 413.502 1225.48 492.872 1121.23 495.364 C 1120.68 495.54 1119.09 495.721 1118.48 495.738 C 1070.19 497.094 1020.05 480.388 983.784 449.49 C 946.02 417.812 922.537 372.312 918.593 323.179 C 915.168 276.218 930.326 229.791 960.802 193.898 C 998.469 150.185 1048.7 129.65 1105.26 125.401 z" fill="rgb(5,16,31)" transform="translate(0,0)"></path>
<path d="M 1098.51 129.448 C 1103.63 129.477 1108.67 128.99 1113.92 128.991 C 1207.24 129.01 1293.45 195.09 1304.52 292.404 C 1309.63 338.309 1296.49 384.381 1267.94 420.686 C 1233.27 464.003 1184.42 485.8 1130.23 491.83 C 1076.94 493.188 1032.63 483.838 989.866 449.533 C 952.376 419.666 928.28 376.136 922.874 328.509 C 917.816 281.916 931.74 235.248 961.502 199.044 C 995.833 156.566 1045.17 135.223 1098.51 129.448 z" fill="rgb(254,254,253)" transform="translate(0,0)"></path>
<path d="M 1105.96 202.408 C 1136.88 200.195 1167.45 210.126 1191.17 230.09 C 1212.59 247.916 1226.04 273.53 1228.56 301.285 C 1230.55 328.839 1221.57 356.061 1203.57 377.023 C 1181.03 403.495 1152.33 413.594 1118.86 416.287 C 1112.46 417.192 1104.61 416.198 1098.22 415.529 C 1047.82 410.251 1004.37 371.104 999.074 319.817 C 996.349 293.055 1004.39 266.308 1021.41 245.478 C 1043.21 218.938 1072.1 205.64 1105.96 202.408 z" fill="rgb(5,16,31)" transform="translate(0,0)"></path>
<path d="M 1101.55 206.61 C 1130.16 203.294 1158.97 210.861 1182.26 227.809 C 1204.5 244.077 1220.05 267.953 1224.17 295.365 C 1228.03 321.315 1221.32 347.729 1205.56 368.7 C 1185.13 396.178 1156.76 408.047 1123.9 412.899 C 1066.6 416.258 1011.41 382.08 1003.16 322.664 C 999.782 297.102 1006.56 271.233 1022.05 250.614 C 1041.99 224.228 1069.41 211.168 1101.55 206.61 z" fill="rgb(116,201,196)" transform="translate(0,0)"></path>
<path d="M 1112.17 215.454 C 1112.68 215.302 1113.19 215.126 1113.73 215.111 C 1139.03 214.76 1164.27 225.062 1183.44 241.112 C 1221.92 273.339 1226.03 331.246 1192.56 368.703 C 1172.17 391.52 1147.99 401.837 1117.61 404.059 C 1088.92 404.421 1062.39 395.885 1041.16 376.085 C 1023.43 359.841 1012.95 337.177 1012.04 313.149 C 1011.23 288.697 1020.3 264.95 1037.21 247.27 C 1056.45 226.794 1084.42 216.365 1112.17 215.454 z" fill="rgb(5,16,31)" transform="translate(0,0)"></path>
<path d="M 1114.32 218.556 C 1138.97 219.395 1162.05 227.408 1180.79 243.767 C 1198.86 259.271 1209.93 281.395 1211.5 305.153 C 1215 360.419 1166.52 397.334 1114.94 400.476 C 1066.06 400.159 1019.23 367.432 1015.82 316.181 C 1014.14 293.18 1021.74 270.463 1036.93 253.106 C 1056.93 230.347 1084.74 220.367 1114.32 218.556 z" fill="rgb(254,254,253)" transform="translate(0,0)"></path>
<path d="M 1145.18 239.956 C 1148.42 241.507 1147.53 240.532 1148.82 243.455 C 1147.62 245.532 1147.68 245.658 1145.15 246.613 C 1108.76 260.356 1071.67 273.206 1035.71 287.974 C 1033.22 287.27 1033.07 286.054 1032.84 284.021 C 1037.12 279.114 1131.86 244.918 1145.18 239.956 z" fill="rgb(116,201,196)" transform="translate(0,0)"></path>
<path d="M 1109.37 59.586 C 1113.66 59.0675 1116.95 58.2634 1120.55 60.4647 C 1123.32 69.8073 1126.26 98.6468 1128.63 111.581 C 1109.77 110.388 1090.82 111.523 1072.23 114.96 C 1068.18 115.613 1063.09 116.833 1058.98 117.691 C 1057.6 100.528 1057.16 81.4914 1056.47 64.1532 C 1072.82 63.3627 1092.87 61.0301 1109.37 59.586 z" fill="rgb(116,201,196)" transform="translate(0,0)"></path>
<path d="M 1359.53 251.589 C 1362.8 251.206 1363.72 251.127 1367.05 251.34 C 1372.11 256.938 1376.65 303.68 1377.52 313.781 C 1363.71 317.02 1346.66 319.477 1332.23 322.397 C 1329.07 323.044 1327.66 323.502 1324.4 323.002 C 1323.95 301.08 1323.36 277.271 1316.18 256.33 C 1330.66 255.028 1345.11 253.448 1359.53 251.589 z" fill="rgb(116,201,196)" transform="translate(0,0)"></path>
<path d="M 1183.53 68.5095 C 1202.98 76.2117 1222.47 83.8055 1242 91.2906 C 1238.05 105.48 1230.06 124.926 1225.64 139.506 C 1225.32 140.567 1225.13 140.265 1223.61 140.88 C 1203.17 129.601 1183.85 122.476 1161.58 116.26 C 1169.21 100.543 1175.93 84.2723 1183.53 68.5095 z" fill="rgb(116,201,196)" transform="translate(0,0)"></path>
<path d="M 1297.97 135.935 L 1300.33 136.169 C 1308.09 142.461 1333.17 174.015 1339.52 182.751 C 1328.17 193.267 1312.63 207.75 1300.11 216.631 C 1287.24 194.744 1274.16 180.755 1256.08 163.526 L 1297.97 135.935 z" fill="rgb(116,201,196)" transform="translate(0,0)"></path>
<path d="M 1320.76 345.687 C 1337.36 350.467 1353.79 355.808 1370.03 361.7 C 1367.27 370.433 1353.63 417.614 1350.67 422.776 C 1335.99 417.52 1314.79 412.33 1299.34 408.152 C 1311.24 385.83 1316.07 370.329 1320.76 345.687 z" fill="rgb(116,201,196)" transform="translate(0,0)"></path>
<path d="M 179.001 540.006 L 429.119 539.846 L 428.962 968.765 L 520.473 969.003 C 530.01 969.009 556.65 969.725 565.139 968.831 C 566.855 966.457 566.751 964.533 566.996 961.653 L 568.051 960.058 C 573.899 957.277 688.557 958.108 705.999 958.656 L 707.31 958.999 C 707.393 961.533 707.116 967.788 708.379 969.269 C 712.504 969.358 721.722 970.078 725.056 968.714 L 723.729 967.334 C 724.165 966.859 724.284 967.066 725.303 966.988 L 725.567 965.18 C 730.633 966.096 739.579 968.621 744.189 968.809 C 768.887 969.818 798.477 970.281 823.017 969.087 C 834.849 968.511 855.934 964.982 868.687 963.613 C 898.158 960.72 927.582 957.374 956.95 953.578 C 956.596 938.796 954.6 928.565 951.544 914.322 L 953.283 915.633 L 954.084 913.086 C 956.325 919.658 959.999 933.605 959.693 940.447 C 959.149 944.064 958.005 948.487 959.539 951.641 C 960.658 952.361 961.626 953.073 962.876 953.527 L 973.204 951.809 C 988.011 957.023 1004.48 961.599 1018.69 967.486 L 1019.62 965.556 C 1032.27 970.959 1035.36 970.084 1049.42 969.931 C 1046.56 972.64 1046.13 973.175 1042.25 973.755 L 823.791 973.828 L 299.922 973.376 L 151.498 973.157 C 135.635 973.122 93.5398 974.144 79.2284 972.345 L 78.7027 971.489 C 80.9782 970.08 84.7401 968.759 87.4066 968.727 C 118.012 968.364 149.299 969.806 179.858 968.661 L 179.969 968.032 C 177.256 958.429 179.126 877.152 179.123 860.444 L 179.001 540.006 z" fill="rgb(116,201,196)" transform="translate(0,0)"></path>
<path d="M 179.001 540.006 L 429.119 539.846 L 428.962 968.765 L 520.473 969.003 C 530.01 969.009 556.65 969.725 565.139 968.831 C 566.855 966.457 566.751 964.533 566.996 961.653 L 568.051 960.058 C 573.899 957.277 688.557 958.108 705.999 958.656 L 707.31 958.999 C 707.393 961.533 707.116 967.788 708.379 969.269 C 712.504 969.358 721.722 970.078 725.056 968.714 L 723.729 967.334 C 724.165 966.859 724.284 967.066 725.303 966.988 L 725.567 965.18 C 730.633 966.096 739.579 968.621 744.189 968.809 C 768.887 969.818 798.477 970.281 823.017 969.087 C 834.849 968.511 855.934 964.982 868.687 963.613 C 898.158 960.72 927.582 957.374 956.95 953.578 C 956.596 938.796 954.6 928.565 951.544 914.322 L 953.283 915.633 L 954.084 913.086 C 956.325 919.658 959.999 933.605 959.693 940.447 C 959.149 944.064 958.005 948.487 959.539 951.641 C 960.658 952.361 961.626 953.073 962.876 953.527 L 973.204 951.809 C 988.011 957.023 1004.48 961.599 1018.69 967.486 L 1019.62 965.556 C 1032.27 970.959 1035.36 970.084 1049.42 969.931 C 1046.56 972.64 1046.13 973.175 1042.25 973.755 L 823.791 973.828 L 299.922 973.376 L 151.498 973.157 C 135.635 973.122 93.5398 974.144 79.2284 972.345 L 78.7027 971.489 C 80.9782 970.08 84.7401 968.759 87.4066 968.727 C 118.012 968.364 149.299 969.806 179.858 968.661 C 201.806 970.15 239.293 968.897 262.834 968.882 L 425.408 968.856 L 425.764 543.363 C 344.89 543.79 264.013 543.689 183.139 543.061 C 183.179 580.984 184.526 963.551 182.702 967.343 L 179.969 968.032 C 177.256 958.429 179.126 877.152 179.123 860.444 L 179.001 540.006 z" fill="rgb(5,16,31)" transform="translate(0,0)"></path>
<path d="M 962.876 953.527 L 973.204 951.809 C 988.011 957.023 1004.48 961.599 1018.69 967.486 L 1019.62 965.556 C 1032.27 970.959 1035.36 970.084 1049.42 969.931 C 1046.56 972.64 1046.13 973.175 1042.25 973.755 L 823.791 973.828 L 822.412 972.576 C 825.203 970.736 836.269 972.455 841.947 971.02 C 846.723 971.05 854.574 971.465 858.896 970.185 L 858.388 969.573 L 858.664 968.195 C 874.967 967.972 953.121 959.668 962.876 953.527 z" fill="rgb(254,254,253)" transform="translate(0,0)"></path>
<path d="M 1019.62 965.556 C 1032.27 970.959 1035.36 970.084 1049.42 969.931 C 1046.56 972.64 1046.13 973.175 1042.25 973.755 L 823.791 973.828 L 822.412 972.576 C 825.203 970.736 836.269 972.455 841.947 971.02 C 846.723 971.05 854.574 971.465 858.896 970.185 C 875.25 969.593 1017.81 970.749 1020.43 969.29 L 1018.69 967.486 L 1019.62 965.556 z" fill="rgb(5,16,31)" transform="translate(0,0)"></path>
<path d="M 566.996 961.653 L 568.051 960.058 C 573.899 957.277 688.557 958.108 705.999 958.656 C 705.635 962.436 705.444 964.704 704.518 968.38 C 696.751 970.015 640.834 968.336 629.058 968.637 C 619.438 968.883 576.726 969.381 569.673 968.372 C 567.334 966.251 567.801 965.289 566.996 961.653 z" fill="rgb(254,254,253)" transform="translate(0,0)"></path>
<path d="M 841.947 971.02 C 846.32 968.809 853.766 968.446 858.664 968.195 L 858.388 969.573 L 858.896 970.185 C 854.574 971.465 846.723 971.05 841.947 971.02 z" fill="rgb(44,106,109)" transform="translate(0,0)"></path>
<path d="M 218.765 826.488 C 284.97 825.79 352.965 826.138 419.167 826.495 L 419.005 891.847 L 388.75 891.843 L 189.304 892.065 L 189.044 826.684 L 218.765 826.488 z" fill="rgb(5,16,31)" transform="translate(0,0)"></path>
<path d="M 193.08 830.038 L 415.687 829.989 C 415.686 838.608 417.563 884.106 414.086 888.464 L 193.175 888.815 L 193.08 830.038 z" fill="rgb(254,254,253)" transform="translate(0,0)"></path>
<path d="M 311.28 851.504 C 319.226 851.414 327.221 850.517 334.119 854.484 C 344.985 869.563 305.149 865.943 298.75 865.878 C 291.063 865.984 279.208 867.799 274.734 860.575 C 274.489 851.243 282.567 851.393 289.51 851.425 C 296.763 851.458 304.027 851.475 311.28 851.504 z" fill="rgb(5,16,31)" transform="translate(0,0)"></path>
<path d="M 278.979 855.072 C 288.267 855.209 326.594 852.587 331.31 858.066 L 330.615 861.586 C 320.905 861.92 285.831 864.04 279.394 860.593 C 277.743 857.807 278.047 859.138 278.979 855.072 z" fill="rgb(190,235,230)" transform="translate(0,0)"></path>
<path d="M 229.765 897.496 L 419.024 897.049 L 419.024 962.876 L 381.5 962.914 L 189.202 962.809 L 189.176 897.697 L 229.765 897.496 z" fill="rgb(5,16,31)" transform="translate(0,0)"></path>
<path d="M 193.083 900.942 L 415.638 900.795 C 415.714 915.179 417.678 946.137 415.215 958.294 L 413.25 959.212 C 339.874 959.946 266.494 960.102 193.115 959.68 L 193.083 900.942 z" fill="rgb(254,254,253)" transform="translate(0,0)"></path>
<path d="M 278.485 923.021 C 288.4 922.887 324.747 920.113 332.234 925.14 C 334.529 926.681 334.702 927.665 335.253 930.186 C 334.632 933.438 333.33 934.787 331.069 937.055 C 318.137 936.823 290.601 939.765 279.668 935.635 C 276.927 934.6 276.193 933.272 275.084 930.75 C 275.118 927.292 276.475 925.666 278.485 923.021 z" fill="rgb(5,16,31)" transform="translate(0,0)"></path>
<path d="M 278.641 927.142 C 291.059 925.981 304.721 926.157 317.221 926.411 C 321.837 926.504 327.959 926.014 331.296 929.487 L 331.137 932.896 C 316.322 933.22 301.141 934.175 286.352 933.402 C 282.958 933.224 280.559 933.067 278.228 930.481 L 278.641 927.142 z" fill="rgb(190,235,230)" transform="translate(0,0)"></path>
<path d="M 315.255 618.508 L 419.053 618.242 L 418.988 683.335 C 377.961 681.988 332.827 682.891 291.5 682.886 C 257.982 682.762 222.725 683.491 189.387 682.601 C 188.951 661.784 189.213 639.739 189.149 618.842 L 315.255 618.508 z" fill="rgb(5,16,31)" transform="translate(0,0)"></path>
<path d="M 192.991 622.351 C 266.444 621.313 342.36 621.758 415.913 621.865 L 415.939 679.974 C 342.444 679.032 266.668 679.812 193.025 679.806 L 192.991 622.351 z" fill="rgb(254,254,253)" transform="translate(0,0)"></path>
<path d="M 277.684 642.916 C 288.282 642.006 300.642 642.903 311.449 642.532 C 318.938 642.275 332.809 641.262 334.497 650.164 C 333.75 653.31 332.832 653.875 330.512 655.988 C 319.424 656.927 307.723 656.746 296.569 656.911 C 289.174 657.02 279.154 657.737 275.197 650.682 C 274.948 647.054 275.847 646.056 277.684 642.916 z" fill="rgb(4,8,17)" transform="translate(0,0)"></path>
<path d="M 278.879 646.163 C 287.993 646.291 323.551 644.911 329.418 647.636 C 331.132 650.133 330.737 648.938 330.074 652.945 C 320.296 652.79 286.397 654.607 279.742 651.528 C 277.888 648.832 278.262 650.161 278.879 646.163 z" fill="rgb(190,235,230)" transform="translate(0,0)"></path>
<path d="M 234.672 757.498 L 343.459 757.26 C 367.682 757.167 394.93 756.499 418.954 757.469 L 419.184 821.268 L 374.5 821.263 L 189.284 821.467 L 189.32 757.722 L 234.672 757.498 z" fill="rgb(5,16,31)" transform="translate(0,0)"></path>
<path d="M 364.59 760.5 L 415.58 760.389 L 415.728 817.871 L 244.5 818.131 L 193.127 818.152 L 193.048 760.869 L 364.59 760.5 z" fill="rgb(254,254,253)" transform="translate(0,0)"></path>
<path d="M 277.844 780.976 C 288.648 780.589 299.732 780.663 310.562 780.537 C 318.279 780.447 331.277 778.849 334.838 786.776 C 334.878 790.129 333.751 791.212 331.834 793.883 C 327.064 795.245 285.591 796.292 279.429 793.106 C 276.093 791.381 276.26 791.197 275.037 788.257 C 275.106 784.623 275.8 783.953 277.844 780.976 z" fill="rgb(4,8,17)" transform="translate(0,0)"></path>
<path d="M 278.687 784.082 C 287.879 784.128 324.142 782.798 330.142 785.188 C 331.746 787.839 331.243 787.084 330.325 791.01 C 320.957 790.904 285.712 792.55 279.478 789.448 C 277.804 786.804 278.21 788.013 278.687 784.082 z" fill="rgb(190,235,230)" transform="translate(0,0)"></path>
<path d="M 278.529 688.507 C 325.344 688.201 372.16 688.208 418.975 688.528 L 419 751.954 L 330.421 752.173 C 283.465 752.676 236.505 752.688 189.548 752.21 L 189.271 688.721 C 218.613 689.096 249.119 688.582 278.529 688.507 z" fill="rgb(5,16,31)" transform="translate(0,0)"></path>
<path d="M 193.111 692.201 L 415.314 692.022 C 415.776 710.467 415.413 730.081 415.373 748.61 L 193.33 749.05 L 193.111 692.201 z" fill="rgb(254,254,253)" transform="translate(0,0)"></path>
<path d="M 279.464 711.957 C 291.995 711.88 304.879 711.728 317.44 711.686 C 324.16 711.663 333.34 711.42 335.031 719.202 C 334.224 722.7 333.306 723.332 330.81 725.891 C 322.395 725.944 313.322 726.306 304.94 726.032 C 296.444 725.755 276.432 728.895 274.572 718.371 C 275.732 714.745 276.529 714.325 279.464 711.957 z" fill="rgb(5,16,31)" transform="translate(0,0)"></path>
<path d="M 280.449 715.425 C 295.445 715.175 312.148 714.388 327.121 715.727 C 330.316 716.013 330.646 717.501 330.8 720.052 L 328.907 722 C 313.928 722.199 297.518 722.966 282.551 721.669 C 279.657 721.418 279.045 720.312 278.628 717.915 L 280.449 715.425 z" fill="rgb(190,235,230)" transform="translate(0,0)"></path>
<path d="M 189.108 549.94 L 419.135 549.863 C 419.311 570.743 419.023 592.158 418.948 613.077 L 189.272 612.981 L 189.108 549.94 z" fill="rgb(5,16,31)" transform="translate(0,0)"></path>
<path d="M 192.827 553.056 L 415.886 553.076 L 415.849 609.131 C 377.905 609.494 339.958 609.573 302.013 609.37 C 266.165 609.494 228.66 610.2 192.993 609.308 C 193.126 590.557 193.07 571.806 192.827 553.056 z" fill="rgb(254,254,253)" transform="translate(0,0)"></path>
<path d="M 278.163 573.074 C 291.088 572.895 304.523 572.619 317.487 572.6 C 323.907 572.591 332.855 572.563 334.05 580.185 C 333.154 583.696 332.198 584.311 329.602 586.819 C 317.081 586.939 304.237 587.126 291.691 587.172 C 285.227 587.196 276.382 587.219 274.489 579.851 C 275.064 576.529 276.086 575.621 278.163 573.074 z" fill="rgb(4,8,17)" transform="translate(0,0)"></path>
<path d="M 280.813 576.505 C 295.339 576.293 311.008 575.473 325.53 576.383 C 328.505 576.569 329.226 577.465 330.444 579.79 L 329.35 583.052 C 314.419 583.181 298.273 583.63 283.375 582.729 C 280.215 582.537 279.465 581.864 277.88 579.869 C 278.514 577.358 278.027 578.255 280.813 576.505 z" fill="rgb(190,235,230)" transform="translate(0,0)"></path>
<path d="M 312.307 144.35 C 316.334 144.121 317.049 143.387 319.962 145.078 C 321.739 152.265 323.289 170.168 323.587 177.829 C 339.698 178.776 347.95 181.449 362.932 187.182 C 369.843 178.057 376.533 168.768 382.997 159.322 C 393.58 166.645 405.517 173.826 416.503 180.542 C 409.922 188.526 402.466 199.092 396.267 207.555 C 407.75 217.541 414.337 225.416 421.405 238.848 L 454.903 229.682 C 458.08 242.187 461.76 254.078 465.528 266.41 C 457.8 267.865 439.252 273.281 431.834 275.893 C 433.785 287.469 432.937 298.644 430.867 310.094 C 441.712 312.978 453.851 316.938 464.728 320.162 L 450.177 356.025 C 438.96 352.914 427.273 348.988 416.134 345.448 C 408.751 357.59 405.114 361.992 394.693 371.809 L 413.945 399.81 C 402.987 406.594 389.953 413.445 378.548 419.714 C 372.671 412.596 364.589 399.425 359.303 391.34 C 346.197 395.373 338.509 396.664 324.858 397.984 C 322.381 398 321.699 397.836 319.481 398.784 C 316.003 403.883 314.18 422.659 312.506 430.511 C 301.427 429.44 284.885 426.145 273.719 424.145 C 274.809 413.788 276.727 403.347 278.471 393.067 C 264.765 388.436 252.595 381.042 240.892 372.708 C 234.259 379.412 221.534 389.379 213.817 395.75 L 187.181 363.071 L 213.552 343.298 C 205.773 328.507 202.49 319.65 199.434 303.089 C 187.815 302.872 175.747 302.129 163.852 301.899 C 165.376 292.752 165.825 270.891 166.249 260.976 C 176.713 261.106 190.538 262.321 201.231 262.968 C 203.929 249.814 209.532 238.506 216.445 227.159 C 209.267 220.254 197.391 210.544 189.62 204.446 C 198.382 194.818 209.612 184.074 218.929 174.733 C 225.8 181.079 238.321 192.658 245.885 197.899 C 258.407 189.264 267.528 185.019 282.356 181.41 L 278.779 147.943 L 312.307 144.35 z" fill="rgb(4,8,17)" transform="translate(0,0)"></path>
<path d="M 316.774 147.405 C 318.073 150.088 320.151 175.789 320.579 180.531 C 339.868 181.828 346.169 183.864 364.048 191.51 C 370.225 182.613 377.498 172.562 384.07 163.988 C 393.126 169.748 402.441 175.511 411.191 181.697 L 391.803 208.187 C 403.713 217.765 413.619 228.679 419.39 243.034 C 429.275 239.747 442.038 236.728 452.28 234.015 C 455.342 243.859 458.267 253.745 461.055 263.67 C 450.288 266.969 439.443 270.009 428.53 272.787 C 430.665 290.13 429.685 294.75 427.578 311.933 C 438.308 315.559 449.091 319.023 459.925 322.325 C 455.969 332.27 452.186 342.282 448.579 352.359 C 437.449 348.883 425.666 345.442 414.867 341.166 C 405.691 355.684 402.559 359.742 390.176 371.589 C 396.827 380.388 403.115 389.455 409.026 398.767 C 399.359 404.762 389.388 410.25 379.153 415.211 C 372.903 405.961 366.772 396.632 360.763 387.225 C 345.124 392.406 333.509 394.823 316.897 394.845 C 316.447 394.982 315.599 395.694 315.159 396.019 C 313.314 406.338 311.703 416.698 310.327 427.091 C 299.394 425.552 288.322 423.425 277.442 421.464 C 278.565 412.399 280.71 399.374 282.56 390.533 C 267.47 385.986 253.414 378.537 241.178 368.605 C 232.573 376.127 223.579 383.258 214.679 390.434 C 207.536 383.995 198.536 371.492 192.527 363.529 C 201.075 356.827 209.712 350.239 218.435 343.767 C 209.4 331.41 204.59 314.595 202.466 299.622 L 167.738 298.402 C 168.604 286.821 168.821 275.711 170.135 264.073 C 181.431 265.365 192.792 266.005 204.161 265.99 C 208.484 248.237 210.696 242.335 220.724 226.775 C 213.443 219.545 202.694 210.393 194.479 204.293 C 202.206 196.18 210.992 187.714 218.967 179.74 C 227.639 186.607 237.159 195.26 245.369 202.689 C 257.707 192.935 270.618 187.246 286.024 184.442 L 282.437 150.816 C 293.698 149.514 305.454 148.516 316.774 147.405 z" fill="rgb(254,254,253)" transform="translate(0,0)"></path>
<path d="M 306.887 225.254 C 322.789 223.172 342.12 228.069 355.432 236.981 C 369.325 246.176 378.888 260.62 381.927 277.002 C 385.054 292.886 381.588 309.358 372.324 322.635 C 361.229 338.759 344.65 346.248 326.006 349.733 C 291.262 354.518 254.242 331.27 248.897 295.485 C 246.485 279.753 250.523 263.713 260.098 250.999 C 271.534 235.819 288.402 227.856 306.887 225.254 z" fill="rgb(116,201,196)" transform="translate(0,0)"></path>
<path d="M 310.775 230.437 C 326.046 229.79 341.796 233.96 354.301 242.861 C 366.556 251.46 374.782 264.678 377.084 279.47 C 382.94 316.988 354.973 339.774 321.235 344.763 C 305.488 345.97 289.834 341.45 277.153 332.035 C 265.056 323.065 256.405 309.545 254.331 294.532 C 252.298 279.872 256.274 265.012 265.358 253.328 C 276.756 238.709 292.983 232.55 310.775 230.437 z" fill="rgb(254,254,253)" transform="translate(0,0)"></path>
<path d="M 715.869 78.33 C 723.247 77.8764 722.757 87.2406 723.773 93.6459 C 730.596 94.1287 732.971 94.7284 739.503 96.4432 L 748.953 82.7619 C 761.418 89.1765 767.732 92.9551 778.519 101.845 L 766.503 114.157 C 771.635 118.918 772.903 120.743 776.856 126.407 L 794.318 121.08 C 798.57 132.535 800.6 141.691 803.018 153.539 C 796.833 154.988 791.894 156.575 785.871 158.526 L 784.239 173.052 L 802.41 178.527 C 797.216 191.173 793.56 197.689 786.154 209.22 C 780.663 206.098 775.066 203.167 769.373 200.433 C 766.724 203.011 762.044 206.497 759.026 208.891 C 760.969 214.124 764.129 219.569 766.797 224.528 C 756.506 231.77 746.954 234.848 734.777 237.041 C 732.353 231.107 730.237 226.058 728.395 219.902 L 716.026 220.793 C 714.181 226.319 713.546 232.622 706.919 232.882 C 707.547 241.917 707.902 249.477 707.932 258.523 C 714.967 261.145 718.435 262.752 725.058 266.297 C 722.582 279.77 720.948 287.193 715.706 299.772 L 696.376 297.353 C 689.411 308.847 683.815 315.718 673.132 323.671 L 679.574 341.406 C 668.16 349.262 659.799 352.265 646.763 356.691 C 642.977 351.442 639.06 347.142 634.78 342.31 C 627.684 344.139 620.912 344.887 613.658 345.843 C 608.452 345.972 603.342 345.474 598.154 345.07 C 595.143 350.134 590.736 356.204 586.513 360.284 C 575.221 356.48 564.439 352.193 553.352 347.851 L 557.522 330.193 C 547.502 324.017 542.19 318.261 535.091 309.123 C 527.813 309.78 520.1 310.184 512.774 310.691 C 507.964 302.187 503.727 288.833 500.549 279.319 C 506.28 274.504 511.479 271.61 518.047 268.17 C 515.901 255.168 517.112 246.044 519.567 233.306 C 513.578 229.778 508.513 225.946 503.268 221.423 C 508.507 210.437 513.483 200.977 519.321 190.292 C 525.545 191.737 532.641 193.962 538.87 195.769 C 549.433 185.328 553.429 181.905 566.315 174.264 C 565.812 168.831 565.346 163.395 564.917 157.956 C 577.622 151.324 587.578 149.442 601.536 147.735 C 604.046 152.609 606.544 158.054 608.944 163.03 C 621.796 163.354 626.761 164.035 639.133 167.476 C 642.439 164.717 643.144 165.012 644.4 161.513 C 643.206 158.522 640.252 157.376 637.286 155.628 L 639.933 143.463 C 644.691 143.18 649.436 142.395 654.156 141.702 L 658.815 128.092 C 654.802 124.824 649.688 119.837 645.784 116.215 C 652.174 106.209 657.721 101.321 666.512 93.1715 C 671.455 96.2196 676.645 100.508 681.275 104.113 C 684.97 102.025 689.905 100.033 693.868 98.3011 L 692.858 82.7806 C 700.768 81.0454 707.861 79.4748 715.869 78.33 z" fill="rgb(4,8,17)" transform="translate(0,0)"></path>
<path d="M 596.811 151.344 L 598.192 151.339 C 601.263 153.343 605.318 162.128 607.367 166.013 C 622.061 166.278 626.43 167.649 640.815 171.495 C 643.801 167.287 648.837 163.452 652.857 160.063 L 653.259 160.172 C 656.557 161.106 659.728 162.502 662.894 163.65 C 679.768 169.774 680.274 174.148 675.233 189.937 C 697.082 206.042 706.895 234.388 704.2 260.844 C 709.968 263.04 716.103 265.761 721.831 268.188 C 719.428 278.054 717.568 286.193 713.952 295.755 C 706.018 295.199 702.322 294.914 694.639 293.068 C 685.83 307.787 682.074 312.551 668.606 322.934 C 671.527 327.46 673.719 334.88 675.53 340.148 C 666.007 345.965 658.602 349.068 648.173 352.857 L 636.303 338.373 C 633.067 339.28 629.279 340.085 625.966 340.872 C 613.97 342.826 608.557 342.536 596.253 341.804 C 593.285 346.487 589.032 352.174 585.754 356.8 C 576.251 353.501 566.851 349.714 557.484 346.032 C 558.683 339.266 559.549 335.401 561.531 328.823 C 549.93 321.675 544.547 316.434 536.554 305.669 C 529.114 306.346 521.661 306.855 514.199 307.195 L 503.995 280.21 C 509.052 276.838 516.444 272.831 521.856 269.7 C 518.44 255.736 520.323 245.186 523.78 231.642 C 517.039 228.004 513.291 225.343 507.05 220.832 C 511.583 211.62 515.745 202.891 521.094 194.095 C 527.419 195.633 533.626 197.831 539.807 199.893 C 550.078 188.752 556.575 183.422 569.977 176.202 C 569.206 171.026 569.001 164.752 568.684 159.454 C 579.001 155.187 585.786 153.002 596.811 151.344 z" fill="rgb(254,254,253)" transform="translate(0,0)"></path>
<path d="M 611.465 202.447 C 625.391 203.033 637.315 206.16 648.44 215.13 C 658.983 223.459 665.738 235.674 667.188 249.031 C 670.536 281.318 644.028 302.214 614.182 305.166 C 598.844 304.818 586.994 302.515 574.739 292.037 C 564.274 283.089 557.824 270.327 556.826 256.594 C 554.649 224.548 581.808 204.152 611.465 202.447 z" fill="rgb(4,8,17)" transform="translate(0,0)"></path>
<path d="M 603.98 206.138 C 630.738 204.495 657.148 216.53 663.292 244.832 C 665.698 256.397 663.386 268.443 656.869 278.296 C 648.149 291.762 635.719 297.94 620.751 301.277 C 606.872 302.644 595.129 301.61 582.774 293.87 C 571.816 287.025 564.089 276.043 561.346 263.417 C 558.701 251.688 560.864 239.389 567.351 229.266 C 576.059 215.731 588.845 209.413 603.98 206.138 z" fill="rgb(254,254,253)" transform="translate(0,0)"></path>
<path d="M 712.124 82.3305 C 714.721 81.8653 714.911 81.7195 717.233 82.7256 C 719.762 85.9352 720.113 92.1392 720.735 96.4111 C 728.824 97.217 733.187 98.3033 740.762 100.804 L 750.057 87.0409 C 758.895 91.7136 765.373 96.2602 773.366 102.193 L 761.715 114.071 C 768.134 120.272 770.817 123.359 774.992 130.925 C 780.005 128.983 786.542 126.963 791.744 125.186 C 795.152 134.686 796.956 141.149 799.223 150.951 C 793.21 152.879 788.331 153.736 782.148 154.911 C 782.774 162.082 781.487 168.215 779.978 175.11 C 786.053 177.072 792.085 179.166 798.069 181.39 C 793.666 190.118 790.62 196.313 785.019 204.442 C 780.558 202.407 773.474 198.189 769.014 195.689 C 763.555 200.967 760.814 203.364 754.667 207.796 C 757.115 213.082 759.608 218.347 762.146 223.59 C 753.135 228.254 746.715 231.01 736.967 233.597 C 734.526 227.351 732.942 223.213 731.223 216.722 C 725.566 217.171 719.46 217.101 713.754 217.154 C 712.327 221.727 711.903 224.735 708.351 227.554 C 706.223 226.972 705.032 226.434 703.848 224.112 C 695.451 207.639 693.3 200.787 678.946 188.493 L 681.887 179.536 L 682.548 175.384 C 686.862 177.312 689.807 185.342 696.045 189.517 C 705.506 195.848 714.836 198.642 726.235 196.663 C 736.918 194.805 746.404 188.728 752.559 179.802 C 758.392 171.347 760.687 161.242 758.627 151.134 C 756.332 140.359 749.758 130.978 740.414 125.143 C 731.281 119.405 720.237 117.548 709.73 119.985 C 699.27 122.441 690.236 128.996 684.656 138.177 C 678.032 149.234 678.709 158.991 681.596 170.755 C 676.233 166.325 670.206 163.748 663.902 161.006 C 657.575 158.253 643.988 157.635 641.902 150.434 C 644.807 145.209 651.65 145.435 657.098 144.786 C 658.608 137.408 660.426 133.685 663.447 126.773 C 658.572 123.147 654.57 119.585 650.02 115.58 C 654.813 109.028 661.037 103.16 666.985 97.6954 C 670.822 100.099 677.271 105.317 681.082 108.249 C 687.677 104.144 690.152 103.056 697.339 100.983 L 696.63 85.6058 C 701.775 84.4268 706.941 83.3349 712.124 82.3305 z" fill="rgb(254,254,253)" transform="translate(0,0)"></path>
<path d="M 716.214 122.208 C 735.66 120.492 752.94 134.567 755.194 153.958 C 757.449 173.35 743.86 191.013 724.539 193.806 C 711.554 195.683 698.575 190.358 690.649 179.903 C 682.723 169.447 681.103 155.512 686.418 143.517 C 691.733 131.521 703.144 123.36 716.214 122.208 z" fill="rgb(254,254,253)" transform="translate(0,0)"></path>
<path d="M 712.316 135.295 C 725.312 131.49 738.915 139.018 742.593 152.051 C 746.27 165.083 738.608 178.612 725.54 182.161 C 712.653 185.661 699.351 178.128 695.724 165.275 C 692.098 152.423 699.5 139.048 712.316 135.295 z" fill="rgb(4,8,17)" transform="translate(0,0)"></path>
<path d="M 713.912 138.36 C 721.294 136.456 729.128 138.694 734.39 144.211 C 739.652 149.728 741.518 157.659 739.267 164.943 C 737.016 172.227 731 177.723 723.544 179.309 C 712.351 181.689 701.308 174.687 698.688 163.548 C 696.068 152.409 702.831 141.219 713.912 138.36 z" fill="rgb(254,254,253)" transform="translate(0,0)"></path>
<path d="M 1324.69 560.78 C 1340.09 562.134 1355.49 563.589 1370.87 565.143 C 1369.55 574.605 1368.74 586.469 1367.73 596.147 C 1382.15 600.022 1391.9 606.133 1403.75 614.885 C 1411.55 607.537 1419.46 600.325 1427.51 593.252 C 1437.56 604.28 1448.28 615.067 1457.88 626.411 C 1448.89 632.905 1440.08 639.66 1431.48 646.669 C 1436.9 656.398 1440.67 666.948 1442.67 677.901 C 1454.27 679.707 1465.82 680.352 1477.71 682.414 C 1477.27 694.23 1475.37 710.104 1474.4 722.34 C 1465.36 721.791 1448.69 720.076 1439.96 718.56 C 1435.31 732.621 1431.51 740.232 1422.76 751.998 C 1431.14 759.489 1440 768.164 1448.37 775.892 C 1435.99 785.323 1423.1 794.052 1410.77 803.619 C 1403.05 795.421 1396.42 788.389 1389.35 779.591 C 1375.49 787.02 1366.46 788.808 1350.97 791.108 C 1350.31 802.334 1349.54 813.554 1348.67 824.765 C 1333.52 823.258 1317.91 821.989 1302.9 819.759 C 1304.19 809.857 1305.34 798.886 1307.69 789.271 C 1289.34 784.276 1283.02 781.229 1267.42 770.455 L 1242.12 790.081 C 1232.18 778.782 1222.35 767.393 1212.62 755.915 C 1220.84 749.73 1231.39 743.042 1240.05 737.228 C 1232.4 724.234 1230.71 718.739 1227.94 704.063 L 1193.11 701.708 C 1194.05 687.809 1194.74 673.894 1195.19 659.97 C 1204.78 659.833 1220.73 661.613 1231.15 662.094 C 1235 649.401 1239.7 640.301 1247.93 629.864 C 1239.54 622.46 1231.29 614.897 1223.19 607.179 C 1234.28 598.319 1247.43 587.332 1259 579.57 C 1266.66 588.222 1273.88 595.142 1282.16 603.17 C 1295.59 596.041 1306.82 594.049 1321.68 591.564 C 1323.04 581.864 1323.8 570.634 1324.69 560.78 z" fill="rgb(4,8,17)" transform="translate(0,0)"></path>
<path d="M 1327.57 564.691 C 1340.4 565.547 1353.9 567.196 1366.92 568.214 C 1365.75 578.941 1365.13 587.845 1364.6 598.582 C 1378.87 602.358 1392.71 610.271 1404.16 619.468 C 1411.03 612.71 1419.98 605.104 1427.27 598.581 C 1435.83 607.379 1444.21 616.831 1452.49 625.93 C 1444.98 631.541 1433.68 639.866 1426.88 645.923 C 1433.77 658.8 1437.12 667.127 1439.44 681.48 C 1450.22 682.217 1462.77 684.07 1473.61 685.411 C 1472.58 696.406 1471.7 707.415 1470.99 718.436 C 1459.69 717.522 1448.41 716.363 1437.15 714.96 C 1432.85 731.071 1427.62 738.892 1417.79 752.167 C 1423.45 758.48 1436.15 769.497 1442.74 775.368 C 1433.18 783.021 1420.93 791.551 1410.91 798.93 L 1389.96 775.059 C 1374.83 783.354 1364.39 786.357 1347.28 787.335 C 1347.02 799.286 1346.68 808.642 1345.51 820.562 C 1334.1 820.125 1318.79 818.113 1307.15 816.854 C 1308.4 806.635 1309.82 796.437 1311.41 786.265 C 1291.96 781.581 1282.95 777.731 1267.49 765.213 C 1263.08 769.79 1248.61 780.474 1242.86 785.015 C 1234.58 776.111 1225.96 765.882 1217.89 756.675 C 1226.89 750.474 1235.84 744.532 1244.77 738.175 C 1236.08 724.865 1233.16 715.685 1230.84 700.182 C 1220.29 699.947 1207.63 698.883 1197.18 697.953 C 1196.94 689.72 1198.32 672.76 1198.82 663.924 C 1208.78 663.915 1223.51 665.372 1233.31 666.443 C 1236.93 653.019 1243.61 640.615 1252.82 630.201 C 1245.05 622.449 1236.56 614.89 1228.44 607.456 C 1237.48 601.192 1249.35 591.112 1258.44 584.089 C 1265.14 591.646 1274.02 600.42 1281.15 607.81 C 1293.37 601.386 1310.84 595.4 1324.74 595.513 C 1326.33 584.895 1326.88 575.366 1327.57 564.691 z" fill="rgb(254,254,253)" transform="translate(0,0)"></path>
<path d="M 1327.94 623.347 C 1347.61 618.818 1381.54 633.711 1393.87 649.641 C 1430.66 697.176 1398.01 751.915 1341.91 759.625 C 1321.23 761.154 1300.77 754.506 1284.94 741.111 C 1270.88 729.359 1262.12 712.452 1260.63 694.184 C 1257.55 655.394 1291.15 626.218 1327.94 623.347 z" fill="rgb(116,201,196)" transform="translate(0,0)"></path>
<path d="M 1329.6 629.373 C 1381.07 621.882 1426.19 682.617 1390.91 727.25 C 1377.86 743.757 1361.64 750.964 1341.26 753.749 C 1322.81 754.944 1303.91 749.499 1289.61 737.619 C 1276.71 726.974 1268.56 711.644 1266.96 694.996 C 1263.63 656.524 1294.32 632.465 1329.6 629.373 z" fill="rgb(254,254,253)" transform="translate(0,0)"></path>
<path d="M 1677.5 220.865 C 1694.54 217.772 1717.19 223.555 1727.34 238.223 C 1736.55 244.237 1743.24 248.368 1754.86 245.894 C 1768.62 242.961 1779.54 235.728 1793.04 244.778 C 1807.74 253.752 1807.06 270.317 1798.69 283.465 C 1778.82 314.662 1729.52 322.6 1698.88 303.8 C 1689.89 298.287 1672.38 278.999 1667.64 269.901 C 1668.11 269.159 1667.9 269.093 1667.94 267.95 L 1665.18 265.916 C 1665.97 261.711 1671.35 262.825 1671.65 259.065 C 1672.36 250.236 1661.73 233.953 1665.68 226.322 C 1675.68 224.282 1675.88 223.382 1687.75 221.849 L 1687.72 221.415 L 1677.5 220.865 z" fill="rgb(21,37,54)" transform="translate(0,0)"></path>
<path d="M 1727.34 238.223 C 1736.55 244.237 1743.24 248.368 1754.86 245.894 C 1768.62 242.961 1779.54 235.728 1793.04 244.778 C 1788.92 245.569 1781.65 241.064 1779.54 241.903 C 1767.05 246.869 1733.7 255.801 1727.34 238.223 z" fill="rgb(5,16,31)" transform="translate(0,0)"></path>
<path d="M 1197.65 814.369 C 1202.25 815.384 1272.75 880.644 1278.76 889.168 L 1277.84 890.338 C 1269.47 893.356 1229.02 892.077 1217.71 892.004 C 1217.7 901.723 1218.96 930.237 1216.48 937.744 L 1214.52 938.611 C 1211.66 937.779 1204.82 932.083 1203.07 930.034 C 1195.96 921.704 1149.83 881.589 1148.27 874.327 L 1149.54 872.608 C 1154.2 871.921 1169.95 872.468 1175.5 872.462 L 1234.72 872.216 C 1229.85 868.541 1227.94 867.588 1226.39 861.834 L 1227.16 860.557 C 1230.46 861.173 1230.55 862.107 1233.47 864.707 C 1237.41 868.325 1242.22 871.242 1241.64 876.837 C 1233.78 879.499 1169.94 878.102 1157.62 877.912 C 1175.84 894.418 1193.33 912.378 1211.53 929.21 C 1211.66 914.869 1211.51 900.37 1211.47 886.016 L 1268.35 885.945 C 1247 867.179 1224.66 845.384 1203.83 825.825 C 1203.08 834.028 1205.35 860.596 1200.15 864.777 L 1198.33 863.582 C 1196.26 860.187 1196.61 820.149 1197.65 814.369 z" fill="rgb(116,201,196)" transform="translate(0,0)"></path>
<path d="M 837.914 339.033 C 838.257 339.284 839.39 340.634 839.748 341.041 L 839.441 343.131 C 835.749 347.058 801.097 357.536 793.265 360.179 L 697.993 392.465 C 604.303 425.137 510.379 457.133 416.227 488.45 C 414.982 487.767 414.868 487.436 413.894 486.379 L 414.284 484.749 C 419.718 480.336 512.275 450.548 525.51 446.019 L 837.914 339.033 z" fill="rgb(116,201,196)" transform="translate(0,0)"></path>
<path d="M 1632.58 70.7599 C 1637.74 70.5014 1668.13 79.6665 1672.58 82.8237 C 1670.95 88.9832 1654.32 115.371 1647.56 113.912 L 1646.75 111.69 C 1650.35 104.896 1657.7 96.263 1662.65 90.2582 L 1397.2 182.035 C 1390.08 184.266 1359.33 198.124 1355.96 192.371 L 1356.69 190.478 C 1363.01 186.68 1376.08 182.96 1383.58 180.296 C 1402.06 173.611 1420.62 167.141 1439.25 160.886 C 1496.29 141.66 1553.17 121.974 1609.9 101.83 C 1626.23 95.991 1643.67 90.6514 1659.71 84.4458 C 1652.11 81.3125 1640.89 79.6287 1633.85 75.2875 C 1632.28 74.3143 1632.66 72.6871 1632.58 70.7599 z" fill="rgb(116,201,196)" transform="translate(0,0)"></path>
<path d="M 835.127 318.862 C 837.93 319.625 836.949 319.02 838.888 321.104 L 838.079 322.9 C 832.406 327.042 786.303 341.272 777.252 344.297 L 685.62 375.506 C 610.776 400.811 536.314 427.919 461.187 452.494 C 460.025 452.367 458.675 451.85 457.524 451.486 L 457.074 449.929 C 460.031 446.058 486.16 438.494 492.256 436.417 L 547.034 417.308 L 734.308 353.018 C 767.135 341.881 802.94 330.757 835.127 318.862 z" fill="rgb(116,201,196)" transform="translate(0,0)"></path>
<path d="M 1575.75 771.083 C 1578.97 770.812 1577.96 770.417 1580.1 772.034 L 1579.93 773.793 C 1577.47 777.265 1525.1 794.684 1517.41 797.394 L 1390.22 842.352 L 1387.45 841.642 L 1386.71 839.552 C 1389.5 835.087 1441.29 818.516 1451.4 814.876 C 1492.63 799.669 1534.09 785.07 1575.75 771.083 z" fill="rgb(116,201,196)" transform="translate(0,0)"></path>
<path d="M 1572.22 791.963 C 1575.58 791.663 1574.33 791.359 1577.07 792.893 L 1577.05 794.816 C 1569.74 802.229 1434.16 845.764 1412.05 855.164 L 1408.71 854.589 L 1407.67 852.893 C 1410.93 847.296 1457.35 832.936 1466.56 829.725 C 1501.86 817.359 1537.08 804.771 1572.22 791.963 z" fill="rgb(116,201,196)" transform="translate(0,0)"></path>
<path d="M 1320.43 493.812 C 1322.22 493.651 1324.41 493.666 1326.38 494.457 C 1376.07 514.414 1426.81 533.766 1475.68 555.445 C 1477.15 556.1 1476.94 558.598 1477.08 560.354 C 1465.86 558.974 1344.41 506.287 1322.97 498.506 C 1320.79 497.717 1320.96 496.09 1320.43 493.812 z" fill="rgb(116,201,196)" transform="translate(0,0)"></path>
<path d="M 1325.99 475.033 C 1333.99 474.119 1360.06 486.322 1369.19 490.032 L 1423.57 511.785 C 1440.03 518.433 1458.37 525.641 1474.76 532.946 C 1477.07 533.976 1476.87 535.856 1477.4 538.47 C 1472.8 538.906 1426.8 518.782 1418.49 515.463 C 1389.47 503.868 1359.64 491.815 1330.44 480.31 C 1326.75 478.859 1327.41 478.478 1325.99 475.033 z" fill="rgb(116,201,196)" transform="translate(0,0)"></path>
<path d="M 1182.1 886.868 C 1182.27 886.849 1182.44 886.827 1182.61 886.81 C 1188.07 886.266 1192.37 890.131 1196.39 893.434 C 1201.21 897.384 1205.54 901.046 1206.17 907.448 L 1203.44 908.173 C 1199.88 907.782 1195.86 903.635 1193.22 901.24 C 1189.4 897.774 1182.38 892.225 1182.1 886.868 z" fill="rgb(116,201,196)" transform="translate(0,0)"></path>
<path d="M 1211.55 844.359 C 1219.33 847.515 1218.97 860.929 1215.01 865.352 C 1207.7 862.715 1209.41 850.25 1211.55 844.359 z" fill="rgb(116,201,196)" transform="translate(0,0)"></path>
<metadata><recraft-signature>{"signed_by": "recraft", "signature_b64": "V7nzylOieA0qL1Ylh0icykifmmBX34pZFrceIQ7wPmfcD6RI1WEP0F0J+HojQTtl+VQIGOHN/YaT4L8wYAcHDA==", "signing_algo": "Ed25519", "generation_timestamp": 1777312794, "identifier": "237148e2-08a3-40b6-8798-4a533a1fa419"}</recraft-signature></metadata></svg>