<svg xmlns="http://www.w3.org/2000/svg" height="1024" preserveAspectRatio="none" style="display: block;" version="1.1" viewBox="0 0 2048 1024" width="2048">
<path d="M 0 0 L 2048 0 L 2048 1024 L 0 1024 L 0 0 z" fill="rgb(254,253,253)" transform="translate(0,0)"></path>
<path d="M 848.913 34.0267 C 849.366 34.5608 849.917 35.2111 850.567 35.9776 C 851.377 54.6341 851.025 79.6289 851.105 97.6301 C 855.824 99.6616 861.801 103.337 866.373 105.961 C 886.603 98.5693 906.121 89.0659 926.431 81.4222 C 926.507 99.3962 926.674 117.37 926.933 135.342 C 943.344 128.631 960.43 121.901 976.529 114.6 C 976.092 139.842 976.155 165.812 976.416 191.06 C 978.109 354.906 973.92 519.59 976.67 683.362 L 748.86 777.336 C 710.283 793.203 664.561 810.159 627.23 826.873 C 617.514 866.241 598.517 867.218 564.179 878.099 L 506.775 896.216 L 284.669 965.176 C 273.361 969.247 258.443 973.345 246.801 976.867 C 236.957 972.581 217.141 960.626 206.742 954.607 C 184.489 941.727 160.362 928.409 138.707 914.733 C 130.764 917.173 125.075 918.996 117.453 922.218 C 116.258 901.326 117.168 871.359 117.2 849.791 L 117.282 717.093 C 117.229 599.245 115.724 478.401 117.342 360.767 L 383.775 273.339 L 449.803 251.435 C 460.284 247.873 479.838 240.602 489.898 238.446 C 491.782 231.611 494.185 224.93 497.086 218.461 C 515.218 178.559 561.103 160.062 598.798 142.41 C 623.492 130.816 648.334 119.538 673.316 108.579 C 727.628 84.5932 793.334 54.9975 848.913 34.0267 z" fill="rgb(3,5,18)" transform="translate(0,0)"></path>
<path d="M 620.762 273.928 C 622.264 275.732 621.372 310.769 621.345 315.062 L 621.219 418.499 L 621.432 684.589 C 621.535 733.054 621.785 781.817 621.37 830.301 C 621.331 834.887 618.264 839.86 616.604 843.649 C 614.391 848.701 604.321 859.196 599.219 861.361 C 588.24 866.018 574.271 869.95 562.576 873.59 L 496.763 894.223 C 417.255 919.201 336.123 945.013 256.246 968.87 L 254.823 968.816 C 253.219 966.638 253.874 829.548 253.933 811.795 L 253.817 419.793 L 603.724 301.503 C 607.281 294.61 616.201 281.269 620.762 273.928 z" fill="rgb(254,253,253)" transform="translate(0,0)"></path>
<path d="M 548.361 353.9 L 550.12 354.848 C 551.522 359.726 550.495 393.583 550.892 401.421 C 495.386 426.889 439.647 451.849 383.683 476.296 C 355.569 488.675 326.63 501.918 298.271 513.567 L 296.204 513.765 C 294.011 510.673 295.035 471.661 295.084 464.94 L 548.361 353.9 z" fill="rgb(245,179,81)" transform="translate(0,0)"></path>
<path d="M 549.025 516.988 L 550.781 517.659 C 552.068 523.067 550.807 554.589 551.782 564.262 L 297.39 676.503 L 296.415 676.577 C 294.274 673.569 295.14 635.698 295.147 628.998 C 327.843 615.606 365.56 597.783 397.891 583.272 L 549.025 516.988 z" fill="rgb(245,179,81)" transform="translate(0,0)"></path>
<path d="M 548.64 742.955 L 549.965 743.032 C 552.261 746.192 551.084 783.91 551.024 790.629 C 539.828 796.529 522.721 803.207 510.881 808.151 L 447.96 834.697 L 356.952 873.691 C 338.187 881.733 316.417 891.437 297.431 898.399 L 296.235 898.383 C 294.028 895.372 295.292 858.914 295.505 852.678 L 548.64 742.955 z" fill="rgb(245,179,81)" transform="translate(0,0)"></path>
<path d="M 549.236 683.909 C 550.946 684.581 550.472 684.458 551.792 686.06 C 549.46 690.506 495.788 712.324 488.378 715.532 L 362.873 769.866 C 343.698 778.138 313.967 789.856 295.92 799.066 C 293.5 797.181 294.078 798.15 293.434 795.498 C 296.137 791.89 524.608 694.632 549.236 683.909 z" fill="rgb(3,5,18)" transform="translate(0,0)"></path>
<path d="M 547.853 459.844 L 550.648 460.465 L 551.419 462.062 C 547.301 467.512 321.452 564.421 296.447 574.886 C 294.107 574.36 294.957 574.977 293.667 573.205 C 295.502 569.187 324.445 557.735 330.476 555.098 C 351.705 545.746 372.987 536.515 394.321 527.405 C 445.628 505.18 496.806 482.659 547.853 459.844 z" fill="rgb(3,5,18)" transform="translate(0,0)"></path>
<path d="M 548.958 621.667 L 551.45 623.154 L 551.762 624.836 C 548.847 629.41 320.663 726.17 295.966 738.046 L 293.713 735.99 L 293.877 734.015 C 299.13 728.98 521.097 634.864 548.958 621.667 z" fill="rgb(3,5,18)" transform="translate(0,0)"></path>
<path d="M 969.673 123.048 C 970.116 123.324 971.27 124.617 971.271 124.958 C 971.333 149.814 971.222 210.471 971.211 231.166 L 971.197 679.453 C 951.102 690.24 909.125 705.398 886.005 715.463 C 801.309 752.333 712.979 784.976 628.294 821.546 C 625.857 818.729 626.899 751.512 626.899 742.875 L 626.876 592.311 L 626.733 381.918 C 626.547 341.88 626.658 301.84 627.068 261.803 C 636.457 257.103 656.641 249.591 667.179 245.261 C 698.533 232.309 730.022 219.689 761.642 207.402 L 969.673 123.048 z" fill="rgb(254,253,253)" transform="translate(0,0)"></path>
<path d="M 808.714 301.405 C 811.773 302.82 822.632 314.123 825.741 317.208 C 820.518 325.821 815.226 334.392 809.867 342.92 C 814.84 351.498 815.455 355.302 817.387 364.788 C 827.152 360.673 836.392 356.779 845.958 352.171 C 844.216 361.044 843.14 373.48 842.034 382.743 C 834.087 386.896 825.394 390.997 817.308 394.996 C 815.345 405.766 813.516 412.315 809.017 422.245 C 815.094 425.537 819.643 428.216 825.439 431.981 C 819.204 441.687 812.341 451.636 805.902 461.26 C 800.797 458.156 794.083 454.843 788.688 452.022 C 782.34 459.14 773.908 465.715 766.466 471.794 C 766.504 479.397 766.645 487 766.889 494.6 C 757.726 499.129 747.752 503.812 739.014 508.988 L 738.811 483.635 C 729.287 484.98 722.56 485.776 713.048 484.086 C 708.138 492.043 701.168 503.173 695.19 510.051 L 674.163 497.326 C 680.978 488.772 687.1 478.857 692.79 469.51 C 686.789 461.979 685.667 458.736 682.514 449.941 C 675.764 453.233 666.222 456.588 658.715 459.969 L 660.265 429.94 C 666.89 425.975 675.586 422.037 682.617 418.855 C 684.125 407.122 686.413 401.54 691.026 390.555 L 674.636 380.199 C 681.751 370.693 688.913 360.381 695.955 350.713 C 701.066 353.789 706.605 357.578 711.649 360.883 C 719.942 351.382 725.692 347.135 736.01 339.759 C 736.755 330.983 737.696 322.612 738.309 313.738 C 747.62 309.783 756.953 305.71 766.441 302.212 C 766.068 310.532 764.805 319.687 763.822 328.034 C 773.595 326.344 780.189 326.672 789.962 327.466 C 796.137 318.725 802.388 310.037 808.714 301.405 z" fill="rgb(3,5,18)" transform="translate(0,0)"></path>
<path d="M 809.384 308.557 C 811.426 309.463 817.71 316.68 819.651 318.77 C 814.406 326.08 808.951 335.147 804.071 342.835 C 809.966 353.458 812.135 360.637 813.553 372.497 C 822.687 367.938 830.451 364.736 839.855 359.661 L 837.59 379.57 C 830.182 383.715 821.059 387.944 813.322 391.875 C 810.306 406.234 808.903 411.101 802.992 424.547 C 808.331 428.308 812.83 430.794 818.512 433.976 C 813.132 441.606 809.755 446.723 805.217 454.846 C 798.999 450.844 794.866 449.05 788.111 446.012 C 779.118 455.622 773.55 460.966 762.701 468.354 C 761.952 475.331 761.743 484.459 761.381 491.616 C 755.434 495.128 749.313 498.196 743.175 501.358 L 743.776 478.144 C 733.645 480.409 720.488 479.83 712.158 479.632 C 708.066 479.535 699.613 499.767 694.108 503.852 C 690.025 501.18 685.898 498.575 681.728 496.039 C 686.703 487.851 693.663 477.844 699.029 469.697 C 692.249 462.07 691.15 459.46 687.953 450.046 C 686.831 446.744 686.121 446.572 683.607 445.582 C 678.036 446.167 668.913 450.793 663.43 453.265 L 664.543 432.395 L 686.934 421.673 C 689.489 406.578 691.021 402.67 696.921 388.183 C 693.075 385.548 685.636 381.484 681.38 378.992 C 686.632 372.125 691.757 364.25 696.639 357.048 C 702.312 360.897 706.751 363.868 712.743 367.186 C 720.398 356.845 730.274 349.443 740.94 342.534 C 741.873 334.199 742.423 325.586 743.057 317.203 C 749.115 314.185 755.185 311.552 761.374 308.827 C 760.44 317.426 759.447 326.018 758.393 334.603 C 770.647 330.722 779.334 331.581 791.72 333.316 C 797.359 324.888 803.25 316.631 809.384 308.557 z" fill="rgb(101,158,157)" transform="translate(0,0)"></path>
<path d="M 758.704 352.188 C 820.314 346.679 805.471 444.092 742.392 461.108 C 680.858 471.27 692.907 371.791 758.704 352.188 z" fill="rgb(3,5,18)" transform="translate(0,0)"></path>
<path d="M 762.949 356.207 C 814.19 357.921 796.986 442.796 738.733 457.222 C 682.311 456.818 706.307 369.631 762.949 356.207 z" fill="rgb(254,253,253)" transform="translate(0,0)"></path>
<path d="M 910.798 231.755 C 914.331 232.763 921.664 233.487 925.581 233.988 C 928.159 252.884 927.872 274.473 931.068 293.013 C 909.133 319.715 912.194 316.471 905.933 350.887 L 896.035 405.463 L 857.935 616.413 C 859.23 617.592 860.476 618.823 861.671 620.104 C 867.737 626.721 871.659 637.012 871.177 646.048 C 870.729 654.007 867.132 661.461 861.18 666.764 C 852.694 674.365 844.101 675.613 833.405 675.119 C 820.408 671.347 809.511 662.621 806.473 648.912 C 804.679 641.015 806.155 632.727 810.566 625.935 C 815.998 617.536 824.348 612.564 833.951 610.375 C 837.933 594.878 840.753 574.733 843.771 558.436 L 865.554 436.44 L 879.446 361.253 C 882.374 346 885.989 329.316 887.668 313.977 C 888.452 306.818 883.863 291.22 881.897 283.484 C 891.955 266.724 900.639 248.231 910.798 231.755 z" fill="rgb(3,5,18)" transform="translate(0,0)"></path>
<path d="M 887.047 283.844 C 893.028 273.907 908.365 242.575 915.129 238.101 C 923.897 237.751 922.909 258.845 923.689 265.766 C 924.647 274.27 924.79 283.2 925.619 291.785 C 923.319 294.872 909.644 312.083 909.1 314.086 C 902.859 337.052 898.452 365.342 894.164 388.717 C 880.137 465.183 867.111 542.2 852.817 618.582 C 857.812 622.843 859.601 624.109 862.919 629.922 C 860.276 631.977 861.278 631.849 858.689 631.58 C 856.672 627.967 853.704 624.975 850.106 622.93 L 849.916 621.369 C 846.889 618.426 842.613 619.718 840.035 617.673 C 839.434 617.197 841.931 606.189 841.07 601.743 C 843.305 579.815 851.001 546.99 855.124 524.27 L 879.837 385.152 C 883.717 364.322 887.697 343.467 891.643 322.651 C 894.578 307.167 889.978 298.614 887.047 283.844 z" fill="rgb(245,179,81)" transform="translate(0,0)"></path>
<path d="M 841.07 601.743 C 841.931 606.189 839.434 617.197 840.035 617.673 C 842.613 619.718 846.889 618.426 849.916 621.369 L 850.106 622.93 C 853.704 624.975 856.672 627.967 858.689 631.58 C 861.278 631.849 860.276 631.977 862.919 629.922 C 875.854 655.641 850.494 680.279 826.363 667.065 C 819.02 663.043 813.623 656.215 811.403 648.142 C 806.021 627.874 821.458 618.491 838.399 614.328 C 839.059 610.333 840.189 605.748 841.07 601.743 z" fill="rgb(3,5,18)" transform="translate(0,0)"></path>
<path d="M 841.07 601.743 C 841.931 606.189 839.434 617.197 840.035 617.673 C 842.613 619.718 846.889 618.426 849.916 621.369 L 850.106 622.93 C 840.269 617.338 827.813 619.868 820.936 628.855 C 814.06 637.842 814.875 650.527 822.845 658.56 C 830.815 666.593 843.492 667.508 852.534 660.703 C 861.575 653.897 864.203 641.462 858.689 631.58 C 861.278 631.849 860.276 631.977 862.919 629.922 C 875.854 655.641 850.494 680.279 826.363 667.065 C 819.02 663.043 813.623 656.215 811.403 648.142 C 806.021 627.874 821.458 618.491 838.399 614.328 C 839.059 610.333 840.189 605.748 841.07 601.743 z" fill="rgb(232,182,101)" transform="translate(0,0)"></path>
<path d="M 835.623 624.272 C 855.602 623.45 868.512 651.926 842.269 660.305 C 834.207 660.394 826.402 657.003 822.699 649.502 C 820.674 645.407 820.411 640.663 821.972 636.371 C 824.464 629.336 829.391 627.206 835.623 624.272 z" fill="rgb(254,253,253)" transform="translate(0,0)"></path>
<path d="M 777.488 528.446 C 782.62 530.564 786.539 534.256 790.746 537.826 C 787.672 543.274 784.561 548.701 781.414 554.107 L 786.118 564.982 C 791.008 562.531 796.82 557.857 801.048 562.156 C 802.076 566.453 800.046 574.961 799.212 579.68 C 794.603 582.369 789.877 584.796 786.147 588.598 L 782.598 602.102 L 790.512 608.582 C 784.998 616.724 779.834 624.861 774.204 633.062 L 766.219 627.533 C 761.844 631.751 755.133 637.091 750.34 641.126 L 749.9 656.18 L 732.408 664.813 C 731.479 660.015 731.003 653.205 730.505 648.207 L 717.79 648.058 C 713.559 654.382 709.192 660.614 704.693 666.749 C 700.16 663.799 695.014 661.033 690.276 658.36 C 693.98 651.801 697.55 646.27 701.187 639.395 L 695.551 629.93 L 679.042 637.933 L 679.948 614.139 L 695.161 607.503 C 696.509 601.964 698.86 594.784 700.518 589.187 C 688.782 581.576 699.727 575.655 705.015 567.435 C 706.173 565.636 707.983 563.605 709.333 561.86 C 711.82 563.758 714.755 566.429 717.178 568.52 C 721.337 564.801 725.521 560.855 729.633 557.063 C 729.928 552.364 729.862 546.269 729.94 541.454 C 736.447 537.739 743.499 534.333 750.221 530.961 L 752.151 546.092 L 764.073 545.859 C 768.562 540.351 773.14 534.127 777.488 528.446 z" fill="rgb(3,5,18)" transform="translate(0,0)"></path>
<path d="M 778.516 534.49 C 782.332 537.149 782.286 536.267 783.821 539.965 C 783.184 544.529 778.464 550.129 775.577 554.98 C 779.48 562.073 780.361 564.179 782.874 571.957 C 787.508 569.435 792.409 567.039 797.146 564.465 L 795.206 576.862 C 792.016 579.331 786.755 582.367 783.204 584.563 C 781.093 589.706 778.774 597.403 776.968 602.849 C 779.17 604.883 781.969 607.152 784.286 609.137 L 773.245 626.216 L 765.548 620.999 C 758.872 628.182 754.018 632.105 746.324 638.223 C 744.506 649.718 749.02 652.869 736.435 657.168 C 735.767 652.904 736.115 648.018 734.52 644.427 C 731.341 642.844 729.564 643.676 726.335 643.437 C 712.877 642.442 712.487 647.567 705.654 657.516 C 704.687 658.466 702.632 659.295 701.316 659.915 C 695.206 657.285 704.702 643.397 706.902 639.534 C 703.229 633.53 700.863 630.258 699.196 623.379 L 684.525 630.768 L 684.996 617.19 C 687.137 616.297 694.984 613.305 696.199 611.823 C 701.941 604.814 705.672 598.306 705.971 589.009 C 706.047 586.656 702.72 584.58 700.871 582.984 C 703.959 576.939 706.116 573.975 710.054 568.495 L 718.347 574.3 C 724.005 568.851 728.139 564.718 734.503 560.146 L 734.933 544.171 L 746.224 538.405 C 748.428 557.05 751.24 549.773 767.156 550.527 C 770.507 546.431 775.344 539.041 778.516 534.49 z" fill="rgb(101,158,157)" transform="translate(0,0)"></path>
<path d="M 752.845 561.24 C 794.234 561.598 770.444 622.461 732.199 634.217 C 690.486 636.795 710.738 570.179 752.845 561.24 z" fill="rgb(3,5,18)" transform="translate(0,0)"></path>
<path d="M 753.601 566.11 C 788.33 568.216 760.18 624.815 729.194 629.849 C 695.851 624.895 721.887 572.271 753.601 566.11 z" fill="rgb(254,253,253)" transform="translate(0,0)"></path>
<path d="M 805.56 79.8696 C 808.647 79.6991 854.12 105.067 860.358 108.481 C 793.278 135.562 702.53 172.826 648.502 220.779 C 633.241 234.324 618.597 254.972 606.452 271.548 C 605.861 271.145 605.267 270.746 604.67 270.352 C 583.117 256.121 560.132 243.276 538.232 229.565 C 534.833 227.436 531.978 225.055 527.892 225.908 L 527.46 227.702 C 530.742 231.836 596.561 270.705 604.638 275.739 C 602.256 278.897 599.893 282.068 597.547 285.253 C 566.005 294.032 523.892 309.813 491.941 320.499 L 309.249 380.638 C 284.536 389.321 257.967 396.651 233.772 405.778 C 207.937 394.72 180.65 381.26 155.083 369.156 C 162.454 367.567 176.649 362.753 184.563 360.404 C 210.862 352.56 237.057 344.373 263.142 335.844 L 502.283 257.353 C 509.715 241.602 509.669 229.305 524.909 217.053 C 559.95 188.883 602.16 171.956 642.416 152.841 C 696.266 127.271 751.101 104.04 805.56 79.8696 z" fill="rgb(254,253,253)" transform="translate(0,0)"></path>
<path d="M 843.935 40.9524 L 845.334 41.1419 C 846.412 43.7302 846.409 89.5614 846.626 95.8936 C 836.264 89.3992 817.742 79.7852 806.633 74.1046 C 786.892 84.0851 758.731 95.2018 737.831 104.446 C 693.808 124.012 649.962 143.975 606.299 164.333 C 578.663 177.354 532.557 199.215 512.535 222.984 C 507.752 228.662 502.174 245.083 499.386 252.832 C 483.597 258.948 460.776 265.797 444.381 271.267 C 407.417 283.686 370.392 295.92 333.305 307.969 C 274.15 327.213 200.406 352.874 141.242 368.27 C 140.399 391.016 140.859 416.751 140.827 439.767 L 140.807 570.416 L 140.507 908.654 C 139.249 910.386 125.515 913.975 122.426 914.885 L 122.166 363.997 C 158.786 353.511 197.615 340.093 233.801 328.073 C 284.846 310.841 335.99 293.904 387.231 277.264 L 452.179 255.869 C 466.465 251.161 476.777 246.217 491.417 244.138 C 494.403 240.495 500.145 223.875 502.414 218.63 C 515.958 187.332 551.491 170.405 580.322 156.304 C 599.951 146.704 619.221 138.001 638.675 129.147 C 706.598 98.606 775.028 69.2036 843.935 40.9524 z" fill="rgb(101,158,157)" transform="translate(0,0)"></path>
<path d="M 623.91 255.918 C 661.5 196.653 764.613 154.296 827.396 127.683 C 856.505 115.344 892.02 99.8213 921.545 88.5218 C 921.771 104.773 921.865 121.027 921.826 137.28 C 853.208 165.709 784.314 193.468 715.154 220.551 C 688.574 231.075 650.653 248.422 624.81 256.903 L 623.91 255.918 z" fill="rgb(254,253,253)" transform="translate(0,0)"></path>
<path d="M 606.54 287.183 C 604.438 291.31 602.941 293.827 600.392 297.698 L 365.988 376.873 L 287.627 403.266 C 276.145 407.151 259.562 413.545 248.412 416.557 L 248.63 724.618 C 248.699 806.025 249.632 890.789 248.291 971.998 L 237.184 966.904 L 236.963 409.629 L 532.408 312.031 C 542.547 308.628 598.918 290.792 602.617 287.698 L 606.54 287.183 z" fill="rgb(101,158,157)" transform="translate(0,0)"></path>
<path d="M 200.92 396.603 L 215.22 403.174 C 213.844 473.508 214.85 548.017 215.019 618.545 L 214.982 953.48 C 210.899 951.461 204.842 947.404 200.825 944.888 C 199.611 877.112 200.854 805.41 200.871 737.294 L 200.92 396.603 z" fill="rgb(254,253,253)" transform="translate(0,0)"></path>
<path d="M 162.959 378.202 C 165.895 379.199 174.334 383.701 177.532 385.321 L 177.61 929.758 L 176.857 930.812 C 173.996 930.489 166.869 926.12 163.934 924.494 L 163.795 550.939 L 163.723 443.383 C 163.698 422.982 164.259 398.291 162.959 378.202 z" fill="rgb(254,253,253)" transform="translate(0,0)"></path>
<path d="M 182.374 387.791 C 186.835 389.579 191.344 391.882 195.683 393.992 L 195.494 942.653 C 191.591 940.069 186.544 937.378 182.41 935.028 C 181.306 873.119 182.135 808.815 182.196 746.728 L 182.374 387.791 z" fill="rgb(254,253,253)" transform="translate(0,0)"></path>
<path d="M 146.522 370.926 L 158.749 376.383 C 157.373 397.787 158.293 426.123 158.362 447.889 L 158.374 561.105 L 158.615 919.593 L 157.691 919.819 C 154.108 918.96 149.43 915.547 146.182 913.451 L 146.183 551.013 L 146.084 432.624 C 146.07 416.048 145.143 386.567 146.522 370.926 z" fill="rgb(254,253,253)" transform="translate(0,0)"></path>
<path d="M 220.112 405.173 C 223.861 406.72 228.157 408.843 231.895 410.57 L 232.042 962.779 L 220.214 956.641 L 220.112 405.173 z" fill="rgb(254,253,253)" transform="translate(0,0)"></path>
<path d="M 623.91 255.918 L 624.81 256.903 C 620.65 266.343 612.329 278.295 606.54 287.183 L 602.617 287.698 C 605.961 280.149 618.723 263.074 623.91 255.918 z" fill="rgb(254,253,253)" transform="translate(0,0)"></path>
<path d="M 1807.23 251.537 C 1857.34 252.823 1863.87 292.439 1847.81 330.976 C 1864.57 339.696 1859.3 340.282 1864.43 354.448 C 1864.87 355.657 1873.32 355.994 1877.24 359.819 L 1877.63 360.205 C 1892.57 374.801 1872.04 387.935 1859.36 393.174 C 1904.48 421.903 1898.67 471.274 1893.68 517.886 C 1892.08 532.779 1886.53 546.871 1878.57 559.416 C 1871.7 562.829 1869.98 563.365 1862.6 565.247 C 1868.2 612.649 1869.35 677.375 1861.38 724.463 C 1879.33 753.62 1899.39 804.507 1910.73 836.937 C 1916.55 841.056 1927.08 848.101 1929.36 855.089 C 1933.24 864.311 1920.26 878.68 1919.44 885.06 C 1916.38 908.797 1903.37 922.999 1880.58 929.57 C 1873.83 931.721 1853.33 932.734 1854.97 920.985 C 1857.48 903.042 1879.3 886.117 1874.41 866.026 C 1862.53 857.032 1849.86 830.136 1841.08 816.544 C 1825.97 793.156 1810.07 769.717 1796.49 745.442 C 1793.1 739.371 1785.81 708.862 1781.99 706.027 C 1779.55 709.733 1781.03 714.948 1781.51 719.159 C 1785.53 754.579 1785.21 790.698 1785.12 826.308 C 1784.85 851.111 1790.91 869.088 1787.54 891.05 C 1776.97 894.294 1688.26 924.138 1683.23 900.594 C 1678.9 880.335 1724.48 875.582 1734.56 848.535 C 1727.79 831.048 1725.52 812.383 1721.28 794.319 C 1705.69 727.944 1704.85 663.229 1714.7 595.377 C 1699.14 588.7 1685.59 584.207 1669.47 579.311 C 1665.99 580.929 1660.42 583.967 1656.54 583.847 C 1648.89 583.61 1580.18 526.939 1571.38 518.196 C 1568.73 515.563 1565.16 511.886 1565.15 507.953 C 1569.46 503.892 1586.33 493.425 1592.01 489.715 L 1650.86 451.512 C 1658.47 454.144 1671.75 463.33 1678.99 468.062 C 1716.68 448.14 1715.64 448.958 1738.64 411.492 C 1752.7 388.6 1770.44 380.759 1795.71 375.533 C 1758.69 368.944 1763.83 362.437 1765.07 327.43 C 1765.18 324.516 1765.36 321.408 1765.5 318.476 C 1758.41 317.345 1734.42 313.852 1734.96 305.19 C 1738.67 299.07 1752.4 293.848 1759.36 290.682 C 1769.47 267.163 1779.89 254.412 1807.23 251.537 z" fill="rgb(3,5,18)" transform="translate(0,0)"></path>
<path d="M 1818.37 562.278 C 1833.7 564.823 1843.57 566.14 1859.03 565.974 C 1858.58 578.562 1861.58 593.096 1861.71 606.026 C 1862.1 641.727 1863.8 678.149 1857.79 713.492 C 1856.53 720.933 1854.06 729.378 1854.06 736.836 L 1855.15 737.647 C 1857.81 735.486 1858.3 732.335 1859.28 728.975 C 1861.17 733.486 1863.77 738.697 1866.06 743.021 C 1882.44 773.937 1894.07 805.693 1906.62 838.222 C 1896.18 858.215 1879.58 872.124 1864.73 846.552 C 1856.81 832.922 1848.19 819.005 1839.8 805.634 C 1828.77 787.676 1816 770.267 1805.42 752.243 C 1800.53 743.924 1795.44 727.072 1792.19 717.592 C 1779.98 681.907 1772.62 646.06 1764.7 609.335 C 1783.47 602.535 1802.16 595.506 1820.76 588.251 C 1826.04 599.104 1830.88 606.349 1842.65 611.563 C 1846.19 613.131 1852.24 615.553 1855.95 614.083 C 1856.32 608.901 1844.35 607.928 1839.83 604.608 C 1832.3 599.082 1828.96 594.462 1824.53 586.626 C 1830.44 584.228 1842.27 582.174 1843.57 575.122 C 1840.41 569.983 1824.37 567.118 1818.37 562.278 z" fill="rgb(101,158,157)" transform="translate(0,0)"></path>
<path d="M 1719.53 596.559 C 1732.85 601.333 1747.6 606.314 1760.59 611.637 C 1766.11 641.537 1772.77 668.367 1780.5 697.69 C 1776.49 704.684 1761.27 724.609 1761.7 729.177 C 1767.87 726.788 1772.47 719.081 1776.27 713.693 C 1779.96 749.17 1780.2 785.147 1780.23 820.803 L 1780.49 846.461 C 1763.23 851.409 1752.51 848.932 1736.81 841.934 C 1719.08 766.297 1705.86 700.751 1716.42 623.487 C 1717.65 614.469 1717.58 605.68 1719.53 596.559 z" fill="rgb(101,158,157)" transform="translate(0,0)"></path>
<path d="M 1856.43 397.708 C 1862.2 400.819 1867.44 404.822 1871.96 409.568 C 1889.87 428.29 1892.77 453.981 1891.73 478.764 C 1890.75 502.309 1889.99 540.975 1872.22 557.892 C 1857.15 561.459 1827.88 563.024 1814.85 556.262 C 1811.05 551.73 1815.8 544.816 1809.88 540.288 L 1808.91 541.238 C 1811.32 549.722 1811.37 547.763 1811.59 557.056 L 1809.99 559.041 L 1808.49 559.047 C 1807.58 556.586 1808.15 550.788 1807.29 548.151 C 1805.17 541.706 1800.95 534.006 1797.84 527.921 C 1815.48 524.382 1833.23 520.607 1851.25 519.833 C 1857.41 519.568 1866.89 522.202 1870.17 520.039 L 1870.12 518.461 C 1864.3 514.049 1851.02 514.761 1843.83 515.248 C 1837.74 497.075 1836.1 479.458 1831.08 461.622 C 1829.85 460.502 1828.78 459.763 1827.29 459.024 C 1827.18 444.332 1847.98 410.46 1856.43 397.708 z" fill="rgb(254,253,253)" transform="translate(0,0)"></path>
<path d="M 1663.95 463.884 C 1696.75 484.353 1704.09 490.079 1729.77 519.946 C 1697.28 534.96 1682.03 546.689 1653.65 567.223 C 1649.96 565.447 1634.35 552.137 1629.79 548.404 L 1586.99 513.774 C 1613.47 497.592 1637.93 479.895 1663.95 463.884 z" fill="rgb(254,253,253)" transform="translate(0,0)"></path>
<path d="M 1625.15 504.025 C 1637.32 502.571 1669.56 527.555 1671.27 539.936 C 1668.01 540.008 1663.9 536.003 1662.83 533.566 C 1658.83 524.518 1627.05 508.754 1625.15 504.025 z" fill="rgb(3,5,18)" transform="translate(0,0)"></path>
<path d="M 1642.65 492.905 C 1654.32 492.725 1684.65 514.761 1686.29 527.039 C 1684 526.365 1668.48 512.726 1665.46 510.176 C 1659.67 505.275 1644.77 498.546 1642.65 492.905 z" fill="rgb(3,5,18)" transform="translate(0,0)"></path>
<path d="M 1658.19 481.838 C 1666.98 482.85 1697.59 503.294 1698.43 513.324 C 1692.74 512.163 1671.08 491.416 1663.38 488.743 C 1660.32 487.679 1658.84 484.953 1658.19 481.838 z" fill="rgb(3,5,18)" transform="translate(0,0)"></path>
<path d="M 1778.91 384.838 L 1779.73 386.375 C 1769.2 402.027 1756.83 427.888 1754 446.532 C 1770.14 451.997 1793.01 457.706 1807.32 463.525 C 1814.76 441.936 1824.73 422.918 1838 404.454 C 1840.76 400.617 1844.99 392.312 1848.98 390.359 C 1851.81 391.46 1851.94 390.979 1853.44 393.224 C 1838.85 416.571 1829.26 430.532 1822.14 457.409 C 1820.14 478.873 1822.47 496.39 1827.96 517.096 C 1789.56 524.385 1794.67 536.381 1761.65 509.872 C 1753.77 511.488 1743.84 514.914 1736.16 517.428 C 1733.27 495.285 1734.9 462.338 1742.5 441.212 C 1747.34 427.789 1766.03 391.083 1778.91 384.838 z" fill="rgb(101,158,157)" transform="translate(0,0)"></path>
<path d="M 1745.26 549.04 C 1747.65 549.35 1764.48 555.734 1767.77 556.865 C 1788.61 564.025 1809.78 572.721 1830.81 579.172 C 1808.91 588.217 1783.59 597.316 1761.26 605.56 C 1757.26 606.185 1686.99 579.41 1675.26 575.787 C 1698 568.107 1720.27 556.766 1745.26 549.04 z" fill="rgb(245,179,81)" transform="translate(0,0)"></path>
<path d="M 1770.16 319.318 C 1781.29 318.321 1787.52 316.598 1798.05 313.011 C 1799.83 314.86 1805.47 320.548 1806.41 322.55 C 1807.94 325.82 1805.36 328.368 1808.32 332.303 C 1816.78 335.041 1815.6 328.186 1822.24 328.136 C 1834.05 336.301 1815.33 343.661 1814.03 347.563 L 1815.04 349.406 L 1818.73 349.547 C 1822.05 352.016 1817.7 358.423 1821.57 362.867 C 1824.22 361.585 1824.76 358.48 1827.98 355.206 L 1828.52 354.657 L 1829.02 356.81 C 1827.97 361.446 1827.69 366.225 1828.21 370.951 C 1829.3 380.75 1835.42 385.683 1842.39 391.287 C 1839.53 393.04 1836.58 394.647 1833.55 396.1 C 1814.88 405.073 1799.94 405.431 1790.48 385.114 C 1793.64 380.586 1794.42 379.407 1796.39 374.303 C 1798.4 373.611 1800.39 372.864 1802.36 372.063 C 1807.06 370.119 1813.93 367.029 1815.86 362.372 L 1814.37 360.359 C 1810.62 360.316 1799.41 371.157 1785.36 369.556 C 1761.67 366.858 1768.77 335.584 1770.16 319.318 z" fill="rgb(254,253,253)" transform="translate(0,0)"></path>
<path d="M 1786.34 385.669 C 1791.18 393.257 1790.24 399.669 1802 404.556 C 1813.41 409.301 1824.16 405.123 1834.81 401.059 C 1821.56 418.752 1816.59 429.586 1807.74 449.363 C 1806.77 452.068 1806.31 453.042 1804.91 455.547 C 1799.73 457.357 1766.64 445.547 1759.39 443.08 C 1762.24 425.741 1775.52 399.488 1786.34 385.669 z" fill="rgb(254,253,253)" transform="translate(0,0)"></path>
<path d="M 1821.38 259.27 C 1837.64 258.889 1855.63 283.252 1850.9 296.445 C 1845.69 303.414 1825.01 302.419 1815.59 303.995 L 1814.66 304.155 C 1802.35 302.189 1794.82 301.186 1782.63 297.92 C 1784.8 293.579 1787.02 289.269 1789.31 284.992 C 1797.94 268.993 1804.64 264.305 1821.38 259.27 z" fill="rgb(245,179,81)" transform="translate(0,0)"></path>
<path d="M 1763.32 392.111 C 1763.38 393.055 1745.69 422.243 1743.22 427.094 C 1729.18 454.694 1730.34 483.894 1731.17 514.078 C 1723.76 505.662 1717.84 499.258 1709.83 491.35 C 1701.18 482.921 1694.14 477.628 1684.12 470.982 C 1694.74 464.876 1709.09 458.738 1717.74 449.911 C 1737.02 430.215 1739.04 408.771 1763.32 392.111 z" fill="rgb(254,253,253)" transform="translate(0,0)"></path>
<path d="M 1739.38 848.731 C 1752.54 855.49 1767.5 855.031 1781.32 850.88 C 1783.65 861.505 1784.03 868.294 1783.92 879.07 C 1766.21 883.882 1748.64 889.184 1731.22 894.969 C 1730.01 895.325 1726.52 896.013 1725.74 895.431 C 1717.81 889.48 1715.65 886.094 1706.36 882 C 1720.82 873.793 1719.66 865.468 1734.4 880.649 C 1739.68 877.114 1745.37 871.482 1750.14 867.051 C 1745.8 863.607 1739.82 861.449 1737.21 857.1 C 1736.61 852.693 1737.14 853.446 1739.38 848.731 z" fill="rgb(245,179,81)" transform="translate(0,0)"></path>
<path d="M 1828.52 354.657 C 1836.73 346.777 1839.59 343.214 1846.17 333.897 C 1864.83 346.657 1853.74 343.723 1859.59 356.498 C 1860.8 359.148 1876.95 360.22 1879.46 371.637 C 1878.68 377.515 1875.05 379.017 1870.62 382.301 C 1842.54 403.123 1841.75 361.488 1833.01 353.905 C 1830.69 354.711 1830.65 354.865 1829.02 356.81 L 1828.52 354.657 z" fill="rgb(101,158,157)" transform="translate(0,0)"></path>
<path d="M 1909.94 842.683 C 1916.65 846.598 1919.75 849.623 1924.51 855.378 C 1909.8 872.963 1911.32 894.826 1895.29 909.847 C 1890.87 913.99 1886.52 906.931 1879.61 905.85 C 1874.69 905.334 1872.06 906.185 1868.95 903.617 C 1869 900.371 1874.48 891.28 1876.54 887.009 C 1883.15 889.49 1886.5 890.731 1892.64 894.227 C 1895.3 887.475 1897.82 880.813 1898.67 873.511 C 1899.06 870.184 1896.42 860.911 1897.09 860.064 C 1902.44 853.294 1905.49 850.598 1909.94 842.683 z" fill="rgb(245,179,81)" transform="translate(0,0)"></path>
<path d="M 1575.75 505.875 L 1576.44 506.42 L 1575.48 508.648 C 1575.55 509.269 1575.65 510.007 1575.75 510.862 C 1598.34 528.274 1635.03 559.118 1656.19 575.962 C 1675.27 568.329 1741.45 534.97 1757.21 543.6 C 1773.15 552.332 1825.32 567.674 1837.26 576.045 L 1836.45 576.824 C 1806.91 564.27 1773.92 555.264 1744.94 543.091 C 1725.57 550.438 1706.28 558.072 1687.08 565.852 C 1677.29 569.816 1665.59 576.408 1655.91 579.107 C 1647.93 575.65 1578.12 519.223 1571.1 511.113 C 1571.75 507.844 1572.21 508.47 1575.75 505.875 z" fill="rgb(254,253,253)" transform="translate(0,0)"></path>
<path d="M 1849.41 304.339 L 1849.99 304.456 L 1850.95 305.916 C 1848.91 323.454 1838.57 338.52 1826.31 350.601 L 1825.57 350.234 C 1826.57 338.744 1830.81 339.727 1828.79 328.223 C 1822.25 320.482 1820.41 322.201 1812.88 327.242 C 1807.89 317.964 1806.11 315.281 1799.35 307.214 C 1819.32 308.624 1829.46 308.988 1849.41 304.339 z" fill="rgb(101,158,157)" transform="translate(0,0)"></path>
<path d="M 1759.01 515.144 C 1761.7 516.387 1766.67 520.374 1769.25 522.316 C 1736.93 531.699 1708.56 543.897 1678.19 558.005 C 1675.29 559.593 1670.08 561.798 1666.92 563.264 C 1695.12 541.785 1724.68 524.958 1759.01 515.144 z" fill="rgb(254,253,253)" transform="translate(0,0)"></path>
<path d="M 1761.86 295.024 C 1775.18 300.25 1785.41 304.244 1799.7 307.028 C 1790.92 310.484 1785.42 312.41 1776.25 314.304 C 1761.79 314.194 1751.47 311.539 1738.22 305.871 C 1746.29 301.827 1753.56 298.589 1761.86 295.024 z" fill="rgb(245,179,81)" transform="translate(0,0)"></path>
<path d="M 1801.24 257.345 C 1804.63 256.825 1807.92 257.051 1811.35 257.149 L 1810.78 258.363 C 1793.32 262.3 1785.65 281.211 1778.5 295.948 C 1772.42 294.385 1769.62 293.134 1764.32 289.92 C 1773.41 272.608 1780.03 260.878 1801.24 257.345 z" fill="rgb(245,179,81)" transform="translate(0,0)"></path>
<path d="M 1771.91 526.62 C 1776.93 527.232 1791.16 532.459 1795.85 534.75 C 1799.7 541.288 1805.18 548.082 1801.4 555.594 C 1793.4 554.444 1780.79 547.846 1773.29 544.287 C 1773.95 537.375 1773.09 533.295 1771.91 526.62 z" fill="rgb(254,253,253)" transform="translate(0,0)"></path>
<path d="M 1651.37 457.86 C 1654.1 457.388 1657.66 458.67 1658.44 461.442 C 1638.57 477.193 1605.65 495.172 1583.59 511.551 L 1582.07 509.649 L 1582.22 508.352 C 1603.12 493.935 1631.92 475.472 1653.35 462.438 L 1653.72 460.846 L 1650.27 458.565 L 1651.37 457.86 z" fill="rgb(254,253,253)" transform="translate(0,0)"></path>
<path d="M 1695.91 886.965 C 1703.63 885.839 1715.16 888.522 1717.98 896.427 C 1716.19 898.807 1715.64 898.159 1711.86 898.764 C 1705.96 899.375 1692.55 898.952 1690.04 892.625 C 1691.97 888.812 1691.92 889.663 1695.91 886.965 z" fill="rgb(254,253,253)" transform="translate(0,0)"></path>
<path d="M 1826.22 464.767 C 1827.38 465.843 1837.18 509.487 1838.76 515.574 L 1834.99 515.962 C 1826.84 511.021 1825.73 474.238 1826.22 464.767 z" fill="rgb(254,253,253)" transform="translate(0,0)"></path>
<path d="M 1780.59 885.148 L 1781.83 884.834 L 1782.96 885.905 L 1782.2 887.239 C 1773.78 890.839 1761.92 892.244 1753.14 894.778 C 1730.51 901.306 1714.32 911.172 1690.35 902.428 C 1690.04 902.224 1688.97 900.808 1688.66 900.424 C 1689.54 899.16 1689.08 899.047 1690.96 899.965 C 1698.48 903.507 1708.19 904.528 1716.46 903.037 C 1738.16 899.121 1759.03 890.481 1780.59 885.148 z" fill="rgb(94,107,124)" transform="translate(0,0)"></path>
<path d="M 1864.57 910.359 C 1870.3 910.238 1882.38 909.916 1886.28 914.396 L 1885.7 916.127 L 1881.85 917.887 C 1875.87 919.465 1866.27 921.999 1861.75 916.756 C 1862.13 912.919 1862.18 913.846 1864.57 910.359 z" fill="rgb(254,253,253)" transform="translate(0,0)"></path>
<path d="M 1916.62 876.758 C 1916.83 879.548 1913.17 893.799 1912.09 896.74 C 1904.47 917.469 1880.79 931.938 1859.32 924.025 L 1859.29 922.764 C 1866.43 921.062 1875.21 926.787 1887.52 920.38 C 1909.8 908.784 1909.31 897.183 1916.62 876.758 z" fill="rgb(94,107,124)" transform="translate(0,0)"></path>
<path d="M 1891.97 863.355 L 1892.4 863.631 C 1893.11 865.402 1893.28 865.596 1894.45 867.158 L 1894.76 867.58 C 1894.5 869.931 1894.46 869.988 1892.97 871.777 C 1887.31 874.346 1888.54 873.538 1881.84 872.856 L 1880.14 872.673 C 1879.03 869.355 1879.06 870.725 1879.88 867.467 C 1882.42 865.148 1888.34 864.263 1891.97 863.355 z" fill="rgb(245,179,81)" transform="translate(0,0)"></path>
<path d="M 1732.85 861.603 C 1736.78 862.163 1739.96 864.358 1741.75 867.801 C 1740.81 871.661 1740.55 870.802 1736.54 873.804 C 1733.09 874.181 1730.09 870.909 1728.6 868.192 C 1728.83 864.269 1729.17 865.163 1732.85 861.603 z" fill="rgb(245,179,81)" transform="translate(0,0)"></path>
<path d="M 1721.19 545.305 C 1706.32 550.549 1690.43 557.533 1675.77 563.664 L 1675.67 563.263 C 1685.96 556.132 1706.93 548.028 1719.38 543.547 L 1721.19 545.305 z" fill="rgb(144,112,71)" transform="translate(0,0)"></path>
<path d="M 1878.03 878.069 C 1881.75 877.949 1888.7 877.168 1891.54 878.996 C 1892.76 882.52 1892.03 882.241 1890.58 886.633 C 1883.05 885.016 1877.06 886.01 1878.03 878.069 z" fill="rgb(245,179,81)" transform="translate(0,0)"></path>
<path d="M 1743.31 535.343 C 1748.8 533.477 1761.66 528.266 1766.46 530.329 C 1764.75 535.335 1748.71 537.718 1743.69 537.369 L 1743.31 535.343 z" fill="rgb(254,253,253)" transform="translate(0,0)"></path>
<path d="M 1832.8 363.639 C 1832.71 363.508 1845.34 387.47 1845.22 387.166 C 1836.09 384.761 1832.84 371.815 1832.8 363.639 z" fill="rgb(254,253,253)" transform="translate(0,0)"></path>
<path d="M 1719.38 543.547 C 1727.27 540.587 1735.26 537.85 1743.31 535.343 L 1743.69 537.369 C 1735.11 539.961 1729.44 541.871 1721.19 545.305 L 1719.38 543.547 z" fill="rgb(185,173,155)" transform="translate(0,0)"></path>
<path d="M 1924.46 861.731 L 1925.48 863.355 C 1924.73 867.405 1921.66 870.801 1919.14 874.143 L 1918.55 874.047 C 1918.83 871.272 1922.91 864.567 1924.46 861.731 z" fill="rgb(94,107,124)" transform="translate(0,0)"></path>
<path d="M 1221.86 160.203 C 1239.41 159.618 1247.17 166.308 1257.62 179.253 C 1266.12 175.128 1299.24 160.242 1306.82 166.073 L 1306.69 168.738 C 1300.14 180.481 1274.14 191.24 1261.5 197.065 C 1274.1 208.228 1282.87 229.788 1280.55 246.912 C 1279.22 256.739 1271.87 255.314 1265.57 259.549 C 1264.03 262.42 1264 262.81 1264.27 266.067 C 1268.02 268.835 1279.32 267.082 1283.25 269.595 C 1314.98 289.846 1331 334.61 1345.03 366.552 C 1359.79 361.625 1373.55 352.775 1388.73 351.252 C 1420.73 317.108 1453.28 283.493 1486.38 250.421 C 1485.51 231.659 1486.86 215.87 1507.26 207.325 C 1513.64 204.648 1532.73 195.45 1538.64 196.015 L 1539.42 197.454 C 1537.16 203.345 1515.07 221.397 1508.41 228.11 C 1515.03 233.296 1529.73 242.453 1537.26 247.452 C 1545.12 239.219 1551.91 229.323 1560.34 221.658 C 1562.68 219.524 1563.56 219.577 1566 220.732 L 1566.78 223.109 C 1555.1 255.767 1555 280.986 1511.05 274.717 C 1473.11 312.661 1435.41 356.277 1396.69 393.783 C 1395.15 404.801 1393.76 409.168 1386.25 417.249 C 1377.13 421.107 1371.8 420.125 1365.35 422.669 C 1365.97 428.55 1366.08 429.793 1362.01 434.267 C 1354.23 442.804 1345.81 450.773 1338.84 459.986 C 1347.48 495.841 1355.14 531.923 1361.83 568.194 C 1367.44 598.951 1372.88 625.502 1369.17 656.987 C 1365.48 688.268 1360.78 719.044 1355.81 750.141 C 1355.61 751.886 1353.47 762.142 1353.77 762.773 C 1364.57 785.589 1393.3 789.893 1406.8 807.366 C 1415.64 818.816 1393.76 825.168 1384.09 824.253 C 1360.52 822.096 1338.53 814.482 1315.53 808.403 C 1293.2 802.502 1311.78 782.799 1309.64 769.41 C 1307.19 753.991 1303.07 738.265 1300.91 722.539 C 1296.17 687.919 1298.1 652.786 1292.63 618.476 C 1291.05 608.699 1284.89 595.754 1280.66 587.031 C 1269.19 628.281 1234.73 749.04 1209.51 778.463 C 1219.02 790.339 1228.56 802.27 1239.24 812.792 C 1244.62 818.095 1250.8 834.374 1243.19 838.493 C 1218.39 851.916 1174.42 823.188 1161.42 806.151 C 1162.68 795.417 1166.97 784.286 1167.72 774.836 C 1169.47 752.575 1170.02 731.111 1173.85 708.977 C 1179.61 675.587 1192.37 643.826 1192.99 609.723 C 1195.18 547.544 1205.03 486.428 1208.85 424.339 C 1211.22 393.826 1182.77 364.095 1185.36 333.39 C 1187.9 303.173 1213.83 296.941 1222.01 268.264 C 1214.72 261.367 1207.98 252.654 1201.81 244.722 C 1174.48 236.734 1168.52 206.542 1182.88 184.13 C 1192.16 169.642 1205.79 163.652 1221.86 160.203 z" fill="rgb(3,5,18)" transform="translate(0,0)"></path>
<path d="M 1333.65 463.644 C 1336.83 465.976 1343.12 500.663 1344.37 506.753 C 1353.02 548.585 1364.07 592.797 1365.58 635.494 C 1366.42 659.005 1359.54 687.604 1357.09 711.213 C 1355.47 723.9 1351.52 748.204 1348.48 759.655 C 1341.7 761.49 1322.21 765.516 1315.97 764.373 C 1304.27 754.391 1300.79 640.713 1298.12 619.704 C 1296.61 607.854 1288.04 590.67 1282.54 579.943 C 1286.61 567.18 1290.6 549.713 1300.1 540.01 C 1304.31 535.7 1312.57 535.01 1314.24 528.485 C 1305.89 525.609 1291.12 541.247 1288.56 548.241 C 1276.51 581.113 1266.29 618.854 1257.2 652.707 C 1254.76 657.985 1248.67 677.424 1246.38 683.858 C 1239.28 703.938 1231.66 723.833 1223.53 743.521 C 1221.38 748.751 1215.74 762.949 1212.56 766.709 C 1208.09 771.997 1180.58 773.292 1172.77 774.208 C 1173.65 745.17 1176.2 721.006 1182.13 692.521 C 1185.79 673.153 1193.45 652.591 1195.8 633.074 C 1199.74 600.36 1199.1 567.014 1203.23 534.198 C 1223 528.974 1224.55 519.567 1238.59 506.31 C 1244.34 500.886 1249.75 497.897 1256.58 494.16 C 1263.78 502.094 1269.83 508.064 1277.52 515.429 C 1265.91 526.264 1241.58 534.277 1238.29 552.356 L 1239.08 553.348 C 1242.82 553.282 1250.27 548.162 1254.54 546.492 C 1261.64 543.72 1270.15 541.48 1276.91 538.325 C 1280.4 536.711 1283.68 534.7 1286.7 532.332 C 1298.31 523.108 1301.78 510.083 1303.29 496.13 C 1313.29 486.443 1324.36 474.037 1333.65 463.644 z" fill="rgb(101,158,157)" transform="translate(0,0)"></path>
<path d="M 1208.53 298.65 C 1212.69 298.945 1219.16 302.969 1221.86 306.089 C 1245.13 333.024 1265.1 363.393 1286.03 392.078 C 1281.4 392.864 1271.44 394.742 1268.96 398.987 L 1269.99 400.895 C 1274.67 401.494 1279.08 396.769 1287.1 396.98 C 1309.95 397.58 1332.17 398.148 1355.06 397.946 C 1357 403.732 1358.69 411.086 1360.23 417.115 C 1356.23 418.181 1352.73 419.299 1348.79 420.602 C 1334.56 424.064 1320.31 427.444 1306.04 430.742 C 1296.67 432.837 1269.58 439.383 1261.19 433.371 C 1254.06 428.264 1245.45 415.792 1239.03 409.066 C 1232.43 401.566 1224.77 394.421 1218.15 386.989 C 1205.74 373.061 1189.4 359.942 1189.8 339.671 C 1190.13 322.239 1196.99 310.449 1208.53 298.65 z" fill="rgb(254,253,253)" transform="translate(0,0)"></path>
<path d="M 1524.85 205.178 L 1525.37 205.685 C 1516.41 216.236 1510.83 214.527 1503.14 229.973 C 1510.2 235.807 1519.49 240.676 1526.41 246.603 C 1540.33 258.521 1549.87 240.504 1559.31 229.47 C 1553.81 245.282 1550.94 267.176 1530.37 271.09 C 1517.11 273.613 1507.11 268.134 1496.5 260.967 C 1483.04 276.609 1379.91 378.95 1379.79 384.695 C 1382.2 384.75 1385.77 383.169 1387.38 381.48 C 1397.14 371.25 1407.26 360.875 1417.08 350.742 L 1487.06 278.363 L 1497.69 267.759 C 1500.12 269.521 1503.41 271.466 1506.01 273.088 C 1494.22 285.266 1395.1 389.989 1390.44 391.393 C 1381.34 382.094 1378 387.285 1369.42 392.959 C 1369.02 390.301 1374.12 389.364 1376.08 384.941 L 1375.06 383.953 C 1366.85 383.18 1365.94 392.294 1358.83 394.875 C 1356.29 394.058 1357.14 394.712 1355.69 392.348 C 1362.57 384.444 1369.52 377.513 1376.92 370.128 C 1415.54 331.561 1452.15 289.766 1491.89 252.439 C 1487.94 219.964 1497.93 216.275 1524.85 205.178 z" fill="rgb(254,253,253)" transform="translate(0,0)"></path>
<path d="M 1272.31 275.5 C 1277.47 273.903 1322.46 342.68 1325.19 351.909 C 1328.79 364.092 1330.35 380.433 1332.88 393.022 C 1319.57 393.251 1305.82 392.488 1292.37 392.503 C 1288.54 388.52 1279.37 374.651 1275.74 369.544 C 1265.91 355.48 1255.68 341.709 1245.04 328.246 C 1238.68 319.635 1231.68 309.729 1224.5 301.777 C 1221.55 298.51 1216.07 297.506 1213.28 293.846 L 1214.58 292.336 C 1215.99 291.901 1217.54 291.468 1219.04 291.568 C 1229.33 292.249 1264.63 343.512 1273.49 353.942 C 1284.83 345.753 1296.71 337.647 1308.2 329.608 C 1297.26 311.732 1284.24 292.599 1272.31 275.5 z" fill="rgb(101,158,157)" transform="translate(0,0)"></path>
<path d="M 1248.18 428.487 C 1250.63 429.863 1254.98 436.103 1257.96 437.556 C 1272.41 444.599 1300.81 436.976 1314.98 433.22 C 1305.16 445.067 1290.97 459.335 1280.24 470.466 C 1259.36 468.304 1248.42 469.556 1235.38 487.635 C 1223.89 509.268 1233.11 517.141 1203.42 529.467 C 1206.89 513.005 1207.19 491.29 1210.34 478.336 C 1227.99 466.416 1238.03 447.26 1248.18 428.487 z" fill="rgb(101,158,157)" transform="translate(0,0)"></path>
<path d="M 1229.37 212.886 C 1229.74 212.556 1230.12 212.236 1230.5 211.926 C 1236.22 207.228 1255.99 193.067 1261.61 202.188 C 1258.85 208.233 1246 209.974 1249.49 220.312 C 1250.13 222.211 1249.45 221.419 1251.33 222.503 L 1253.17 221.105 C 1254.12 215.018 1254.04 215.083 1258.6 211.013 C 1262.43 208.564 1262.29 207.7 1265.91 208.025 C 1267.63 210.023 1267.91 210.183 1268.74 212.627 C 1270.64 217.114 1272.23 221.634 1273.89 226.214 C 1267.06 228.627 1266.14 229.228 1260.37 233.355 C 1259.24 238.806 1255.96 248.628 1254.25 254.281 C 1248.41 254.571 1239.74 253.263 1235.4 256.649 C 1239.28 260.745 1254.66 259.279 1260.18 258.842 C 1259.42 271.405 1264.84 292.262 1244.53 291.194 C 1235.65 290.727 1228.29 289.115 1219.73 286.83 C 1226.97 271.624 1228.75 266.009 1226.44 249.154 C 1227.88 247.56 1228.31 247.222 1230.1 245.995 L 1230.56 245.682 L 1230.83 243.585 C 1226.63 239.853 1219.75 245.305 1217.35 235.969 C 1218.21 232.051 1217.42 233.357 1220.15 230.832 C 1224.25 230.668 1225.43 232.838 1228.39 235.746 C 1233.13 240.411 1250.79 238.707 1249.38 230.687 C 1243.18 228.36 1237.4 242.488 1228.06 226.543 L 1229.37 212.886 z" fill="rgb(254,253,253)" transform="translate(0,0)"></path>
<path d="M 1258.6 211.013 C 1262.43 208.564 1262.29 207.7 1265.91 208.025 C 1267.63 210.023 1267.91 210.183 1268.74 212.627 C 1267.19 216.281 1266.96 219.079 1263.05 219.939 C 1259.76 217.633 1259.32 214.763 1258.6 211.013 z" fill="rgb(254,253,253)" transform="translate(0,0)"></path>
<path d="M 1266.23 275.616 C 1277.63 290.77 1291.42 312.003 1301.84 328.097 C 1296.23 332.154 1279.12 345.07 1273.99 346.571 L 1272.14 345.146 C 1259.3 328.277 1246.23 311.573 1232.96 295.037 C 1235.3 295.208 1237.63 295.344 1239.97 295.445 C 1254.8 296.041 1265.76 291.689 1266.23 275.616 z" fill="rgb(254,253,253)" transform="translate(0,0)"></path>
<path d="M 1197.86 174.821 C 1216.96 174.145 1229.56 184.466 1239.52 199.723 C 1228.79 206.414 1220.81 211.322 1209.5 216.976 C 1201.72 220.89 1193.12 224.636 1185.16 228.281 C 1180.69 219.855 1179.21 210.164 1180.97 200.791 C 1182.98 189.587 1188.64 181.331 1197.86 174.821 z" fill="rgb(245,179,81)" transform="translate(0,0)"></path>
<path d="M 1262.94 474.475 C 1270.03 473.958 1274.54 474.773 1281.55 475.726 C 1290.02 482.44 1293.13 485.667 1299.1 494.637 C 1295.86 530.934 1275.45 533.787 1247.2 543.01 C 1252.61 538.266 1256.06 535.9 1262.08 531.892 C 1293.92 512.767 1278.99 509.591 1256.4 488.877 C 1246.65 493.392 1242.6 496.457 1234.38 503.158 C 1240.08 486.283 1245.34 479.351 1262.94 474.475 z" fill="rgb(254,253,253)" transform="translate(0,0)"></path>
<path d="M 1204.62 775.621 L 1206.38 775.543 C 1205.69 776.917 1188.79 783.626 1185.19 785.411 C 1189.12 790.451 1194.11 794.83 1197.28 800.266 L 1196.01 804.027 L 1197.4 805.264 C 1200.44 805.172 1200.81 805.119 1203.43 803.603 C 1204.17 801.054 1203.31 800.544 1202.09 797.556 C 1205.02 794.871 1210.08 793.389 1213.93 791.962 L 1219.42 799.493 C 1213.53 801.112 1201.75 804.549 1203.37 812.197 L 1205.49 813.374 C 1213.95 807.785 1211.3 807.564 1221.93 803.566 C 1224.56 805.575 1228.11 809.011 1230.65 811.329 C 1234.45 814.777 1243.71 821.793 1240.11 826.853 C 1211.45 834.232 1187.88 814.953 1167.18 798.581 C 1168 791.895 1169.84 785.373 1172.62 779.239 C 1183.25 777.717 1193.92 776.51 1204.62 775.621 z" fill="rgb(254,253,253)" transform="translate(0,0)"></path>
<path d="M 1200.89 375.871 C 1206.34 379.974 1239.34 416.272 1244.91 422.651 C 1240.13 434.055 1233.99 444.214 1227.05 454.41 C 1223.08 460.145 1220.06 463.534 1215.41 468.736 C 1221.51 420.749 1217.99 420.433 1200.89 375.871 z" fill="rgb(254,253,253)" transform="translate(0,0)"></path>
<path d="M 1315.41 769.891 C 1328.71 768.784 1340.11 766.415 1353.14 763.801 C 1347.5 768.439 1337.93 771.614 1337.45 778.49 C 1338.88 782.274 1343.37 785.502 1346.57 788.254 L 1348.94 790.775 C 1356.95 791.829 1354.85 787.446 1362.91 783.206 C 1366.35 783.54 1365.01 783.04 1367.95 785.559 L 1368.04 787.364 C 1360.85 793.523 1357.96 797.362 1355.91 806.4 C 1340.61 802.142 1325.4 797.547 1310.3 792.617 C 1310.99 785.781 1313.62 776.728 1315.41 769.891 z" fill="rgb(254,253,253)" transform="translate(0,0)"></path>
<path d="M 1358 423.201 C 1360.1 423.974 1360.22 425.72 1360.55 427.51 C 1358.52 431.768 1308.31 484.379 1301.87 490.102 L 1295.85 482.155 C 1312.89 464.018 1332.27 442.187 1350.85 425.525 C 1352.16 424.353 1356.15 423.541 1358 423.201 z" fill="rgb(254,253,253)" transform="translate(0,0)"></path>
<path d="M 1337.37 428.315 L 1339.49 428.211 L 1339.57 429.228 C 1334.08 435.001 1296.23 476.171 1292.16 478.315 L 1285.43 472.107 C 1297.09 458.585 1310.42 446.027 1321.68 432.109 C 1327.41 430.112 1331.45 429.437 1337.37 428.315 z" fill="rgb(254,253,253)" transform="translate(0,0)"></path>
<path d="M 1222.51 165.228 C 1237.74 162.105 1248.73 174.792 1255.81 186.096 C 1251.55 188.981 1246.69 195.183 1243.24 196.009 C 1232.52 179.225 1223.36 175.273 1205.17 170.172 C 1212.14 167.185 1215.09 166.225 1222.51 165.228 z" fill="rgb(245,179,81)" transform="translate(0,0)"></path>
<path d="M 1371.93 790.904 C 1378.64 793.694 1402.77 801.492 1400.01 809.681 C 1397.43 812.007 1394.29 812.059 1390.8 812.568 C 1382.74 811.733 1365.1 811.854 1362.48 803.235 C 1363.39 797.84 1367.86 794.287 1371.93 790.904 z" fill="rgb(254,253,253)" transform="translate(0,0)"></path>
<path d="M 1278.77 273.514 C 1299.93 276.321 1334.29 346.85 1339.3 368.683 C 1333.93 368.859 1334.25 367.907 1332.96 362.836 C 1325.55 333.692 1297.59 296.391 1278.77 273.514 z" fill="rgb(254,253,253)" transform="translate(0,0)"></path>
<path d="M 1368.11 362.089 C 1378.33 372.578 1345.72 387.624 1338.67 390.313 C 1335.88 387.648 1335.14 378.804 1334.53 374.737 C 1348.87 370.908 1354.56 368.529 1368.11 362.089 z" fill="rgb(254,253,253)" transform="translate(0,0)"></path>
<path d="M 1381.34 390.593 C 1385.41 393.896 1380.13 395.497 1378.42 400.81 L 1379.63 401.449 C 1384.59 400.883 1387.38 399.023 1391.72 396.666 C 1388.69 405.693 1387.69 409.399 1379.85 414.621 C 1376.26 416.023 1368.4 416.629 1364.27 417.104 C 1358.25 388.659 1363.63 406.749 1381.34 390.593 z" fill="rgb(254,253,253)" transform="translate(0,0)"></path>
<path d="M 1301 168.435 L 1300.53 170.063 C 1291.95 178.135 1266.34 189.785 1254.45 194.054 C 1258.23 190.06 1263.22 188.961 1260.65 183.478 C 1266.84 179.188 1293.12 170.198 1301 168.435 z" fill="rgb(245,179,81)" transform="translate(0,0)"></path>
<path d="M 1273.74 230.889 C 1277.9 235.625 1277.62 244.961 1273.36 249.516 C 1268.98 254.197 1267.15 253.865 1261.11 254.554 L 1259.62 253.17 C 1258.99 243.506 1265.06 234.729 1273.74 230.889 z" fill="rgb(254,253,253)" transform="translate(0,0)"></path>
<path d="M 1387.87 819.208 C 1364.14 817.305 1334.63 809.744 1311.38 801.62 C 1310.27 801.232 1310.35 800.259 1310.06 798.969 C 1312.04 798.242 1320.42 801.254 1322.96 802.058 C 1345.2 809.104 1366.41 814.842 1389.73 817.184 L 1387.87 819.208 z" fill="rgb(254,253,253)" transform="translate(0,0)"></path>
<path d="M 1190.88 823.846 C 1200.79 824.794 1214.86 836.624 1228.6 832.415 C 1230.92 831.706 1238.95 831.464 1241.17 833.345 C 1222.26 841.448 1206.73 834.189 1190.88 823.846 z" fill="rgb(254,253,253)" transform="translate(0,0)"></path>
<path d="M 1206.78 782.456 C 1208.61 784.183 1208.78 784.231 1209.17 786.605 C 1207.22 789.517 1201.53 791.472 1198.08 793.006 C 1195.59 790.435 1194.31 790.264 1194.42 786.876 C 1196.64 784.453 1203.28 783.332 1206.78 782.456 z" fill="rgb(254,253,253)" transform="translate(0,0)"></path>
<path d="M 1213.5 427.095 L 1213.81 427.064 L 1214.67 427.924 C 1213.81 441.932 1211.86 458.93 1209.77 472.885 L 1209.22 472.842 C 1208.33 463.625 1212.45 439.293 1213.5 427.095 z" fill="rgb(94,107,124)" transform="translate(0,0)"></path>
<path d="M 1346.57 788.254 C 1350.62 783.136 1352.15 780.878 1357.65 777.152 L 1358.52 777.399 C 1354.82 785.613 1352.18 785.046 1348.94 790.775 L 1346.57 788.254 z" fill="rgb(254,253,253)" transform="translate(0,0)"></path>
<path d="M 1352.26 770.77 C 1352.69 770.914 1353.57 771.695 1353.99 772.025 C 1353.03 774.84 1347.63 778.919 1345.1 781.132 C 1343.81 779.822 1343.65 779.417 1342.79 777.866 C 1344.03 774.61 1348.97 772.575 1352.26 770.77 z" fill="rgb(254,253,253)" transform="translate(0,0)"></path>
<path d="M 1166.07 803.746 C 1169.7 805.278 1185.09 818.011 1189.67 821.351 C 1182.94 820.747 1169.66 809.54 1166.07 803.746 z" fill="rgb(94,107,124)" transform="translate(0,0)"></path>
<path d="M 1389.73 817.184 C 1391.31 817.007 1399.25 815.88 1400.1 816.461 C 1397.97 818.623 1390.95 819.03 1387.87 819.208 L 1389.73 817.184 z" fill="rgb(157,163,171)" transform="translate(0,0)"></path>
<path d="M 970.188 760.131 C 977.432 758.922 1051.05 803.02 1064.6 810.016 C 1076.41 816.12 1101.58 830.191 1113.61 837.195 C 1066.41 852.927 1014.89 864.739 967.748 880.149 C 959.604 890.942 956.817 889.083 943.862 887.71 C 933.146 892.503 915.767 902.499 904.75 908.388 L 820.361 953.731 C 814.541 957.006 808.644 960.142 802.674 963.136 C 797.442 958.984 775.331 947.814 768.036 943.943 C 740.692 929.35 713.224 914.993 685.634 900.873 C 695.283 896.144 705.715 891.587 714.347 885.352 C 716.748 879.946 719.074 874.428 723.435 870.372 C 750.759 844.958 810.755 810.015 846.988 809.69 C 872.538 779.369 932.978 769.378 970.188 760.131 z" fill="rgb(3,5,18)" transform="translate(0,0)"></path>
<path d="M 835.645 815.181 C 838.62 814.783 842.943 814.734 846.056 814.608 C 878.318 832.561 910.757 850.194 943.369 867.506 C 902.116 871.265 858.867 896.613 827.773 923.255 C 825.334 925.796 824.779 926.285 821.849 928.224 C 814.774 927.284 735.938 884.467 722.353 877.852 C 746.934 852.745 801.55 821.947 835.645 815.181 z" fill="rgb(254,253,253)" transform="translate(0,0)"></path>
<path d="M 824.01 835.026 C 824.643 834.984 826.504 835.242 827.242 835.323 L 827.83 836.883 C 825.432 840.843 814.249 844.614 809.714 847.001 C 793.171 855.712 778.342 865.505 763.475 876.697 C 762.373 876.877 761.874 876.635 760.74 876.397 L 760.286 874.678 C 767.075 863.251 810.011 841.38 824.01 835.026 z" fill="rgb(3,5,18)" transform="translate(0,0)"></path>
<path d="M 862.368 854.859 C 864.306 854.696 863.327 854.651 865.431 855.602 L 865.393 857.387 C 863.069 859.565 859.989 861.054 857.097 862.384 C 836.924 871.658 819.446 883.249 801.599 896.365 L 799.516 896.398 L 798.521 895.035 C 801.413 885.209 851.777 859.478 862.368 854.859 z" fill="rgb(3,5,18)" transform="translate(0,0)"></path>
<path d="M 839.653 846.974 C 841.778 847.923 841.055 847.308 842.231 849.497 C 841.006 851.79 834.672 854.601 832.018 855.92 C 813.525 865.108 798.061 874.905 781.686 887.394 C 779.587 886.427 780.271 887.108 779.309 884.69 C 783.089 875.528 828.908 851.901 839.653 846.974 z" fill="rgb(3,5,18)" transform="translate(0,0)"></path>
<path d="M 970.887 765.081 C 975.671 764.744 1068.01 817.395 1079.69 824.664 C 1035.15 827.305 991.481 834.547 955.515 862.785 C 954.617 863.55 951.16 866.333 949.954 865.692 C 916.842 848.113 883.927 830.076 851.01 812.125 C 879.309 782.38 931.827 774.596 970.887 765.081 z" fill="rgb(254,253,253)" transform="translate(0,0)"></path>
<path d="M 1001.61 804.09 C 1003.24 803.867 1003.55 804.03 1005.18 804.228 L 1006 805.32 C 1002.77 811.034 974.521 815.46 966.324 818.887 C 955.07 823.592 944.15 827.343 933.353 833.517 C 932.309 833.816 931.317 833.734 930.204 833.755 L 929.052 831.966 C 933.566 822.085 989.005 807.586 1001.61 804.09 z" fill="rgb(3,5,18)" transform="translate(0,0)"></path>
<path d="M 962.644 780.931 C 963.381 780.923 964.815 781.353 965.605 781.549 L 965.953 783.369 C 963.407 786.614 952.189 789.49 947.88 790.756 C 930.034 796 913.592 801.766 897.462 811.231 C 896.324 811.761 895.14 811.692 893.817 811.794 L 895.664 811.396 L 893.688 810.767 L 893.81 809.658 C 901.731 797.724 947.254 786.476 962.644 780.931 z" fill="rgb(3,5,18)" transform="translate(0,0)"></path>
<path d="M 979.753 794.253 C 982.103 793.46 983.686 793.769 984.955 795.874 C 983.757 797.599 981.949 798.685 979.927 799.173 C 957.641 804.554 936.544 810.353 916.4 821.889 C 913.516 822.732 914.601 822.87 912.202 821.739 L 911.861 819.999 C 918.799 810.048 966.789 797.606 979.753 794.253 z" fill="rgb(3,5,18)" transform="translate(0,0)"></path>
<path d="M 721.214 882.615 C 728.956 885.776 745.674 894.998 753.838 899.249 C 775.162 910.595 796.651 921.63 818.296 932.35 C 811.099 941.565 811.935 947.35 802.005 951.178 C 772.203 934.253 732.908 914.896 701.706 898.629 C 710.368 893.948 716.124 891.195 721.214 882.615 z" fill="rgb(245,179,81)" transform="translate(0,0)"></path>
<path d="M 942.531 872.357 C 944.691 871.932 944.962 872.024 947.18 872.278 C 943.792 875.548 915.237 889.878 908.757 893.391 C 879.544 909.253 850.437 925.308 821.437 941.556 L 818.961 942.692 L 817.758 941.979 C 819.521 935.569 834.632 923.432 840.118 919.215 C 870.462 895.892 904.159 877.569 942.531 872.357 z" fill="rgb(254,253,253)" transform="translate(0,0)"></path>
<path d="M 1070.82 830.425 C 1076.05 829.736 1090.61 830.346 1096.18 830.651 C 1089.21 834.082 1058.47 842.264 1049.07 844.787 C 1025.58 851.095 1000.27 859.197 976.794 864.809 C 970.267 865.91 963.712 866.839 957.135 867.595 C 988.06 841.259 1031.45 833.305 1070.82 830.425 z" fill="rgb(254,253,253)" transform="translate(0,0)"></path>
<path d="M 1097.43 834.549 L 1099.7 834.613 L 1100.6 835.79 C 1097.79 838.19 986.899 869.351 973.241 872.855 L 971.203 873.447 L 969.94 872.636 C 973.831 868.126 1081.46 843.169 1097.43 834.549 z" fill="rgb(66,68,89)" transform="translate(0,0)"></path>
<path d="M 954.621 872.401 C 959.281 871.697 960.952 870.607 963.634 874.627 C 963.729 879.597 960.558 881.703 956.747 884.021 C 952.252 883.258 950.51 883.211 949.157 878.578 C 950.425 875.584 952.159 874.447 954.621 872.401 z" fill="rgb(254,253,253)" transform="translate(0,0)"></path>
<path d="M 809.02 953.408 C 810.383 951.398 827.968 942.033 830.865 941.508 L 830.499 943.198 C 825.943 946.016 814.178 953.47 809.02 953.408 z" fill="rgb(66,68,89)" transform="translate(0,0)"></path>
<path d="M 932.235 885.819 L 933.281 886.626 C 930.49 890.209 919.098 895.113 914.568 897.096 L 914.449 897.118 L 913.712 896.394 C 917.603 893.344 927.447 888.382 932.235 885.819 z" fill="rgb(66,68,89)" transform="translate(0,0)"></path>
<path d="M 830.865 941.508 C 834.359 939.144 840.722 934.347 845.095 935.418 C 841.162 937.634 835.105 941.832 830.865 941.508 z" fill="rgb(66,68,89)" transform="translate(0,0)"></path>
<path d="M 905.868 900.181 L 906.335 900.808 C 905.729 902.896 901.548 904.664 899.173 906.044 L 898.37 905.318 C 899.629 902.884 903.067 901.683 905.868 900.181 z" fill="rgb(66,68,89)" transform="translate(0,0)"></path>
<path d="M 878.267 915.134 L 878.475 915.796 C 877.555 918.451 875.738 918.651 872.643 920.394 L 872.523 919.151 C 873.94 916.495 875.035 916.69 878.267 915.134 z" fill="rgb(66,68,89)" transform="translate(0,0)"></path>
<metadata><recraft-signature>{"signed_by": "recraft", "signature_b64": "aQNj7lBFY28YkRqBvmAM8xoJ8zLsYBdKLOGzKfQSYgw0r8TpOIFxCaW3LfMHXii4XNYHhNbzMO+5KMg1a5j3Dg==", "signing_algo": "Ed25519", "generation_timestamp": 1777312909, "identifier": "3d847f0c-b08d-40ac-8ee6-4039ec784f59"}</recraft-signature></metadata></svg>