<svg xmlns="http://www.w3.org/2000/svg" height="1024" preserveAspectRatio="none" style="display: block;" version="1.1" viewBox="0 0 2048 1024" width="2048">
<path d="M 0 0 L 2048 0 L 2048 1024 L 0 1024 L 0 0 z" fill="rgb(253,253,253)" transform="translate(0,0)"></path>
<path d="M 894.056 45.7235 C 913.711 52.7106 941.577 65.6106 961.289 74.0736 C 1001.35 91.1775 1041.3 108.53 1081.14 126.129 C 1079.93 190.613 1081.06 258.985 1081.27 323.809 L 1274.63 407.94 C 1291.31 406.273 1285.45 398.674 1281.16 385.692 L 1271.8 381.013 C 1269.01 369.271 1266.67 358.131 1269.95 346.36 C 1281.29 305.646 1335.4 295.014 1360.14 329.898 C 1362.49 333.217 1364.32 336.507 1366.26 339.986 C 1372.15 341.492 1383.13 342.778 1384.47 349.321 C 1381.88 354.702 1366.34 361.01 1360.23 363.968 C 1363.06 379.008 1365.6 388.416 1358.88 402.816 C 1384.42 392.084 1408.96 379.172 1434.51 368.619 C 1445.13 364.233 1456.75 364.482 1467.32 368.576 C 1482.99 374.65 1498.84 382.2 1514.18 389.046 L 1620.27 436.878 C 1620.78 374.484 1621.89 305.693 1619.72 243.694 L 1599.81 244.853 C 1596.31 238.302 1593.5 232.992 1589.35 226.845 C 1596.8 222.901 1601.62 220.588 1609.43 217.461 C 1606.72 212.122 1604.01 203.922 1601.91 198.088 C 1593.63 194.57 1585.59 190.644 1577.48 186.753 C 1575.55 180.488 1572.57 174.215 1575.23 168.358 C 1582.83 162.456 1591.52 172.956 1597.03 167.548 L 1596.89 163.818 L 1597.08 158.784 L 1598.45 157.57 L 1599.2 161.279 L 1600.79 161.829 L 1601.35 174.507 C 1593.75 173.245 1585.29 172.025 1577.81 170.5 C 1578.62 174.483 1579.58 180.069 1580.79 183.821 C 1588.61 187.524 1596.85 191.43 1604.86 194.684 C 1607.33 203.41 1611.16 211.614 1615.34 219.645 C 1607.99 222.567 1602.65 224.967 1595.57 228.497 L 1601.69 240.401 C 1604.71 240.115 1611.05 239.313 1613.81 239.287 C 1615.8 239.571 1623.87 240.267 1624.73 240.978 C 1623.85 244.121 1623 247.275 1622.2 250.44 L 1622.99 251.725 L 1623.91 251.231 C 1623.88 248.37 1623.25 245.6 1624.74 243.928 L 1625.5 244.784 C 1624.45 254.932 1625.26 275.284 1625.46 286.179 L 1625.56 438.739 C 1639.59 446.144 1665.78 456.662 1681.37 463.539 L 1792.62 512.35 C 1809.29 519.585 1826.18 526.644 1842.55 534.417 C 1849.91 538.391 1858.45 542.889 1854.47 552.748 C 1849.97 563.891 1832.73 569.58 1822.36 574.063 C 1821.58 588.725 1822.13 607.84 1822.15 622.829 C 1832.75 628.251 1853.33 635.988 1865.25 640.782 L 1946.48 673.819 C 1962.01 680.141 1982.99 688.045 1997.49 695.479 C 1989.3 700.488 1970.76 708.058 1961.59 711.907 C 1941.27 720.276 1921 728.77 1900.79 737.39 C 1823.29 771.055 1742.3 805.756 1665.81 840.968 C 1746.15 872.338 1825.7 908.67 1905.7 941.061 C 1908.61 942.241 1913.57 945.108 1915.38 947.611 L 1914.11 948.177 C 1903.19 946.321 1857.09 925.926 1844.11 920.508 C 1787.1 896.712 1729.92 872.888 1672.98 848.885 C 1661.62 844.096 1661.61 842.738 1651.76 846.918 L 1813.49 915.01 L 1866.63 937.277 C 1876.48 941.367 1897.1 949.303 1905.14 954.639 L 1905.34 955.79 C 1895.89 956.8 1880.33 948.268 1871.38 944.452 C 1855.23 937.573 1839.04 930.784 1822.81 924.085 L 1645.54 849.553 C 1576.49 878.523 1507.81 909.293 1438.96 938.674 C 1426.04 944.188 1349.99 977.864 1341.99 978.521 L 1341.83 977.353 C 1349.94 969.545 1369.13 963.426 1380 958.804 L 1443.33 931.671 L 1647.89 843.402 L 1985.88 695.318 C 1947.16 680.861 1908.02 662.766 1869.4 647.757 C 1854.54 641.983 1837.35 633.999 1822.39 629.169 C 1822.03 656.785 1821.89 686.966 1822.6 714.517 C 1810.85 721.042 1793.17 728.538 1780.75 734.154 L 1709.87 765.963 C 1697.15 771.623 1681.1 778.382 1669.18 785.144 L 1476.53 702.694 C 1438.4 686.35 1399.7 669.019 1361.25 653.697 C 1356.28 703.912 1349.83 755.636 1345.4 805.443 C 1361.02 808.783 1390.87 816.627 1392.98 835.99 C 1394.31 851.993 1379.42 861.053 1366.46 865.788 C 1343.02 874.362 1318.11 876.856 1293.32 876.902 C 1281.63 876.924 1271.48 875.131 1260.13 873.381 C 1224.89 867.95 1179.38 840.813 1229.69 810.411 C 1229.59 779.886 1232.56 744.795 1234.99 714.054 C 1162.58 743.787 1088.06 777.982 1015.65 808.961 L 898.87 859.289 C 871.753 870.921 841.203 883.343 814.885 896.28 C 836.688 903.779 1004.09 973.908 1007.92 978.097 L 1007.18 979.428 C 1001.76 980.745 962.989 963.013 954.714 959.556 L 856.767 918.605 C 847.333 914.656 809.587 896.213 802.541 901.749 C 804.41 905.832 950.304 963.962 967.811 972.408 C 969.869 973.401 971.487 975.073 973.095 976.809 L 972.548 977.828 C 962.72 977.632 819.065 914.896 794.141 904.692 C 739.553 926.725 681.312 952.873 626.837 976.507 C 496.725 922.631 366.977 867.88 237.602 812.258 L 117.845 761.264 C 98.3409 752.965 78.559 744.712 59.1406 736.195 C 56.0295 734.83 55.6874 734.809 54.4188 732.322 C 57.8487 727.625 243.382 648.644 265.006 639.5 L 264.776 321.973 C 345.852 285.523 427.121 249.505 508.58 213.921 C 493.523 205.697 451.73 189.237 434.022 181.743 L 234.212 96.6453 L 176.696 72.2948 C 170.025 69.4939 146.429 61.3308 143.748 56.1946 L 144.644 55.2256 C 149.452 53.9233 174.008 65.816 180.144 68.4152 L 254.51 100.178 L 515.829 211.267 C 587.626 180.434 659.22 149.132 730.607 117.362 L 836.228 71.0259 C 855.226 62.7138 875.362 54.4976 894.056 45.7235 z" fill="rgb(5,29,50)" transform="translate(0,0)"></path>
<path d="M 1081.33 329.004 C 1142.93 356.179 1204.69 382.963 1266.62 409.357 C 1253.63 415.468 1245.7 420.629 1237.56 432.828 C 1220.4 459.095 1202.93 490.446 1205.41 523.006 C 1207.85 554.939 1212.38 572.392 1236.06 593.855 L 1238.66 595.781 C 1243.36 601.822 1236.4 695.618 1235.64 708.133 C 1116.46 761.347 995.123 812.419 875.225 864.148 L 748.655 918.839 C 708.884 936.223 667.069 954.92 626.847 970.959 C 604.412 962.408 582.133 952.3 559.837 943.122 C 497.647 917.633 435.693 891.571 373.984 864.939 C 270.954 821.022 165.523 777.431 63.1367 732.485 L 205.331 670.479 C 225.137 661.863 245.65 653.807 265.125 644.679 C 265.532 685.584 263.874 730.968 265.464 771.201 C 329.868 800.427 396.865 827.368 461.468 856.432 C 463.831 857.813 467.919 856.329 470.476 855.29 C 539.741 827.143 607.313 792.807 676.672 765.128 L 676.89 836.476 C 696.116 845.525 716.482 853.772 736.148 861.991 C 783.48 839.304 837.321 816.633 885.595 795.32 L 1081.45 708.946 L 1081.33 329.004 z" fill="rgb(253,253,253)" transform="translate(0,0)"></path>
<path d="M 1074.63 133.988 C 1074.69 134.036 1074.77 134.072 1074.82 134.132 C 1077.67 137.543 1076.11 189.526 1076.08 197.65 C 1065.9 202.949 1047.16 210.366 1036.01 215.257 C 1007.33 227.967 978.552 240.471 949.688 252.771 C 886.065 280.425 822.632 308.516 759.396 337.043 L 694.646 365.736 C 685.509 369.797 667.198 377.407 659.445 382.189 C 658.181 484.242 659.894 586.652 659.241 688.738 C 659.088 712.627 658.801 737.127 659.596 760.941 C 639.022 769.294 615.732 780.396 595.239 789.581 C 552.568 808.943 509.73 827.934 466.73 846.552 L 466.46 846.481 C 464.082 843.493 465.108 799.26 465.115 791.727 L 465.195 693.281 L 465.16 409.99 C 497.277 394.161 531.979 378.948 564.689 364.087 L 703.341 300.983 L 1074.63 133.988 z" fill="rgb(253,253,253)" transform="translate(0,0)"></path>
<path d="M 639.001 397.898 L 641.977 398.215 C 644.21 401.205 643.03 690.314 642.99 727.841 L 492.438 795.049 C 490.836 795.186 490.357 794.886 488.877 794.343 C 488.099 790.335 488.527 769.916 488.557 764.649 L 488.906 699.566 L 489.11 466.113 C 504.713 458.287 524.62 449.799 540.757 442.516 L 639.001 397.898 z" fill="rgb(5,29,50)" transform="translate(0,0)"></path>
<path d="M 636.777 403.963 L 638.043 404.768 C 638.89 408.677 638.604 425.26 638.617 430.689 L 638.692 488.22 L 638.195 720.647 C 589.938 741.226 542.78 763.739 494.656 784.678 L 494.509 784.633 C 492.881 782.958 493.159 781.664 493.157 778.812 C 493.137 745.029 493.724 711.136 493.84 677.361 L 493.808 469.089 C 541.069 446.887 589.254 425.829 636.777 403.963 z" fill="rgb(253,253,253)" transform="translate(0,0)"></path>
<path d="M 627.59 414.873 L 629.931 415.177 C 633.426 420.134 631.464 496.11 631.451 508.381 C 616.942 516.266 598.993 523.199 583.726 529.974 C 557.19 541.751 530.57 553.646 503.871 565.026 C 502.989 564.861 502.157 564.276 501.329 563.814 C 499.023 559.087 500.23 484.3 500.276 473.148 L 627.59 414.873 z" fill="rgb(3,20,40)" transform="translate(0,0)"></path>
<path d="M 625.692 421.022 C 627.818 425.298 626.852 495.028 626.81 505.503 C 587.928 523.678 545.481 541.8 506.147 558.898 C 506.103 558.855 506.051 558.819 506.016 558.769 C 503.222 554.818 505.11 486.432 505.19 475.754 C 545.261 457.3 585.429 439.055 625.692 421.022 z" fill="rgb(253,253,253)" transform="translate(0,0)"></path>
<path d="M 562.194 647.902 L 565.45 649.013 C 565.834 649.578 566.305 650.271 566.863 651.091 C 567.678 677.729 567.214 712.275 567.207 738.001 C 560.843 741.225 552.064 744.719 545.357 747.601 C 544.16 746.877 539.074 743.809 539.033 742.313 C 538.27 714.248 538.884 685.937 539.087 657.829 L 562.194 647.902 z" fill="rgb(3,20,40)" transform="translate(0,0)"></path>
<path d="M 561.877 653.065 C 563.419 655.679 562.886 725.904 562.886 735.022 C 556.697 737.679 551.071 739.81 544.742 742.12 C 541.394 737.458 543.287 671.59 543.775 660.802 L 561.877 653.065 z" fill="rgb(250,201,91)" transform="translate(0,0)"></path>
<path d="M 525.793 662.997 C 527.086 663.281 529.238 664.324 530.546 664.904 C 533.874 668.467 532.241 743.788 532.207 753.791 L 510.818 763.06 C 509.257 762.19 507.148 760.729 505.589 759.723 C 502.637 756.073 504.201 683.59 504.268 673.063 C 511.542 669.923 518.72 666.566 525.793 662.997 z" fill="rgb(3,20,40)" transform="translate(0,0)"></path>
<path d="M 524.646 669.011 L 527.156 669.486 C 529.569 678.339 527.918 737.512 527.951 750.541 C 523.148 752.849 517.2 755.282 512.244 757.461 L 510.044 756.755 C 507.55 752.585 508.956 686.409 509.034 676.088 L 524.646 669.011 z" fill="rgb(250,201,91)" transform="translate(0,0)"></path>
<path d="M 626.296 618.948 C 627.737 618.502 628.877 618.924 630.383 619.237 C 634.023 623.506 632.619 644.411 632.634 651.019 L 632.78 709.286 C 625.589 712.151 619.712 714.763 612.723 718.099 C 610.044 717.646 609.446 717.197 607.066 715.845 C 604.311 711.85 605.757 638.612 605.819 627.839 C 612.372 624.806 619.622 621.837 626.296 618.948 z" fill="rgb(3,20,40)" transform="translate(0,0)"></path>
<path d="M 626.233 623.913 L 627.457 624.237 C 628.681 626.989 628.011 697.509 627.994 706.384 C 622.855 708.413 617.432 710.999 612.366 713.293 L 610.785 712.678 C 608.682 706.666 610.008 641.225 610.045 631.055 L 626.233 623.913 z" fill="rgb(250,201,91)" transform="translate(0,0)"></path>
<path d="M 594.622 632.837 C 595.547 633.29 596.62 633.811 597.317 634.588 C 600.171 637.77 598.91 712.812 598.902 723.744 C 593.787 726.846 584.857 731.076 579.072 734.264 C 577.755 733.73 576.022 733.164 575.004 732.147 C 571.565 728.711 573.703 653.55 573.768 642.488 C 580.62 639.518 587.813 636.009 594.622 632.837 z" fill="rgb(3,20,40)" transform="translate(0,0)"></path>
<path d="M 593.706 710.067 C 595.059 712.944 594.546 717.435 594.446 720.791 C 589.873 723.387 584.215 725.999 579.437 728.356 C 577.435 725.929 578.065 720.297 578.13 716.925 L 593.706 710.067 z" fill="rgb(253,253,253)" transform="translate(0,0)"></path>
<path d="M 592.606 667.991 C 594.852 669.771 594.081 676.485 594.029 679.421 L 579.783 685.673 L 579.179 685.187 C 575.014 673.826 583.924 671.53 592.606 667.991 z" fill="rgb(253,253,253)" transform="translate(0,0)"></path>
<path d="M 593.122 639.074 L 593.815 639.742 C 597.725 651.423 588.806 652.997 579.748 656.833 L 579.144 656.233 C 575.417 644.51 583.925 643.054 593.122 639.074 z" fill="rgb(253,253,253)" transform="translate(0,0)"></path>
<path d="M 593.037 697.099 C 594.177 698.361 594.144 699.802 594.533 701.69 C 592.351 706.691 585.058 708.61 579.676 710.84 L 579.03 710.234 C 578.024 706.414 577.842 707.727 578.941 704.606 C 582.504 701.247 588.426 699.111 593.037 697.099 z" fill="rgb(253,253,253)" transform="translate(0,0)"></path>
<path d="M 592.984 685.11 C 594.833 686.936 594.303 688.84 593.565 690.846 C 590.405 693.757 583.582 696.397 579.433 698.255 C 578.181 696.033 578.307 695.556 578.534 692.984 C 580.949 689.358 588.666 686.865 592.984 685.11 z" fill="rgb(253,253,253)" transform="translate(0,0)"></path>
<path d="M 593.007 656.079 C 594.758 657.802 594.308 659.371 593.757 661.307 C 590.664 664.283 584.396 666.555 580.265 668.344 C 578.982 667.12 579.246 666.903 578.621 664.955 C 580.822 659.943 587.571 658.308 593.007 656.079 z" fill="rgb(253,253,253)" transform="translate(0,0)"></path>
<path d="M 525.045 611.966 C 526.432 611.728 527.793 612.227 529.196 612.575 C 533.226 616.865 531.516 636.441 531.332 643.592 C 524.051 646.703 516.802 649.886 509.585 653.142 C 509.094 653.107 507 652.474 506.387 652.302 C 502.285 646.733 503.987 629.205 504.155 621.078 C 510.458 618.036 518.509 614.805 525.045 611.966 z" fill="rgb(3,20,40)" transform="translate(0,0)"></path>
<path d="M 525.363 616.952 L 526.866 618.016 C 527.631 622.751 527.094 635.004 526.984 640.372 L 510.468 647.433 L 509.014 646.975 C 508.043 642.442 508.622 629.846 508.729 624.585 C 513.569 622.09 520.283 619.266 525.363 616.952 z" fill="rgb(250,201,91)" transform="translate(0,0)"></path>
<path d="M 626.714 565.969 L 629.965 566.001 C 634.111 570.988 632.412 590.057 632.246 597.874 C 625.644 600.988 618.479 603.995 611.762 606.949 L 608.029 604.974 C 604.561 600.643 606.105 581.185 606.223 574.844 C 613.008 571.783 619.84 568.824 626.714 565.969 z" fill="rgb(3,20,40)" transform="translate(0,0)"></path>
<path d="M 625.89 570.976 L 627.089 572.125 C 627.91 577.376 627.511 589.144 627.459 594.954 L 611.287 602.048 C 609.353 599.516 610.088 582.066 610.118 577.737 C 615.068 575.836 620.948 573.116 625.89 570.976 z" fill="rgb(250,201,91)" transform="translate(0,0)"></path>
<path d="M 562.744 595.978 C 564.159 596.289 564.66 596.781 565.928 597.558 C 568.542 602.36 567.223 621.611 567.021 628.066 C 559.586 630.995 553.582 633.554 546.371 636.987 C 543.566 635.819 542.269 634.486 541.955 631.462 C 541.04 622.66 541.567 613.157 541.789 604.314 L 562.744 595.978 z" fill="rgb(3,20,40)" transform="translate(0,0)"></path>
<path d="M 559.62 601.896 C 561.667 601.9 560.696 601.63 562.504 603.066 C 563.463 608.533 563.038 618.405 562.96 624.315 C 558.415 626.348 553.428 628.874 548.898 631.057 L 547.839 631.412 L 546.436 630.428 C 545.422 624.327 545.833 613.853 545.895 607.323 L 559.62 601.896 z" fill="rgb(250,201,91)" transform="translate(0,0)"></path>
<path d="M 593.349 582.958 C 594.636 583.243 596.205 583.315 596.883 584.274 C 600.131 588.869 598.84 607.52 598.766 613.04 C 594.932 615.205 584.871 619.136 580.394 621.008 C 570.587 621.62 573.94 597.965 574.002 590.97 C 580.416 588.215 586.865 585.544 593.349 582.958 z" fill="rgb(5,29,50)" transform="translate(0,0)"></path>
<path d="M 591.217 588.961 C 592.806 588.608 591.988 588.55 593.671 589.591 C 594.596 594.419 594.15 604.583 594.061 609.984 L 580.509 616.064 L 578.689 615.461 C 577.791 611.009 578.265 599.09 578.346 593.928 L 591.217 588.961 z" fill="rgb(250,201,91)" transform="translate(0,0)"></path>
<path d="M 615.225 534.931 C 632.247 535.606 630.229 552.043 617.858 559.892 C 616.747 559.93 615.637 559.953 614.527 559.856 C 611.706 559.607 609.124 558.17 607.425 555.904 C 602.022 548.57 609.374 539.287 615.225 534.931 z" fill="rgb(3,20,40)" transform="translate(0,0)"></path>
<path d="M 615.31 539.782 C 618.38 539.784 618.738 539.848 621.337 541.469 C 624.985 547.674 622.911 551.227 618.21 555.978 C 615.69 555.595 615.078 555.292 612.679 554.344 C 608.019 548.587 611.273 544.782 615.31 539.782 z" fill="rgb(77,168,170)" transform="translate(0,0)"></path>
<path d="M 581.175 549.879 C 597.276 550.197 596.769 566.17 584.096 574.169 C 565.475 574.724 570.042 558.229 581.175 549.879 z" fill="rgb(3,20,40)" transform="translate(0,0)"></path>
<path d="M 581.294 554.446 C 583.965 554.757 584.244 555.064 586.652 556.413 C 590.571 562.283 587.831 565.435 583.307 569.826 C 580.708 570.019 580.545 569.847 578.066 568.827 C 574.126 563.391 577.404 558.834 581.294 554.446 z" fill="rgb(77,168,170)" transform="translate(0,0)"></path>
<path d="M 548.326 564.811 C 563.621 565.785 561.099 582.481 548.908 589.819 C 531.936 589.239 536.382 571.815 548.326 564.811 z" fill="rgb(3,20,40)" transform="translate(0,0)"></path>
<path d="M 548.278 569.421 C 550.933 569.81 551.094 570.085 553.341 571.715 C 556.082 578.208 552.398 581.494 547.569 585.483 C 538.008 580.896 542.751 574.69 548.278 569.421 z" fill="rgb(77,168,170)" transform="translate(0,0)"></path>
<path d="M 512.754 579.951 C 530.163 579.053 527.07 595.394 516.455 603.809 C 500.56 604.982 502.302 588.422 512.754 579.951 z" fill="rgb(3,20,40)" transform="translate(0,0)"></path>
<path d="M 514.957 583.665 C 516.828 584.263 517.524 584.806 519.204 585.853 C 522.562 592.474 519.961 595.377 514.956 599.981 C 512.563 599.331 512.356 599.097 510.264 597.686 C 506.816 591.3 510.108 587.949 514.957 583.665 z" fill="rgb(77,168,170)" transform="translate(0,0)"></path>
<path d="M 1074.09 203.955 L 1075.24 204.094 C 1077.18 207.145 1076.71 644.8 1076.5 689.922 C 1049.1 703.527 1018.81 716.012 990.65 728.463 L 866.479 783.604 C 864.656 737.445 866.155 681.275 866.087 634 L 865.831 304.533 L 745.555 358.038 C 722.21 368.054 699.364 378.7 675.934 388.671 L 676.334 754.282 L 664.724 759.063 C 663.565 747.462 664.056 730.47 664.091 718.324 L 664.35 646.769 L 664.364 384.349 C 800.424 323.053 937.004 262.92 1074.09 203.955 z" fill="rgb(253,253,253)" transform="translate(0,0)"></path>
<path d="M 1063.1 218.972 C 1065.03 218.604 1064.35 218.66 1066.42 219.51 C 1068.57 224.61 1067.37 642.277 1067.46 686.607 C 1032.13 701.838 996.889 717.284 961.747 732.945 C 934.704 745.129 908.193 757.794 880.744 769.093 L 878.684 768.654 C 875.795 765.065 877.075 721.486 877.065 712.777 L 877.003 607.947 L 876.879 299.908 C 937.618 272.97 1001.76 244.046 1063.1 218.972 z" fill="rgb(5,29,50)" transform="translate(0,0)"></path>
<path d="M 939.262 448.87 C 940.043 449.068 940.234 449.394 940.955 449.968 C 941.633 479.971 941.028 511.721 941.089 541.956 L 941.437 736.885 C 922.501 745.739 902.73 754.261 883.596 762.785 L 882.398 762.002 C 881.417 753.786 881.951 738.593 881.966 729.621 L 881.968 670.825 L 881.863 473.972 C 899.182 467.22 922.521 456.893 939.262 448.87 z" fill="rgb(253,253,253)" transform="translate(0,0)"></path>
<path d="M 1002.95 420.186 C 1004.53 422.39 1003.93 683.36 1003.98 708.934 C 985.988 717.509 965.746 726.003 947.407 734.127 L 946.889 733.65 C 945.061 729.524 946.047 467.496 946.06 445.642 C 964.262 436.797 984.332 428.367 1002.95 420.186 z" fill="rgb(253,253,253)" transform="translate(0,0)"></path>
<path d="M 1061.09 393.957 L 1061.97 394.69 C 1063.64 400.922 1062.31 447.355 1062.34 456.273 L 1062.75 683.247 C 1046.79 690.829 1029.34 697.999 1013.03 705.005 C 1010.5 706.031 1011.45 706.085 1009.31 705.249 C 1007.86 700.992 1008.72 645.275 1008.72 637.692 L 1008.7 417.618 C 1026.3 410.049 1043.77 402.161 1061.09 393.957 z" fill="rgb(253,253,253)" transform="translate(0,0)"></path>
<path d="M 1034.87 437.328 C 1033.96 423.638 1044.15 414.787 1054.44 425.675 C 1054.46 443.443 1054.78 462.421 1054.28 479.848 C 1054.02 488.959 1041.09 492.569 1037.78 487.9 C 1032.5 480.444 1034.75 445.618 1034.87 437.328 z" fill="rgb(3,20,40)" transform="translate(0,0)"></path>
<path d="M 1049.61 428.804 C 1049.8 437.358 1051.14 478.956 1048.28 482.799 C 1044.99 484.396 1046.28 484.347 1043.35 483.448 C 1039.26 478.061 1039.73 434.48 1042.93 431.86 L 1049.61 428.804 z" fill="rgb(253,253,253)" transform="translate(0,0)"></path>
<path d="M 1034.87 437.328 C 1033.96 423.638 1044.15 414.787 1054.44 425.675 L 1049.61 428.804 L 1042.93 431.86 C 1040.31 429.461 1040.48 428.761 1037.54 428.542 C 1035.67 431.064 1035.43 434.189 1034.87 437.328 z" fill="rgb(5,29,50)" transform="translate(0,0)"></path>
<path d="M 939.895 277.144 C 941.835 279.166 941.152 425.82 941.162 442.596 C 922.538 451.767 902.18 460.315 883.082 468.759 C 881.082 466.133 881.865 321.576 881.878 303.011 C 898.286 294.451 922.459 284.674 939.895 277.144 z" fill="rgb(253,253,253)" transform="translate(0,0)"></path>
<path d="M 1002.8 250.041 C 1002.91 250.131 1003.04 250.198 1003.12 250.312 C 1005.46 253.467 1003.84 397.576 1003.71 414.738 C 985.377 423.492 965.838 431.801 947.173 439.958 C 944.392 436.095 945.887 290.477 945.882 274.559 C 964.769 266.193 983.742 258.019 1002.8 250.041 z" fill="rgb(253,253,253)" transform="translate(0,0)"></path>
<path d="M 1061.11 225.047 L 1061.82 225.554 C 1063.17 228.582 1062.27 372.734 1062.28 388.872 C 1047.82 394.117 1025.93 405.143 1010.47 411.53 L 1009.46 411.478 C 1008.23 408.48 1008.61 262.519 1008.47 247.75 C 1025.86 239.831 1043.41 232.262 1061.11 225.047 z" fill="rgb(253,253,253)" transform="translate(0,0)"></path>
<path d="M 1037.36 348.883 C 1058.75 346.876 1054.86 372.97 1038.26 382.506 C 1017.02 385.333 1021.83 359.317 1037.36 348.883 z" fill="rgb(3,20,40)" transform="translate(0,0)"></path>
<path d="M 1039.38 352.821 C 1054.84 356.965 1046.01 372.386 1036.71 378.392 C 1021.25 376.599 1030.14 358.826 1039.38 352.821 z" fill="rgb(250,201,91)" transform="translate(0,0)"></path>
<path d="M 1342.99 411.88 C 1369.74 409.23 1432.81 367.759 1450.43 369.576 C 1470.92 371.687 1562.54 415.815 1583.03 424.995 L 1749.6 498.501 C 1773.1 508.918 1796.66 519.202 1820.27 529.352 C 1824.26 531.091 1828.67 532.919 1832.6 534.379 C 1876.8 550.814 1828.17 566.339 1810.82 574.427 C 1806.34 576.513 1801.34 578.753 1797.23 580.659 L 1699.85 625.902 C 1696.3 627.576 1670.79 639.544 1668.58 641.301 L 1670.27 644.32 C 1667.53 651.751 1671.55 673.324 1668.01 681.425 C 1667.24 687.992 1667.7 707.225 1667.71 714.362 C 1667.85 736.11 1667.78 757.858 1667.5 779.605 C 1658.47 776.087 1647.53 770.843 1638.31 766.93 C 1611.48 755.681 1584.73 744.216 1558.08 732.536 L 1361.97 648.467 C 1363.69 637.552 1366.19 606.091 1365.91 595.041 C 1369.22 582.647 1370.41 570.198 1372.91 557.575 C 1385.44 558.092 1400.36 545.978 1408.75 544.769 C 1410.44 543.371 1410.22 542.454 1412.01 541.908 L 1427.63 531.303 L 1429.96 529.879 C 1433.2 522.057 1429.19 516.722 1425.27 510.165 C 1430.65 508.34 1435.2 505.907 1440.26 503.375 C 1442.39 504.221 1445.72 505.262 1447.89 505.78 C 1453.66 507.153 1450.45 508.323 1453.64 512.143 C 1456.15 511.368 1457.54 509.8 1459.53 508.034 C 1455.45 498.938 1445.69 501.178 1435.91 496.788 C 1414.1 486.998 1392.44 477.118 1370.83 466.881 C 1361.32 444.291 1362 441.82 1340.02 430.08 L 1339.44 430.318 L 1339.08 429.235 C 1337.18 429.467 1335.93 429.273 1334.02 429.106 L 1333.6 427.822 C 1335.74 419.719 1337.24 418.018 1342.99 411.88 z" fill="rgb(253,253,253)" transform="translate(0,0)"></path>
<path d="M 1408.75 544.769 C 1410.44 543.371 1410.22 542.454 1412.01 541.908 C 1464.57 563.586 1516.52 587.666 1568.61 610.401 C 1587.48 618.638 1626.12 638.063 1643.81 642.663 C 1652 644.832 1660.67 644.355 1668.58 641.301 L 1670.27 644.32 C 1667.53 651.751 1671.55 673.324 1668.01 681.425 C 1667.24 687.992 1667.7 707.225 1667.71 714.362 C 1667.85 736.11 1667.78 757.858 1667.5 779.605 C 1658.47 776.087 1647.53 770.843 1638.31 766.93 C 1611.48 755.681 1584.73 744.216 1558.08 732.536 L 1361.97 648.467 C 1363.69 637.552 1366.19 606.091 1365.91 595.041 C 1369.22 582.647 1370.41 570.198 1372.91 557.575 C 1385.44 558.092 1400.36 545.978 1408.75 544.769 z" fill="rgb(253,253,253)" transform="translate(0,0)"></path>
<path d="M 1408.75 544.769 C 1410.44 543.371 1410.22 542.454 1412.01 541.908 C 1464.57 563.586 1516.52 587.666 1568.61 610.401 C 1587.48 618.638 1626.12 638.063 1643.81 642.663 C 1652 644.832 1660.67 644.355 1668.58 641.301 L 1670.27 644.32 C 1667.53 651.751 1671.55 673.324 1668.01 681.425 C 1667.56 670.585 1667.8 657.451 1667.71 646.441 C 1659.74 648.215 1650.89 649.286 1643.02 646.922 C 1625.74 641.738 1608.37 633.412 1591.91 625.996 L 1519.44 593.364 C 1486.03 578.422 1440.04 560.794 1408.75 544.769 z" fill="rgb(3,20,40)" transform="translate(0,0)"></path>
<path d="M 1342.99 411.88 C 1369.74 409.23 1432.81 367.759 1450.43 369.576 C 1470.92 371.687 1562.54 415.815 1583.03 424.995 L 1749.6 498.501 C 1773.1 508.918 1796.66 519.202 1820.27 529.352 C 1824.26 531.091 1828.67 532.919 1832.6 534.379 C 1876.8 550.814 1828.17 566.339 1810.82 574.427 C 1806.34 576.513 1801.34 578.753 1797.23 580.659 L 1699.85 625.902 C 1696.3 627.576 1670.79 639.544 1668.58 641.301 C 1660.67 644.355 1652 644.832 1643.81 642.663 C 1626.12 638.063 1587.48 618.638 1568.61 610.401 C 1516.52 587.666 1464.57 563.586 1412.01 541.908 L 1427.63 531.303 C 1473.7 550.939 1519.56 571.084 1565.19 591.734 C 1590.5 603.077 1615.73 615.073 1641.34 625.685 C 1651.92 630.068 1664.19 628.937 1674.57 624.422 C 1696.66 613.924 1723.15 602.725 1744.66 591.707 C 1760.31 583.692 1819 560.786 1828.11 550.939 C 1827.81 545.641 1824.72 542.021 1820.09 539.648 C 1801.48 530.107 1782.04 521.867 1762.93 513.329 L 1651.48 463.869 L 1534.15 411.647 C 1514.22 402.602 1484.26 387.801 1464.58 380.26 C 1459.88 378.491 1454.87 377.706 1449.86 377.957 C 1438.12 378.449 1425.32 385.613 1414.74 390.674 C 1392 401.654 1369.11 412.291 1346.18 422.86 C 1342.05 424.764 1338.03 426.729 1333.6 427.822 C 1335.74 419.719 1337.24 418.018 1342.99 411.88 z" fill="rgb(250,201,91)" transform="translate(0,0)"></path>
<path d="M 1333.6 427.822 C 1338.03 426.729 1342.05 424.764 1346.18 422.86 C 1369.11 412.291 1392 401.654 1414.74 390.674 C 1425.32 385.613 1438.12 378.449 1449.86 377.957 C 1454.87 377.706 1459.88 378.491 1464.58 380.26 C 1484.26 387.801 1514.22 402.602 1534.15 411.647 L 1651.48 463.869 L 1762.93 513.329 C 1782.04 521.867 1801.48 530.107 1820.09 539.648 C 1824.72 542.021 1827.81 545.641 1828.11 550.939 C 1819 560.786 1760.31 583.692 1744.66 591.707 C 1723.15 602.725 1696.66 613.924 1674.57 624.422 C 1664.19 628.937 1651.92 630.068 1641.34 625.685 C 1615.73 615.073 1590.5 603.077 1565.19 591.734 C 1519.56 571.084 1473.7 550.939 1427.63 531.303 L 1429.96 529.879 C 1433.2 522.057 1429.19 516.722 1425.27 510.165 C 1430.65 508.34 1435.2 505.907 1440.26 503.375 C 1442.39 504.221 1445.72 505.262 1447.89 505.78 C 1453.66 507.153 1450.45 508.323 1453.64 512.143 C 1456.15 511.368 1457.54 509.8 1459.53 508.034 C 1461.09 508.155 1462.39 508.746 1463.86 509.281 C 1465.56 511.67 1465.28 510.552 1464.92 513.466 C 1460.15 520.804 1445.38 527.313 1437.47 530.854 C 1506.13 558.269 1573.01 591.886 1641.13 620.614 C 1650.74 624.667 1661.88 625.313 1671.31 620.856 C 1697.42 608.526 1726.15 596.755 1751.65 583.609 C 1768.76 574.787 1809.21 560.286 1822.53 549.473 L 1822.67 547.874 C 1815.7 539.543 1748.6 511.803 1734.08 505.451 L 1631.13 459.622 L 1520.46 410.272 C 1502.85 402.406 1485.32 393.333 1467.36 386.369 C 1461.5 384.098 1453.5 381.448 1447.23 382.367 C 1434.75 384.195 1357.53 422.294 1340.02 430.08 L 1339.44 430.318 L 1339.08 429.235 C 1337.18 429.467 1335.93 429.273 1334.02 429.106 L 1333.6 427.822 z" fill="rgb(3,20,40)" transform="translate(0,0)"></path>
<path d="M 1440.26 503.375 C 1442.39 504.221 1445.72 505.262 1447.89 505.78 C 1453.66 507.153 1450.45 508.323 1453.64 512.143 L 1455.53 513.676 C 1453.1 519.798 1435.48 525.662 1429.96 529.879 C 1433.2 522.057 1429.19 516.722 1425.27 510.165 C 1430.65 508.34 1435.2 505.907 1440.26 503.375 z" fill="rgb(253,253,253)" transform="translate(0,0)"></path>
<path d="M 1600.92 467.906 C 1617.57 475.342 1666.87 495.636 1679.72 503.805 C 1661.79 513.321 1640.42 523.095 1622.01 532.115 C 1595.19 520.027 1568.29 508.121 1541.31 496.397 C 1561.25 487.04 1581.12 477.542 1600.92 467.906 z" fill="rgb(3,20,40)" transform="translate(0,0)"></path>
<path d="M 1601.12 472.915 L 1670.78 503.499 C 1654.56 511.473 1638.27 519.29 1621.9 526.951 C 1616.31 525.122 1604.41 519.377 1598.67 516.812 C 1583.18 509.736 1567.59 502.887 1551.89 496.265 C 1567.53 488.364 1585.17 480.483 1601.12 472.915 z" fill="rgb(77,168,170)" transform="translate(0,0)"></path>
<path d="M 1522.11 507.916 C 1523.96 507.856 1593.65 538.819 1602.02 542.471 C 1587.91 549.779 1573.65 556.79 1559.24 563.498 C 1556.8 562.835 1538.97 554.519 1535.67 553.051 C 1516.74 544.705 1497.84 536.256 1479 527.704 C 1493.52 521.446 1507.9 514.848 1522.11 507.916 z" fill="rgb(3,20,40)" transform="translate(0,0)"></path>
<path d="M 1522.28 512.914 C 1524.7 513.01 1584.19 539.298 1592.74 542.581 C 1582.86 547.694 1570.53 553.122 1560.32 557.924 C 1556.52 558.688 1498.06 531.438 1490.19 527.748 L 1522.28 512.914 z" fill="rgb(250,201,91)" transform="translate(0,0)"></path>
<path d="M 1622.7 552.917 C 1632.34 554.813 1683.69 579.518 1695.35 584.953 C 1685.06 590.993 1663.35 600.323 1652.02 605.151 C 1649.44 604.455 1646.8 603.249 1644.35 602.189 C 1622.46 592.715 1600.99 582.304 1578.84 573.419 C 1593.72 566.116 1607.49 559.442 1622.7 552.917 z" fill="rgb(5,29,50)" transform="translate(0,0)"></path>
<path d="M 1622.14 557.968 C 1631.36 560.073 1673.25 579.941 1685.24 585.121 C 1674.14 590.011 1663.23 595.498 1652.35 600.848 C 1631.58 592.055 1610.04 582.031 1589.37 572.756 C 1600.06 567.656 1611.3 562.808 1622.14 557.968 z" fill="rgb(77,168,170)" transform="translate(0,0)"></path>
<path d="M 1705.47 511.899 C 1709.29 511.123 1750.94 529.601 1752.69 533.254 C 1749.98 536.719 1700.17 560.094 1693.3 563.48 C 1690.22 564.165 1650.02 544.999 1643.84 542.026 C 1664.26 531.751 1684.96 522.049 1705.47 511.899 z" fill="rgb(3,20,40)" transform="translate(0,0)"></path>
<path d="M 1706.91 515.922 L 1745.37 532.715 C 1730.02 541.469 1708.97 550.975 1692.73 558.908 C 1681.39 554.779 1664.96 546.874 1653.53 541.78 L 1706.91 515.922 z" fill="rgb(250,201,91)" transform="translate(0,0)"></path>
<path d="M 1441.86 405.259 C 1457.33 403.912 1473.89 405.197 1480.38 421.386 C 1495.06 420.018 1516.72 420.182 1523.88 436.506 C 1524.85 438.72 1525.22 441.842 1524.18 444.094 L 1521.99 444.829 C 1518.25 441.971 1520.53 437.477 1515.32 432.92 L 1514.84 432.511 C 1489.19 410.212 1458.13 443.027 1449.02 438.996 L 1448.47 437.484 C 1451.55 433.623 1468.43 428.764 1472.84 423.984 C 1474.95 421.704 1474.36 420.959 1474.41 417.645 C 1464.98 408.837 1445.12 407.442 1433.45 411.956 C 1424.66 415.361 1424.83 419.092 1427.99 426.957 C 1419.6 428.855 1409.76 426.955 1401.23 428.57 C 1392.67 430.193 1384.39 434.165 1376.52 437.809 C 1381.05 439.708 1383.16 440.387 1386.89 443.496 L 1386.41 444.499 C 1381.59 444.87 1368.44 443.277 1370.62 436.191 C 1381.25 425.487 1404.72 425.437 1416.64 422.328 C 1424.3 420.332 1415.86 410.619 1441.86 405.259 z" fill="rgb(3,20,40)" transform="translate(0,0)"></path>
<path d="M 1480.77 453.178 C 1481.78 453.112 1482.8 453.059 1483.82 453.018 C 1489.69 452.795 1499.02 453.701 1498.88 461.221 C 1497.33 464.26 1495.06 464.977 1491.97 466.503 C 1485.73 467.181 1474.9 466.563 1474.47 458.536 C 1476.03 455.472 1477.75 454.852 1480.77 453.178 z" fill="rgb(3,20,40)" transform="translate(0,0)"></path>
<path d="M 1480.98 457.199 C 1481.9 457.148 1482.81 457.107 1483.73 457.075 C 1488.16 456.915 1489.97 456.717 1492.99 459.534 L 1492.72 462.034 C 1488.49 462.162 1482.88 463.159 1480.28 459.516 L 1480.98 457.199 z" fill="rgb(253,253,253)" transform="translate(0,0)"></path>
<path d="M 1412.08 453.023 C 1417.97 452.993 1428.72 454.036 1428.27 461.8 C 1426.25 464.927 1424.5 465.42 1421.11 466.985 C 1415.07 467.167 1403.31 466.51 1404.44 457.951 C 1406.56 454.936 1408.66 454.425 1412.08 453.023 z" fill="rgb(3,20,40)" transform="translate(0,0)"></path>
<path d="M 1408.88 458.389 C 1414.81 457.349 1420.39 456.075 1423.74 461.9 C 1417.05 463.522 1413.26 464.091 1408.88 458.389 z" fill="rgb(253,253,253)" transform="translate(0,0)"></path>
<path d="M 1446.75 469.104 C 1452.65 468.814 1465.46 468.898 1464.04 477.799 C 1462.27 480.515 1460.28 481.18 1457.4 482.566 C 1451.26 483.012 1441.35 482.473 1440.58 474.849 C 1441.73 471.857 1444.05 470.8 1446.75 469.104 z" fill="rgb(3,20,40)" transform="translate(0,0)"></path>
<path d="M 1448.83 472.989 C 1452.38 473.236 1456.97 472.853 1458.57 476.202 L 1456.73 478.725 C 1453.25 478.454 1449.46 478.507 1446.54 476.749 L 1446.28 475.25 L 1448.83 472.989 z" fill="rgb(253,253,253)" transform="translate(0,0)"></path>
<path d="M 894.821 50.9502 C 931.301 66.2915 967.696 81.8329 1004.01 97.5739 C 1026.66 107.277 1053 118.09 1074.93 128.835 C 1017.38 153.802 959.054 181.433 901.676 207.262 L 652.977 318.69 L 526.327 376.697 C 505.843 386.091 485.129 395.666 464.57 404.952 C 461.115 406.512 461.264 405.928 457.741 404.759 C 435.343 395.63 411.654 384.147 389.47 374.216 C 350.791 356.745 311.873 339.807 272.728 323.407 C 313.078 306.462 356.653 285.846 397.158 268.068 L 681.981 144.045 C 752.01 113.269 824.508 80.0698 894.821 50.9502 z" fill="rgb(253,253,253)" transform="translate(0,0)"></path>
<path d="M 387.715 280.95 C 393.069 279.724 484.582 320.912 493.445 326.261 C 494.063 329.741 493.939 330.19 492.928 333.519 C 487.348 338.786 420.676 367.93 409.736 372.96 C 396.792 368.965 314.734 333.318 306.552 326.98 C 304.92 323.328 304.751 322.838 304.836 318.851 C 307.714 314.996 378.978 284.78 387.715 280.95 z" fill="rgb(5,29,50)" transform="translate(0,0)"></path>
<path d="M 388.112 285.893 C 393.709 285.503 471.839 320.935 484.119 326.36 C 463.226 335.131 432.537 349.215 412.126 359.228 C 400.391 357.576 330.079 324.114 315.635 317.621 C 339.129 306.79 364.303 296.129 388.112 285.893 z" fill="rgb(253,253,253)" transform="translate(0,0)"></path>
<path d="M 308.15 320.995 C 308.779 321.027 311.855 321.455 313.097 322.013 C 344.198 335.989 376.743 348.484 407.048 363.937 C 407.677 365.163 408.188 366.161 408.583 366.932 C 393.664 364.266 361.389 345.007 345.858 339.926 C 335.03 336.383 321.515 328.357 310.697 324.189 C 309.692 323.802 308.574 321.973 308.15 320.995 z" fill="rgb(187,208,210)" transform="translate(0,0)"></path>
<path d="M 488.067 328.934 L 489.363 330.158 C 487.755 332.737 422.619 362.062 414.077 366.037 L 412.29 365.723 L 412.297 364.39 C 416.304 361.649 431.953 354.93 436.978 352.646 C 454.122 344.99 471.153 337.085 488.067 328.934 z" fill="rgb(187,208,210)" transform="translate(0,0)"></path>
<path d="M 511.385 226.202 C 514.953 227.13 543.982 240.233 548.666 242.513 C 568.877 252.35 595.502 261.912 614.629 272.346 C 616.442 274.589 616.186 275.655 616.289 278.574 C 613.443 283.797 543.604 313.915 533.254 318.442 C 530.007 319.403 435.674 277.113 428.911 272.79 C 427.556 270.344 427.903 268.382 428.015 265.618 C 429.736 261.977 501.556 231.14 511.385 226.202 z" fill="rgb(5,29,50)" transform="translate(0,0)"></path>
<path d="M 512.515 231.246 L 605.202 272.886 C 581.522 283.132 555.779 297.22 532.809 306.358 C 502.923 292.634 467.596 276.341 437.324 264.61 C 461.953 254.312 488.203 242.378 512.515 231.246 z" fill="rgb(253,253,253)" transform="translate(0,0)"></path>
<path d="M 431.64 267.153 C 440.528 269.412 527.538 307.821 532.097 313.094 C 532.004 313.09 529.204 312.935 528.634 312.683 C 496.938 298.662 464.593 284.933 433.386 269.934 C 432.648 268.759 432.066 267.832 431.64 267.153 z" fill="rgb(187,208,210)" transform="translate(0,0)"></path>
<path d="M 609.262 275.928 L 611.064 275.914 L 611.666 277.139 C 604.918 282.73 548.599 306.728 536.467 312.271 L 535.814 312.425 L 534.85 311.542 C 537.474 308.211 600.494 279.998 609.262 275.928 z" fill="rgb(187,208,210)" transform="translate(0,0)"></path>
<path d="M 762.898 116.081 C 785.297 127.203 812.12 136.988 834.883 147.897 C 842.907 151.742 856.847 156.871 863.862 161.514 C 864.84 163.802 864.958 167.032 864.003 169.381 C 862.301 173.571 791.6 204.5 782.231 208.691 L 780.496 209.079 L 715.112 180.633 C 707.519 177.3 688.368 169.37 682.501 165.001 C 681.494 162.409 680.621 158.421 681.668 155.704 C 683.078 152.043 753.402 120.876 762.898 116.081 z" fill="rgb(5,29,50)" transform="translate(0,0)"></path>
<path d="M 762.356 121.914 C 765.519 121.758 847.389 158.472 855.178 161.912 C 831.847 172.874 805.984 185.6 782.328 195.345 C 779.678 195.931 699.609 159.982 690.142 156.034 C 695.582 152.82 707.235 147.635 713.295 144.737 C 729.555 136.928 745.91 129.32 762.356 121.914 z" fill="rgb(253,253,253)" transform="translate(0,0)"></path>
<path d="M 685.749 160.068 C 696.087 161.646 755.847 190.678 769.938 195.775 C 773.676 197.127 778.538 199.062 780.021 202.94 C 770.894 200.774 688.08 164.414 685.749 160.068 z" fill="rgb(187,208,210)" transform="translate(0,0)"></path>
<path d="M 857.992 165.937 C 859.322 165.981 858.658 165.874 859.978 166.888 C 858.264 169.477 794.934 198.003 785.678 202.105 L 784.513 201.822 L 784.546 200.219 C 788.584 197.176 802.533 191.382 807.985 188.881 L 857.992 165.937 z" fill="rgb(187,208,210)" transform="translate(0,0)"></path>
<path d="M 638.144 171.302 C 645.081 173.173 736.658 213.983 738.024 216.701 C 739.32 219.278 738.988 222.633 738.064 225.246 C 731.917 230.017 667.504 258.254 655.685 263.609 L 590.918 235.249 C 583.32 231.938 560.829 222.719 555.54 218.854 C 553.804 215.977 554.59 212.118 554.877 208.61 C 579.211 198.926 614.315 182.646 638.144 171.302 z" fill="rgb(5,29,50)" transform="translate(0,0)"></path>
<path d="M 637.553 176.874 C 643.13 176.959 717.638 211.576 730.153 217.218 C 710.697 224.539 678.55 240.835 658.219 250.067 C 653.655 250.915 576.027 214.903 564.772 209.828 C 588.374 198.573 613.622 187.569 637.553 176.874 z" fill="rgb(253,253,253)" transform="translate(0,0)"></path>
<path d="M 558.607 213.046 C 558.844 213.08 559.995 213.196 560.171 213.271 C 590.86 226.31 621.372 240.012 651.697 253.89 C 652.976 254.476 654.049 256.01 654.625 257.044 C 653.769 257.078 651.778 257.021 650.463 256.445 C 620.382 243.263 589.713 230.36 560.202 215.984 C 559.537 214.759 559.005 213.78 558.607 213.046 z" fill="rgb(187,208,210)" transform="translate(0,0)"></path>
<path d="M 732.688 220.938 L 733.58 220.757 L 734.256 221.78 C 731.649 224.917 667.743 253.481 659.489 257.287 C 658.897 257.438 658.323 257.089 657.541 256.838 L 657.838 255.591 C 662.472 252.376 678.399 245.439 683.997 242.906 L 732.688 220.938 z" fill="rgb(187,208,210)" transform="translate(0,0)"></path>
<path d="M 887.627 61.9553 C 890.917 61.8752 985.19 104.488 988.354 107.862 C 988.782 111.285 989.19 112.954 988.257 116.29 C 983.57 119.744 970.218 125.343 964.195 128.129 C 945.463 136.885 926.621 145.402 907.672 153.678 C 896.74 151.735 867.426 135.551 854.758 131.001 C 840.514 125.886 824.412 116.684 810.298 110.73 C 805.581 108.74 805.568 103.221 806.591 98.625 C 810 95.9931 828.2 88.593 833.161 86.4206 C 851.448 78.5629 869.606 70.4068 887.627 61.9553 z" fill="rgb(5,29,50)" transform="translate(0,0)"></path>
<path d="M 888.184 66.9464 C 918.747 79.5379 950.005 94.1917 980.088 107.913 C 956.016 118.891 931.886 129.739 907.698 140.458 C 886.18 131.827 864.76 120.937 843.321 111.987 C 834.307 108.224 823.925 103.801 815.44 99.1387 C 839.506 89.3133 864.367 77.6906 888.184 66.9464 z" fill="rgb(253,253,253)" transform="translate(0,0)"></path>
<path d="M 810.124 103.068 C 813.142 103.774 815.366 104.708 818.174 105.996 C 846.992 119.216 876.367 131.33 904.97 144.994 C 904.97 144.994 906.178 147.39 906.295 147.622 C 904.037 147.58 900.139 146.011 898.004 145.066 C 869.166 132.306 839.949 120.096 811.725 106.028 C 811.725 106.028 810.265 103.328 810.124 103.068 z" fill="rgb(187,208,210)" transform="translate(0,0)"></path>
<path d="M 983.946 111.097 L 984.711 112.185 C 984.495 112.737 984.279 113.288 984.063 113.84 C 968.937 121.256 923.74 141.476 911.473 147.026 C 910.391 146.248 910.851 146.552 910.188 145.035 C 912.066 142.993 975.173 115.147 983.946 111.097 z" fill="rgb(187,208,210)" transform="translate(0,0)"></path>
<path d="M 269.929 327.377 C 315.588 347.376 361.949 366.752 407.402 387.336 C 424.486 395.073 443.554 402.867 460.111 411.229 L 460.136 849.85 C 425.326 835.812 389.833 820.071 355.397 805.019 C 327.267 792.723 297.84 780.495 270.053 767.647 L 269.929 327.377 z" fill="rgb(253,253,253)" transform="translate(0,0)"></path>
<path d="M 860.704 567.974 C 862.542 574.676 860.965 618.229 860.95 627.933 L 861.226 786.011 C 820.864 803.426 780.617 821.107 740.487 839.051 C 739.51 834.907 740.138 787.979 740.135 780.425 L 739.967 622.066 C 779.659 603.418 820.886 586.65 860.704 567.974 z" fill="rgb(253,253,253)" transform="translate(0,0)"></path>
<path d="M 1246.03 584.474 C 1284.5 609.248 1319.92 618.512 1361.47 594.35 C 1359.17 640.241 1352.63 688.823 1348.24 734.821 C 1344.84 765.484 1341.94 796.243 1337.81 826.816 C 1335.85 841.307 1317.82 838.141 1307.79 836.173 C 1305.1 786.507 1305.23 735.147 1301.17 685.699 C 1301.1 682.48 1300.86 679.267 1300.46 676.072 C 1299.38 667.872 1289.22 613.797 1281.32 615.38 C 1279.79 620.612 1293.01 650.874 1292.13 658.794 C 1286.53 708.896 1272.1 760.089 1263.5 810.196 C 1262.14 818.081 1241.6 815.415 1235.61 812.595 C 1229.91 803.585 1246.82 645.326 1244.92 626.008 C 1244.48 621.506 1245.73 589.969 1246.03 584.474 z" fill="rgb(77,168,170)" transform="translate(0,0)"></path>
<path d="M 1816.89 576.112 C 1817.53 577.211 1817.87 701.324 1817.97 710.907 C 1776.19 732.906 1718.55 756.675 1674.45 777.132 L 1673.25 777.345 C 1672.09 775.635 1672.19 655.395 1672.1 644.103 C 1720.05 620.715 1769 599.381 1816.89 576.112 z" fill="rgb(77,168,170)" transform="translate(0,0)"></path>
<path d="M 1261.92 417.82 C 1268.4 413.138 1271.39 412.68 1279.28 411.294 C 1311.88 450.06 1327.9 427.127 1338.69 435.059 C 1337.76 437.421 1328.95 440.905 1325.29 447.113 C 1308.87 474.908 1320.88 531.042 1347.93 548.924 C 1349.28 549.98 1351.67 551.433 1352.13 552.84 C 1358 556.069 1359.97 556.745 1366.27 558.747 C 1368.22 555.725 1367.21 556.341 1369.93 555.692 L 1372.91 557.575 C 1370.41 570.198 1369.22 582.647 1365.91 595.041 L 1364.47 595.283 C 1361.81 592.896 1368.69 584.747 1365.45 578.444 C 1322.04 603.154 1284.09 594.867 1245.13 566.064 C 1244.86 562.622 1244.56 559.182 1244.24 555.745 C 1243.72 559.105 1243.95 561.564 1242.04 563.793 C 1240.86 563.055 1240.58 563.101 1240.06 561.86 C 1236.17 564.365 1224.62 567.044 1219.94 567.975 C 1210.31 546.574 1207.03 512.792 1213.87 490.147 C 1219 473.207 1239.52 429.703 1254.74 421.314 C 1258.95 421.104 1254.99 421.256 1257.68 418.668 L 1257.64 419.501 C 1259.49 418.24 1259.79 417.804 1261.92 417.82 z" fill="rgb(250,201,91)" transform="translate(0,0)"></path>
<path d="M 1254.74 421.314 C 1258.95 421.104 1254.99 421.256 1257.68 418.668 L 1257.64 419.501 C 1259.49 418.24 1259.79 417.804 1261.92 417.82 C 1260.17 424.266 1253.42 432.886 1251.34 440.98 C 1244.19 468.849 1243.9 497.39 1244.12 525.939 C 1265.63 542.479 1301.24 559.335 1329.2 555.342 C 1332.85 554.822 1345.74 551.554 1347.93 548.924 C 1349.28 549.98 1351.67 551.433 1352.13 552.84 C 1358 556.069 1359.97 556.745 1366.27 558.747 C 1368.22 555.725 1367.21 556.341 1369.93 555.692 L 1372.91 557.575 C 1370.41 570.198 1369.22 582.647 1365.91 595.041 L 1364.47 595.283 C 1361.81 592.896 1368.69 584.747 1365.45 578.444 C 1322.04 603.154 1284.09 594.867 1245.13 566.064 C 1244.86 562.622 1244.56 559.182 1244.24 555.745 C 1243.72 559.105 1243.95 561.564 1242.04 563.793 C 1240.86 563.055 1240.58 563.101 1240.06 561.86 C 1236.17 564.365 1224.62 567.044 1219.94 567.975 C 1210.31 546.574 1207.03 512.792 1213.87 490.147 C 1219 473.207 1239.52 429.703 1254.74 421.314 z" fill="rgb(3,20,40)" transform="translate(0,0)"></path>
<path d="M 1219.94 567.975 C 1210.31 546.574 1207.03 512.792 1213.87 490.147 C 1219 473.207 1239.52 429.703 1254.74 421.314 C 1238.93 455.671 1239.77 485.594 1239.35 522.657 C 1239.22 533.98 1239.12 550.738 1240.06 561.86 C 1236.17 564.365 1224.62 567.044 1219.94 567.975 z" fill="rgb(253,253,253)" transform="translate(0,0)"></path>
<path d="M 1244.24 555.745 L 1244.96 553.692 C 1247.13 553.712 1254.86 559.323 1258.01 560.934 C 1300.3 582.566 1324.66 588.626 1366.33 564.232 L 1365.45 578.444 C 1322.04 603.154 1284.09 594.867 1245.13 566.064 C 1244.86 562.622 1244.56 559.182 1244.24 555.745 z" fill="rgb(253,253,253)" transform="translate(0,0)"></path>
<path d="M 1244.39 532.17 C 1256.05 540.3 1268.59 547.097 1281.76 552.435 C 1307.58 562.773 1326.72 563.708 1352.13 552.84 C 1358 556.069 1359.97 556.745 1366.27 558.747 C 1352.84 566.381 1342.87 571.504 1327.32 574.175 C 1300.51 578.78 1265.7 562.087 1244.68 546.587 C 1244.37 542.205 1244.45 536.651 1244.39 532.17 z" fill="rgb(253,253,253)" transform="translate(0,0)"></path>
<path d="M 683.674 390.838 C 740.305 365.217 803.564 335.861 860.916 312.199 L 861.017 563.255 C 848.982 557.895 832.453 548.669 820.944 541.941 L 820.92 514.556 C 830.85 509.893 841.517 505.107 851.206 500.08 C 851.183 458.862 849.947 411.028 851.5 370.312 C 812.438 389.965 769.359 406.114 730.725 426.293 C 730.749 460.034 730.066 494.157 730.294 527.76 C 730.697 552.474 730.701 577.193 730.307 601.908 C 730.264 605.425 730.905 612.974 729.359 615.513 C 727.711 614.967 727.661 615.012 726.175 613.952 C 723.468 608.318 722.204 605.343 720.191 599.382 L 720.249 425.815 C 708.749 414.841 695.345 401.184 683.674 390.838 z" fill="rgb(253,253,253)" transform="translate(0,0)"></path>
<path d="M 681.143 592.42 C 694.343 599.106 723.972 621.068 735.147 623.742 L 735.177 843.008 C 717.142 835.752 699.284 828.063 681.619 819.949 C 679.905 745.91 681.041 666.619 681.143 592.42 z" fill="rgb(253,253,253)" transform="translate(0,0)"></path>
<path d="M 681.054 394.839 C 692.445 405.036 704.159 416.69 715.245 427.346 C 715.293 439.502 715.111 452.419 715.825 464.498 C 717.157 452.61 715.654 440.108 717.078 428.842 C 717.797 448.285 716.984 467.73 718.008 487.099 C 719.79 520.813 719.13 554.478 717.917 588.188 C 717.801 591.583 718.845 596.27 720.191 599.382 C 722.204 605.343 723.468 608.318 726.175 613.952 L 725.334 614.313 C 722.828 613.019 721.003 612.25 718.966 610.236 L 719.492 610.275 L 718.742 609.577 C 710.734 605.719 689.458 591.747 681.116 586.508 L 681.054 394.839 z" fill="rgb(250,201,91)" transform="translate(0,0)"></path>
<path d="M 715.825 464.498 C 717.157 452.61 715.654 440.108 717.078 428.842 C 717.797 448.285 716.984 467.73 718.008 487.099 C 719.79 520.813 719.13 554.478 717.917 588.188 C 717.801 591.583 718.845 596.27 720.191 599.382 C 722.204 605.343 723.468 608.318 726.175 613.952 L 725.334 614.313 C 722.828 613.019 721.003 612.25 718.966 610.236 L 719.492 610.275 L 718.742 609.577 C 710.957 593.216 717.245 532.142 715.524 510.605 C 714.759 501.032 715.209 474.715 715.825 464.498 z" fill="rgb(3,20,40)" transform="translate(0,0)"></path>
<path d="M 833.131 391.071 L 833.564 391.464 C 835.118 395.101 834.018 449.564 833.958 457.405 C 809.308 470.261 768.368 488.028 742.429 499.028 C 740.339 497.072 741.325 440.616 741.345 433.169 C 771.77 418.768 802.368 404.734 833.131 391.071 z" fill="rgb(253,253,253)" transform="translate(0,0)"></path>
<path d="M 823.529 401.836 L 824.836 403.153 C 826.352 407.247 825.306 447.231 825.213 454.897 C 819.314 458.33 805.66 464.157 799.155 467.094 L 751.293 488.652 C 747.162 486.024 748.906 444.971 748.954 437.671 C 773.409 425.156 798.917 414.477 823.529 401.836 z" fill="rgb(5,29,50)" transform="translate(0,0)"></path>
<path d="M 820.116 408.385 C 821.505 409.901 820.694 446.685 820.653 451.736 C 800.568 462.008 775.221 472.938 754.416 482.535 C 752.332 479.301 753.17 446.383 753.209 440.555 L 820.116 408.385 z" fill="rgb(77,168,170)" transform="translate(0,0)"></path>
<path d="M 1340.17 441.024 C 1366.6 437.031 1371.88 498.61 1380.59 513.51 C 1390.28 530.103 1412.77 490.132 1427.44 524.077 C 1420.33 531.092 1414.39 534.944 1405.85 539.905 C 1403.05 541.463 1400.23 542.979 1397.38 544.451 C 1364.71 561.476 1349.37 552.559 1332.05 521.208 C 1322.35 502.234 1319.56 478.547 1325.45 458.006 C 1328.08 448.823 1332.13 444.984 1340.17 441.024 z" fill="rgb(253,253,253)" transform="translate(0,0)"></path>
<path d="M 838.798 381.392 C 840.363 380.695 844.08 378.81 845.555 378.828 C 846.787 385.15 846.363 409.973 846.357 417.952 C 846.334 444.292 846.616 470.955 846.332 497.281 C 811.206 514.739 771.155 531.631 735.093 548.329 L 735.052 513.478 C 746.485 508.475 839.824 467.199 840.801 464.087 C 842.273 459.398 840.045 447.54 839.999 442.198 C 839.832 422.769 840.325 403.334 839.913 383.908 L 838.798 381.392 z" fill="rgb(253,253,253)" transform="translate(0,0)"></path>
<path d="M 817.546 546.827 C 821.097 546.474 849.251 562.795 854.275 565.595 C 823.835 579.096 793.174 593.759 762.66 606.796 C 753.413 610.935 744.193 615.133 735 619.39 L 735.114 584.615 C 741.353 581.098 754.995 575.381 762.241 572.087 L 817.546 546.827 z" fill="rgb(253,253,253)" transform="translate(0,0)"></path>
<path d="M 1319.15 313.335 C 1340.99 314.435 1351.42 323.505 1362.45 340.983 C 1347.67 351.413 1329.71 358.482 1312.23 362.802 C 1297.02 366.376 1288.31 367.159 1272.94 365.606 C 1271.43 334.253 1288.6 316.492 1319.15 313.335 z" fill="rgb(250,201,91)" transform="translate(0,0)"></path>
<path d="M 1295.43 678.674 C 1297.34 684.962 1298.34 714.855 1298.66 722.764 C 1299.57 748.483 1300.62 774.197 1301.81 799.905 C 1292.86 799.941 1285.1 800.667 1276.24 801.463 C 1273.03 801.833 1273.18 802.386 1271 800.852 C 1270.4 791.647 1291.73 692.282 1295.43 678.674 z" fill="rgb(253,253,253)" transform="translate(0,0)"></path>
<path d="M 1365.72 344.79 C 1369.87 345.324 1375.34 347.568 1379.4 349.047 C 1348.74 364.977 1320.99 379.476 1285.88 380.592 C 1285.47 380.546 1285.07 380.497 1284.66 380.444 C 1279.67 379.786 1272.7 378.044 1273.86 371.78 C 1276.75 369.444 1282.54 371.151 1286.87 370.968 C 1315.63 369.755 1341.13 359.136 1365.72 344.79 z" fill="rgb(250,201,91)" transform="translate(0,0)"></path>
<path d="M 814.697 517.005 C 818.267 520.023 817.088 540.86 811.554 545.086 L 809.798 544.549 C 807.153 540.572 807.848 535.653 807.954 530.789 C 789.655 537.771 763.373 550.672 745.05 559.032 C 742.626 560.263 739.43 561.585 736.89 562.722 L 735.441 562.133 C 733.005 549.935 748.321 547.607 757.011 543.575 L 814.697 517.005 z" fill="rgb(253,253,253)" transform="translate(0,0)"></path>
<path d="M 1308.55 847.867 C 1310.23 843.567 1308.5 843.868 1311.8 841.38 C 1329.59 839.889 1321.43 848.691 1341.73 833.911 C 1345.59 833.48 1351.3 836.133 1354.34 838.521 C 1360.22 844.388 1371.21 834.784 1374.95 837.069 C 1374.34 853.324 1323.49 857.464 1310.35 850.572 C 1309.9 849.926 1308.83 848.498 1308.55 847.867 z" fill="rgb(253,253,253)" transform="translate(0,0)"></path>
<path d="M 1347.02 371.424 C 1347.67 371.602 1348.33 371.784 1348.98 371.97 C 1351.13 372.58 1356.21 373.77 1357.23 375.966 C 1361.63 385.373 1358 399.44 1348.87 404.767 C 1345.34 406.824 1341.25 404.923 1337.65 403.663 C 1331.11 398.482 1325.6 391.864 1328.21 382.997 C 1333.84 376.543 1337.72 380.111 1343.92 383.594 C 1344.81 379.231 1345.79 375.71 1347.02 371.424 z" fill="rgb(253,253,253)" transform="translate(0,0)"></path>
<path d="M 802.171 538.133 L 802.925 539.117 C 803.346 542.75 803.685 543.905 802.423 547.36 C 792.887 553.5 749.265 572.356 736.405 578.187 L 735.658 577.329 C 735.017 574.058 734.881 573.513 735.595 570.129 C 740.511 564.983 791.316 543.033 802.171 538.133 z" fill="rgb(77,168,170)" transform="translate(0,0)"></path>
<path d="M 1269.52 809.461 C 1277.95 814.958 1280.92 809.465 1288.61 813.348 C 1290.35 822.457 1262.41 829.522 1255.37 830.979 C 1249.91 831.144 1240.25 831.216 1236.57 826.873 C 1236.21 822.754 1235.7 823.69 1237.41 820.427 C 1245.74 816.268 1260.79 826.763 1269.52 809.461 z" fill="rgb(253,253,253)" transform="translate(0,0)"></path>
<path d="M 1245.03 572.511 C 1277.56 593.479 1308.76 605.729 1345.74 592.639 C 1349.33 591.369 1358.22 587.323 1361.42 587.393 L 1359.59 589.347 C 1349.03 595.915 1337.3 600.37 1325.05 602.467 C 1298.81 606.931 1268.97 595.373 1248.23 579.248 C 1245.31 576.974 1245.58 575.89 1245.03 572.511 z" fill="rgb(253,253,253)" transform="translate(0,0)"></path>
<path d="M 1288.43 407.842 C 1301.66 409.146 1319.27 412.387 1328.93 422.741 C 1330.23 424.142 1328.67 427.487 1328.16 429.244 C 1315.33 431.558 1284.27 424.957 1288.43 407.842 z" fill="rgb(253,253,253)" transform="translate(0,0)"></path>
<path d="M 1372.73 473.415 C 1373.24 473.599 1373.75 473.782 1374.27 473.966 C 1393.52 482.842 1413.33 490.886 1432.34 500.218 C 1432.72 501.1 1433.04 501.829 1433.29 502.406 C 1431.38 503.062 1427.88 504.357 1425.96 503.832 C 1409.24 499.245 1391.54 490.282 1375.77 483.234 L 1372.73 473.415 z" fill="rgb(250,201,91)" transform="translate(0,0)"></path>
<path d="M 681.377 825.654 C 690.149 828.564 725.617 843.801 733.682 848.029 C 735.415 850.937 734.794 852.222 734.869 856.132 C 729.076 854.799 689.405 837.348 682.948 833.586 C 680.987 830.406 681.609 829.902 681.377 825.654 z" fill="rgb(253,253,253)" transform="translate(0,0)"></path>
<path d="M 735.097 430.066 C 746.129 423.194 759.453 417.748 771.353 412.213 C 793.78 401.821 816.262 391.547 838.798 381.392 L 839.913 383.908 C 835.781 384.62 820.359 392.142 815.787 393.989 C 790.69 404.131 762.192 420.131 737.435 429.417 C 737.032 445.672 737.456 462.619 737.188 478.953 C 737.101 484.272 736.571 499.671 737.308 503.84 C 738.774 504.407 739.41 504.69 740.802 505.417 C 738.441 506.965 738.067 507.489 735.394 507.456 C 734.483 500.616 734.893 487.122 734.915 479.598 L 735.097 430.066 z" fill="rgb(141,161,167)" transform="translate(0,0)"></path>
<path d="M 1377.66 489.04 C 1381.39 490.418 1409.14 502.901 1409.84 504.62 L 1403.24 507.052 C 1397.22 509.461 1391.27 511.354 1385.11 513.369 C 1382.62 506.841 1379.74 496.017 1377.66 489.04 z" fill="rgb(253,253,253)" transform="translate(0,0)"></path>
<path d="M 1293.85 812.786 C 1295.9 814.417 1296.89 818.242 1296.43 820.8 C 1294.86 823.794 1292.64 826.307 1289.7 827.96 C 1273.55 837.02 1258.39 843.218 1240.09 839.424 C 1238.17 837.895 1237.99 837.286 1236.74 835.107 C 1237.99 832.732 1240.9 833.897 1244.01 834.245 C 1259.11 835.931 1290.89 831.092 1293.85 812.786 z" fill="rgb(253,253,253)" transform="translate(0,0)"></path>
<path d="M 1379.77 842.012 C 1380.16 860.206 1322.74 869.374 1311.06 859.907 C 1309.9 857.867 1309.84 857.79 1309.59 855.488 C 1330.32 862.048 1364.15 858.132 1379.77 842.012 z" fill="rgb(253,253,253)" transform="translate(0,0)"></path>
<path d="M 1323.59 395.533 C 1326 396.916 1327.95 403.85 1338.38 409.765 C 1336.56 412.31 1334.52 414.934 1332.63 417.454 C 1327.07 414.952 1320.87 411.698 1315.34 408.954 C 1320.12 403.087 1320.61 402.303 1323.59 395.533 z" fill="rgb(253,253,253)" transform="translate(0,0)"></path>
<path d="M 1239.29 568.193 L 1240.46 569.345 C 1241.21 575.546 1242.23 581.036 1237.1 585.358 C 1233.47 585.49 1234.75 585.708 1231.44 583.143 L 1222.54 572.171 C 1228.06 571.012 1233.79 569.526 1239.29 568.193 z" fill="rgb(253,226,178)" transform="translate(0,0)"></path>
<path d="M 779.019 486.959 L 779.865 487.848 C 777.778 490.076 768.692 493.718 765.38 495.206 L 764.588 494.638 C 765.399 493.268 776.921 487.982 779.019 486.959 z" fill="rgb(33,118,144)" transform="translate(0,0)"></path>
<path d="M 1236.06 593.855 L 1236.72 590.15 L 1237.3 590.004 L 1236.44 591.834 L 1238.97 589.859 L 1240.52 594.343 L 1238.66 595.781 L 1236.06 593.855 z" fill="rgb(3,20,40)" transform="translate(0,0)"></path>
<path d="M 1675.55 73.6792 C 1679.63 75.7891 1688.17 79.9501 1691.68 82.2987 C 1693.82 93.2828 1695.83 105.611 1698.12 116.368 C 1701.88 118.607 1710.87 124.577 1714.7 124.745 C 1718.75 123.423 1721.51 118.053 1729.08 114.347 C 1738 119.718 1744.44 123.935 1750.25 133.118 C 1747.65 138.103 1743.98 144.731 1741.77 149.714 C 1748.47 158.766 1755.01 167.94 1761.37 177.232 C 1768.71 176.885 1776.38 176.56 1783.47 174.458 C 1788.06 179.98 1795.22 189.207 1798.53 195.565 C 1790.64 204.339 1789.03 205.636 1777.05 207.482 L 1783.26 230.012 C 1791.34 234.243 1802.89 239.309 1810.26 243.482 L 1816.43 262.883 C 1813.39 265.134 1809.89 267.591 1807.09 270.065 C 1798.43 268.072 1791.33 266.131 1782.81 263.567 L 1778.79 274.629 C 1787.08 285.07 1794.57 295.936 1802.24 306.832 C 1796.35 312.406 1791.49 316.178 1784.6 320.557 C 1779.6 316.957 1757.79 297.027 1756.07 296.766 C 1754.85 297.638 1753.11 298.804 1751.99 299.735 C 1754.7 305.123 1759.03 324.072 1760.63 330.718 L 1747.61 336.359 L 1731.45 333.095 C 1727.97 323.89 1724.56 314.655 1721.23 305.391 L 1709.64 304.174 C 1708.67 310.294 1707.84 327.448 1703.07 330.519 C 1696.44 332.261 1688.82 327.114 1682.25 324.022 C 1680.99 313.979 1680.17 303.435 1679.25 293.322 L 1666.76 285.635 C 1658.74 294.264 1657.14 296.779 1646.17 300.818 C 1639.84 295.44 1633.62 289.932 1627.52 284.296 L 1625.46 286.179 C 1625.26 275.284 1624.45 254.932 1625.5 244.784 L 1624.74 243.928 C 1623.25 245.6 1623.88 248.37 1623.91 251.231 L 1622.99 251.725 L 1622.2 250.44 C 1623 247.275 1623.85 244.121 1624.73 240.978 C 1623.87 240.267 1615.8 239.571 1613.81 239.287 C 1611.05 239.313 1604.71 240.115 1601.69 240.401 L 1595.57 228.497 C 1602.65 224.967 1607.99 222.567 1615.34 219.645 C 1611.16 211.614 1607.33 203.41 1604.86 194.684 C 1596.85 191.43 1588.61 187.524 1580.79 183.821 C 1579.58 180.069 1578.62 174.483 1577.81 170.5 C 1585.29 172.025 1593.75 173.245 1601.35 174.507 L 1600.79 161.829 L 1599.2 161.279 L 1598.45 157.57 L 1597.08 158.784 L 1596.89 163.818 C 1586.82 156.153 1573.98 147.083 1564.88 138.734 C 1567.62 136.145 1570.58 133.209 1573.38 130.746 C 1581.54 136.495 1589.75 142.17 1598.02 147.77 C 1600.15 146.333 1600.87 143.415 1601.88 140.85 C 1595.76 134.975 1584 123.046 1577.68 118.32 C 1577.58 113.274 1577.3 107.229 1577.49 102.265 L 1590.37 94.4802 C 1596.49 98.8523 1615.59 115.889 1620.86 116.158 C 1623.11 110.757 1612.08 89.5614 1609.24 83.24 C 1615.61 79.8099 1617.49 78.4054 1623.07 73.7812 L 1636.53 78.6843 C 1640.65 86.1569 1644.93 94.2363 1649.3 101.506 C 1654.31 101.981 1659.68 102.346 1664.57 103.392 C 1663.74 96.3538 1662.98 89.3062 1662.31 82.2507 C 1666.46 79.5371 1671.34 76.1464 1675.55 73.6792 z" fill="rgb(253,253,253)" transform="translate(0,0)"></path>
<path d="M 1675.55 73.6792 C 1679.63 75.7891 1688.17 79.9501 1691.68 82.2987 C 1693.82 93.2828 1695.83 105.611 1698.12 116.368 C 1701.88 118.607 1710.87 124.577 1714.7 124.745 C 1718.75 123.423 1721.51 118.053 1729.08 114.347 C 1738 119.718 1744.44 123.935 1750.25 133.118 C 1747.65 138.103 1743.98 144.731 1741.77 149.714 C 1748.47 158.766 1755.01 167.94 1761.37 177.232 C 1768.71 176.885 1776.38 176.56 1783.47 174.458 C 1788.06 179.98 1795.22 189.207 1798.53 195.565 C 1790.64 204.339 1789.03 205.636 1777.05 207.482 L 1783.26 230.012 C 1791.34 234.243 1802.89 239.309 1810.26 243.482 L 1816.43 262.883 C 1813.39 265.134 1809.89 267.591 1807.09 270.065 C 1798.43 268.072 1791.33 266.131 1782.81 263.567 L 1778.79 274.629 C 1787.08 285.07 1794.57 295.936 1802.24 306.832 C 1796.35 312.406 1791.49 316.178 1784.6 320.557 C 1779.6 316.957 1757.79 297.027 1756.07 296.766 C 1754.85 297.638 1753.11 298.804 1751.99 299.735 L 1748.02 301.188 L 1741.41 304.256 C 1740.02 302.736 1739.83 302.779 1737.76 302.246 L 1737.41 300.982 C 1738.73 298.699 1750.49 293.489 1755.41 289.688 C 1761.11 295.315 1778.29 313.53 1784.86 313.982 L 1787.56 311.578 C 1787.13 306.024 1768.99 285.691 1763.8 279.258 C 1767.75 269.863 1768.57 266.226 1769.62 256.48 C 1781.43 258.516 1790.21 261.072 1801.35 265.352 L 1797.73 251.631 C 1789.91 247.232 1778.7 242.163 1770.43 238.119 C 1768.19 226.594 1764.68 216.414 1760.7 205.44 L 1785.66 201.795 C 1782.92 197.203 1777.99 191.12 1774.61 186.698 C 1771.84 187.246 1755.41 190.864 1753.79 189.005 C 1744.05 177.828 1737.56 164.782 1727.34 153.695 C 1729.8 147.712 1732.6 141.532 1735.2 135.578 C 1730.33 130.692 1727.51 128.515 1722.01 124.377 C 1719.84 130.279 1717.22 136.007 1714.68 141.761 C 1706.8 134.943 1694.76 127.175 1685.23 123.015 C 1683.53 113.077 1681.94 101.201 1680.77 91.221 L 1666.29 84.9582 C 1668.16 95.9797 1669.51 104.825 1670.63 115.989 C 1657.93 112.251 1652.57 111.439 1639.56 112.674 C 1635.09 103.514 1630.95 96.1339 1625.9 87.3605 C 1622.89 86.9911 1617.46 85.6158 1614.32 84.9209 C 1616.96 92.3737 1624.92 107.263 1628.72 115.265 C 1620.17 119.506 1617.52 120.416 1612.26 128.676 C 1601.93 121.009 1591.96 111.929 1581.26 103.922 L 1581.79 115.491 C 1589.65 123.463 1598.12 132.445 1606.6 139.624 C 1602.78 148.179 1602.18 152.757 1600.79 161.829 L 1599.2 161.279 L 1598.45 157.57 L 1597.08 158.784 L 1596.89 163.818 C 1586.82 156.153 1573.98 147.083 1564.88 138.734 C 1567.62 136.145 1570.58 133.209 1573.38 130.746 C 1581.54 136.495 1589.75 142.17 1598.02 147.77 C 1600.15 146.333 1600.87 143.415 1601.88 140.85 C 1595.76 134.975 1584 123.046 1577.68 118.32 C 1577.58 113.274 1577.3 107.229 1577.49 102.265 L 1590.37 94.4802 C 1596.49 98.8523 1615.59 115.889 1620.86 116.158 C 1623.11 110.757 1612.08 89.5614 1609.24 83.24 C 1615.61 79.8099 1617.49 78.4054 1623.07 73.7812 L 1636.53 78.6843 C 1640.65 86.1569 1644.93 94.2363 1649.3 101.506 C 1654.31 101.981 1659.68 102.346 1664.57 103.392 C 1663.74 96.3538 1662.98 89.3062 1662.31 82.2507 C 1666.46 79.5371 1671.34 76.1464 1675.55 73.6792 z" fill="rgb(3,20,40)" transform="translate(0,0)"></path>
<path d="M 1597.08 158.784 C 1592.66 155.912 1575.46 142.719 1572.51 139.087 L 1573.14 138.232 C 1580.37 139.714 1596.98 150.291 1598.45 157.57 L 1597.08 158.784 z" fill="rgb(33,118,144)" transform="translate(0,0)"></path>
<path d="M 1740.69 134.149 C 1735.42 129.917 1729.4 125.951 1725.86 120.441 L 1726.73 119.396 C 1734.2 121.426 1740.75 128.206 1744.97 134.394 C 1742.17 139.973 1739.28 145.505 1736.29 150.987 C 1744.49 160.92 1751.83 171.756 1759.18 182.341 C 1765.11 181.426 1772.37 181.164 1777.79 179.127 L 1777.13 182.443 C 1770.31 182.958 1762.56 184.536 1755.74 185.762 C 1748.95 175.545 1740.36 161.849 1731.77 153.512 C 1734.5 147.106 1737.26 140.143 1740.69 134.149 z" fill="rgb(33,118,144)" transform="translate(0,0)"></path>
<path d="M 1672.84 77.5511 C 1677.89 80.1104 1683.01 83.1008 1687.95 85.8827 C 1689.26 96.3324 1691.71 108.409 1693.58 118.894 C 1698.86 122.506 1712.54 127.95 1714.94 132.015 L 1713.61 135.38 C 1705.27 130.096 1696.87 124.906 1688.42 119.813 C 1687.05 108.875 1685 99.2164 1684.7 88.0195 C 1679.83 86.4161 1672.81 85.0066 1670.59 80.7357 L 1672.84 77.5511 z" fill="rgb(33,118,144)" transform="translate(0,0)"></path>
<path d="M 1773.66 260.788 C 1775.7 261.444 1776.15 261.673 1778.03 262.712 C 1779.06 266.656 1775.4 272.149 1773.36 276.067 C 1779.59 283.582 1793.1 300.336 1796.56 308.562 C 1790.04 308.203 1773.61 284.558 1768.21 278.361 C 1770.8 271.523 1772.02 267.892 1773.66 260.788 z" fill="rgb(33,118,144)" transform="translate(0,0)"></path>
<path d="M 1771.66 207.683 C 1775.22 210.388 1777.54 228.199 1778.2 233.1 C 1783.03 235.831 1800.01 241.726 1801.45 245.996 L 1799.39 247.066 C 1790.52 243.115 1782.45 239.59 1773.9 234.89 C 1772.52 227.415 1766.17 213.812 1767.53 209.276 L 1771.66 207.683 z" fill="rgb(33,118,144)" transform="translate(0,0)"></path>
<path d="M 1587.73 98.5855 C 1594.08 101.851 1603.74 111.583 1609.98 116.079 C 1610.84 116.694 1613.68 115.289 1615.61 117.546 L 1611.79 122.783 C 1607.71 121.848 1588.11 104.906 1585.88 101.288 L 1587.73 98.5855 z" fill="rgb(33,118,144)" transform="translate(0,0)"></path>
<path d="M 1646.32 108.751 C 1644.44 108.58 1643.94 108.294 1642.23 107.618 C 1638.33 103.103 1628.19 88.2672 1631.9 82.7924 C 1636.53 85.276 1642.23 100.05 1646.27 105.311 L 1646.32 108.751 z" fill="rgb(33,118,144)" transform="translate(0,0)"></path>
<path d="M 1777.79 179.127 C 1784.2 180.239 1792.06 191.388 1791.1 198.175 L 1789.82 198.56 C 1785.16 194.944 1780.55 187.536 1777.13 182.443 L 1777.79 179.127 z" fill="rgb(33,118,144)" transform="translate(0,0)"></path>
<path d="M 1804.31 247.547 C 1807.08 249.036 1808.97 254.584 1809.54 257.673 C 1810.34 261.951 1809.64 262.357 1807.37 265.626 L 1805.48 264.723 C 1805.21 263.984 1804.96 263.242 1804.7 262.498 C 1802.54 256.1 1801.46 253.289 1804.31 247.547 z" fill="rgb(33,118,144)" transform="translate(0,0)"></path>
<path d="M 1646.27 105.311 C 1654.65 104.952 1657.71 105.049 1665.33 108.488 L 1665.41 109.391 C 1657.7 110.343 1651.89 107.259 1646.32 108.751 L 1646.27 105.311 z" fill="rgb(33,118,144)" transform="translate(0,0)"></path>
<path d="M 1613.81 239.287 C 1617.01 238.865 1622.08 238.045 1625.14 237.942 C 1631.28 246.822 1636.21 253.022 1643.02 261.281 C 1639.52 268.323 1635.42 276.165 1632.56 283.395 C 1636.39 286.974 1640.74 291.264 1644.73 294.563 C 1648.74 286.883 1652.03 280.732 1656.64 273.427 C 1666.74 281.084 1671.64 284.835 1682.93 290.744 C 1683.77 300.775 1684.72 310.797 1685.78 320.808 C 1690.04 322.945 1694.54 325.295 1698.82 327.333 C 1699.38 318.023 1700.21 307.819 1699.98 298.571 C 1708.29 300.062 1714.88 301.165 1723.37 301.307 C 1726.89 310.256 1730.84 321.161 1734.68 329.808 L 1746.9 331.498 C 1743.96 322.477 1739.98 311.288 1737.76 302.246 C 1739.83 302.779 1740.02 302.736 1741.41 304.256 L 1748.02 301.188 L 1751.99 299.735 C 1754.7 305.123 1759.03 324.072 1760.63 330.718 L 1747.61 336.359 L 1731.45 333.095 C 1727.97 323.89 1724.56 314.655 1721.23 305.391 L 1709.64 304.174 C 1708.67 310.294 1707.84 327.448 1703.07 330.519 C 1696.44 332.261 1688.82 327.114 1682.25 324.022 C 1680.99 313.979 1680.17 303.435 1679.25 293.322 L 1666.76 285.635 C 1658.74 294.264 1657.14 296.779 1646.17 300.818 C 1639.84 295.44 1633.62 289.932 1627.52 284.296 L 1625.46 286.179 C 1625.26 275.284 1624.45 254.932 1625.5 244.784 L 1624.74 243.928 C 1623.25 245.6 1623.88 248.37 1623.91 251.231 L 1622.99 251.725 L 1622.2 250.44 C 1623 247.275 1623.85 244.121 1624.73 240.978 C 1623.87 240.267 1615.8 239.571 1613.81 239.287 z" fill="rgb(3,20,40)" transform="translate(0,0)"></path>
<path d="M 1625.46 286.179 C 1625.26 275.284 1624.45 254.932 1625.5 244.784 C 1629.8 250.997 1633.02 255.334 1637.86 261.125 C 1634.49 268.59 1630.59 276.78 1627.52 284.296 L 1625.46 286.179 z" fill="rgb(253,253,253)" transform="translate(0,0)"></path>
<path d="M 1748.02 301.188 C 1750.45 308.146 1754.46 320.331 1754.76 327.473 C 1753.38 329.725 1753.85 329.011 1750.98 330.271 C 1746.55 325.042 1744.75 311.674 1741.41 304.256 L 1748.02 301.188 z" fill="rgb(14,91,121)" transform="translate(0,0)"></path>
<path d="M 1657.52 279.412 C 1659.94 280.73 1660.78 280.912 1661.98 283.308 C 1661.34 287.466 1655.14 292.273 1651.76 295.449 L 1649.76 296.323 L 1648.85 295.678 C 1650.02 291.389 1655.04 283.592 1657.52 279.412 z" fill="rgb(14,91,121)" transform="translate(0,0)"></path>
<path d="M 1647.45 131.227 C 1719.51 121.837 1798.23 253.328 1723.21 283.024 C 1664.17 298.541 1581.63 185.92 1633.53 137.998 C 1636.6 135.165 1643.34 132.772 1647.45 131.227 z" fill="rgb(3,20,40)" transform="translate(0,0)"></path>
<path d="M 1669.84 181.268 C 1672.24 180.977 1676.95 180.328 1679.3 181.03 C 1695.59 185.891 1710.97 207.746 1706.94 224.891 C 1705.48 231.128 1701.6 234.372 1696.24 237.384 C 1674.72 239.885 1641.99 199.847 1669.84 181.268 z" fill="rgb(253,253,253)" transform="translate(0,0)"></path>
<path d="M 1715.96 230.92 C 1727.45 235.997 1737.76 241.018 1749 246.649 C 1746.94 255.363 1745.71 260.366 1738.71 265.663 C 1734.9 267.537 1730.08 269.321 1726.08 270.927 C 1720.12 260.023 1714.45 248.956 1709.1 237.74 L 1715.96 230.92 z" fill="rgb(253,253,253)" transform="translate(0,0)"></path>
<path d="M 1638.06 148.527 C 1645.95 159.347 1654.02 170.041 1662.25 180.605 C 1660.32 182.732 1658.05 185.928 1656.26 188.303 C 1647.92 187.845 1639.7 186.38 1631.54 184.67 C 1630.45 170.699 1629.5 160.412 1638.06 148.527 z" fill="rgb(253,253,253)" transform="translate(0,0)"></path>
<path d="M 1659.52 136.064 C 1667.27 135.529 1671.57 136.739 1678.84 138.704 C 1679.97 148.856 1680.84 159.038 1681.43 169.236 C 1678.85 170.072 1675.42 171.868 1672.88 173.102 C 1665 161.773 1657.05 151.487 1648.61 140.568 C 1652.41 138.693 1655.54 137.541 1659.52 136.064 z" fill="rgb(253,253,253)" transform="translate(0,0)"></path>
<path d="M 1694.25 147.62 C 1707.66 155.362 1718.1 167.325 1727.47 179.332 L 1721.49 183.596 L 1711.33 190.383 C 1707.01 183.553 1703.55 181 1697.29 176.29 C 1696.05 166.965 1695.2 157.02 1694.25 147.62 z" fill="rgb(253,253,253)" transform="translate(0,0)"></path>
<path d="M 1679.58 237.594 C 1685.89 240.656 1689.52 241.059 1696.25 241.975 C 1699.08 247.352 1710.49 267.098 1708.81 271.552 L 1705.77 271.005 C 1692.29 267.67 1681.51 260.543 1671.62 251.057 L 1679.58 237.594 z" fill="rgb(253,253,253)" transform="translate(0,0)"></path>
<path d="M 1736.94 194.885 C 1742.85 200.36 1747.75 222.812 1749.68 231.155 L 1736.55 225.024 L 1718.8 216.935 L 1715.68 207.507 C 1722.54 202.685 1729.62 198.927 1736.94 194.885 z" fill="rgb(253,253,253)" transform="translate(0,0)"></path>
<path d="M 1634.54 201.532 L 1655.04 203.286 C 1658.57 214.445 1660.59 218.094 1667.5 227.556 C 1667.36 227.908 1664.16 232.645 1663.72 233.312 C 1662.11 236.044 1661.8 236.704 1659.31 238.804 C 1653.09 236.965 1637.45 208.473 1634.54 201.532 z" fill="rgb(253,253,253)" transform="translate(0,0)"></path>
<path d="M 1658.45 249.023 C 1661.07 245.429 1668.29 234.356 1670.73 232.274 C 1673 233.058 1673.28 233.177 1674.92 234.93 C 1675.03 239.811 1668.01 248.815 1665.06 253.107 C 1678.98 265.044 1700.7 278.303 1719.68 276.681 C 1724.66 276.255 1726.52 275.063 1731.16 274.342 C 1729.37 277.092 1723.32 278.525 1720.16 279.235 C 1697.96 284.216 1669.48 267.587 1655.35 251.369 L 1658.45 249.023 z" fill="rgb(33,118,144)" transform="translate(0,0)"></path>
<path d="M 1687.15 179.424 C 1686.96 178.515 1686.79 177.599 1686.65 176.679 C 1685.72 170.347 1681.89 145.958 1684.89 141.968 C 1692.69 144.775 1691.89 169.641 1692.94 178.61 C 1701.14 184.185 1708.3 189.224 1707.28 199.749 L 1706.13 200.189 C 1699.55 189.849 1696.53 187.368 1687.15 179.424 z" fill="rgb(33,118,144)" transform="translate(0,0)"></path>
<path d="M 1623.84 197.771 L 1625.99 196.816 C 1629.33 201.053 1635.5 214.038 1638.86 219.85 C 1642.81 226.685 1657.14 244.362 1658.45 249.023 L 1655.35 251.369 C 1640.29 234.414 1630.52 219.39 1623.84 197.771 z" fill="rgb(33,118,144)" transform="translate(0,0)"></path>
<path d="M 1623.37 196.553 C 1618.06 170.885 1619.02 148.545 1645.38 135.558 C 1637.62 144.053 1630.64 146.588 1627.69 158.916 C 1625.86 166.568 1623.53 179.874 1626.51 187.783 C 1626.97 189.007 1631.26 189.579 1633.07 190.013 C 1628.56 190.109 1627.41 189.312 1624.52 191.536 L 1623.37 196.553 z" fill="rgb(33,118,144)" transform="translate(0,0)"></path>
<path d="M 1707.28 199.749 C 1714.73 194.405 1722.93 185.159 1730.7 184.706 C 1733.44 185.902 1734.24 188.042 1735.83 190.72 C 1725.45 195.775 1719.34 200.415 1710.09 205.483 L 1707.35 202.991 L 1706.13 200.189 L 1707.28 199.749 z" fill="rgb(33,118,144)" transform="translate(0,0)"></path>
<path d="M 1643.98 142.837 C 1647.49 145.02 1664.07 167.697 1667.42 172.355 C 1669.73 175.57 1669.45 175.415 1668.79 178.404 C 1663.35 177.174 1643.97 150.846 1642.25 145.551 L 1643.98 142.837 z" fill="rgb(33,118,144)" transform="translate(0,0)"></path>
<path d="M 1633.07 190.013 C 1638.15 190.845 1652.66 192.356 1655.22 195.647 L 1654.74 197.678 C 1646.97 199.571 1632.57 195.159 1625.99 196.816 L 1623.84 197.771 L 1623.37 196.553 L 1624.52 191.536 C 1627.41 189.312 1628.56 190.109 1633.07 190.013 z" fill="rgb(33,118,144)" transform="translate(0,0)"></path>
<path d="M 1714.28 220.141 C 1722.08 223.368 1744.32 233.267 1749.81 238.739 L 1750.26 240.002 C 1744.23 242.563 1721.72 226.886 1712.93 224.911 L 1714.28 220.141 z" fill="rgb(33,118,144)" transform="translate(0,0)"></path>
<path d="M 1699.32 239.661 C 1701.54 239.555 1701.67 239.608 1703.82 240.234 C 1709.76 246.244 1718.46 265.089 1720.48 273.485 C 1713.58 272.652 1702.85 246.659 1699.32 239.661 z" fill="rgb(33,118,144)" transform="translate(0,0)"></path>
<path d="M 1707.35 202.991 L 1710.09 205.483 C 1713.11 211.675 1714.14 213.208 1714.28 220.141 L 1712.93 224.911 L 1711.56 227.12 L 1711.15 226.46 C 1711.84 216.622 1710.09 212.432 1707.35 202.991 z" fill="rgb(14,91,121)" transform="translate(0,0)"></path>
<path d="M 1275.31 124.858 C 1278.97 125.159 1285.75 128.817 1289.37 130.539 C 1287.72 177.821 1291.24 230.328 1288.74 277.088 C 1280.2 282.139 1250.97 294.886 1240.98 299.57 L 1146.25 344.42 C 1141.4 346.264 1132.92 344.757 1132.84 338.161 C 1132.62 320.666 1132.78 303.169 1132.84 285.672 L 1132.92 191.524 C 1141.67 185.962 1170.55 173.426 1181.32 168.451 L 1275.31 124.858 z" fill="rgb(3,20,40)" transform="translate(0,0)"></path>
<path d="M 1283.33 137.106 C 1283.42 137.169 1283.53 137.212 1283.61 137.296 C 1285.45 139.259 1284.89 261.074 1284.78 274.179 C 1239.83 292.945 1193.57 318.249 1148.68 337.618 L 1147.52 336.633 C 1145.57 295.879 1147.27 241.38 1147.61 199.968 C 1157.28 196.678 1168.06 191.173 1177.44 186.813 C 1191.88 180.245 1206.27 173.546 1220.59 166.718 C 1239.85 157.558 1265.19 146.732 1283.33 137.106 z" fill="rgb(77,168,170)" transform="translate(0,0)"></path>
<path d="M 1266.83 154.902 C 1270.15 155.141 1268.91 154.667 1271.54 156.68 C 1272.99 161.928 1272.17 200.607 1272.13 209.14 L 1272.42 268.038 C 1240.34 284.982 1199.57 303.007 1166.31 318.054 C 1162.47 317.904 1163.76 318.424 1160.97 316.483 C 1159.62 312.718 1160.21 213.896 1160.19 204.533 C 1194.62 188.919 1233.25 171.593 1266.83 154.902 z" fill="rgb(3,20,40)" transform="translate(0,0)"></path>
<path d="M 1165.32 207.479 C 1196.37 192.122 1232.44 176.472 1264.3 161.8 C 1264.28 170.065 1264.19 177.971 1264.84 186.234 C 1263.8 210.12 1264.89 238.799 1264.71 263.119 C 1259.67 265.46 1253.98 267.948 1249.12 270.548 C 1244.79 271.825 1226.87 280.586 1221.87 282.942 L 1165.47 309.515 C 1165.15 275.504 1165.1 241.491 1165.32 207.479 z" fill="rgb(253,253,253)" transform="translate(0,0)"></path>
<path d="M 1223.52 195.208 C 1259.21 201.643 1214.82 245.422 1212.74 256.418 C 1214.48 256.778 1216.03 257.008 1217.8 257.263 L 1218.89 258.921 C 1219.4 265.03 1218.71 275.028 1209.79 271.755 C 1200.64 260.335 1216.48 241.34 1223.22 232.506 C 1248.25 194.36 1210.55 191.44 1197.33 221.846 C 1195.85 225.246 1194.37 232.105 1191.91 234.115 L 1190.74 232.863 C 1189.29 225.778 1192.71 220.462 1196.4 214.241 C 1202.82 203.401 1211.5 198.099 1223.52 195.208 z" fill="rgb(3,20,40)" transform="translate(0,0)"></path>
<path d="M 1275.34 129.865 C 1278.95 130.742 1277.83 130.001 1280.1 132.376 C 1277.82 136.463 1255.04 144.883 1249.31 147.638 C 1215.86 164.123 1182.08 179.925 1147.99 195.032 C 1145.64 195.572 1144.25 194.757 1143.1 192.927 C 1146.88 187.9 1259.9 136.959 1275.34 129.865 z" fill="rgb(77,168,170)" transform="translate(0,0)"></path>
<path d="M 1137.55 196.245 C 1138.79 196.893 1142.3 198.987 1142.32 199.699 C 1143 226.432 1143.46 317.978 1142.47 340.757 L 1139.3 339.42 C 1136.22 335.191 1137.51 304.151 1137.53 296.778 L 1137.55 196.245 z" fill="rgb(77,168,170)" transform="translate(0,0)"></path>
<metadata><recraft-signature>{"signed_by": "recraft", "signature_b64": "mFyHa1kYUUIlEtTFF8AjyIAxlQgr6AkMJIe+4+niyhe25KW/51djTZ3O6pTRXYgoEtjnvvzxOXLFtk90UhFNDw==", "signing_algo": "Ed25519", "generation_timestamp": 1777312770, "identifier": "72515d02-1e2c-4cb3-bddf-e0f3982e2d66"}</recraft-signature></metadata></svg>