<svg xmlns="http://www.w3.org/2000/svg" height="1024" preserveAspectRatio="none" style="display: block;" version="1.1" viewBox="0 0 2048 1024" width="2048">
<path d="M 0 0 L 2048 0 L 2048 1024 L 0 1024 L 0 0 z" fill="rgb(252,251,245)" transform="translate(0,0)"></path>
<path d="M 72.9517 65.7756 L 211.483 65.8703 C 235.27 65.8599 264.267 65.0591 287.656 66.0828 C 363.174 64.5272 443.144 65.9275 518.986 65.9611 L 943.18 65.9147 L 1975.24 66.0623 L 1975.4 653.616 L 1975.29 854.163 C 1975.25 886.279 1976.23 926.254 1974.95 957.978 L 1304.87 958.103 L 1092.54 958.093 C 1081.1 958.088 983.789 957.335 980.467 959.16 C 980.817 962.707 981.64 966.435 979.163 969.392 C 970.431 979.816 870.715 982.193 853.43 982.663 C 846.693 982.845 839.903 982.901 833.948 979.332 C 827.062 973.191 826.702 966.6 825.808 958.041 C 803.284 957.957 780.746 957.865 758.223 957.825 C 743.911 957.8 752.793 960.857 745.941 966.963 C 740.11 973.676 697.353 974.969 687.722 971.799 C 679.944 969.239 668.025 962.376 660.611 958.108 L 307.679 958.143 L 159.535 958.163 C 131.385 958.176 101.534 958.657 73.4945 957.955 C 72.6315 953.31 72.8793 938.858 72.8917 933.462 L 73.0057 887.789 L 72.9872 722.824 L 72.9517 65.7756 z" fill="rgb(252,251,245)" transform="translate(0,0)"></path>
<path d="M 287.656 66.0828 C 363.174 64.5272 443.144 65.9275 518.986 65.9611 L 943.18 65.9147 L 1975.24 66.0623 L 1975.4 653.616 L 1975.29 854.163 C 1975.25 886.279 1976.23 926.254 1974.95 957.978 L 1304.87 958.103 L 1092.54 958.093 C 1081.1 958.088 983.789 957.335 980.467 959.16 C 980.817 962.707 981.64 966.435 979.163 969.392 C 970.431 979.816 870.715 982.193 853.43 982.663 C 846.693 982.845 839.903 982.901 833.948 979.332 C 827.062 973.191 826.702 966.6 825.808 958.041 C 803.284 957.957 780.746 957.865 758.223 957.825 C 743.911 957.8 752.793 960.857 745.941 966.963 C 745.496 962.132 747.584 960.727 745.798 956.985 L 744.699 956.802 C 744.086 959.619 743.815 960.955 742.699 963.705 C 741.793 964.218 740.662 964.782 739.653 964.959 C 701.424 971.675 689.563 969.931 656.651 950.669 C 647.892 945.543 632.371 938.495 623.118 932.282 C 601.393 917.693 617.257 902.956 616.006 897.299 C 613.937 896.622 613.537 896.942 611.335 897.604 C 613.639 891.372 618.508 888.023 623.507 883.444 C 621.51 881.168 620.774 879.936 619.229 877.429 C 617.034 864.295 633.338 853.461 637.382 845.46 C 648.384 823.693 657.46 800.785 668.614 778.965 C 676.929 762.697 673.623 743.121 674.97 725.449 C 676.994 674.51 675.293 626.684 697.721 579.347 C 696.157 571.095 691.594 559.145 698.863 553.822 C 703.242 552.604 709.67 554.404 714.35 555.311 C 723.542 529.416 732.268 506.207 746.564 482.407 C 760.57 459.091 778.849 427.848 803.547 415.006 C 808.955 412.195 817.471 410.033 823.396 408.414 C 828.296 402.799 833.367 397.334 838.602 392.029 C 843.099 394.278 843.759 395.343 848.227 392.883 C 853.614 385.437 847.56 363.284 844.2 354.972 C 835.898 334.432 842.509 324.408 865.031 322.257 C 871.146 311.894 876.866 301.221 887.569 295.078 C 899.897 288.003 916.417 286.483 930.087 290.214 C 944.129 294.186 956.013 303.585 963.113 316.334 C 971.899 332.12 970.924 345.247 966.315 361.665 C 973.934 365.448 995.894 374.048 997.699 381.854 C 992.717 394.735 970.118 379.419 959.165 376.274 C 956.709 381.54 953.251 387.663 950.398 392.755 C 951.113 396.735 952.846 404.088 952.12 407.742 C 949.416 408.726 947.198 408.805 944.798 409.965 C 938.462 413.027 935.544 417.58 928.968 420.23 C 916.412 432.26 914.109 431.092 899.163 423.997 C 897.69 424.22 897.398 424.393 896.024 424.875 C 906.135 428.852 898.957 430.696 904.074 435.966 C 918.556 450.881 922.688 465.613 930.533 484.588 C 937.821 502.12 945.368 519.543 953.171 536.852 C 974.868 538.54 996.226 545.288 1018.03 546.2 C 1028.75 546.649 1030.35 545.23 1035.57 554.906 L 1056.21 551.893 C 1056.01 548.29 1055.33 539.774 1056.04 536.525 C 1057.83 528.296 1062.7 533.12 1063.88 523.275 C 1065.05 514.82 1061.31 504.634 1066.34 497.105 C 1068.34 493.366 1075.58 492.797 1078.26 495.914 C 1084.13 502.739 1082.01 520.379 1081.94 529.002 L 1100.13 528.99 C 1100.34 523.039 1101.59 514.299 1096.52 510.202 C 1094.16 508.292 1093.05 508.959 1090.73 505.889 C 1087.26 487.717 1118.93 487.955 1124.97 500.864 C 1125.01 510.33 1111.9 510.725 1104.9 511.209 L 1104.9 528.679 C 1108.69 528.667 1114.61 528.074 1117.42 530.273 C 1121.32 536.896 1119.75 563.589 1119.69 573.211 C 1138.6 554.223 1155.49 533.28 1173.74 513.644 C 1187.7 498.618 1206.98 501.503 1225.42 501.466 C 1242.27 501.432 1259.13 501.664 1275.97 501.785 L 1275.94 438.746 L 1225.02 439.04 C 1215.59 439.089 1205.52 439.828 1196.17 438.483 C 1192.08 437.896 1187.74 436.835 1184.57 434.031 C 1181.71 431.5 1179.7 427.584 1179.54 423.749 C 1179.21 415.596 1228.33 322.091 1237.2 312.611 C 1240.73 308.85 1243.72 307.401 1248.73 306.277 C 1263.07 303.063 1302.54 305.713 1320.07 305.351 C 1325.89 305.23 1332.91 305.065 1337.34 309.527 C 1345.05 317.294 1338.86 329.81 1334.83 337.802 C 1326.75 353.688 1318.57 369.521 1310.29 385.302 C 1307.76 390.154 1296.54 410.985 1296.2 414.635 C 1293.82 440.379 1294.98 475.786 1294.99 501.63 L 1343.83 501.344 C 1392.99 501.068 1394.35 505.356 1394.21 553.428 L 1394.07 606.919 L 1411.81 606.788 C 1413.23 648.531 1411.88 699.531 1411.92 742.063 L 1509.65 741.977 C 1515.12 741.97 1520.9 741.982 1526.36 741.962 C 1559.05 741.847 1573.11 738.387 1591.3 770.154 C 1605.31 758.973 1619.49 742.076 1638.53 742.206 C 1687.94 742.521 1737.74 740.808 1787.06 743.03 C 1795.76 744.08 1812.38 753.885 1816.51 761.603 C 1841.32 807.866 1865.36 854.905 1889.41 901.54 C 1899.06 920.262 1883.92 939.852 1871.61 953.11 L 1970.13 953.219 L 1970.18 70.9809 L 78.4379 70.8919 C 78.4664 85.2166 78.6903 100.132 78.0985 114.388 C 74.7373 116.698 77.9363 127.325 75.5926 131.886 C 73.7155 121.52 75.4682 82.8594 75.6924 70.5867 C 75.7496 67.4561 78.3153 67.1356 81.2157 67.1749 C 97.8865 67.4006 115.053 67.4422 131.685 67.4638 L 246.662 67.5716 C 252.575 67.5744 284.43 68.5197 287.656 66.0828 z" fill="rgb(9,27,54)" transform="translate(0,0)"></path>
<path d="M 832.179 931.805 C 861.542 932.1 882.382 928.278 910.774 923.323 C 907.1 925.728 900.812 929.174 900.6 933.98 C 905.774 934.543 910.953 928.739 915.348 928.887 C 913.039 931.445 912.101 932.575 910.19 935.459 L 910.761 937.026 L 913.527 937.609 C 919.103 936.681 918.002 930.799 925.549 930.555 C 926.721 928.569 926.807 928.538 928.808 927.304 C 950.938 932.496 972.608 925.493 978.519 952.694 C 979.574 954.997 979.484 955.435 979.299 957.983 L 980.467 959.16 C 980.817 962.707 981.64 966.435 979.163 969.392 C 970.431 979.816 870.715 982.193 853.43 982.663 C 846.693 982.845 839.903 982.901 833.948 979.332 L 834.729 977.517 C 829.824 972.246 826.419 965.494 828.924 958.214 C 828.53 958.013 827.528 956.854 827.154 956.453 C 827.219 953.219 826.8 954.31 828.391 951.933 C 828.972 954.042 829.344 954.84 830.259 956.84 C 832.389 951.768 828.381 952.113 830.818 946.027 C 831.635 943.057 831.947 935.235 832.179 931.805 z" fill="rgb(252,251,245)" transform="translate(0,0)"></path>
<path d="M 928.808 927.304 C 950.938 932.496 972.608 925.493 978.519 952.694 C 979.574 954.997 979.484 955.435 979.299 957.983 L 980.467 959.16 C 980.817 962.707 981.64 966.435 979.163 969.392 C 970.431 979.816 870.715 982.193 853.43 982.663 C 846.693 982.845 839.903 982.901 833.948 979.332 L 834.729 977.517 C 829.824 972.246 826.419 965.494 828.924 958.214 C 828.53 958.013 827.528 956.854 827.154 956.453 C 827.219 953.219 826.8 954.31 828.391 951.933 C 828.972 954.042 829.344 954.84 830.259 956.84 C 832.389 951.768 828.381 952.113 830.818 946.027 C 832.902 952.287 832.588 958.73 838.905 962.664 C 848.591 968.696 920.54 963.018 936.378 961.01 C 949.072 959.4 961.521 956.969 973.991 954.127 C 971.769 945.1 969.709 941.359 962.078 936.373 C 955.25 935.359 948.949 935.197 942.068 934.911 C 940.529 938.303 938.874 943.165 934.959 943.995 C 933.848 941.423 935.768 936.721 933.572 932.744 C 927.67 932.755 930.258 937.536 924.021 940.475 C 921.521 939.672 922.32 940.328 921.04 938.01 C 921.123 935.063 923.504 932.993 925.549 930.555 C 926.721 928.569 926.807 928.538 928.808 927.304 z" fill="rgb(12,36,70)" transform="translate(0,0)"></path>
<path d="M 928.808 927.304 C 950.938 932.496 972.608 925.493 978.519 952.694 C 979.574 954.997 979.484 955.435 979.299 957.983 L 980.467 959.16 C 980.817 962.707 981.64 966.435 979.163 969.392 C 970.431 979.816 870.715 982.193 853.43 982.663 C 846.693 982.845 839.903 982.901 833.948 979.332 L 834.729 977.517 C 837.719 979.439 838.702 979.9 842.2 980.29 C 858.486 982.105 872.078 978.497 887.499 977.402 C 905.901 976.095 925.152 976.747 943.71 973.921 C 951.614 972.717 971.625 971.052 976.891 964.329 C 977.422 963.652 976.981 962.308 976.83 961.187 C 970.265 955.556 959.538 962.21 948.595 963.521 C 920.743 966.795 892.705 968.217 864.666 967.777 C 858.348 967.684 851.842 967.883 845.591 967.115 C 837.978 966.181 835.82 959.575 828.924 958.214 C 828.53 958.013 827.528 956.854 827.154 956.453 C 827.219 953.219 826.8 954.31 828.391 951.933 C 828.972 954.042 829.344 954.84 830.259 956.84 C 832.389 951.768 828.381 952.113 830.818 946.027 C 832.902 952.287 832.588 958.73 838.905 962.664 C 848.591 968.696 920.54 963.018 936.378 961.01 C 949.072 959.4 961.521 956.969 973.991 954.127 C 971.769 945.1 969.709 941.359 962.078 936.373 C 955.25 935.359 948.949 935.197 942.068 934.911 C 940.529 938.303 938.874 943.165 934.959 943.995 C 933.848 941.423 935.768 936.721 933.572 932.744 C 927.67 932.755 930.258 937.536 924.021 940.475 C 921.521 939.672 922.32 940.328 921.04 938.01 C 921.123 935.063 923.504 932.993 925.549 930.555 C 926.721 928.569 926.807 928.538 928.808 927.304 z" fill="rgb(9,27,54)" transform="translate(0,0)"></path>
<path d="M 906.364 920.961 C 936.884 919.684 972.12 920.901 1003.08 920.751 L 1002.94 952.929 C 997.446 952.924 983.326 953.267 978.519 952.694 C 972.608 925.493 950.938 932.496 928.808 927.304 C 921.545 925.32 913.453 923.288 906.364 920.961 z" fill="rgb(252,251,245)" transform="translate(0,0)"></path>
<path d="M 1175.61 637.881 L 1406.92 637.875 L 1406.56 952.563 C 1401.73 954.039 1355.35 953.152 1347.85 953.153 L 1175.66 953.164 L 1175.61 637.881 z" fill="rgb(252,251,245)" transform="translate(0,0)"></path>
<path d="M 879.37 559.972 C 880.665 559.976 880.395 560.154 881.824 560.951 C 883.48 573.523 870.241 609.859 863.573 621.797 C 859.492 629.103 852.416 638.054 846.983 644.678 C 853.226 658.888 857.357 675.697 862.774 690.336 C 887.351 756.745 893.227 820.175 899.102 890.396 C 876.521 896.532 850.061 897.999 826.68 898.073 C 820.823 833.409 808.543 769.689 776.066 712.935 C 769.78 701.95 763.177 688.462 755.729 678.413 C 745.91 677.832 728.663 671.018 724.341 672.636 L 723.927 674.63 C 728.055 679.562 747.46 682.123 753.907 683.149 L 764.297 701.763 C 762.751 725.515 755.854 774.714 748.843 796.639 C 746.133 805.115 727.551 838.433 722.898 846.91 C 717.133 857.479 709.85 869.23 703.678 879.72 C 678.928 875.484 659.269 869.004 639.034 854.061 C 643.436 845.209 676.828 773.376 677.236 769.388 C 683.901 704.277 673.6 644.913 701.409 582.54 C 711.396 581.915 721.995 579.456 731.812 577.333 C 724.217 586.846 700.809 616.196 700.376 629.016 C 700.329 630.436 701.438 630.83 702.636 631.71 C 706.715 632.072 711.187 629.455 715.029 627.676 C 722.137 634.957 726.663 638.379 735.544 643.23 C 738.538 635.987 743.951 616.943 746.762 608.393 C 746.834 619.043 746.14 629.846 746.363 640.459 C 746.43 643.653 747.607 644.227 750.132 644.939 C 755.984 643.025 765.349 634.599 770.114 630.334 C 769.287 614.692 767.031 605.053 762.987 590.188 C 770.984 595.887 778.169 600.827 787.116 604.927 C 791.82 599.989 803.552 585.66 801 578.591 C 795.811 572.98 771.96 572.143 758.857 566.423 C 801.771 570.847 840.087 581.373 879.37 559.972 z" fill="rgb(112,158,169)" transform="translate(0,0)"></path>
<path d="M 1631.89 747.194 C 1660.24 745.68 1689.48 746.997 1717.92 746.977 C 1739.02 746.962 1765.87 744.846 1786.06 748.064 C 1792.95 749.163 1798.52 751.83 1804.06 756.009 C 1807.85 758.864 1810.67 761.751 1813.14 765.803 C 1820.24 777.42 1887.16 904.805 1887.76 911.801 C 1888.16 916.484 1886.16 922.435 1882.87 925.815 C 1874.21 934.736 1833.83 931.094 1821.5 930.998 L 1713.02 931.008 C 1703.33 936.794 1692.97 941.354 1682.9 946.435 C 1677.91 948.951 1673.32 953.747 1667.58 952.686 C 1667.85 948.943 1691.96 928.403 1696.24 924.512 C 1681.38 895.207 1666.31 866.009 1651.04 836.921 C 1644.77 825.079 1618.05 776.515 1615.79 766.943 C 1618.6 755.869 1621.43 751.701 1631.89 747.194 z" fill="rgb(252,251,245)" transform="translate(0,0)"></path>
<path d="M 1637.07 758.972 C 1644.23 758.457 1653.34 758.54 1660.59 758.756 C 1702.99 760.016 1747.52 756.882 1789.7 759.066 C 1802.34 766.707 1804.86 774.924 1811.42 787.584 C 1831.29 825.9 1852.19 863.748 1871.46 902.352 C 1875.71 910.856 1872.24 914.139 1865.41 918.656 C 1860.25 919.627 1843.94 919.228 1838.04 919.205 L 1786.17 919.021 C 1765.34 918.991 1744.22 919.954 1723.48 918.832 C 1702.93 917.72 1693.74 894.273 1685.6 878.524 L 1663.66 835.889 C 1653.63 816.499 1642.56 797.061 1632.94 777.433 C 1628.39 768.16 1628.58 764.908 1637.07 758.972 z" fill="rgb(9,27,54)" transform="translate(0,0)"></path>
<path d="M 1636.71 763.921 C 1646.12 762.821 1676.72 763.478 1687.07 763.488 L 1788.77 763.875 C 1791.86 765.997 1795.57 769.116 1798.05 773.712 C 1821.82 817.799 1845.72 862.644 1868.32 907.287 C 1868.95 908.537 1866.39 911.633 1865.47 912.989 C 1857.17 915.767 1822.34 914.185 1811.42 914.378 C 1785.01 914.192 1757.71 914.771 1731.38 914.213 C 1716.51 913.898 1709.46 911.132 1702.04 898.188 C 1690.64 878.293 1680.38 856.941 1669.68 836.754 C 1658.1 814.929 1647.04 793.535 1635.77 771.638 C 1634.28 768.742 1635.62 766.911 1636.71 763.921 z" fill="rgb(249,198,93)" transform="translate(0,0)"></path>
<path d="M 1412.14 763.29 C 1433.79 763.307 1549.72 760.707 1561.38 764.717 C 1567.37 770.052 1571.46 778.129 1575.12 785.193 C 1595.77 825.042 1617.28 864.528 1636.86 904.911 C 1638.18 907.635 1636.59 910.692 1635.47 913.22 C 1626.68 916.058 1553.7 914.254 1540.2 914.212 L 1447.12 914.456 C 1430.4 914.379 1428.65 912.395 1419.95 898.504 C 1408.73 880.576 1411.82 863.48 1411.87 842.795 L 1412.14 763.29 z" fill="rgb(249,198,93)" transform="translate(0,0)"></path>
<path d="M 879.668 430.727 C 893.43 431.414 910.693 446.49 914.342 458.509 C 918.943 473.665 951.445 536.531 949.901 547.366 L 951.605 548.908 C 957.719 547.915 950.541 539.77 968.413 543.319 C 982.765 546.169 997.938 548.369 1012.44 551.533 C 1015.14 563.063 1014.85 568.694 1013.21 580.278 C 1009.07 583.773 1008.29 586.189 1006.1 591.049 C 1001.83 593.02 990.53 592.869 984.973 592.634 C 962.871 591.701 934.02 593.998 913.83 584.198 C 908.325 581.526 897.993 570.472 893.42 565.794 C 885.962 557.89 853.199 522.819 846.007 520.919 C 842.962 522.011 844.046 521.238 842.019 524.131 C 843.972 527.552 846.403 525.009 850.58 529.13 C 859.417 537.847 868.053 546.641 876.581 555.654 C 852.497 569.926 831.17 569.003 804.556 566.615 C 818.064 518.285 834.235 458.224 879.668 430.727 z" fill="rgb(252,251,245)" transform="translate(0,0)"></path>
<path d="M 1109.91 594.02 C 1111.74 585.588 1168.12 529.882 1176.45 518.056 C 1181.52 510.862 1194.53 506.23 1203.97 506.223 C 1258.07 506.187 1312.38 506.339 1366.5 506.412 C 1372.61 506.419 1379.94 507.504 1382.57 513.466 C 1376.52 521.238 1316.13 582.37 1309.02 586.996 C 1293.1 588.144 1271.78 587.557 1255.35 587.554 L 1166.64 587.393 C 1161.43 587.357 1125.79 586.646 1122.65 587.62 L 1122.21 590.919 L 1121.21 593.181 C 1116.69 593.846 1113.44 593.552 1109.91 594.02 z" fill="rgb(252,251,245)" transform="translate(0,0)"></path>
<path d="M 1201.59 511.067 L 1299.14 511.161 C 1310.74 511.158 1351.63 510.151 1360.78 512.844 C 1362.87 519.183 1346.09 531.539 1341.17 534.742 L 1340.44 534.866 C 1336.72 535.483 1332.52 534.846 1330.47 536.206 L 1330.94 537.953 C 1327.14 536.04 1287.38 536.964 1280.25 537.001 C 1280.68 535.412 1280.75 534.085 1280.91 532.46 C 1281.72 531.693 1283.84 529.811 1284.9 529.736 C 1302.33 528.498 1324.25 529.952 1341.47 529.754 C 1346.41 525.397 1351.92 520.742 1356.44 516.036 L 1202.84 515.867 L 1184.31 537.181 C 1188.33 537.33 1193.73 538.189 1196.65 535.813 C 1201.43 527.702 1200.61 527.473 1208.14 521.133 L 1251.45 521.156 C 1246.47 526.339 1241.53 531.557 1236.63 536.811 L 1237.24 538.01 C 1245.43 537.346 1256 521.169 1263.39 520.877 L 1263.48 522.562 C 1257.37 529.225 1251.08 535.724 1244.62 542.054 C 1232.87 541.75 1186.01 542.742 1178.42 539.953 C 1178.29 534.839 1196.84 515.462 1201.59 511.067 z" fill="rgb(12,36,70)" transform="translate(0,0)"></path>
<path d="M 1280.25 537.001 C 1280.68 535.412 1280.75 534.085 1280.91 532.46 C 1288.46 536.678 1329.61 532.295 1341.17 534.742 L 1340.44 534.866 C 1336.72 535.483 1332.52 534.846 1330.47 536.206 L 1330.94 537.953 C 1327.14 536.04 1287.38 536.964 1280.25 537.001 z" fill="rgb(252,251,245)" transform="translate(0,0)"></path>
<path d="M 1254.71 547.2 C 1267.45 547.327 1314.92 546.228 1324.04 548.857 L 1324.71 550.131 C 1322.29 556.323 1304.75 571.981 1299 576.562 C 1291.11 577.781 1235.26 578.069 1230.6 573.812 C 1231.61 568.136 1249.82 551.729 1254.71 547.2 z" fill="rgb(9,27,54)" transform="translate(0,0)"></path>
<path d="M 1256.32 552.052 L 1318.38 551.948 C 1311.6 558.708 1304.72 565.36 1297.73 571.9 C 1288.85 573.016 1247.95 572.124 1236.44 572.071 C 1242.89 565.226 1249.52 558.55 1256.32 552.052 z" fill="rgb(252,251,245)" transform="translate(0,0)"></path>
<path d="M 1166.83 547.762 C 1187.02 547.855 1207.4 547.606 1227.59 547.85 C 1231.63 547.898 1232.79 548.261 1235.08 550.756 C 1234.36 555.389 1216.63 571.731 1212.32 575.994 C 1203.64 577.527 1148.24 578.347 1143.65 573.177 C 1145.38 567.969 1162.09 552.453 1166.83 547.762 z" fill="rgb(9,27,54)" transform="translate(0,0)"></path>
<path d="M 1168.86 552.147 C 1188.9 552.043 1208.94 552.065 1228.98 552.212 C 1223.28 558.941 1216 565.732 1209.62 571.955 L 1149.5 571.824 C 1156.1 565.411 1162.55 558.85 1168.86 552.147 z" fill="rgb(252,251,245)" transform="translate(0,0)"></path>
<path d="M 1282.04 521.054 C 1289.5 521.248 1338.29 521.37 1340.76 522.857 L 1339.07 525.464 C 1334.65 526.955 1289.67 526.148 1281.75 526.092 C 1279 528.59 1273.77 532.536 1273.03 535.774 C 1275.66 537.715 1276.21 537.002 1280.25 537.001 C 1287.38 536.964 1327.14 536.04 1330.94 537.953 C 1330.54 539.284 1329.66 540.802 1328.12 540.795 C 1318.79 540.752 1269.07 543.213 1264.26 539.515 C 1264.82 533.932 1277.4 524.098 1282.04 521.054 z" fill="rgb(9,27,54)" transform="translate(0,0)"></path>
<path d="M 1249.93 310.198 C 1265.37 310.417 1280.81 310.469 1296.26 310.353 C 1306.78 310.258 1317.05 309.879 1327.55 310.754 C 1334.77 311.354 1338.35 318.087 1335.37 324.209 C 1318.48 358.971 1301.09 394.011 1282.53 427.897 C 1281.25 430.227 1276.2 432.581 1273.84 433.729 C 1250.86 434.601 1227.3 433.888 1204.29 434.029 C 1178.9 434.184 1182.44 422.415 1191.61 405.752 C 1207.43 377.019 1221.16 346.825 1237.87 318.639 C 1239.97 315.106 1246.41 311.884 1249.93 310.198 z" fill="rgb(252,251,245)" transform="translate(0,0)"></path>
<path d="M 1255.05 316.214 C 1265.59 315.631 1318.31 314.757 1326.19 317.672 C 1335.47 325.571 1320.72 346.127 1316.06 355.24 L 1292.26 402.181 C 1286.11 414.228 1282.7 425.053 1269.94 429.192 C 1250.19 428.821 1217.83 430.609 1197.74 427.428 C 1192.17 426.547 1192.28 416.276 1195.03 410.976 C 1209.29 383.475 1222.98 354.972 1238.44 328.161 C 1241.6 322.689 1249.39 318.453 1255.05 316.214 z" fill="rgb(9,27,54)" transform="translate(0,0)"></path>
<path d="M 1254.89 321.286 C 1270.19 320.145 1305.91 320.446 1322.65 321.496 C 1324.12 321.588 1324.64 323.529 1325.16 324.799 C 1323.35 333.568 1279.87 416.317 1274.04 422.762 C 1267.87 425.95 1207.1 424.616 1197.92 422.046 L 1197.3 420.856 C 1198.28 412.295 1215.97 381.082 1220.96 371.67 C 1223.23 370.392 1283.67 370.548 1288.59 371.583 C 1289.08 373.631 1288.81 373.166 1287.7 375.603 C 1283.5 379.142 1276.18 379.782 1271.05 377.048 C 1271.26 377.157 1270.41 374.974 1268.93 373.78 L 1267.12 374.629 C 1262.55 380.421 1256.72 395.797 1253.86 403.062 C 1253.2 404.723 1254.18 405.507 1255.1 406.738 C 1260.35 409.059 1270.88 408.017 1277.06 407.869 C 1280.58 401.064 1293.07 375.407 1293.84 368.858 L 1292.82 367.686 C 1283.63 364.598 1236.16 365.944 1223.73 366.008 C 1233.32 348.553 1236.92 330.336 1254.89 321.286 z" fill="rgb(252,251,245)" transform="translate(0,0)"></path>
<path d="M 1259.33 330.225 C 1270.44 330.359 1301.95 327.304 1308.5 333.33 C 1311.27 340.33 1302.62 352.323 1297.43 356.65 C 1285.52 356.888 1273.58 357.063 1261.68 357.195 C 1238.34 357.452 1249.2 339.35 1259.33 330.225 z" fill="rgb(9,27,54)" transform="translate(0,0)"></path>
<path d="M 1260.62 335.335 L 1305.18 335.173 C 1302.39 341.112 1300.32 345.998 1296.54 351.389 C 1288.21 352.463 1261.53 351.783 1251.73 351.726 C 1254.72 345.544 1256.8 341.062 1260.62 335.335 z" fill="rgb(252,251,245)" transform="translate(0,0)"></path>
<path d="M 1261.92 394.989 L 1278.57 395.004 L 1274.61 403.625 C 1270.54 403.819 1263.36 404.781 1260.19 402.861 C 1259.22 399.234 1260.08 399.317 1261.92 394.989 z" fill="rgb(252,251,245)" transform="translate(0,0)"></path>
<path d="M 1267.25 382.946 C 1270.99 382.8 1279.16 381.907 1281.93 383.677 C 1282.89 386.976 1282.05 386.919 1280.29 390.956 C 1276.37 391.101 1268.25 392.049 1265.45 390 C 1264.8 386.543 1265.45 386.828 1267.25 382.946 z" fill="rgb(252,251,245)" transform="translate(0,0)"></path>
<path d="M 768.649 710.471 C 772.062 714.077 781.818 732.957 782.334 738.389 C 782.906 744.408 782.727 755.322 782.711 761.685 L 782.543 806.437 C 782.326 855.285 782.357 904.134 782.635 952.982 L 748.333 952.797 C 745.423 941.554 744.061 938.425 734.225 931.869 C 730.535 930.444 725.772 929.713 722.039 928.206 C 712.684 924.428 705.408 916.65 698.264 909.744 C 711.143 893.196 706.329 887.48 714.321 871.456 C 724.557 850.933 747.06 816.346 754.325 796.214 C 760.779 778.329 765.349 731.993 768.649 710.471 z" fill="rgb(252,251,245)" transform="translate(0,0)"></path>
<path d="M 1139.12 638.009 L 1170.87 637.944 L 1170.45 953.117 L 1139.01 953.099 L 1139.12 638.009 z" fill="rgb(252,251,245)" transform="translate(0,0)"></path>
<path d="M 1412.07 746.844 L 1512.47 746.914 C 1570.22 747.087 1569.54 739.187 1598.19 793.42 L 1628.05 851.049 C 1636.7 867.809 1647.7 884.886 1654.53 902.402 C 1656.27 906.86 1657.51 911.944 1656.72 916.746 C 1655.78 922.445 1651.97 927.176 1646.51 929.139 C 1635.02 933.27 1488.19 931.03 1460.5 931.005 C 1452.67 930.998 1430.57 929.248 1424.28 930.944 C 1419.27 932.298 1416.69 937.342 1412.61 940.21 C 1410.87 936.383 1411.86 933.378 1414.02 930.066 L 1414.53 929.3 C 1415.25 928.206 1416.28 925.978 1415.81 924.737 C 1411.46 913.193 1411.42 904.185 1411.71 891.775 L 1412.53 893.571 C 1416.41 902.031 1420.88 914.361 1430.56 917.694 C 1437.26 919.998 1630.8 920.547 1635.86 917.854 C 1638.83 916.257 1641.03 913.526 1641.96 910.281 C 1642.7 907.622 1642.81 905.804 1641.56 903.214 C 1619.61 857.437 1594.78 812.85 1571.48 767.715 C 1564.55 754.286 1533.18 758.283 1519.52 758.31 L 1443.47 758.541 C 1436.31 758.571 1419.06 759.175 1412.92 757.597 C 1411.68 755.105 1412.06 749.901 1412.07 746.844 z" fill="rgb(252,251,245)" transform="translate(0,0)"></path>
<path d="M 1385.82 517.709 C 1386.04 517.89 1386.28 518.057 1386.49 518.251 C 1391.37 522.705 1389.37 596.81 1389.38 607.034 L 1157.46 607.055 C 1156.59 597.771 1156.76 601.19 1152.68 593.966 C 1156.2 590.952 1292.46 592.177 1309.36 591.976 C 1319.58 586.449 1375.9 527.945 1385.82 517.709 z" fill="rgb(252,251,245)" transform="translate(0,0)"></path>
<path d="M 826.996 412.092 C 832.837 412.343 849.931 417.637 856.316 419.572 C 812.479 460.304 795.735 507.397 777.094 561.465 C 776.468 563.281 774.851 563.195 773.198 563.484 C 763.205 561.781 751.861 560.589 741.72 559.298 C 754.042 503.901 777.668 459.646 814.072 416.367 C 817.968 414.881 822.955 413.41 826.996 412.092 z" fill="rgb(252,251,245)" transform="translate(0,0)"></path>
<path d="M 787.588 749.458 C 804.281 770.203 819.964 868.037 822.139 898.112 C 822.402 901.751 819.586 910.963 819.397 915.573 C 818.917 927.325 819.128 939.33 819.193 951.079 L 817.982 952.703 C 810.807 953.606 795.131 953.059 787.324 953 L 787.588 749.458 z" fill="rgb(252,251,245)" transform="translate(0,0)"></path>
<path d="M 1175.45 611.898 L 1407.11 611.857 L 1407.09 633.085 L 1175.51 633.074 L 1175.45 611.898 z" fill="rgb(252,251,245)" transform="translate(0,0)"></path>
<path d="M 921.816 656.8 L 990.075 656.741 L 990.061 722.343 L 921.903 722.482 L 921.816 656.8 z" fill="rgb(252,251,245)" transform="translate(0,0)"></path>
<path d="M 993.184 832.575 L 1061.66 832.635 L 1061.79 897.602 L 993.407 897.709 L 993.184 832.575 z" fill="rgb(252,251,245)" transform="translate(0,0)"></path>
<path d="M 1066.3 656.8 L 1134.01 656.702 L 1134.01 722.413 C 1111.56 722.115 1088.75 722.292 1066.28 722.282 L 1066.3 656.8 z" fill="rgb(252,251,245)" transform="translate(0,0)"></path>
<path d="M 1066.7 832.383 L 1133.97 832.336 L 1133.84 897.66 L 1066.58 897.647 L 1066.7 832.383 z" fill="rgb(252,251,245)" transform="translate(0,0)"></path>
<path d="M 994.754 656.732 L 1061.39 656.693 L 1061.48 722.253 L 994.598 722.294 L 994.754 656.732 z" fill="rgb(252,251,245)" transform="translate(0,0)"></path>
<path d="M 921.638 745.321 L 989.226 745.357 L 989.357 809.412 L 921.626 809.425 L 921.638 745.321 z" fill="rgb(252,251,245)" transform="translate(0,0)"></path>
<path d="M 921.79 832.682 L 988.357 832.609 L 988.455 897.728 L 921.963 897.701 L 921.79 832.682 z" fill="rgb(252,251,245)" transform="translate(0,0)"></path>
<path d="M 1066.32 745.346 L 1134.02 745.3 L 1133.9 809.46 C 1111.54 809.233 1088.73 809.477 1066.34 809.5 L 1066.32 745.346 z" fill="rgb(252,251,245)" transform="translate(0,0)"></path>
<path d="M 994.247 745.323 L 1061.43 745.301 C 1061.36 761.953 1062.58 794.532 1061.08 809.47 L 994.298 809.59 L 994.247 745.323 z" fill="rgb(252,251,245)" transform="translate(0,0)"></path>
<path d="M 1008.28 920.769 L 1133.96 920.864 L 1133.92 953.078 L 1008.22 953.046 L 1008.28 920.769 z" fill="rgb(252,251,245)" transform="translate(0,0)"></path>
<path d="M 913.255 637.501 L 1133.92 637.903 L 1133.97 651.735 L 1072.5 651.662 L 923.615 651.748 C 910.969 651.753 866.309 652.695 855.554 651.235 C 850.186 646.077 855.117 642.297 859.016 637.611 L 913.255 637.501 z" fill="rgb(252,251,245)" transform="translate(0,0)"></path>
<path d="M 1651.4 932.234 C 1652.44 937.482 1636.47 950.194 1632.1 952.964 L 1412.51 952.868 C 1412.16 949.182 1420.21 939.24 1422.74 935.897 C 1482.09 934.235 1542.54 937.019 1602.01 936.026 C 1617.04 935.776 1637.84 938.077 1651.4 932.234 z" fill="rgb(252,251,245)" transform="translate(0,0)"></path>
<path d="M 909.369 293.3 C 916.549 292.861 922.824 293.24 929.796 295.257 C 942.519 298.925 953.208 307.602 959.413 319.299 C 967.178 333.858 966.053 345.532 961.499 360.363 C 953.539 356.718 944.525 353.283 936.349 349.978 L 869.734 324.692 C 879.919 305.452 886.6 296.661 909.369 293.3 z" fill="rgb(252,251,245)" transform="translate(0,0)"></path>
<path d="M 620.732 892.875 L 627.579 885.845 C 645.213 896.878 662.972 904.799 683.532 908.653 C 685.265 908.977 691.184 909.949 691.881 910.995 C 689.953 911.909 688.464 912.742 686.616 913.808 C 686.339 916.139 686.331 915.306 688.107 917.786 C 691.666 917.232 691.474 915.535 696.541 915.364 C 696.345 919.22 690.053 918.764 691.821 924.492 C 694.467 924.659 699.02 921.707 701.632 920.285 L 703.266 920.812 C 703.686 924.274 701.723 923.507 699.045 927.762 C 700.756 930.474 699.851 929.548 703.326 931.066 L 702.8 934.463 C 702.605 935.042 702.488 936.794 702.418 937.503 L 703.638 938.392 C 707.501 937.488 711.922 933.785 715.271 931.356 C 723.891 933.451 738.325 936.61 741.894 945.692 C 740.671 958.064 714.962 956.682 705.637 957.222 C 689.704 958.145 678.638 946.993 665.886 940.038 C 649.796 931.262 636.379 927.61 623.289 913.842 C 622.309 906.869 621.457 899.879 620.732 892.875 z" fill="rgb(252,251,245)" transform="translate(0,0)"></path>
<path d="M 1612.81 758.9 C 1612.61 763.064 1611.09 769.941 1612.55 773.307 C 1620.14 790.753 1630.93 809.321 1639.84 826.187 L 1690.18 923.473 C 1681.48 931.089 1672.97 938.912 1664.64 946.933 C 1663.54 947.939 1664.13 947.5 1662.17 947.68 C 1660.01 945.406 1657.31 938.985 1655.85 935.865 C 1660.03 927.765 1665.18 917.178 1661.88 908.126 C 1656.32 892.894 1647.56 877.483 1640.09 863.105 L 1594.08 775.12 C 1600.25 769.632 1606.49 764.225 1612.81 758.9 z" fill="rgb(252,251,245)" transform="translate(0,0)"></path>
<path d="M 873.515 613.131 L 1037.42 612.856 C 1047.86 616.114 1045.45 622.271 1045.03 632.072 C 1029.52 631.918 1014.01 632.004 998.502 632.33 C 986.134 633.016 966.633 632.445 953.541 632.472 L 862.721 632.656 C 866.049 627.982 870.648 618.573 873.515 613.131 z" fill="rgb(252,251,245)" transform="translate(0,0)"></path>
<path d="M 856.561 656.809 L 917.048 656.793 L 917.049 722.293 L 877.654 722.26 C 870.675 699.54 864.327 679.231 856.561 656.809 z" fill="rgb(252,251,245)" transform="translate(0,0)"></path>
<path d="M 879.354 727.285 C 906.861 726.555 937.432 727.209 965.134 727.202 L 1133.92 727.193 L 1133.97 740.139 L 882.777 740.084 C 881.433 735.704 880.439 731.717 879.354 727.285 z" fill="rgb(248,208,122)" transform="translate(0,0)"></path>
<path d="M 905.255 814.501 L 1134.03 814.525 C 1134.24 818.091 1134.73 822.072 1133.78 825.458 C 1131.25 827.872 1131.69 827.113 1127.25 827.32 L 898.125 827.399 C 897.519 823.945 896.18 818.978 897.429 815.942 C 900.404 813.872 900.912 814.593 905.255 814.501 z" fill="rgb(248,208,122)" transform="translate(0,0)"></path>
<path d="M 1875.14 935.528 C 1876.68 934.904 1876.82 935.093 1878.42 935.456 C 1877.94 939.101 1868.23 949.638 1865.4 952.972 L 1687.75 952.842 C 1685.99 952.989 1685.83 952.8 1684.19 952.24 C 1685.64 950.365 1712.05 936.743 1715.43 936.578 C 1768.06 934.007 1822.57 937.6 1875.14 935.528 z" fill="rgb(252,251,245)" transform="translate(0,0)"></path>
<path d="M 912.031 902.793 L 1134.02 902.758 L 1134.03 915.756 L 912.178 915.502 L 912.031 902.793 z" fill="rgb(248,208,122)" transform="translate(0,0)"></path>
<path d="M 859.46 327.291 C 870.086 326.521 895.337 340.489 906.28 344.012 C 908.998 344.886 916.192 346.739 917.862 347.612 C 920.811 351.775 921.049 356.327 920.907 361.272 C 919.487 363.5 919.221 363.485 916.703 364.612 C 907.93 364.16 902.592 343.993 887.523 365.049 C 885.273 370.304 882.727 376.777 883.959 382.542 C 885.415 384.468 885.997 384.96 886.603 387.236 C 881.274 394.6 867.851 392.446 860.712 389.384 C 851.37 385.377 855.27 370.082 852.446 362.083 C 846.868 346.287 837.254 334.194 859.46 327.291 z" fill="rgb(12,36,70)" transform="translate(0,0)"></path>
<path d="M 1105.59 612.569 L 1170.91 612.164 L 1170.92 633.002 L 1057.04 632.657 C 1039.42 632.606 1015.63 633.289 998.502 632.33 C 1014.01 632.004 1029.52 631.918 1045.03 632.072 C 1045.45 622.271 1047.86 616.114 1037.42 612.856 L 1078.43 612.71 L 1105.59 612.569 z" fill="rgb(249,198,93)" transform="translate(0,0)"></path>
<path d="M 1037.42 612.856 L 1078.43 612.71 L 1078.78 631.899 L 1045.03 632.072 C 1045.45 622.271 1047.86 616.114 1037.42 612.856 z" fill="rgb(251,241,219)" transform="translate(0,0)"></path>
<path d="M 1078.43 612.71 L 1105.59 612.569 C 1104.57 620.096 1104.75 623.867 1105.03 631.498 C 1096.3 631.746 1087.5 632.084 1078.78 631.899 L 1078.43 612.71 z" fill="rgb(248,208,122)" transform="translate(0,0)"></path>
<path d="M 894.659 387.928 C 893.853 387.271 893.065 386.594 892.295 385.896 C 884.599 378.864 890.37 359.986 901.387 360.057 C 910.228 363.902 904.663 364.871 908.016 372.471 L 909.854 372.979 C 915.543 371.487 921.011 366.073 925.235 362.024 C 929.558 361.346 948.938 371.768 953.393 374.875 L 953.651 376.736 C 949.959 377.719 947.183 374.209 941.461 374.679 C 938.549 376.566 939.417 375.495 938.167 378.701 L 938.615 379.966 C 934.147 384.36 932.674 389.471 935.876 395.254 C 938.761 397.494 937.429 396.999 940.889 397.32 C 942.41 395.949 943.956 394.606 945.527 393.293 C 946.751 397.787 946.807 399.324 947.016 404.023 C 944.829 405.014 944.137 404.888 941.681 405.008 C 939.105 407.161 932.746 412.769 929.957 413.182 C 927.317 410.871 919.3 403.371 916.529 402.275 C 915.857 407.318 924.098 413.031 925.95 416.814 C 895.854 444.076 901.108 395.899 897.047 388.554 L 894.659 387.928 z" fill="rgb(252,251,245)" transform="translate(0,0)"></path>
<path d="M 861.503 421.959 L 875.145 427.364 C 830.98 457.768 816.133 507.995 802.365 557.134 C 801.045 561.845 801.993 564.928 796.916 566.13 C 792.121 565.373 786.646 564.776 781.784 564.145 C 799.911 507.914 816.923 463.078 861.503 421.959 z" fill="rgb(112,158,169)" transform="translate(0,0)"></path>
<path d="M 905.981 893.192 C 908.089 895.93 907.006 913.802 906.91 918.574 C 884.417 924.72 850.19 928.643 827.54 926.22 C 826.894 918.401 826.104 910.594 825.17 902.804 C 850.739 903.407 881.92 901.104 905.981 893.192 z" fill="rgb(112,158,169)" transform="translate(0,0)"></path>
<path d="M 1096.51 607.809 C 1072.34 607.883 881.518 609.337 876.306 606.924 L 876.061 605.505 C 881.514 601.645 907.26 605.159 914.778 603.611 C 916.218 603.315 916.935 600.609 917.597 599.018 C 923.917 594.341 1044.8 599.41 1064.28 599.399 C 1070.97 604.15 1094.48 595.144 1096.56 604.419 C 1096.63 604.74 1096.54 607.234 1096.51 607.809 z" fill="rgb(248,208,122)" transform="translate(0,0)"></path>
<path d="M 633.164 855.461 C 654.002 872.125 679.354 882.167 705.952 884.291 C 703.374 891.07 700.237 898.873 695.729 904.535 C 678.002 908.5 637.002 887.308 623.014 875.714 C 626.47 869.752 629.059 862.515 633.164 855.461 z" fill="rgb(112,158,169)" transform="translate(0,0)"></path>
<path d="M 884.235 745.449 L 916.881 745.392 L 916.782 809.548 L 895.625 809.61 C 894.492 798.804 893.252 787.196 891.183 776.587 C 889.146 766.141 886.073 755.999 884.235 745.449 z" fill="rgb(252,251,245)" transform="translate(0,0)"></path>
<path d="M 801.282 421.81 L 802.093 421.979 C 802.332 423.713 793.803 433.146 792.074 435.405 C 764.015 472.071 748.715 515.09 736.086 559.206 L 724.24 557.262 L 720.937 556.1 L 720.42 554.396 C 733.192 512.943 765.268 446.991 801.282 421.81 z" fill="rgb(112,158,169)" transform="translate(0,0)"></path>
<path d="M 1065.93 555.381 C 1079.8 553.228 1091.02 572.71 1097.04 583.182 C 1092.82 581.052 1087.5 577.545 1083.38 574.996 C 1076.41 576.755 1072.48 578.243 1065.76 580.901 C 1059.25 583.34 1046.31 588.49 1039.96 584.748 C 1035.73 579.952 1036.66 567.439 1035.86 559.471 C 1045.72 558.333 1056.06 556.738 1065.93 555.381 z" fill="rgb(252,251,245)" transform="translate(0,0)"></path>
<path d="M 1060.95 534.063 L 1103.84 533.943 C 1103.67 549.415 1104.73 566.166 1103.73 581.703 C 1103.53 584.84 1102.73 584.677 1100.23 586.493 L 1098 584.761 C 1100.19 574.64 1089.11 560.677 1081.38 555.019 C 1074.31 549.852 1069.19 549.664 1060.8 551.139 C 1060.8 545.447 1060.85 539.754 1060.95 534.063 z" fill="rgb(252,251,245)" transform="translate(0,0)"></path>
<path d="M 898.633 832.763 L 916.933 832.754 L 917.007 897.98 C 915.053 897.688 914.501 897.388 912.657 896.629 L 911.553 890.682 C 908.066 886.401 905.622 888.212 905.053 886.922 C 901.3 878.403 899.188 840.654 898.633 832.763 z" fill="rgb(252,251,245)" transform="translate(0,0)"></path>
<path d="M 886.585 566.456 C 888.538 567.407 891.284 570.4 892.878 572.053 C 902.369 581.892 908.351 588.517 922.064 592.254 L 922.95 592.489 C 918.786 593.246 917.028 592.796 914.468 595.228 C 909.462 601.423 887.115 599.144 878.385 599.023 C 881.677 588.315 884.414 577.445 886.585 566.456 z" fill="rgb(252,251,245)" transform="translate(0,0)"></path>
<path d="M 1289.35 426.728 C 1290.53 432.065 1290.3 493.778 1289.73 500.668 C 1287.71 502.158 1284.12 501.78 1281.37 501.827 C 1279.59 495.758 1280.73 445.954 1280.74 436.077 C 1284.17 433.132 1286.49 430.166 1289.35 426.728 z" fill="rgb(252,251,245)" transform="translate(0,0)"></path>
<path d="M 897.745 418.625 C 896.608 418.963 891.832 420.392 890.969 419.868 C 880.595 413.57 871.517 405.196 859.833 400.994 C 857.1 400.012 854.175 399.14 852.522 396.69 C 853.14 394.445 853.222 394.401 854.993 392.795 C 874.247 392.776 872.571 405.795 894.659 387.928 C 893.139 397.841 891.715 409.917 897.745 418.625 z" fill="rgb(252,251,245)" transform="translate(0,0)"></path>
<path d="M 745.371 579.013 L 747.82 580.24 C 748.766 584.855 734.784 634.415 732.016 635.893 L 729.28 634.504 L 721.273 626.701 C 730.437 609.515 733.085 596.651 745.371 579.013 z" fill="rgb(252,251,245)" transform="translate(0,0)"></path>
<path d="M 759.102 571.623 C 771.957 575.941 784.708 578.281 797.983 580.663 L 790.477 592.496 C 788.804 594.977 787.07 596.988 785.157 599.277 C 777.469 594.317 763.2 586.23 758.224 578.375 C 756.775 576.088 758.129 574.136 759.102 571.623 z" fill="rgb(252,251,245)" transform="translate(0,0)"></path>
<path d="M 699.35 558.482 C 707.511 559.23 731.223 561.736 737.238 566.424 C 738.413 569.466 738.395 568.168 737.263 571.289 L 734.431 572.223 C 723.703 574.436 712.919 576.374 702.091 578.036 C 700.834 571.602 700.142 564.996 699.35 558.482 z" fill="rgb(252,251,245)" transform="translate(0,0)"></path>
<path d="M 1064.28 599.399 C 1077.43 599.338 1146.04 597.676 1152.48 601.293 L 1152.83 603.025 C 1150.66 605.691 1145.4 608.122 1142.44 608.059 C 1127.21 607.733 1111.68 607.706 1096.51 607.809 C 1096.54 607.234 1096.63 604.74 1096.56 604.419 C 1094.48 595.144 1070.97 604.15 1064.28 599.399 z" fill="rgb(249,198,93)" transform="translate(0,0)"></path>
<path d="M 839.484 397.982 C 850.279 400.521 886.573 418.004 890.295 428.057 L 887.742 427.523 C 869.441 419.235 850.444 412.578 830.972 407.628 C 833.449 404.461 836.748 401.003 839.484 397.982 z" fill="rgb(252,251,245)" transform="translate(0,0)"></path>
<path d="M 755.345 584.782 C 760.981 593.865 763.933 617.238 765.476 628.341 L 758.481 633.191 C 756.608 634.573 754.447 635.983 752.508 637.313 C 748.506 631.269 754.035 594.224 755.345 584.782 z" fill="rgb(252,251,245)" transform="translate(0,0)"></path>
<path d="M 1039.35 590.535 C 1040.85 590.403 1046.63 590.916 1048.79 590.945 C 1064.81 591.154 1091.49 586.76 1105.95 592.187 L 1106.16 593.726 C 1100.64 594.7 1087.56 594.554 1081.5 594.58 C 1068.11 594.616 1022.17 596.228 1012.57 592.981 L 1012.1 591.901 C 1015.23 590.676 1035.27 590.558 1039.35 590.535 z" fill="rgb(252,251,245)" transform="translate(0,0)"></path>
<path d="M 1017.56 550.38 C 1019.13 550.464 1024.53 550.713 1025.65 551.317 C 1034.97 556.347 1032.58 574.512 1029.8 581.687 C 1025.96 582.02 1023.77 581.942 1019.9 581.747 C 1018.53 579.844 1019.52 574.702 1019.59 571.668 C 1019.75 564.253 1018.31 557.665 1017.56 550.38 z" fill="rgb(62,105,130)" transform="translate(0,0)"></path>
<path d="M 924.005 351.081 C 935.611 352.791 976.098 371.79 988.678 378.304 C 991.919 379.982 992.058 380.172 992.821 382.978 C 986.292 383.456 944.806 364.517 935.464 360.121 C 931.203 358.116 925.653 355.822 924.005 351.081 z" fill="rgb(252,251,245)" transform="translate(0,0)"></path>
<path d="M 1108.3 533.366 C 1110.07 533.476 1111.69 533.799 1113.44 534.099 C 1117.51 539.228 1113.85 563.009 1114.9 570.229 C 1116.05 578.163 1119.48 573.284 1112.88 581.5 C 1112.04 582.328 1110.32 583.629 1109.33 584.424 C 1107.54 581.518 1108.28 539.904 1108.3 533.366 z" fill="rgb(252,251,245)" transform="translate(0,0)"></path>
<path d="M 737.77 580.054 C 737.771 579.902 720.467 616.739 718.996 619.954 C 714.907 622.142 710.78 624.261 706.619 626.309 C 705.104 618.498 731.107 586.05 737.77 580.054 z" fill="rgb(252,251,245)" transform="translate(0,0)"></path>
<path d="M 1070.76 497.281 C 1073.09 497.799 1073.34 497.958 1075.23 499.422 C 1078.65 504.953 1077.21 522.881 1076.62 529.7 C 1073.17 529.198 1071.19 529.602 1069.25 527.536 C 1068.55 521.525 1067.81 502.25 1070.76 497.281 z" fill="rgb(62,105,130)" transform="translate(0,0)"></path>
<path d="M 1111.77 497.427 C 1115.92 497.166 1116.48 497.435 1119.51 499.41 L 1118.2 498.168 L 1119.54 500.108 C 1118.44 506.59 1106.55 506.102 1101.75 506.162 C 1099.72 506.375 1099.14 506.208 1097.1 505.891 C 1094.73 503.172 1095.12 504.329 1094.77 501.32 C 1098.54 497.383 1106.04 497.821 1111.77 497.427 z" fill="rgb(62,105,130)" transform="translate(0,0)"></path>
<path d="M 743.459 564.374 C 746.718 564.775 751.434 565.258 753.712 567.446 C 754.818 571.31 754.336 570.424 752.57 574.964 C 747.919 575.074 746.063 574.972 742.806 571.631 C 741.843 568.422 742.402 567.453 743.459 564.374 z" fill="rgb(252,251,245)" transform="translate(0,0)"></path>
<path d="M 1652.43 941.691 C 1654.54 944.721 1657.69 948.169 1656.89 951.813 C 1654.34 953.716 1650.07 953.08 1646.75 952.94 C 1645.45 952.953 1644.36 952.73 1643.07 952.544 C 1643.5 949.53 1649.87 944.145 1652.43 941.691 z" fill="rgb(252,251,245)" transform="translate(0,0)"></path>
<path d="M 1122.21 590.919 C 1125.98 592.464 1140.99 592.131 1147.63 593.378 L 1147.62 593.936 C 1139.77 594.491 1117.23 595.481 1109.91 594.02 C 1113.44 593.552 1116.69 593.846 1121.21 593.181 L 1122.21 590.919 z" fill="rgb(252,251,245)" transform="translate(0,0)"></path>
<path d="M 824.005 928.918 C 825.045 929.516 825.967 930.33 826.918 931.084 C 827.537 934.1 826.372 945.005 827.072 951.714 L 825.493 952.624 L 824.376 951.533 C 823.439 945.834 823.912 935.083 824.005 928.918 z" fill="rgb(252,251,245)" transform="translate(0,0)"></path>
<path d="M 938.167 378.701 C 943.571 378.885 945.601 379.327 949.332 383.48 C 949.07 384.471 948.808 385.461 948.546 386.451 L 947.564 386.6 C 946.078 384.98 946.088 384.391 945.471 382.201 C 942.527 380.687 941.725 380.58 938.615 379.966 L 938.167 378.701 z" fill="rgb(191,195,198)" transform="translate(0,0)"></path>
<path d="M 1079.32 581.874 C 1081.39 582.042 1084.62 582.76 1085.77 584.479 L 1083.24 585.281 C 1079.43 585.283 1078.32 585.204 1074.59 584.458 L 1074.86 583.483 L 1079.32 581.874 z" fill="rgb(252,251,245)" transform="translate(0,0)"></path>
<path d="M 703.326 931.066 C 705.531 929.093 706.785 927.56 709.758 927.228 C 708.347 930.809 706.112 931.726 702.8 934.463 L 703.326 931.066 z" fill="rgb(252,251,245)" transform="translate(0,0)"></path>
<path d="M 72.9517 65.7756 L 211.483 65.8703 C 235.27 65.8599 264.267 65.0591 287.656 66.0828 C 284.43 68.5197 252.575 67.5744 246.662 67.5716 L 131.685 67.4638 C 115.053 67.4422 97.8865 67.4006 81.2157 67.1749 C 78.3153 67.1356 75.7496 67.4561 75.6924 70.5867 C 75.4682 82.8594 73.7155 121.52 75.5926 131.886 C 77.9363 127.325 74.7373 116.698 78.0985 114.388 C 79.0723 127.461 78.3774 149.437 78.3696 163.111 L 78.3507 256.568 L 78.3012 550 L 78.3211 816.291 L 78.3622 899.525 C 78.3685 910.849 79.0051 932.5 78.086 943.163 C 78.442 947.076 77.8221 949.938 79.75 952.723 C 87.9407 953.669 102.118 953.26 110.849 953.249 L 164.642 953.141 C 153.043 935.136 166.97 937.74 165.118 927.48 L 160.447 926.312 C 158.59 923.634 159.315 889.191 159.317 883.653 L 159.36 805.058 L 159.493 567.218 C 150.878 567.23 142.263 567.172 133.649 567.045 L 133.457 540.169 C 145.305 539.319 163.722 539.846 175.905 539.861 L 251.58 539.99 L 251.779 466.908 L 414.915 466.854 L 414.851 441.281 L 517.816 441.256 L 517.861 539.959 L 532.743 540.184 L 532.863 567.103 L 500.005 567.187 L 500.034 838.965 C 500.005 852.098 500.965 918.473 499.144 925.395 C 496.665 927.563 493.45 927.165 489.92 927.316 C 488.333 932.794 502.505 935.876 489.86 953.276 L 651.105 953.161 C 631.323 943.27 589.386 925.985 611.335 897.604 C 613.537 896.942 613.937 896.622 616.006 897.299 C 617.257 902.956 601.393 917.693 623.118 932.282 C 632.371 938.495 647.892 945.543 656.651 950.669 C 689.563 969.931 701.424 971.675 739.653 964.959 C 740.662 964.782 741.793 964.218 742.699 963.705 C 743.815 960.955 744.086 959.619 744.699 956.802 L 745.798 956.985 C 747.584 960.727 745.496 962.132 745.941 966.963 C 740.11 973.676 697.353 974.969 687.722 971.799 C 679.944 969.239 668.025 962.376 660.611 958.108 L 307.679 958.143 L 159.535 958.163 C 131.385 958.176 101.534 958.657 73.4945 957.955 C 72.6315 953.31 72.8793 938.858 72.8917 933.462 L 73.0057 887.789 L 72.9872 722.824 L 72.9517 65.7756 z" fill="rgb(12,36,70)" transform="translate(0,0)"></path>
<path d="M 200.677 872.934 L 455.044 872.842 L 455.127 926.926 C 459.137 926.919 463.147 926.984 467.154 927.121 L 467.823 928.039 C 459.348 936.664 460.983 940.74 464.899 951.486 L 464.186 953.01 L 459.25 953.206 L 190.776 953.264 C 198.568 938.023 189.068 935.518 190.458 928.055 C 192.95 926.072 197.052 926.489 200.472 926.426 C 201.079 909.345 200.672 890.169 200.677 872.934 z" fill="rgb(252,251,245)" transform="translate(0,0)"></path>
<path d="M 200.726 718.69 L 455.071 718.703 L 455.09 771.544 L 200.727 771.355 L 200.726 718.69 z" fill="rgb(252,251,245)" transform="translate(0,0)"></path>
<path d="M 200.576 642.058 L 455.022 642.069 L 455.025 694.365 L 200.59 694.51 L 200.576 642.058 z" fill="rgb(252,251,245)" transform="translate(0,0)"></path>
<path d="M 200.669 796.763 L 455.084 796.805 L 455.075 848.154 L 200.665 848.292 L 200.669 796.763 z" fill="rgb(252,251,245)" transform="translate(0,0)"></path>
<path d="M 200.561 567.062 L 455.031 567.172 L 455.049 617.247 L 200.669 617.27 L 200.561 567.062 z" fill="rgb(252,251,245)" transform="translate(0,0)"></path>
<path d="M 256.191 471.493 L 414.896 471.721 L 414.991 539.981 L 364.5 539.961 L 341.202 539.969 C 341.171 528.335 342.679 498.498 339.231 489.584 L 338.475 490.321 C 337.643 506.35 337.931 523.876 337.914 540.044 L 256.107 539.973 L 256.191 471.493 z" fill="rgb(252,251,245)" transform="translate(0,0)"></path>
<path d="M 345.296 494.168 C 362.562 494.164 383.932 493.603 400.869 494.622 C 400.963 501.4 401.583 517.403 400 523.156 L 344.111 523.092 C 344.011 516.875 343.157 499.192 345.296 494.168 z" fill="rgb(9,27,54)" transform="translate(0,0)"></path>
<path d="M 347.855 499.019 L 396.152 499.091 L 396.176 518.316 L 347.867 518.34 L 347.855 499.019 z" fill="rgb(252,251,245)" transform="translate(0,0)"></path>
<path d="M 272.132 500.233 C 288.147 500.213 310.309 499.548 325.838 500.677 C 326.009 506.812 326.975 522.838 324.797 527.855 C 307.353 528.25 288.676 527.918 271.135 527.923 C 270.994 521.858 270.126 505.132 272.132 500.233 z" fill="rgb(9,27,54)" transform="translate(0,0)"></path>
<path d="M 275.88 505.037 L 321.155 505.065 L 321.149 522.918 L 275.843 522.957 L 275.88 505.037 z" fill="rgb(252,251,245)" transform="translate(0,0)"></path>
<path d="M 270.956 480.396 C 286.425 480.339 316.134 479.241 332.008 481.634 C 332.628 481.727 333.128 483.889 333.454 484.834 C 326.275 485.589 278.597 485.364 272.143 484.717 C 270.446 482.922 270.958 483.647 270.956 480.396 z" fill="rgb(9,27,54)" transform="translate(0,0)"></path>
<path d="M 419.672 446.026 L 513.082 446.044 L 513.101 539.934 L 419.525 539.995 L 419.672 446.026 z" fill="rgb(252,251,245)" transform="translate(0,0)"></path>
<path d="M 438.235 456.472 L 496.038 456.557 C 496.042 463.624 496.467 478.9 495.235 485.209 L 436.727 485.05 C 436.644 479.427 435.592 459.809 438.235 456.472 z" fill="rgb(9,27,54)" transform="translate(0,0)"></path>
<path d="M 441.603 460.968 L 491.297 460.991 L 491.196 480.719 L 441.629 480.418 L 441.603 460.968 z" fill="rgb(252,251,245)" transform="translate(0,0)"></path>
<path d="M 436.653 494.712 L 495.902 494.757 C 496.003 503.231 495.844 512.004 495.807 520.505 C 490.265 521.766 445.016 521.048 436.706 520.994 L 436.653 494.712 z" fill="rgb(9,27,54)" transform="translate(0,0)"></path>
<path d="M 441.388 499.408 C 457.746 499.716 474.751 499.44 491.158 499.394 L 491.188 516.443 L 441.409 516.295 L 441.388 499.408 z" fill="rgb(252,251,245)" transform="translate(0,0)"></path>
<path d="M 138.197 544.676 L 528.235 544.753 C 528.287 551.079 528.337 556.2 527.807 562.524 L 138.197 562.498 L 138.197 544.676 z" fill="rgb(252,251,245)" transform="translate(0,0)"></path>
<path d="M 480.566 567.383 L 495.161 567.406 L 495.126 922.304 L 480.589 922.4 L 480.566 567.383 z" fill="rgb(252,251,245)" transform="translate(0,0)"></path>
<path d="M 164.341 567.162 L 178.908 567.144 L 179.076 795.378 C 179.035 836.561 179.775 881.143 178.315 922.091 L 164.542 922.117 L 164.341 567.162 z" fill="rgb(252,251,245)" transform="translate(0,0)"></path>
<path d="M 183.96 776.06 L 475.849 776.123 L 475.819 792.107 L 183.896 791.949 L 183.96 776.06 z" fill="rgb(252,251,245)" transform="translate(0,0)"></path>
<path d="M 183.866 621.896 L 475.717 622.108 L 475.609 637.529 L 183.863 637.323 L 183.866 621.896 z" fill="rgb(252,251,245)" transform="translate(0,0)"></path>
<path d="M 183.972 853.07 L 475.731 853.043 L 475.69 868.073 L 183.935 868.031 L 183.972 853.07 z" fill="rgb(252,251,245)" transform="translate(0,0)"></path>
<path d="M 183.995 699.109 L 475.733 699.121 L 475.732 714.036 L 183.955 713.778 L 183.995 699.109 z" fill="rgb(252,251,245)" transform="translate(0,0)"></path>
<path d="M 459.907 718.833 L 475.55 718.802 L 475.695 771.061 L 459.857 771.409 L 459.907 718.833 z" fill="rgb(252,251,245)" transform="translate(0,0)"></path>
<path d="M 459.84 642.137 L 475.585 642.116 L 475.686 694.338 L 459.857 694.375 L 459.84 642.137 z" fill="rgb(252,251,245)" transform="translate(0,0)"></path>
<path d="M 459.846 796.918 L 475.671 796.954 L 475.59 848.05 L 459.853 848.136 L 459.846 796.918 z" fill="rgb(252,251,245)" transform="translate(0,0)"></path>
<path d="M 459.845 567.346 L 475.568 567.348 L 475.588 617.089 L 459.818 617.097 L 459.845 567.346 z" fill="rgb(252,251,245)" transform="translate(0,0)"></path>
<path d="M 459.821 872.899 L 475.362 872.905 L 475.35 922.593 L 459.878 922.496 L 459.821 872.899 z" fill="rgb(252,251,245)" transform="translate(0,0)"></path>
<path d="M 183.966 642.148 L 195.794 642.128 L 195.822 694.239 C 192.245 694.299 187.104 694.695 184.312 692.791 C 183 682.985 183.884 653.421 183.966 642.148 z" fill="rgb(252,251,245)" transform="translate(0,0)"></path>
<path d="M 183.921 796.978 C 187.296 796.907 192.661 796.416 195.26 798.162 C 196.607 808.578 195.903 836.521 195.894 848.24 C 192.261 848.318 187.115 848.742 184.266 846.81 C 182.966 837.02 183.838 808.185 183.921 796.978 z" fill="rgb(252,251,245)" transform="translate(0,0)"></path>
<path d="M 183.933 718.86 C 187.656 718.753 192.271 718.259 195.18 720.367 C 196.522 729.869 195.736 760.452 195.694 771.521 L 183.93 771.441 L 183.933 718.86 z" fill="rgb(252,251,245)" transform="translate(0,0)"></path>
<path d="M 183.916 567.15 C 188.156 567.024 189.943 567.027 194.122 567.604 C 196.857 570.552 195.797 610.308 195.778 617.185 C 192.264 617.248 187.077 617.628 184.299 615.815 C 183.022 605.82 183.846 578.438 183.916 567.15 z" fill="rgb(252,251,245)" transform="translate(0,0)"></path>
<path d="M 183.897 872.857 C 187.235 872.78 193.002 872.246 195.382 874.304 C 196.663 883.019 195.83 911.625 195.741 921.869 L 183.411 922.22 C 183.945 905.932 183.832 889.188 183.897 872.857 z" fill="rgb(252,251,245)" transform="translate(0,0)"></path>
<path d="M 473.449 930.349 C 477.464 928.585 482.126 929.195 485.552 931.933 C 488.978 934.671 490.602 939.083 489.767 943.388 C 488.933 947.693 485.779 951.18 481.578 952.44 C 475.609 954.23 469.277 951.065 467.125 945.217 C 464.973 939.368 467.743 932.855 473.449 930.349 z" fill="rgb(249,198,93)" transform="translate(0,0)"></path>
<path d="M 476.861 936.442 C 478.506 935.615 480.476 935.781 481.959 936.873 C 483.442 937.964 484.186 939.796 483.885 941.613 C 483.583 943.43 482.287 944.923 480.531 945.477 C 478.1 946.244 475.487 945.015 474.527 942.653 C 473.568 940.291 474.583 937.588 476.861 936.442 z" fill="rgb(12,36,70)" transform="translate(0,0)"></path>
<path d="M 173.101 931.109 C 189.272 930.678 196.444 944.08 181.573 952.772 C 165.794 952.789 157.945 942.667 173.101 931.109 z" fill="rgb(249,198,93)" transform="translate(0,0)"></path>
<path d="M 175.394 935.589 C 178.464 934.624 181.749 936.253 182.838 939.281 C 183.927 942.309 182.433 945.657 179.452 946.868 C 177.413 947.697 175.084 947.342 173.384 945.944 C 171.684 944.545 170.886 942.329 171.306 940.168 C 171.725 938.007 173.295 936.25 175.394 935.589 z" fill="rgb(12,36,70)" transform="translate(0,0)"></path>
<path d="M 1104.3 116.453 L 1319.51 116.562 L 1388.14 116.3 C 1422.64 116.156 1454.04 107.736 1451.04 153.496 C 1449.51 176.812 1452.24 203.283 1450.57 226.867 C 1449.7 239.136 1442.26 245.531 1430.97 247.793 C 1356.52 246.593 1278.43 247.478 1203.7 247.6 L 1138.65 247.722 C 1120.19 247.744 1085.07 253.41 1083.89 227.493 C 1082.55 197.924 1083.43 166.972 1083.54 137.248 C 1083.58 125.743 1093.47 118.089 1104.3 116.453 z" fill="rgb(249,198,93)" transform="translate(0,0)"></path>
<path d="M 1324.99 161.036 C 1344 160.769 1349.86 174.795 1344.48 192.47 C 1342.72 198.243 1338.45 200.774 1332.99 202.943 C 1306.53 203.504 1304.81 170.956 1324.99 161.036 z" fill="rgb(252,251,245)" transform="translate(0,0)"></path>
<path d="M 1325.87 169.509 C 1341.01 169.413 1338.07 187.532 1330.89 195.392 C 1318.17 193.823 1319.31 177.446 1325.87 169.509 z" fill="rgb(249,198,93)" transform="translate(0,0)"></path>
<path d="M 1353.3 161.198 C 1372.42 160.987 1382.51 162.151 1376.07 181.019 C 1375.9 181.534 1380.3 186.65 1380.97 189.64 C 1380.52 194.08 1379.83 194.939 1377.4 198.762 C 1342.39 221.402 1348.29 167.386 1353.3 161.198 z" fill="rgb(252,251,245)" transform="translate(0,0)"></path>
<path d="M 1359.97 184.972 C 1363.27 184.952 1367.07 184.486 1369.68 186.316 C 1371.34 189.973 1370.87 188.861 1370.18 193.311 C 1367.2 194.09 1364.41 195.209 1361.6 194.037 C 1359.28 190.37 1360.07 190.036 1359.97 184.972 z" fill="rgb(249,198,93)" transform="translate(0,0)"></path>
<path d="M 1360.95 170.621 C 1362.55 168.945 1365.18 168.81 1366.93 170.315 C 1368.69 171.82 1368.96 174.438 1367.55 176.271 C 1366.57 177.546 1364.97 178.175 1363.38 177.907 C 1361.8 177.64 1360.49 176.519 1359.98 174.993 C 1359.47 173.468 1359.84 171.786 1360.95 170.621 z" fill="rgb(249,198,93)" transform="translate(0,0)"></path>
<path d="M 1261.01 161.096 C 1284.87 159.949 1283.26 184.946 1271.98 198.689 C 1268.33 203.146 1269.2 202.351 1263.81 203.803 L 1262.13 200.45 C 1262.4 196.53 1265.63 191.857 1267.7 188.302 C 1248.26 190.563 1244.53 170.578 1261.01 161.096 z" fill="rgb(252,251,245)" transform="translate(0,0)"></path>
<path d="M 1262.34 170.751 C 1264.03 169.734 1266.13 169.705 1267.85 170.676 C 1269.56 171.647 1270.62 173.467 1270.62 175.439 C 1270.62 177.41 1269.55 179.226 1267.83 180.192 C 1265.23 181.653 1261.94 180.755 1260.44 178.176 C 1258.94 175.597 1259.78 172.291 1262.34 170.751 z" fill="rgb(249,198,93)" transform="translate(0,0)"></path>
<path d="M 1286.35 161.174 C 1294.24 160.969 1306.63 158.285 1309.39 166.535 L 1308.29 168.385 C 1305.03 170.025 1298.05 169.964 1294.12 170.174 C 1292 172.524 1292.24 171.579 1291.97 174.25 C 1296.22 179.086 1306.9 174.05 1306.57 182.681 C 1303.58 185.178 1300.34 183.919 1294.62 185.782 C 1292.06 188.761 1292.93 188.97 1292.8 193.957 C 1297.59 193.835 1303.33 193.297 1307.75 194.797 C 1309.84 197.376 1309.39 196.142 1309.49 199.436 C 1305.67 204.923 1290.65 203.01 1285.26 200.54 C 1283.99 199.176 1282.92 195.924 1283.25 194.245 C 1285.05 184.911 1280.08 168.026 1286.35 161.174 z" fill="rgb(252,251,245)" transform="translate(0,0)"></path>
<path d="M 1190.47 161.711 C 1197.31 161.538 1208.95 159.558 1213.01 165.554 C 1211.83 172.879 1201.51 167.868 1196.97 172.261 C 1197.84 174.491 1235.16 187.11 1204.59 202.531 C 1198.06 203.526 1192.26 203.274 1186.91 199.081 C 1185.51 195.85 1185.55 197.137 1186.39 194.145 C 1192.14 190.954 1200.27 197.07 1204.89 190.831 C 1204.89 187.775 1204.88 187.384 1203.19 184.858 C 1193.73 178.359 1180.19 190.896 1190.47 161.711 z" fill="rgb(252,251,245)" transform="translate(0,0)"></path>
<path d="M 1223.34 161.958 C 1230.42 161.684 1241.15 159.684 1246 165.168 L 1245.86 167.351 C 1243.43 169.17 1234.77 170.377 1230.84 171.496 L 1230.6 172.882 C 1236.27 176.381 1243.29 176.261 1248.18 181.37 C 1253.86 187.316 1246.62 196.496 1241.89 200.627 C 1236.28 203.017 1226.71 204.419 1221.87 199.848 C 1220.9 196.387 1220.75 197.629 1221.92 194.846 C 1227.36 191.301 1235.09 196.558 1239.35 190.626 C 1238.85 177.809 1229.11 186.574 1221.9 178.827 C 1220.53 174.767 1222.02 166.016 1223.34 161.958 z" fill="rgb(252,251,245)" transform="translate(0,0)"></path>
<path d="M 1159.27 161.256 C 1166.48 161.224 1173.28 161.177 1180.47 161.557 C 1182.99 162.994 1183.13 163.489 1184.34 166.164 C 1182.63 171.999 1171.74 167.836 1165.78 171.747 L 1165.33 174.001 C 1169.61 181.854 1174.82 174.003 1181.19 179.345 C 1181.9 182.13 1181.38 182.893 1180.25 185.516 L 1166.63 185.76 C 1166.84 191.975 1168.48 198.993 1163.22 202.947 C 1152.97 202.738 1157.81 178.502 1157.01 171.204 C 1156.67 168.049 1157.26 163.862 1159.27 161.256 z" fill="rgb(252,251,245)" transform="translate(0,0)"></path>
<path d="M 153.497 116.262 L 374.28 116.338 L 440.214 116.347 C 468.874 116.329 498.281 108.571 496.914 147.393 C 496.012 173.023 497.515 199.842 496.494 225.554 C 495.988 238.289 487.746 245.354 476.052 247.723 L 257.873 247.735 L 193.349 247.812 C 177.897 247.886 136.228 253.278 133.458 232.091 C 129.611 202.679 132.93 170.137 132.091 140.174 C 131.721 126.93 142.025 119.374 153.497 116.262 z" fill="rgb(12,36,70)" transform="translate(0,0)"></path>
<path d="M 246.125 161.953 C 256.919 161.761 265.838 160.588 275.371 166.886 C 286.712 174.379 283.629 188.028 276.046 197.203 C 266.039 204.457 258.459 203.104 246.257 202.938 L 246.125 161.953 z" fill="rgb(252,251,245)" transform="translate(0,0)"></path>
<path d="M 256.587 169.753 C 272.626 169.279 274.698 178.579 269.015 191.592 C 266.34 193.546 262.437 195.767 259.071 194.772 C 254.609 189.922 256.475 177.32 256.587 169.753 z" fill="rgb(9,27,54)" transform="translate(0,0)"></path>
<path d="M 302.207 161.094 C 327.589 161.734 324.883 188.863 308.711 200.575 C 303.745 204.171 295.516 205.967 292.331 199.052 C 296.947 190.571 305.184 198.602 309.733 187.469 C 306.683 185.492 301.418 190.383 296.067 187.294 C 282.711 179.583 290.046 164.963 302.207 161.094 z" fill="rgb(252,251,245)" transform="translate(0,0)"></path>
<path d="M 303.735 169.684 C 306.914 169.34 309.786 171.6 310.199 174.771 C 310.612 177.942 308.415 180.862 305.254 181.344 C 303.146 181.666 301.03 180.822 299.722 179.138 C 298.415 177.455 298.12 175.195 298.953 173.233 C 299.786 171.271 301.616 169.913 303.735 169.684 z" fill="rgb(9,27,54)" transform="translate(0,0)"></path>
<path d="M 187.579 161.94 C 191.422 161.924 192.944 161.291 194.965 164.355 L 193.457 169.195 C 194.494 171.642 193.877 170.801 196.649 172.262 C 199.659 170.853 200.332 166.9 202.088 162.981 C 204.959 161.171 203.57 161.445 207.435 162.321 C 209.383 165.257 207.361 165.849 207.198 170.893 C 209.758 171.804 210.295 171.959 212.447 173.594 C 212.424 176.911 212.788 175.593 210.68 178.598 C 205.989 178.819 205.545 178.469 203.941 182.613 C 204.801 187.311 204.562 182.952 208.445 186.181 C 206.691 191.652 201.286 194.842 199.808 200.746 C 199.478 202.064 197.593 202.82 196.115 203.746 C 194.847 202.817 194.584 202.428 193.529 201.303 C 194.016 197.499 194.36 193.856 191.135 191.07 C 187.664 193.279 190.024 197.486 185.711 202.313 C 182.432 203.56 183.821 203.517 180.487 202.489 C 178.545 197.83 181.525 197.944 180.516 192.779 L 176.204 190.559 C 175.215 187.879 175.325 189.049 176.626 185.61 C 179.139 184.986 179.876 184.99 182.489 184.882 C 183.889 182.89 183.728 182.472 183.829 179.92 C 180.815 176.727 180.153 180.126 176.238 176.877 C 176.098 174.454 176.051 174.098 177.333 172.063 C 180.825 172.087 181.354 172.119 184.592 170.712 C 187.076 168.457 187.073 165.35 187.579 161.94 z" fill="rgb(252,251,245)" transform="translate(0,0)"></path>
<path d="M 325.024 162.043 C 331.72 161.909 350.088 159.159 350.988 167.117 C 346.355 173.91 341.751 167.368 335.704 170.469 C 334.322 173.855 334.611 172.406 335.13 176.466 C 337.983 179.046 342.682 178.115 347.418 178.174 C 349.423 180.164 348.799 179.522 349.533 182.703 C 346.166 189.002 339.68 183.046 333.314 188.626 C 336.682 199.518 340.939 191.669 350.174 196.974 C 351.235 199.86 351.142 198.584 349.679 202.258 C 347.306 203.14 328.822 202.827 324.966 202.827 L 325.024 162.043 z" fill="rgb(252,251,245)" transform="translate(0,0)"></path>
<path d="M 389.313 161.739 C 394.076 161.794 409.025 161.203 412 163.087 C 412.482 166.355 412.688 165.074 411.333 167.964 C 408.094 170.356 402.338 170.233 397.435 171.556 L 396.684 173.187 C 399.172 177.426 434.003 186.965 405.394 202.17 C 399.395 203.349 389.222 204.565 385.444 198.44 C 386.459 191.423 399.521 197.253 406.569 190.948 C 404.274 182.266 394.907 184.078 387.754 184.166 C 388.81 175.851 389.099 170.145 389.313 161.739 z" fill="rgb(252,251,245)" transform="translate(0,0)"></path>
<path d="M 354.49 161.926 C 361.312 161.815 377.217 160.508 382.021 164.3 C 382.68 166.055 383.444 167.421 382.618 169.316 C 377.722 180.547 373.078 191.303 368.968 202.885 C 366.017 202.894 361.185 203.297 358.839 201.94 C 360.371 195.864 369.182 176.858 372.17 170.096 C 367.201 169.994 360.876 171.295 356.701 169.576 C 353.926 166.668 354.804 167.008 354.49 161.926 z" fill="rgb(252,251,245)" transform="translate(0,0)"></path>
<path d="M 226.126 161.934 C 226.921 161.93 230.811 161.947 231.176 162.099 C 240.089 165.806 230.93 188.682 235.64 194.82 C 237.899 194.872 239.396 194.604 241.073 195.988 C 241.592 198.968 241.457 199.423 240.761 202.386 C 238.069 203.17 227.151 202.904 223.75 202.9 C 220.361 202.803 221.534 203.267 219.094 201.422 C 218.678 196.684 231.414 185.454 222.47 174.677 C 220.126 173.791 219.368 173.646 217.434 172.119 L 217.143 169.006 C 220.086 166.224 222.85 164.309 226.126 161.934 z" fill="rgb(252,251,245)" transform="translate(0,0)"></path>
<path d="M 626.908 116.443 C 700.189 117.894 777.848 116.656 851.52 116.603 L 911.548 116.54 C 930.907 116.53 966.587 110.736 967.916 137.246 C 969.393 166.726 968.907 198.018 968.118 227.619 C 967.823 238.675 957.482 245.609 947.25 246.976 L 728.967 246.933 L 659.901 247.048 C 645.02 247.074 621.253 250.023 609.434 241.034 C 605.381 237.951 602.885 226.515 602.88 221.586 C 602.969 192.6 601.614 162.963 603.522 134.078 C 604.279 122.609 617 117.101 626.908 116.443 z" fill="rgb(12,36,70)" transform="translate(0,0)"></path>
<path d="M 822.902 163.038 C 831.523 161.988 842.891 163.757 840.975 175.511 C 839.299 185.795 832.746 189.635 824.967 195.283 C 828.508 195.15 836.685 194.838 840.486 195.19 C 841.07 195.244 840.92 197.011 843.492 197.843 C 845.996 190.341 853.369 160.345 862.554 162.652 C 865.666 165.835 872.481 186.291 874.657 192.249 C 876.03 195.352 878.018 198.705 877.378 201.84 C 875.286 203.501 874.876 203.463 872.175 203.467 C 868.737 201.917 868.895 198.403 865.504 194.793 C 856.665 193.596 854.77 193.291 850.771 200.996 C 846.871 203.595 818.688 203.882 815.564 201.868 C 812.219 190.935 829.554 187.405 832.591 174.481 C 831.882 171.133 832.575 172.1 830.294 170.407 C 823.656 169.67 824.252 174.132 818.986 173.773 C 816.785 171.565 817.414 172.695 816.958 169.091 C 818.094 165.86 820.037 164.967 822.902 163.038 z" fill="rgb(252,251,245)" transform="translate(0,0)"></path>
<path d="M 859.284 174.698 C 862.05 176.857 864.166 184.237 862.376 187.822 C 859.684 187.5 859.279 187.609 857.134 186.116 C 855.924 182.903 858.109 178.187 859.284 174.698 z" fill="rgb(9,27,54)" transform="translate(0,0)"></path>
<path d="M 704.902 162.157 C 729.085 160.249 728.709 194.332 713.271 203.056 C 688.904 203.565 689.333 171.44 704.902 162.157 z" fill="rgb(252,251,245)" transform="translate(0,0)"></path>
<path d="M 706.738 169.367 L 710.504 169.858 C 717.606 175.08 714.502 188.886 711.701 195.739 C 709.523 195.664 709.296 195.479 707.243 194.631 C 701.945 188.304 703.332 176.239 706.738 169.367 z" fill="rgb(9,27,54)" transform="translate(0,0)"></path>
<path d="M 727.984 162.115 C 733 162.07 747.888 161.541 751.862 162.746 C 754.417 165.207 753.923 164.068 754.326 167.032 C 750.025 173.72 744.441 167.343 737.825 170.802 C 736.753 173.571 737.291 175.566 737.69 178.473 C 740.447 180.114 743.368 178.56 748.816 179.72 C 751.615 182.028 750.765 181.557 751.389 186.198 C 748.062 187.224 740.742 186.913 736.966 186.913 C 737.155 192.148 738.184 198.343 734.98 202.154 C 732.142 202.489 731.246 202.765 728.666 201.461 C 726.828 195.406 727.846 169.543 727.984 162.115 z" fill="rgb(252,251,245)" transform="translate(0,0)"></path>
<path d="M 768.582 164.862 C 770.546 164.761 770.941 164.94 772.876 165.419 C 776.002 170.306 773.369 183.928 773.843 189.85 C 774.221 194.574 777.319 193.933 781.02 197.303 C 781.208 200.502 781.476 199.257 780.084 202.063 C 775.748 203.286 766.063 202.844 761.1 202.797 C 759.43 202.514 758.92 201.683 757.732 200.447 L 757.897 198.697 C 759.297 196.438 760.339 196.188 762.749 195.249 L 763.549 194.943 C 765.569 192.473 766.085 179.494 764.322 176.935 C 761.665 177.542 760.893 177.724 758.179 177.723 C 756.308 175.467 756.787 176.591 756.803 173.064 C 758.453 170.302 765.458 166.706 768.582 164.862 z" fill="rgb(252,251,245)" transform="translate(0,0)"></path>
<path d="M 784.168 162.68 C 791.932 162.557 809.034 160.397 812.897 167.366 C 812.85 172.364 800.278 195.434 797.12 202.513 C 794.201 202.607 791.877 202.939 789.271 201.571 C 790.139 197.399 800.825 175.684 803.241 170.605 C 797.906 170.667 790.336 171.497 785.952 169.254 C 783.766 166.139 784.413 166.939 784.168 162.68 z" fill="rgb(252,251,245)" transform="translate(0,0)"></path>
<path d="M 1581.66 212.559 C 1600.82 209.54 1618.79 222.628 1621.8 241.786 C 1624.8 260.943 1611.71 278.909 1592.55 281.906 C 1573.4 284.901 1555.45 271.815 1552.45 252.673 C 1549.44 233.531 1562.52 215.574 1581.66 212.559 z" fill="rgb(249,198,93)" transform="translate(0,0)"></path>
<path d="M 1844.92 212.357 C 1864.02 210.689 1880.9 224.741 1882.71 243.831 C 1884.53 262.92 1870.6 279.901 1851.53 281.863 C 1832.25 283.846 1815.04 269.738 1813.2 250.44 C 1811.37 231.141 1825.61 214.043 1844.92 212.357 z" fill="rgb(112,158,169)" transform="translate(0,0)"></path>
<path d="M 1715.39 122.478 C 1734.48 121.571 1750.75 136.192 1751.88 155.271 C 1753 174.35 1738.57 190.784 1719.51 192.131 C 1706.98 193.017 1694.94 187.099 1687.99 176.637 C 1681.04 166.175 1680.24 152.784 1685.92 141.576 C 1691.59 130.368 1702.84 123.074 1715.39 122.478 z" fill="rgb(112,158,169)" transform="translate(0,0)"></path>
<path d="M 1846.01 122.344 C 1865.14 121.245 1881.56 135.782 1882.8 154.897 C 1884.03 174.012 1869.61 190.541 1850.5 191.91 C 1831.21 193.292 1814.48 178.694 1813.23 159.388 C 1811.98 140.081 1826.7 123.454 1846.01 122.344 z" fill="rgb(12,36,70)" transform="translate(0,0)"></path>
<path d="M 1709.49 213.09 C 1728.31 208.799 1747.03 220.648 1751.21 239.496 C 1755.38 258.344 1743.41 276.988 1724.54 281.045 C 1705.83 285.066 1687.39 273.228 1683.25 254.545 C 1679.11 235.862 1690.83 217.344 1709.49 213.09 z" fill="rgb(249,198,93)" transform="translate(0,0)"></path>
<path d="M 1579.77 123.208 C 1598.4 119.218 1616.75 131.037 1620.82 149.648 C 1624.89 168.259 1613.15 186.658 1594.55 190.805 C 1575.85 194.978 1557.31 183.15 1553.22 164.428 C 1549.13 145.706 1561.03 127.223 1579.77 123.208 z" fill="rgb(12,36,70)" transform="translate(0,0)"></path>
<path d="M 1579.24 301.987 C 1597.65 297.834 1615.95 309.332 1620.2 327.716 C 1624.45 346.1 1613.05 364.463 1594.68 368.806 C 1576.19 373.182 1557.66 361.677 1553.38 343.158 C 1549.1 324.638 1560.7 306.171 1579.24 301.987 z" fill="rgb(112,158,169)" transform="translate(0,0)"></path>
<path d="M 1711.48 302.223 C 1729.93 299.132 1747.39 311.604 1750.44 330.059 C 1753.5 348.515 1740.99 365.946 1722.53 368.964 C 1704.12 371.975 1686.75 359.511 1683.7 341.106 C 1680.66 322.701 1693.09 305.305 1711.48 302.223 z" fill="rgb(251,241,219)" transform="translate(0,0)"></path>
<path d="M 1843.2 301.815 C 1861.4 299.288 1878.22 311.968 1880.79 330.163 C 1883.36 348.357 1870.73 365.201 1852.54 367.821 C 1834.28 370.45 1817.37 357.757 1814.78 339.497 C 1812.2 321.237 1824.94 304.351 1843.2 301.815 z" fill="rgb(251,241,219)" transform="translate(0,0)"></path>
<metadata><recraft-signature>{"signed_by": "recraft", "signature_b64": "oVe2/sBoX1D05rgUTFSdY2AHJEWm4iTK1PkNiQ6zVTiatv9PKJgjApci5A8+ksZhNAhRY2F5pdU2AZLbBM8UAA==", "signing_algo": "Ed25519", "generation_timestamp": 1777312733, "identifier": "dd5fd00d-3d54-41a9-abe8-d87c9628499f"}</recraft-signature></metadata></svg>