<svg xmlns="http://www.w3.org/2000/svg" height="1024" preserveAspectRatio="none" style="display: block;" version="1.1" viewBox="0 0 2048 1024" width="2048">
<path d="M 0 0 L 2048 0 L 2048 1024 L 0 1024 L 0 0 z" fill="rgb(254,254,254)" transform="translate(0,0)"></path>
<path d="M 979.767 117.189 C 983.49 99.1871 986.51 85.4119 996.972 70.2287 C 1010.7 50.0687 1033.62 44.668 1049.26 66.3204 C 1060.56 81.9488 1064.29 97.3522 1066.97 116.153 C 1078.76 126.595 1086.04 136.776 1091.03 151.549 C 1229.76 178.831 1370.07 201.257 1509.02 227.591 C 1517.85 229.265 1523.36 229.329 1528.62 236.982 L 1528.33 237.432 C 1526.53 240.338 1524.98 243.619 1523.44 246.7 C 1519.53 245.89 1517.16 247.811 1511.74 249.444 C 1499.63 253.097 1483.37 247.727 1473.78 248.267 L 1471.92 249.605 C 1441.18 246.002 1409.28 241.023 1378.45 236.829 L 1188.13 211.091 C 1157.68 206.993 1117.06 200.218 1087.31 197.508 C 1080.41 210.806 1075.38 217.089 1062.99 225.689 C 1062.6 242.705 1064.38 266.362 1065.24 283.779 L 1071.1 391.588 L 1087.09 684.206 L 1093.45 800.917 C 1094.47 820.561 1096.34 844.878 1096.36 864.147 C 1138.06 863.991 1194.16 854.794 1206.59 908.196 C 1247.88 908.726 1267.55 909.171 1286.24 950.809 L 1733.59 951.144 L 1869.85 951.064 C 1886.98 951.065 1904.84 951.536 1921.91 950.951 C 1932.77 950.58 1961.34 951.978 1945.57 970.081 C 1939.46 974.553 1906.48 972.795 1897.31 972.753 L 1820.33 972.449 L 1554.54 972.445 L 462.165 972.513 L 197.723 972.905 L 133.367 972.95 C 123.405 972.948 106.264 975.799 100.669 967.275 C 96.5321 960.7 101.311 952.177 108.799 951.908 C 125.163 951.319 141.898 951.649 158.273 951.685 C 191.914 951.621 225.555 951.774 259.194 952.146 C 256.1 954.769 245.276 954.667 239.71 955.645 L 370.391 955.568 C 388.47 955.559 422.232 954.402 439.371 955.878 C 440.444 958.268 440.429 958.759 440.802 961.394 C 443.558 964.266 472.382 966.137 479.325 967.275 C 480.314 962.79 480.607 958.129 484.146 955.796 L 485.796 955.899 C 503.185 954.389 539.3 955.467 557.605 955.627 C 602.974 956.122 648.347 956.102 693.715 955.566 C 715.638 955.427 742.476 956.435 763.759 954.582 C 760.021 954.45 758.853 954.366 755.214 953.406 L 754.37 953.179 C 755.889 953.175 764.909 952.953 765.057 952.627 C 783.872 911.109 796.654 907.585 848.246 908.628 C 862.14 854.06 908.969 863.365 953.232 863.671 L 977.853 418.185 C 981.104 354.882 983.719 289.762 987.72 226.655 C 986.409 225.783 985.109 224.894 983.821 223.988 C 967.284 212.318 959.045 197.626 955.624 177.881 C 941.609 174.281 920.18 171.033 905.531 168.281 C 875.345 162.352 845.108 156.682 814.824 151.273 L 558.69 104.447 C 577.234 124.391 577.547 148.615 550.988 161.238 C 563.201 180.164 577.541 207.118 588.666 227.04 C 607.405 260.046 625.9 293.19 644.149 326.47 C 684.364 399.368 726.827 473.19 765.332 546.823 C 775.922 547.085 797.107 542.657 798.121 560.418 C 798.978 575.434 771.328 588.426 759.576 595.221 C 714.264 621.424 665.868 644.198 616.686 662.258 C 599.116 666.926 563.595 681.996 546.004 680.595 C 468.138 674.392 387.804 633.601 320.817 595.318 C 306.628 587.209 272.471 569.968 285.892 552.187 C 290.844 545.626 309.421 547.029 317.188 547.139 C 332.788 516.072 351.017 483.563 367.714 452.941 C 395.952 400.555 424.76 348.478 454.132 296.719 L 504.456 206.225 C 512.766 191.252 520.676 175.813 529.601 161.249 C 523.448 158.15 520.007 155.599 515.532 150.567 C 504.061 137.701 507.342 111.524 524.386 104.9 C 536.22 100.301 541.632 99.8501 541.286 86.024 C 541.147 80.4637 547.117 76.5905 552.459 77.1993 C 565.416 78.6758 578.45 80.5373 591.421 82.3027 L 678.365 94.3081 C 772.516 106.491 870.779 118.793 964.571 133.456 C 970.604 125.999 972.503 123.575 979.767 117.189 z" fill="rgb(17,28,49)" transform="translate(0,0)"></path>
<path d="M 100.669 967.275 C 96.5321 960.7 101.311 952.177 108.799 951.908 C 125.163 951.319 141.898 951.649 158.273 951.685 C 191.914 951.621 225.555 951.774 259.194 952.146 C 256.1 954.769 245.276 954.667 239.71 955.645 L 370.391 955.568 C 388.47 955.559 422.232 954.402 439.371 955.878 C 440.444 958.268 440.429 958.759 440.802 961.394 C 443.558 964.266 472.382 966.137 479.325 967.275 C 480.314 962.79 480.607 958.129 484.146 955.796 L 485.796 955.899 C 492.384 957.979 535.349 957.011 545.494 957.015 C 594.1 957.234 642.707 957.146 691.312 956.753 L 758.563 956.828 C 763.935 956.798 776.687 957.23 781.302 956.937 C 946.22 958.306 1111.15 958.193 1276.06 956.601 C 1313.99 955.075 1357.19 956.188 1395.52 956.301 L 1574.33 956.329 L 1820.68 956.09 C 1858.25 956.047 1895.83 955.929 1933.41 955.983 C 1940.83 955.993 1941.47 955.696 1945.92 961.791 C 1946.75 965.761 1945.23 966.733 1945.57 970.081 C 1939.46 974.553 1906.48 972.795 1897.31 972.753 L 1820.33 972.449 L 1554.54 972.445 L 462.165 972.513 L 197.723 972.905 L 133.367 972.95 C 123.405 972.948 106.264 975.799 100.669 967.275 z" fill="rgb(28,38,69)" transform="translate(0,0)"></path>
<path d="M 1945.92 961.791 C 1946.75 965.761 1945.23 966.733 1945.57 970.081 C 1939.46 974.553 1906.48 972.795 1897.31 972.753 L 1820.33 972.449 L 1554.54 972.445 L 462.165 972.513 L 197.723 972.905 L 133.367 972.95 C 123.405 972.948 106.264 975.799 100.669 967.275 L 101.229 965.664 L 106.5 970.51 L 328.492 970.535 C 356.3 970.536 384.149 970.663 411.934 970.479 C 426.763 970.092 439.093 965.123 454.227 967.611 C 468.541 969.965 483.996 967.939 498.419 970.241 C 501.252 970.694 508.238 969.574 511.573 969.582 L 634.639 970.521 L 1583.41 968.92 C 1683.35 969.568 1783.29 969.602 1883.22 969.02 C 1901.05 968.885 1922.86 970.263 1940.51 968.064 C 1943.35 967.711 1944.68 964.136 1945.92 961.791 z" fill="rgb(17,28,49)" transform="translate(0,0)"></path>
<path d="M 100.669 967.275 C 96.5321 960.7 101.311 952.177 108.799 951.908 C 125.163 951.319 141.898 951.649 158.273 951.685 C 191.914 951.621 225.555 951.774 259.194 952.146 C 256.1 954.769 245.276 954.667 239.71 955.645 C 219.085 956.625 193.882 955.65 172.673 955.758 C 152.295 955.862 127.48 956.616 107.429 955.829 C 102.273 959.479 101.308 959.279 101.229 965.664 L 100.669 967.275 z" fill="rgb(10,17,38)" transform="translate(0,0)"></path>
<path d="M 326.699 547.716 C 337.495 525.203 353.362 497.438 365.384 475.017 C 398.268 414.102 431.726 353.499 465.754 293.215 L 512.011 210.477 C 518.706 198.339 530.993 174.146 538.525 163.617 L 540.548 163.868 C 548.121 169.441 586.158 240.139 593.537 253.376 L 669.381 389.663 L 723.998 488.415 C 733.974 506.54 746.423 528.387 755.143 546.931 C 742.402 546.84 712.733 548.028 698.996 546.283 C 698.185 546.18 697.847 543.532 697.552 542.274 C 696.577 543.272 695.731 544.25 694.615 545.068 C 693.26 546.732 693.561 546.858 690.76 546.925 C 675.161 547.299 658.934 547.07 643.335 547.033 C 616.06 547.108 588.193 547.465 560.964 547.129 L 560.056 545.797 L 557.732 548.638 L 556.28 548.224 L 555.992 547.51 C 549.363 546.807 533.355 548.296 528.885 545.848 L 528.283 548.417 C 526.66 548.494 526.134 548.658 524.684 547.881 C 518.507 545.71 452.193 547.052 440.397 547.075 C 431.287 547.022 399.57 546.382 391.728 547.995 C 389.772 549.013 390.35 548.677 387.618 548.142 C 382.953 546.533 335.867 547.602 326.699 547.716 z" fill="rgb(254,254,254)" transform="translate(0,0)"></path>
<path d="M 391.728 547.995 C 401.094 480.706 442.642 430.547 510.303 415.836 C 549.765 407.318 590.995 414.67 625.081 436.303 C 666.712 463.182 684.632 498.198 694.615 545.068 C 693.26 546.732 693.561 546.858 690.76 546.925 C 675.161 547.299 658.934 547.07 643.335 547.033 C 616.06 547.108 588.193 547.465 560.964 547.129 L 560.056 545.797 L 557.732 548.638 L 556.28 548.224 L 555.992 547.51 C 549.363 546.807 533.355 548.296 528.885 545.848 L 528.283 548.417 C 526.66 548.494 526.134 548.658 524.684 547.881 C 518.507 545.71 452.193 547.052 440.397 547.075 C 431.287 547.022 399.57 546.382 391.728 547.995 z" fill="rgb(106,195,172)" transform="translate(0,0)"></path>
<path d="M 440.397 547.075 C 442.958 534.566 444.849 526.323 450.273 514.665 C 461.767 490.016 482.64 470.985 508.243 461.809 C 528.299 454.56 559.347 453.909 578.648 462.88 L 578.775 464.075 L 581.475 465.168 C 573.921 485.994 559.683 512.17 550.483 533.068 C 556.257 537.48 557.741 538.941 560.056 545.797 L 557.732 548.638 L 556.28 548.224 L 555.992 547.51 C 549.363 546.807 533.355 548.296 528.885 545.848 L 528.283 548.417 C 526.66 548.494 526.134 548.658 524.684 547.881 C 518.507 545.71 452.193 547.052 440.397 547.075 z" fill="rgb(254,254,254)" transform="translate(0,0)"></path>
<path d="M 578.775 464.075 L 581.475 465.168 C 573.921 485.994 559.683 512.17 550.483 533.068 C 556.257 537.48 557.741 538.941 560.056 545.797 L 557.732 548.638 L 556.28 548.224 L 555.992 547.51 C 549.363 546.807 533.355 548.296 528.885 545.848 L 528.283 548.417 C 526.66 548.494 526.134 548.658 524.684 547.881 C 528.243 534.518 533.021 532.305 546.109 530.89 C 557.821 510.719 567.314 484.457 578.775 464.075 z" fill="rgb(8,10,25)" transform="translate(0,0)"></path>
<path d="M 528.885 545.848 C 536.613 531.81 551.499 532.166 555.992 547.51 C 549.363 546.807 533.355 548.296 528.885 545.848 z" fill="rgb(106,195,172)" transform="translate(0,0)"></path>
<path d="M 581.475 465.168 C 583.838 464.355 583.45 464.8 585.765 465.861 C 616.986 480.167 641.141 511.921 643.335 547.033 C 616.06 547.108 588.193 547.465 560.964 547.129 L 560.056 545.797 C 557.741 538.941 556.257 537.48 550.483 533.068 C 559.683 512.17 573.921 485.994 581.475 465.168 z" fill="rgb(254,254,254)" transform="translate(0,0)"></path>
<path d="M 419.881 489.759 C 425.563 490.015 440.967 497.748 443.683 502.998 C 437.849 503.163 422.249 495.421 419.881 489.759 z" fill="rgb(8,10,25)" transform="translate(0,0)"></path>
<path d="M 613.09 441.632 C 613.792 441.809 614.824 442.386 615.515 442.728 C 615.582 447.547 607.011 458.366 604.014 462.49 L 602.295 461.357 C 601.693 456.963 610.345 445.621 613.09 441.632 z" fill="rgb(8,10,25)" transform="translate(0,0)"></path>
<path d="M 539.937 422.648 C 540.449 423.133 541.314 424.404 541.775 425.033 C 542.354 430.169 543.26 442.455 540.583 446.713 C 536.836 443.084 536.917 426.365 539.937 422.648 z" fill="rgb(8,10,25)" transform="translate(0,0)"></path>
<path d="M 662.087 488.825 C 662.507 488.996 663.88 490.075 664.335 490.414 L 663.879 491.875 C 659.523 495.384 651.907 498.313 646.583 500.661 C 645.649 500.598 645.557 500.276 644.542 499.602 L 644.935 498.116 C 648.615 495.061 657.436 491.095 662.087 488.825 z" fill="rgb(8,10,25)" transform="translate(0,0)"></path>
<path d="M 467.272 443.851 L 469.739 444.184 C 474.04 447.116 481.837 458.308 481.077 463.729 C 477.051 462.21 468.325 448.156 467.272 443.851 z" fill="rgb(8,10,25)" transform="translate(0,0)"></path>
<path d="M 387.618 548.142 C 396.397 476.49 447.029 420.805 519.285 410.148 C 560.913 403.929 603.3 414.609 637.012 439.81 C 669.767 464.776 691.487 501.538 697.552 542.274 C 696.577 543.272 695.731 544.25 694.615 545.068 C 684.632 498.198 666.712 463.182 625.081 436.303 C 590.995 414.67 549.765 407.318 510.303 415.836 C 442.642 430.547 401.094 480.706 391.728 547.995 C 389.772 549.013 390.35 548.677 387.618 548.142 z" fill="rgb(8,10,25)" transform="translate(0,0)"></path>
<path d="M 1019.1 258.167 C 1032.91 253.931 1041.93 250.338 1054.78 244.27 L 1082.72 761.626 C 1084.46 795.742 1086.86 830.138 1088.28 864.176 L 962.043 864.031 C 962.901 834.139 965.283 801.77 966.807 771.69 L 979.358 540.796 L 990.429 337.991 L 992.828 290.745 C 993.144 283.157 992.078 273.895 994.601 266.803 C 995.624 263.927 999.42 263.508 1002.15 262.653 L 1003.07 261.396 L 1006.92 261.117 L 1012.21 260.733 L 1013.28 261.823 C 1011.89 310.521 1008.19 359.703 1006.28 408.351 C 1005.53 427.281 1002.55 458.5 1003.09 476.4 C 1004.94 482.467 1004.68 489.58 1004.83 495.932 C 1005.46 490.562 1005.98 485.179 1006.38 479.787 L 1007.12 489.349 C 1008 484.584 1008.37 471.881 1008.65 466.576 L 1010.88 421.425 C 1013.25 369.63 1014.99 309.582 1019.1 258.167 z" fill="rgb(254,254,254)" transform="translate(0,0)"></path>
<path d="M 1002.15 262.653 L 1003.07 261.396 L 1006.92 261.117 C 1003.82 348.049 997.083 437.353 992.922 524.459 C 989.408 598.194 985.446 671.907 981.034 745.594 L 977.247 813.856 C 976.879 820.845 977.163 844.128 973.88 848.743 L 972.451 848.831 C 969.922 844.885 973.751 790.491 974.182 782.214 L 981.243 654.504 L 1002.15 262.653 z" fill="rgb(10,17,38)" transform="translate(0,0)"></path>
<path d="M 1003.09 476.4 C 1004.94 482.467 1004.68 489.58 1004.83 495.932 C 1005.46 490.562 1005.98 485.179 1006.38 479.787 L 1007.12 489.349 C 1006.92 517.722 1004.25 552.42 1002.74 581.17 L 993.544 750.702 C 991.899 781.278 989.657 813.63 988.914 844.135 L 1046.52 844.392 C 1053.14 844.41 1070.89 842.788 1075.3 846.165 L 1074.58 847.72 C 1070.55 850.386 994.965 848.947 983.737 848.937 C 984.236 808.818 988.018 762.432 990.117 721.926 L 1003.09 476.4 z" fill="rgb(10,17,38)" transform="translate(0,0)"></path>
<path d="M 304.782 575.277 C 321.578 575.727 339.963 575.217 356.932 575.254 L 498.679 575.224 L 665.22 575.507 C 701.704 575.588 739.635 576.246 776.016 575.323 C 756.8 587.83 738.587 597.451 718.43 608.248 C 681.928 626.712 592.96 666.423 553.502 671.046 C 493.969 678.02 350.527 608.346 304.782 575.277 z" fill="rgb(248,191,101)" transform="translate(0,0)"></path>
<path d="M 345.944 583.851 C 350.711 583.956 373.615 596.227 380.25 599.518 C 427.051 622.728 475.153 641.896 525.966 653.945 C 527.737 654.365 527.898 656.692 528.192 658.057 C 523.931 658.096 511.269 654.257 506.229 652.915 C 452.4 638.589 401.601 615.151 352.059 590.074 C 347.927 587.982 347.009 587.499 345.944 583.851 z" fill="rgb(8,10,25)" transform="translate(0,0)"></path>
<path d="M 774.383 953.078 C 784.298 928.008 798.094 917.58 824.953 917.237 C 852.773 916.882 880.58 917.043 908.399 917.036 L 1056.54 916.958 L 1169.87 917.002 C 1190.71 916.988 1211.69 916.532 1232.5 917.346 C 1256 918.264 1268.53 933.353 1277.55 953.148 C 1271.64 953.306 1262.35 953.252 1256.73 953.768 C 1247.3 952.786 1222.75 953.382 1211.99 953.332 C 1176.96 953.16 1141.92 953.214 1106.88 953.494 C 1009.35 953.564 911.239 952.443 813.767 953.421 L 774.383 953.078 z" fill="rgb(106,195,172)" transform="translate(0,0)"></path>
<path d="M 1016.16 109.822 C 1048.96 105.428 1079.09 128.525 1083.35 161.34 C 1087.62 194.155 1064.41 224.189 1031.58 228.332 C 998.925 232.451 969.088 209.391 964.843 176.754 C 960.598 144.118 983.543 114.192 1016.16 109.822 z" fill="rgb(254,254,254)" transform="translate(0,0)"></path>
<path d="M 1018.24 131.958 C 1038.5 128.655 1057.68 142.208 1061.32 162.414 C 1064.96 182.619 1051.73 202.014 1031.59 205.994 C 1018.26 208.628 1004.54 203.867 995.705 193.539 C 986.872 183.211 984.296 168.922 988.966 156.159 C 993.637 143.396 1004.83 134.145 1018.24 131.958 z" fill="rgb(10,17,38)" transform="translate(0,0)"></path>
<path d="M 1017.01 137.006 C 1034.63 133.053 1052.14 144.049 1056.22 161.634 C 1060.31 179.219 1049.45 196.808 1031.89 201.028 C 1014.15 205.294 996.329 194.288 992.198 176.513 C 988.068 158.738 999.209 141.001 1017.01 137.006 z" fill="rgb(254,254,254)" transform="translate(0,0)"></path>
<path d="M 942.777 873.367 C 948.664 872.577 963.617 872.935 970.005 872.931 L 1021.58 872.931 L 1105.85 872.944 C 1144.62 872.978 1181.64 864.518 1197.8 908.536 C 1185.28 908.99 1171.15 908.756 1158.5 908.828 L 903.091 908.389 C 908.493 885.849 920.115 876.498 942.777 873.367 z" fill="rgb(254,254,254)" transform="translate(0,0)"></path>
<path d="M 1092.91 160.912 C 1163.92 172.748 1235.26 187.05 1306.1 199.544 L 1440.89 223.702 L 1499.61 234.662 C 1504.42 235.579 1515.88 235.663 1518.74 239.194 C 1518.4 242.007 1517.93 241.608 1515.38 243.903 C 1505.49 247.977 1449.82 238.278 1436.89 236.433 L 1343.32 223.392 L 1090.86 189.309 C 1093.52 178.041 1093.28 172.479 1092.91 160.912 z" fill="rgb(106,195,172)" transform="translate(0,0)"></path>
<path d="M 548.823 86.0317 C 554.638 85.5742 574.296 88.7767 581.062 89.7187 L 642.569 98.1593 C 748.637 111.856 854.615 126.244 960.496 141.322 C 957.419 149.773 956.185 156.17 954.798 164.988 L 954.37 167.316 C 948.153 168.735 761.739 132.847 740.998 129.052 C 700.339 121.866 659.729 114.408 619.169 106.679 C 602.316 103.631 585.35 101.095 568.53 97.8842 C 561.43 96.5288 550.454 94.4008 548.823 86.0317 z" fill="rgb(106,195,172)" transform="translate(0,0)"></path>
<path d="M 770.179 555.509 C 777.884 555.306 786.923 553.635 790.249 562.382 L 788.958 564.709 C 781.957 568.87 741.511 567.15 731.095 567.144 L 629.034 567.121 L 313.25 567.175 C 307.337 567.243 292.278 569.364 291.111 562.239 C 292.548 558.947 296.575 555.507 300.28 555.583 C 315.258 555.894 330.226 555.844 345.209 555.855 L 447.77 555.876 L 770.179 555.509 z" fill="rgb(248,191,101)" transform="translate(0,0)"></path>
<path d="M 1022.44 60.7852 C 1045.55 61.4222 1053.17 90.8423 1057.41 109.164 C 1051.06 106.424 1047.51 105.196 1040.85 103.274 C 1027.18 99.9674 1017.71 101.043 1004.27 104.359 C 1006.95 92.0303 1013.14 69.7977 1022.44 60.7852 z" fill="rgb(254,254,254)" transform="translate(0,0)"></path>
<path d="M 531.759 109.773 L 532.559 110.477 C 533.421 115.171 513.027 145.256 538.48 145.73 C 554.673 146.031 552.028 129.332 559.718 121.526 L 561.19 122.394 C 562.93 126.837 563.057 129.292 563.625 134.07 C 561.504 141.38 559.036 146.489 552.372 150.918 C 547.673 153.986 541.953 155.077 536.454 153.955 C 530.144 152.59 524.632 148.781 521.124 143.361 C 512.232 129.706 519.586 117.526 531.759 109.773 z" fill="rgb(106,195,172)" transform="translate(0,0)"></path>
<path d="M 912.488 874.247 C 915.527 873.916 917.392 873.582 920.474 874.041 C 917.389 878.424 909.801 881.591 906.064 887.948 C 902.183 894.55 901.18 900.606 897.992 907.359 C 897.347 908.725 895.021 908.521 893.25 908.676 C 889.185 908.793 884.984 908.572 880.908 908.421 C 885.228 889.241 893.42 879.789 912.488 874.247 z" fill="rgb(254,254,254)" transform="translate(0,0)"></path>
<path d="M 892.221 874.165 L 897.329 874.222 C 896.804 876.626 887.736 881.403 884.446 886.619 C 879.136 895.035 878.295 898.788 875.954 908.095 L 863.75 908.134 C 859.774 908.312 859.497 908.226 858.076 904.806 C 860.258 889.55 877.952 877.523 892.221 874.165 z" fill="rgb(254,254,254)" transform="translate(0,0)"></path>
<path d="M 545.436 98.4338 C 547.972 100.189 552.456 102.574 555.277 104.18 C 552.613 113.019 547.649 132.781 541.973 139.016 C 520.794 139.577 540.988 107.674 545.436 98.4338 z" fill="rgb(254,254,254)" transform="translate(0,0)"></path>
<path d="M 1010.8 67.0954 L 1010.91 67.1635 C 1011.52 69.759 1006.63 79.4016 1005.41 82.4275 C 1000.71 94.067 1004.49 104.354 991.434 109.217 C 986.101 102.811 1005.33 73.0683 1010.8 67.0954 z" fill="rgb(254,254,254)" transform="translate(0,0)"></path>
<path d="M 1528.62 236.982 C 1529.18 242.488 1529.65 248.482 1530.65 253.887 C 1554.14 267.57 1554.62 301.263 1529.35 313.272 C 1534.64 318.27 1562.07 369.19 1568.04 379.744 C 1606.52 447.875 1644.47 516.309 1681.87 585.041 C 1700.27 618.822 1720.91 655.177 1738.23 689.255 C 1747.08 689.195 1757.51 688.847 1766.09 690.358 C 1772.57 695.034 1780.95 705.688 1773.28 712.995 C 1764.55 721.298 1749.3 729.845 1738.37 735.979 C 1671.31 773.581 1598.96 814.756 1522 826.001 C 1471.65 830.712 1358.21 771.611 1314.85 747.374 C 1299.84 738.413 1283.57 730.236 1269.92 719.267 C 1263.73 714.299 1255.88 702.897 1263.54 695.835 C 1273.15 686.965 1286.71 688.479 1298.75 688.807 C 1320.47 649.972 1341.8 610.928 1362.76 571.678 L 1451.44 411.788 C 1462.75 391.584 1473.95 371.312 1485.02 350.974 C 1490.87 340.132 1499.77 322.254 1506.25 312.38 C 1492.63 302.469 1485.4 286.866 1493.57 270.867 C 1496.03 263.437 1499.23 260.068 1504.46 254.648 C 1493.59 253.118 1482.74 251.437 1471.92 249.605 L 1473.78 248.267 C 1483.37 247.727 1499.63 253.097 1511.74 249.444 C 1517.16 247.811 1519.53 245.89 1523.44 246.7 C 1524.98 243.619 1526.53 240.338 1528.33 237.432 L 1528.62 236.982 z" fill="rgb(17,28,49)" transform="translate(0,0)"></path>
<path d="M 1528.62 236.982 C 1529.18 242.488 1529.65 248.482 1530.65 253.887 C 1554.14 267.57 1554.62 301.263 1529.35 313.272 L 1528.56 313.798 L 1528.26 313.303 C 1530.43 311.166 1532.01 309.323 1533.98 307.019 C 1534.48 303.547 1534.74 304.991 1532.5 301.542 C 1515.36 313.185 1504.85 305.565 1498.75 287.851 C 1492.42 277.78 1504.56 270.136 1502.09 261.854 C 1498.47 262.576 1498.92 268.199 1493.57 270.867 C 1496.03 263.437 1499.23 260.068 1504.46 254.648 C 1493.59 253.118 1482.74 251.437 1471.92 249.605 L 1473.78 248.267 C 1483.37 247.727 1499.63 253.097 1511.74 249.444 C 1517.16 247.811 1519.53 245.89 1523.44 246.7 C 1524.98 243.619 1526.53 240.338 1528.33 237.432 L 1528.62 236.982 z" fill="rgb(10,17,38)" transform="translate(0,0)"></path>
<path d="M 1530.99 267.962 L 1531.52 265.253 C 1534.65 266.329 1536.35 270.623 1537.98 273.517 C 1543.16 282.741 1539.39 294.418 1532.5 301.542 C 1515.36 313.185 1504.85 305.565 1498.75 287.851 C 1499.04 282.97 1498.87 275.245 1502.91 271.997 C 1506.75 279.596 1502.29 290.393 1512.27 296.961 C 1536.1 303.398 1533.97 283.888 1530.99 267.962 z" fill="rgb(106,195,172)" transform="translate(0,0)"></path>
<path d="M 1513.53 289.95 C 1511.86 280.448 1510.71 266.035 1510.39 256.208 C 1510.27 252.461 1515.65 252.883 1521.14 248.759 L 1521.85 248.21 C 1522.56 253.602 1522.56 258.742 1523.77 264.116 C 1524.31 271.96 1527.51 284.554 1523.76 289.728 C 1519.7 291.894 1517.87 291.41 1513.53 289.95 z" fill="rgb(254,254,254)" transform="translate(0,0)"></path>
<path d="M 1523.77 264.116 L 1524.72 263.995 C 1527.24 270.978 1526.74 282.763 1529.51 290.011 C 1532.36 286.317 1529.65 273.586 1530.99 267.962 C 1533.97 283.888 1536.1 303.398 1512.27 296.961 C 1513.15 295.825 1513.75 294.779 1514.5 293.565 L 1513.53 289.95 C 1517.87 291.41 1519.7 291.894 1523.76 289.728 C 1527.51 284.554 1524.31 271.96 1523.77 264.116 z" fill="rgb(8,10,25)" transform="translate(0,0)"></path>
<path d="M 1309.11 688.667 C 1334.81 638.015 1366.95 582.233 1394.46 532.37 L 1513.7 316.459 C 1516.8 315.556 1517.21 315.606 1520.4 316.182 C 1524.95 318.726 1555.9 375.863 1560.86 384.667 C 1586.77 430.119 1612.22 475.831 1637.2 521.796 L 1694.28 625.459 C 1704.51 644.069 1719.74 670.249 1728.06 689.044 C 1699.71 689.588 1672.07 689.128 1643.79 689.34 C 1643.86 673.589 1644.33 653.042 1643.16 637.661 C 1643.85 632.119 1644.02 615.883 1642.41 610.839 C 1640.98 607.062 1638.87 604.09 1635.06 602.417 C 1627.16 598.942 1595.88 598.737 1587.78 601.956 C 1584.07 603.426 1582.02 605.981 1580.56 609.594 C 1575.73 621.542 1578.04 672.933 1578.05 689.03 C 1571.16 689.013 1560.2 688.641 1553.79 689.861 L 1551.51 690.664 C 1547.96 686.585 1552.69 616.383 1549.2 611.357 C 1548.64 636.764 1549.05 663.49 1549.1 689.005 C 1535.37 689.055 1505.3 688.27 1492.88 689.485 C 1491.7 689.498 1489.34 689.255 1488.06 689.16 C 1483.11 688.623 1468.73 688.976 1463.08 688.962 C 1461.3 689.558 1460.88 689.085 1458.71 688.63 C 1454.87 689.441 1410.12 689.03 1402.68 689 C 1402.67 675.114 1402.95 659.579 1402.19 645.863 C 1401.17 654.654 1403.14 685.951 1400.29 689.413 L 1398.07 689.175 C 1390.63 688.416 1374.33 688.85 1366.39 688.868 C 1347.3 688.996 1328.2 688.929 1309.11 688.667 z" fill="rgb(254,254,254)" transform="translate(0,0)"></path>
<path d="M 1492.88 689.485 L 1492.86 538.906 C 1492.8 511.661 1492.47 484.374 1492.88 457.14 C 1492.96 451.742 1495.71 446.879 1501.71 446.919 C 1508.9 447.218 1516.39 446.329 1523.53 446.517 C 1534.57 446.807 1548.78 444.005 1549.01 459.005 C 1549.26 475.768 1549.19 492.229 1549.15 508.879 C 1548.97 543.038 1548.98 577.198 1549.2 611.357 C 1548.64 636.764 1549.05 663.49 1549.1 689.005 C 1535.37 689.055 1505.3 688.27 1492.88 689.485 z" fill="rgb(247,107,95)" transform="translate(0,0)"></path>
<path d="M 1402.19 645.863 C 1402.78 633.716 1399.29 583.045 1406.26 576.741 C 1411.28 572.21 1437.31 572.947 1444.48 573.728 C 1449.08 574.229 1452.51 575.564 1455.83 578.792 C 1459.59 587.212 1458.66 672.868 1458.71 688.63 C 1454.87 689.441 1410.12 689.03 1402.68 689 C 1402.67 675.114 1402.95 659.579 1402.19 645.863 z" fill="rgb(247,107,95)" transform="translate(0,0)"></path>
<path d="M 1498.35 441.999 C 1510.59 441.953 1524.18 441.39 1536.45 442.2 C 1549.91 443.088 1553.61 449.616 1553.76 462.609 C 1554.17 497.624 1553.77 532.99 1553.92 568.035 C 1553 607.136 1555.41 651.374 1553.79 689.861 L 1551.51 690.664 C 1547.96 686.585 1552.69 616.383 1549.2 611.357 C 1548.98 577.198 1548.97 543.038 1549.15 508.879 C 1549.19 492.229 1549.26 475.768 1549.01 459.005 C 1548.78 444.005 1534.57 446.807 1523.53 446.517 C 1516.39 446.329 1508.9 447.218 1501.71 446.919 C 1495.71 446.879 1492.96 451.742 1492.88 457.14 C 1492.47 484.374 1492.8 511.661 1492.86 538.906 L 1492.88 689.485 C 1491.7 689.498 1489.34 689.255 1488.06 689.16 L 1488.05 532.859 L 1487.91 482.297 C 1487.87 465.615 1483.41 451.791 1498.35 441.999 z" fill="rgb(10,17,38)" transform="translate(0,0)"></path>
<path d="M 1398.07 689.175 L 1397.78 617.786 C 1397.59 566.297 1395.47 566.552 1450 569.336 C 1454.99 572.374 1461.08 575.536 1462.04 581.635 C 1463.91 593.433 1463.2 608.562 1463.18 620.706 L 1463.08 688.962 C 1461.3 689.558 1460.88 689.085 1458.71 688.63 C 1458.66 672.868 1459.59 587.212 1455.83 578.792 C 1452.51 575.564 1449.08 574.229 1444.48 573.728 C 1437.31 572.947 1411.28 572.21 1406.26 576.741 C 1399.29 583.045 1402.78 633.716 1402.19 645.863 C 1401.17 654.654 1403.14 685.951 1400.29 689.413 L 1398.07 689.175 z" fill="rgb(10,17,38)" transform="translate(0,0)"></path>
<path d="M 1283.37 717.195 C 1344.09 717.888 1406.23 717.09 1467.07 717.139 L 1753.47 717.005 C 1731.65 729.472 1712.56 742.025 1689.59 753.713 C 1650.78 774.398 1563.34 816.803 1518.47 817.713 C 1469.27 818.712 1376.96 770.731 1333.72 748.178 C 1322.63 742.392 1292.27 725.29 1283.37 717.195 z" fill="rgb(254,254,254)" transform="translate(0,0)"></path>
<path d="M 1322.87 725.547 C 1327.77 726.104 1352.92 740.658 1360 744.076 C 1405.31 765.97 1450.99 786.352 1499.17 800.755 C 1500.63 801.189 1500.38 804.024 1500.44 805.184 C 1494.41 804.084 1484.8 801.061 1478.87 799.056 C 1425.96 781.186 1373.55 757.848 1324.87 730.58 C 1322.72 729.372 1323.07 727.686 1322.87 725.547 z" fill="rgb(10,17,38)" transform="translate(0,0)"></path>
<path d="M 1276.1 697.328 C 1311.75 696.103 1356.41 697.607 1392.54 697.78 L 1591.95 697.897 L 1711.21 697.882 C 1726.62 697.869 1742 697.648 1757.39 697.563 C 1762.64 697.534 1767.48 701.85 1765.9 707.755 C 1762.81 709.87 1764.24 709.317 1760.25 709.602 C 1729.49 710.035 1697.67 709.445 1666.81 709.437 L 1466.01 709.428 L 1334.75 709.219 C 1322.32 709.168 1279.28 710.874 1271.17 706.748 C 1269.2 704.095 1269.49 705.264 1269.79 702.373 C 1272.06 699.298 1272.76 699.051 1276.1 697.328 z" fill="rgb(254,254,254)" transform="translate(0,0)"></path>
<path d="M 1582.71 689.019 C 1582.86 673.707 1579.99 616.85 1586.5 607.905 C 1589.64 605.872 1592.37 605.02 1596.25 604.887 C 1650.74 603.02 1637.2 607.135 1639.81 654.068 C 1639.49 661.576 1639.22 681.918 1640.33 689.056 L 1582.71 689.019 z" fill="rgb(247,107,95)" transform="translate(0,0)"></path>
<path d="M 1642.41 610.839 C 1644.02 615.883 1643.85 632.119 1643.16 637.661 C 1641.44 652.105 1644.07 676.513 1642.16 688.561 L 1640.33 689.056 C 1639.22 681.918 1639.49 661.576 1639.81 654.068 C 1640.26 648.979 1641 644.199 1641.38 638.959 C 1641.9 631.815 1641.04 616.868 1642.41 610.839 z" fill="rgb(10,17,38)" transform="translate(0,0)"></path>
<path d="M 190.199 589.533 L 236.24 601.311 C 234.999 609.377 233.582 617.771 232.546 625.835 C 242.263 631.576 249.883 636.475 257.473 645.027 C 263.894 643.031 277.161 639.32 282.862 636.859 L 302.245 675.427 C 296.012 679.975 287.885 686.256 281.521 690.264 C 285.429 702.36 286.069 708.509 285.872 721.384 C 310.803 720.333 317.825 722.177 339.963 734.634 C 346.826 726.594 353.825 718.556 360.298 710.206 C 369.212 715.237 382.839 722.474 390.964 727.936 C 389.731 735.333 389.816 741.312 389.729 748.8 L 399.394 743.258 C 404.98 747.868 415.918 757.394 421.6 760.937 C 429.995 757.15 437.488 753.782 446.629 752.116 C 448.537 743.503 450.404 731.973 452.475 723.981 C 466.055 724.036 480.931 723.788 494.402 724.218 C 495.089 731.367 496.113 746.434 497.47 752.898 C 507.618 756.889 512.678 759.325 521.785 765.439 C 529.778 759.73 538.686 753.645 546.425 747.717 C 554.693 758.03 565.041 770.174 572.643 780.681 C 567.738 786.105 560.837 794.487 555.978 799.329 C 561.933 809.832 564.181 816.567 567.54 828.217 C 575.77 828.709 584.993 829.17 593.166 830.146 C 593.124 843.956 593.229 858.019 593.027 871.803 C 583.372 872.068 573.375 872.183 563.788 873.116 C 560.25 880.639 556.018 889.687 550.761 896.215 C 556.01 904.424 561.531 912.455 567.314 920.296 C 556.627 929.474 545.802 938.493 534.845 947.348 C 528.272 940.831 520.958 933.862 514.712 927.119 C 503.787 932.76 498.313 935.272 486.404 938.259 L 483.29 952.739 L 651.206 953.035 C 684.854 953.021 720.891 952.289 754.37 953.179 L 755.214 953.406 C 758.853 954.366 760.021 954.45 763.759 954.582 C 742.476 956.435 715.638 955.427 693.715 955.566 C 648.347 956.102 602.974 956.122 557.605 955.627 C 539.3 955.467 503.185 954.389 485.796 955.899 L 484.146 955.796 C 480.607 958.129 480.314 962.79 479.325 967.275 C 472.382 966.137 443.558 964.266 440.802 961.394 C 440.429 958.759 440.444 958.268 439.371 955.878 C 422.232 954.402 388.47 955.559 370.391 955.568 L 239.71 955.645 C 245.276 954.667 256.1 954.769 259.194 952.146 C 273.387 951.958 287.582 951.901 301.776 951.976 C 293.43 946.885 282.999 940.913 275.471 934.963 C 276.276 930.566 277.17 924.711 278.273 920.499 C 272.865 914.752 268.179 908.961 264.23 902.086 C 255.501 902.067 246.304 901.891 237.618 902.066 C 235.777 894.34 234.155 887.29 232.738 879.48 C 242.236 877.821 250.35 876.744 259.897 875.643 C 262.289 869.107 264.513 862.907 267.332 856.538 C 262.091 851.323 257.765 846.42 252.889 840.854 C 256.461 836.776 260.131 832.434 263.918 828.584 L 248.14 826.324 C 245.999 814.95 245.009 803.135 243.839 791.604 C 232.162 797.695 226.783 799.666 214.048 803.095 C 213.711 812.413 213.342 820.495 212.403 829.823 C 197.412 829.906 182.421 829.836 167.432 829.615 C 166.862 821.703 166.132 813.409 165.75 805.522 C 154.536 804.157 148.182 801.437 137.742 797.006 C 129.636 802.354 121.635 807.859 113.744 813.52 C 103.899 805.008 90.0281 789.802 80.7248 779.909 C 87.2014 773.468 93.7871 767.138 100.479 760.921 C 94.0474 750.355 90.659 740.94 88.6075 728.76 L 60.0058 728.585 C 60.2382 712.441 60.7591 696.303 61.5682 680.178 L 91.8732 679.887 C 96.038 667.224 99.0032 660.073 107.589 649.559 C 102.781 643.178 96.8335 635.676 92.7737 628.96 C 104.782 619.452 118.44 609.46 129.987 599.886 C 135.753 606.418 142.473 613.669 147.965 620.309 C 161.273 616.546 168.984 614.515 182.687 613.55 L 190.199 589.533 z" fill="rgb(8,10,25)" transform="translate(0,0)"></path>
<path d="M 455.462 728.01 L 490.681 728.03 C 491.351 737.145 492.416 746.752 493.273 755.897 C 504.477 759.608 511.829 763.014 521.116 770.163 L 545.53 753.366 C 552.899 762.105 560.114 770.972 567.172 779.964 C 561.883 786.542 556.362 792.739 550.785 799.063 C 558.1 809.642 560.905 819.568 563.839 831.856 L 589.214 833.786 L 589.112 867.268 C 580.277 868.233 570.119 868.652 561.161 869.225 C 556.11 881.116 553.293 885.695 545.678 896.187 L 561.865 919.471 L 534.889 942.243 C 528.516 935.372 522.004 928.632 515.356 922.027 C 505.006 927.797 495.076 933.186 483.123 934.329 L 477.046 961.798 C 473.764 963.177 448.592 960.295 443.332 959.871 L 438.986 932.541 C 427.18 928.245 419.964 924.666 410.092 917.095 C 401.175 920.929 392.987 926.373 384.855 931.623 C 378.161 922.101 371.18 913.234 364.03 904.065 L 381.1 884.313 C 377.133 876.102 373.857 867.574 371.305 858.819 C 361.843 856.108 352.44 853.192 343.104 850.074 C 344.419 839.76 346.766 827.437 348.507 817.031 L 374.408 817.276 C 378.753 807.627 382.073 801.54 388.634 793.289 C 382.607 785.606 376.709 777.824 370.941 769.945 C 377.894 764.069 391.601 751.896 398.916 748.032 C 406.492 753.852 413.886 759.904 421.088 766.18 C 432.598 759.339 436.646 758.448 449.867 755.244 C 451.922 747.839 453.911 735.846 455.462 728.01 z" fill="rgb(247,107,95)" transform="translate(0,0)"></path>
<path d="M 460.854 779.192 C 497.056 775.722 529.225 802.24 532.726 838.44 C 536.226 874.64 509.736 906.831 473.539 910.362 C 437.298 913.897 405.061 887.368 401.556 851.125 C 398.051 814.882 424.608 782.667 460.854 779.192 z" fill="rgb(8,10,25)" transform="translate(0,0)"></path>
<path d="M 461.436 783.097 C 495.351 779.99 525.415 804.84 528.746 838.734 C 532.078 872.628 507.428 902.856 473.557 906.412 C 439.367 910.003 408.791 885.069 405.428 850.856 C 402.065 816.642 427.201 786.232 461.436 783.097 z" fill="rgb(247,107,95)" transform="translate(0,0)"></path>
<path d="M 465.679 795.576 C 493.039 794.712 515.896 816.235 516.677 843.597 C 517.458 870.959 495.865 893.751 468.501 894.448 C 441.254 895.143 418.582 873.663 417.805 846.419 C 417.027 819.175 438.438 796.437 465.679 795.576 z" fill="rgb(8,10,25)" transform="translate(0,0)"></path>
<path d="M 466.481 799.427 C 491.314 799.051 511.866 818.646 512.675 843.468 C 513.484 868.29 494.251 889.181 469.446 890.423 C 453.012 891.245 437.412 883.136 428.644 869.212 C 419.876 855.287 419.303 837.715 427.146 823.25 C 434.99 808.784 450.028 799.676 466.481 799.427 z" fill="rgb(254,254,254)" transform="translate(0,0)"></path>
<path d="M 193.355 594.212 C 206.16 597.679 219.001 601.011 231.876 604.208 L 228.056 628.016 C 239.681 633.557 247.349 640.099 256.032 649.59 C 265.094 646.496 271.663 644.221 281.102 642.21 C 286.469 652.799 291.707 663.453 296.814 674.169 C 289.701 679.71 284.832 683.347 276.785 687.373 C 277.583 690.104 278.361 692.841 279.119 695.584 C 285.498 718.838 280.831 734.74 269.235 755.072 C 273.798 757.19 280.529 761.08 285.13 763.561 C 263.341 776.79 234.702 793.979 210.066 799.48 C 210.014 809.245 209.882 816.137 208.835 825.926 C 196.231 825.946 183.538 826.114 170.957 825.43 C 170.074 817.94 170.044 809.931 169.872 802.354 C 166.57 801.903 163.271 801.43 159.976 800.936 C 151.743 798.617 144.839 796.19 137.544 791.665 C 129.908 797.415 121.689 803.064 113.865 808.609 C 104.348 799.498 95.2703 789.937 86.6642 779.96 C 93.2126 773.353 98.6822 768.136 105.669 762.008 C 97.1053 749.093 94.6027 740.009 91.7039 725.005 L 64.0361 724.871 C 64.3216 711.391 64.963 697.56 65.4288 684.054 L 94.6599 683.972 C 99.6728 668.096 102.649 662.74 112.658 649.432 C 107.552 643.088 102.89 636.688 98.0839 630.128 C 107.507 621.822 119.379 613.216 129.499 605.708 L 146.779 624.693 C 162.211 619.683 169.495 618.209 185.651 617.571 C 187.545 611.059 190.503 599.879 193.355 594.212 z" fill="rgb(254,254,254)" transform="translate(0,0)"></path>
<path d="M 175.648 652.418 C 207.487 646.995 237.682 668.444 243.045 700.294 C 248.408 732.143 226.902 762.298 195.042 767.601 C 163.268 772.89 133.211 751.453 127.862 719.689 C 122.514 687.924 143.893 657.826 175.648 652.418 z" fill="rgb(8,10,25)" transform="translate(0,0)"></path>
<path d="M 176.328 656.359 C 205.984 651.301 234.125 671.239 239.184 700.894 C 244.244 730.549 224.306 758.691 194.651 763.752 C 164.995 768.813 136.851 748.873 131.791 719.217 C 126.732 689.56 146.672 661.418 176.328 656.359 z" fill="rgb(254,254,254)" transform="translate(0,0)"></path>
<path d="M 313.977 752.012 C 322.826 759.913 333.212 769.132 341.027 777.954 C 333.28 785.732 322.163 793.794 313.481 802.035 C 305.206 803.01 291.023 802.599 282.282 802.594 C 281.831 811.307 280.533 822.058 281.05 830.727 C 281.147 832.362 283.769 836.58 284.59 839.838 C 282.302 842.165 277.969 845.691 278.219 848.828 C 280.567 848.52 285.258 844.152 287.409 842.384 C 292.86 847.081 300.253 854.831 305.549 860.058 C 274.845 882.182 300.425 916.102 336.753 894.877 C 330.617 889.182 330.292 888.113 329.243 879.741 C 316.043 865.258 294.896 847.781 283.699 832.758 C 284.354 823.788 284.942 814.812 285.464 805.832 C 294.92 806.005 304.379 805.939 313.831 805.635 C 314.68 816.305 314.061 828.438 321.018 836.777 C 324.843 841.361 339.477 862.875 343.028 864.735 L 344.104 863.427 C 343.119 859.225 341.352 857.17 338.876 853.607 C 347.042 855.317 359.968 859.604 368.393 862.037 L 371.617 872.661 L 376.323 883.76 C 370.864 890.43 364.485 897.257 358.682 903.703 C 366.712 914.142 373.754 922.78 381.505 933.65 L 365.031 946.005 C 357.265 939.607 348.06 932.259 341.897 924.413 C 332.766 927.202 324.787 928.505 315.329 929.189 L 302.497 948.383 C 294.654 943.551 286.888 938.595 279.203 933.518 C 280.378 928.331 281.4 924.325 282.947 919.2 C 275.574 911.95 270.99 906.963 265.86 897.927 C 257.248 898.096 248.634 898.162 240.02 898.124 L 237.117 882.352 L 263.123 879.862 C 264.255 874.279 272.692 853.162 272.669 852.434 C 264.316 850.507 263.385 847.734 257.814 841 C 265.097 830.986 264.908 832.163 277.059 827.405 C 275.959 826.232 254.353 823.336 250.89 822.804 C 249.32 811.806 248.981 801.258 247.05 789.755 C 269.159 777.673 292.415 763.196 313.977 752.012 z" fill="rgb(248,191,101)" transform="translate(0,0)"></path>
<path d="M 345.151 877.549 C 348.474 883.24 346.612 887.326 343.555 892.399 L 342.142 890.868 C 341.084 885.142 342.335 882.586 345.151 877.549 z" fill="rgb(8,10,25)" transform="translate(0,0)"></path>
<path d="M 361.225 715.652 C 367.047 718.125 379.915 725.765 385.968 729.13 L 385.895 752.01 C 378.962 757.682 372.068 763.399 365.211 769.163 C 363.331 767.667 360.869 764.755 359.181 762.901 C 347.761 765.847 348.801 764.453 343.884 775.371 C 336.33 767.663 324.667 754.784 315.353 748.886 C 313.81 747.909 311.965 749.235 310.171 750.065 C 302.83 753.727 297.328 756.814 290.292 761.048 L 275.038 753.893 C 280.111 743.063 282.719 736.776 284.917 725.069 C 314.195 724.431 315.894 725.953 341.186 739.811 C 347.675 731.602 354.356 723.547 361.225 715.652 z" fill="rgb(248,191,101)" transform="translate(0,0)"></path>
<path d="M 353.746 766.391 C 367.479 772.426 375.22 781.219 383.308 793.295 C 378.981 799.194 375.101 806.855 371.575 813.39 L 345.483 813.206 L 340.459 840.971 C 340.185 842.363 339.805 843.457 339.389 844.805 C 338.331 844.862 331.496 841.844 328.307 841.04 C 325.867 837.289 321.888 831.514 320.569 827.427 L 320.352 826.739 C 317.934 819.273 317.936 810.81 317.594 802.917 C 327.57 794.822 339.218 785.989 347.568 776.214 C 348.705 774.884 351.952 768.938 353.746 766.391 z" fill="rgb(254,254,254)" transform="translate(0,0)"></path>
<path d="M 408.705 921.916 C 413.427 923.519 426.465 932.225 435.699 935.805 C 436.882 940.516 437.735 947.493 438.491 952.444 L 313.75 951.93 C 311.25 952.042 309.527 952.417 307.393 951.231 L 307.088 948.907 C 308.373 944.353 314.985 936.548 318.18 932.399 C 327.323 932.094 331.904 930.852 340.588 928.578 C 346.776 935.98 357.173 944.359 364.734 950.72 C 375.383 941.447 396.409 928.281 408.705 921.916 z" fill="rgb(254,254,254)" transform="translate(0,0)"></path>
<path d="M 306.348 863.596 C 311.578 864.744 321.55 875.116 325.91 879.295 C 325.327 888.13 329.485 889.475 328.133 894.62 C 326.082 897.233 321.715 897.944 318.361 898.871 C 307.03 899.013 294.715 893.199 295.571 880.114 C 296.091 872.155 300.732 868.401 306.348 863.596 z" fill="rgb(254,254,254)" transform="translate(0,0)"></path>
<path d="M 1814.19 284.565 C 1819.11 285.117 1838.76 305.743 1843.76 310.615 C 1865.7 331.87 1887.42 353.342 1908.93 375.027 C 1891.88 375.594 1874.81 375.767 1857.75 375.546 C 1860.77 407.444 1862.83 441.811 1865.43 473.998 L 1879.27 473.888 C 1899.26 456.478 1922.44 431.035 1943.14 413.885 C 1944.78 412.53 1946.4 413.336 1948.05 413.905 C 1950.73 417.802 1948.92 485.33 1948.85 495.378 C 1943.48 501.954 1932.61 512.385 1926.42 518.648 C 1910.14 535.042 1893.69 551.261 1877.06 567.305 C 1861.97 582.004 1837.35 607.972 1822.31 620.192 C 1819.91 620.196 1817.63 620.259 1815.8 618.612 C 1802.34 606.479 1788.74 592.06 1776.02 579.185 C 1748.68 551.223 1721.05 523.552 1693.12 496.178 C 1693.12 485.697 1692.21 415.351 1694.14 411.947 C 1701.5 411.904 1750.82 469.568 1762.74 473.785 C 1766 474.935 1766.48 474.684 1769.26 473.203 C 1771.27 465.828 1772.36 444.432 1773.03 435.547 C 1774.47 415.715 1776.13 395.899 1777.99 376.101 L 1720.83 376.033 L 1814.19 284.565 z" fill="rgb(8,10,25)" transform="translate(0,0)"></path>
<path d="M 1815.28 289.642 C 1820.27 293.053 1836.08 308.721 1841.19 313.639 C 1860.87 332.704 1880.41 351.92 1899.8 371.284 L 1853.64 371.173 C 1856.22 396.759 1856.93 422.843 1859.42 448.482 C 1860.36 458.179 1861.03 468.334 1861.11 478.053 L 1880.98 478.054 C 1899.79 460.399 1928.73 434.838 1945.31 416.598 L 1944.17 494.138 C 1932.6 507.78 1905.34 533.651 1891.94 546.737 C 1869.24 568.909 1844.89 594.216 1821.69 615.454 C 1818.9 616.22 1815.8 613.313 1813.97 611.405 C 1775.8 571.713 1734.72 533.581 1696.96 493.63 C 1696.89 468.605 1696.95 443.579 1697.14 418.554 C 1718.03 438.013 1738.5 457.913 1758.54 478.241 L 1774.07 477.999 C 1776.2 448.716 1778.36 399.418 1782.47 372.157 L 1731.32 371.935 C 1754.85 346.113 1789.42 314.492 1815.28 289.642 z" fill="rgb(106,195,172)" transform="translate(0,0)"></path>
<path d="M 247.461 135.82 C 252.359 139.25 270.308 157.814 275.608 163.096 C 293.68 181.105 311.84 199.482 329.89 217.559 C 333.115 220.788 336.714 223.958 336.657 228.101 C 333.404 231.236 296.57 230.469 289.586 230.574 C 291.466 262.844 294.011 296.465 296.431 328.747 L 307.489 328.878 C 328.525 309.748 354.974 283.396 376.254 265.854 C 375.776 294.193 376.124 323.471 376.107 351.882 C 366.132 360.707 353.528 373.671 343.8 383.147 C 323.329 403.223 302.738 423.176 282.029 443.006 C 272.506 452.142 258.311 466.455 248.315 474.473 L 173.363 400.24 C 156.956 384.124 137.68 366.479 122.279 349.756 C 122.485 332.576 122.508 315.395 122.349 298.215 C 122.316 292.051 120.769 274.151 124.291 270.025 C 134.184 270.604 179.323 324.562 192.886 328.816 C 195.726 329.707 196.538 329.1 198.548 327.459 C 201.215 318.187 201.573 292.196 202.542 281.777 C 204.107 264.943 205.627 247.263 206.735 230.396 C 198.804 230.082 159.269 232.135 157.026 226.355 C 158.358 221.376 236.835 145.852 247.461 135.82 z" fill="rgb(8,10,25)" transform="translate(0,0)"></path>
<path d="M 247.235 141.691 C 251.091 142.907 322.517 216.673 331.488 225.975 L 284.612 225.868 C 288.406 258.924 290.424 299.293 292.492 332.869 L 309.347 333.035 L 371.882 274.902 L 371.495 350.077 C 333.505 389.328 288.646 430.536 249.04 469.001 L 126.985 349.106 C 126.658 324.567 126.611 300.026 126.845 275.486 C 147.046 294.705 167.633 313.104 187.293 333 L 203.027 332.953 C 206.793 298.261 207.5 261.239 211.942 225.769 C 195.085 225.63 178.227 225.67 161.371 225.889 L 247.235 141.691 z" fill="rgb(106,195,172)" transform="translate(0,0)"></path>
<path d="M 1810.37 730.275 L 1838.28 737.724 L 1837.76 754.814 C 1845.13 758.921 1849.55 762.451 1856.07 767.746 L 1873.78 762.258 C 1879.16 769.372 1885.79 779.969 1890.89 787.659 C 1886.44 792.178 1881.87 796.592 1877.21 800.898 C 1879.87 809.135 1880.48 815.149 1880.92 823.649 C 1886.38 826.597 1890.89 828.725 1896.56 831.258 C 1894.39 841.95 1892.38 849.805 1889.44 860.231 C 1883 859.942 1877.65 859.309 1871.25 858.523 C 1866.07 865.66 1862.66 869.518 1856.09 875.25 L 1861.35 891.522 C 1854.19 896.965 1844.56 903.281 1836.98 908.816 C 1833.01 904.696 1827.4 897.486 1823.6 892.876 C 1817.18 894.568 1808.95 895.807 1802.35 895.676 L 1797.69 906.32 C 1795.48 910.938 1795.61 912.093 1789.84 911.216 C 1782.12 910.044 1774.12 907.321 1766.62 905.113 C 1766.74 898.561 1767.13 892.173 1767.52 885.636 C 1759.28 880.844 1755.12 877.887 1748.63 871.049 C 1741.43 873.185 1737.49 874.441 1730.66 877.507 C 1725.79 868.944 1721.02 860.324 1716.35 851.648 C 1721.7 847.729 1726.4 843.165 1731.26 838.659 C 1728.86 830.781 1728.92 826.793 1728.96 818.788 C 1723.31 815.766 1717.69 812.695 1712.1 809.573 C 1713.82 801.726 1717.06 791.354 1719.29 783.428 C 1725.97 783.006 1732.02 783.138 1738.7 783.24 C 1742.75 777.793 1746.15 773.425 1750.57 768.284 L 1744.47 751.301 C 1753.04 746.777 1760.82 742.586 1769.18 737.617 L 1781.54 750.662 C 1788.45 748.757 1794.6 747.253 1801.79 746.978 C 1804.56 742.146 1807.77 735.363 1810.37 730.275 z" fill="rgb(8,10,25)" transform="translate(0,0)"></path>
<path d="M 1811.97 735 C 1819.41 736.449 1827.17 738.63 1834.55 740.572 C 1834.07 745.758 1833.95 751.768 1833.73 757.033 C 1841.71 761.532 1848.32 765.977 1854.72 772.558 C 1860.64 770.444 1866.22 768.972 1872.28 767.318 C 1876.51 773.121 1881.45 781.112 1885.5 787.241 C 1881.79 791.223 1876.27 795.646 1872.03 799.251 C 1875.94 810.511 1876.79 814.648 1877.02 826.534 L 1891.83 833.844 C 1890.16 842.722 1889.02 847.719 1886.27 856.297 C 1880.45 855.781 1874.63 855.166 1868.82 854.452 C 1863.26 862.925 1858.76 867.564 1851.16 874.117 C 1852.97 879.42 1854.54 885.056 1856.13 890.448 C 1849.79 894.589 1843.46 898.765 1837.16 902.976 C 1833.21 897.92 1829.14 892.952 1824.96 888.074 C 1814.81 890.84 1809.97 891.226 1799.6 891.428 C 1797.01 896.812 1795.11 901.136 1792.91 906.693 C 1789.5 907.71 1774.95 903.032 1770.55 901.812 C 1770.75 895.372 1771.52 889.701 1772.32 883.322 C 1761.31 877.343 1758.2 874.847 1749.36 865.929 C 1744.27 867.002 1737.26 870.091 1732.25 872.093 L 1721.61 852.579 C 1727.33 848.353 1730.24 845.979 1735.36 841.056 C 1733.2 831.165 1732.95 825.484 1733.17 815.48 C 1727.76 812.541 1722.3 810.088 1716.71 807.508 L 1722.61 787.411 C 1728.34 787.29 1735.39 787.601 1741.22 787.696 C 1746.09 780.02 1748.98 775.611 1756.52 770.058 L 1749.36 753.823 C 1755.98 750.487 1762.53 746.669 1768.99 743.005 C 1771.31 746.382 1777.2 752.677 1780.16 756.007 C 1789.82 752.122 1794.47 751.603 1804.82 750.906 C 1807.31 745.653 1809.69 740.35 1811.97 735 z" fill="rgb(254,254,254)" transform="translate(0,0)"></path>
<path d="M 1795.66 777.727 C 1819.81 772.969 1843.24 788.742 1847.91 812.913 C 1852.59 837.084 1836.73 860.453 1812.55 865.045 C 1788.48 869.614 1765.24 853.855 1760.59 829.801 C 1755.94 805.748 1771.62 782.463 1795.66 777.727 z" fill="rgb(8,10,25)" transform="translate(0,0)"></path>
<path d="M 1796.99 781.486 C 1819 777.474 1840.1 792.062 1844.12 814.074 C 1848.14 836.085 1833.55 857.187 1811.54 861.211 C 1789.53 865.236 1768.41 850.647 1764.39 828.627 C 1760.38 806.608 1774.97 785.501 1796.99 781.486 z" fill="rgb(254,254,254)" transform="translate(0,0)"></path>
<path d="M 1269.61 380.758 C 1286.89 377.947 1303.16 389.701 1305.91 406.981 C 1308.67 424.261 1296.87 440.495 1279.58 443.201 C 1262.37 445.897 1246.22 434.156 1243.47 416.949 C 1240.72 399.742 1252.42 383.556 1269.61 380.758 z" fill="rgb(10,17,38)" transform="translate(0,0)"></path>
<path d="M 1271.42 385.025 C 1286.02 383.186 1299.43 393.317 1301.65 407.866 C 1303.87 422.415 1294.09 436.081 1279.6 438.678 C 1269.89 440.418 1260 436.752 1253.77 429.102 C 1247.54 421.452 1245.95 411.024 1249.62 401.864 C 1253.28 392.705 1261.63 386.258 1271.42 385.025 z" fill="rgb(254,254,254)" transform="translate(0,0)"></path>
<path d="M 647.754 854.571 C 655.991 852.765 664.559 855.571 670.132 861.899 C 675.705 868.227 677.406 877.081 674.573 885.023 C 671.741 892.966 664.821 898.745 656.502 900.119 C 644.094 902.167 632.314 893.956 629.942 881.606 C 627.57 869.256 635.47 857.265 647.754 854.571 z" fill="rgb(8,10,25)" transform="translate(0,0)"></path>
<path d="M 648.616 858.536 C 658.769 856.33 668.818 862.666 671.203 872.779 C 673.588 882.892 667.43 893.051 657.361 895.614 C 650.687 897.313 643.616 895.278 638.867 890.292 C 634.117 885.306 632.428 878.145 634.449 871.561 C 636.47 864.978 641.886 859.999 648.616 858.536 z" fill="rgb(254,254,254)" transform="translate(0,0)"></path>
<path d="M 1641.02 185.246 C 1653.56 184.524 1664.31 194.124 1665 206.667 C 1665.68 219.211 1656.05 229.928 1643.51 230.581 C 1631.01 231.231 1620.35 221.647 1619.66 209.153 C 1618.98 196.659 1628.53 185.966 1641.02 185.246 z" fill="rgb(8,10,25)" transform="translate(0,0)"></path>
<path d="M 1641.11 189.418 C 1651.3 188.793 1660.07 196.526 1660.73 206.71 C 1661.39 216.894 1653.69 225.692 1643.5 226.386 C 1633.27 227.083 1624.42 219.335 1623.76 209.102 C 1623.1 198.869 1630.88 190.046 1641.11 189.418 z" fill="rgb(254,254,254)" transform="translate(0,0)"></path>
<path d="M 820.983 760.798 C 823.081 761.174 822.252 760.659 823.505 762.456 C 822.118 765.725 761.74 798.614 753.648 803.178 C 751.989 802.566 752.782 803.042 751.582 801.153 C 754.1 796.28 812.283 765.45 820.983 760.798 z" fill="rgb(10,17,38)" transform="translate(0,0)"></path>
<path d="M 790.993 755.973 C 792.377 756.961 791.752 756.442 792.572 758.293 C 789.176 763.274 731.686 792.311 722.397 797.017 C 720.559 796.833 721.418 797.127 719.826 795.897 L 720.28 794.325 C 724.439 790.819 730.995 788.347 735.987 785.577 C 754.218 775.516 772.554 765.647 790.993 755.973 z" fill="rgb(8,10,25)" transform="translate(0,0)"></path>
<path d="M 1322.25 95.968 L 1324.04 96.3662 L 1324.83 98.3039 C 1322.61 102.329 1272.69 128.791 1264.9 133.159 C 1264.09 132.881 1263.45 132.11 1262.76 131.473 C 1265.56 124.352 1312.88 101.125 1322.25 95.968 z" fill="rgb(10,17,38)" transform="translate(0,0)"></path>
<path d="M 820.22 284.07 C 821.522 284.843 821.135 284.72 821.755 286.547 C 818.968 290.516 767.378 317.669 758.406 323.071 C 757.957 322.84 756.906 321.823 756.465 321.426 C 758.62 315.917 811.614 288.736 820.22 284.07 z" fill="rgb(8,10,25)" transform="translate(0,0)"></path>
<path d="M 1359.09 411.986 C 1360.1 412.733 1360.02 412.935 1360.69 414.146 C 1358.52 418.661 1310.88 451.717 1303.41 457.01 L 1301.84 455.614 L 1301.99 453.754 C 1305.53 449.414 1352.45 416.071 1359.09 411.986 z" fill="rgb(10,17,38)" transform="translate(0,0)"></path>
<path d="M 1345.65 105.944 L 1347.82 106.378 L 1348.56 108.115 C 1346.12 112.445 1304.54 133.854 1296.42 138.346 C 1294.75 138.994 1295.65 138.793 1293.49 138.327 L 1292.99 136.808 C 1295.6 131.903 1337.14 110.588 1345.65 105.944 z" fill="rgb(10,17,38)" transform="translate(0,0)"></path>
<path d="M 1379.3 108.881 L 1380.97 109.93 L 1381.06 111.791 C 1377.42 116.232 1335.06 138.47 1327.3 142.702 C 1326.05 142.455 1325.69 141.86 1324.76 140.945 C 1327.64 135.47 1370.65 113.539 1379.3 108.881 z" fill="rgb(17,28,49)" transform="translate(0,0)"></path>
<path d="M 1328.67 837.608 C 1329.5 837.658 1330.32 837.85 1331.1 838.177 C 1333.03 838.994 1340.39 848.385 1342.39 850.624 C 1348.23 857.234 1354.62 863.345 1361.48 868.892 C 1366.05 872.541 1376.45 878.842 1378.49 883.483 C 1367.93 885.585 1330.02 848.248 1328.67 837.608 z" fill="rgb(8,10,25)" transform="translate(0,0)"></path>
<path d="M 783.887 280.782 C 785.536 281.774 784.798 281.105 785.725 283.257 C 782.935 288.106 738.517 310.156 729.773 314.667 C 729.22 314.509 728.64 313.668 728.123 313.11 C 729.634 309.425 775.627 285.373 783.887 280.782 z" fill="rgb(8,10,25)" transform="translate(0,0)"></path>
<path d="M 843.223 294.131 L 844.507 295.136 L 844.645 297.08 C 841.661 300.791 804.544 320.242 797.538 324.063 C 795.853 323.664 796.517 324.11 795.525 322.627 C 797.812 317.319 835.116 298.495 843.223 294.131 z" fill="rgb(10,17,38)" transform="translate(0,0)"></path>
<path d="M 1959.73 738.483 L 1961.39 739.663 C 1961.64 744.868 1934.17 782.756 1929.3 789.479 L 1927.67 788.14 C 1927.48 783.659 1955.2 744.513 1959.73 738.483 z" fill="rgb(8,10,25)" transform="translate(0,0)"></path>
<path d="M 77.858 542.197 L 80.2275 543.22 C 82.5795 547.706 75.6216 591.072 74.2486 599.801 L 71.8354 598.307 C 70.2882 593.118 76.6825 550.353 77.858 542.197 z" fill="rgb(8,10,25)" transform="translate(0,0)"></path>
<path d="M 1293.11 835.396 C 1293.84 835.518 1295.45 835.953 1295.9 836.469 C 1306.36 848.543 1316.88 860.325 1328.54 871.288 C 1328.54 871.288 1329.07 874.093 1329.12 874.372 C 1321.26 873.786 1293.53 844.697 1293.11 835.396 z" fill="rgb(8,10,25)" transform="translate(0,0)"></path>
<path d="M 1318.81 846.572 C 1322.99 847.692 1328.62 855.643 1332.13 859.375 C 1338.84 866.514 1346.77 872.316 1353.56 879.103 L 1353.55 882.239 C 1346.17 881.737 1318.2 855.462 1318.81 846.572 z" fill="rgb(10,17,38)" transform="translate(0,0)"></path>
<path d="M 1948.13 714.509 L 1949.6 716.226 C 1949.59 720.903 1923.66 756.665 1918.94 762.02 L 1917.77 760.342 C 1917.75 755.982 1943.69 719.962 1948.13 714.509 z" fill="rgb(8,10,25)" transform="translate(0,0)"></path>
<path d="M 173.146 869.752 C 174.499 869.825 176.584 870.049 177.304 871.218 C 181.666 878.293 198.75 903.508 198.204 910.227 C 192.787 907.247 174.292 875.697 173.146 869.752 z" fill="rgb(8,10,25)" transform="translate(0,0)"></path>
<path d="M 58.2948 569.337 C 59.4251 569.861 59.7818 570.291 60.7406 571.087 C 61.8043 577.654 57.2739 608.288 54.5908 614.157 L 52.9605 613.12 C 51.1573 609.245 57.0963 575.684 58.2948 569.337 z" fill="rgb(8,10,25)" transform="translate(0,0)"></path>
<path d="M 1938.4 691.587 L 1940.06 692.814 C 1940.27 696.984 1920.83 723.539 1917.41 728.432 L 1915.5 726.393 C 1915.8 721.62 1934.41 696.472 1938.4 691.587 z" fill="rgb(8,10,25)" transform="translate(0,0)"></path>
<path d="M 152.714 866.677 C 157.469 868.193 171.976 894.208 172.093 899.745 C 165.797 898.194 157.682 878.731 154.008 873.053 C 152.686 871.008 152.156 869.114 152.714 866.677 z" fill="rgb(8,10,25)" transform="translate(0,0)"></path>
<path d="M 90.8284 563.242 C 92.6398 563.952 92.5735 564.093 93.699 565.607 C 94.1513 572.235 92.7327 578.249 90.9579 584.616 L 89.3069 583.704 C 87.0404 579.742 89.9441 568.258 90.8284 563.242 z" fill="rgb(8,10,25)" transform="translate(0,0)"></path>
<path d="M 102.367 515.476 L 105.855 516.414 C 109.633 520.551 113.875 526.906 114.686 532.543 L 111.499 531.491 C 107.233 526.521 104.579 521.644 102.367 515.476 z" fill="rgb(8,10,25)" transform="translate(0,0)"></path>
<metadata><recraft-signature>{"signed_by": "recraft", "signature_b64": "mmSiK736oDRpVJCxtWanqkWtpEF7jiycTqcXMZD93/g+tZmWvqW11Ze1grNAjfOYxHMVKVsng0KRxvbFpMolAw==", "signing_algo": "Ed25519", "generation_timestamp": 1777312968, "identifier": "4b7158b1-c98b-404a-b12d-c6e1928857d7"}</recraft-signature></metadata></svg>