<svg xmlns="http://www.w3.org/2000/svg" height="1024" preserveAspectRatio="none" style="display: block;" version="1.1" viewBox="0 0 2048 1024" width="2048">
<path d="M 0 0 L 2048 0 L 2048 1024 L 0 1024 L 0 0 z" fill="rgb(253,253,253)" transform="translate(0,0)"></path>
<path d="M 1762.4 60.996 C 1781.99 59.6488 1814.78 60.5757 1835.14 60.5908 L 1971.86 60.9065 L 1935.81 246.105 L 1923.95 306.286 C 1922.54 313.448 1920.16 337.499 1914.75 340.463 C 1911.14 336.706 1877.32 262.163 1871.84 251.143 C 1841.06 256.95 1814.62 260.888 1783.51 268.23 C 1689.53 290.872 1599.1 326.294 1514.74 373.505 C 1460.54 403.607 1409.47 439.05 1362.31 479.304 C 1355.98 484.782 1324.7 515.533 1321.36 515.944 L 1320.9 514.939 C 1321.18 514.163 1321.92 512.419 1322.46 511.835 C 1357.58 473.9 1405.82 437.061 1448.19 409.183 C 1544.1 345.893 1649.87 298.39 1761.08 269.343 C 1797.66 259.791 1832.97 253.873 1869.96 247.121 C 1865.14 236.429 1860.05 225.859 1854.7 215.418 C 1839.28 218.93 1812.14 222.131 1795.12 225.036 C 1765.72 230.217 1736.52 236.505 1707.59 243.887 C 1463.71 304.908 1206.95 454.16 1093.84 688.515 C 1088.68 699.199 1082.38 712.095 1079.47 723.435 C 1078.77 726.202 1079.24 739.235 1079.26 743.075 L 1079.41 784.813 L 1079.05 945.219 L 1147.95 945.562 C 1135.05 924.872 1120.06 902.904 1104.14 884.386 C 1107.26 881.169 1112.73 875.417 1116.06 873.004 C 1126.74 865.611 1131.47 868.006 1138.16 856.068 C 1145.41 848.22 1159.5 839.124 1168.23 833.026 C 1181.9 823.468 1200.53 795.852 1214.2 792.369 C 1213.63 758.072 1202.38 708.43 1211.94 677.081 C 1233.03 607.932 1349.72 574.294 1412.82 596.298 C 1421.12 599.193 1444.3 614.666 1449.43 611.495 C 1450.18 601.222 1456.37 605.715 1463.17 600.547 C 1465.19 595.455 1461.57 587.095 1459.7 582.074 C 1487.29 562.742 1532.7 578.872 1537.9 614.192 C 1539.33 623.934 1526.96 629.703 1526.87 631.023 C 1525.64 648.158 1509.42 644.575 1498.64 652.6 C 1494.06 656.362 1497.65 665.84 1483.45 658.816 C 1479.64 660.038 1480 660.777 1476.95 664.329 C 1499.94 680.13 1502.85 689.022 1531.65 674.708 C 1541.1 670.009 1554.22 664.802 1564.18 660.575 C 1563.93 635.618 1557.83 610.727 1588.16 604.773 C 1597.9 602.862 1601.21 603.292 1611.23 603.946 C 1611.07 598.129 1611.36 591.173 1611.47 585.266 C 1613.83 591.123 1614.65 597.842 1615.71 604.112 C 1665.65 604.643 1715.84 604.094 1765.83 604.59 C 1777.1 604.702 1787.35 603.726 1788.46 618.177 C 1789.37 629.898 1789.01 641.567 1788.99 653.303 L 1788.72 716.315 C 1787.1 718.38 1785.78 720.238 1784.29 722.379 C 1784.46 726.328 1786.24 727.561 1788.78 731.189 C 1789.94 759.199 1789.62 800.727 1788.87 828.986 C 1787.31 831.373 1785.78 833.786 1784.3 836.226 C 1784.67 840.089 1785.88 840.403 1788.67 844.039 C 1790.01 866.752 1789.43 915.453 1788.57 938.615 C 1787.36 940.202 1784.89 943.101 1784.42 944.848 C 1809.19 946.838 1981.22 942.609 1986.79 946.753 L 1986.37 948.38 C 1981.63 951.314 1945.46 949.749 1936.61 949.727 L 1846.35 949.773 L 1534.89 949.808 L 610.454 949.297 L 253.642 949.952 L 126.007 949.733 C 117.958 949.706 68.4837 951.29 64.6583 947.606 L 65.4806 946.143 C 71.6775 944.024 144.433 945.09 155.067 945.582 C 150.694 935.657 139.454 917.049 133.617 905.437 C 138.508 899.145 142.652 896.568 149.119 892.191 C 149.712 889.901 149.167 889.047 148.338 886.804 L 148.036 885.995 C 149.706 880.015 159.604 864.165 163.132 857.692 L 193.834 800.422 C 211.907 766.461 216.524 761.873 217.839 722.72 C 219.446 674.933 229.935 642.634 255.885 602.802 C 256.117 586.789 256.486 566.874 250.501 551.984 C 237.828 520.455 233.507 500.006 271.115 488.678 C 251.356 477.401 252.613 462.508 265.053 445.951 C 264.77 445.639 264.493 445.322 264.22 445.002 C 260.073 440.119 258.121 433.889 258.941 427.549 C 262.062 403.413 290.819 388.969 313.167 391.221 C 326.834 392.599 333.831 401.455 341.623 411.162 C 349.491 411.873 359.432 411.83 365.679 416.529 C 368.577 423.703 350.39 431.07 344.737 433.835 C 354.503 456.282 348.234 472.456 328.551 485.587 C 353.38 488.459 358.253 493.43 370.96 514.046 C 391.656 509.25 404.723 500.647 426.657 504.136 C 455.075 508.656 483.983 511.803 512.253 517.373 C 511.81 545.402 512.582 574.193 511.664 602.129 C 501.284 605.335 491.05 609.323 480.794 612.925 C 437.554 628.113 408.137 645.996 360.332 638.435 C 360.999 644.196 362.01 650.182 363.007 656.119 C 377 739.515 374.559 824.744 363.156 908.237 C 362.685 911.686 358.083 910.432 356.308 913.79 C 364.475 924.801 393.623 924.404 402.915 933.085 C 405.029 935.06 403.652 942.347 405.172 944.609 C 416.896 946.249 462.633 945.137 477.123 945.094 C 495.095 900.188 509.586 863.75 531.817 820.045 C 605.754 676.068 709.293 549.348 835.644 448.197 C 836.629 421.824 832.506 392.006 840.466 365.783 C 852.742 325.344 888.455 296.911 906.531 257.786 C 918.85 231.121 923.868 197.194 941.83 176.382 C 952.792 163.681 992.875 167.926 1008.99 158.641 C 1010.29 156.261 1009.27 143.392 1009.41 138.629 C 980.115 121.811 997.357 110.041 1017.97 98.35 C 1044.06 83.5526 1098.72 79.018 1096.66 121.917 C 1104.1 122.316 1120.17 121.977 1124.84 127.479 L 1123.76 129.406 C 1115.35 134.631 1098.28 135.967 1088.38 136.734 C 1087.39 144.849 1085.75 147.732 1081.92 154.651 C 1083.34 159.267 1086.03 165.736 1084.24 169.873 C 1069.15 171.748 1074.66 180.549 1066.42 188.123 C 1064.33 190.053 1046.61 185.947 1041.9 189.325 L 1042 190.813 C 1044.89 194.629 1050.08 197.113 1054.33 199.56 C 1059.34 208.575 1062.43 240.048 1064.13 252.001 C 1086.36 237.796 1093.32 250.1 1120.27 249.614 C 1123.96 233.917 1130.06 217.703 1133.55 202.01 C 1149.51 196.856 1165.34 191.313 1181.02 185.386 C 1188.13 182.756 1212.42 172.105 1218.3 175.927 C 1219.64 181.463 1207.58 220.491 1205.27 228.39 C 1232.15 215.516 1279.9 198.239 1308.74 188.207 C 1461.5 135.129 1621.07 104.157 1782.59 96.2314 C 1778.82 90.2473 1763.2 66.4259 1762.4 60.996 z" fill="rgb(0,0,0)" transform="translate(0,0)"></path>
<path d="M 1768.63 65.1328 C 1834.68 64.821 1900.73 64.846 1966.77 65.2079 C 1962.85 80.5137 1959.19 103.721 1955.87 119.979 C 1952.96 134.264 1947.18 160.058 1945.68 173.735 L 1944.53 178.194 L 1914.85 330.72 C 1895.13 296.769 1877.64 245.21 1856.82 210.771 C 1821.41 217.028 1789.7 220.924 1753.88 228.677 C 1656.65 249.722 1554.03 282.947 1466.06 329.43 C 1463.18 330.821 1460.03 332.438 1457.14 333.727 C 1391.18 368.831 1343.83 398.146 1284.88 445.233 L 1281.38 448.18 C 1208 510.617 1146.28 578.699 1100.79 664.589 C 1093.61 678.147 1084.21 696.474 1079.03 710.819 C 1079.2 699.075 1082.24 670.96 1075.2 661.049 C 1073.07 658.044 1060.28 660.824 1059.03 658.11 C 1056.4 652.43 1055.86 647.567 1050.38 643.684 C 1042.47 636.775 996.338 633.758 994.619 621.333 C 997.193 618.975 999.137 619.829 1003.38 619.954 L 1004.98 616.632 C 1015.01 586.704 1028.1 557.681 1038.11 527.659 C 1041.3 518.081 1045.08 507.995 1046.84 498.054 C 1052.22 467.641 988.295 385.926 969.533 359.774 C 975.862 348.367 983.365 338.526 989.848 327.434 C 1008.73 318.194 1013.92 312.482 1024.77 294.765 L 1027.18 295.746 C 1026.89 296.1 1026.61 296.459 1026.33 296.823 C 1019.21 306.216 1018.28 315.462 1019.86 326.617 C 1037.21 352.313 1048.87 340.46 1071.14 329.828 C 1095.88 318.224 1112.4 300.485 1140.51 296.732 C 1147.4 295.812 1182.17 277.328 1182.51 270.922 L 1182.29 268.874 C 1186.42 268.148 1191.53 265.913 1195.54 264.34 C 1198.93 254.068 1200.74 243.54 1204.72 232.858 C 1326.6 183.033 1429.84 150.887 1560.16 126.23 C 1606.68 117.692 1653.54 111.123 1700.62 106.538 C 1721.27 104.571 1742.34 102.344 1763.05 101.426 C 1768.14 101.201 1784.48 101.667 1787.74 99.7273 C 1788.18 93.7826 1772.77 71.6372 1768.63 65.1328 z" fill="rgb(166,214,213)" transform="translate(0,0)"></path>
<path d="M 1944.53 178.194 L 1642.42 178.085 L 1535.5 178.153 C 1518.65 178.164 1501.33 178.206 1484.44 178.079 C 1481.58 178.057 1480.71 177.191 1479.27 175.444 C 1482.16 173.388 1488.61 173.813 1492.34 173.812 C 1536.79 173.791 1581.25 173.797 1625.7 173.79 L 1945.68 173.735 L 1944.53 178.194 z" fill="rgb(253,253,253)" transform="translate(0,0)"></path>
<path d="M 1281.38 448.18 C 1218.71 446.843 1155.37 448.561 1092.64 447.974 C 1087.93 447.929 1076.3 448.413 1072.85 445.569 C 1074.99 444.005 1082.76 443.345 1085.27 443.643 C 1105.68 446.054 1277.07 440.522 1284.88 445.233 L 1281.38 448.18 z" fill="rgb(253,253,253)" transform="translate(0,0)"></path>
<path d="M 1457.14 333.727 C 1429.78 331.341 1400.07 333.949 1372.53 332.978 C 1363.28 332.652 1319.8 334.602 1315.88 331.163 C 1317.83 329.45 1321.26 329.022 1323.79 329.018 C 1365.7 328.954 1407.63 328.897 1449.54 328.859 C 1455.14 328.854 1460.5 328.733 1466.06 329.43 C 1463.18 330.821 1460.03 332.438 1457.14 333.727 z" fill="rgb(253,253,253)" transform="translate(0,0)"></path>
<path d="M 1004.98 616.632 C 1018.21 616.949 1111.64 616.059 1116.31 618.692 L 1115.99 619.981 C 1104.98 625.123 1034.63 618.856 1017.71 621.001 C 1015.23 621.315 1005.72 621.023 1003.38 619.954 L 1004.98 616.632 z" fill="rgb(253,253,253)" transform="translate(0,0)"></path>
<path d="M 834.215 454.781 L 835.337 455.211 C 836.333 458.679 835.506 461.076 835.379 464.537 C 834.334 487.143 835.514 513.64 825.686 534.596 C 805.043 578.611 781.337 621.719 759.681 665.264 L 770.017 668.984 C 762.101 678.064 750.962 690.196 744.513 699.835 C 755.421 710.69 775.077 727.841 786.845 738.129 C 774.058 738.096 762.626 737.971 749.876 739.392 C 746.251 743.191 740.598 748.753 740.031 753.974 C 738.174 771.096 739.299 792.291 739.268 809.6 L 739.03 945.037 L 720.277 944.986 C 720.287 928.576 722.007 831.866 718.472 822.898 C 710.797 816.925 672.861 818.877 660.461 818.888 L 570.445 819.037 C 569.067 820.451 567.702 821.877 566.35 823.316 C 559.722 830.385 558.628 831.904 558.944 841.428 L 558.876 945.051 L 481.944 945.085 C 553.061 752.904 674.772 583.503 834.215 454.781 z" fill="rgb(166,214,213)" transform="translate(0,0)"></path>
<path d="M 937.628 676.163 L 1075 676.055 L 1074.84 858.635 C 1074.8 884.676 1075.9 919.568 1074.35 944.76 C 1070.37 945.473 1040.15 945.175 1034.83 945.181 L 937.797 945.275 L 937.628 676.163 z" fill="rgb(82,163,168)" transform="translate(0,0)"></path>
<path d="M 258.844 606.079 C 266.664 608.714 274.978 610.823 282.971 612.977 C 293.637 626.769 338.213 634.869 355.394 637.521 C 372.796 717.697 370.949 812.476 361.101 893.475 C 348.443 895.921 334.326 895.986 321.384 896.285 C 319.849 868.793 318.664 841.284 317.827 813.763 C 317.665 807.486 319.093 784.55 317.785 780.589 C 311.189 760.621 303.15 736.5 296.35 716.818 C 301.443 701.84 306.692 685.414 312.31 670.74 C 319.778 667.254 323.793 665.843 329.725 660.054 L 329.296 658.807 C 325.743 658.748 322.406 660.87 319.178 662.528 L 308.71 668.313 C 295.295 702.971 283.61 742.994 267.935 776.887 C 250.586 814.399 221.018 857.787 196.486 890.623 C 179.199 888.046 172.314 884.958 158.514 874.332 C 173.715 847.449 188.401 820.278 202.566 792.835 C 207.14 784.006 215.261 768.924 218.49 760.283 C 220.878 753.89 220.943 733.096 221.798 724.97 C 227.39 671.826 229.132 650.806 258.844 606.079 z" fill="rgb(166,214,213)" transform="translate(0,0)"></path>
<path d="M 284.627 621.66 L 286.321 623.268 C 287.561 635.346 253.287 651.079 243.23 654.21 C 241.51 652.914 242.107 653.749 241.55 651.513 C 243.484 648.943 248.585 647.896 251.646 646.688 C 265.341 641.284 275.601 632.979 284.627 621.66 z" fill="rgb(0,0,0)" transform="translate(0,0)"></path>
<path d="M 961.468 272.803 C 968.293 279.275 965.032 289.027 970.069 295.477 C 986.065 315.96 1006.82 299.642 1020.97 290.822 L 1021.42 291.675 C 999.384 329.216 990.141 322.398 951.635 324.414 C 963.123 329.216 972.992 328.038 985.172 327.109 C 978.266 338.745 961.571 361.662 956.906 372.748 C 952.437 383.367 946.894 415.32 944.209 427.997 C 940.262 446.21 935.164 464.154 928.943 481.721 C 905.381 550.353 857.773 615.045 813.966 672.486 C 804.742 668.413 795.465 664.079 786.278 659.89 C 805.545 617.321 851.307 553.447 856.313 510.262 C 860.429 474.749 856.161 426.318 859.264 388.038 C 864.971 394.539 870.117 398.315 878.315 401.394 C 908.817 412.852 918.287 380.779 925.907 359.35 L 926.045 357.495 C 924.324 355.151 904.752 350.71 898.997 348.105 C 889.168 343.656 886.752 342.15 877.834 335.679 C 873.003 343.461 858.687 367.565 857.08 375.734 C 847.849 422.666 860.229 477.868 849.169 524.57 C 843.122 550.102 821.714 584.992 808.827 608.255 C 799.808 624.682 791.031 641.243 782.501 657.93 L 770.506 652.949 C 781.195 634.572 793.627 607.416 803.776 588.043 C 810.512 575.183 830.775 537.847 834.016 525.591 C 848.238 471.811 829.303 404.812 849.206 353.69 C 853.888 341.662 870.167 319.876 878.359 309.064 C 887.875 318.864 895.726 325.459 908.713 330.569 C 915.41 333.205 928.937 338.859 935.753 335.943 C 932.625 332.741 873.022 318.336 884.367 301.878 C 891.718 306.456 897.795 311.477 906.425 311.407 C 928.12 311.229 947.294 287.768 961.468 272.803 z" fill="rgb(82,163,168)" transform="translate(0,0)"></path>
<path d="M 755.817 755.077 C 801.651 754.699 847.487 754.598 893.322 754.775 L 893.935 945.053 L 756.026 945.195 L 755.817 755.077 z" fill="rgb(82,163,168)" transform="translate(0,0)"></path>
<path d="M 938.783 464.33 C 951.835 476.131 957.38 484.181 973.425 496.658 C 965.327 513.445 938.716 609.753 938.246 625.506 C 939.518 627.895 938.843 627.086 941.476 628.464 C 945.585 628.911 951.23 626.211 955.292 624.656 C 948.429 636.811 946.621 646.511 944.125 660.115 C 942.4 660.072 940.674 660.046 938.949 660.039 C 915.54 659.794 921.114 686.298 921.151 703.392 L 921.265 758.934 L 921.254 945.268 L 898.217 945.257 L 898.235 899.5 L 898.074 791.973 C 898.088 779.416 898.622 757.097 898.257 746.938 C 897.653 730.12 851.841 741.787 840.588 737.679 C 839.634 737.331 837.735 729.775 836.819 728.92 C 832.759 725.064 827.296 722.742 823.002 719.141 C 815.619 712.948 812.954 701.355 807.264 693.465 C 805.271 690.702 802.073 687.204 801.714 684.392 L 803.436 682.83 C 805.502 683.395 807.204 683.811 809.305 684.231 C 814.608 680.911 831.114 656.653 836.134 649.874 C 882.882 586.732 915.591 539.241 938.783 464.33 z" fill="rgb(166,214,213)" transform="translate(0,0)"></path>
<path d="M 1582.99 658.326 C 1583.28 648.807 1578.39 608.672 1591.95 608.649 C 1651.7 608.55 1711.66 609.205 1771.46 609.164 C 1780.53 609.157 1783.77 611.316 1784.24 621.045 C 1785.26 642.193 1784.42 663.526 1784.58 684.7 C 1784.54 693.128 1785.04 704.505 1784.25 712.692 C 1784.06 714.851 1783.17 716.889 1781.72 718.503 C 1779.33 721.133 1776.58 721.474 1773.25 721.597 C 1756.12 722.227 1587.5 722.832 1585.15 720.157 C 1580.81 715.228 1582.83 689.53 1582.97 682.412 L 1592.28 674.604 C 1592.45 685.389 1589.53 702.66 1595.93 710.534 C 1600.25 712.449 1761.83 713.49 1770.74 711.886 C 1772.1 710.785 1773.22 709.706 1773.92 708.079 C 1776.81 701.413 1776.38 627.743 1773.39 621.362 C 1772.46 619.375 1771.51 618.522 1769.45 617.898 C 1763.44 616.079 1622.51 615.676 1606.95 616.261 C 1602.86 616.415 1598.26 616.517 1594.57 618.434 C 1590.83 623.624 1591.92 637.288 1591.99 644.262 C 1589.76 646.144 1587.26 647.68 1586.61 650.33 L 1589.06 650.962 L 1591.39 653.718 L 1592.03 654.567 C 1595.11 654.911 1616.36 643.197 1617.07 637.612 C 1615.06 634.298 1615.57 635.233 1611.77 633.222 C 1606.5 632.463 1600.39 637.246 1596.05 640.229 C 1596.04 634.126 1596.59 626.735 1596.92 620.533 C 1610.36 619.543 1630.68 620.07 1644.63 620.007 C 1641.83 623.035 1639.86 624.942 1637.85 628.537 L 1638.35 629.48 C 1642.45 627.726 1645.42 624.145 1648.56 620.922 C 1668.2 620.912 1756.19 618.742 1767.74 622.349 C 1769.11 622.774 1769.36 622.717 1769.95 624.009 C 1772.26 629.043 1772.11 700.358 1769.62 706.978 C 1767.35 708.016 1761.83 708.302 1759.2 708.274 C 1709.04 707.727 1658.86 708.444 1608.71 707.758 C 1605.99 707.721 1599.03 707.171 1597.22 705.461 C 1595.63 698.972 1596.35 679.521 1596.46 671.65 C 1603.16 666.545 1632.85 645.031 1635.65 641.036 C 1636.35 635.844 1635 633.33 1629.45 632.973 C 1626.54 635.143 1618.75 640.595 1616.56 642.79 C 1614.85 644.493 1616.28 651.468 1611.94 654.987 C 1603.48 661.843 1594.61 668.264 1586.04 674.955 C 1565.62 690.892 1545.74 708.396 1523.67 721.996 C 1519.27 724.709 1513.28 727.032 1508.04 726.889 C 1496.28 721.369 1507.6 692.54 1516.14 687.342 C 1536.32 675.049 1560.83 666.465 1582.99 658.326 z" fill="rgb(253,253,253)" transform="translate(0,0)"></path>
<path d="M 1646.22 672.315 C 1654.97 671.56 1715.44 671.214 1721.42 672.957 L 1722.63 675.731 C 1715.32 676.52 1651.02 676.686 1647.06 674.822 L 1646.22 672.315 z" fill="rgb(0,0,0)" transform="translate(0,0)"></path>
<path d="M 1645.71 653.344 C 1661.56 652.332 1703.14 653.012 1720.26 654.042 C 1721.41 654.111 1721.63 655.492 1722.06 656.66 C 1714.92 657.422 1650.94 657.644 1646.59 655.947 L 1645.71 653.344 z" fill="rgb(0,0,0)" transform="translate(0,0)"></path>
<path d="M 1603.1 839.498 C 1655.3 836.628 1711.39 840.813 1763.92 839.035 C 1768.77 838.871 1776.65 839.403 1781.13 841.223 C 1785.91 846.799 1785.12 858.843 1784.83 866.003 C 1783.91 888.629 1785.79 911.443 1784.25 934.004 C 1783.45 945.749 1773.97 945.211 1765.28 945.125 L 1653.67 945.18 C 1639.97 945.181 1593.14 946.901 1584.55 941.982 C 1581.68 935.825 1582.61 856.077 1582.56 842.265 C 1590.66 843.075 1595.42 841.553 1603.1 839.498 z" fill="rgb(253,253,253)" transform="translate(0,0)"></path>
<path d="M 1598.22 847.379 C 1652.17 845.385 1708.03 848.256 1762.16 847.446 C 1770.63 847.32 1775.27 849.338 1775.38 858.667 C 1775.66 881.35 1775.69 904.333 1775.57 927.032 C 1775.54 932.388 1774.18 934.658 1770.27 937.892 C 1764.64 938.881 1727.45 938.282 1718.35 938.305 C 1682.29 938.394 1645.78 938.334 1609.69 938.135 C 1605.93 938.114 1600.4 937.575 1596.84 936.457 C 1591.94 930.416 1592.42 917.691 1592.9 909.982 C 1594.01 891.89 1591.56 873.709 1593.22 855.75 C 1593.58 851.893 1595.56 849.92 1598.22 847.379 z" fill="rgb(0,0,0)" transform="translate(0,0)"></path>
<path d="M 1599.35 852.105 C 1614.85 851.421 1764.9 850.504 1769.49 853.521 C 1772.44 860.612 1771.13 883.646 1771.03 892.114 C 1770.92 900.801 1773.1 929.143 1768.96 934.147 L 1656.31 934.18 C 1645.17 934.183 1609.57 934.93 1600.11 932.87 C 1594.75 928.273 1597.51 895.987 1597.16 887.746 C 1596.85 880.096 1595.24 858.024 1599.35 852.105 z" fill="rgb(253,253,253)" transform="translate(0,0)"></path>
<path d="M 1645.91 882.424 C 1662.28 880.364 1701.39 882.567 1719.83 882.29 C 1722.22 882.254 1722.37 883.294 1723.66 885.151 C 1717.2 886.501 1654.17 886.726 1647.53 885.198 L 1645.91 882.424 z" fill="rgb(0,0,0)" transform="translate(0,0)"></path>
<path d="M 1646.93 901.442 C 1657.97 901.41 1717.11 899.496 1722.47 902.64 L 1722.77 905.174 C 1712.31 905.235 1652.02 907.541 1646.65 903.662 L 1646.93 901.442 z" fill="rgb(0,0,0)" transform="translate(0,0)"></path>
<path d="M 1294.76 781.223 C 1329.51 795.112 1343.98 799.368 1380.76 805.845 C 1370.62 831.875 1368.63 864.33 1360.88 891.343 C 1360.08 894.139 1354.82 899.546 1353.1 903.311 C 1349.69 910.773 1355.42 911.988 1353.42 920.392 C 1351.59 928.068 1350.08 937.776 1349.56 945.543 C 1323.85 946.384 1292.54 945.483 1266.42 945.514 L 1213.09 945.471 C 1214.11 912.908 1203.72 917.206 1178.61 912.358 C 1177.58 912.157 1177.6 909.822 1177.49 908.883 C 1178.61 905.226 1182.43 901.984 1185.55 899.918 C 1212.99 881.863 1245.74 870.956 1270.76 849.292 C 1288.84 833.642 1291.85 803.738 1294.76 781.223 z" fill="rgb(253,253,253)" transform="translate(0,0)"></path>
<path d="M 1460.97 785.743 C 1476.16 794.298 1492.02 801.616 1508.38 807.628 C 1529.98 815.729 1543.72 818.679 1563.16 831.458 C 1563.5 854.31 1563.64 877.165 1563.57 900.02 C 1563.56 914.671 1562.55 929.656 1564.96 944.046 C 1560.41 946.232 1525.99 945.5 1518.36 945.479 C 1498.78 945.719 1478.65 945.391 1459.03 945.299 C 1459.01 912.889 1434.59 926.965 1418.83 917.251 C 1417.66 913.883 1423.01 910.583 1423.4 907.243 C 1423.77 902.263 1421.18 900.204 1423.27 895.268 C 1434.31 869.199 1446.13 843.408 1456.92 817.244 C 1461.25 806.757 1462.38 796.968 1460.97 785.743 z" fill="rgb(253,253,253)" transform="translate(0,0)"></path>
<path d="M 293.535 723.791 C 296.124 728.222 311.014 773.66 313.657 782.023 C 314.75 793.912 313.499 808.363 313.928 820.01 C 315.029 849.893 316.698 879.454 318.067 909.254 C 318.117 910.325 323.182 914.433 323.182 914.443 C 323.306 927.525 317.221 931.698 321.851 945.275 L 213.25 945.661 L 201.338 945.523 C 197.346 942.977 200.906 941.169 197.59 937.955 C 188.683 929.322 175.012 924.085 179.33 908.94 C 180.087 906.286 187.26 906.194 189.316 904.699 C 198.099 898.31 204.05 887.233 210.699 878.714 C 231.928 848.736 253.819 816.516 269.671 783.338 C 278.129 765.635 286.416 742.41 293.535 723.791 z" fill="rgb(253,253,253)" transform="translate(0,0)"></path>
<path d="M 591.263 835.475 L 715.955 835.464 C 716.016 871.995 715.848 908.527 715.452 945.056 L 702.5 945.081 L 574.85 945.038 L 574.72 835.701 L 591.263 835.475 z" fill="rgb(82,163,168)" transform="translate(0,0)"></path>
<path d="M 1600.19 737.103 C 1619.22 737.079 1763.64 735.752 1769.57 738.608 C 1773.09 746.544 1770.7 770.639 1771.03 780.182 C 1771.45 792.15 1771.79 805.41 1771 817.363 C 1770.8 820.344 1769.61 821.262 1767.84 823.39 C 1717.35 821.669 1658.9 823.051 1607.92 823.225 C 1604.29 817.534 1600.53 811.923 1596.66 806.394 C 1597.37 789.47 1595.44 757.801 1597.54 740.176 C 1598.59 738.959 1599.47 737.935 1600.19 737.103 z" fill="rgb(253,253,253)" transform="translate(0,0)"></path>
<path d="M 1645.74 767.372 C 1652.15 766.153 1718.24 765.855 1723.54 767.632 L 1724.88 770.58 C 1702.58 772.937 1673.32 769.878 1650.33 770.634 C 1647.55 770.726 1647.21 769.391 1645.74 767.372 z" fill="rgb(0,0,0)" transform="translate(0,0)"></path>
<path d="M 1646.11 786.436 C 1666.1 785.009 1699.13 786.39 1719.94 786.459 C 1722.46 786.467 1722.67 787.619 1724.09 789.588 C 1717.1 790.59 1649.69 790.563 1646.6 788.874 L 1646.11 786.436 z" fill="rgb(0,0,0)" transform="translate(0,0)"></path>
<path d="M 1360.64 593.394 C 1361.51 593.131 1362.89 592.755 1363.76 593.139 C 1411.31 613.942 1432.71 659.124 1456.05 702.066 C 1461.6 712.27 1466.25 722.627 1472.3 731.392 C 1455.25 734.989 1444.22 740.011 1431.68 752.44 C 1415.09 735.187 1392.23 702.45 1378.94 682.457 C 1373.84 673.87 1370.54 668.299 1363.06 661.663 C 1368.11 676.794 1377.76 685.015 1382.26 694.969 L 1381.24 696.026 C 1364.06 701.204 1341.2 694.089 1325.55 686.87 C 1333.11 686.188 1338.81 685.808 1346.19 683.985 L 1346.7 681.967 L 1349.41 681.94 L 1349.54 682.997 L 1350.72 682.193 C 1345.86 679.768 1328.22 683.298 1322.12 684.293 C 1296.89 664.622 1280.13 650.858 1269.18 619.57 C 1295 604.517 1331.14 596.721 1360.64 593.394 z" fill="rgb(253,253,253)" transform="translate(0,0)"></path>
<path d="M 1301.56 691.384 C 1302.11 691.353 1417.36 748.187 1427.26 754.131 C 1430.81 761.245 1415.15 777.972 1449.3 777.882 C 1450.14 777.88 1454.07 780.777 1455.03 781.519 C 1463.18 804.558 1447.98 826.252 1439.33 847.746 C 1433.86 861.334 1423.58 887.384 1415.95 899.042 C 1404.61 896.237 1391.89 896.897 1380.12 896.894 C 1381.34 889.491 1385.27 876.147 1387.29 868.114 C 1391.11 852.541 1394.79 836.936 1398.35 821.3 C 1398.84 817.86 1398.9 816.047 1400.57 812.979 C 1407.02 811.325 1424.53 806.299 1427.1 800.298 C 1423.98 797.098 1417.14 804.511 1410.8 806.237 C 1399.52 809.307 1390.15 808.22 1378.81 807.651 C 1398.28 800.654 1403.47 805.604 1420.35 785.928 C 1414.42 788.527 1411.66 790.496 1406.57 794.323 C 1361.43 773.664 1297.21 745.574 1267.46 706.413 C 1278.21 705.757 1305.79 706.017 1314.82 703.607 L 1315.35 702.119 C 1308.96 698.658 1276.9 705.925 1269.27 701.161 C 1267.63 698.06 1267.87 699.439 1268.4 695.966 C 1270.31 694.474 1296.77 692.145 1301.56 691.384 z" fill="rgb(82,163,168)" transform="translate(0,0)"></path>
<path d="M 966.802 363.68 C 969.195 365.437 981.394 382.872 983.801 386.366 C 1003.07 414.325 1036.99 459.881 1043.94 493.004 C 1033.72 531.017 1018.92 567.774 1005.25 604.711 C 990.763 603.319 976.898 604.426 962.565 606.437 L 964.59 597.293 C 973.659 568.369 984.234 530.094 996.357 502.771 C 1001.87 502.599 1004.89 502.703 1010.25 501.056 L 1010.64 500.098 C 1006.26 499.534 997.477 499.321 995.199 495.581 C 996.71 492.223 1000.86 492.807 1003.43 488.54 L 1002.02 487.819 C 1001.07 488.048 997.25 488.922 996.704 488.661 C 981.82 481.556 955.481 442.881 947.809 431.712 C 949.903 421.464 951.955 410.352 954.554 400.286 C 957.485 398.256 964.99 393.929 964.325 390.223 C 960.941 390.536 957.133 394.102 954.275 396.325 C 957.514 383.157 959.213 375.042 966.802 363.68 z" fill="rgb(82,163,168)" transform="translate(0,0)"></path>
<path d="M 1211.43 704.87 C 1212.87 705.931 1217.84 721.399 1220.1 724.889 C 1239.04 754.153 1262.31 765.66 1291.42 779.679 C 1287.84 796.07 1285.03 828.069 1273.46 840.245 C 1252.61 862.172 1211.89 880.085 1184.93 894.472 C 1176.76 876.535 1169.37 865.545 1154.71 852.625 L 1153.07 851.414 L 1153.1 850.058 C 1164.23 841.581 1174.93 832.55 1185.15 822.999 C 1190.31 818.087 1206.45 801.141 1210.54 798.652 C 1216.18 800.958 1236.05 837.166 1250.96 823.827 L 1250.6 822.341 C 1237.97 824.174 1229.53 816.974 1222.6 807.51 C 1235.81 814.039 1246.91 819.321 1260.76 810.071 L 1260.7 808.897 C 1257.89 807.825 1246.71 811.244 1242.46 812.201 C 1232.64 809.144 1224.66 805.5 1217.34 798.187 C 1217.59 762.356 1212.36 737.9 1211.43 704.87 z" fill="rgb(82,163,168)" transform="translate(0,0)"></path>
<path d="M 1251.51 631.11 C 1253.25 632.585 1262.42 650.65 1266.23 655.741 C 1271.54 662.834 1273.59 665.187 1280.15 671.934 C 1278.02 677.405 1275.89 684.787 1273.74 690.71 C 1270.36 691.083 1268.11 690.973 1265.67 693.291 C 1263.31 696.886 1264.1 703.148 1264.21 707.694 C 1290.96 745.65 1360.3 778.343 1403.8 796.637 C 1394.58 799.331 1390.62 800.946 1381.02 801.401 C 1378.86 801.272 1376.7 801.063 1374.56 800.775 C 1329.26 794.709 1258.09 768.516 1229.6 731.439 C 1200.98 694.181 1216.14 657.135 1251.51 631.11 z" fill="rgb(82,163,168)" transform="translate(0,0)"></path>
<path d="M 334.015 490.657 C 352.964 493.281 357.343 500.087 366.424 515.448 C 356.776 518.418 334.603 523.325 327.412 526.494 C 323.767 533.611 325.636 580.842 325.819 591.479 C 320.854 582.543 289.45 527.396 283.851 524.948 L 283.645 525.658 C 284.136 528.478 285.679 533.526 287.299 535.756 C 299.951 553.171 309.443 572.215 320.687 590.537 C 316.995 591.265 313.074 591.598 310.474 594.203 L 310.757 595.597 C 314.2 597.232 318.514 595.865 322.377 595.109 C 333.69 599.142 345.483 603.833 356.76 608.113 L 357.512 608.622 C 358.214 611.123 354.06 628.673 353.244 633.176 C 338.161 630.259 297.213 623.086 287.002 610.666 C 282.025 604.612 271.181 582.658 267.337 574.818 C 257.985 555.743 238.515 528.677 248.571 507.137 C 252.708 498.346 264.537 495.272 273.02 492.82 C 278.404 502.005 284.309 509.543 296.153 506.397 L 296.964 506.175 C 299.698 507.579 304.793 518.074 309.754 521.64 L 311.717 521.1 C 315.675 516.877 319.608 505.795 321.946 500.042 C 326.573 502.852 332.32 509.522 337.095 509.061 L 338.067 507.353 C 338.105 502.199 335.624 495.719 334.015 490.657 z" fill="rgb(253,253,253)" transform="translate(0,0)"></path>
<path d="M 963.251 171.091 L 965.322 171.434 C 973.396 176.83 998.564 224.972 1004.63 235.91 C 988.336 244.74 975.063 257.417 967.837 274.701 C 961.015 264.819 955.772 254.783 950.787 243.934 C 948.566 239.103 942.806 225.041 939.141 222.372 L 938.445 223.999 C 942.38 238.655 951.9 255.442 959.236 268.739 C 954.575 273.555 950.353 278.54 945.984 283.615 C 929.923 299.172 919.177 310.794 895.311 304.812 C 903.816 298.117 910.733 292.549 918.049 284.554 C 910.296 288.079 899.32 296.577 891.66 301.674 C 890.102 301.078 889.382 299.785 888.322 298.426 C 889.132 293.819 905.048 272.307 908.55 262.691 C 913.459 252.939 917.32 243.079 921.258 232.911 C 931.202 207.241 931.511 177.853 963.251 171.091 z" fill="rgb(253,253,253)" transform="translate(0,0)"></path>
<path d="M 330.12 529.749 C 338.068 532.29 361.523 535.364 371.238 537.196 C 371.353 543.462 369.539 565.869 373.788 569.152 C 394.172 584.9 389.125 548.703 389.203 539.433 C 401.087 541.422 412.916 543.728 424.678 546.346 L 424.38 615.25 L 424.542 627.118 C 414.888 626.225 409.478 626.402 399.664 626.806 C 405.93 623.928 415.567 622.477 415.44 614.53 C 411.221 609.473 394.454 616.466 383.608 612.708 C 365.581 606.461 348.314 600.291 330.511 593.396 C 329.133 575.97 330.06 547.864 330.12 529.749 z" fill="rgb(166,214,213)" transform="translate(0,0)"></path>
<path d="M 507.091 522.546 C 508.464 524.194 507.416 590.279 507.35 598.221 C 487.218 607.089 450.14 619.995 428.886 627.125 L 428.926 608.895 L 428.812 546.276 C 438.565 543.259 448.339 540.305 458.131 537.415 C 458.792 544.872 456.308 554.548 463.612 558.186 C 468.121 558.53 473.513 556.068 477.905 554.469 L 478.027 530.901 C 487.743 528.215 497.432 525.43 507.091 522.546 z" fill="rgb(166,214,213)" transform="translate(0,0)"></path>
<path d="M 1213.78 178.151 C 1214.01 178.662 1214.24 179.172 1214.47 179.683 C 1208.73 202.662 1197.15 239.232 1192.32 261.226 C 1169.22 268.613 1146.04 275.203 1123.34 283.691 C 1121.17 280.89 1140.09 212.826 1142.61 203.106 C 1161.47 197.983 1194.27 185.043 1213.78 178.151 z" fill="rgb(166,214,213)" transform="translate(0,0)"></path>
<path d="M 1168.17 224.498 C 1171.81 224.958 1172.32 225.165 1174.1 227.936 C 1173.99 231.631 1172.93 232.647 1170.81 235.679 C 1166.99 234.722 1168.16 235.502 1165.72 233.039 C 1165.08 229.871 1166.72 227.458 1168.17 224.498 z" fill="rgb(0,0,0)" transform="translate(0,0)"></path>
<path d="M 1605.79 833.643 C 1571.77 846.446 1577.04 830.519 1551.11 818.976 C 1522.66 807.789 1492.46 799.277 1465.85 783.863 C 1460.89 780.993 1442.97 771.22 1447.19 764.941 C 1452.21 757.479 1470.74 745.114 1480.47 750.555 C 1484.89 753.023 1490.2 760.334 1495.52 762.726 C 1518.44 776.042 1540.9 790.152 1563.85 803.425 C 1570.28 802.589 1577.64 801.184 1583.76 802.797 L 1582.81 806.869 C 1585.2 813.101 1600.48 828.89 1605.79 833.643 z" fill="rgb(253,253,253)" transform="translate(0,0)"></path>
<path d="M 1591.17 726.201 C 1631.7 725.236 1673.84 726.37 1714.51 725.901 C 1727.07 725.756 1770.47 725.257 1779.97 727.098 C 1789.51 734.193 1782.76 805.965 1784.87 820.432 C 1785.49 824.702 1782.69 834.621 1777.03 834.729 C 1761.47 835.025 1744.82 834.88 1729.17 834.891 L 1650.26 834.845 C 1643.87 834.863 1614.48 836.539 1610.12 833.762 C 1610.2 830.621 1609.92 831.843 1612.14 828.777 C 1615.66 826.185 1663.5 827.221 1671.5 827.212 C 1684.46 827.199 1765.26 829.453 1772.46 824.627 C 1774.58 823.205 1775.31 818.684 1775.59 816.316 C 1776.63 807.478 1775.5 797.957 1775.56 789.036 C 1775.64 774.344 1777.27 758.494 1775.64 743.942 C 1775.28 740.701 1774.76 737.561 1772.65 734.969 C 1771.57 733.64 1766.33 733.286 1764.67 733.145 C 1739.78 731.033 1713.49 732.77 1688.48 732.835 C 1662.4 732.903 1635.27 731.427 1609.28 733.191 C 1605.61 733.44 1597.57 733.847 1594.97 736.374 C 1589.71 741.475 1592.2 791.721 1592.07 802.282 L 1582.78 798.115 C 1582.84 783.929 1582.39 769.824 1582.35 755.663 C 1582.32 744.178 1579.51 731.887 1591.17 726.201 z" fill="rgb(253,253,253)" transform="translate(0,0)"></path>
<path d="M 1477.05 726.188 C 1482.27 728.337 1485.57 730.289 1489.36 732.358 C 1495.31 735.607 1512.36 732.023 1518.8 728.958 C 1531.51 722.908 1552.26 707.836 1563.34 698.718 C 1563.29 730.399 1564.68 768.112 1563.24 798.932 C 1555.27 793.704 1491.61 756.778 1491.12 753.224 C 1490.04 745.513 1490.95 742.965 1484.6 737.521 C 1481.61 734.961 1476.34 731.728 1474.67 728.233 L 1477.05 726.188 z" fill="rgb(253,253,253)" transform="translate(0,0)"></path>
<path d="M 1060.58 260.969 C 1068.63 252.185 1077 247.789 1089.23 249.556 C 1095.05 250.396 1108.72 255.245 1112.41 260.173 C 1105.62 263.84 1092.9 253.808 1083.7 253.273 C 1080.92 255.151 1079.85 255.098 1079.11 257.703 C 1081.75 259.188 1088.26 259.077 1091.55 260.086 C 1094.91 261.118 1098.07 262.82 1101.19 264.414 C 1095.06 267.635 1091.38 269.709 1084.62 271.715 C 1075.26 274.49 1068.3 271.945 1060.14 276.343 C 1056.16 277.461 1049.9 279.004 1046.18 280.359 C 1035.35 282.539 997.62 292.762 990.721 281.525 C 990.335 279.8 990.195 277.616 990.964 276.052 C 997.766 262.207 999.984 259.131 1012.77 252.393 C 1021.39 253.098 1052.11 258.594 1060.58 260.969 z" fill="rgb(253,253,253)" transform="translate(0,0)"></path>
<path d="M 1050.36 92.1664 C 1068.11 97.5097 1064.58 105.745 1073.82 112.873 L 1075.14 112.219 C 1075.59 103.023 1062.7 95.475 1061.66 92.3689 C 1073.04 88.984 1099.41 107.333 1092.12 119.515 C 1089.48 123.939 1072.82 123.891 1066.76 124.148 C 1059.44 124.713 1052.82 125.312 1045.55 126.249 C 1042.81 125.088 1039.71 123.065 1037.11 121.483 C 1030.35 122.396 1018.01 123.47 1012.5 126.961 C 1011.23 127.76 1010.78 131.311 1008 132.937 C 973.497 115.536 1037.34 94.6889 1050.36 92.1664 z" fill="rgb(82,163,168)" transform="translate(0,0)"></path>
<path d="M 925.775 675.859 C 928.395 675.842 930.393 675.514 932.6 676.78 C 934.562 681.873 933.17 919.407 933.207 945.396 C 930.407 945.436 929.141 945.677 926.564 944.537 C 924.651 939.889 925.792 692.813 925.775 675.859 z" fill="rgb(82,163,168)" transform="translate(0,0)"></path>
<path d="M 327.584 427.154 L 329.526 426.896 L 330.886 427.938 C 335.368 441.499 339.991 455.521 330.229 468.197 C 321.882 479.034 315.816 472.021 306.719 472.994 C 306.893 475.271 325.455 486.092 318.2 498.319 C 316.737 500.784 314.29 508.905 311.733 510.006 L 310.436 507.484 C 306.085 499.966 299.257 495.226 293.354 486.632 C 296.3 478.611 303.698 463.536 293.774 459.829 C 290.685 458.675 290.627 458.771 289.011 455.91 C 288.957 452.639 288.883 452.008 290.288 448.939 C 295.265 446.896 298.082 449.931 303.311 448.761 C 312.284 446.755 315.516 437.925 320.187 431.077 C 322.785 427.268 322.735 428.162 327.584 427.154 z" fill="rgb(253,253,253)" transform="translate(0,0)"></path>
<path d="M 1466.05 615.596 C 1466.47 615.814 1466.17 616.386 1466.2 617.179 C 1466.4 622.123 1465.18 620.799 1467.52 624.948 C 1472.73 626.481 1474.57 620.824 1481.21 622.589 L 1477.58 624.961 L 1478.55 625.885 C 1484.04 627.156 1484.58 623.621 1489.09 624.669 C 1494.6 625.95 1505.24 636.62 1509.74 636.458 C 1508.56 634.881 1507.68 633.652 1506.63 631.982 C 1512.09 634.335 1515.78 635.8 1521.47 637.625 C 1509.37 644.348 1497.94 644.068 1491.84 656.936 C 1488.94 657.429 1485.04 654.26 1482.16 652.454 C 1479.56 656.237 1478.09 658.279 1473.92 659.612 C 1461.67 657.793 1461.68 638.524 1454.66 634.149 C 1451.03 638.5 1454.48 651.123 1449.02 654.874 C 1442.13 651.138 1436.41 630.163 1438.53 622.355 C 1443.9 616.548 1451.69 622.318 1462.15 621.232 C 1465.2 619.133 1464.39 619.461 1466.05 615.596 z" fill="rgb(253,253,253)" transform="translate(0,0)"></path>
<path d="M 1492.78 633.652 C 1495.93 634.96 1499.89 636.642 1501.33 639.727 L 1500.5 641.981 C 1496.41 637.996 1494.34 639.418 1491.74 636.458 L 1492.78 633.652 z" fill="rgb(0,0,0)" transform="translate(0,0)"></path>
<path d="M 1358.38 916.987 C 1374.09 917.173 1391.83 914.969 1407.21 917.942 C 1414.01 919.257 1420.08 923.071 1426.86 924.415 C 1435.22 926.074 1445.19 924.722 1451.91 931.791 C 1453.46 933.416 1454.03 934.637 1453.95 936.875 L 1451.87 937.549 C 1419.32 938.017 1386.77 938.157 1354.22 937.97 C 1355.5 930.957 1356.69 923.916 1358.38 916.987 z" fill="rgb(58,94,114)" transform="translate(0,0)"></path>
<path d="M 1448.31 658.577 C 1452.76 657.833 1457.8 658.109 1462.36 658.187 C 1469.69 664.827 1489.5 677.948 1498.43 684.177 C 1489.22 691.94 1485.61 698.459 1481.67 709.387 C 1480.68 716.029 1481.08 718.497 1481.9 724.951 C 1457.91 696.823 1450.91 695.656 1448.31 658.577 z" fill="rgb(253,253,253)" transform="translate(0,0)"></path>
<path d="M 872.795 352.447 C 892.418 365.472 891.537 366.965 917.707 369.662 C 912.918 381.222 911.696 386.796 903.08 396.226 C 885.293 403.142 868.487 396.767 860.052 379.687 C 862.844 371.318 868.631 360.404 872.795 352.447 z" fill="rgb(82,163,168)" transform="translate(0,0)"></path>
<path d="M 1143.63 286.919 L 1145.89 286.996 L 1145.74 288.458 C 1141.08 294.663 1122.74 295.615 1115.11 299.234 C 1094.35 309.084 1068.27 335.827 1044.04 328.862 C 1031.59 317.329 1043.88 302.558 1057.01 300.294 C 1075.06 297.183 1094.51 299.003 1112.69 296.772 C 1122.23 295.601 1134.49 290.382 1143.63 286.919 z" fill="rgb(253,253,253)" transform="translate(0,0)"></path>
<path d="M 976.521 501.02 L 991.946 502.543 C 978.66 539.607 967.665 567.879 958.594 607.365 L 945.316 610.133 C 953.622 575.428 962.83 533.231 976.521 501.02 z" fill="rgb(82,163,168)" transform="translate(0,0)"></path>
<path d="M 743.976 754.996 C 746.752 755.008 748.815 754.66 750.976 756.219 C 751.852 761.119 751.455 800.695 751.498 808.968 C 751.948 854.534 751.936 900.104 751.462 945.67 C 747.305 945.245 746.562 945.84 743.628 943.726 C 742.231 926.334 743.401 891.65 743.547 873.268 C 743.858 834.021 743.362 794.142 743.976 754.996 z" fill="rgb(82,163,168)" transform="translate(0,0)"></path>
<path d="M 1465.08 582.907 C 1489.79 570.136 1518.23 582.035 1531.67 605.139 C 1533.41 610.626 1535.06 618.071 1530.37 622.508 C 1527.96 621.284 1526.69 619.73 1524.71 617.987 C 1512.19 606.938 1497.64 598.357 1484.49 588.156 L 1482.78 588.718 L 1482.55 590.127 C 1488.52 596.577 1525.77 620.257 1526.84 625.853 C 1524.51 627.351 1525.57 627.158 1522.89 626.588 C 1518.7 620.117 1493.42 606.146 1485.58 600.226 C 1477.01 593.762 1472.97 590.903 1465.08 582.907 z" fill="rgb(82,163,168)" transform="translate(0,0)"></path>
<path d="M 1264.7 621.875 C 1266.57 623.778 1272.98 639.99 1275.38 643.429 C 1279.71 649.618 1285.82 658.116 1291.19 663.554 C 1308.5 681.078 1331.07 697.855 1356.2 701.089 C 1362.45 701.893 1377.05 700.065 1384.18 700.616 C 1386.68 700.808 1387.19 702.496 1388.48 704.436 L 1387.59 705.844 L 1382.46 706.979 C 1367.23 707.074 1348.88 706.936 1334.12 702.555 C 1307.64 694.698 1283.3 673.157 1267.64 650.889 C 1263.47 644.961 1258.69 635.243 1255.08 628.561 L 1264.7 621.875 z" fill="rgb(82,163,168)" transform="translate(0,0)"></path>
<path d="M 767.378 677.52 C 774.156 683.807 782.775 692.548 791.567 694.761 C 794.911 694.533 797.022 692.393 799.702 690.301 C 801.639 690.705 801.307 691.019 802.938 693.005 C 801.61 697.496 798.98 695.016 796.959 699.508 L 799.123 701.75 C 802.651 701.869 801.672 701.773 805.103 699.367 C 807.378 700.811 813.959 717.029 819.699 722.3 L 823.78 725.133 L 823.257 726.091 C 819.057 727.411 800.658 726.776 794.895 726.751 C 783.949 715.509 771.49 699.745 760.119 687.543 L 767.378 677.52 z" fill="rgb(68,122,139)" transform="translate(0,0)"></path>
<path d="M 1139.04 867.529 C 1148.23 870.957 1163.91 896.595 1168.47 905.28 C 1158.88 907.149 1154.18 908.646 1145.18 912.28 L 1144.01 912.838 C 1141.74 911.945 1120.93 882.525 1116.71 877.218 C 1124.73 872.154 1129.4 868.689 1139.04 867.529 z" fill="rgb(68,122,139)" transform="translate(0,0)"></path>
<path d="M 313.257 430.858 C 313.679 430.975 314.442 431.66 314.851 431.978 C 311.674 447.942 291.22 440.996 286.897 446.823 C 277.899 458.771 296.33 460.974 295.024 471.664 C 293.552 483.722 285.599 485.19 275.58 485.546 C 257.94 479.191 257.456 467.025 264.984 451.995 C 281.407 444.878 296.33 437.874 313.257 430.858 z" fill="rgb(58,94,114)" transform="translate(0,0)"></path>
<path d="M 993.87 629.677 C 1001.68 633.799 1008.68 636.18 1017 638.717 C 1024.89 641.121 1040.27 642.009 1046.21 646.514 L 1045.34 647.638 C 1037.43 648.942 1013.11 648.5 1003.9 648.519 C 986.098 648.713 968.29 648.772 950.483 648.696 C 952.644 641.289 953.824 637.616 957.022 630.637 C 971.381 635.758 979.432 636.219 993.87 629.677 z" fill="rgb(68,122,139)" transform="translate(0,0)"></path>
<path d="M 1006.65 239.821 C 1012.63 239.429 1017.87 242.798 1020.4 248.211 C 1004.91 250.932 988.648 258.483 987.657 276.701 C 986.707 294.148 1002.24 290.846 1014.27 289.768 C 1011.81 291.997 1008.71 294.188 1006.02 296.197 C 967.967 318.822 951.983 267.605 1006.65 239.821 z" fill="rgb(253,253,253)" transform="translate(0,0)"></path>
<path d="M 1169.08 909.163 C 1169.2 909.206 1169.33 909.225 1169.44 909.29 C 1171.51 910.52 1172.49 911.471 1173.33 913.69 C 1171.59 916.609 1165.88 918.489 1162.79 920.423 C 1164.77 922.929 1189.94 916.188 1201 920.321 C 1204.1 921.477 1206.42 923.67 1207.71 926.717 C 1209.02 929.844 1209.68 934.317 1208.33 937.487 L 1205.25 937.931 C 1193.72 937.772 1178.2 940.332 1167.17 938.06 C 1156.62 935.889 1151.13 924.934 1145.74 916.641 C 1153.39 913.489 1161.07 911.229 1169.08 909.163 z" fill="rgb(58,94,114)" transform="translate(0,0)"></path>
<path d="M 932.21 664.308 C 968.813 663.04 1006.31 664.866 1042.99 664.251 C 1050.23 664.129 1069.06 662.199 1074.38 666.633 C 1075.49 669.65 1075.46 668.345 1074.36 671.553 L 1071.25 671.897 C 1056.85 671.921 932.639 672.986 928.195 671.031 L 927.631 669.16 C 929.068 666.376 929.703 666.054 932.21 664.308 z" fill="rgb(253,253,253)" transform="translate(0,0)"></path>
<path d="M 574.213 823.167 L 667.787 823.055 C 676.957 823.046 705.343 822.464 713.171 823.692 C 715.796 826.619 715.132 826.734 716.092 831.126 L 620.16 831.148 C 611.003 831.152 582.47 831.821 575.198 830.681 C 573.616 828.029 574.211 826.676 574.213 823.167 z" fill="rgb(253,253,253)" transform="translate(0,0)"></path>
<path d="M 1022.77 206.362 C 1024.2 211.947 1027.21 221.993 1030.85 226.324 L 1032.38 226.375 C 1033.88 221.085 1026.3 210.745 1026.45 204.443 C 1029.68 206.904 1028.57 206.831 1031.94 206.635 C 1037.78 203.214 1038.28 197.88 1041.7 197.389 C 1046.15 204.754 1036.93 246.799 1031.2 250.496 C 1024.35 249.548 1014.48 231.782 1005.35 225.637 C 1004.03 221.121 1002.11 215.765 1002.24 211.164 C 1010.37 214.515 1015.35 210.283 1022.77 206.362 z" fill="rgb(253,253,253)" transform="translate(0,0)"></path>
<path d="M 798.51 742.5 C 811.3 742.359 888.175 740.333 893.338 744.521 C 894.44 745.415 894.198 745.919 894.297 747.301 L 892.442 749.292 C 887.818 751.41 856.215 750.379 848.5 750.343 C 836.8 750.269 762.599 751.973 758.3 750.218 C 755.472 749.065 754.523 747.505 753.436 744.779 C 756.748 741.86 791.425 742.558 798.51 742.5 z" fill="rgb(253,253,253)" transform="translate(0,0)"></path>
<path d="M 1382.82 811.459 C 1386.26 812.158 1392.1 811.969 1395.79 811.983 C 1393.47 829.442 1380.36 878.619 1375.69 896.625 C 1372.73 896.994 1366.61 896.441 1363.39 896.249 C 1371.31 875.185 1375.58 835.282 1382.82 811.459 z" fill="rgb(82,163,168)" transform="translate(0,0)"></path>
<path d="M 1567.91 835.44 L 1577.99 841.058 L 1578.11 907.161 C 1578.11 917.293 1576.69 936.749 1581.03 945.074 C 1578.49 945.052 1568.47 944.514 1568.37 940.828 C 1567.35 905.816 1567.86 870.495 1567.91 835.44 z" fill="rgb(166,214,213)" transform="translate(0,0)"></path>
<path d="M 291.315 398.964 C 292.559 398.975 293.803 399.023 295.045 399.107 C 306.504 399.946 314.099 407.888 321.064 415.95 C 310.875 419.353 300.784 423.045 290.803 427.02 C 283.737 429.148 278.031 434.729 272.33 433.665 C 266.641 426.399 276.393 409.256 280.585 402.554 C 284.095 401.167 287.712 400.09 291.315 398.964 z" fill="rgb(82,163,168)" transform="translate(0,0)"></path>
<path d="M 946.422 437.673 C 958.202 448.473 969.424 473.721 984.067 483.677 C 986.173 485.108 988.598 487.811 989.99 489.974 C 988.333 491.952 986.764 491.834 983.858 492.679 C 982.874 492.897 979.566 493.562 978.801 493.346 C 966.747 489.954 947.195 467.353 940.556 458.815 C 942.476 454.029 945.086 442.979 946.422 437.673 z" fill="rgb(82,163,168)" transform="translate(0,0)"></path>
<path d="M 1033.36 142.597 C 1034.57 142.808 1034.24 142.812 1035.36 143.583 C 1029.89 162.468 1022.29 169.198 1041.59 183.463 C 1038.67 189.517 1035.25 200.124 1029.99 202.221 L 1028.49 200.335 C 1019.26 191.236 1012.19 175.559 1008.8 163.171 C 1019.99 158.782 1026.3 151.845 1033.36 142.597 z" fill="rgb(253,253,253)" transform="translate(0,0)"></path>
<path d="M 562.985 835.632 C 565.885 835.717 567.824 835.46 570.2 837.03 C 571.033 840.961 570.629 863.499 570.633 868.635 L 570.589 945.146 C 567.7 945.148 566.575 945.274 563.767 944.274 C 561.787 939.37 562.959 847.817 562.985 835.632 z" fill="rgb(82,163,168)" transform="translate(0,0)"></path>
<path d="M 1372.88 593.117 C 1383.42 593.43 1394.53 595.056 1402.26 602.18 C 1426.38 624.433 1442.18 640.696 1445.88 673.298 C 1443.86 672.036 1432.11 652.208 1430.22 648.695 C 1416.03 622.443 1397.58 608.839 1372.88 593.117 z" fill="rgb(82,163,168)" transform="translate(0,0)"></path>
<path d="M 948.989 652.648 L 1017.29 652.673 C 1025.9 652.677 1045.17 652.195 1052.56 653.622 C 1055.49 656.076 1054.63 655.524 1055.64 660.014 L 987.883 660.028 C 977.004 660.04 959.849 660.565 949.379 659.608 C 947.585 657.12 948.435 656.558 948.989 652.648 z" fill="rgb(253,253,253)" transform="translate(0,0)"></path>
<path d="M 1568.05 721.565 C 1570.96 723.216 1575.69 728.28 1578.26 730.823 C 1578.01 753.297 1577.97 775.774 1578.14 798.249 C 1574.37 798.292 1572.08 798.51 1568.46 797.404 C 1567.67 791.978 1567.98 777.731 1567.98 771.514 L 1568.05 721.565 z" fill="rgb(166,214,213)" transform="translate(0,0)"></path>
<path d="M 1068.95 280.796 C 1084.27 276.247 1098.55 277.805 1113.88 273.119 L 1110.45 286.429 C 1090.17 287.087 1069.93 288.544 1049.77 290.797 L 1046.07 289.557 L 1045.84 287.934 C 1043.34 286.539 1043.7 287.212 1042.52 285.041 C 1044.2 282.691 1045.12 282.899 1048.15 281.623 L 1046.18 280.359 C 1049.9 279.004 1056.16 277.461 1060.14 276.343 C 1062.06 277.098 1063.13 277.348 1065.19 277.331 C 1067.27 278.559 1067.48 278.865 1068.95 280.796 z" fill="rgb(82,163,168)" transform="translate(0,0)"></path>
<path d="M 1046.18 280.359 C 1049.9 279.004 1056.16 277.461 1060.14 276.343 C 1062.06 277.098 1063.13 277.348 1065.19 277.331 C 1067.27 278.559 1067.48 278.865 1068.95 280.796 C 1063.1 283.153 1053.69 286.342 1049.77 290.797 L 1046.07 289.557 L 1045.84 287.934 C 1043.34 286.539 1043.7 287.212 1042.52 285.041 C 1044.2 282.691 1045.12 282.899 1048.15 281.623 L 1046.18 280.359 z" fill="rgb(0,0,0)" transform="translate(0,0)"></path>
<path d="M 1052.57 138.394 C 1057.57 138.167 1056.71 137.506 1060.64 139.571 L 1059.07 140.215 C 1062.46 141.053 1079.09 144.163 1080.79 144.992 C 1081.75 148.121 1078.01 152.707 1078 156.129 C 1077.98 160.084 1081.98 163.437 1078.6 166.766 C 1075.64 164.76 1055.74 161.262 1050.72 160.23 L 1050.39 159.65 C 1047.33 154.262 1042.75 146.537 1044.35 140.688 C 1047.29 138.057 1047.73 138.858 1052.57 138.394 z" fill="rgb(253,253,253)" transform="translate(0,0)"></path>
<path d="M 756.493 690.582 C 768.842 702.62 780.555 718.386 793.603 730.876 C 801.896 730.938 827.827 729.343 833.861 732.637 C 835.46 735.395 835.28 734.156 834.522 737.271 L 832.208 737.939 L 792.271 737.962 C 782.897 727.388 761.309 709.072 749.971 699.097 L 756.493 690.582 z" fill="rgb(253,253,253)" transform="translate(0,0)"></path>
<path d="M 1390.56 709.227 C 1390.63 709.21 1390.7 709.194 1390.77 709.177 C 1391.34 709.271 1391.92 709.366 1392.49 709.461 C 1393.94 711.51 1395.34 713.606 1396.84 715.613 C 1403.96 725.127 1411.13 734.598 1418.3 744.073 C 1408.23 739.424 1398.35 734.158 1388.51 729.033 C 1375 722.072 1361.31 717.117 1347.4 709.399 C 1361.77 710.801 1376.44 712.574 1390.56 709.227 z" fill="rgb(253,253,253)" transform="translate(0,0)"></path>
<path d="M 1147.22 852.492 C 1164.06 860.559 1174.88 881.994 1181.51 898.325 C 1179.41 900.862 1176.36 903.353 1173.83 905.553 C 1161.31 884.278 1157.39 877.452 1139.1 860.845 C 1141.54 858.038 1144.56 855.149 1147.22 852.492 z" fill="rgb(82,163,168)" transform="translate(0,0)"></path>
<path d="M 1360.5 899.881 C 1363.98 901.301 1410.64 901.79 1419.98 902.648 C 1418.21 907.97 1417.68 909.409 1414.67 914.113 C 1398.78 912.491 1369.47 914.072 1358.77 912.291 C 1356.21 910.33 1356.93 911.436 1356.23 907.977 C 1357.26 903.653 1357.37 902.969 1360.5 899.881 z" fill="rgb(82,163,168)" transform="translate(0,0)"></path>
<path d="M 154.211 895.088 C 159.604 899.008 173.84 905.165 175.563 908.122 L 174.836 909.448 C 172.359 909.543 170.438 909.496 167.981 909.404 L 166.922 910.39 L 167.523 909.592 C 167.395 912.849 171.295 911.182 175.002 915.489 L 174.036 916.914 C 171.856 917.136 171.581 917.188 169.522 917.92 L 169.414 919.737 L 171.147 921.093 C 173.517 920.845 173.972 920.625 176.075 921.529 C 175.89 924.464 174.631 924.685 171.983 927.295 L 172.695 928.357 L 179.416 929.499 L 190.179 936.715 C 181.03 936.836 174.406 936.601 165.274 935.929 C 161.126 928.05 149.253 906.24 147.233 899.113 C 149.141 896.67 151.031 896.469 154.211 895.088 z" fill="rgb(68,122,139)" transform="translate(0,0)"></path>
<path d="M 340.449 527.224 C 353.334 524.326 373.798 515.131 385.129 518.692 C 396.418 520.906 407.736 522.969 419.081 524.879 C 407.777 527.007 398.043 529.457 387.408 533.965 C 376.294 533.879 351.402 529.438 340.449 527.224 z" fill="rgb(222,237,239)" transform="translate(0,0)"></path>
<path d="M 355.239 919.263 L 359.013 921.885 C 359.753 923.968 360.186 925.62 362.085 926.96 L 365.443 924.848 L 366.743 925.338 C 365.849 927.246 364.602 928.774 363.314 930.422 L 363.851 932.206 L 365.432 932.811 C 367.378 931.609 368.066 930.25 369.109 928.297 L 369.523 927.513 L 371.141 927.172 C 370.79 929.171 370.567 930.75 370.883 932.765 L 372.814 932.979 L 376.381 929.483 C 384.468 929.056 396.203 933.843 404.23 936.124 C 397.699 937.189 390.982 936.949 384.381 936.993 C 364.199 937.069 344.018 936.892 323.841 936.463 L 326.315 922.143 C 330.733 924.624 335.881 926.989 341.051 926.896 C 347.33 926.783 351.002 923.507 355.239 919.263 z" fill="rgb(68,122,139)" transform="translate(0,0)"></path>
<path d="M 1468.59 736.152 C 1476.33 735.41 1479.1 736.19 1483.75 742.862 C 1485.69 745.64 1486.97 745.99 1487.36 749.543 C 1485.71 749.971 1479.48 743.996 1471.7 745.344 C 1459.01 747.543 1450.18 754.946 1442.39 764.275 C 1441.12 767.602 1442.02 769.236 1443.15 772.648 L 1442.42 773.606 C 1436.47 772.694 1431.52 772.287 1429.54 766.147 C 1431.64 751.879 1455.49 739.498 1468.59 736.152 z" fill="rgb(253,253,253)" transform="translate(0,0)"></path>
<path d="M 459.979 513.866 C 465.692 512.907 493.605 518.35 500.547 519.86 C 493.697 522.007 465.848 531.196 460.753 530.861 C 455.993 528.875 432.732 525.101 426.36 523.968 C 438.254 520.436 447.96 517.977 459.979 513.866 z" fill="rgb(222,237,239)" transform="translate(0,0)"></path>
<path d="M 1004.42 165.216 C 1005.55 165.461 1005.95 165.438 1006.47 167.125 C 1010.7 180.767 1015.58 189.954 1023.78 201.633 L 1014.52 206.098 C 1011.45 207.484 1008.74 209.066 1005.41 208.884 C 1002.4 204.329 995.986 175.069 995.402 168.651 C 997.607 166.483 1001.25 166 1004.42 165.216 z" fill="rgb(253,253,253)" transform="translate(0,0)"></path>
<path d="M 1182.51 270.922 C 1171.03 275.156 1157.04 278.332 1146.29 282.729 C 1120.84 293.139 1098.55 295.033 1071.5 295.379 C 1066.59 295.441 1053.18 298.804 1051.3 294.571 C 1065.82 291.228 1092.96 292.415 1108.52 290.45 C 1110.11 290.185 1113.34 289.624 1113.82 287.655 C 1118.54 268.257 1123.58 248.597 1129.67 229.529 C 1131.58 223.547 1133.97 210.085 1137.39 205.69 L 1138.01 206.553 C 1137.62 212.136 1136.85 212.767 1135.34 217.793 C 1128.36 241.104 1123.75 265.371 1116.13 288.47 C 1129.79 286.149 1165.13 273.448 1182.29 268.874 L 1182.51 270.922 z" fill="rgb(82,163,168)" transform="translate(0,0)"></path>
<path d="M 1045.84 287.934 L 1046.07 289.557 L 1045.15 292.059 C 1045.53 295.002 1046.06 295.85 1047.32 298.426 C 1045.34 303.103 1037.52 306.258 1035.64 312.211 C 1030.84 327.373 1039.42 330.74 1051.19 335.085 C 1048.94 337.006 1043.87 337.867 1040.74 338.634 C 1011 327.395 1022.08 300.102 1045.84 287.934 z" fill="rgb(253,253,253)" transform="translate(0,0)"></path>
<path d="M 390.693 535.042 C 411.57 522.449 437.103 526.718 459.203 532.731 C 421.055 544.734 429.436 542.597 390.693 535.042 z" fill="rgb(222,237,239)" transform="translate(0,0)"></path>
<path d="M 1112.37 881.477 C 1123.28 883.598 1147.53 933.006 1158.55 939.681 C 1166.35 944.405 1201.67 939.17 1208.26 942.884 L 1208.67 945.317 C 1190.26 945.478 1171.84 945.482 1153.42 945.329 C 1140.2 924.798 1126.52 905.367 1111.97 885.79 C 1110.89 884.344 1111.81 883.168 1112.37 881.477 z" fill="rgb(253,253,253)" transform="translate(0,0)"></path>
<path d="M 1039.37 145.699 C 1040.23 146.626 1042.79 152.82 1043.6 154.457 C 1046.95 161.203 1050.81 166.526 1055.57 172.312 L 1069.14 176.084 C 1066.61 180.512 1065.55 182.107 1062.26 185.994 C 1052.67 186.128 1037.98 180.081 1034.88 170.196 C 1032.04 161.162 1035.51 153.639 1039.37 145.699 z" fill="rgb(58,94,114)" transform="translate(0,0)"></path>
<path d="M 991.453 168.79 C 994.267 186.115 996.21 194.399 1002.24 211.164 C 1002.11 215.765 1004.03 221.121 1005.35 225.637 C 1000.95 222.308 978.092 180.492 971.536 170.864 C 978.408 169.986 984.546 169.285 991.453 168.79 z" fill="rgb(82,163,168)" transform="translate(0,0)"></path>
<path d="M 1507.02 684.672 C 1511.49 686.969 1500.88 700.953 1499.77 706.976 L 1499.67 707.565 C 1498.18 715.755 1501.74 720.758 1500.24 727.488 C 1497.25 729.882 1495.39 729.272 1490.96 729.665 C 1476.93 712.633 1490.1 693.011 1507.02 684.672 z" fill="rgb(253,253,253)" transform="translate(0,0)"></path>
<path d="M 341.172 419.509 C 326.545 421.275 297.586 433.57 283.894 439.085 C 278.907 441.093 274.353 443.838 269.475 445.307 L 268.032 444.487 L 268.054 442.536 C 268.441 442.001 269.89 440.285 270.428 440.047 C 292.6 430.266 330.344 412.686 354.292 416.353 L 363.603 419.32 C 356.426 423.632 351.445 426.651 343.827 429.999 C 341.784 426.663 339.683 424.73 341.506 420.654 L 341.172 419.509 z" fill="rgb(166,214,213)" transform="translate(0,0)"></path>
<path d="M 354.292 416.353 L 363.603 419.32 C 356.426 423.632 351.445 426.651 343.827 429.999 C 341.784 426.663 339.683 424.73 341.506 420.654 L 341.172 419.509 C 344.869 417.931 348.47 420.728 354.292 416.353 z" fill="rgb(68,122,139)" transform="translate(0,0)"></path>
<path d="M 386.127 514.439 C 418.59 504.338 419.764 507.306 453.224 512.214 C 436.357 519.454 416.673 522.733 399.256 517.731 C 396.407 516.913 390.272 516.152 387.767 515.168 C 387.208 514.952 386.661 514.709 386.127 514.439 z" fill="rgb(166,214,213)" transform="translate(0,0)"></path>
<path d="M 977.175 608.405 C 983.516 607.641 997.141 606.876 1002.84 609.808 L 1003.43 612.335 C 1002.76 613.229 999.297 616.023 998.418 616.033 C 987.069 616.157 976.037 616.952 964.773 618.276 C 957.732 619.375 948.366 622.767 941.792 625.45 C 942.482 622.027 943.386 618.458 944.194 615.043 C 955.934 611.627 965.04 609.514 977.175 608.405 z" fill="rgb(82,163,168)" transform="translate(0,0)"></path>
<path d="M 410.16 615.038 C 410.663 615.571 410.709 616.134 410.975 616.948 C 407.719 620.844 397.648 620.003 396.786 627.054 C 400.791 631.129 415.581 631.188 421.766 631.56 C 414.001 633.161 407.19 634.487 399.349 635.596 C 391.732 636.502 384.896 635.474 377.414 634.279 C 379.477 628.472 380.562 622.573 381.835 616.549 C 393.579 619.862 398.922 620.384 410.16 615.038 z" fill="rgb(253,253,253)" transform="translate(0,0)"></path>
<path d="M 878.922 342.047 C 893.126 351.412 904.118 354.306 920.167 359.241 C 920.801 361.936 919.692 363.456 918.671 366.484 C 905.866 363.671 883.5 361.246 876.322 348.956 C 876.126 345.027 876.373 345.98 878.922 342.047 z" fill="rgb(82,163,168)" transform="translate(0,0)"></path>
<path d="M 1467.59 595.333 C 1466.73 592.766 1466.52 592.386 1466.41 589.722 C 1468.36 590.102 1473.29 596.235 1475.78 597.99 C 1487.94 606.556 1509.45 621.048 1522.89 626.588 C 1523.36 629.456 1523.04 629.976 1521.35 631.833 C 1510.48 633.78 1475.33 604.4 1467.59 595.333 z" fill="rgb(166,214,213)" transform="translate(0,0)"></path>
<path d="M 141.125 901.582 C 147.657 906.551 157.947 931.436 163.268 939.995 C 172.711 940.424 185.111 938.544 193.987 941.134 L 194.9 942.909 L 193.871 945.483 C 182.756 945.58 171.621 945.362 160.505 945.272 C 153.076 935.39 144.944 920.805 140.383 909.274 C 139.032 905.859 139.808 904.714 141.125 901.582 z" fill="rgb(253,253,253)" transform="translate(0,0)"></path>
<path d="M 156.199 878.398 C 170.447 888.696 174.653 890.887 191.994 894.6 C 191.628 897.405 188.826 899.795 186.764 902.069 C 177.303 905.021 158.492 895.037 153.675 886.311 C 153.425 882.14 153.967 882.678 156.199 878.398 z" fill="rgb(166,214,213)" transform="translate(0,0)"></path>
<path d="M 1579.8 613.095 C 1577.22 628.499 1579.38 640.145 1577.73 654.739 C 1576.04 657.026 1572.16 657.844 1569.21 658.822 C 1567.84 654.366 1568.22 625.757 1569.82 620.113 C 1571.91 616.822 1576.26 614.988 1579.8 613.095 z" fill="rgb(166,214,213)" transform="translate(0,0)"></path>
<path d="M 1353.51 942.245 C 1361.48 941.055 1450.23 940.54 1454.65 942.295 L 1454.83 945.215 C 1440.2 945.178 1363.46 947.63 1355.15 944.908 C 1354.3 944.628 1353.89 943.061 1353.51 942.245 z" fill="rgb(253,253,253)" transform="translate(0,0)"></path>
<path d="M 1092.81 126.489 C 1100.7 125.877 1114.28 127.037 1122.6 127.511 C 1107.62 132.275 1082.63 133.058 1066.75 133.142 C 1060.54 133.469 1046.76 135.398 1042.45 132.182 L 1043.46 130.489 C 1053.58 128.42 1082.05 127.085 1092.81 126.489 z" fill="rgb(68,122,139)" transform="translate(0,0)"></path>
<path d="M 1047.93 200.336 C 1058.62 207.339 1047.3 249.03 1043.94 252.635 C 1040.91 252.312 1038.97 252.354 1036.4 250.643 C 1036.49 247.898 1037.62 245.381 1038.74 242.903 C 1044.91 229.326 1046.61 215.091 1047.93 200.336 z" fill="rgb(82,163,168)" transform="translate(0,0)"></path>
<path d="M 362.429 610.539 C 368.187 611.714 372.244 612.931 377.804 614.648 C 376.604 622.988 375.57 627.549 371.992 634.994 L 357.491 633.78 C 358.432 626.371 360.677 617.906 362.429 610.539 z" fill="rgb(253,253,253)" transform="translate(0,0)"></path>
<path d="M 1577.41 686.872 C 1578.86 689.266 1578.27 714.501 1578.39 719.03 C 1581.43 721.901 1583.7 723.09 1583.57 727.444 L 1581.63 728.65 L 1580.2 727.203 C 1576.42 723.245 1572.17 719.782 1568 716.232 L 1567.96 694.915 L 1577.41 686.872 z" fill="rgb(166,214,213)" transform="translate(0,0)"></path>
<path d="M 324.997 940.304 C 341.793 940.715 358.594 940.858 375.395 940.733 C 382.927 940.752 392.123 939.762 399.446 941.384 L 398.805 944.251 C 391.697 946.205 332.033 947.091 327.303 944.281 C 325.562 943.247 325.555 942.136 324.997 940.304 z" fill="rgb(253,253,253)" transform="translate(0,0)"></path>
<path d="M 357.345 898.417 C 357.8 898.314 359.117 898.438 359.664 898.469 C 360.472 900.74 360.485 906.026 358.22 906.761 C 348.791 909.821 334.679 909.047 324.789 909.081 C 323.907 908.916 323.127 908.387 322.299 907.944 C 321.933 904.683 321.638 903.582 322.795 900.4 C 334.845 900.192 345.384 900.244 357.345 898.417 z" fill="rgb(166,214,213)" transform="translate(0,0)"></path>
<path d="M 374.797 536.534 L 385.696 538.999 C 384.723 547.452 385.27 560.978 385.861 569.492 C 383.146 569.541 377.966 569.015 375.064 568.809 L 374.797 536.534 z" fill="rgb(166,214,213)" transform="translate(0,0)"></path>
<path d="M 258.815 569.662 C 261.736 571.811 277.228 602.714 279.693 607.519 L 260.041 602.405 C 260.183 591.477 259.773 580.549 258.815 569.662 z" fill="rgb(253,253,253)" transform="translate(0,0)"></path>
<path d="M 768.653 655.994 C 776.183 658.495 803.271 671.425 810.504 675.311 L 809.066 679.733 C 798.783 676.292 774.493 668.519 766.479 662.666 C 766.051 659.479 766.82 659.469 768.653 655.994 z" fill="rgb(82,163,168)" transform="translate(0,0)"></path>
<path d="M 334.626 424.485 C 341.94 428.493 346.51 450.275 344.737 458.199 C 341.915 470.812 333.812 476.696 323.951 483.513 C 322.486 483.335 321.384 482.894 319.971 482.45 L 319.305 480.724 C 321.56 476.914 329.968 476.316 335.301 467.952 C 344.631 453.322 336.938 440.088 334.747 425.332 L 334.626 424.485 z" fill="rgb(58,94,114)" transform="translate(0,0)"></path>
<path d="M 1402.69 597.963 C 1415.46 600.764 1429.33 608.117 1440.58 614.454 C 1436.26 617.905 1435.29 618.189 1433.12 623.29 C 1433.63 626.01 1433.66 626.603 1433.5 629.369 C 1422.89 615.62 1415.78 608.881 1402.69 597.963 z" fill="rgb(253,253,253)" transform="translate(0,0)"></path>
<path d="M 301.32 395.414 C 303.758 395.137 306.374 394.994 308.808 394.859 C 315.924 394.463 336.411 404.638 336.112 412.106 L 333.788 413.226 C 320.452 416.785 322.66 409.407 312.069 401.542 C 309.616 399.72 303.913 398.226 300.526 396.611 L 301.32 395.414 z" fill="rgb(82,163,168)" transform="translate(0,0)"></path>
<path d="M 1034.27 126.293 C 1037.05 126.204 1036 125.928 1038.34 127.225 C 1042.9 138.767 1026.01 139.187 1019.15 140.139 C 1013.29 139.966 1012.51 135.334 1015.4 130.923 C 1020.31 127.76 1028.21 127.234 1034.27 126.293 z" fill="rgb(253,253,253)" transform="translate(0,0)"></path>
<path d="M 774.682 671.195 C 781.411 673.464 791.878 677.968 799.12 680.678 C 797.397 683.479 795.958 686.717 794.53 689.711 C 788.754 691.608 773.879 679.694 772.592 673.772 L 774.682 671.195 z" fill="rgb(253,253,253)" transform="translate(0,0)"></path>
<path d="M 471.293 532.992 C 472.859 532.706 472.054 532.666 473.681 533.608 C 474.639 538.443 474.009 546.27 473.805 551.417 L 465.223 555.126 C 464.719 554.983 463.646 554.267 463.134 553.957 C 461.696 549.126 462.161 541.527 462.21 536.274 C 465.225 535.241 468.291 534.085 471.293 532.992 z" fill="rgb(166,214,213)" transform="translate(0,0)"></path>
<path d="M 980.439 620.601 C 985.093 619.833 987.319 618.612 990.483 622.342 C 988.217 630.04 975.972 629.951 969.555 629.517 C 963.56 627.795 960.743 626.914 954.985 624.327 C 962.238 622.25 972.741 621.41 980.439 620.601 z" fill="rgb(253,253,253)" transform="translate(0,0)"></path>
<path d="M 1055.35 222.701 C 1057.32 230.034 1060.11 245.619 1061.2 253.342 C 1061.41 254.811 1059.27 255.723 1057.89 256.609 C 1054.82 255.92 1051.29 255.402 1049.51 253.056 C 1049.7 245.039 1053.35 230.789 1055.35 222.701 z" fill="rgb(253,253,253)" transform="translate(0,0)"></path>
<path d="M 288.167 488.491 L 289.098 488.342 C 291.761 489.612 295.519 495.686 297.471 498.426 C 294.507 501.301 293.093 502.911 289.454 504.828 C 284.302 501.812 277.906 497.742 278.958 491.229 C 282.515 488.355 282.856 489.17 288.167 488.491 z" fill="rgb(253,253,253)" transform="translate(0,0)"></path>
<path d="M 1467.62 601.636 C 1470.38 602.411 1486.77 615.845 1488.12 618.714 C 1485.46 619.338 1484.36 618.132 1481.33 616.75 C 1477.19 616.98 1473.21 620.969 1470.3 620.382 C 1470.7 611.708 1470.48 611.5 1463.18 607.251 L 1463.21 605.582 L 1467.62 601.636 z" fill="rgb(253,253,253)" transform="translate(0,0)"></path>
<path d="M 327.519 913.479 C 334.786 913.718 344.179 911.254 350.938 913.699 L 351.554 915.585 L 349.46 918.965 C 347.824 920.036 345.905 921.405 343.993 921.871 C 340.082 922.822 334.093 921.663 330.776 919.381 C 328.11 917.547 328.054 916.504 327.519 913.479 z" fill="rgb(253,253,253)" transform="translate(0,0)"></path>
<path d="M 1282.99 675.724 C 1286.23 677.922 1295.41 685.313 1297.26 688.441 L 1294.9 689.05 C 1289.86 689.782 1283.04 690.046 1277.84 690.401 C 1279.45 685.358 1281.16 680.677 1282.99 675.724 z" fill="rgb(82,163,168)" transform="translate(0,0)"></path>
<path d="M 269.494 412.768 C 269.366 412.221 267.598 432.925 267.729 436.259 L 267.75 436.715 L 264.952 439.308 C 258.761 432.102 264.815 419.136 269.494 412.768 z" fill="rgb(82,163,168)" transform="translate(0,0)"></path>
<path d="M 1013.17 142.944 C 1018.62 144.591 1020.18 143.332 1025.82 143.935 L 1025.86 145.463 L 1022.06 149.437 C 1019.76 151.649 1019.12 152.291 1016.24 153.981 L 1014.36 153.475 C 1012.76 150.675 1013.16 146.31 1013.17 142.944 z" fill="rgb(58,94,114)" transform="translate(0,0)"></path>
<path d="M 1583.76 802.797 C 1597.12 810.433 1599.12 816.226 1606.63 829.815 C 1601.9 824.709 1588.76 806.867 1582.81 806.869 L 1583.76 802.797 z" fill="rgb(222,237,239)" transform="translate(0,0)"></path>
<path d="M 324.652 487.497 C 331.765 491.171 333.302 495.169 332.97 502.944 C 329.755 500.975 327.381 499.677 324.635 497.063 C 322.931 494.125 324.019 490.971 324.652 487.497 z" fill="rgb(253,253,253)" transform="translate(0,0)"></path>
<path d="M 1630.64 636.916 C 1631.26 637.639 1631.86 638.726 1632.37 639.563 C 1630.56 642.756 1624.03 646.75 1620.54 649.543 L 1619.32 649.613 L 1618.86 648.065 C 1620.49 644.583 1627.14 640.02 1630.64 636.916 z" fill="rgb(58,94,114)" transform="translate(0,0)"></path>
<path d="M 1598.3 644.229 C 1601.12 641.983 1604.56 638.925 1607.83 637.667 L 1610.31 639.561 L 1610.63 639.315 L 1609.24 637.148 L 1611.24 638.786 L 1612 638.152 C 1606.73 643.709 1604.53 642.966 1599.25 647.397 L 1598.3 644.229 z" fill="rgb(82,163,168)" transform="translate(0,0)"></path>
<path d="M 1024.77 294.765 C 1029.25 285.69 1031.04 287.32 1040.59 285.891 C 1036.26 288.78 1030.78 292.125 1027.18 295.746 L 1024.77 294.765 z" fill="rgb(253,253,253)" transform="translate(0,0)"></path>
<path d="M 1053.68 164.955 C 1059.96 166.653 1065.77 169.162 1071.14 172.869 C 1065.39 174.7 1057.31 169.284 1053.68 164.955 z" fill="rgb(253,253,253)" transform="translate(0,0)"></path>
<path d="M 1114.6 265.473 C 1115.07 266.754 1114.57 267.626 1114.12 268.966 C 1111.54 270.788 1106.54 270.829 1103.22 271.116 L 1103.19 269.026 C 1105.5 267.164 1111.09 266.454 1114.6 265.473 z" fill="rgb(82,163,168)" transform="translate(0,0)"></path>
<path d="M 300.526 501.868 C 306.244 505.025 309.639 511.371 310.109 517.758 C 307.861 515.36 300.597 505.094 300.526 501.868 z" fill="rgb(222,237,239)" transform="translate(0,0)"></path>
<path d="M 1598.3 644.229 L 1599.25 647.397 C 1596.38 649.244 1593.19 650.901 1591.39 653.718 L 1589.06 650.962 L 1598.3 644.229 z" fill="rgb(222,237,239)" transform="translate(0,0)"></path>
<path d="M 989.466 494.975 C 990.283 494.891 991.514 495.169 992.38 495.307 L 993.105 497.047 L 991.982 498.647 L 988.741 499.054 L 983.28 497.637 L 983.246 496.76 L 989.466 494.975 z" fill="rgb(82,163,168)" transform="translate(0,0)"></path>
<path d="M 1466.49 713.916 C 1469.92 717.643 1474.27 722.063 1477.05 726.188 L 1474.67 728.233 L 1466.49 713.916 z" fill="rgb(222,237,239)" transform="translate(0,0)"></path>
<path d="M 1744.62 382.866 C 1740.28 360.564 1744.03 366.721 1761.18 359.692 C 1763.85 365.068 1767.33 372.65 1770.76 377.29 C 1778.21 377.259 1785.66 377.47 1793.09 377.922 C 1798.04 372.589 1801.24 368.659 1805.66 362.866 C 1811.39 364.19 1816.93 365.46 1822.61 367.025 C 1822.65 372.691 1822.49 378.717 1823.01 384.336 C 1823.76 392.364 1831.5 394.738 1837.04 398.838 C 1844.39 395.899 1848.64 394.492 1856.29 392.464 L 1865.53 403.273 C 1860.51 410.155 1857.59 413.964 1851.74 420.105 C 1855.06 427.719 1856.04 431.465 1858.07 439.585 C 1865.37 441.3 1871.67 443.07 1878.86 445.214 L 1878.99 459.521 C 1872.03 461.248 1865.52 462.843 1858.48 464.206 C 1856.11 470.205 1853.2 478.027 1850.05 483.523 C 1853.94 489.114 1857.34 494.42 1860.95 500.19 L 1849.64 512.431 L 1831.07 503.813 C 1824.41 509.487 1820.5 511.212 1812.69 515.161 C 1812.41 521.793 1812.02 528.596 1812.1 535.221 C 1806.66 536.418 1797.74 538.151 1792.75 539.896 C 1790.18 533.754 1787.74 527.982 1784.87 521.968 C 1776.63 521.711 1769.79 521.305 1761.59 520.508 L 1749.65 536.233 C 1742.99 534.006 1738.33 532.306 1731.92 529.463 L 1735.64 510.121 C 1731.28 506.603 1725.58 502.229 1721.54 498.539 C 1716.36 500.596 1703.64 503.31 1700.84 506.39 C 1698.15 500.55 1696.44 494.327 1690.87 492.222 C 1692.82 486.884 1700.83 482.756 1705.57 478.112 C 1704.19 472.23 1701.62 462.441 1701.14 456.791 C 1693.65 454.101 1687.8 454.377 1680.51 452.603 L 1680.89 435.337 C 1687.6 434.475 1695.91 433.632 1702.45 432.449 C 1704.51 426.591 1706.49 420.703 1708.39 414.788 C 1703.92 408.63 1700.62 404.711 1695.54 399.024 C 1699.5 394.838 1704.65 389.658 1708.28 385.348 C 1714.5 389.308 1719.7 392.469 1726.17 395.988 C 1733.16 390.049 1736.76 387.655 1744.62 382.866 z" fill="rgb(166,214,213)" transform="translate(0,0)"></path>
<path d="M 1776.75 395.364 C 1779.92 394.566 1783.21 395.201 1786.42 395.354 C 1811.53 396.553 1833.79 417.149 1838.49 441.602 C 1841.19 454.959 1838.34 468.837 1830.6 480.052 C 1819.51 495.796 1803.11 502.101 1784.98 505.3 C 1768.25 505.336 1754.15 502.359 1740.72 491.703 C 1729.46 482.86 1722.24 469.843 1720.71 455.603 C 1719.19 441.921 1723.28 428.209 1732.06 417.603 C 1743.36 403.947 1759.36 396.92 1776.75 395.364 z" fill="rgb(253,253,253)" transform="translate(0,0)"></path>
<path d="M 1770.88 422.565 C 1778.67 421.094 1786.74 420.938 1794.19 423.984 C 1801.25 426.791 1806.9 432.311 1809.86 439.309 C 1812.62 446.156 1812.53 453.822 1809.6 460.599 C 1805.46 470.172 1798.64 474.288 1789.47 477.849 C 1773.83 480.193 1757.97 476.006 1750.99 460.48 C 1748.17 454.317 1748 447.272 1750.5 440.976 C 1754.35 431.248 1761.8 426.413 1770.88 422.565 z" fill="rgb(166,214,213)" transform="translate(0,0)"></path>
<path d="M 1777.75 428.203 C 1807.81 426.741 1817.13 461.329 1784.46 472.077 C 1771.98 472.602 1760.27 468.658 1757.09 455.116 C 1755.75 449.488 1756.77 443.559 1759.91 438.7 C 1764.58 431.534 1770.05 429.87 1777.75 428.203 z" fill="rgb(253,253,253)" transform="translate(0,0)"></path>
<path d="M 1623.79 456.667 C 1628.84 456.714 1634.16 457.055 1639.23 457.292 C 1640.07 461.462 1642.53 467.96 1643.98 472.164 C 1647.47 472.965 1650.16 474.007 1653.51 475.236 L 1665.31 463.526 L 1679.18 472.095 C 1676.91 477.537 1674.61 482.965 1672.27 488.378 C 1673.54 490.315 1675.62 492.799 1677.09 494.688 C 1682.67 494.076 1685.37 493.788 1690.87 492.222 C 1696.44 494.327 1698.15 500.55 1700.84 506.39 C 1697.16 509.371 1690.48 512.068 1685.99 514.114 L 1687.09 524.813 C 1692.65 526.809 1697.44 528.878 1702.85 531.231 C 1701.99 536.256 1700.51 542.274 1699.4 547.341 L 1682.31 546.73 C 1679.86 551.071 1678.25 553.125 1675.14 557.066 L 1682.97 569.831 L 1669.12 580.024 C 1665.92 576.994 1660.8 573.78 1657.05 571.241 L 1645.68 575.43 C 1644.78 580.228 1643.62 585.239 1642.59 590.033 C 1637.35 590.486 1632.57 591.266 1627.4 592.081 C 1625.28 588.452 1622.75 582.542 1620.92 578.577 C 1617.5 577.515 1614.03 576.926 1610.52 576.245 L 1600.43 585.832 L 1590.01 581.679 C 1590.84 575.965 1592.31 571.172 1593.86 565.638 C 1588.59 566.563 1577.65 570.018 1572.09 571.605 C 1569.81 567.905 1568.14 564.859 1566.13 560.992 C 1571.01 555.888 1576.23 552.504 1574.33 545.036 C 1569.77 539.981 1562.02 540.125 1555.13 539.295 L 1555.1 526.686 L 1570.4 522.298 L 1572.31 511.862 C 1567.94 508.74 1563.05 505.801 1558.49 502.938 L 1565.32 489.547 L 1582.59 493.527 L 1589.41 486.165 L 1582.48 470.77 C 1586.63 468.109 1591.17 464.888 1595.29 462.096 L 1609.54 474.126 C 1612.9 473.467 1616.45 472.432 1619.77 471.535 C 1621.17 467.009 1622.54 461.325 1623.79 456.667 z" fill="rgb(0,0,0)" transform="translate(0,0)"></path>
<path d="M 1627.42 460.035 C 1630.11 460.297 1631.35 460.645 1633.92 461.321 C 1637.6 464.435 1639.12 470.425 1640.91 475.184 C 1645.63 476.77 1650.33 478.445 1655 480.21 L 1665.51 468.512 L 1673.95 473.817 C 1671.84 479.144 1669.4 483.647 1666.77 488.71 C 1669.69 492.034 1672.58 495.66 1675.41 499.09 C 1681.64 497.93 1690.29 494.944 1693.78 501.769 C 1692.53 507.894 1686.05 509.322 1680.74 511.576 C 1682.81 518.925 1682.85 520.566 1683.08 528.016 C 1688.1 529.669 1693.1 531.368 1698.09 533.114 C 1697.47 536.573 1697.35 538.668 1695.34 541.555 C 1691.55 544.143 1684.56 542.599 1679.68 542.078 C 1676.23 548.679 1674.68 551.25 1670.2 557.175 L 1677.23 568.612 C 1674.94 570.754 1671.81 572.818 1669.2 574.657 L 1657.36 566.319 L 1642.23 573.102 C 1641.82 575.263 1641.36 577.415 1640.87 579.559 C 1638.53 589.686 1631.12 591.294 1626.23 580.563 C 1625.67 578.001 1625.43 577.853 1623.83 575.69 C 1619.99 573.178 1614.15 572.992 1609.44 572.432 C 1606.1 575.476 1601.74 580.088 1597.3 580.195 C 1595.12 576.684 1597.09 570.747 1595.29 565.88 C 1591.81 556.471 1573.67 571.138 1570.3 563.218 C 1571.87 559.252 1577.74 553.974 1580.95 550.71 C 1579.23 546.981 1577.83 542.608 1576.46 538.698 C 1570.48 537.927 1562.88 537.998 1559.79 532.503 L 1560.75 530.238 C 1564.09 527.207 1569.57 526.323 1574.07 525.162 L 1576.65 509.343 C 1575.04 508.457 1573.44 507.546 1571.85 506.611 C 1568.01 504.326 1566.66 503.521 1565.51 499.007 C 1568.09 491.874 1576.93 496.259 1582.41 497.97 L 1595.28 487.188 C 1592.78 482.773 1589.87 476.63 1587.52 471.989 C 1597.9 465.014 1600.42 471.193 1608.46 479.169 C 1613.61 477.2 1618.03 475.981 1623.31 474.492 C 1624.64 469.661 1626.01 464.842 1627.42 460.035 z" fill="rgb(253,253,253)" transform="translate(0,0)"></path>
<path d="M 1626.93 497.376 C 1633.51 496.497 1641.45 498.246 1647.1 501.717 C 1652.88 505.284 1656.97 511.037 1658.43 517.667 C 1660.01 524.602 1658.65 531.882 1654.66 537.771 C 1649.41 545.661 1641.97 549.095 1633.04 550.96 C 1624.29 551.283 1617.69 550.725 1610.32 545.461 C 1604.52 541.332 1600.62 535.061 1599.46 528.039 C 1598.33 521.234 1600.03 514.26 1604.17 508.74 C 1610.4 500.565 1617.53 498.771 1626.93 497.376 z" fill="rgb(0,0,0)" transform="translate(0,0)"></path>
<path d="M 1624.4 501.202 C 1637.03 500.548 1649.48 503.587 1653.83 517.154 C 1655.58 522.704 1655 528.731 1652.21 533.84 C 1648.27 541.124 1641.59 544.801 1633.92 546.983 C 1621.52 547.757 1608.59 544.35 1604.21 531.274 C 1602.4 525.858 1602.82 519.944 1605.37 514.837 C 1609.63 506.297 1616.14 503.867 1624.4 501.202 z" fill="rgb(253,253,253)" transform="translate(0,0)"></path>
<path d="M 1853.75 806.725 L 1868.96 806.563 C 1870.5 811.981 1871.61 816.659 1872.82 822.137 L 1885.17 825.9 L 1894.14 815.182 L 1909.06 824.002 C 1907.63 829.07 1905.67 834.066 1903.84 839.011 C 1905.69 841.144 1907.71 844.658 1909.26 847.151 L 1926.67 846.883 C 1927.92 851.02 1929.51 855.331 1930.93 859.434 C 1926.29 862.606 1920.83 865.199 1915.8 867.772 L 1916.22 879.774 C 1921.2 881.947 1925.95 884.554 1930.75 887.098 C 1928.33 903.452 1925.62 901.545 1910.39 900.917 L 1905 908.541 L 1911.24 921.978 L 1898.73 931.644 C 1893.9 928.236 1889.44 924.743 1884.78 921.116 C 1880.72 922.326 1876.64 923.489 1872.55 924.604 C 1870.87 930.853 1870.67 939.2 1864.34 940.523 C 1850.78 940.285 1852.38 937.668 1849.02 925.288 C 1844.19 923.816 1841.15 922.827 1836.51 920.812 C 1832.58 925.076 1828.07 928.771 1823.12 931.79 L 1811.88 922.941 C 1813.62 918.372 1816.86 913.403 1819.42 909.144 C 1811.07 898.189 1809.15 900.802 1796.22 903.808 C 1794.51 898.886 1792.99 892.37 1791.64 887.229 L 1805.54 881.207 C 1805.13 875.477 1804.88 872.978 1805.65 867.156 L 1792.2 861.023 C 1793.54 856.295 1795.76 850.185 1797.34 845.407 L 1811.49 847.272 C 1813.85 844.709 1816.23 842.163 1818.62 839.634 L 1811.63 824.703 C 1815.52 821.311 1820.44 817.984 1824.68 814.945 L 1836.4 825.961 C 1841.2 824.428 1844.74 823.468 1849.67 822.373 L 1853.75 806.725 z" fill="rgb(0,0,0)" transform="translate(0,0)"></path>
<path d="M 1856.89 811.132 C 1861.15 810.856 1862.65 810.514 1865.87 812.673 C 1868 815.873 1867.81 821.344 1868.04 825.368 C 1875.57 827.418 1878.93 828.323 1885.93 831.662 C 1890.03 827.771 1891.83 825.349 1895.2 820.933 C 1898.44 822.55 1899.52 822.979 1902.25 825.412 C 1903.88 830.923 1901.07 834.637 1898.52 840.286 C 1903.19 844.356 1904 845.999 1906.71 851.55 C 1912.65 851.12 1920.76 849.3 1924.48 854.694 C 1923.65 860.284 1916.3 862.391 1911.6 864.496 C 1912.05 871.862 1912.07 876.014 1911.63 883.383 C 1913.58 884.031 1915.52 884.731 1917.44 885.482 C 1922.04 887.285 1926.93 889.471 1924.12 895.078 C 1919.05 898.405 1914.37 897.046 1908.35 896.308 C 1904.82 902.063 1903.79 903.403 1899.07 908.308 C 1901.55 912.426 1904.01 916.562 1906.43 920.717 C 1904.12 922.366 1900.61 924.366 1898.11 925.882 L 1885.49 916.363 C 1880.03 918.74 1874.71 920.194 1869.02 921.888 C 1868.05 925.942 1866.59 934.249 1863.77 936.7 C 1853.74 935.92 1854.45 930.616 1852.36 921.743 C 1845.71 919.778 1842.04 918.842 1835.89 915.584 L 1824.31 927.011 C 1820.08 924.134 1819.82 924.899 1817.99 920.882 C 1818.19 917.013 1822.66 911.928 1825.12 908.548 C 1819.49 903.894 1818.07 901.825 1814.23 895.887 C 1809.28 896.956 1797.57 900.92 1797.16 892.758 C 1800.07 886.747 1803.91 886.169 1810.06 883.759 C 1809.64 876.389 1809.58 872.685 1810.2 865.351 L 1797.41 858.797 C 1798.22 855.787 1798.65 852.644 1801.07 850.776 C 1804.58 849.321 1810.58 851.246 1814.57 852.116 C 1817.44 846.805 1819.3 844.618 1823.03 840.052 C 1821.16 835.829 1818.64 830.886 1816.61 826.663 C 1818.7 824.619 1821.98 822.241 1824.39 820.392 C 1828.23 823.996 1832.08 827.577 1835.96 831.135 C 1843.19 828.407 1846.19 827.47 1853.75 825.971 C 1854.63 819.968 1855.07 817.023 1856.89 811.132 z" fill="rgb(253,253,253)" transform="translate(0,0)"></path>
<path d="M 1858.85 847.211 C 1864.4 846.811 1871.99 849.048 1876.72 851.883 C 1882.34 855.259 1886.39 860.73 1887.98 867.092 C 1892.69 886.067 1879.03 895.919 1862.81 900.064 C 1827.03 899.419 1820.94 854.932 1858.85 847.211 z" fill="rgb(0,0,0)" transform="translate(0,0)"></path>
<path d="M 1860.53 851.184 C 1876.74 854.593 1890.91 864.943 1881.55 884.648 C 1878.43 891.224 1868.98 894.292 1862.11 895.792 C 1851 894.577 1840.84 890.38 1838.14 878.295 C 1836.86 872.626 1837.99 866.681 1841.25 861.874 C 1846.17 854.625 1852.41 852.649 1860.53 851.184 z" fill="rgb(253,253,253)" transform="translate(0,0)"></path>
<path d="M 58.9094 964.349 C 75.3089 962.739 93.2896 964.057 109.869 964.022 L 217.459 963.894 L 560.756 963.843 L 1657.99 964.312 C 1690.99 964.314 1966.8 962.794 1970.63 964.972 C 1971.84 965.659 1971.9 967.401 1972.26 968.707 C 1953.41 969.655 1934.08 968.813 1915.19 968.817 L 1802.29 968.82 L 1463.05 968.606 L 545.06 968.01 L 175.178 968.126 L 93.1741 968.243 C 85.5248 968.275 68.7407 969.84 61.9619 968.142 C 59.9509 967.638 59.7463 966.06 58.9094 964.349 z" fill="rgb(0,0,0)" transform="translate(0,0)"></path>
<metadata><recraft-signature>{"signed_by": "recraft", "signature_b64": "6OLMh/B3gYU4zbrkmH7frDEbeKjq+FgdqtVYntLFd1Bt+uo3/dvk5EOQi+GQB0/S+GTUhoDxkLl1TEW9d9qgAQ==", "signing_algo": "Ed25519", "generation_timestamp": 1777312946, "identifier": "6b32d9b1-2356-4e07-8f27-5ad7b4ba93a9"}</recraft-signature></metadata></svg>